<svg width="148" height="40" viewBox="0 0 148 40" fill="none" xmlns="http://www.w3.org/2000/svg">
<path fill-rule="evenodd" clip-rule="evenodd" d="M53.6622 11.6873C54.6127 12.6424 55.8541 13.12 57.3863 13.12C58.9469 13.12 60.3278 12.6121 61.529 11.5964V7.4869H57.3012V8.98253H59.8407V10.8136C59.1692 11.3075 58.37 11.5545 57.4431 11.5545C56.4405 11.5545 55.6271 11.226 55.0028 10.569C54.3786 9.91206 54.0665 9.07573 54.0665 8.05999V8.03204C54.0665 7.08154 54.3762 6.2685 54.9958 5.5929C55.6153 4.9173 56.379 4.5795 57.287 4.5795C57.8829 4.5795 58.3912 4.6657 58.8121 4.83809C59.233 5.01049 59.6515 5.27373 60.0677 5.62784L61.1743 4.3279C60.6352 3.8806 60.0724 3.54747 59.486 3.32848C58.8996 3.10949 58.1903 3 57.3579 3C55.8825 3 54.66 3.49388 53.6905 4.48166C52.7211 5.46943 52.2363 6.6622 52.2363 8.05999V8.08795C52.2363 9.53234 52.7116 10.7321 53.6622 11.6873ZM63.8043 5.57192V12.9522H65.5209V10.1427C65.5209 9.19219 65.7527 8.46768 66.2161 7.96913C66.6796 7.47058 67.2991 7.22131 68.0746 7.22131H68.174V5.43214C66.9349 5.37623 66.0506 5.97727 65.5209 7.23529V5.57192H63.8043ZM73.1712 13.1199C72.0362 13.1199 71.0904 12.7495 70.3337 12.0087C69.577 11.2678 69.1987 10.3663 69.1987 9.30396V9.276C69.1987 8.20436 69.5818 7.29348 70.3479 6.54333C71.114 5.79318 72.0645 5.41811 73.1995 5.41811C74.3345 5.41811 75.2827 5.79085 76.0441 6.53634C76.8055 7.28183 77.1862 8.18572 77.1862 9.24805V9.276C77.1862 10.3383 76.8031 11.2446 76.037 11.9947C75.2709 12.7449 74.3156 13.1199 73.1712 13.1199ZM74.8459 10.9603C74.4297 11.4122 73.8812 11.6382 73.2002 11.6382C72.5476 11.6382 72.0037 11.4076 71.5686 10.9463C71.1336 10.485 70.916 9.92825 70.916 9.27594V9.24799C70.916 8.58637 71.1241 8.02959 71.5403 7.57763C71.9564 7.12568 72.5003 6.8997 73.1718 6.8997C73.8339 6.8997 74.3825 7.13034 74.8175 7.59161C75.2526 8.05288 75.4701 8.61432 75.4701 9.27594V9.3039C75.4701 9.9562 75.2621 10.5083 74.8459 10.9603ZM80.582 13.0083L78.1559 5.57203H79.9152L81.419 10.632L83.0789 5.54407H84.5544L86.2143 10.632L87.7465 5.57203H89.4774L87.023 13.0083H85.4766L83.8025 7.96225L82.1142 13.0083H80.582ZM90.4314 5.57203L92.8574 13.0083H94.3896L96.0779 7.96225L97.752 13.0083H99.2985L101.753 5.57203H100.022L98.4898 10.632L96.8299 5.54407H95.3544L93.6945 10.632L92.1906 5.57203H90.4314Z" fill="#44475B"/>
<path d="M55.9887 34.5097C57.7164 34.5097 58.8896 33.804 59.6575 32.9115V34.2814H62.1744V27.7847C62.1744 26.3525 61.7905 25.1902 60.9586 24.4015C60.1694 23.6127 58.9109 23.1768 57.2258 23.1768C55.4341 23.1768 54.2183 23.5297 52.9812 24.0694L53.6637 26.0412C54.6876 25.6261 55.6261 25.3562 56.8846 25.3562C58.6976 25.3562 59.6788 26.1865 59.6788 27.7432V28.013C58.8043 27.7432 57.9084 27.5564 56.6499 27.5564C53.8984 27.5564 52 28.7187 52 31.0849V31.1264C52 33.3266 53.877 34.5097 55.9887 34.5097ZM56.7139 32.6831C55.4768 32.6831 54.5169 32.0812 54.5169 31.0227V30.9811C54.5169 29.8396 55.4981 29.1546 57.1619 29.1546C58.1857 29.1546 59.0602 29.3414 59.7215 29.5905V30.3377C59.7215 31.7284 58.4203 32.6831 56.7139 32.6831Z" fill="#44475B"/>
<path d="M70.4699 34.5304C72.6669 34.5304 73.9681 33.6794 75.0772 32.4756L73.5201 30.9811C72.7096 31.7906 71.8137 32.3303 70.5979 32.3303C68.6142 32.3303 67.2278 30.7736 67.2278 28.8225V28.781C67.2278 26.8714 68.6142 25.294 70.4913 25.294C71.7711 25.294 72.6029 25.8544 73.3922 26.6639L75.0132 24.9826C73.9467 23.8618 72.6243 23.0938 70.5126 23.0938C67.1211 23.0938 64.6469 25.7091 64.6469 28.8225V28.864C64.6469 31.9774 67.1211 34.5304 70.4699 34.5304Z" fill="#44475B"/>
<path d="M80.6932 34.5097C82.4209 34.5097 83.5941 33.804 84.3619 32.9115V34.2814H86.8789V27.7847C86.8789 26.3525 86.4949 25.1902 85.6631 24.4015C84.8739 23.6127 83.6154 23.1768 81.9303 23.1768C80.1386 23.1768 78.9228 23.5297 77.6856 24.0694L78.3682 26.0412C79.392 25.6261 80.3306 25.3562 81.589 25.3562C83.4021 25.3562 84.3833 26.1865 84.3833 27.7432V28.013C83.5087 27.7432 82.6129 27.5564 81.3544 27.5564C78.6028 27.5564 76.7045 28.7187 76.7045 31.0849V31.1264C76.7045 33.3266 78.5815 34.5097 80.6932 34.5097ZM81.4184 32.6831C80.1813 32.6831 79.2214 32.0812 79.2214 31.0227V30.9811C79.2214 29.8396 80.2026 29.1546 81.8663 29.1546C82.8902 29.1546 83.7647 29.3414 84.4259 29.5905V30.3377C84.4259 31.7284 83.1248 32.6831 81.4184 32.6831Z" fill="#44475B"/>
<path d="M94.6198 34.5097C96.4542 34.5097 97.6274 33.5964 98.4592 32.4548V34.2814H101.04V19.1294H98.4592V25.0241C97.6487 23.9863 96.4755 23.0938 94.6198 23.0938C91.9322 23.0938 89.394 25.1487 89.394 28.781V28.8225C89.394 32.4548 91.9749 34.5097 94.6198 34.5097ZM95.2384 32.3303C93.4893 32.3303 91.9962 30.9396 91.9962 28.8225V28.781C91.9962 26.6016 93.468 25.2732 95.2384 25.2732C96.9661 25.2732 98.5019 26.6639 98.5019 28.781V28.8225C98.5019 30.9189 96.9661 32.3303 95.2384 32.3303Z" fill="#44475B"/>
<path d="M109.442 34.5304C111.511 34.5304 112.983 33.7209 114.049 32.4756L112.535 31.1679C111.639 32.0189 110.743 32.4756 109.485 32.4756C107.821 32.4756 106.52 31.4793 106.243 29.6943H114.519C114.54 29.4452 114.561 29.2169 114.561 28.9886C114.561 25.8336 112.748 23.0938 109.165 23.0938C105.944 23.0938 103.662 25.6676 103.662 28.8017V28.8433C103.662 32.2265 106.179 34.5304 109.442 34.5304ZM106.221 28.0338C106.456 26.3318 107.565 25.1487 109.143 25.1487C110.85 25.1487 111.831 26.4148 112.002 28.0338H106.221Z" fill="#44475B"/>
<path d="M117.153 34.2814H119.734V28.096C119.734 26.4148 120.715 25.377 122.144 25.377C123.573 25.377 124.427 26.3318 124.427 28.0338V34.2814H127.008V28.096C127.008 26.3318 128.01 25.377 129.418 25.377C130.868 25.377 131.7 26.311 131.7 28.0545V34.2814H134.281V27.2866C134.281 24.609 132.788 23.0938 130.335 23.0938C128.629 23.0938 127.434 23.8618 126.538 25.0241C125.941 23.8618 124.789 23.0938 123.168 23.0938C121.44 23.0938 120.459 24.0071 119.734 24.9826V23.3221H117.153V34.2814Z" fill="#44475B"/>
<path d="M141.993 31.4585L138.815 23.3221H136.042L140.734 34.3021C140.308 35.2361 139.86 35.5475 139.135 35.5475C138.601 35.5475 138.09 35.3814 137.62 35.1324L136.746 37.0004C137.535 37.4155 138.345 37.6646 139.412 37.6646C141.225 37.6646 142.228 36.8344 143.123 34.5927L147.603 23.3221H144.915L141.993 31.4585Z" fill="#44475B"/>
<path d="M20 40C31.0457 40 40 31.0457 40 20C40 8.9543 31.0457 0 20 0C8.9543 0 0 8.9543 0 20C0 31.0457 8.9543 40 20 40Z" fill="#5367FC"/>
<mask id="mask0" mask-type="alpha" maskUnits="userSpaceOnUse" x="0" y="0" width="40" height="40">
<path d="M20 40C31.0457 40 40 31.0457 40 20C40 8.9543 31.0457 0 20 0C8.9543 0 0 8.9543 0 20C0 31.0457 8.9543 40 20 40Z" fill="#5367FC"/>
</mask>
<g mask="url(#mask0)">
<path d="M14.1238 43.3322H8.19541C7.70904 43.3322 7.3147 42.9378 7.3147 42.4515V17.7522C7.3147 17.2658 7.70904 16.8715 8.19541 16.8715H14.1238C14.6101 16.8715 15.0045 17.2658 15.0045 17.7522V42.4515C15.0045 42.9378 14.6101 43.3322 14.1238 43.3322Z" fill="#00ECB3"/>
<path d="M9.0564 43.3322H8.19541C7.70904 43.3322 7.3147 42.9378 7.3147 42.4515V17.7522C7.3147 17.2658 7.70904 16.8715 8.19541 16.8715H9.0564V43.3322Z" fill="#00D9A4"/>
<path d="M23.5745 43.3586H17.6462C17.1598 43.3586 16.7654 42.9642 16.7654 42.4778V13.0069C16.7654 12.5206 17.1598 12.1262 17.6462 12.1262H23.5745C24.0609 12.1262 24.4552 12.5206 24.4552 13.0069V42.4713C24.4618 42.9642 24.0674 43.3586 23.5745 43.3586Z" fill="#00ECB3"/>
<path d="M18.5722 43.3586H17.6521C17.1657 43.3586 16.7714 42.9642 16.7714 42.4778V13.0069C16.7714 12.5206 17.1657 12.1262 17.6521 12.1262H18.5722V43.3586Z" fill="#00D9A4"/>
<path d="M36.2211 38.6525L30.4965 40.2036C30.0299 40.3284 29.5435 40.0524 29.4186 39.5792L24.3841 20.9528C24.2592 20.4862 24.5353 19.9998 25.0085 19.8749L30.7331 18.3304C31.1998 18.2055 31.6861 18.4816 31.811 18.9548L36.8389 37.5877C36.9704 38.0478 36.6943 38.5276 36.2211 38.6525Z" fill="#00ECB3"/>
<path d="M31.4698 39.9406L30.4971 40.2035C30.0304 40.3283 29.5441 40.0523 29.4192 39.5791L24.3847 20.9527C24.2598 20.4861 24.5358 19.9997 25.0091 19.8748L25.9818 19.6119L31.4698 39.9406Z" fill="#00D9A4"/>
</g>
</svg>
