<svg width="15" height="22" viewBox="0 0 15 22" fill="none" xmlns="http://www.w3.org/2000/svg">
  <path
    d="M0.501578 18.7194H2.50789V21.3906C2.50789 21.6667 2.73333 21.8906 3.00947 21.8906C3.28561 21.8906 3.51105 21.6667 3.51105 21.3906V18.7194H5.51736C5.65039 18.7194 5.77797 18.6666 5.87203 18.5727C5.9661 18.4788 6.01894 18.3514 6.01894 18.2185V7.5258C6.01894 7.39296 5.9661 7.26556 5.87203 7.17162C5.77797 7.07769 5.65039 7.02492 5.51736 7.02492H3.51105V2.35547C3.51105 2.07933 3.28561 1.85547 3.00947 1.85547C2.73333 1.85547 2.50789 2.07933 2.50789 2.35547V7.02492H0.501578C0.368551 7.02492 0.240973 7.07769 0.146909 7.17162C0.0528443 7.26556 0 7.39296 0 7.5258V18.2185C0 18.3514 0.0528443 18.4788 0.146909 18.5727C0.240973 18.6666 0.368551 18.7194 0.501578 18.7194Z"
    fill="#00D09C" />
  <path
    d="M9.23986 15.7456H11.2462V18.996V20.415C11.2462 20.6912 11.4716 20.915 11.7478 20.915C12.0239 20.915 12.2493 20.6912 12.2493 20.415V15.7456H14.2556C14.3887 15.7456 14.5162 15.6928 14.6103 15.5989C14.7044 15.5049 14.7572 15.3775 14.7572 15.2447V3.88515C14.7572 3.75231 14.7044 3.62491 14.6103 3.53098C14.5162 3.43704 14.3887 3.38427 14.2556 3.38427H12.2493V1.37988C12.2493 1.10374 12.0239 0.879883 11.7478 0.879883C11.4716 0.879883 11.2462 1.10374 11.2462 1.37988V3.38427H9.23986C9.10683 3.38427 8.97925 3.43704 8.88519 3.53098C8.79113 3.62491 8.73828 3.75231 8.73828 3.88515V15.2447C8.73828 15.3775 8.79113 15.5049 8.88519 15.5989C8.97925 15.6928 9.10683 15.7456 9.23986 15.7456Z"
    fill="#EB5B3C" />
</svg>
