<svg width="24" height="24" viewBox="0 0 24 24" fill="none" xmlns="http://www.w3.org/2000/svg">
<path d="M11.9832 21.9666C10.7443 21.9666 9.57905 21.7319 8.48738 21.2624C7.39571 20.793 6.44571 20.1513 5.63738 19.3374C4.82905 18.5235 4.18738 17.5735 3.71238 16.4874C3.23738 15.4013 2.99988 14.2333 2.99988 12.9833C2.99988 11.7444 3.23738 10.5791 3.71238 9.48743C4.18738 8.39576 4.82905 7.44299 5.63738 6.6291C6.44571 5.8152 7.39571 5.17353 8.48738 4.7041C9.57905 4.23465 10.7443 3.99993 11.9832 3.99993C13.2221 3.99993 14.3874 4.23465 15.4791 4.7041C16.5707 5.17353 17.5235 5.8152 18.3374 6.6291C19.1513 7.44299 19.7929 8.39576 20.2624 9.48743C20.7318 10.5791 20.9666 11.7444 20.9666 12.9833C20.9666 14.2333 20.7318 15.4013 20.2624 16.4874C19.7929 17.5735 19.1513 18.5235 18.3374 19.3374C17.5235 20.1513 16.5707 20.793 15.4791 21.2624C14.3874 21.7319 13.2221 21.9666 11.9832 21.9666ZM14.9332 17.0999L16.0999 15.9333L12.8666 12.6999V7.99993H11.1999V13.3666L14.9332 17.0999ZM5.4332 2.33325L6.59988 3.49993L2.44988 7.5499L1.2832 6.38325L5.4332 2.33325ZM18.5332 2.33325L22.6832 6.38325L21.5166 7.5499L17.3666 3.49993L18.5332 2.33325Z" fill="#00D09C"/>
</svg>
