<svg width="153" height="152" viewBox="0 0 153 152" fill="none" xmlns="http://www.w3.org/2000/svg">
<path d="M76.5 136C109.637 136 136.5 109.137 136.5 76C136.5 42.8629 109.637 16 76.5 16C43.3629 16 16.5 42.8629 16.5 76C16.5 109.137 43.3629 136 76.5 136Z" fill="#FAE9E5"/>
<path d="M76.5 116C98.5914 116 116.5 98.0914 116.5 76C116.5 53.9086 98.5914 36 76.5 36C54.4086 36 36.5 53.9086 36.5 76C36.5 98.0914 54.4086 116 76.5 116Z" fill="#EB5B3C"/>
<circle cx="76.5" cy="75.9995" r="20" fill="white"/>
<path d="M77 46C60.44 46 47 59.44 47 76C47 92.56 60.44 106 77 106C93.56 106 107 92.56 107 76C107 59.44 93.56 46 77 46ZM80 91H74V85H80V91ZM80 79H74V61H80V79Z" fill="#EB5B3C"/>
</svg>
