<svg width="17" height="16" viewBox="0 0 17 16" fill="none" xmlns="http://www.w3.org/2000/svg">
<path d="M12.7054 8.50874C12.7133 7.89546 12.8762 7.29415 13.179 6.76075C13.4817 6.22735 13.9144 5.7792 14.4369 5.45798C14.105 4.98395 13.6671 4.59383 13.1581 4.31863C12.649 4.04342 12.0828 3.89071 11.5044 3.87261C10.2706 3.7431 9.07442 4.61092 8.44568 4.61092C7.80477 4.61092 6.83673 3.88547 5.79431 3.90692C5.12004 3.9287 4.46292 4.12477 3.88696 4.47603C3.311 4.82729 2.83585 5.32175 2.5078 5.91124C1.08678 8.37151 2.14674 11.9873 3.50795 13.976C4.189 14.9498 4.98495 16.0376 6.02643 15.999C7.04558 15.9567 7.42621 15.3491 8.65642 15.3491C9.8752 15.3491 10.2323 15.999 11.2949 15.9745C12.3885 15.9567 13.0775 14.9963 13.7347 14.0133C14.224 13.3194 14.6006 12.5525 14.8504 11.7411C14.215 11.4723 13.6728 11.0225 13.2914 10.4477C12.91 9.87294 12.7062 9.19858 12.7054 8.50874Z" fill="white"/>
<path d="M10.6989 2.56476C11.2952 1.84895 11.5889 0.928903 11.5178 0C10.6068 0.0956804 9.76535 0.531067 9.16102 1.21941C8.86554 1.55568 8.63924 1.94689 8.49504 2.37068C8.35085 2.79446 8.2916 3.24251 8.32067 3.68921C8.77632 3.6939 9.2271 3.59514 9.63905 3.40037C10.051 3.20559 10.4134 2.91988 10.6989 2.56476Z" fill="white"/>
</svg>
