<svg width="38" height="38" viewBox="0 0 38 38" fill="none" xmlns="http://www.w3.org/2000/svg">
<g clip-path="url(#clip0)">
<path d="M31.0619 37.3328L24.6849 30.9437L21.5938 34.0412C21.327 34.3086 20.9396 34.4187 20.5702 34.3332C20.201 34.2455 19.9042 33.9738 19.7847 33.6134L13.6015 15.0261C13.4702 14.6325 13.5726 14.1983 13.8651 13.9052C14.1565 13.6132 14.5909 13.5062 14.9837 13.641L33.5324 19.8371C33.8921 19.9569 34.1631 20.2542 34.2507 20.6243C34.3372 20.9933 34.2272 21.3815 33.9593 21.65L30.8682 24.7475L37.2441 31.1377C37.671 31.5655 37.671 32.2587 37.2441 32.6865L32.6075 37.3328C32.1805 37.7607 31.4889 37.7607 31.0619 37.3328Z" fill="#DCDCDD"/>
<path d="M14.466 9.03125C13.8619 9.03125 13.373 8.54138 13.373 7.93599V1.36448C13.373 0.759096 13.8619 0.269226 14.466 0.269226C15.0701 0.269226 15.559 0.759096 15.559 1.36448V7.93599C15.559 8.54138 15.0701 9.03125 14.466 9.03125Z" fill="#00D09C"/>
<path d="M9.05678 10.6357L4.41906 5.9883C3.99215 5.56049 3.99215 4.86734 4.41906 4.43954C4.84598 4.01173 5.53769 4.01173 5.96461 4.43954L10.6023 9.08684C11.0292 9.51465 11.0292 10.2078 10.6023 10.6356C10.1753 11.0635 9.4837 11.0635 9.05678 10.6357Z" fill="#00D09C"/>
<path d="M4.41906 24.5755C3.99215 24.1477 3.99215 23.4546 4.41906 23.0267L9.05671 18.3794C9.48363 17.9516 10.1753 17.9516 10.6023 18.3794C11.0292 18.8073 11.0292 19.5004 10.6023 19.9282L5.96461 24.5755C5.53769 25.0033 4.84605 25.0033 4.41906 24.5755Z" fill="#00D09C"/>
<path d="M18.33 10.6356C17.903 10.2078 17.903 9.51464 18.33 9.08683L22.9676 4.43954C23.3945 4.01173 24.0862 4.01173 24.5131 4.43954C24.9401 4.86734 24.9401 5.56049 24.5131 5.98829L19.8755 10.6356C19.4486 11.0634 18.7569 11.0634 18.33 10.6356Z" fill="#00D09C"/>
<path d="M7.90816 15.6028H1.3503C0.746176 15.6028 0.257324 15.1129 0.257324 14.5075C0.257324 13.9021 0.746176 13.4123 1.3503 13.4123H7.90816C8.51229 13.4123 9.00114 13.9021 9.00114 14.5075C9.00114 15.1129 8.51229 15.6028 7.90816 15.6028Z" fill="#00D09C"/>
</g>
<defs>
<clipPath id="clip0">
<rect width="37.3069" height="37.3846" fill="white" transform="translate(0.257324 0.269226)"/>
</clipPath>
</defs>
</svg>
