<svg width="18" height="18" viewBox="0 0 18 18" fill="none" xmlns="http://www.w3.org/2000/svg">
<g clip-path="url(#clip0_1081_5623)">
<path d="M10.5633 0.00683594L13.0415 2.48504L0 15.875L2.11704 17.9917L15.2463 4.6899L18 7.44358L18 0.00683594L10.5633 0.00683594Z" fill="currentColor"/>
<path d="M13.2261 10.0283C11.1242 10.0283 9.41455 11.7383 9.41455 13.8398C9.41455 15.9413 11.1242 17.6513 13.2261 17.6513C15.3276 17.6513 17.0376 15.9413 17.0376 13.8398C17.0376 11.7383 15.3276 10.0283 13.2261 10.0283ZM13.2261 15.535C12.2914 15.535 11.5309 14.7745 11.5309 13.8398C11.5309 12.9051 12.2914 12.1447 13.2261 12.1447C14.1608 12.1447 14.9212 12.9051 14.9212 13.8398C14.9213 14.7745 14.1608 15.535 13.2261 15.535Z" fill="currentColor"/>
<path d="M4.40574 0.332764C2.30389 0.332764 0.594238 2.04276 0.594238 4.14426C0.594238 6.24576 2.30389 7.95576 4.40574 7.95576C6.50724 7.95576 8.21689 6.24576 8.21689 4.14426C8.21689 2.04276 6.50724 0.332764 4.40574 0.332764ZM4.40574 5.83943C3.47104 5.83943 2.71057 5.07896 2.71057 4.14426C2.71057 3.20956 3.47104 2.4491 4.40574 2.4491C5.34044 2.4491 6.10055 3.20956 6.10055 4.14426C6.10055 5.07896 5.34044 5.83943 4.40574 5.83943Z" fill="currentColor"/>
</g>
<defs>
<clipPath id="clip0_1081_5623">
<rect width="18" height="18" fill="white"/>
</clipPath>
</defs>
</svg>
