<svg width="28" height="28" viewBox="0 0 28 28" fill="none" xmlns="http://www.w3.org/2000/svg">
  <path
    d="M14.0001 0.666748C6.64008 0.666748 0.666748 6.64008 0.666748 14.0001C0.666748 21.3601 6.64008 27.3334 14.0001 27.3334C21.3601 27.3334 27.3334 21.3601 27.3334 14.0001C27.3334 6.64008 21.3601 0.666748 14.0001 0.666748ZM23.9467 10.1601L20.2401 11.6934C19.5601 9.88008 18.1334 8.44008 16.3067 7.77341L17.8401 4.06675C20.6401 5.13342 22.8667 7.36008 23.9467 10.1601ZM14.0001 18.0001C11.7867 18.0001 10.0001 16.2134 10.0001 14.0001C10.0001 11.7867 11.7867 10.0001 14.0001 10.0001C16.2134 10.0001 18.0001 11.7867 18.0001 14.0001C18.0001 16.2134 16.2134 18.0001 14.0001 18.0001ZM10.1734 4.05341L11.7334 7.76008C9.89342 8.42675 8.44008 9.88008 7.76008 11.7201L4.05341 10.1734C5.13341 7.36008 7.36008 5.13341 10.1734 4.05341ZM4.05341 17.8267L7.76008 16.2934C8.44008 18.1334 9.88008 19.5734 11.7201 20.2401L10.1601 23.9467C7.36008 22.8667 5.13341 20.6401 4.05341 17.8267ZM17.8401 23.9467L16.3067 20.2401C18.1334 19.5601 19.5734 18.1201 20.2401 16.2801L23.9467 17.8401C22.8667 20.6401 20.6401 22.8667 17.8401 23.9467Z"
    fill="#00D09C" />
</svg>
