<?xml version="1.0" encoding="utf-8"?>
<!-- Generator: Adobe Illustrator 24.1.2, SVG Export Plug-In . SVG Version: 6.00 Build 0)  -->
<svg version="1.1" id="Layer_1" xmlns="http://www.w3.org/2000/svg" xmlns:xlink="http://www.w3.org/1999/xlink" x="0px" y="0px"
	 viewBox="0 0 16 13" style="enable-background:new 0 0 16 13;" xml:space="preserve">
<style type="text/css">
	.st0{enable-background:new    ;}
	.st1{fill:#44475B;}
	.st2{fill:none;}
</style>
<desc>Created with Sketch.</desc>
<g id="Page-1">
	<g id="Group-3" transform="translate(-4.000000, -6.000000)">
		<g class="st0">
			<path class="st1" d="M19.3,11.9c0.2,0.2,0.3,0.4,0.2,0.6c0,0.2-0.1,0.4-0.3,0.6c-0.2,0.2-0.4,0.2-0.6,0.2H7.5l4.2,4.1
				c0.2,0.2,0.3,0.4,0.3,0.6c0,0.2-0.1,0.4-0.2,0.6c-0.2,0.2-0.4,0.3-0.6,0.3c-0.2,0-0.4-0.1-0.6-0.2l-5.8-5.6
				c-0.2-0.2-0.3-0.4-0.3-0.6s0.1-0.4,0.3-0.6l5.7-5.5c0.2-0.2,0.4-0.2,0.6-0.2s0.4,0.1,0.6,0.3C11.9,6.5,12,6.7,12,7
				s-0.1,0.4-0.3,0.6l-4.2,4.1h11.2C18.9,11.6,19.2,11.7,19.3,11.9z"/>
		</g>
		<rect id="Rectangle-Copy-2" class="st2" width="24" height="24"/>
	</g>
</g>
</svg>
