<svg xmlns="http://www.w3.org/2000/svg" width="32" height="32" viewBox="0 0 32 32">
    <g fill="none" fill-rule="evenodd" transform="translate(1 1)">
        <circle cx="15" cy="15" r="15" fill="transparent" fill-rule="nonzero" stroke="#80868B" stroke-opacity=".1"/>
        <g fill="#00D09C">
            <path fill-rule="nonzero" d="M20.688 19.875V15h-1.625v4.875h-1.625V15h-1.625v4.875h-1.625V15h-1.625v4.875h-1.625V15H9.313v4.875H8.5V21.5h13v-1.625z" opacity=".281"/>
            <path fill-rule="nonzero" d="M21.013 11.019L15.325 8.58a.897.897 0 0 0-.65 0L8.988 11.02c-.325.081-.488.406-.488.731v1.625c0 .488.325.813.813.813h11.375c.487 0 .812-.325.812-.813V11.75c0-.325-.162-.65-.487-.731zM15 12.563c-.487 0-.812-.325-.812-.813 0-.487.325-.812.812-.812.488 0 .813.325.813.812 0 .488-.325.813-.813.813z"/>
            <path d="M8.5 19.875h13V21.5h-13z"/>
        </g>
    </g>
</svg>
