<svg width="18" height="18" viewBox="0 0 18 18" fill="none" xmlns="http://www.w3.org/2000/svg">
<path fill-rule="evenodd" clip-rule="evenodd" d="M9.369 0.522L17.469 8.622C17.793 8.946 18 9.405 18 9.9C18 10.395 17.802 10.845 17.469 11.169L11.169 17.469C10.845 17.802 10.395 18 9.9 18C9.405 18 8.955 17.802 8.631 17.478L0.531 9.378C0.198 9.045 0 8.595 0 8.1V1.8C0 0.81 0.81 0 1.8 0H8.1C8.595 0 9.045 0.198 9.369 0.522ZM1.80005 3.15005C1.80005 3.89705 2.40305 4.50005 3.15005 4.50005C3.89705 4.50005 4.50005 3.89705 4.50005 3.15005C4.50005 2.40305 3.89705 1.80005 3.15005 1.80005C2.40305 1.80005 1.80005 2.40305 1.80005 3.15005Z" fill="#00D09C"/>
</svg>
