<svg xmlns="http://www.w3.org/2000/svg" width="41" height="32" viewBox="0 0 41 32">
    <g fill="none">
        <path stroke="#D2AB66" d="M27.967 20.416l-2.777.588-1.326-.588h-8.577l-1.326.588-2.778-.588c-.795 0-1.365-.774-1.12-1.537l2.697-8.397c.157-.487.61-.817 1.121-.817H25.27c.512 0 .964.33 1.121.817l2.698 8.397c.246.767-.33 1.537-1.12 1.537z" transform="translate(1)"/>
        <path fill="#FDDB9D" d="M36.056 6.665c-.353-.526-1.066-.666-1.592-.313l-2.61 1.753c-.526.353-.666 1.065-.313 1.591.353.526 1.066.666 1.592.313l2.61-1.752c.526-.354.666-1.066.313-1.592zM7.297 8.105l-2.61-1.753c-.527-.353-1.24-.213-1.592.313-.354.526-.214 1.238.312 1.592l2.61 1.752c.527.353 1.24.213 1.593-.313s.213-1.238-.313-1.591zM19.575.031c-.633 0-1.147.514-1.147 1.147v2.583c0 .634.514 1.147 1.147 1.147.634 0 1.147-.513 1.147-1.147V1.178c0-.633-.513-1.147-1.147-1.147z" transform="translate(1)"/>
        <path stroke="#D2AB66" d="M17.962 31.169H1.178c-.798 0-1.365-.778-1.12-1.538l2.697-8.397c.157-.487.61-.817 1.121-.817h11.388c.511 0 .964.33 1.12.817l2.7 8.397c.243.76-.324 1.538-1.122 1.538zM37.822 31.169H21.038c-.798 0-1.365-.778-1.121-1.538l2.698-8.397c.156-.487.609-.817 1.12-.817h11.388c.512 0 .965.33 1.121.817l2.699 8.397c.244.76-.323 1.538-1.121 1.538h0z" transform="translate(1)"/>
    </g>
</svg>
