<svg width="43" height="48" viewBox="0 0 43 48" fill="none" xmlns="http://www.w3.org/2000/svg">
<path d="M35.9089 0.263184L42.1719 30.78L12.5249 47.9971L6.26194 17.2583L35.9089 0.263184Z" fill="#0ABB92"/>
<path d="M12.7484 44.6925L7.18734 17.6791L36.1024 1.19385L41.6875 28.4112L12.7484 44.6925Z" fill="white"/>
<path d="M34.1309 15.6206L29.2177 18.4521L27.9459 13.131L32.9551 10.2515L34.1309 15.6206Z" fill="#0B5E49"/>
<path d="M26.418 20.1137L21.5048 22.9452L20.239 17.6181L25.2422 14.7446L26.418 20.1137Z" fill="#0B5E49"/>
<path d="M18.7012 24.606L13.788 27.4316L12.5222 22.1105L17.5254 19.231L18.7012 24.606Z" fill="#0B5E49"/>
<path d="M29.4551 29.6567L24.5419 32.4882L23.2761 27.1671L28.2793 24.2876L29.4551 29.6567Z" fill="#0B5E49"/>
<path d="M37.5508 24.5966L32.6376 27.4282L31.3718 22.1071L36.375 19.2275L37.5508 24.5966Z" fill="#0B5E49"/>
<path d="M21.3496 34.4799L16.4364 37.3115L15.1707 31.9904L20.1738 29.1108L21.3496 34.4799Z" fill="#0B5E49"/>
<path d="M6.26245 17.2612L12.5254 48L6.25645 42.577L-0.000494957 40.7653L6.26245 17.2612Z" fill="#0ABB92"/>
<path d="M0.0898142 40.7952L-0.000170708 40.7653L6.26277 17.2612L9.91016 35.1682L0.0898142 40.7952Z" fill="#0B5E49"/>
<path d="M6.15447 42.5467L10.8637 39.8472L12.5254 47.9998L6.25645 42.5767L6.15447 42.5467Z" fill="#0B5E49"/>
<path d="M6.26245 17.2612L12.5254 48L6.25645 42.577L-0.000494957 40.7713L6.26245 17.2672V17.2612ZM6.34044 42.421L12.2614 47.5441L6.24445 18.0051L0.209474 40.6513L6.34044 42.421Z" fill="#0B5E49"/>
<path d="M8.74271 18.2113L10.3444 17.2935L10.5664 18.3733L8.96468 19.2911L8.74271 18.2113Z" fill="#0B5E49"/>
<path d="M12.7448 15.9218L14.3465 15.0039L14.5625 16.0837L12.9668 17.0016L12.7448 15.9218Z" fill="#0B5E49"/>
<path d="M16.7427 13.6302L18.3444 12.7124L18.5664 13.7862L16.9647 14.7041L16.7427 13.6302Z" fill="#0B5E49"/>
<path d="M20.7329 11.3319L22.3347 10.4141L22.5566 11.4939L20.9549 12.4117L20.7329 11.3319Z" fill="#0B5E49"/>
<path d="M24.7369 9.0404L26.3386 8.12256L26.5605 9.20238L24.9588 10.1202L24.7369 9.0404Z" fill="#0B5E49"/>
<path d="M28.7329 6.74988L30.3347 5.83203L30.5566 6.90585L28.9549 7.82369L28.7329 6.74988Z" fill="#0B5E49"/>
<path d="M32.735 4.45105L34.3308 3.5332L34.5527 4.61302L32.951 5.53087L32.735 4.45105Z" fill="#0B5E49"/>
<path d="M6.65731 13.9227C7.09523 13.6707 7.65314 13.7127 8.22904 14.0427C9.29686 14.6606 10.1367 16.1063 10.1367 17.3301C10.1367 17.87 9.97475 18.308 9.6628 18.5899C9.45284 18.7819 9.19488 18.8839 8.90693 18.8959L8.76895 18.218C8.94892 18.236 9.0929 18.188 9.20688 18.086C9.36885 17.942 9.45884 17.6721 9.45884 17.3301C9.45884 16.3583 8.73896 15.1165 7.8931 14.6306C7.53916 14.4266 7.21521 14.3846 6.99925 14.5046C6.78329 14.6246 6.66331 14.9245 6.66331 15.3265C6.66331 15.7764 6.81328 16.2923 7.08323 16.7902L6.48934 17.1202C6.15939 16.5263 5.97942 15.8904 5.97942 15.3325C5.97942 14.6786 6.21938 14.1747 6.65131 13.9227H6.65731Z" fill="#0ABB92"/>
<path d="M10.6573 11.6337C11.0952 11.3817 11.6531 11.4237 12.229 11.7596C13.2969 12.3775 14.1367 13.8233 14.1367 15.0471C14.1367 15.587 13.9747 16.0249 13.6628 16.3069C13.4528 16.4988 13.1949 16.6008 12.9069 16.6128L12.769 15.9349C12.9489 15.9529 13.0929 15.9049 13.2069 15.8029C13.3688 15.659 13.4588 15.389 13.4588 15.0471C13.4588 14.0752 12.739 12.8334 11.8931 12.3475C11.5392 12.1436 11.2152 12.1016 10.9992 12.2216C10.7833 12.3415 10.6633 12.6415 10.6633 13.0434C10.6633 13.4933 10.8133 14.0093 11.0832 14.5072L10.4893 14.8371C10.1594 14.2432 9.97942 13.6073 9.97942 13.0494C9.97942 12.3955 10.2194 11.8916 10.6513 11.6397L10.6573 11.6337Z" fill="#0ABB92"/>
<path d="M14.6554 9.3353C15.0933 9.08334 15.6512 9.12533 16.2271 9.45528C17.2949 10.0732 18.1348 11.5189 18.1348 12.7427C18.1348 13.2826 17.9728 13.7206 17.6608 14.0025C17.4509 14.1945 17.1929 14.2965 16.905 14.3085L16.767 13.6306C16.947 13.6486 17.0909 13.6006 17.2049 13.4986C17.3669 13.3546 17.4569 13.0847 17.4569 12.7427C17.4569 11.7709 16.737 10.5291 15.8911 10.0432C15.5372 9.83921 15.2133 9.79722 14.9973 9.9172C14.7813 10.0372 14.6614 10.3371 14.6614 10.7391C14.6614 11.189 14.8113 11.7049 15.0813 12.2028L14.4874 12.5328C14.1574 11.9389 13.9775 11.303 13.9775 10.7451C13.9775 10.0912 14.2174 9.58726 14.6494 9.3353H14.6554Z" fill="#0ABB92"/>
<path d="M18.6554 7.0438C19.0933 6.79184 19.6512 6.83383 20.2271 7.16378C21.2949 7.78167 22.1348 9.22743 22.1348 10.4512C22.1348 10.9911 21.9728 11.4291 21.6608 11.711C21.4509 11.903 21.1929 12.005 20.905 12.017L20.767 11.3391C20.947 11.3571 21.0909 11.3091 21.2049 11.2071C21.3669 11.0631 21.4569 10.7932 21.4569 10.4512C21.4569 9.47938 20.737 8.23759 19.8911 7.75168C19.5372 7.54771 19.2133 7.50572 18.9973 7.6257C18.7813 7.74568 18.6614 8.04563 18.6614 8.44756C18.6614 8.89748 18.8113 9.4134 19.0813 9.91131L18.4874 10.2413C18.1574 9.64736 17.9775 9.01146 17.9775 8.45356C17.9775 7.79967 18.2174 7.29575 18.6494 7.0438H18.6554Z" fill="#0ABB92"/>
<path d="M22.6514 4.7518C23.0894 4.49985 23.6473 4.54184 24.2232 4.87178C25.291 5.48968 26.1309 6.93543 26.1309 8.15923C26.1309 8.69914 25.9689 9.13706 25.6569 9.41901C25.447 9.61098 25.189 9.71296 24.9011 9.72496L24.7631 9.04708C24.9431 9.06507 25.087 9.01708 25.201 8.9151C25.363 8.77112 25.453 8.50117 25.453 8.15923C25.453 7.18739 24.7331 5.9456 23.8872 5.45968C23.5333 5.25572 23.2094 5.21373 22.9934 5.33371C22.7774 5.45368 22.6574 5.75363 22.6574 6.15557C22.6574 6.60549 22.8074 7.1214 23.0774 7.61932L22.4835 7.94926C22.1535 7.35536 21.9736 6.71947 21.9736 6.16157C21.9736 5.50768 22.2135 5.00376 22.6454 4.7518H22.6514Z" fill="#0ABB92"/>
<path d="M26.6436 2.45395C27.0816 2.20199 27.6395 2.24399 28.2154 2.57393C29.2832 3.19183 30.123 4.63758 30.123 5.86138C30.123 6.40128 29.9611 6.83921 29.6491 7.12116C29.4392 7.31313 29.1812 7.41511 28.8933 7.42711L28.7553 6.74923C28.9352 6.76722 29.0792 6.71923 29.1932 6.61725C29.3552 6.47327 29.4452 6.20332 29.4452 5.86138C29.4452 4.88954 28.7253 3.64775 27.8794 3.16183C27.5255 2.95787 27.2015 2.91587 26.9856 3.03585C26.7696 3.15583 26.6496 3.45578 26.6496 3.85771C26.6496 4.30764 26.7996 4.82355 27.0696 5.32147L26.4757 5.65141C26.1457 5.05751 25.9657 4.42162 25.9657 3.86371C25.9657 3.20982 26.2057 2.70591 26.6376 2.45395H26.6436Z" fill="#0ABB92"/>
<path d="M30.6456 0.162448C31.0835 -0.0895094 31.6414 -0.0475165 32.2173 0.282428C33.2851 0.900323 34.125 2.34608 34.125 3.56987C34.125 4.10978 33.963 4.54771 33.6511 4.82966C33.4411 5.02163 33.1832 5.12361 32.8952 5.13561L32.7572 4.45772C32.9372 4.47572 33.0812 4.42773 33.1952 4.32574C33.3571 4.18177 33.4471 3.91181 33.4471 3.56987C33.4471 2.59804 32.7272 1.35625 31.8814 0.870328C31.5274 0.666363 31.2035 0.62437 30.9875 0.74435C30.7716 0.864329 30.6516 1.16428 30.6516 1.56621C30.6516 2.01613 30.8016 2.53205 31.0715 3.02996L30.4776 3.35991C30.1477 2.76601 29.9677 2.13012 29.9677 1.57221C29.9677 0.91832 30.2077 0.414405 30.6396 0.162448H30.6456Z" fill="#0ABB92"/>
</svg>
