<svg width="43" height="48" viewBox="0 0 43 48" fill="none" xmlns="http://www.w3.org/2000/svg">
<path d="M36.3093 0.263184L42.5723 30.78L12.9253 47.9971L6.66233 17.2583L36.3093 0.263184Z" fill="#66E3C4"/>
<path d="M13.1488 44.6925L7.58773 17.6791L36.5028 1.19385L42.0879 28.4112L13.1488 44.6925Z" fill="white"/>
<path d="M34.5312 15.6206L29.6181 18.4521L28.3463 13.131L33.3554 10.2515L34.5312 15.6206Z" fill="#0ABB92"/>
<path d="M26.8184 20.1137L21.9052 22.9452L20.6394 17.6181L25.6426 14.7446L26.8184 20.1137Z" fill="#0ABB92"/>
<path d="M19.1016 24.606L14.1884 27.4316L12.9226 22.1105L17.9258 19.231L19.1016 24.606Z" fill="#0ABB92"/>
<path d="M29.8555 29.6567L24.9423 32.4882L23.6765 27.1671L28.6797 24.2876L29.8555 29.6567Z" fill="#0ABB92"/>
<path d="M37.9512 24.5966L33.038 27.4282L31.7722 22.1071L36.7754 19.2275L37.9512 24.5966Z" fill="#0ABB92"/>
<path d="M21.75 34.4799L16.8368 37.3115L15.571 31.9904L20.5742 29.1108L21.75 34.4799Z" fill="#0ABB92"/>
<path d="M6.66284 17.2612L12.9258 48L6.65684 42.577L0.399896 40.7653L6.66284 17.2612Z" fill="#66E3C4"/>
<path d="M0.490205 40.7952L0.40022 40.7653L6.66316 17.2612L10.3105 35.1682L0.490205 40.7952Z" fill="#0ABB92"/>
<path d="M6.55486 42.5467L11.2641 39.8472L12.9258 47.9998L6.65684 42.5767L6.55486 42.5467Z" fill="#0ABB92"/>
<path d="M6.66284 17.2612L12.9258 48L6.65684 42.577L0.399896 40.7713L6.66284 17.2672V17.2612ZM6.74083 42.421L12.6618 47.5441L6.64484 18.0051L0.609864 40.6513L6.74083 42.421Z" fill="#0ABB92"/>
<path d="M9.1431 18.2113L10.7448 17.2935L10.9668 18.3733L9.36507 19.2911L9.1431 18.2113Z" fill="#0ABB92"/>
<path d="M13.1452 15.9218L14.7469 15.0039L14.9629 16.0837L13.3672 17.0016L13.1452 15.9218Z" fill="#0ABB92"/>
<path d="M17.1431 13.6302L18.7448 12.7124L18.9668 13.7862L17.3651 14.7041L17.1431 13.6302Z" fill="#0ABB92"/>
<path d="M21.1333 11.3319L22.7351 10.4141L22.957 11.4939L21.3553 12.4117L21.1333 11.3319Z" fill="#0ABB92"/>
<path d="M25.1372 9.0404L26.739 8.12256L26.9609 9.20238L25.3592 10.1202L25.1372 9.0404Z" fill="#0ABB92"/>
<path d="M29.1333 6.74988L30.7351 5.83203L30.957 6.90585L29.3553 7.82369L29.1333 6.74988Z" fill="#0ABB92"/>
<path d="M33.1354 4.45105L34.7312 3.5332L34.9531 4.61302L33.3514 5.53087L33.1354 4.45105Z" fill="#0ABB92"/>
<path d="M7.0577 13.9227C7.49562 13.6707 8.05353 13.7127 8.62943 14.0427C9.69725 14.6606 10.5371 16.1063 10.5371 17.3301C10.5371 17.87 10.3751 18.308 10.0632 18.5899C9.85323 18.7819 9.59527 18.8839 9.30732 18.8959L9.16934 18.218C9.34931 18.236 9.49329 18.188 9.60727 18.086C9.76924 17.942 9.85923 17.6721 9.85923 17.3301C9.85923 16.3583 9.13935 15.1165 8.29349 14.6306C7.93955 14.4266 7.6156 14.3846 7.39964 14.5046C7.18368 14.6246 7.0637 14.9245 7.0637 15.3265C7.0637 15.7764 7.21367 16.2923 7.48363 16.7902L6.88973 17.1202C6.55978 16.5263 6.37981 15.8904 6.37981 15.3325C6.37981 14.6786 6.61977 14.1747 7.0517 13.9227H7.0577Z" fill="#66E3C4"/>
<path d="M11.0577 11.6337C11.4956 11.3817 12.0535 11.4237 12.6294 11.7596C13.6973 12.3775 14.5371 13.8233 14.5371 15.0471C14.5371 15.587 14.3751 16.0249 14.0632 16.3069C13.8532 16.4988 13.5953 16.6008 13.3073 16.6128L13.1693 15.9349C13.3493 15.9529 13.4933 15.9049 13.6073 15.8029C13.7692 15.659 13.8592 15.389 13.8592 15.0471C13.8592 14.0752 13.1393 12.8334 12.2935 12.3475C11.9395 12.1436 11.6156 12.1016 11.3996 12.2216C11.1837 12.3415 11.0637 12.6415 11.0637 13.0434C11.0637 13.4933 11.2137 14.0093 11.4836 14.5072L10.8897 14.8371C10.5598 14.2432 10.3798 13.6073 10.3798 13.0494C10.3798 12.3955 10.6198 11.8916 11.0517 11.6397L11.0577 11.6337Z" fill="#66E3C4"/>
<path d="M15.0557 9.3353C15.4937 9.08334 16.0516 9.12533 16.6275 9.45528C17.6953 10.0732 18.5352 11.5189 18.5352 12.7427C18.5352 13.2826 18.3732 13.7206 18.0612 14.0025C17.8513 14.1945 17.5933 14.2965 17.3054 14.3085L17.1674 13.6306C17.3474 13.6486 17.4913 13.6006 17.6053 13.4986C17.7673 13.3546 17.8573 13.0847 17.8573 12.7427C17.8573 11.7709 17.1374 10.5291 16.2915 10.0432C15.9376 9.83921 15.6137 9.79722 15.3977 9.9172C15.1817 10.0372 15.0617 10.3371 15.0617 10.7391C15.0617 11.189 15.2117 11.7049 15.4817 12.2028L14.8878 12.5328C14.5578 11.9389 14.3779 11.303 14.3779 10.7451C14.3779 10.0912 14.6178 9.58726 15.0497 9.3353H15.0557Z" fill="#66E3C4"/>
<path d="M19.0557 7.0438C19.4937 6.79184 20.0516 6.83383 20.6275 7.16378C21.6953 7.78167 22.5352 9.22743 22.5352 10.4512C22.5352 10.9911 22.3732 11.4291 22.0612 11.711C21.8513 11.903 21.5933 12.005 21.3054 12.017L21.1674 11.3391C21.3474 11.3571 21.4913 11.3091 21.6053 11.2071C21.7673 11.0631 21.8573 10.7932 21.8573 10.4512C21.8573 9.47938 21.1374 8.23759 20.2915 7.75168C19.9376 7.54771 19.6137 7.50572 19.3977 7.6257C19.1817 7.74568 19.0617 8.04563 19.0617 8.44756C19.0617 8.89748 19.2117 9.4134 19.4817 9.91131L18.8878 10.2413C18.5578 9.64736 18.3779 9.01146 18.3779 8.45356C18.3779 7.79967 18.6178 7.29575 19.0497 7.0438H19.0557Z" fill="#66E3C4"/>
<path d="M23.0518 4.7518C23.4898 4.49985 24.0477 4.54184 24.6236 4.87178C25.6914 5.48968 26.5312 6.93543 26.5312 8.15923C26.5312 8.69914 26.3693 9.13706 26.0573 9.41901C25.8474 9.61098 25.5894 9.71296 25.3015 9.72496L25.1635 9.04708C25.3435 9.06507 25.4874 9.01708 25.6014 8.9151C25.7634 8.77112 25.8534 8.50117 25.8534 8.15923C25.8534 7.18739 25.1335 5.9456 24.2876 5.45968C23.9337 5.25572 23.6097 5.21373 23.3938 5.33371C23.1778 5.45368 23.0578 5.75363 23.0578 6.15557C23.0578 6.60549 23.2078 7.1214 23.4778 7.61932L22.8839 7.94926C22.5539 7.35536 22.374 6.71947 22.374 6.16157C22.374 5.50768 22.6139 5.00376 23.0458 4.7518H23.0518Z" fill="#66E3C4"/>
<path d="M27.044 2.45395C27.482 2.20199 28.0399 2.24399 28.6158 2.57393C29.6836 3.19183 30.5234 4.63758 30.5234 5.86138C30.5234 6.40128 30.3615 6.83921 30.0495 7.12116C29.8396 7.31313 29.5816 7.41511 29.2936 7.42711L29.1557 6.74923C29.3356 6.76722 29.4796 6.71923 29.5936 6.61725C29.7556 6.47327 29.8456 6.20332 29.8456 5.86138C29.8456 4.88954 29.1257 3.64775 28.2798 3.16183C27.9259 2.95787 27.6019 2.91587 27.386 3.03585C27.17 3.15583 27.05 3.45578 27.05 3.85771C27.05 4.30764 27.2 4.82355 27.47 5.32147L26.8761 5.65141C26.5461 5.05751 26.3661 4.42162 26.3661 3.86371C26.3661 3.20982 26.6061 2.70591 27.038 2.45395H27.044Z" fill="#66E3C4"/>
<path d="M31.046 0.162448C31.4839 -0.0895094 32.0418 -0.0475165 32.6177 0.282428C33.6855 0.900323 34.5254 2.34608 34.5254 3.56987C34.5254 4.10978 34.3634 4.54771 34.0515 4.82966C33.8415 5.02163 33.5835 5.12361 33.2956 5.13561L33.1576 4.45772C33.3376 4.47572 33.4816 4.42773 33.5955 4.32574C33.7575 4.18177 33.8475 3.91181 33.8475 3.56987C33.8475 2.59804 33.1276 1.35625 32.2818 0.870328C31.9278 0.666363 31.6039 0.62437 31.3879 0.74435C31.172 0.864329 31.052 1.16428 31.052 1.56621C31.052 2.01613 31.202 2.53205 31.4719 3.02996L30.878 3.35991C30.5481 2.76601 30.3681 2.13012 30.3681 1.57221C30.3681 0.91832 30.6081 0.414405 31.04 0.162448H31.046Z" fill="#66E3C4"/>
</svg>
