<svg width="50" height="50" fill="none" xmlns="http://www.w3.org/2000/svg"><path d="M15.627 34h2.508v3.47a.5.5 0 0 0 .5.5h.254a.5.5 0 0 0 .5-.5V34h2.508a.627.627 0 0 0 .627-.627V19.99a.627.627 0 0 0-.627-.627h-2.508V13.39a.5.5 0 0 0-.5-.5h-.254a.5.5 0 0 0-.5.5v5.97h-2.508a.627.627 0 0 0-.627.628v13.384a.627.627 0 0 0 .627.627Zm10.917-3.725h2.508v5.971a.5.5 0 0 0 .5.5h.254a.5.5 0 0 0 .5-.5v-5.971h2.508a.627.627 0 0 0 .627-.627v-14.22a.627.627 0 0 0-.627-.626h-2.508v-2.635a.5.5 0 0 0-.5-.5h-.254a.5.5 0 0 0-.5.5v2.635h-2.508a.627.627 0 0 0-.627.627v14.219a.627.627 0 0 0 .627.627Z" fill="currentColor"/></svg>