<svg width="50" height="50" viewBox="0 0 50 50" fill="none" xmlns="http://www.w3.org/2000/svg">
<path d="M6.66675 20.8335L11.0271 25.188L16.8457 17.5766L23.3774 27.1259L29.8682 13.3335L34.1667 20.8335" stroke="#00D09C" stroke-width="1.4" stroke-linecap="round" stroke-linejoin="round"/>
<path d="M37.4999 24.1667H35.8333V27.5H32.4999V29.1667H35.8333V32.5H37.4999V29.1667H40.8333V27.5H37.4999V24.1667ZM36.6666 20C32.0666 20 28.3333 23.7333 28.3333 28.3333C28.3333 32.9333 32.0666 36.6667 36.6666 36.6667C41.2666 36.6667 44.9999 32.9333 44.9999 28.3333C44.9999 23.7333 41.2666 20 36.6666 20ZM36.6666 35C32.9916 35 29.9999 32.0083 29.9999 28.3333C29.9999 24.6583 32.9916 21.6667 36.6666 21.6667C40.3416 21.6667 43.3333 24.6583 43.3333 28.3333C43.3333 32.0083 40.3416 35 36.6666 35Z" fill="#00D09C"/>
</svg>
