<svg width="50" height="50" viewBox="0 0 50 50" fill="none" xmlns="http://www.w3.org/2000/svg">
<path d="M22.1884 39.9984H13.7514C12.748 40.0279 11.7769 39.6425 11.0672 38.9328C10.3575 38.2231 9.97206 37.252 10.0016 36.2486V15.6247C10.0046 12.5196 12.5212 10.0032 15.6263 10H34.3753C37.4804 10.0032 39.9968 12.5196 40 15.6247V22.1869C40 22.7046 39.5802 23.1243 39.0625 23.1243C38.5448 23.1243 38.1251 22.7046 38.1251 22.1869V15.6247C38.1251 13.5537 36.4463 11.8749 34.3753 11.8749H15.6263C13.5552 11.8749 11.8765 13.5537 11.8765 15.6247V36.2486C11.8435 36.7553 12.0305 37.2515 12.3896 37.6104C12.7485 37.9695 13.2447 38.1565 13.7514 38.1235H22.1884C22.7061 38.1235 23.1259 38.5433 23.1259 39.061C23.1259 39.5787 22.7061 39.9984 22.1884 39.9984Z" fill="#00D09C"/>
<path d="M31.5629 39.9983C26.9033 39.9983 23.1258 36.2208 23.1258 31.5612C23.1258 26.9016 26.9033 23.1241 31.5629 23.1241C36.2225 23.1241 39.9999 26.9016 39.9999 31.5612C39.9942 36.2185 36.2202 39.9925 31.5629 39.9983ZM31.5629 24.999C27.9387 24.999 25.0007 27.937 25.0007 31.5612C25.0007 35.1854 27.9387 38.1234 31.5629 38.1234C35.187 38.1234 38.125 35.1854 38.125 31.5612C38.1209 27.9386 35.1854 25.0032 31.5629 24.999Z" fill="#00D09C"/>
<path d="M31.5623 33.4364H28.75C28.2322 33.4364 27.8125 33.0167 27.8125 32.4989C27.8125 31.9812 28.2322 31.5615 28.75 31.5615H30.6249V29.6866C30.6249 29.1689 31.0446 28.7491 31.5623 28.7491C32.08 28.7491 32.4998 29.1689 32.4998 29.6866V32.4989C32.4998 33.0167 32.08 33.4364 31.5623 33.4364Z" fill="#00D09C"/>
</svg>
