<svg width="40" height="40" viewBox="0 0 40 40" fill="none" xmlns="http://www.w3.org/2000/svg">
<path d="M1.66675 15.8335L6.02713 20.188L11.8457 12.5766L18.3774 22.1259L24.8682 8.3335L29.1667 15.8335" stroke="#00D09C" stroke-width="1.4" stroke-linecap="round" stroke-linejoin="round"/>
<path d="M32.4999 19.1667H30.8333V22.5H27.4999V24.1667H30.8333V27.5H32.4999V24.1667H35.8333V22.5H32.4999V19.1667ZM31.6666 15C27.0666 15 23.3333 18.7333 23.3333 23.3333C23.3333 27.9333 27.0666 31.6667 31.6666 31.6667C36.2666 31.6667 39.9999 27.9333 39.9999 23.3333C39.9999 18.7333 36.2666 15 31.6666 15ZM31.6666 30C27.9916 30 24.9999 27.0083 24.9999 23.3333C24.9999 19.6583 27.9916 16.6667 31.6666 16.6667C35.3416 16.6667 38.3333 19.6583 38.3333 23.3333C38.3333 27.0083 35.3416 30 31.6666 30Z" fill="#00D09C"/>
</svg>
