<svg width="50" height="50" viewBox="0 0 50 50" fill="none" xmlns="http://www.w3.org/2000/svg">
<path d="M19.4624 33.75C19.1467 33.7489 18.843 33.6283 18.6124 33.4125C17.471 32.3288 16.562 31.0241 15.9408 29.5778C15.3196 28.1316 14.9993 26.574 14.9993 25C14.9993 23.426 15.3196 21.8685 15.9408 20.4222C16.562 18.976 17.471 17.6712 18.6124 16.5875C18.8584 16.3881 19.1709 16.2894 19.4869 16.3115C19.8028 16.3335 20.0985 16.4747 20.3144 16.7064C20.5302 16.9381 20.6501 17.2432 20.6497 17.5598C20.6494 17.8765 20.5288 18.1813 20.3124 18.4125C19.4239 19.2642 18.7168 20.2869 18.2338 21.419C17.7508 22.5511 17.5018 23.7692 17.5018 25C17.5018 26.2308 17.7508 27.449 18.2338 28.581C18.7168 29.7131 19.4239 30.7358 20.3124 31.5875C20.4952 31.7586 20.6224 31.9807 20.6775 32.2249C20.7326 32.4691 20.7131 32.7243 20.6215 32.9573C20.5299 33.1903 20.3705 33.3904 20.1638 33.5318C19.9572 33.6731 19.7128 33.7491 19.4624 33.75ZM14.4624 37.1C14.6953 36.8658 14.8259 36.549 14.8259 36.2188C14.8259 35.8885 14.6953 35.5717 14.4624 35.3375C13.064 34.0033 11.9508 32.3993 11.1902 30.6224C10.4296 28.8455 10.0374 26.9328 10.0374 25C10.0374 23.0672 10.4296 21.1545 11.1902 19.3776C11.9508 17.6008 13.064 15.9967 14.4624 14.6625C14.7045 14.4288 14.8437 14.1085 14.8496 13.7721C14.8554 13.4357 14.7274 13.1108 14.4937 12.8688C14.26 12.6268 13.9397 12.4875 13.6033 12.4816C13.2669 12.4758 12.942 12.6038 12.6999 12.8375C11.0533 14.4065 9.74249 16.2935 8.84682 18.3842C7.95115 20.4748 7.48932 22.7256 7.48932 25C7.48932 27.2744 7.95115 29.5252 8.84682 31.6158C9.74249 33.7065 11.0533 35.5935 12.6999 37.1625C12.8202 37.2757 12.9617 37.3639 13.1163 37.422C13.2709 37.4802 13.4354 37.5071 13.6005 37.5013C13.7655 37.4955 13.9278 37.4571 14.0779 37.3882C14.228 37.3193 14.3629 37.2214 14.4749 37.1H14.4624ZM31.3749 33.4125C32.5164 32.3288 33.4254 31.0241 34.0466 29.5778C34.6678 28.1316 34.9881 26.574 34.9881 25C34.9881 23.426 34.6678 21.8685 34.0466 20.4222C33.4254 18.976 32.5164 17.6712 31.3749 16.5875C31.2551 16.4751 31.1143 16.3873 30.9606 16.3293C30.8068 16.2713 30.6432 16.2441 30.4789 16.2493C30.3147 16.2545 30.1531 16.2921 30.0033 16.3597C29.8536 16.4274 29.7186 16.5239 29.6062 16.6438C29.4938 16.7636 29.406 16.9044 29.348 17.0581C29.29 17.2119 29.2628 17.3755 29.268 17.5398C29.2732 17.704 29.3107 17.8656 29.3784 18.0154C29.4461 18.1651 29.5426 18.3001 29.6624 18.4125C30.5558 19.2614 31.2671 20.2832 31.7532 21.4157C32.2393 22.5481 32.49 23.7676 32.49 25C32.49 26.2324 32.2393 27.4519 31.7532 28.5843C31.2671 29.7168 30.5558 30.7386 29.6624 31.5875C29.4211 31.8133 29.2791 32.1256 29.2674 32.4559C29.2557 32.7862 29.3752 33.1076 29.5999 33.35C29.7179 33.4772 29.8611 33.5785 30.0204 33.6474C30.1796 33.7162 30.3514 33.7512 30.5249 33.75C30.8407 33.7489 31.1444 33.6283 31.3749 33.4125ZM37.2749 37.1625C38.9264 35.5963 40.2415 33.7102 41.1403 31.6192C42.039 29.5282 42.5025 27.276 42.5025 25C42.5025 22.724 42.039 20.4719 41.1403 18.3808C40.2415 16.2898 38.9264 14.4037 37.2749 12.8375C37.029 12.6381 36.7165 12.5394 36.4005 12.5615C36.0846 12.5835 35.7889 12.7247 35.573 12.9564C35.3571 13.1881 35.2373 13.4932 35.2377 13.8098C35.238 14.1265 35.3586 14.4313 35.5749 14.6625C36.9734 15.9967 38.0866 17.6008 38.8472 19.3776C39.6078 21.1545 40 23.0672 40 25C40 26.9328 39.6078 28.8455 38.8472 30.6224C38.0866 32.3993 36.9734 34.0033 35.5749 35.3375C35.3336 35.5633 35.1916 35.8756 35.1799 36.2059C35.1682 36.5362 35.2877 36.8576 35.5124 37.1C35.629 37.2257 35.7701 37.326 35.9271 37.3949C36.0841 37.4637 36.2536 37.4995 36.4249 37.5C36.7407 37.4989 37.0444 37.3783 37.2749 37.1625ZM27.4999 25C27.4999 24.5056 27.3533 24.0222 27.0786 23.6111C26.8039 23.2 26.4135 22.8795 25.9567 22.6903C25.4998 22.5011 24.9972 22.4516 24.5122 22.548C24.0273 22.6445 23.5818 22.8826 23.2322 23.2322C22.8825 23.5819 22.6444 24.0273 22.548 24.5123C22.4515 24.9972 22.501 25.4999 22.6902 25.9567C22.8795 26.4135 23.1999 26.804 23.611 27.0787C24.0221 27.3534 24.5055 27.5 24.9999 27.5C25.663 27.5 26.2989 27.2366 26.7677 26.7678C27.2366 26.2989 27.4999 25.6631 27.4999 25Z" fill="#00D09C"/>
</svg>
