<svg width="38" height="38" viewBox="0 0 38 38" fill="none" xmlns="http://www.w3.org/2000/svg">
<path d="M18.7 36.4C28.4754 36.4 36.4 28.4754 36.4 18.7C36.4 8.92456 28.4754 1 18.7 1C8.92456 1 1 8.92456 1 18.7C1 28.4754 8.92456 36.4 18.7 36.4Z" fill="#80868B" fill-opacity="0.1"/>
<path d="M18.7 36.9C28.7516 36.9 36.9 28.7516 36.9 18.7C36.9 8.64842 28.7516 0.5 18.7 0.5C8.64842 0.5 0.5 8.64842 0.5 18.7C0.5 28.7516 8.64842 36.9 18.7 36.9Z" stroke="#80868B" stroke-opacity="0.2"/>
<path d="M22.0526 10H12.5789C11.7066 10 11 10.7323 11 11.6364V23.0909H12.5789V11.6364H22.0526V10ZM24.4211 13.2727H15.7368C14.8645 13.2727 14.1579 14.005 14.1579 14.9091V26.3636C14.1579 27.2677 14.8645 28 15.7368 28H24.4211C25.2934 28 26 27.2677 26 26.3636V14.9091C26 14.005 25.2934 13.2727 24.4211 13.2727ZM24.4211 26.3636H15.7368V14.9091H24.4211V26.3636Z" fill="#80868B"/>
</svg>
