<svg width="36" height="36" viewBox="0 0 36 36" fill="none" xmlns="http://www.w3.org/2000/svg">
<path opacity="0.05" d="M18 36C27.9411 36 36 27.9411 36 18C36 8.05888 27.9411 0 18 0C8.05888 0 0 8.05888 0 18C0 27.9411 8.05888 36 18 36Z" fill="#44475B"/>
<path d="M12.8585 13.6678L20.7858 21.5951L14.9301 21.4847C14.6815 21.4754 14.4744 21.5537 14.3086 21.7194C14.1429 21.8852 14.06 22.0877 14.06 22.3271C14.0416 22.5665 14.1153 22.769 14.281 22.9348C14.4467 23.1005 14.6493 23.1926 14.8887 23.211L22.8712 23.3491C23.1198 23.3583 23.3316 23.2754 23.5065 23.1005C23.6723 22.9348 23.7505 22.7276 23.7413 22.479L23.5894 14.455C23.5802 14.2248 23.4973 14.0315 23.3408 13.875C23.1659 13.7 22.9541 13.6172 22.7055 13.6264C22.4661 13.6264 22.2682 13.7138 22.1117 13.8888C21.9459 14.0545 21.8631 14.2571 21.8631 14.4965L21.9736 20.3522L14.06 12.4387C13.9035 12.2821 13.7102 12.1993 13.48 12.1901C13.2498 12.1809 13.0519 12.2499 12.8861 12.3972C12.702 12.563 12.6099 12.7747 12.6099 13.0325C12.6007 13.2811 12.6836 13.4929 12.8585 13.6678Z" fill="#44475B"/>
</svg>
