<svg width="36" height="36" viewBox="0 0 36 36" fill="none" xmlns="http://www.w3.org/2000/svg">
<path opacity="0.05" d="M18 36C27.9411 36 36 27.9411 36 18C36 8.05888 27.9411 0 18 0C8.05888 0 0 8.05888 0 18C0 27.9411 8.05888 36 18 36Z" fill="#44475B"/>
<path d="M23.78 21.6025L15.9651 13.5643L21.7377 13.6764C21.9828 13.6857 22.187 13.6064 22.3504 13.4383C22.5138 13.2703 22.5955 13.0649 22.5955 12.8221C22.6136 12.5794 22.541 12.374 22.3776 12.206C22.2143 12.0379 22.0146 11.9446 21.7786 11.9259L13.9092 11.7859C13.6641 11.7765 13.4554 11.8605 13.2829 12.0379C13.1196 12.206 13.0424 12.416 13.0515 12.6681L13.2012 20.8043C13.2103 21.0377 13.292 21.2338 13.4463 21.3925C13.6188 21.5699 13.8275 21.6539 14.0726 21.6445C14.3086 21.6445 14.5037 21.5558 14.658 21.3785C14.8214 21.2104 14.9031 21.005 14.9031 20.7623L14.7942 14.8247L22.5955 22.8489C22.7498 23.0076 22.9404 23.0916 23.1673 23.1009C23.3942 23.1103 23.5893 23.0403 23.7527 22.8909C23.9343 22.7228 24.025 22.5081 24.025 22.2467C24.0341 21.9946 23.9524 21.7799 23.78 21.6025Z" fill="#44475B"/>
</svg>
