<svg width="28" height="29" viewBox="0 0 28 29" fill="none" xmlns="http://www.w3.org/2000/svg">
<path d="M13.008 4.82568L8.66799 11.8625C8.18965 12.6263 8.74965 13.6217 9.65965 13.6217H18.328C19.238 13.6217 19.798 12.6263 19.3197 11.8625L14.9913 4.82568C14.5363 4.08496 13.463 4.08496 13.008 4.82568Z" fill="#00D09C"/>
<path d="M20.417 26.3527C23.3165 26.3527 25.667 24.0209 25.667 21.1445C25.667 18.2682 23.3165 15.9364 20.417 15.9364C17.5175 15.9364 15.167 18.2682 15.167 21.1445C15.167 24.0209 17.5175 26.3527 20.417 26.3527Z" fill="#00D09C"/>
<path d="M4.66667 25.7739H11.6667C12.3083 25.7739 12.8333 25.2531 12.8333 24.6166V17.6724C12.8333 17.0358 12.3083 16.515 11.6667 16.515H4.66667C4.025 16.515 3.5 17.0358 3.5 17.6724V24.6166C3.5 25.2531 4.025 25.7739 4.66667 25.7739Z" fill="#00D09C"/>
</svg>
