<svg width="28" height="28" viewBox="0 0 28 28" fill="none" xmlns="http://www.w3.org/2000/svg">
<path d="M8.67676 10.2812H6.92676V8.09375H6.05176V10.2812H4.30176C4.18573 10.2812 4.07445 10.3273 3.9924 10.4094C3.91035 10.4914 3.86426 10.6027 3.86426 10.7188V22.9688C3.86426 23.0848 3.91035 23.1961 3.9924 23.2781C4.07445 23.3602 4.18573 23.4062 4.30176 23.4062H6.05176V25.5938H6.92676V23.4062H8.67676C8.79279 23.4062 8.90407 23.3602 8.98612 23.2781C9.06817 23.1961 9.11426 23.0848 9.11426 22.9688V10.7188C9.11426 10.6027 9.06817 10.4914 8.98612 10.4094C8.90407 10.3273 8.79279 10.2812 8.67676 10.2812Z" fill="#00D09C"/>
<path d="M16.1875 4.59375H14.4375V2.40625H13.5625V4.59375H11.8125C11.6965 4.59375 11.5852 4.63984 11.5031 4.72189C11.4211 4.80394 11.375 4.91522 11.375 5.03125V17.2812C11.375 17.3973 11.4211 17.5086 11.5031 17.5906C11.5852 17.6727 11.6965 17.7188 11.8125 17.7188H13.5625V19.9062H14.4375V17.7188H16.1875C16.3035 17.7188 16.4148 17.6727 16.4969 17.5906C16.5789 17.5086 16.625 17.3973 16.625 17.2812V5.03125C16.625 4.91522 16.5789 4.80394 16.4969 4.72189C16.4148 4.63984 16.3035 4.59375 16.1875 4.59375Z" fill="#00D09C"/>
<path d="M23.6982 9.40625H21.9482V7.21875H21.0732V9.40625H19.3232C19.2072 9.40625 19.0959 9.45234 19.0139 9.53439C18.9318 9.61644 18.8857 9.72772 18.8857 9.84375V22.0938C18.8857 22.2098 18.9318 22.3211 19.0139 22.4031C19.0959 22.4852 19.2072 22.5312 19.3232 22.5312H21.0732V24.7188H21.9482V22.5312H23.6982C23.8143 22.5312 23.9256 22.4852 24.0076 22.4031C24.0896 22.3211 24.1357 22.2098 24.1357 22.0938V9.84375C24.1357 9.72772 24.0896 9.61644 24.0076 9.53439C23.9256 9.45234 23.8143 9.40625 23.6982 9.40625Z" fill="#00D09C"/>
</svg>
