<svg width="32" height="32" viewBox="0 0 32 32" fill="none" xmlns="http://www.w3.org/2000/svg">
<path d="M7.66537 11.6671H6.33203C5.8016 11.6671 5.29289 11.8778 4.91782 12.2529C4.54274 12.628 4.33203 13.1367 4.33203 13.6671V18.3338C4.33203 18.8642 4.54274 19.3729 4.91782 19.748C5.29289 20.123 5.8016 20.3338 6.33203 20.3338H7.66537V11.6671Z" fill="#00D09C"/>
<path d="M24.1267 4.67972C23.8485 4.49148 23.5274 4.37631 23.193 4.34485C22.8586 4.31339 22.5217 4.36665 22.2133 4.49972L9 11.2464V20.7597L22.2067 27.5464C22.8453 27.7426 23.5356 27.6779 24.1267 27.3664C24.3959 27.1828 24.6162 26.9362 24.7684 26.6481C24.9207 26.3599 25.0001 26.0389 25 25.7131V6.33306C25.0001 6.00717 24.9207 5.6862 24.7684 5.39804C24.6162 5.10989 24.3959 4.8633 24.1267 4.67972Z" fill="#00D09C"/>
<path d="M26.332 13.7865V18.2132C26.7211 18.0756 27.058 17.8211 27.2967 17.4845C27.5354 17.148 27.6642 16.7458 27.6653 16.3332V15.6665C27.6642 15.2539 27.5354 14.8517 27.2967 14.5151C27.058 14.1785 26.7211 13.924 26.332 13.7865Z" fill="#00D09C"/>
</svg>
