<svg xmlns="http://www.w3.org/2000/svg" width="40" height="45" viewBox="0 0 40 45">
    <g fill="#D2AB66">
        <g>
            <path d="M3.673 2.449H.408C.182 2.449 0 2.266 0 2.041c0-.225.183-.408.408-.408h3.265c.226 0 .409.183.409.408 0 .225-.183.408-.409.408z" transform="translate(5.306)"/>
            <path d="M2.04 4.082c-.224 0-.407-.183-.407-.409V.408c0-.225.183-.408.408-.408.225 0 .408.183.408.408v3.265c0 .226-.183.409-.408.409z" transform="translate(5.306)"/>
        </g>
        <path d="M3.673 6.939H.408C.183 6.939 0 6.756 0 6.53c0-.226.182-.409.408-.409h3.265c.226 0 .409.183.409.409 0 .225-.183.408-.409.408z"/>
        <path d="M2.04 8.571c-.224 0-.407-.183-.407-.408V4.898c0-.225.183-.408.408-.408.225 0 .408.183.408.408v3.265c0 .225-.183.408-.408.408z"/>
        <g>
            <path d="M20.708 18.667c.187 0-.88.373 16.48-6.08.167-.062.302-.187.376-.349.074-.161.08-.345.018-.511C34.942 4.69 28.224.02 20.708 0c-.368 0-.666.298-.666.667V18c0 .368.298.667.666.667zm.667-17.334c6.472.28 12.202 4.268 14.713 10.24L21.375 17.04V1.333z" transform="translate(0 5)"/>
            <path d="M36.042 22c.005-2.148-.375-4.28-1.12-6.293-.065-.168-.196-.303-.361-.373-.166-.07-.353-.07-.52 0L18.709 21.04V4.667c0-.369-.298-.667-.666-.667-7.29-.004-13.861 4.388-16.646 11.124C-1.388 21.86.165 29.61 5.33 34.754c5.165 5.143 12.921 6.665 19.646 3.853 4.566 2.624 10.384 1.258 13.305-3.125C41.2 31.1 40.22 25.204 36.042 22zM17.375 5.333V21.16l-15.38-3.62c1.91-6.991 8.138-11.933 15.38-12.207zM1.682 18.84l15.493 3.64-5.133 15.04C4.528 34.615.167 26.752 1.682 18.84zm11.586 19.113l5.334-15.44 15.333-5.693c.451 1.4.711 2.856.773 4.327-4.532-2.396-10.143-.976-12.99 3.288-2.847 4.264-2.007 9.99 1.944 13.258-3.347 1.2-6.991 1.292-10.394.26zm16.774.714c-4.787 0-8.667-3.88-8.667-8.667 0-4.786 3.88-8.667 8.667-8.667 4.786 0 8.666 3.88 8.666 8.667 0 2.299-.913 4.503-2.538 6.128-1.625 1.626-3.83 2.539-6.128 2.539z" transform="translate(0 5)"/>
            <path d="M32.389 28.185h-.819c-.067-.321-.183-.623-.354-.9h1.173c.336 0 .611-.289.611-.642 0-.354-.275-.643-.611-.643h-4.778c-.336 0-.61.29-.61.643 0 .353.274.642.61.642h1.369c.574 0 1.075.386 1.301.9h-2.67c-.336 0-.61.29-.61.643 0 .353.274.643.61.643h2.67c-.08.148-.171.282-.281.405-.275.282-.641.437-1.02.43H27.61c-.342.007-.617.296-.61.656 0 .173.072.34.189.463l3.415 3.4c.244.244.63.231.861-.026.233-.257.22-.662-.024-.906l-2.303-2.295c.647-.038 1.258-.321 1.716-.803.349-.367.593-.823.715-1.324h.819c.336 0 .611-.29.611-.643 0-.354-.275-.643-.611-.643z" transform="translate(0 5)"/>
        </g>
    </g>
</svg>
