<svg width="40" height="45" viewBox="0 0 40 45" fill="none" xmlns="http://www.w3.org/2000/svg">
  <path
    d="M8.97962 2.44902H5.71432C5.48831 2.44902 5.30615 2.26606 5.30615 2.04085C5.30615 1.81565 5.48911 1.63269 5.71432 1.63269H8.97962C9.20483 1.63269 9.38778 1.81565 9.38778 2.04085C9.38778 2.26606 9.20483 2.44902 8.97962 2.44902Z"
    fill="#00D09C" />
  <path
    d="M7.34688 4.08163C7.12168 4.08163 6.93872 3.89868 6.93872 3.67347V0.408163C6.93872 0.182956 7.12168 0 7.34688 0C7.57209 0 7.75505 0.182956 7.75505 0.408163V3.67347C7.75505 3.89868 7.57209 4.08163 7.34688 4.08163Z"
    fill="#00D09C" />
  <path
    d="M3.67347 6.93876H0.408163C0.182956 6.93876 0 6.75581 0 6.5306C0 6.30539 0.182159 6.12244 0.408163 6.12244H3.67347C3.89868 6.12244 4.08163 6.30539 4.08163 6.5306C4.08163 6.75581 3.89868 6.93876 3.67347 6.93876Z"
    fill="#00D09C" />
  <path
    d="M2.04073 8.57138C1.81552 8.57138 1.63257 8.38842 1.63257 8.16322V4.89791C1.63257 4.6727 1.81552 4.48975 2.04073 4.48975C2.26594 4.48975 2.44889 4.6727 2.44889 4.89791V8.16322C2.44889 8.38842 2.26594 8.57138 2.04073 8.57138Z"
    fill="#00D09C" />
  <path fill-rule="evenodd" clip-rule="evenodd"
    d="M20.7342 23.6694C20.7273 23.6682 20.7204 23.6667 20.7084 23.6667C20.3402 23.6667 20.0417 23.3682 20.0417 23V5.66667C20.0417 5.29848 20.3402 5 20.7084 5C28.224 5.02038 34.9426 9.6897 37.5817 16.7267C37.6442 16.8928 37.6378 17.077 37.564 17.2385C37.4901 17.3999 37.355 17.5252 37.1884 17.5867C20.9477 23.6239 20.8341 23.6864 20.7342 23.6694ZM36.0884 16.5733C33.5774 10.6015 27.8473 6.61349 21.3751 6.33333V22.04L36.0884 16.5733Z"
    fill="#00D09C" />
  <path fill-rule="evenodd" clip-rule="evenodd"
    d="M36.0417 27C36.0468 24.8522 35.6675 22.7208 34.9217 20.7067C34.8565 20.5388 34.7263 20.4044 34.5605 20.3341C34.3948 20.2638 34.2076 20.2635 34.0417 20.3333L18.7083 26.04V9.66667C18.7083 9.29848 18.4099 9 18.0417 9C10.7528 8.9957 4.18073 13.3876 1.39625 20.1237C-1.38824 26.8598 0.164539 34.6103 5.32907 39.7538C10.4936 44.8974 18.2503 46.4186 24.975 43.6067C29.5408 46.231 35.3595 44.8646 38.2798 40.4823C41.2002 36.0999 40.2214 30.2037 36.0417 27ZM17.375 10.3333V26.16L1.99501 22.54C3.9058 15.549 10.1327 10.6069 17.375 10.3333ZM17.175 27.48L1.68167 23.84C0.166661 31.7521 4.52765 39.6154 12.0417 42.52L17.175 27.48ZM13.2683 42.9533L18.6017 27.5133L33.935 21.82C34.3863 23.2209 34.6464 24.6762 34.7083 26.1467C30.1756 23.7507 24.565 25.171 21.7182 29.4351C18.8714 33.6993 19.7108 39.4256 23.6617 42.6933C20.3151 43.8939 16.6708 43.9851 13.2683 42.9533ZM21.375 35C21.375 39.7865 25.2552 43.6667 30.0417 43.6667C32.3402 43.6667 34.5446 42.7536 36.1699 41.1283C37.7952 39.5029 38.7083 37.2985 38.7083 35C38.7083 30.2135 34.8281 26.3333 30.0417 26.3333C25.2552 26.3333 21.375 30.2135 21.375 35Z"
    fill="#00D09C" />
  <path
    d="M32.389 33.1853H31.5703C31.5031 32.8639 31.387 32.5618 31.2159 32.2854H32.389C32.7251 32.2854 33 31.9962 33 31.6427C33 31.2892 32.7251 31 32.389 31H27.6111C27.275 31 27.0001 31.2892 27.0001 31.6427C27.0001 31.9962 27.275 32.2854 27.6111 32.2854H28.9797C29.554 32.2854 30.055 32.6711 30.2811 33.1853H27.6111C27.275 33.1853 27.0001 33.4745 27.0001 33.828C27.0001 34.1815 27.275 34.4707 27.6111 34.4707H30.2811C30.2017 34.6185 30.11 34.7535 30 34.8756C29.7251 35.1584 29.3585 35.3127 28.9797 35.3062H27.6111C27.2689 35.3127 26.994 35.6019 27.0001 35.9618C27.0001 36.1354 27.0734 36.3025 27.1895 36.4246L30.6049 39.8246C30.8493 40.0688 31.2342 40.056 31.4664 39.7989C31.6986 39.5418 31.6864 39.1369 31.442 38.8926L29.1386 36.5981C29.7862 36.5595 30.3972 36.2768 30.8554 35.7947C31.2037 35.4284 31.4481 34.972 31.5703 34.4707H32.389C32.7251 34.4707 33 34.1815 33 33.828C33 33.4745 32.7251 33.1853 32.389 33.1853Z"
    fill="#00D09C" />
</svg>
