<svg width="333" height="121" viewBox="0 0 333 121" fill="none" xmlns="http://www.w3.org/2000/svg">
<path d="M259.583 29.2878H0.789062V29.948H259.583V29.2878Z" fill="#9ED2FF"/>
<path d="M332.534 29.9463L138.108 120.392L123.584 29.9463H332.534Z" fill="url(#paint0_linear_1463_3510)"/>
<path d="M66.1719 34.9895L125.86 0.899902V24.8068L89.325 47.2006L66.1719 34.9895Z" fill="#9DD1FF"/>
<path d="M196.815 30.5766L125.854 0.899902V24.8068L174.207 47.0526L196.815 30.5766Z" fill="#DCF1FF"/>
<path d="M66.1721 34.9895L125.86 0.899902L113.383 5.53491L53.4375 39.6547L66.1721 34.9895Z" fill="#DCF1FF"/>
<path d="M174.023 46.9935L125.856 24.8052L89.3242 47.199L138.059 72.9369L174.023 46.9935Z" fill="#1E2A7D"/>
<path d="M138.145 120.467L66.1774 77.0006L66.1719 34.9868L138.139 72.9495L138.145 120.467Z" fill="#DCF1FF"/>
<path d="M196.815 30.5737L138.139 72.9494V120.415L196.76 72.4533L196.815 30.5737Z" fill="#9DD1FF"/>
<path d="M138.139 72.9494L196.815 30.5737L209.508 43.3083L152.523 87.3341L138.139 72.9494Z" fill="#DCF1FF"/>
<path d="M66.1856 60.9604L130.621 98.0185L138.142 72.955L66.1719 34.9868L66.1856 60.9604Z" fill="url(#paint1_linear_1463_3510)"/>
<path d="M51.625 49.5305L121.756 89.3899L138.141 72.955L66.1714 34.9868L51.625 49.5305Z" fill="white"/>
<path d="M149.849 40.7837C149.839 40.7152 149.852 40.6453 149.888 40.5858C149.917 40.5263 149.957 40.4725 150.005 40.4267C150.067 40.3794 150.135 40.3391 150.206 40.3066C150.267 40.2747 150.336 40.2612 150.404 40.2677C150.477 40.2638 150.551 40.276 150.619 40.3034C150.688 40.3309 150.749 40.373 150.8 40.4267C150.901 40.5208 150.97 40.6444 150.998 40.7801C151.008 40.8486 150.994 40.9185 150.959 40.978C150.928 41.0376 150.888 41.0914 150.839 41.1371C150.777 41.1844 150.711 41.2247 150.641 41.2572C150.58 41.2891 150.511 41.3026 150.443 41.2961C150.082 41.2608 149.849 41.0487 149.849 40.7837Z" fill="white"/>
<path d="M143.394 49.2842C143.384 49.2157 143.397 49.1458 143.433 49.0863C143.463 49.0274 143.502 48.9737 143.549 48.9272C143.611 48.88 143.679 48.8408 143.751 48.8106C143.811 48.7762 143.88 48.7614 143.949 48.7682C144.022 48.765 144.096 48.7775 144.164 48.8049C144.232 48.8323 144.294 48.874 144.345 48.9272C144.446 49.0217 144.515 49.1452 144.542 49.2806C144.553 49.3491 144.539 49.4191 144.504 49.4785C144.473 49.5381 144.432 49.5919 144.383 49.6376C144.323 49.6862 144.257 49.7266 144.186 49.7577C144.125 49.7896 144.056 49.8031 143.988 49.7966C143.627 49.7613 143.394 49.5633 143.394 49.2842Z" fill="white"/>
<path d="M113.91 48.4446L112.888 48.2467L112.694 47.2253L112.496 48.2467L111.475 48.4446L112.496 48.6425L112.694 49.6638L112.888 48.6425L113.91 48.4446Z" fill="white"/>
<path d="M137.553 55.4808L135.617 55.1058L135.242 53.1702L134.867 55.1058L132.932 55.4808L134.867 55.8559L135.242 57.7915L135.617 55.8559L137.553 55.4808Z" fill="white"/>
<path d="M133.26 37.9838L130.493 37.4499L129.959 34.6829L129.425 37.4499L126.658 37.9838L129.425 38.512L129.959 41.2848L130.493 38.512L133.26 37.9838Z" fill="white"/>
<path d="M159.715 46.0309L158.959 45.886L158.814 45.1333L158.669 45.886L157.916 46.0309L158.669 46.1794L158.814 46.9321L158.959 46.1794L159.715 46.0309Z" fill="white"/>
<path d="M117.706 32.9234C117.774 32.9128 117.844 32.9266 117.904 32.9622C117.965 32.9904 118.019 33.0314 118.063 33.0824C118.113 33.1413 118.154 33.2082 118.183 33.2803C118.215 33.3411 118.228 33.4099 118.222 33.4782C118.226 33.5518 118.214 33.6253 118.186 33.6937C118.159 33.7621 118.117 33.8236 118.063 33.874C117.97 33.9776 117.846 34.0472 117.709 34.0719C117.641 34.0821 117.571 34.0684 117.511 34.033C117.452 34.0019 117.399 33.9613 117.352 33.9129C117.304 33.8528 117.265 33.7862 117.236 33.715C117.204 33.6542 117.19 33.5854 117.197 33.5171C117.232 33.146 117.43 32.9234 117.706 32.9234Z" fill="white"/>
<path d="M120.552 48.5555C120.704 48.5353 120.859 48.5629 120.996 48.6346C121.126 48.6932 121.245 48.7748 121.348 48.8759C121.456 48.9934 121.546 49.1267 121.616 49.2714C121.686 49.39 121.717 49.5287 121.704 49.6668C121.71 49.8184 121.681 49.9691 121.619 50.1067C121.557 50.2442 121.464 50.3645 121.348 50.4578C121.128 50.6698 120.85 50.8077 120.552 50.8533C120.399 50.8735 120.245 50.846 120.108 50.7742C119.977 50.717 119.857 50.6352 119.755 50.5329C119.649 50.4143 119.559 50.2813 119.487 50.1375C119.417 50.019 119.386 49.8802 119.399 49.742C119.409 49.4298 119.534 49.1332 119.748 48.9127C119.962 48.6922 120.25 48.5644 120.552 48.5555V48.5555Z" fill="white"/>
<path d="M169.254 48.0782C169.286 48.1524 169.318 48.2231 169.297 48.2761C169.292 48.343 169.277 48.4087 169.251 48.4705C169.213 48.5383 169.166 48.6013 169.113 48.6578C169.07 48.7108 169.012 48.7501 168.947 48.7709C168.88 48.8024 168.807 48.8187 168.733 48.8187C168.659 48.8187 168.586 48.8024 168.519 48.7709C168.381 48.7462 168.283 48.6154 168.198 48.5235C168.166 48.4493 168.134 48.3751 168.155 48.3256C168.161 48.259 168.177 48.1935 168.201 48.1312C168.239 48.0631 168.285 48.0001 168.339 47.9439C168.381 47.8898 168.439 47.8503 168.505 47.8309C168.638 47.7672 168.79 47.7575 168.93 47.8036C169.069 47.8497 169.186 47.9481 169.254 48.0782V48.0782Z" fill="white"/>
<path d="M126.444 61.4004C126.476 61.4746 126.507 61.5488 126.486 61.5983C126.482 61.6652 126.466 61.7309 126.44 61.7927C126.404 61.8616 126.357 61.9248 126.302 61.98C126.26 62.0341 126.202 62.0736 126.136 62.0931C126.07 62.1236 125.998 62.1393 125.924 62.1393C125.851 62.1393 125.779 62.1236 125.712 62.0931C125.581 62.045 125.467 61.9574 125.387 61.8422C125.355 61.7679 125.324 61.6973 125.345 61.6442C125.35 61.5771 125.367 61.5114 125.394 61.4499C125.431 61.382 125.476 61.319 125.529 61.2626C125.572 61.2096 125.629 61.1703 125.695 61.1495C125.828 61.0861 125.98 61.0769 126.12 61.1237C126.26 61.1705 126.376 61.2697 126.444 61.4004V61.4004Z" fill="white"/>
<path d="M139.224 65.6867C139.296 65.8085 139.329 65.9488 139.32 66.0896C139.32 66.2209 139.297 66.3512 139.253 66.4748C139.19 66.6018 139.111 66.7205 139.019 66.8282C138.947 66.9299 138.845 67.0055 138.726 67.0438C138.603 67.1028 138.467 67.132 138.33 67.1289C138.193 67.1259 138.059 67.0906 137.938 67.0261C137.676 66.9589 137.482 66.6727 137.32 66.4889C137.248 66.3672 137.215 66.2268 137.224 66.086C137.224 65.9547 137.247 65.8243 137.291 65.7008C137.353 65.5734 137.432 65.4546 137.525 65.3474C137.597 65.2448 137.701 65.169 137.821 65.1319C138.082 65.0261 138.373 65.0247 138.634 65.128C138.895 65.2314 139.107 65.4315 139.224 65.6867V65.6867Z" fill="white"/>
<path d="M155.605 53.8441C155.593 53.6237 155.661 53.4065 155.797 53.2313C155.924 53.0411 156.107 52.8937 156.321 52.8087C156.532 52.7189 156.768 52.7011 156.991 52.758C157.218 52.7929 157.424 52.9122 157.566 53.0918C157.721 53.2534 157.835 53.4489 157.899 53.6624C157.93 53.8844 157.914 54.1103 157.852 54.3259C157.751 54.5289 157.605 54.7066 157.425 54.8457C157.244 54.9732 157.026 55.0398 156.803 55.0358C156.493 55.02 156.202 54.8832 155.993 54.6555C155.787 54.4279 155.652 54.146 155.605 53.8441Z" fill="white"/>
<path d="M102.093 47.2609L100.03 46.8651L99.6338 44.8013L99.238 46.8651L97.1777 47.2609L99.238 47.6567L99.6338 49.717L100.03 47.6567L102.093 47.2609Z" fill="white"/>
<defs>
<linearGradient id="paint0_linear_1463_3510" x1="119.179" y1="85.7957" x2="229.765" y2="63.4571" gradientUnits="userSpaceOnUse">
<stop offset="0.0594844" stop-color="#9DD1FF"/>
<stop offset="0.486686" stop-color="#DCF1FF"/>
<stop offset="1" stop-color="white"/>
</linearGradient>
<linearGradient id="paint1_linear_1463_3510" x1="90.1747" y1="89.3077" x2="116.666" y2="15.8136" gradientUnits="userSpaceOnUse">
<stop stop-color="#DCF1FF"/>
<stop offset="0.3" stop-color="#9DD1FF"/>
</linearGradient>
</defs>
</svg>
