<svg width="260" height="121" viewBox="0 0 260 121" fill="none" xmlns="http://www.w3.org/2000/svg">
<path d="M259.584 29.2881H0.790039V29.9483H259.584V29.2881Z" fill="#9ED2FF"/>
<path d="M66.1719 34.9895L125.86 0.899902V24.8068L89.325 47.2006L66.1719 34.9895Z" fill="#9DD1FF"/>
<path d="M196.815 30.5766L125.854 0.899902V24.8068L174.208 47.0526L196.815 30.5766Z" fill="#DCF1FF"/>
<path d="M66.1716 34.9895L125.859 0.899902L113.382 5.53491L53.437 39.6547L66.1716 34.9895Z" fill="#DCF1FF"/>
<path d="M174.023 46.9935L125.856 24.8052L89.3242 47.199L138.059 72.9369L174.023 46.9935Z" fill="#1E2A7D"/>
<path d="M138.145 120.467L66.1774 77.0006L66.1719 34.9868L138.139 72.9495L138.145 120.467Z" fill="#DCF1FF"/>
<path d="M196.815 30.5737L138.139 72.9494V120.415L196.76 72.4533L196.815 30.5737Z" fill="#9DD1FF"/>
<path d="M138.139 72.9494L196.815 30.5737L209.508 43.3083L152.523 87.3341L138.139 72.9494Z" fill="#DCF1FF"/>
<path d="M66.1856 60.9604L130.621 98.0185L138.142 72.955L66.1719 34.9868L66.1856 60.9604Z" fill="url(#paint0_linear_2903_243)"/>
<path d="M51.625 49.5305L121.756 89.3899L138.141 72.955L66.1714 34.9868L51.625 49.5305Z" fill="white"/>
<path d="M149.849 40.7837C149.839 40.7152 149.852 40.6453 149.888 40.5858C149.917 40.5263 149.957 40.4725 150.005 40.4267C150.067 40.3794 150.135 40.3391 150.206 40.3066C150.267 40.2747 150.336 40.2612 150.404 40.2677C150.477 40.2638 150.551 40.276 150.619 40.3034C150.688 40.3309 150.749 40.373 150.8 40.4267C150.901 40.5208 150.97 40.6444 150.998 40.7801C151.008 40.8486 150.994 40.9185 150.959 40.978C150.928 41.0376 150.888 41.0914 150.839 41.1371C150.777 41.1844 150.711 41.2247 150.641 41.2572C150.58 41.2891 150.511 41.3026 150.443 41.2961C150.082 41.2608 149.849 41.0487 149.849 40.7837Z" fill="white"/>
<path d="M143.394 49.2842C143.384 49.2157 143.397 49.1458 143.433 49.0863C143.463 49.0274 143.502 48.9737 143.549 48.9272C143.611 48.88 143.679 48.8408 143.751 48.8106C143.811 48.7762 143.88 48.7614 143.949 48.7682C144.022 48.765 144.096 48.7775 144.164 48.8049C144.232 48.8323 144.294 48.874 144.345 48.9272C144.446 49.0217 144.515 49.1452 144.542 49.2806C144.553 49.3491 144.539 49.4191 144.504 49.4785C144.473 49.5381 144.432 49.5919 144.383 49.6376C144.323 49.6862 144.257 49.7266 144.186 49.7577C144.125 49.7896 144.056 49.8031 143.988 49.7966C143.627 49.7613 143.394 49.5633 143.394 49.2842Z" fill="white"/>
<path d="M113.909 48.4448L112.888 48.2469L112.693 47.2256L112.495 48.2469L111.474 48.4448L112.495 48.6427L112.693 49.664L112.888 48.6427L113.909 48.4448Z" fill="white"/>
<path d="M137.552 55.4806L135.616 55.1055L135.241 53.1699L134.866 55.1055L132.931 55.4806L134.866 55.8557L135.241 57.7912L135.616 55.8557L137.552 55.4806Z" fill="white"/>
<path d="M133.261 37.9841L130.494 37.4501L129.96 34.6831L129.426 37.4501L126.659 37.9841L129.426 38.5122L129.96 41.285L130.494 38.5122L133.261 37.9841Z" fill="white"/>
<path d="M159.714 46.0309L158.958 45.886L158.813 45.1333L158.668 45.886L157.915 46.0309L158.668 46.1794L158.813 46.9321L158.958 46.1794L159.714 46.0309Z" fill="white"/>
<path d="M117.707 32.9234C117.775 32.9128 117.845 32.9266 117.905 32.9622C117.966 32.9904 118.02 33.0314 118.064 33.0824C118.114 33.1413 118.155 33.2082 118.184 33.2803C118.216 33.3411 118.229 33.4099 118.223 33.4782C118.227 33.5518 118.215 33.6253 118.187 33.6937C118.16 33.7621 118.117 33.8236 118.064 33.874C117.971 33.9776 117.847 34.0472 117.71 34.0719C117.642 34.0821 117.572 34.0684 117.512 34.033C117.453 34.0019 117.4 33.9613 117.353 33.9129C117.305 33.8528 117.266 33.7862 117.237 33.715C117.205 33.6542 117.191 33.5854 117.198 33.5171C117.233 33.146 117.431 32.9234 117.707 32.9234Z" fill="white"/>
<path d="M120.552 48.5553C120.705 48.535 120.859 48.5626 120.997 48.6344C121.127 48.6929 121.246 48.7746 121.349 48.8756C121.456 48.9932 121.547 49.1264 121.617 49.2711C121.687 49.3897 121.717 49.5284 121.705 49.6666C121.71 49.8181 121.681 49.9689 121.619 50.1064C121.557 50.2439 121.465 50.3643 121.349 50.4575C121.128 50.6696 120.85 50.8074 120.552 50.853C120.4 50.8733 120.245 50.8457 120.108 50.7739C119.977 50.7167 119.858 50.6349 119.756 50.5327C119.65 50.4141 119.559 50.281 119.488 50.1372C119.418 50.0187 119.387 49.8799 119.4 49.7417C119.409 49.4295 119.534 49.1329 119.748 48.9124C119.962 48.692 120.25 48.5642 120.552 48.5553Z" fill="white"/>
<path d="M169.254 48.0782C169.286 48.1524 169.318 48.2231 169.296 48.2761C169.292 48.343 169.276 48.4087 169.25 48.4705C169.212 48.5383 169.166 48.6013 169.113 48.6578C169.069 48.7108 169.012 48.7501 168.946 48.7709C168.88 48.8024 168.807 48.8187 168.733 48.8187C168.659 48.8187 168.586 48.8024 168.519 48.7709C168.381 48.7462 168.282 48.6154 168.197 48.5235C168.165 48.4493 168.134 48.3751 168.155 48.3256C168.161 48.259 168.176 48.1935 168.201 48.1312C168.238 48.0631 168.285 48.0001 168.339 47.9439C168.381 47.8898 168.439 47.8503 168.505 47.8309C168.637 47.7672 168.789 47.7575 168.929 47.8036C169.069 47.8497 169.185 47.9481 169.254 48.0782Z" fill="white"/>
<path d="M126.445 61.4004C126.477 61.4746 126.508 61.5488 126.487 61.5983C126.483 61.6652 126.467 61.7309 126.441 61.7927C126.405 61.8616 126.358 61.9248 126.303 61.98C126.261 62.0341 126.203 62.0736 126.137 62.0931C126.071 62.1236 125.998 62.1393 125.925 62.1393C125.852 62.1393 125.78 62.1236 125.713 62.0931C125.582 62.045 125.468 61.9574 125.388 61.8422C125.356 61.7679 125.325 61.6973 125.346 61.6442C125.351 61.5771 125.368 61.5114 125.395 61.4499C125.432 61.382 125.477 61.319 125.529 61.2626C125.573 61.2096 125.63 61.1703 125.696 61.1495C125.829 61.0861 125.981 61.0769 126.121 61.1237C126.261 61.1705 126.377 61.2697 126.445 61.4004Z" fill="white"/>
<path d="M139.224 65.6869C139.295 65.8087 139.328 65.949 139.319 66.0898C139.319 66.2211 139.296 66.3514 139.252 66.475C139.189 66.602 139.111 66.7207 139.019 66.8284C138.947 66.9301 138.844 67.0057 138.726 67.044C138.602 67.1031 138.466 67.1323 138.329 67.1292C138.193 67.1261 138.058 67.0909 137.938 67.0263C137.676 66.9592 137.482 66.6729 137.319 66.4892C137.248 66.3674 137.215 66.2271 137.224 66.0863C137.223 65.9549 137.246 65.8246 137.291 65.7011C137.353 65.5736 137.431 65.4548 137.524 65.3477C137.596 65.245 137.701 65.1692 137.821 65.1321C138.081 65.0263 138.372 65.0249 138.634 65.1283C138.895 65.2316 139.106 65.4317 139.224 65.6869Z" fill="white"/>
<path d="M155.605 53.8443C155.594 53.624 155.662 53.4068 155.797 53.2315C155.925 53.0413 156.108 52.8939 156.322 52.8089C156.533 52.7192 156.768 52.7013 156.991 52.7582C157.219 52.7931 157.424 52.9125 157.567 53.0921C157.721 53.2537 157.835 53.4492 157.899 53.6626C157.93 53.8846 157.914 54.1106 157.852 54.3261C157.752 54.5291 157.606 54.7068 157.426 54.8459C157.244 54.9734 157.026 55.0401 156.803 55.0361C156.493 55.0202 156.202 54.8835 155.993 54.6557C155.787 54.4281 155.653 54.1463 155.605 53.8443Z" fill="white"/>
<path d="M102.093 47.2609L100.03 46.8651L99.6338 44.8013L99.238 46.8651L97.1777 47.2609L99.238 47.6567L99.6338 49.717L100.03 47.6567L102.093 47.2609Z" fill="white"/>
<defs>
<linearGradient id="paint0_linear_2903_243" x1="90.1747" y1="89.3077" x2="116.666" y2="15.8136" gradientUnits="userSpaceOnUse">
<stop stop-color="#DCF1FF"/>
<stop offset="0.3" stop-color="#9DD1FF"/>
</linearGradient>
</defs>
</svg>
