<svg width="48" height="56" viewBox="0 0 48 56" fill="none" xmlns="http://www.w3.org/2000/svg">
<path d="M34.8944 15.5986H38.4203V9.53198H44.5926V6.06671H38.4203V0H34.8944V6.06671H28.7222V9.53198H34.8944V15.5986Z" fill="#44475B"/>
<g clip-path="url(#clip0)">
<path d="M38.5613 35.7705L11.4584 9.14154C10.4656 8.36678 8.97266 9.10625 8.97266 10.265V46.6565C8.97266 47.4708 9.64513 48.1318 10.4737 48.1318C10.864 48.1318 11.2382 47.9841 11.4525 47.7716L18.9615 41.3412L25.0859 55.404C25.19 55.6438 25.386 55.8329 25.6323 55.9313C25.7525 55.9763 25.8786 56.0001 26.0046 56.0001C26.1388 56.0001 26.2729 55.9723 26.399 55.9194L32.8433 53.2047C33.3516 52.9925 33.588 52.4141 33.3699 51.9145L27.4416 38.2962H37.4927C38.3213 38.2962 38.9938 37.6352 38.9938 36.8208C38.9938 36.5828 38.9318 36.2247 38.5613 35.7705Z" fill="#E6E7E8"/>
</g>
<defs>
<clipPath id="clip0">
<rect width="48" height="47.1773" fill="white" transform="translate(0 8.82275)"/>
</clipPath>
</defs>
</svg>
