<svg width="351" height="127" viewBox="0 0 351 127" fill="none" xmlns="http://www.w3.org/2000/svg">
<path d="M273.834 30.6536H0.859375V31.3499H273.834V30.6536Z" fill="#5762FC"/>
<path d="M350.782 31.3479L145.703 126.75L130.383 31.3479H350.782Z" fill="url(#paint0_linear_1463_3566)"/>
<path d="M69.8223 36.6675L132.781 0.709961V25.9268L94.244 49.5477L69.8223 36.6675Z" fill="#5762FC"/>
<path d="M207.625 32.0127L132.775 0.709961V25.9268L183.779 49.3916L207.625 32.0127Z" fill="#A5ACFC"/>
<path d="M69.823 36.6675L132.781 0.709961L119.621 5.59894L56.3906 41.5883L69.823 36.6675Z" fill="#A5ACFC"/>
<path d="M183.584 49.3291L132.778 25.925L94.2441 49.546L145.649 76.6941L183.584 49.3291Z" fill="#121212"/>
<path d="M145.739 126.829L69.828 80.9805L69.8223 36.6646L145.733 76.7074L145.739 126.829Z" fill="#A5ACFC"/>
<path d="M207.624 32.0098L145.732 76.7074V126.774L207.566 76.1841L207.624 32.0098Z" fill="#5762FC"/>
<path d="M145.732 76.7074L207.624 32.0098L221.013 45.4422L160.905 91.8803L145.732 76.7074Z" fill="#A5ACFC"/>
<path d="M69.8367 64.0613L137.803 103.15L145.736 76.7131L69.8223 36.6646L69.8367 64.0613Z" fill="url(#paint1_linear_1463_3566)"/>
<path d="M54.4785 52.0051L128.452 94.0486L145.736 76.7131L69.822 36.6646L54.4785 52.0051Z" fill="#A5ACFC"/>
<path d="M161.457 43.0044C161.446 42.9322 161.46 42.8585 161.498 42.7957C161.528 42.7329 161.57 42.6762 161.621 42.6279C161.687 42.578 161.758 42.5354 161.833 42.5012C161.897 42.4675 161.97 42.4533 162.042 42.4602C162.119 42.456 162.197 42.4689 162.269 42.4979C162.341 42.5268 162.406 42.5712 162.459 42.6279C162.566 42.7271 162.639 42.8576 162.668 43.0007C162.679 43.0729 162.664 43.1467 162.627 43.2094C162.595 43.2723 162.552 43.3291 162.5 43.3772C162.436 43.4271 162.366 43.4696 162.292 43.5039C162.227 43.5376 162.155 43.5518 162.083 43.5449C161.703 43.5077 161.457 43.284 161.457 43.0044Z" fill="#A5ACFC"/>
<path d="M161.457 69.053C161.446 68.9808 161.46 68.907 161.498 68.8443C161.529 68.7821 161.571 68.7255 161.621 68.6765C161.686 68.6267 161.757 68.5853 161.833 68.5535C161.896 68.5172 161.969 68.5016 162.042 68.5088C162.119 68.5054 162.197 68.5186 162.269 68.5475C162.341 68.5764 162.406 68.6204 162.459 68.6765C162.566 68.7762 162.639 68.9064 162.668 69.0493C162.679 69.1215 162.665 69.1954 162.627 69.258C162.595 69.3209 162.552 69.3776 162.5 69.4258C162.437 69.477 162.366 69.5196 162.292 69.5525C162.227 69.5862 162.155 69.6004 162.083 69.5935C161.703 69.5562 161.457 69.3475 161.457 69.053Z" fill="#A5ACFC"/>
<path d="M123.549 51.0851L122.472 50.8764L122.266 49.7991L122.058 50.8764L120.98 51.0851L122.058 51.2938L122.266 52.3711L122.472 51.2938L123.549 51.0851Z" fill="#A5ACFC"/>
<path d="M148.486 58.5069L146.444 58.1112L146.049 56.0696L145.653 58.1112L143.611 58.5069L145.653 58.9025L146.049 60.9441L146.444 58.9025L148.486 58.5069Z" fill="#A5ACFC"/>
<path d="M143.96 40.0511L141.041 39.488L140.478 36.5693L139.915 39.488L136.996 40.0511L139.915 40.6082L140.478 43.533L141.041 40.6082L143.96 40.0511Z" fill="#A5ACFC"/>
<path d="M163.026 75.6011L162.229 75.4483L162.076 74.6543L161.923 75.4483L161.129 75.6011L161.923 75.7577L162.076 76.5517L162.229 75.7577L163.026 75.6011Z" fill="#A5ACFC"/>
<path d="M127.554 34.7134C127.626 34.7022 127.7 34.7167 127.763 34.7544C127.827 34.784 127.884 34.8273 127.931 34.8811C127.984 34.9432 128.027 35.0138 128.057 35.0899C128.091 35.154 128.105 35.2265 128.098 35.2986C128.103 35.3762 128.09 35.4538 128.061 35.5259C128.032 35.598 127.987 35.6629 127.931 35.7161C127.833 35.8253 127.702 35.8988 127.558 35.9248C127.486 35.9356 127.412 35.9211 127.349 35.8838C127.287 35.8509 127.23 35.8081 127.181 35.7571C127.131 35.6937 127.089 35.6234 127.058 35.5483C127.025 35.4842 127.01 35.4117 127.017 35.3396C127.055 34.9482 127.263 34.7134 127.554 34.7134Z" fill="#A5ACFC"/>
<path d="M130.557 51.2021C130.717 51.1808 130.881 51.2098 131.025 51.2856C131.162 51.3473 131.288 51.4334 131.397 51.54C131.51 51.664 131.605 51.8046 131.679 51.9572C131.753 52.0823 131.786 52.2286 131.772 52.3743C131.778 52.5342 131.747 52.6932 131.682 52.8382C131.617 52.9833 131.519 53.1102 131.397 53.2086C131.164 53.4322 130.871 53.5777 130.557 53.6258C130.396 53.6471 130.233 53.6181 130.088 53.5423C129.95 53.482 129.824 53.3957 129.717 53.2879C129.604 53.1628 129.509 53.0224 129.434 52.8707C129.36 52.7457 129.327 52.5993 129.341 52.4536C129.351 52.1243 129.483 51.8114 129.708 51.5789C129.934 51.3463 130.238 51.2115 130.557 51.2021Z" fill="#A5ACFC"/>
<path d="M172.981 53.2528C173.015 53.3311 173.048 53.4057 173.026 53.4616C173.021 53.5321 173.005 53.6014 172.977 53.6666C172.937 53.7381 172.888 53.8045 172.832 53.8641C172.786 53.92 172.725 53.9615 172.657 53.9834C172.586 54.0166 172.509 54.0339 172.431 54.0339C172.353 54.0339 172.276 54.0166 172.206 53.9834C172.06 53.9573 171.956 53.8194 171.866 53.7225C171.833 53.6442 171.799 53.5659 171.822 53.5138C171.828 53.4435 171.844 53.3744 171.87 53.3087C171.91 53.2368 171.959 53.1704 172.016 53.1112C172.06 53.0541 172.121 53.0124 172.191 52.9919C172.331 52.9248 172.491 52.9145 172.638 52.9631C172.786 53.0118 172.909 53.1156 172.981 53.2528Z" fill="#A5ACFC"/>
<path d="M136.77 64.7507C136.804 64.8289 136.837 64.9072 136.815 64.9594C136.81 65.03 136.794 65.0992 136.766 65.1644C136.728 65.2372 136.679 65.3038 136.621 65.362C136.576 65.4191 136.515 65.4608 136.446 65.4813C136.376 65.5134 136.299 65.5301 136.222 65.5301C136.145 65.5301 136.069 65.5134 135.998 65.4813C135.86 65.4306 135.74 65.3381 135.655 65.2166C135.622 65.1383 135.588 65.0638 135.611 65.0079C135.616 64.9371 135.634 64.8677 135.663 64.8029C135.702 64.7313 135.749 64.6649 135.805 64.6053C135.85 64.5494 135.911 64.508 135.98 64.486C136.12 64.4192 136.281 64.4094 136.428 64.4588C136.576 64.5082 136.698 64.6128 136.77 64.7507Z" fill="#A5ACFC"/>
<path d="M150.25 69.272C150.325 69.4005 150.36 69.5485 150.351 69.697C150.351 69.8355 150.327 69.9729 150.28 70.1033C150.214 70.2373 150.131 70.3625 150.034 70.4761C149.958 70.5833 149.849 70.6631 149.724 70.7034C149.594 70.7658 149.451 70.7965 149.307 70.7933C149.162 70.7901 149.021 70.7529 148.893 70.6848C148.617 70.614 148.412 70.312 148.241 70.1182C148.166 69.9898 148.131 69.8418 148.14 69.6933C148.14 69.5547 148.164 69.4172 148.211 69.2869C148.276 69.1525 148.359 69.0272 148.457 68.9142C148.533 68.8059 148.644 68.7259 148.77 68.6868C149.045 68.5752 149.352 68.5738 149.627 68.6828C149.903 68.7918 150.126 69.0028 150.25 69.272Z" fill="#A5ACFC"/>
<path d="M159.63 55.1617C159.618 54.9293 159.69 54.7002 159.833 54.5154C159.967 54.3147 160.16 54.1593 160.386 54.0696C160.609 53.9749 160.857 53.9561 161.092 54.0161C161.332 54.0529 161.549 54.1788 161.699 54.3683C161.862 54.5387 161.982 54.7449 162.05 54.9701C162.083 55.2042 162.066 55.4426 162 55.6699C161.894 55.884 161.74 56.0715 161.551 56.2182C161.359 56.3527 161.129 56.423 160.894 56.4188C160.567 56.402 160.26 56.2578 160.039 56.0176C159.822 55.7775 159.68 55.4802 159.63 55.1617Z" fill="#A5ACFC"/>
<path d="M108.648 47.4909L106.471 47.0734L106.054 44.8965L105.636 47.0734L103.463 47.4909L105.636 47.9084L106.054 50.0816L106.471 47.9084L108.648 47.4909Z" fill="#A5ACFC"/>
<defs>
<linearGradient id="paint0_linear_1463_3566" x1="125.737" y1="90.2576" x2="277.933" y2="54.4682" gradientUnits="userSpaceOnUse">
<stop offset="0.0285646" stop-color="#5762FC"/>
<stop offset="1" stop-color="#121212" stop-opacity="0"/>
</linearGradient>
<linearGradient id="paint1_linear_1463_3566" x1="96.4347" y1="87.2304" x2="123.084" y2="16.4408" gradientUnits="userSpaceOnUse">
<stop stop-color="#A5ACFC"/>
<stop offset="0.47846" stop-color="#5762FC"/>
</linearGradient>
</defs>
</svg>
