<svg width="259" height="121" viewBox="0 0 259 121" fill="none" xmlns="http://www.w3.org/2000/svg">
<path d="M258.933 29.1782H0.139648V29.8384H258.933V29.1782Z" fill="#5762FC"/>
<path d="M65.5205 34.8797L125.208 0.790039V24.6969L88.6736 47.0908L65.5205 34.8797Z" fill="#5762FC"/>
<path d="M196.164 30.4667L125.202 0.790039V24.6969L173.556 46.9428L196.164 30.4667Z" fill="#A5ACFC"/>
<path d="M65.5208 34.8797L125.208 0.790039L112.731 5.42505L52.7861 39.5448L65.5208 34.8797Z" fill="#A5ACFC"/>
<path d="M173.372 46.8836L125.205 24.6953L88.6729 47.0892L137.408 72.827L173.372 46.8836Z" fill="#121212"/>
<path d="M137.493 120.357L65.526 76.8908L65.5205 34.877L137.488 72.8396L137.493 120.357Z" fill="#A5ACFC"/>
<path d="M196.164 30.4639L137.487 72.8395V120.305L196.109 72.3434L196.164 30.4639Z" fill="#5762FC"/>
<path d="M137.487 72.8395L196.164 30.4639L208.857 43.1985L151.872 87.2242L137.487 72.8395Z" fill="#A5ACFC"/>
<path d="M65.5342 60.8505L129.969 97.9087L137.491 72.8451L65.5205 34.877L65.5342 60.8505Z" fill="url(#paint0_linear_2906_3495)"/>
<path d="M50.9736 49.4206L121.104 89.28L137.49 72.8451L65.52 34.877L50.9736 49.4206Z" fill="#A5ACFC"/>
<path d="M152.396 40.8872C152.386 40.8187 152.399 40.7488 152.435 40.6893C152.464 40.6298 152.503 40.576 152.551 40.5303C152.614 40.4829 152.681 40.4426 152.753 40.4101C152.814 40.3782 152.882 40.3647 152.951 40.3712C153.024 40.3673 153.098 40.3795 153.166 40.4069C153.235 40.4344 153.296 40.4765 153.347 40.5303C153.448 40.6243 153.517 40.748 153.544 40.8837C153.555 40.9521 153.541 41.022 153.506 41.0816C153.475 41.1411 153.434 41.195 153.385 41.2406C153.324 41.2879 153.258 41.3282 153.187 41.3607C153.127 41.3926 153.058 41.4062 152.99 41.3996C152.629 41.3643 152.396 41.1522 152.396 40.8872Z" fill="#A5ACFC"/>
<path d="M152.396 65.5825C152.386 65.514 152.399 65.4441 152.435 65.3846C152.465 65.3257 152.504 65.272 152.551 65.2256C152.613 65.1783 152.681 65.1391 152.753 65.109C152.813 65.0746 152.882 65.0598 152.951 65.0666C153.024 65.0633 153.098 65.0758 153.166 65.1033C153.234 65.1307 153.296 65.1724 153.347 65.2256C153.447 65.3201 153.517 65.4435 153.544 65.579C153.555 65.6475 153.541 65.7175 153.506 65.7769C153.475 65.8365 153.434 65.8903 153.385 65.9359C153.325 65.9845 153.258 66.0249 153.187 66.0561C153.127 66.088 153.058 66.1015 152.99 66.095C152.629 66.0596 152.396 65.8617 152.396 65.5825Z" fill="#A5ACFC"/>
<path d="M116.456 48.5483L115.435 48.3504L115.241 47.3291L115.043 48.3504L114.021 48.5483L115.043 48.7462L115.241 49.7675L115.435 48.7462L116.456 48.5483Z" fill="#A5ACFC"/>
<path d="M140.099 55.5846L138.163 55.2095L137.788 53.2739L137.413 55.2095L135.478 55.5846L137.413 55.9597L137.788 57.8952L138.163 55.9597L140.099 55.5846Z" fill="#A5ACFC"/>
<path d="M135.808 38.0876L133.041 37.5537L132.507 34.7866L131.973 37.5537L129.206 38.0876L131.973 38.6157L132.507 41.3885L133.041 38.6157L135.808 38.0876Z" fill="#A5ACFC"/>
<path d="M153.884 71.7907L153.127 71.6458L152.983 70.8931L152.838 71.6458L152.085 71.7907L152.838 71.9391L152.983 72.6918L153.127 71.9391L153.884 71.7907Z" fill="#A5ACFC"/>
<path d="M120.255 33.0269C120.323 33.0164 120.393 33.0301 120.453 33.0658C120.514 33.0939 120.568 33.1349 120.612 33.1859C120.662 33.2448 120.703 33.3117 120.732 33.3838C120.764 33.4446 120.777 33.5134 120.771 33.5817C120.775 33.6553 120.762 33.7289 120.735 33.7972C120.707 33.8656 120.665 33.9271 120.612 33.9775C120.519 34.0811 120.395 34.1507 120.258 34.1754C120.19 34.1857 120.12 34.1719 120.06 34.1366C120.001 34.1054 119.947 34.0648 119.901 34.0164C119.853 33.9563 119.814 33.8897 119.785 33.8185C119.753 33.7577 119.739 33.6889 119.746 33.6206C119.781 33.2495 119.979 33.0269 120.255 33.0269Z" fill="#A5ACFC"/>
<path d="M123.1 48.6588C123.252 48.6386 123.407 48.6661 123.544 48.7379C123.674 48.7964 123.793 48.8781 123.896 48.9791C124.004 49.0967 124.094 49.23 124.164 49.3746C124.234 49.4932 124.265 49.6319 124.252 49.7701C124.258 49.9216 124.228 50.0724 124.166 50.2099C124.105 50.3474 124.012 50.4678 123.896 50.5611C123.675 50.7731 123.398 50.911 123.1 50.9565C122.947 50.9768 122.793 50.9492 122.656 50.8774C122.525 50.8202 122.405 50.7384 122.303 50.6362C122.197 50.5176 122.107 50.3845 122.035 50.2407C121.965 50.1222 121.934 49.9834 121.947 49.8452C121.957 49.5331 122.081 49.2364 122.296 49.016C122.51 48.7955 122.797 48.6677 123.1 48.6588Z" fill="#A5ACFC"/>
<path d="M163.321 50.6031C163.353 50.6773 163.384 50.748 163.363 50.801C163.359 50.8679 163.343 50.9336 163.317 50.9954C163.279 51.0632 163.233 51.1261 163.179 51.1827C163.136 51.2357 163.078 51.275 163.013 51.2958C162.946 51.3273 162.873 51.3436 162.8 51.3436C162.726 51.3436 162.653 51.3273 162.586 51.2958C162.448 51.2711 162.349 51.1403 162.264 51.0484C162.232 50.9742 162.201 50.9 162.222 50.8505C162.228 50.7839 162.243 50.7184 162.268 50.6561C162.305 50.588 162.352 50.525 162.405 50.4688C162.448 50.4147 162.506 50.3752 162.572 50.3558C162.704 50.2921 162.856 50.2824 162.996 50.3285C163.136 50.3746 163.252 50.473 163.321 50.6031Z" fill="#A5ACFC"/>
<path d="M128.992 61.5039C129.023 61.5781 129.055 61.6523 129.034 61.7018C129.03 61.7687 129.014 61.8344 128.988 61.8962C128.952 61.9651 128.905 62.0283 128.85 62.0835C128.808 62.1376 128.75 62.1771 128.684 62.1966C128.618 62.2271 128.545 62.2428 128.472 62.2428C128.399 62.2428 128.327 62.2271 128.26 62.1966C128.128 62.1485 128.015 62.0609 127.935 61.9457C127.903 61.8714 127.871 61.8008 127.893 61.7478C127.898 61.6806 127.915 61.6149 127.942 61.5534C127.979 61.4855 128.024 61.4226 128.076 61.3661C128.12 61.3131 128.177 61.2738 128.242 61.253C128.376 61.1897 128.528 61.1804 128.668 61.2272C128.807 61.274 128.924 61.3732 128.992 61.5039Z" fill="#A5ACFC"/>
<path d="M141.77 65.7905C141.842 65.9122 141.875 66.0525 141.866 66.1933C141.866 66.3246 141.843 66.4549 141.799 66.5785C141.736 66.7055 141.657 66.8242 141.565 66.9319C141.493 67.0336 141.39 67.1092 141.272 67.1475C141.148 67.2066 141.013 67.2358 140.876 67.2327C140.739 67.2296 140.605 67.1944 140.484 67.1298C140.222 67.0627 140.028 66.7764 139.865 66.5927C139.794 66.4709 139.761 66.3306 139.77 66.1898C139.77 66.0585 139.793 65.9281 139.837 65.8046C139.899 65.6771 139.978 65.5583 140.07 65.4512C140.143 65.3485 140.247 65.2727 140.367 65.2356C140.628 65.1298 140.919 65.1285 141.18 65.2318C141.441 65.3351 141.653 65.5352 141.77 65.7905Z" fill="#A5ACFC"/>
<path d="M150.663 52.4132C150.652 52.1928 150.72 51.9756 150.855 51.8004C150.983 51.6101 151.166 51.4628 151.38 51.3778C151.591 51.288 151.826 51.2702 152.049 51.3271C152.277 51.362 152.483 51.4813 152.625 51.6609C152.779 51.8225 152.893 52.018 152.957 52.2315C152.988 52.4534 152.972 52.6794 152.91 52.8949C152.81 53.0979 152.664 53.2756 152.484 53.4147C152.302 53.5423 152.084 53.6089 151.862 53.6049C151.551 53.589 151.26 53.4523 151.051 53.2246C150.846 52.997 150.711 52.7151 150.663 52.4132Z" fill="#A5ACFC"/>
<path d="M102.33 45.1408L100.266 44.745L99.8702 42.6812L99.4744 44.745L97.4141 45.1408L99.4744 45.5366L99.8702 47.5969L100.266 45.5366L102.33 45.1408Z" fill="#A5ACFC"/>
<defs>
<linearGradient id="paint0_linear_2906_3495" x1="90.7505" y1="82.8161" x2="116.015" y2="15.7038" gradientUnits="userSpaceOnUse">
<stop stop-color="#A5ACFC"/>
<stop offset="0.47846" stop-color="#5762FC"/>
</linearGradient>
</defs>
</svg>
