<svg width="400" height="266" viewBox="0 0 400 266" fill="none" xmlns="http://www.w3.org/2000/svg">
<path d="M95.5177 173.879L94.365 178.698L98.566 183.563L97.9829 187.049L170.375 161.62L168.4 140.209L85.1231 166.263L82.0835 169.534L95.5177 173.879Z" fill="url(#paint0_linear_1661_27790)" fill-opacity="0.5"/>
<path d="M96.0641 170.576L94.2959 177.861L98.2906 180.099L96.8767 185.009L150.939 159.813L150.87 134.484L84.3969 165.1L82.042 168.895L96.0641 170.576Z" fill="#3342B2"/>
<path d="M151.655 134.967L150.87 134.484L150.939 159.813L96.8765 185.009L97.4728 185.615L151.724 160.301L151.655 134.967Z" fill="#A5ACFC"/>
<path d="M82.042 168.895V169.883L95.7198 171.66L96.0641 170.576L82.042 168.895Z" fill="#A5ACFC"/>
<path d="M94.2974 177.861L94.3664 178.697L98.085 180.774L98.2921 180.099L94.2974 177.861Z" fill="#A5ACFC"/>
<path d="M245.507 133.538L239.047 160.31L360.12 160.447L368.136 132.542L245.507 133.543V133.538Z" fill="url(#paint1_linear_1661_27790)"/>
<path d="M234.887 134.838L342.949 67.9063L314.9 54.7412L206.371 127.498L234.887 134.838Z" fill="url(#paint2_linear_1661_27790)"/>
<path d="M235.204 167.701C235.232 167.448 234.919 167.283 234.736 167.104L199.254 162.391L101.716 248.198L112.326 252.58L112.491 257.734L120.361 260.541L197.091 195.162C201.361 193.953 209.198 193.857 216.388 189.603C226.632 183.535 234.13 177.425 235.199 167.706L235.204 167.701Z" fill="url(#paint3_linear_1661_27790)" fill-opacity="0.5"/>
<path d="M182.111 172.547L184.168 169.749L181.629 167.751L179.237 171.219L176.964 171.899L182.727 173.681L182.111 172.547Z" fill="#3342B2"/>
<path d="M184.741 177.385L182.726 173.682L176.964 171.899L166.766 174.954L162.097 174.146L160.857 176.103L172.322 178.087L173.451 176.369L169.898 175.368L179.525 172.952L182.555 177.871L177.675 176.686L176.293 178.771L187.744 180.751L188.745 179.033L184.75 177.385H184.741Z" fill="#3342B2"/>
<path d="M242.527 103.032L260.033 98.379L265.355 98.9671L266.158 97.4608L255.309 94.668L254.336 96.5834L256.131 97.5706L244.037 101.296L242.522 103.037L242.527 103.032Z" fill="#3342B2"/>
<path d="M247.215 96.0558L253.643 94.2361L248.84 93.001L247.215 96.0558Z" fill="#3342B2"/>
<path d="M151.596 159.607L152.694 159.979L154.456 154.37L159.952 145.597L165.692 142.946L164.231 140.93L160.265 142.685L153.708 139.06L153.612 136.575L151.036 136.098L151.275 146.153L153.042 146.097L153.96 141.307L158.832 143.792L153.818 152.675L153.621 149.869L151.348 149.212L151.592 159.612L151.596 159.607Z" fill="#3342B2"/>
<path d="M266.861 97.7416L349.519 5.39279L320.015 0L238.345 90.3959L266.861 97.7366V97.7416Z" fill="#3342B2"/>
<path d="M238.786 91.3971L267.298 98.7427L349.96 6.39861L349.519 5.39258L266.861 97.7364L238.345 90.3957L238.786 91.3971Z" fill="#A5ACFC"/>
<path d="M292.233 30.8818L321.747 36.2746L321.246 37.1014L291.738 31.7135L292.238 30.8868L292.233 30.8818Z" fill="#121212"/>
<path d="M264.546 61.3235L294.054 66.7121L293.554 67.5388L264.041 62.146L264.541 61.3193L264.546 61.3235Z" fill="#121212"/>
<path d="M249.575 123.12L255.865 121.834L263.965 113.887L266.123 109.739L269.08 109.404L266.416 120.061L263.575 119.22L264.001 116.629L257.064 123.469L261.531 126.639L262.684 122.615L265.695 122.643L263.005 132.449L260.356 132.285L260.852 129.423L255.14 124.806L250.351 125.789L249.584 123.125L249.575 123.12Z" fill="#3342B2"/>
<path d="M244.952 154.508C247.775 160.976 240.292 170.508 228.23 175.786C216.173 181.068 204.107 180.108 201.284 173.64L197.275 164.449L240.939 145.321L244.653 153.838L244.947 154.513L244.952 154.508Z" fill="#3342B2"/>
<path d="M217.165 172.442C229.039 167.237 238.501 159.8 243.937 152.184L240.944 145.321L197.28 164.449L201.289 173.64C201.863 174.945 202.812 176.029 204.057 176.879C208.336 175.845 212.748 174.375 217.16 172.442H217.165Z" fill="#121212"/>
<path d="M251.989 126.074L237.205 92.2061L156.838 127.416L172.16 162.519C177.357 174.426 199.561 176.194 221.755 166.47C243.95 156.746 257.724 139.212 252.526 127.31L251.989 126.074Z" fill="#121212"/>
<path d="M252.534 127.31L251.996 126.074L237.212 92.2061L212.047 103.231L236.101 158.33C249.457 148.675 256.491 136.364 252.538 127.315L252.534 127.31Z" fill="#3342B2"/>
<path d="M268.991 107.241L262.531 134.012L394.362 101.697L400 75.8945L268.991 107.246V107.241Z" fill="#3342B2"/>
<path d="M263.299 134.916L395.124 102.596L394.358 101.691L262.527 134.007L263.294 134.912L263.299 134.916Z" fill="#A5ACFC"/>
<path d="M348.835 112.721L354.473 86.9185L355.258 86.5742L349.62 112.376L348.83 112.721H348.835Z" fill="#121212"/>
<path d="M305.827 123.286L311.465 97.484L312.25 97.1396L306.612 122.942L305.827 123.286Z" fill="#121212"/>
<path d="M106.06 155.133L113.961 177.269L114.356 176.682L106.519 154.674L106.06 155.133Z" fill="#121212"/>
<path d="M204.671 142.8C224.166 134.26 238.762 121.178 244.418 108.729L237.205 92.2109L156.838 127.42L167.187 151.127C178.345 151.293 191.507 148.569 204.667 142.804L204.671 142.8Z" fill="#121212"/>
<path d="M248.256 82.693C255.157 98.4996 236.865 121.78 207.398 134.687C177.931 147.595 148.45 145.248 141.554 129.442L133.354 110.654L240.06 63.9014L247.545 81.0437" fill="#121212"/>
<path d="M248.257 82.693L247.536 81.0437L240.052 63.9014L208.519 77.7185L228.119 122.629C244.754 110.011 253.33 94.3286 248.252 82.6888L248.257 82.693Z" fill="#3342B2"/>
<path d="M236.623 98.4577L224.515 70.7178L215.998 74.4472L229.557 105.509C232.1 103.253 234.446 100.925 236.549 98.5409C236.572 98.5126 236.594 98.4852 236.618 98.4627L236.623 98.4577Z" fill="#A5ACFC"/>
<path d="M232.352 67.2861L228.758 68.8614L239.914 94.4198C240.865 93.1522 241.742 91.8847 242.541 90.6164L232.357 67.2861H232.352Z" fill="#A5ACFC"/>
<path d="M199.2 115.895C228.667 102.982 246.959 79.7025 240.058 63.8959C233.157 48.0893 203.677 45.7422 174.209 58.6503C144.743 71.5626 126.45 94.8429 133.352 110.649C140.252 126.455 169.733 128.802 199.2 115.895Z" fill="#121212"/>
<path d="M232.496 64.4981C232.409 64.2869 232.308 64.0798 232.207 63.8727C231.105 61.6404 229.356 59.794 227.266 58.4433L188.382 33.3398L170.274 41.2727L146.858 51.5351L138.856 97.1759C138.429 99.6295 138.595 102.169 139.48 104.493C139.564 104.705 139.65 104.917 139.742 105.128C145.743 118.867 171.367 120.911 196.982 109.689C203.447 106.86 209.291 103.451 214.323 99.721C229.227 88.6692 236.986 74.7647 232.5 64.4931L232.496 64.4981Z" fill="#121212"/>
<path d="M214.318 99.7259C229.221 88.6734 236.981 74.7689 232.495 64.4981C232.408 64.2869 232.307 64.0798 232.206 63.8727C231.104 61.6404 229.354 59.794 227.266 58.4433L188.382 33.3398L180.259 36.8954L209.204 103.207C210.985 102.082 212.693 100.92 214.314 99.721L214.318 99.7259Z" fill="#A5ACFC"/>
<path d="M173.294 53.8682C184.585 48.9212 191.595 40.0003 188.951 33.9421C186.306 27.8831 175.007 26.9824 163.717 31.9344C152.427 36.8814 145.416 45.8023 148.06 51.8613C150.705 57.9203 162.005 58.8202 173.294 53.8682Z" fill="#121212"/>
<path d="M172.014 52.0856C181.045 48.1308 186.651 40.9973 184.534 36.1509C182.418 31.3045 173.386 30.5884 164.356 34.5432C155.324 38.498 149.718 45.6365 151.835 50.4779C153.952 55.3243 162.982 56.0412 172.014 52.0856Z" fill="#3342B2"/>
<path d="M166.559 39.6047C172.454 37.0231 178.344 37.0788 180.88 39.4949C180.87 38.9385 180.765 38.4062 180.548 37.9055C178.951 34.2443 172.119 33.6979 165.287 36.6879C158.46 39.6787 154.222 45.0715 155.819 48.7369C156.04 49.2376 156.357 49.6784 156.761 50.0643C156.706 46.5594 160.672 42.1913 166.563 39.6097L166.559 39.6047Z" fill="#121212"/>
<path d="M192.564 70.419C189.401 72.3943 185.957 74.2175 182.289 75.8251C166.784 82.6194 151.269 83.8137 141.532 79.8772L141.33 81.025C151.178 84.934 166.921 83.6482 182.702 76.735C186.448 75.0949 189.951 73.2394 193.179 71.2316C193.753 70.874 194.314 70.5105 194.873 70.1429L194.46 69.1973C193.84 69.6106 193.212 70.0148 192.569 70.419H192.559H192.564Z" fill="#3342B2"/>
<path d="M213.923 49.2376L212.932 48.5947C210.269 55.6318 203.671 63.0548 194.461 69.192L194.874 70.1385C204.355 63.8957 211.169 56.3529 213.928 49.2285L213.923 49.2376Z" fill="#121212"/>
<path d="M192.788 71.1622C189.624 73.1375 186.181 74.9615 182.512 76.5691C167.008 83.3634 151.494 84.5577 141.755 80.6204L141.553 81.769C151.401 85.678 167.146 84.3922 182.926 77.479C186.673 75.8389 190.176 73.9834 193.404 71.9756C193.977 71.6171 194.537 71.2545 195.098 70.8869L194.684 69.9404C194.065 70.3538 193.435 70.763 192.792 71.1622H192.783H192.788Z" fill="#A5ACFC"/>
<path d="M214.148 49.9827L213.156 49.3398C210.493 56.3769 203.895 63.7999 194.685 69.9371L195.098 70.8827C204.579 64.6408 211.393 57.098 214.152 49.9736L214.148 49.9827Z" fill="#3342B2"/>
<path d="M234.644 117.153C237.242 114.719 239.552 112.219 241.531 109.689L236.916 99.1143C234.782 101.517 232.408 103.868 229.842 106.138L234.648 117.148L234.644 117.153Z" fill="#A5ACFC"/>
<path d="M244.643 105.256C245.552 103.799 246.351 102.339 247.026 100.888L242.857 91.333C242.053 92.5872 241.172 93.8414 240.217 95.0998L244.647 105.252H244.643V105.256Z" fill="#A5ACFC"/>
<path d="M199.924 124.149C179.415 133.134 158.144 135.964 142.909 131.954C143.088 132.234 143.277 132.505 143.474 132.767C158.8 136.538 179.874 133.649 200.186 124.746C208.583 121.071 216.411 116.542 223.253 111.471L222.982 110.851C216.154 115.931 208.322 120.465 199.919 124.145L199.924 124.149Z" fill="#3342B2"/>
<path d="M222.987 110.851L223.258 111.471C225.577 109.753 227.767 107.971 229.837 106.143L229.558 105.509C227.492 107.342 225.301 109.128 222.983 110.856L222.987 110.851Z" fill="#A5ACFC"/>
<path d="M240.213 95.1094L239.91 94.4199C238.9 95.7665 237.807 97.1213 236.623 98.4629L236.912 99.1241C236.958 99.0733 237.003 99.0276 237.04 98.9769C238.175 97.691 239.226 96.4044 240.204 95.1094H240.208H240.213Z" fill="#A5ACFC"/>
<path d="M247.687 81.3831L247.541 81.0479L247.283 80.4648C246.296 83.7717 244.703 87.1801 242.536 90.6158L242.853 91.3419C245.011 87.9843 246.631 84.64 247.687 81.388V81.3831Z" fill="#A5ACFC"/>
<path d="M236.549 98.5355C234.442 100.924 232.096 103.253 229.557 105.504L229.837 106.138C232.408 103.864 234.782 101.521 236.912 99.1143L236.623 98.4531C236.6 98.4806 236.577 98.508 236.554 98.5313H236.549V98.5355Z" fill="#3342B2"/>
<path d="M242.855 91.3423L242.538 90.6162C241.743 91.8796 240.862 93.1521 239.911 94.4196L240.214 95.1091C241.165 93.8549 242.051 92.5965 242.855 91.3423Z" fill="#3342B2"/>
<path d="M179.92 136.336C179.342 136.028 179.071 135.362 179.236 134.76C179.167 134.838 179.107 134.921 179.062 135.018C178.703 135.693 178.961 136.524 179.631 136.887C180.302 137.245 181.137 136.988 181.495 136.318C181.546 136.221 181.583 136.125 181.605 136.028C181.197 136.506 180.494 136.653 179.916 136.345L179.92 136.336Z" fill="#5762FC"/>
<path d="M197.01 122.027C196.432 121.72 196.16 121.053 196.326 120.451C196.261 120.529 196.197 120.613 196.151 120.709C195.793 121.384 196.05 122.215 196.72 122.579C197.39 122.936 198.226 122.679 198.585 122.009C198.635 121.912 198.672 121.816 198.695 121.724C198.286 122.202 197.583 122.348 197.005 122.041L197.01 122.027Z" fill="#5762FC"/>
<path d="M160.132 86.7393C161.041 87.2259 161.463 88.2688 161.206 89.2195C161.312 89.1005 161.408 88.9625 161.482 88.8153C162.046 87.759 161.642 86.4407 160.587 85.8802C159.53 85.3154 158.217 85.7197 157.652 86.7809C157.574 86.9273 157.519 87.0795 157.474 87.235C158.121 86.4865 159.223 86.252 160.128 86.7393H160.132Z" fill="#A5ACFC"/>
<path d="M158.548 89.7163C157.639 89.229 157.216 88.1868 157.473 87.2354C157.368 87.3551 157.276 87.4882 157.198 87.6404C156.633 88.6967 157.037 90.0149 158.093 90.5755C159.149 91.1402 160.462 90.736 161.027 89.6747C161.105 89.5275 161.16 89.3762 161.207 89.2198C160.559 89.9692 159.457 90.2029 158.553 89.7163H158.548Z" fill="#3342B2"/>
<path d="M181.302 68.9578C182.211 69.4452 182.634 70.4832 182.376 71.4388C182.481 71.319 182.578 71.1818 182.652 71.0346C183.217 69.9783 182.812 68.6592 181.756 68.0995C180.7 67.5339 179.387 67.9381 178.823 68.9994C178.744 69.1466 178.69 69.298 178.648 69.4543C179.295 68.7058 180.397 68.4713 181.302 68.9578Z" fill="#A5ACFC"/>
<path d="M179.723 71.944C178.814 71.4575 178.391 70.4145 178.648 69.4639C178.543 69.5836 178.451 69.7167 178.373 69.8681C177.808 70.9244 178.212 72.2426 179.269 72.8032C180.324 73.3687 181.637 72.9645 182.202 71.9033C182.28 71.7561 182.335 71.6047 182.381 71.4483C181.734 72.1969 180.632 72.4314 179.728 71.944H179.723Z" fill="#3342B2"/>
<path d="M207.831 66.8767C208.74 67.3641 209.162 68.4071 208.905 69.3577C209.011 69.238 209.106 69.1049 209.18 68.9535C209.745 67.8972 209.341 66.5782 208.285 66.0184C207.229 65.4529 205.916 65.8571 205.351 66.9183C205.273 67.0655 205.218 67.2169 205.172 67.3733C205.819 66.6247 206.921 66.3902 207.826 66.8767H207.831Z" fill="#3342B2"/>
<path d="M206.252 69.8581C205.343 69.3715 204.92 68.3286 205.177 67.3779C205.072 67.4969 204.98 67.6299 204.902 67.7821C204.337 68.8384 204.741 70.1567 205.797 70.7172C206.853 71.282 208.166 70.8778 208.731 69.8165C208.809 69.6701 208.864 69.5179 208.91 69.3616C208.263 70.1109 207.161 70.3446 206.256 69.8581H206.252Z" fill="#121212"/>
<path d="M215.871 151.467C198.658 159.01 181.426 160.811 169.82 157.292L170.715 159.345C173.052 159.947 175.6 160.365 178.341 160.585C189.842 161.504 203.419 158.835 216.568 153.07C221.522 150.898 226.192 148.389 230.475 145.615L229.764 143.984C225.499 146.768 220.829 149.29 215.866 151.467H215.871Z" fill="#121212"/>
<path d="M251.475 125.05L251.393 124.861L250.598 123.038C249.529 124.986 248.216 126.97 246.649 128.963C242.366 134.412 236.577 139.528 229.758 143.98L230.47 145.611C237.559 141.017 243.578 135.712 248.023 130.048C249.34 128.375 250.484 126.703 251.471 125.05H251.475Z" fill="#121212"/>
<path d="M216.457 152.67C199.244 160.213 182.013 162.014 170.406 158.495L171.301 160.548C173.638 161.15 176.187 161.568 178.927 161.788C190.429 162.707 204.006 160.033 217.159 154.273C222.114 152.101 226.783 149.592 231.067 146.818L230.355 145.188C226.09 147.971 221.42 150.493 216.457 152.67Z" fill="#3342B2"/>
<path d="M252.073 126.253L251.99 126.064L251.196 124.241C250.126 126.189 248.813 128.173 247.247 130.162C242.964 135.61 237.174 140.727 230.356 145.179L231.067 146.809C238.157 142.215 244.176 136.91 248.62 131.246C249.938 129.574 251.081 127.902 252.069 126.244L252.073 126.253Z" fill="#A5ACFC"/>
<path d="M80.8945 191.628L78.2223 187.779L83.1167 181.876L70.9864 174.031L74.8523 171.601L12.516 170.172L0 194.082L77.3913 195.506L80.8945 191.628Z" fill="#3342B2"/>
<path d="M0 194.082L0.500454 194.881L77.8826 196.287L77.3913 195.506L0 194.082Z" fill="#A5ACFC"/>
<path d="M57.8003 171.269L48.9023 194.972L49.5726 195.014L58.5349 171.173L57.8003 171.265V171.269Z" fill="#121212"/>
<path d="M74.8522 171.601L70.9863 174.031L71.7898 174.559L75.27 172.225L74.8522 171.601Z" fill="#A5ACFC"/>
<path d="M83.117 181.876V183.038L78.6634 188.412L78.2227 187.779L83.117 181.876Z" fill="#A5ACFC"/>
<path d="M77.3906 195.505L77.8819 196.286L81.0958 192.524L80.8938 191.628L77.3906 195.505Z" fill="#A5ACFC"/>
<path d="M112.115 249.713L112.496 257.729L116.683 260.669L188.758 180.929L158.529 175.702L100.802 240.292L101.445 247.398L112.115 249.713Z" fill="#3342B2"/>
<path d="M188.757 180.93L116.683 260.669L117.38 261.16L189.134 181.785L188.757 180.93Z" fill="#A5ACFC"/>
<path d="M101.446 247.398L112.116 249.714L112.125 250.49L101.721 248.194L101.446 247.398Z" fill="#A5ACFC"/>
<path d="M95.0365 260.545L93.1086 255.804L97.1207 248.859L89.3983 241.137L92.6952 234.812L56.4648 244.834L78.8613 264.923L95.0365 260.545Z" fill="#3342B2"/>
<path d="M78.8598 264.923L56.4634 244.836L56.3164 245.754L78.7129 265.842L94.9344 261.404L95.035 260.545L78.8598 264.923Z" fill="#A5ACFC"/>
<path d="M92.6943 234.812L93.3971 235.505L90.0404 241.775L89.3975 241.137L92.6943 234.812Z" fill="#A5ACFC"/>
<path d="M97.1199 248.859L93.1069 255.804L93.497 256.843L97.7121 249.58L97.1199 248.859Z" fill="#A5ACFC"/>
<path d="M133.663 241.771L103.966 236.994L103.493 237.573L133.185 242.355L133.667 241.771H133.663Z" fill="#121212"/>
<path d="M162.147 210.375L132.45 205.598L131.978 206.177L161.674 210.954L162.151 210.375H162.147Z" fill="#121212"/>
<path d="M73.2642 78.9293C91.7858 78.0269 92.5175 77.2959 93.4184 58.7754C94.3226 77.2925 95.0543 78.0269 113.573 78.9293C95.0512 79.8326 94.3194 80.5628 93.4184 99.0833C92.5142 80.567 91.7826 79.8326 73.2642 78.9293Z" fill="#3342B2"/>
<path d="M79.8511 215.282C82.2225 215.282 84.1486 213.355 84.1486 210.979C84.1486 208.603 82.2225 206.678 79.8511 206.678C77.4799 206.678 75.5537 208.603 75.5537 210.979C75.5537 213.355 77.4799 215.282 79.8511 215.282Z" fill="#3342B2"/>
<path d="M230.782 33.14C249.304 32.2369 250.036 31.5058 250.937 12.9854C251.841 31.5027 252.573 32.2369 271.091 33.14C252.57 34.0431 251.838 34.7734 250.937 53.2939C250.033 34.7773 249.301 34.0431 230.782 33.14Z" fill="#3342B2"/>
<circle cx="278" cy="78" r="34" fill="#121212"/>
<circle opacity="0.2" cx="278" cy="78" r="34" fill="#F35F5F"/>
<circle opacity="0.2" cx="278" cy="78" r="25.5" fill="#F35F5F"/>
<circle cx="278" cy="77.9992" r="18.8889" fill="#F35F5F"/>
<path d="M280.113 66.3308L279.597 82.1482H275.842L275.31 66.3308H280.113ZM275.185 87.0452C275.185 86.3776 275.415 85.8248 275.873 85.3868C276.343 84.9383 276.958 84.714 277.72 84.714C278.491 84.714 279.107 84.9383 279.566 85.3868C280.025 85.8248 280.254 86.3776 280.254 87.0452C280.254 87.6918 280.025 88.2394 279.566 88.6879C279.107 89.1364 278.491 89.3607 277.72 89.3607C276.958 89.3607 276.343 89.1364 275.873 88.6879C275.415 88.2394 275.185 87.6918 275.185 87.0452Z" fill="#121212"/>
<defs>
<linearGradient id="paint0_linear_1661_27790" x1="117.399" y1="173.831" x2="173.831" y2="158.211" gradientUnits="userSpaceOnUse">
<stop stop-color="#364ABB"/>
<stop offset="1" stop-color="#121212"/>
</linearGradient>
<linearGradient id="paint1_linear_1661_27790" x1="262.006" y1="146.119" x2="343.631" y2="137.049" gradientUnits="userSpaceOnUse">
<stop stop-color="#364ABB" stop-opacity="0.4"/>
<stop offset="1" stop-color="#121212" stop-opacity="0.4"/>
</linearGradient>
<linearGradient id="paint2_linear_1661_27790" x1="245.882" y1="118.406" x2="315.414" y2="66.005" gradientUnits="userSpaceOnUse">
<stop offset="0.322917" stop-color="#364ABB" stop-opacity="0.4"/>
<stop offset="1" stop-color="#121212"/>
</linearGradient>
<linearGradient id="paint3_linear_1661_27790" x1="200.031" y1="175.847" x2="115.382" y2="243.867" gradientUnits="userSpaceOnUse">
<stop stop-color="#364ABB" stop-opacity="0.4"/>
<stop offset="0.858639" stop-color="#121212"/>
</linearGradient>
</defs>
</svg>
