<svg width="400" height="265" viewBox="0 0 400 265" fill="none" xmlns="http://www.w3.org/2000/svg">
<g clip-path="url(#clip0_1661_28448)">
<path opacity="0.14" d="M95.262 173.33L94.1126 178.133L98.3024 182.982L97.7209 186.458L169.918 161.108L167.949 139.766L84.8951 165.738L81.8638 168.998L95.262 173.33Z" fill="#5762FC"/>
<path d="M95.8066 170.037L94.0437 177.299L98.0274 179.529L96.6171 184.424L150.535 159.308L150.466 134.06L84.1713 164.579L81.8223 168.361L95.8066 170.037Z" fill="#E2F3FF"/>
<path d="M151.249 134.54L150.466 134.06L150.535 159.308L96.6172 184.424L97.2125 185.029L151.318 159.794L151.249 134.54Z" fill="#A9D2FF"/>
<path d="M81.8223 168.361V169.346L95.4632 171.118L95.8066 170.037L81.8223 168.361Z" fill="#A9D2FF"/>
<path d="M94.0439 177.3L94.1126 178.133L97.8216 180.203L98.0277 179.53L94.0439 177.3Z" fill="#A9D2FF"/>
<path opacity="0.14" d="M244.849 133.117L238.407 159.803L359.155 159.941L367.15 132.123L244.849 133.121V133.117Z" fill="#5762FC"/>
<path opacity="0.14" d="M234.258 134.413L342.03 67.6918L314.057 54.5684L205.818 127.095L234.258 134.413Z" fill="#5762FC"/>
<path opacity="0.14" d="M234.574 167.17C234.601 166.918 234.29 166.754 234.107 166.575L198.72 161.877L101.443 247.413L112.025 251.781L112.19 256.919L120.039 259.717L196.563 194.544C200.822 193.339 208.638 193.243 215.809 189.003C226.025 182.954 233.502 176.864 234.569 167.175L234.574 167.17Z" fill="#5762FC"/>
<path d="M181.622 172.001L183.674 169.213L181.142 167.221L178.756 170.678L176.489 171.356L182.236 173.132L181.622 172.001Z" fill="#A9D2FF"/>
<path d="M184.246 176.824L182.236 173.133L176.489 171.356L166.319 174.401L161.662 173.596L160.426 175.546L171.86 177.524L172.986 175.812L169.442 174.814L179.044 172.405L182.066 177.309L177.199 176.128L175.82 178.207L187.241 180.18L188.239 178.468L184.255 176.824H184.246Z" fill="#A9D2FF"/>
<path d="M241.878 102.708L259.337 98.069L264.645 98.6551L265.446 97.1532L254.626 94.3691L253.655 96.2786L255.445 97.2631L243.384 100.977L241.873 102.712L241.878 102.708Z" fill="#A9D2FF"/>
<path d="M246.553 95.7521L252.963 93.9388L248.174 92.707L246.553 95.7521Z" fill="#A9D2FF"/>
<path d="M151.19 159.102L152.284 159.473L154.043 153.882L159.524 145.136L165.248 142.494L163.791 140.484L159.835 142.233L153.296 138.62L153.2 136.143L150.631 135.667L150.869 145.69L152.632 145.636L153.548 140.86L158.407 143.337L153.406 152.193L153.209 149.395L150.943 148.74L151.185 159.107L151.19 159.102Z" fill="#A9D2FF"/>
<path d="M266.146 97.4323L348.582 5.37577L319.158 0L237.706 90.1105L266.146 97.4277V97.4323Z" fill="white"/>
<path d="M238.146 91.1089L266.581 98.4308L349.022 6.37878L348.582 5.37598L266.146 97.428L237.706 90.1107L238.146 91.1089Z" fill="#A9D2FF"/>
<path d="M291.45 30.7852L320.884 36.1609L320.384 36.9851L290.955 31.614L291.454 30.7897L291.45 30.7852Z" fill="#A9D2FF"/>
<path d="M263.838 61.1296L293.268 66.5008L292.768 67.325L263.334 61.9492L263.834 61.125L263.838 61.1296Z" fill="#A9D2FF"/>
<path d="M248.906 122.732L255.18 121.449L263.257 113.528L265.409 109.393L268.358 109.059L265.702 119.682L262.868 118.844L263.294 116.261L256.375 123.08L260.83 126.239L261.979 122.228L264.983 122.255L262.3 132.032L259.658 131.867L260.152 129.014L254.456 124.412L249.68 125.392L248.915 122.736L248.906 122.732Z" fill="#A9D2FF"/>
<path d="M244.295 154.019C247.111 160.467 239.647 169.968 227.618 175.229C215.594 180.495 203.56 179.538 200.744 173.091L196.747 163.928L240.293 144.861L243.997 153.351L244.291 154.024L244.295 154.019Z" fill="#A9D2FF"/>
<path d="M216.583 171.896C228.424 166.708 237.861 159.294 243.283 151.702L240.297 144.861L196.751 163.928L200.748 173.091C201.321 174.391 202.269 175.472 203.51 176.319C207.777 175.289 212.178 173.824 216.578 171.896H216.583Z" fill="url(#paint0_linear_1661_28448)"/>
<path d="M251.315 125.676L236.571 91.915L156.419 127.013L171.7 162.006C176.883 173.875 199.027 175.638 221.162 165.944C243.297 156.25 257.034 138.772 251.851 126.908L251.315 125.676Z" fill="#A9D2FF"/>
<path d="M251.855 126.908L251.32 125.676L236.575 91.915L211.478 102.905L235.467 157.83C248.787 148.205 255.802 135.933 251.86 126.912L251.855 126.908Z" fill="white"/>
<path d="M268.271 106.902L261.828 133.588L393.305 101.375L398.928 75.6543L268.271 106.906V106.902Z" fill="white"/>
<path d="M394.377 102.135L399.995 76.4148L399.235 75.5127L393.612 101.233L394.377 102.135Z" fill="#A9D2FF"/>
<path d="M262.593 134.49L394.066 102.272L393.301 101.37L261.824 133.584L262.588 134.486L262.593 134.49Z" fill="#A9D2FF"/>
<path d="M347.9 112.365L353.523 86.6442L354.306 86.3008L348.683 112.021L347.896 112.365H347.9Z" fill="#A9D2FF"/>
<path d="M305.008 122.896L310.631 97.1755L311.414 96.832L305.791 122.552L305.008 122.896Z" fill="#A9D2FF"/>
<path d="M105.775 154.642L113.656 176.709L114.05 176.123L106.233 154.185L105.775 154.642Z" fill="#A9D2FF"/>
<path d="M204.124 142.348C223.566 133.835 238.123 120.794 243.764 108.385L236.571 91.9189L156.419 127.017L166.741 150.649C177.868 150.814 190.996 148.099 204.119 142.352L204.124 142.348Z" fill="url(#paint1_linear_1661_28448)"/>
<path d="M247.592 82.431C254.474 98.1874 236.231 121.394 206.843 134.261C177.455 147.128 148.053 144.788 141.176 129.032L132.998 110.303L239.418 63.6982L246.882 80.7871" fill="#A9D2FF"/>
<path d="M247.592 82.431L246.873 80.7871L239.409 63.6982L207.96 77.4719L227.508 122.241C244.098 109.662 252.652 94.0296 247.587 82.4264L247.592 82.431Z" fill="#E2F3FF"/>
<path d="M198.665 115.528C228.053 102.657 246.296 79.4501 239.414 63.6937C232.532 47.9373 203.13 45.5975 173.742 58.4645C144.354 71.3361 126.111 94.5426 132.993 110.299C139.875 126.055 169.277 128.395 198.665 115.528Z" fill="white"/>
<path d="M231.872 64.2938C231.785 64.0832 231.685 63.8772 231.584 63.6711C230.485 61.4457 228.74 59.6049 226.657 58.2587L187.877 33.2344L169.818 41.1423L146.465 51.3719L138.483 96.869C138.058 99.3142 138.222 101.846 139.106 104.163C139.189 104.374 139.276 104.585 139.367 104.795C145.352 118.491 170.907 120.529 196.454 109.342C202.901 106.522 208.73 103.124 213.749 99.4057C228.612 88.3886 236.351 74.5279 231.877 64.2893L231.872 64.2938Z" fill="#E2F3FF"/>
<path d="M213.744 99.4103C228.608 88.3932 236.346 74.5325 231.872 64.2938C231.785 64.0832 231.685 63.8772 231.584 63.6711C230.485 61.4457 228.74 59.6049 226.657 58.2587L187.877 33.2344L179.777 36.7785L208.643 102.881C210.42 101.759 212.123 100.601 213.739 99.4057L213.744 99.4103Z" fill="white"/>
<path d="M172.831 53.6983C184.09 48.7667 191.083 39.8742 188.445 33.8345C185.808 27.7948 174.539 26.8973 163.279 31.8335C152.019 36.7651 145.027 45.6575 147.664 51.6973C150.302 57.737 161.571 58.6345 172.831 53.6983Z" fill="white"/>
<path d="M171.553 51.9218C180.56 47.9793 186.151 40.8681 184.04 36.0372C181.929 31.2064 172.922 30.492 163.915 34.4346C154.908 38.3771 149.317 45.4929 151.428 50.3192C153.539 55.1501 162.546 55.8644 171.553 51.9218Z" fill="#A9D2FF"/>
<path d="M166.113 39.4804C171.992 36.907 177.867 36.9619 180.395 39.3705C180.386 38.8164 180.28 38.2852 180.065 37.7861C178.472 34.1367 171.658 33.5918 164.844 36.5727C158.035 39.5536 153.809 44.9294 155.402 48.5835C155.622 49.0826 155.938 49.5222 156.341 49.9068C156.286 46.413 160.242 42.0584 166.117 39.485L166.113 39.4804Z" fill="#5762FC"/>
<path d="M192.048 70.1965C188.893 72.1655 185.459 73.9834 181.801 75.586C166.337 82.3584 150.865 83.5489 141.153 79.6247L140.951 80.7695C150.773 84.6662 166.475 83.3841 182.213 76.4927C185.949 74.858 189.443 73.0081 192.662 71.007C193.234 70.6499 193.793 70.2881 194.352 69.9218L193.94 68.9785C193.321 69.3906 192.694 69.7936 192.053 70.1965H192.044H192.048Z" fill="white"/>
<path d="M213.35 49.0825L212.361 48.4414C209.705 55.4565 203.125 62.8562 193.939 68.9737L194.352 69.917C203.807 63.6941 210.602 56.1754 213.354 49.0733L213.35 49.0825Z" fill="white"/>
<path d="M192.273 70.9377C189.118 72.9067 185.684 74.7246 182.025 76.3273C166.562 83.0996 151.089 84.2902 141.377 80.3659L141.176 81.5107C150.998 85.4074 166.699 84.1253 182.437 77.2339C186.174 75.5992 189.668 73.7493 192.887 71.7482C193.459 71.3911 194.018 71.0293 194.576 70.663L194.164 69.7197C193.546 70.1318 192.919 70.5394 192.278 70.9377H192.268H192.273Z" fill="#5762FC"/>
<path d="M213.575 49.8247L212.585 49.1836C209.93 56.1986 203.35 63.5983 194.164 69.7159L194.576 70.6592C204.032 64.4363 210.827 56.9176 213.579 49.8155L213.575 49.8247Z" fill="#A9D2FF"/>
<path d="M234.015 116.784C236.607 114.357 238.91 111.866 240.884 109.343L236.282 98.8018C234.153 101.197 231.785 103.541 229.226 105.803L234.02 116.779L234.015 116.784Z" fill="white"/>
<path d="M235.989 98.1468L223.914 70.4941L215.42 74.2123L228.942 105.176C231.479 102.927 233.818 100.606 235.916 98.2292C235.939 98.2018 235.961 98.1743 235.984 98.1514L235.989 98.1468Z" fill="white"/>
<path d="M231.73 67.0732L228.145 68.6438L239.272 94.1215C240.22 92.8577 241.094 91.5939 241.891 90.3301L231.735 67.0732H231.73Z" fill="white"/>
<path d="M243.988 104.924C244.895 103.472 245.692 102.016 246.365 100.569L242.207 91.0449C241.406 92.295 240.527 93.5451 239.574 94.7997L243.993 104.919H243.988V104.924Z" fill="white"/>
<path d="M199.389 123.757C178.934 132.714 157.72 135.534 142.526 131.537C142.705 131.816 142.893 132.086 143.09 132.347C158.374 136.107 179.392 133.227 199.65 124.353C208.025 120.689 215.832 116.174 222.655 111.119L222.384 110.501C215.575 115.565 207.764 120.085 199.384 123.753L199.389 123.757Z" fill="#E2F3FF"/>
<path d="M222.389 110.501L222.66 111.119C224.972 109.407 227.156 107.63 229.221 105.808L228.942 105.176C226.881 107.003 224.697 108.784 222.385 110.506L222.389 110.501Z" fill="white"/>
<path d="M239.57 94.8089L239.267 94.1221C238.26 95.4637 237.17 96.8145 235.989 98.1516L236.277 98.811C236.323 98.7606 236.369 98.7148 236.405 98.6645C237.536 97.3823 238.585 96.1002 239.56 94.8089H239.565H239.57Z" fill="white"/>
<path d="M247.024 81.1267L246.878 80.7925L246.621 80.2109C245.637 83.5078 244.048 86.9055 241.887 90.3306L242.203 91.0541C244.355 87.7068 245.971 84.3733 247.024 81.1313V81.1267Z" fill="white"/>
<path d="M235.916 98.224C233.814 100.605 231.474 102.927 228.942 105.17L229.221 105.802C231.785 103.536 234.153 101.2 236.277 98.801L235.989 98.1416C235.966 98.1691 235.943 98.1965 235.92 98.2194H235.916V98.224Z" fill="#E2F3FF"/>
<path d="M242.203 91.0536L241.887 90.3301C241.095 91.5893 240.215 92.8577 239.268 94.1215L239.57 94.8084C240.518 93.5583 241.401 92.3036 242.203 91.0536Z" fill="#E2F3FF"/>
<path d="M180.445 134.014C181.022 134.321 181.292 134.985 181.127 135.585C181.192 135.507 181.256 135.425 181.301 135.329C181.659 134.656 181.402 133.827 180.734 133.465C180.065 133.108 179.232 133.364 178.875 134.033C178.824 134.129 178.788 134.225 178.765 134.321C179.177 133.845 179.873 133.699 180.45 134.005L180.445 134.014Z" fill="#E2F3FF"/>
<path d="M179.438 135.906C178.861 135.599 178.591 134.935 178.756 134.335C178.687 134.413 178.627 134.495 178.582 134.591C178.225 135.265 178.481 136.093 179.149 136.455C179.818 136.812 180.651 136.556 181.009 135.887C181.059 135.791 181.096 135.695 181.118 135.599C180.711 136.075 180.01 136.222 179.433 135.915L179.438 135.906Z" fill="#5762FC"/>
<path d="M197.484 119.755C198.061 120.062 198.331 120.725 198.166 121.325C198.235 121.247 198.294 121.165 198.34 121.069C198.697 120.396 198.441 119.567 197.772 119.205C197.104 118.848 196.27 119.105 195.913 119.773C195.863 119.869 195.826 119.965 195.803 120.062C196.215 119.585 196.911 119.439 197.488 119.746L197.484 119.755Z" fill="#E2F3FF"/>
<path d="M196.481 121.642C195.904 121.335 195.634 120.671 195.799 120.071C195.735 120.149 195.67 120.232 195.625 120.328C195.268 121.001 195.524 121.83 196.192 122.191C196.861 122.549 197.694 122.292 198.052 121.624C198.102 121.527 198.139 121.431 198.161 121.34C197.754 121.816 197.053 121.962 196.476 121.656L196.481 121.642Z" fill="#5762FC"/>
<path d="M159.703 86.4653C160.609 86.9507 161.03 87.9901 160.774 88.938C160.879 88.8189 160.975 88.6816 161.049 88.535C161.612 87.4819 161.209 86.1677 160.156 85.609C159.103 85.0458 157.793 85.4488 157.23 86.5065C157.152 86.6531 157.097 86.8042 157.051 86.9599C157.697 86.2135 158.796 85.9799 159.698 86.4653H159.703Z" fill="white"/>
<path d="M158.122 89.4326C157.216 88.9473 156.794 87.9078 157.051 86.96C156.946 87.079 156.854 87.2118 156.776 87.3629C156.213 88.4161 156.616 89.7303 157.669 90.2889C158.722 90.8521 160.032 90.4492 160.595 89.3914C160.673 89.2449 160.728 89.0938 160.774 88.9381C160.128 89.6845 159.029 89.918 158.127 89.4326H158.122Z" fill="#5762FC"/>
<path d="M180.816 68.7397C181.723 69.2251 182.144 70.26 181.888 71.2124C181.993 71.0934 182.089 70.956 182.162 70.8094C182.726 69.7563 182.323 68.4421 181.269 67.8835C180.216 67.3202 178.907 67.7232 178.343 68.7809C178.266 68.9275 178.211 69.0786 178.169 69.2343C178.815 68.4879 179.914 68.2544 180.816 68.7397Z" fill="white"/>
<path d="M179.241 71.7168C178.334 71.2314 177.913 70.192 178.17 69.2441C178.064 69.3632 177.973 69.496 177.895 69.6471C177.332 70.7003 177.735 72.0144 178.788 72.5731C179.841 73.1363 181.15 72.7334 181.714 71.6756C181.792 71.5291 181.847 71.378 181.892 71.2223C181.247 71.9687 180.148 72.2022 179.246 71.7168H179.241Z" fill="#5762FC"/>
<path d="M207.274 66.6655C208.18 67.1509 208.602 68.1903 208.345 69.1382C208.451 69.0191 208.547 68.8863 208.62 68.7352C209.183 67.6821 208.78 66.3679 207.727 65.8092C206.674 65.246 205.364 65.649 204.801 66.7067C204.723 66.8533 204.668 67.0044 204.623 67.16C205.268 66.4137 206.367 66.1801 207.269 66.6655H207.274Z" fill="white"/>
<path d="M205.699 69.6377C204.792 69.1523 204.371 68.1129 204.627 67.165C204.522 67.2841 204.43 67.4169 204.352 67.568C203.789 68.6212 204.192 69.9353 205.245 70.494C206.298 71.0572 207.608 70.6543 208.171 69.5965C208.249 69.45 208.304 69.2989 208.35 69.1432C207.704 69.8896 206.605 70.1231 205.703 69.6377H205.699Z" fill="#5762FC"/>
<path d="M215.292 150.989C198.125 158.507 180.94 160.302 169.364 156.795L170.257 158.842C172.588 159.441 175.129 159.858 177.863 160.078C189.333 160.994 202.874 158.333 215.988 152.587C220.929 150.421 225.585 147.921 229.858 145.155L229.148 143.529C224.894 146.304 220.237 148.818 215.287 150.989H215.292Z" fill="#E2F3FF"/>
<path d="M250.802 124.655L250.719 124.467L249.927 122.649C248.86 124.591 247.551 126.569 245.989 128.556C241.717 133.987 235.943 139.088 229.143 143.525L229.853 145.151C236.923 140.572 242.926 135.283 247.358 129.637C248.673 127.97 249.813 126.303 250.797 124.655H250.802Z" fill="white"/>
<path d="M215.878 152.188C198.711 159.706 181.526 161.501 169.95 157.994L170.843 160.041C173.174 160.641 175.715 161.057 178.449 161.277C189.919 162.193 203.459 159.528 216.578 153.786C221.519 151.62 226.176 149.12 230.448 146.354L229.738 144.729C225.485 147.503 220.828 150.017 215.878 152.188Z" fill="#5762FC"/>
<path d="M251.397 125.854L251.315 125.667L250.522 123.849C249.456 125.79 248.146 127.768 246.584 129.751C242.312 135.182 236.538 140.283 229.738 144.72L230.448 146.345C237.518 141.766 243.521 136.478 247.954 130.832C249.268 129.165 250.408 127.498 251.392 125.845L251.397 125.854Z" fill="#A9D2FF"/>
<path d="M96.6172 184.424L150.535 159.308L150.466 134.06L150.535 159.308L96.6172 184.424Z" fill="#A9D2FF"/>
<path d="M80.6777 191.022L78.0127 187.185L82.8939 181.301L70.7962 173.48L74.6517 171.058L12.4824 169.634L0 193.468L77.1839 194.887L80.6777 191.022Z" fill="#E2F3FF"/>
<path d="M0 193.468L0.499113 194.265L77.6739 195.666L77.1839 194.887L0 193.468Z" fill="#A9D2FF"/>
<path d="M57.6451 170.728L48.771 194.356L49.4395 194.397L58.3778 170.632L57.6451 170.723V170.728Z" fill="white"/>
<path d="M74.6519 171.058L70.7964 173.48L71.5977 174.007L75.0686 171.68L74.6519 171.058Z" fill="#A9D2FF"/>
<path d="M82.8939 181.301V182.459L78.4523 187.817L78.0127 187.185L82.8939 181.301Z" fill="#A9D2FF"/>
<path d="M77.1841 194.887L77.674 195.666L80.8794 191.915L80.6779 191.022L77.1841 194.887Z" fill="#A9D2FF"/>
<path d="M58.0892 170.729L49.1006 194.833L49.8378 194.626L58.8218 170.642L58.0892 170.733V170.729Z" fill="#A9D2FF"/>
<path d="M111.815 248.925L112.195 256.915L116.371 259.846L188.252 180.358L158.104 175.147L100.532 239.533L101.173 246.617L111.815 248.925Z" fill="#E2F3FF"/>
<path d="M188.252 180.358L116.371 259.846L117.067 260.335L188.628 181.21L188.252 180.358Z" fill="#A9D2FF"/>
<path d="M101.173 246.617L111.815 248.925L111.824 249.699L101.448 247.409L101.173 246.617Z" fill="#A9D2FF"/>
<path d="M112.195 256.915L112.264 257.46L116.774 260.638L117.067 260.336L112.195 256.915Z" fill="#A9D2FF"/>
<path d="M94.7808 259.722L92.8576 254.996L96.8597 248.073L89.1578 240.376L92.4455 234.07L56.3125 244.062L78.6489 264.086L94.7808 259.722Z" fill="#E2F3FF"/>
<path d="M78.649 264.086L56.3125 244.062L56.166 244.977L78.5025 265.001L94.6801 260.578L94.7809 259.722L78.649 264.086Z" fill="#A9D2FF"/>
<path d="M92.4454 234.07L93.146 234.762L89.7988 241.012L89.1577 240.376L92.4454 234.07Z" fill="#A9D2FF"/>
<path d="M96.86 248.073L92.8579 254.997L93.2471 256.032L97.4507 248.792L96.86 248.073Z" fill="#A9D2FF"/>
<path d="M132.952 241.36L103.334 236.598L102.863 237.175L132.475 241.941L132.956 241.36H132.952Z" fill="white"/>
<path d="M161.314 210.108L131.697 205.346L131.226 205.923L160.843 210.685L161.319 210.108H161.314Z" fill="white"/>
<path d="M133.305 241.007L103.687 236.245L103.216 236.822L132.828 241.589L133.309 241.007H133.305Z" fill="#A9D2FF"/>
<path d="M161.713 209.709L132.096 204.947L131.624 205.524L161.241 210.286L161.717 209.709H161.713Z" fill="#A9D2FF"/>
<path d="M73.7222 78.308C92.2443 77.4049 92.9762 76.6738 93.8769 58.1533C94.781 76.6707 95.5129 77.4049 114.031 78.308C95.5096 79.2111 94.7777 79.9414 93.8769 98.4619C92.9729 79.9452 92.241 79.2111 73.7222 78.308Z" fill="#E2F3FF"/>
<path d="M229.867 32.976C248.389 32.0728 249.121 31.3418 250.021 12.8213C250.926 31.3387 251.657 32.0728 270.175 32.976C251.654 33.8791 250.922 34.6094 250.021 53.1299C249.117 34.6132 248.386 33.8791 229.867 32.976Z" fill="#E2F3FF"/>
<path d="M79.8511 215.118C82.2225 215.118 84.1486 213.191 84.1486 210.815C84.1486 208.439 82.2225 206.514 79.8511 206.514C77.4799 206.514 75.5537 208.439 75.5537 210.815C75.5537 213.191 77.4799 215.118 79.8511 215.118Z" fill="#E2F3FF"/>
<circle cx="278" cy="78" r="34" fill="white"/>
<circle opacity="0.2" cx="278" cy="78" r="34" fill="#F35F5F"/>
<circle opacity="0.2" cx="278" cy="78" r="25.5" fill="#F35F5F"/>
<circle cx="278" cy="77.9992" r="18.8889" fill="#F35F5F"/>
<path d="M280.113 66.3308L279.597 82.1482H275.842L275.31 66.3308H280.113ZM275.185 87.0452C275.185 86.3776 275.415 85.8248 275.873 85.3868C276.343 84.9383 276.958 84.714 277.72 84.714C278.491 84.714 279.107 84.9383 279.566 85.3868C280.025 85.8248 280.254 86.3776 280.254 87.0452C280.254 87.6918 280.025 88.2394 279.566 88.6879C279.107 89.1364 278.491 89.3607 277.72 89.3607C276.958 89.3607 276.343 89.1364 275.873 88.6879C275.415 88.2394 275.185 87.6918 275.185 87.0452Z" fill="white"/>
</g>
<defs>
<linearGradient id="paint0_linear_1661_28448" x1="218.982" y1="146.813" x2="221.532" y2="174.674" gradientUnits="userSpaceOnUse">
<stop offset="0.53" stop-color="#5762FC"/>
<stop offset="0.59" stop-color="#6373FC" stop-opacity="0.85"/>
<stop offset="0.8" stop-color="#88A5FD" stop-opacity="0.4"/>
<stop offset="0.94" stop-color="#9FC5FE" stop-opacity="0.11"/>
<stop offset="1" stop-color="#A9D2FF" stop-opacity="0"/>
</linearGradient>
<linearGradient id="paint1_linear_1661_28448" x1="199.227" y1="120.147" x2="183.646" y2="165.424" gradientUnits="userSpaceOnUse">
<stop offset="0.27" stop-color="#5762FC"/>
<stop offset="0.37" stop-color="#6373FC" stop-opacity="0.85"/>
<stop offset="0.69" stop-color="#88A5FD" stop-opacity="0.4"/>
<stop offset="0.9" stop-color="#9FC5FE" stop-opacity="0.11"/>
<stop offset="1" stop-color="#A9D2FF" stop-opacity="0"/>
</linearGradient>
<clipPath id="clip0_1661_28448">
<rect width="400" height="265.001" fill="white"/>
</clipPath>
</defs>
</svg>
