<svg width="28" height="28" viewBox="0 0 28 28" fill="none" xmlns="http://www.w3.org/2000/svg">
<path d="M13.009 3.96674L8.66896 11.0601C8.19063 11.8301 8.75063 12.8334 9.66063 12.8334H18.329C19.239 12.8334 19.799 11.8301 19.3206 11.0601L14.9923 3.96674C14.5373 3.22007 13.464 3.22007 13.009 3.96674Z" fill="#EBEBF5"/>
<path d="M20.416 25.6667C23.3155 25.6667 25.666 23.3162 25.666 20.4167C25.666 17.5173 23.3155 15.1667 20.416 15.1667C17.5165 15.1667 15.166 17.5173 15.166 20.4167C15.166 23.3162 17.5165 25.6667 20.416 25.6667Z" fill="#EBEBF5"/>
<path d="M4.66667 25.0833H11.6667C12.3083 25.0833 12.8333 24.5583 12.8333 23.9167V16.9167C12.8333 16.275 12.3083 15.75 11.6667 15.75H4.66667C4.025 15.75 3.5 16.275 3.5 16.9167V23.9167C3.5 24.5583 4.025 25.0833 4.66667 25.0833Z" fill="#EBEBF5"/>
</svg>
