<svg width="24" height="24" viewBox="0 0 24 24" fill="none" xmlns="http://www.w3.org/2000/svg">
<path d="M11.1501 3.39992L7.43012 9.47992C7.02012 10.1399 7.50012 10.9999 8.28012 10.9999H15.7101C16.4901 10.9999 16.9701 10.1399 16.5601 9.47992L12.8501 3.39992C12.4601 2.75992 11.5401 2.75992 11.1501 3.39992Z" fill="#EBEBF5"/>
<path d="M17.5 22C19.9853 22 22 19.9853 22 17.5C22 15.0147 19.9853 13 17.5 13C15.0147 13 13 15.0147 13 17.5C13 19.9853 15.0147 22 17.5 22Z" fill="#EBEBF5"/>
<path d="M4 21.5H10C10.55 21.5 11 21.05 11 20.5V14.5C11 13.95 10.55 13.5 10 13.5H4C3.45 13.5 3 13.95 3 14.5V20.5C3 21.05 3.45 21.5 4 21.5Z" fill="#EBEBF5"/>
</svg>
