<svg width="28" height="28" viewBox="0 0 28 28" fill="none" xmlns="http://www.w3.org/2000/svg">
<path d="M13.0085 3.96674L8.66847 11.0601C8.19014 11.8301 8.75014 12.8334 9.66014 12.8334H18.3285C19.2385 12.8334 19.7985 11.8301 19.3201 11.0601L14.9918 3.96674C14.5368 3.22007 13.4635 3.22007 13.0085 3.96674Z" fill="#44475B"/>
<path d="M20.4167 25.6667C23.3162 25.6667 25.6667 23.3162 25.6667 20.4167C25.6667 17.5173 23.3162 15.1667 20.4167 15.1667C17.5173 15.1667 15.1667 17.5173 15.1667 20.4167C15.1667 23.3162 17.5173 25.6667 20.4167 25.6667Z" fill="#44475B"/>
<path d="M4.66667 25.0833H11.6667C12.3083 25.0833 12.8333 24.5583 12.8333 23.9167V16.9167C12.8333 16.275 12.3083 15.75 11.6667 15.75H4.66667C4.025 15.75 3.5 16.275 3.5 16.9167V23.9167C3.5 24.5583 4.025 25.0833 4.66667 25.0833Z" fill="#44475B"/>
</svg>
