<svg xmlns="http://www.w3.org/2000/svg" width="40" height="37" viewBox="0 0 40 37">
    <g fill="#D2AB66">
        <path d="M36.832 29.96c-.228-.395-.667-.642-1.145-.642h-1.38c0-.212-.055-.424-.169-.617l-2.924-4.982c-.23-.395-.669-.64-1.143-.64h-2.624c0-.211-.054-.423-.168-.614l-2.923-4.98c-.228-.396-.667-.643-1.145-.643h-6.5c-.478 0-.917.247-1.143.638l-.597 1.017V6.862c0-.688-.56-1.248-1.248-1.248H1.248C.56 5.614 0 6.174 0 6.862v28.694c0 .688.56 1.247 1.248 1.247h12.475c.015 0 .029-.004.044-.004v.004h12.388c.016 0 .035-.002.053-.004.01.001.025.004.034.004h12.389c.47 0 .902-.248 1.13-.647.22-.383.217-.839-.006-1.215l-2.923-4.98zm-6.693-5.61l2.915 4.968h-3.867c-.013 0-.025.004-.037.005l-5.846.007c-.032-.002-.061-.012-.093-.012h-2.62l2.915-4.968c.004-.006.029-.023.068-.023h6.497c.04 0 .064.017.068.022zm-5.427 6.215h2.975L26.2 33.1l-1.488-2.535zm-4.75-2.64l-2.112-3.598h4.223l-2.111 3.598zm-5.077-6.818l1.76-2.996c.004-.006.03-.021.066-.021h6.5c.037 0 .062.015.067.022l2.877 4.968H16.35c-.344 0-.623.279-.623.624s.279.623.623.623c.037 0 .062.016.068.023l2.877 4.968H14.97v-3.12c0-.344-.28-.623-.624-.623s-.624.279-.624.624v8.2l-1.247-1.558V9.576l1.247-1.558v12.773c0 .281.189.528.46.602.272.072.56-.044.702-.286zM11.552 8.733H3.418L1.92 6.862h11.132l-1.499 1.87zM3.742 9.98h7.486v22.456H3.743m-1.248.405L1.248 34.4V8.018l1.247 1.558m.923 24.108h8.134l1.5 1.872H1.918l1.5-1.872zm11.553-3.119h.24l-.24.408v-.408zm0 2.87l1.673-2.848c.005-.006.03-.022.067-.022h6.5c.037 0 .062.016.067.023l2.383 4.061.538.9c-.03 0-.058.002-.087.007H14.97v-2.12zm12.472 2.12c0-.212-.051-.424-.164-.615l-.357-.608 2.198-3.745c.005-.006.03-.022.067-.022h6.5c.036 0 .061.016.067.023l2.877 4.968H27.443z"/>
        <path d="M13.723 23.08v.624c0 .345.28.623.624.623s.624-.278.624-.623v-.624c0-.345-.28-.624-.624-.624s-.624.279-.624.624zM4.99 13.723h4.99c.345 0 .624-.279.624-.624s-.28-.623-.623-.623H4.99c-.345 0-.625.278-.625.623s.28.624.624.624zM4.99 29.942h4.99c.345 0 .624-.28.624-.624 0-.345-.28-.624-.623-.624H4.99c-.345 0-.625.279-.625.624s.28.624.624.624zM4.99 16.218h1.248c.344 0 .624-.279.624-.623 0-.345-.28-.624-.624-.624H4.99c-.344 0-.624.279-.624.624 0 .344.28.623.624.623zM9.98 14.97H8.11c-.345 0-.625.28-.625.625 0 .344.28.623.624.623h1.872c.344 0 .623-.279.623-.623 0-.345-.28-.624-.623-.624zM21.832.624c0-.345-.28-.624-.623-.624-.345 0-.624.279-.624.624 0 1.357-2.004 1.885-2.023 1.89-.277.068-.471.318-.472.604 0 .285.194.535.47.606.021.005 2.025.533 2.025 1.89 0 .345.28.624.624.624s.623-.279.623-.624c0-1.357 2.004-1.885 2.023-1.89.277-.069.471-.318.472-.604 0-.285-.194-.535-.47-.606-.021-.005-2.025-.533-2.025-1.89zm-.623 3.29c-.276-.33-.612-.592-.944-.795.332-.203.668-.465.944-.796.275.33.612.593.943.796-.331.203-.668.465-.943.796zM29.318 13.722c0 .285.194.535.47.606.021.005 2.025.533 2.025 1.89 0 .345.28.624.624.624s.623-.279.623-.624c0-1.357 2.004-1.885 2.023-1.89.277-.068.471-.318.472-.604 0-.285-.193-.535-.47-.606-.021-.005-2.025-.533-2.025-1.89 0-.345-.279-.624-.623-.624-.345 0-.624.28-.624.624 0 1.357-2.004 1.885-2.023 1.89-.277.07-.471.318-.472.604zm3.119-.795c.275.33.612.593.943.796-.331.204-.668.466-.943.796-.276-.33-.612-.592-.944-.796.332-.203.668-.465.944-.796z"/>
    </g>
</svg>
