<svg width="40" height="37" viewBox="0 0 40 37" fill="none" xmlns="http://www.w3.org/2000/svg">
  <path fill-rule="evenodd" clip-rule="evenodd"
    d="M35.6866 29.3177C36.165 29.3177 36.6041 29.5647 36.8324 29.9608L39.7555 34.9405C39.9782 35.3172 39.9807 35.7726 39.7617 36.1562C39.5334 36.5555 39.1005 36.8031 38.6308 36.8031H26.2425C26.2402 36.8031 26.2376 36.8029 26.235 36.8027C26.2313 36.8023 26.2274 36.8017 26.2235 36.8012L26.2235 36.8012C26.2182 36.8004 26.2129 36.7996 26.2082 36.7994L26.1894 36.8009C26.1775 36.802 26.1658 36.8031 26.1552 36.8031H13.7669V36.7987C13.76 36.799 13.7534 36.8 13.7469 36.8009H13.7469C13.7391 36.802 13.7313 36.8031 13.7232 36.8031H1.24756C0.559532 36.8031 0 36.2436 0 35.5555V6.86158C0 6.17355 0.559532 5.61401 1.24756 5.61401H13.7232C14.4112 5.61401 14.9708 6.17355 14.9708 6.86158V18.497L15.5677 17.4802C15.7935 17.0891 16.2327 16.8421 16.7111 16.8421H23.2109C23.6894 16.8421 24.1285 17.0891 24.3562 17.4858L27.2792 22.4649C27.3927 22.6564 27.4476 22.8678 27.447 23.0799H30.0713C30.5453 23.0799 30.9839 23.3244 31.214 23.7187L34.1383 28.7014C34.2519 28.8942 34.3074 29.1056 34.3074 29.3177H35.6866ZM33.0542 29.3177L30.1386 24.3493C30.1349 24.3437 30.1106 24.3275 30.0713 24.3275H26.1552H23.574C23.5347 24.3275 23.5103 24.3437 23.506 24.3499L20.591 29.3177H23.2109C23.2284 29.3177 23.2451 29.3207 23.2619 29.3238C23.2757 29.3262 23.2895 29.3287 23.3039 29.3296L29.1499 29.3227L29.1558 29.3222L29.1579 29.3219L29.167 29.3202C29.1735 29.319 29.18 29.3177 29.1867 29.3177H33.0542ZM24.7117 30.5653H27.6872L26.2001 33.0997L24.7117 30.5653ZM17.8501 24.3275L19.9616 27.9254L22.0731 24.3275H17.8501ZM14.8847 21.1069L16.6444 18.1109C16.6494 18.1052 16.6743 18.0896 16.7111 18.0896H23.2109C23.2477 18.0896 23.2727 18.1052 23.2783 18.1121L26.1552 23.0799H23.574H16.3493C16.005 23.0799 15.7255 23.3587 15.7255 23.7037C15.7255 24.0486 16.005 24.3275 16.3493 24.3275C16.3861 24.3275 16.4111 24.3431 16.4167 24.3499L19.2936 29.3177H14.9708V26.1988C14.9708 25.8539 14.6913 25.575 14.347 25.575C14.0027 25.575 13.7232 25.8539 13.7232 26.1988V34.399L12.4756 32.8415V9.57565L13.7232 8.01807V20.7906C13.7232 21.0719 13.9116 21.319 14.1835 21.3926C14.4549 21.4649 14.7425 21.3489 14.8847 21.1069ZM3.41832 8.73292H11.5524L13.0508 6.86158H1.91938L3.41832 8.73292ZM3.74269 9.98049H11.2281V32.4366H3.74269V9.98049ZM1.24756 34.3997L2.49513 32.8421V9.57565L1.24756 8.01807V34.3997ZM3.41832 33.6842H11.5524L13.0514 35.5555H1.91938L3.41832 33.6842ZM15.2103 30.5653H14.9708V30.9726L15.2103 30.5653ZM14.9708 33.4359L16.6444 30.5865C16.6494 30.5809 16.6743 30.5653 16.7111 30.5653H19.2936H20.6272H23.2109C23.2477 30.5653 23.2727 30.5809 23.2783 30.5877L25.6611 34.6492L26.1988 35.5493C26.1695 35.5493 26.1408 35.5512 26.1115 35.5555H14.9708V33.4359ZM27.2792 34.9399C27.3915 35.1307 27.4439 35.3428 27.4433 35.5555H38.6308L35.7539 30.5877C35.7483 30.5809 35.7234 30.5653 35.6866 30.5653H33.018H29.1867C29.1499 30.5653 29.125 30.5809 29.12 30.5871L26.9224 34.3323L27.2792 34.9399Z"
    fill="#00D09C" />
  <path
    d="M13.7231 23.08V23.7037C13.7231 24.0487 14.0026 24.3275 14.3469 24.3275C14.6913 24.3275 14.9707 24.0487 14.9707 23.7037V23.08C14.9707 22.735 14.6913 22.4562 14.3469 22.4562C14.0026 22.4562 13.7231 22.735 13.7231 23.08Z"
    fill="#00D09C" />
  <path
    d="M4.99024 13.7231H9.98049C10.3248 13.7231 10.6043 13.4443 10.6043 13.0994C10.6043 12.7544 10.3248 12.4756 9.98049 12.4756H4.99024C4.64591 12.4756 4.36646 12.7544 4.36646 13.0994C4.36646 13.4443 4.64591 13.7231 4.99024 13.7231Z"
    fill="#00D09C" />
  <path
    d="M4.99024 29.9415H9.98049C10.3248 29.9415 10.6043 29.6627 10.6043 29.3178C10.6043 28.9728 10.3248 28.694 9.98049 28.694H4.99024C4.64591 28.694 4.36646 28.9728 4.36646 29.3178C4.36646 29.6627 4.64591 29.9415 4.99024 29.9415Z"
    fill="#00D09C" />
  <path
    d="M4.99024 16.2183H6.2378C6.58213 16.2183 6.86158 15.9394 6.86158 15.5945C6.86158 15.2495 6.58213 14.9707 6.2378 14.9707H4.99024C4.64591 14.9707 4.36646 15.2495 4.36646 15.5945C4.36646 15.9394 4.64591 16.2183 4.99024 16.2183Z"
    fill="#00D09C" />
  <path
    d="M9.98048 14.9707H8.10913C7.76481 14.9707 7.48535 15.2495 7.48535 15.5945C7.48535 15.9394 7.76481 16.2183 8.10913 16.2183H9.98048C10.3248 16.2183 10.6043 15.9394 10.6043 15.5945C10.6043 15.2495 10.3248 14.9707 9.98048 14.9707Z"
    fill="#00D09C" />
  <path fill-rule="evenodd" clip-rule="evenodd"
    d="M21.2086 0C21.5529 0 21.8324 0.27883 21.8324 0.623782C21.8324 1.98113 23.836 2.50885 23.8566 2.51384C24.1329 2.58495 24.3275 2.83509 24.3269 3.12016C24.3263 3.40585 24.1323 3.65536 23.8553 3.72398C23.836 3.72897 21.8324 4.25669 21.8324 5.61404C21.8324 5.95899 21.5529 6.23782 21.2086 6.23782C20.8643 6.23782 20.5848 5.95899 20.5848 5.61404C20.5848 4.25669 18.5812 3.72897 18.56 3.72398C18.2837 3.65287 18.0897 3.40273 18.0903 3.11766C18.091 2.83197 18.285 2.58246 18.5619 2.51384C18.5812 2.50885 20.5848 1.98113 20.5848 0.623782C20.5848 0.27883 20.8643 0 21.2086 0ZM20.2655 3.11891C20.5967 3.32226 20.9329 3.58425 21.2086 3.91485C21.4843 3.58425 21.8205 3.32226 22.1518 3.11891C21.8205 2.91556 21.4843 2.65357 21.2086 2.32296C20.9329 2.65357 20.5967 2.91556 20.2655 3.11891Z"
    fill="#00D09C" />
  <path fill-rule="evenodd" clip-rule="evenodd"
    d="M29.7881 14.3282C29.5117 14.2571 29.3177 14.007 29.3184 13.7219C29.319 13.4362 29.513 13.1873 29.7899 13.1181C29.8093 13.1131 31.8129 12.5854 31.8129 11.228C31.8129 10.8831 32.0923 10.6042 32.4366 10.6042C32.781 10.6042 33.0604 10.8831 33.0604 11.228C33.0604 12.5854 35.064 13.1131 35.0852 13.1181C35.3616 13.1892 35.5556 13.4393 35.5549 13.7244C35.5543 14.0101 35.3603 14.2596 35.0834 14.3282C35.064 14.3332 33.0604 14.8609 33.0604 16.2183C33.0604 16.5632 32.781 16.8421 32.4366 16.8421C32.0923 16.8421 31.8129 16.5632 31.8129 16.2183C31.8129 14.8609 29.8093 14.3332 29.7881 14.3282ZM33.3798 13.7232C33.0486 13.5198 32.7124 13.2578 32.4366 12.9272C32.1609 13.2578 31.8247 13.5198 31.4935 13.7232C31.8247 13.9265 32.1609 14.1885 32.4366 14.5191C32.7124 14.1885 33.0486 13.9265 33.3798 13.7232Z"
    fill="#00D09C" />
</svg>
