<svg width="32" height="32" viewBox="0 0 32 32" fill="none" xmlns="http://www.w3.org/2000/svg">
<g id="exit-load">
<path id="Oval" fill-rule="evenodd" clip-rule="evenodd" d="M16 32C24.8366 32 32 24.8366 32 16C32 7.16344 24.8366 0 16 0C7.16344 0 0 7.16344 0 16C0 24.8366 7.16344 32 16 32Z" fill="#00D09C" fill-opacity="0.05"/>
<g id="Group">
<path id="Shape" fill-rule="evenodd" clip-rule="evenodd" d="M20.6764 14.1955C20.3779 14.1955 20.0795 14.2316 19.7986 14.2857V9.93686C19.7986 8.27671 17.1128 7.42859 14.4796 7.42859C11.8289 7.42859 9.14307 8.29475 9.14307 9.93686V19.3564C9.14307 21.0166 11.8289 21.8827 14.4621 21.8827C15.0414 21.8827 15.6207 21.8286 16.1824 21.7384C17.025 23.4166 18.7103 24.5714 20.6764 24.5714C23.45 24.5714 25.7145 22.2436 25.7145 19.3925C25.7145 16.5233 23.45 14.1955 20.6764 14.1955ZM14.4621 8.5113C17.025 8.5113 18.7278 9.35942 18.7278 9.93686C18.7278 10.5143 17.025 11.3624 14.4621 11.3624C11.8991 11.3624 10.1963 10.4963 10.1963 9.93686C10.1963 9.37746 11.8991 8.5113 14.4621 8.5113ZM14.4621 12.4632C12.8471 12.4632 11.2145 12.1384 10.1963 11.5068V12.3008C10.1963 12.8602 11.8991 13.7263 14.4621 13.7263C17.025 13.7263 18.7278 12.8602 18.7278 12.3008V11.5068C17.7097 12.1384 16.0771 12.4632 14.4621 12.4632ZM10.1963 13.8707C11.2145 14.5023 12.8471 14.8271 14.4621 14.8271C16.0771 14.8271 17.7097 14.5023 18.7278 13.8707V14.6105C18.1134 14.8812 17.5517 15.2602 17.0952 15.7474C16.3931 15.9459 15.4978 16.0902 14.4621 16.0902C11.8991 16.0902 10.1963 15.2241 10.1963 14.6647V13.8707ZM14.4621 17.1729C12.8471 17.1729 11.2145 16.8481 10.1963 16.2166V17.0105C10.1963 17.5699 11.8991 18.4361 14.4621 18.4361C14.9185 18.4361 15.3398 18.4 15.726 18.3459C15.8138 17.8767 15.9718 17.4436 16.1824 17.0286C15.6207 17.1188 15.0414 17.1729 14.4621 17.1729ZM14.4621 20.8C11.8991 20.8 10.1963 19.9339 10.1963 19.3745V18.5805C11.2145 19.212 12.8471 19.5369 14.4621 19.5369C14.8483 19.5369 15.2345 19.5008 15.6206 19.4647L15.6207 19.4647C15.6207 19.8978 15.6909 20.3128 15.7962 20.7098C15.7161 20.7169 15.6347 20.7248 15.5517 20.7328C15.2163 20.7652 14.8561 20.8 14.4621 20.8ZM16.6915 19.3925C16.6915 21.6481 18.482 23.4887 20.6764 23.4887C22.8707 23.4887 24.6612 21.6481 24.6612 19.3925C24.6612 17.1369 22.8707 15.2963 20.6764 15.2963C18.482 15.2963 16.6915 17.1369 16.6915 19.3925Z" fill="#00D09C"/>
<path id="Path" d="M22.2859 17.6556C22.2859 17.5189 22.2344 17.3992 22.1314 17.2967C22.0284 17.1941 21.9082 17.1428 21.7709 17.1428C21.6335 17.1428 21.5134 17.1941 21.4104 17.2967L18.4404 20.271C18.3374 20.3736 18.2859 20.4932 18.2859 20.63C18.2859 20.7668 18.3374 20.8864 18.4404 20.989C18.5434 21.0915 18.6636 21.1428 18.8009 21.1428C18.9382 21.1428 19.0584 21.0915 19.1614 20.989L22.1485 18.0146C22.2344 17.9121 22.2859 17.7924 22.2859 17.6556Z" fill="#00D09C"/>
<path id="Oval_2" d="M19.143 18.8571C19.6164 18.8571 20.0002 18.4734 20.0002 18C20.0002 17.5266 19.6164 17.1428 19.143 17.1428C18.6696 17.1428 18.2859 17.5266 18.2859 18C18.2859 18.4734 18.6696 18.8571 19.143 18.8571Z" fill="#00D09C"/>
<path id="Oval_3" d="M22.0002 21.7143C22.4736 21.7143 22.8574 21.3305 22.8574 20.8571C22.8574 20.3838 22.4736 20 22.0002 20C21.5268 20 21.1431 20.3838 21.1431 20.8571C21.1431 21.3305 21.5268 21.7143 22.0002 21.7143Z" fill="#00D09C"/>
</g>
</g>
</svg>
