<svg width="38" height="38" viewBox="0 0 38 38" fill="none" xmlns="http://www.w3.org/2000/svg">
<path d="M18.7 36.4C28.4754 36.4 36.4 28.4754 36.4 18.7C36.4 8.92456 28.4754 1 18.7 1C8.92456 1 1 8.92456 1 18.7C1 28.4754 8.92456 36.4 18.7 36.4Z" fill="#337FFF" fill-opacity="0.1"/>
<path d="M18.7 36.9C28.7516 36.9 36.9 28.7516 36.9 18.7C36.9 8.64842 28.7516 0.5 18.7 0.5C8.64842 0.5 0.5 8.64842 0.5 18.7C0.5 28.7516 8.64842 36.9 18.7 36.9Z" stroke="#337FFF" stroke-opacity="0.2"/>
<path d="M23.2763 20.2827L23.8553 16.318H20.3092V13.7526C20.3092 12.6643 20.8158 11.576 22.4079 11.576H24V8.23322C24 8.23322 22.5526 8 21.1053 8C18.2105 8 16.2566 9.86572 16.2566 13.364V16.3958H13V20.3604H16.2566V30C16.9582 30 17.4145 30 18.1382 30C18.7895 30 19.6238 30 20.3092 30V20.2827H23.2763Z" fill="#337FFF"/>
</svg>
