<svg width="50" height="50" viewBox="0 0 50 50" fill="none" xmlns="http://www.w3.org/2000/svg">
<g clip-path="url(#clip0)">
<path d="M40.8852 20.0504C42.0163 20.0504 42.9366 19.1301 42.9366 17.999V15.3429C42.9366 14.5007 42.4322 13.7542 41.6511 13.4399L26.2691 7.15037C25.7682 6.94858 25.2262 6.95213 24.738 7.14749C24.7267 7.15207 24.9955 7.04219 9.34882 13.4399C8.56772 13.7542 8.06329 14.5008 8.06329 15.343V17.9992C8.06329 19.1303 8.98354 20.0505 10.1147 20.0505H11.3455V35.5041H10.1147C8.98354 35.5041 8.06329 36.4244 8.06329 37.5555V39.9488C8.06329 41.0799 8.98354 42.0001 10.1147 42.0001H40.8852C42.0163 42.0001 42.9365 41.0799 42.9365 39.9488V37.5555C42.9365 36.4244 42.0163 35.5041 40.8852 35.5041H39.6543V20.0505H40.8852V20.0504ZM40.8852 37.5554C40.8865 40.0034 40.8921 39.9486 40.8852 39.9486H10.1147V37.5554H40.8852ZM13.3969 35.504V20.0504H15.7218V35.504H13.3969ZM17.7732 35.504V20.0504H22.2862V35.504H17.7732ZM24.3375 35.504V20.0504H26.6624V35.504H24.3375ZM28.7138 35.504V20.0504H33.2268V35.504H28.7138ZM35.2782 35.504V20.0504H37.603V35.504H35.2782ZM10.1147 17.999C10.1147 15.1378 10.1117 15.3441 10.1219 15.34L25.5 9.05205L40.878 15.34C40.8886 15.3442 40.8852 15.1446 40.8852 17.999C40.5443 17.999 10.5199 17.999 10.1147 17.999Z" fill="#00D09C"/>
<path d="M25.4999 11.4346C24.9335 11.4346 24.4742 11.8938 24.4742 12.4603V14.6484C24.4742 15.2148 24.9335 15.6741 25.4999 15.6741C26.0664 15.6741 26.5256 15.2148 26.5256 14.6484V12.4603C26.5256 11.8938 26.0664 11.4346 25.4999 11.4346Z" fill="#00D09C"/>
</g>
<defs>
<clipPath id="clip0">
<rect width="35" height="35" fill="white" transform="translate(8 7)"/>
</clipPath>
</defs>
</svg>
