<svg width="38" height="38" viewBox="0 0 38 38" fill="none" xmlns="http://www.w3.org/2000/svg">
  <g clip-path="url(#clip0)">
    <path
      d="M32.4033 6.59893C25.4811 6.59893 20.1796 0.833685 20.0903 0.735552C19.5107 0.0895331 18.4945 0.0869582 17.9105 0.73498C17.8576 0.793345 12.543 6.59893 5.59668 6.59893C4.78758 6.59893 4.13184 7.25468 4.13184 8.06378C4.13184 20.9384 6.7285 32.0772 18.3714 37.6084C18.7691 37.7972 19.2309 37.7972 19.6286 37.6084C31.2978 32.0646 33.8682 20.8875 33.8682 8.06378C33.8682 7.25468 33.2124 6.59893 32.4033 6.59893ZM19 34.6521C9.45849 29.7704 7.21659 20.2632 7.07039 9.45967C12.6849 8.93524 17.0568 5.55208 19 3.77253C20.9432 5.55208 25.3154 8.93524 30.9296 9.45967C30.7834 20.2655 28.5404 29.7709 19 34.6521ZM17.4957 20.4268L23.4575 14.465C24.0294 13.8931 24.9569 13.8928 25.5289 14.465C26.1011 15.0372 26.1011 15.9645 25.5291 16.5367L18.5317 23.5342C17.9597 24.1061 17.0319 24.1058 16.46 23.5342L12.4711 19.5453C11.8989 18.9731 11.8989 18.0456 12.4711 17.4737C13.0431 16.9015 13.9706 16.9015 14.5428 17.4737L17.4957 20.4268Z"
      fill="#00D09C" />
    <path fill-rule="evenodd" clip-rule="evenodd"
      d="M19.7182 1.06947C19.337 0.644636 18.6671 0.642312 18.282 1.06969L18.2809 1.07087C18.2378 1.11836 16.8646 2.61633 14.6146 4.10577C12.3685 5.59262 9.20638 7.09893 5.59668 7.09893C5.06372 7.09893 4.63184 7.53082 4.63184 8.06378C4.63184 20.898 7.22231 31.7582 18.5859 37.1567C18.8479 37.2811 19.1521 37.2811 19.4141 37.1567C30.8036 31.7458 33.3682 20.8479 33.3682 8.06378C33.3682 7.53082 32.9363 7.09893 32.4033 7.09893C28.8061 7.09893 25.6535 5.60305 23.409 4.12131C21.1607 2.63702 19.7816 1.13921 19.7205 1.072L19.7182 1.06947ZM19.6286 37.6084C19.2309 37.7972 18.7691 37.7972 18.3714 37.6084C6.7285 32.0772 4.13184 20.9384 4.13184 8.06378C4.13184 7.25468 4.78758 6.59893 5.59668 6.59893C12.543 6.59893 17.8576 0.793345 17.9105 0.73498C18.4945 0.0869582 19.5107 0.0895331 20.0903 0.735552C20.1796 0.833685 25.4811 6.59893 32.4033 6.59893C33.2124 6.59893 33.8682 7.25468 33.8682 8.06378C33.8682 20.8875 31.2978 32.0646 19.6286 37.6084ZM19 35.2138L18.7723 35.0972C8.96615 30.0801 6.71714 20.3069 6.57044 9.46643L6.56419 9.00478L7.02389 8.96184C12.4751 8.45266 16.7463 5.1584 18.6623 3.40379L19 3.09454L19.3377 3.40379C21.2537 5.1584 25.5252 8.45266 30.9761 8.96184L31.4358 9.00478L31.4296 9.46643C31.2829 20.3093 29.0327 30.0807 19.2277 35.0972L19 35.2138ZM17.4957 21.134L14.1893 17.8272C14.1893 17.8272 14.1893 17.8272 14.1893 17.8272C13.8123 17.4503 13.2014 17.4504 12.8248 17.8271C12.448 18.2037 12.4477 18.8148 12.8247 19.1918L16.8134 23.1805C16.8135 23.1806 16.8134 23.1805 16.8134 23.1805C17.1902 23.5571 17.8016 23.5571 18.1781 23.1806L25.1755 16.1832C25.1755 16.1832 25.1755 16.1833 25.1755 16.1832C25.5522 15.8063 25.5522 15.1955 25.1753 14.8186C24.7988 14.4419 24.1878 14.4418 23.811 14.8186L17.4957 21.134ZM16.46 23.5342C17.0319 24.1058 17.9597 24.1061 18.5317 23.5342L25.5291 16.5367C26.1011 15.9645 26.1011 15.0372 25.5289 14.465C24.9569 13.8928 24.0294 13.8931 23.4575 14.465L17.4957 20.4268L14.5428 17.4737C13.9706 16.9015 13.0431 16.9015 12.4711 17.4737C11.8989 18.0456 11.8989 18.9731 12.4711 19.5453L16.46 23.5342ZM19 3.77253C17.0568 5.55208 12.6849 8.93524 7.07039 9.45967C7.21659 20.2632 9.45849 29.7704 19 34.6521C28.5404 29.7709 30.7834 20.2655 30.9296 9.45967C25.3154 8.93524 20.9432 5.55208 19 3.77253Z"
      fill="white" />
  </g>
  <defs>
    <clipPath id="clip0">
      <rect width="37.5" height="37.5" fill="white" transform="translate(0.25 0.25)" />
    </clipPath>
  </defs>
</svg>
