<svg width="31" height="31" viewBox="0 0 31 31" fill="none" xmlns="http://www.w3.org/2000/svg">
<g clip-path="url(#clip0)">
<path d="M28.9334 27.0181L28.9347 27.0176C30.249 25.3847 30.9643 23.3686 30.9643 21.2565C30.9643 17.5125 28.7193 14.2427 25.4424 12.8115C24.8752 19.2428 19.737 24.381 13.3057 24.9483C14.7369 28.2251 18.0067 30.4701 21.7506 30.4701H30.0708C30.8467 30.4701 31.2524 29.5479 30.7281 28.976L28.9334 27.0181Z" fill="#50DDB6"/>
<path d="M23.712 11.6275C23.712 5.23602 18.5122 0.0361328 12.1207 0.0361328C5.72919 0.0361328 0.529302 5.23602 0.529302 11.6275C0.529302 14.3578 1.47944 16.9606 3.22112 19.0438L3.22236 19.0444L0.765409 21.7247C0.241182 22.2966 0.64688 23.2189 1.42273 23.2189H12.1207C18.5122 23.2189 23.712 18.019 23.712 11.6275ZM15.7026 16.0489C14.1707 17.4851 12.6569 18.4368 12.5932 18.4765C12.3041 18.6572 11.9372 18.6572 11.6481 18.4765C11.5844 18.4368 10.0706 17.4851 8.5387 16.0489C6.3795 14.0247 5.28474 12.0871 5.28474 10.29C5.28474 8.15954 7.01803 6.42625 9.14853 6.42625C10.3024 6.42625 11.3827 6.93264 12.1207 7.74237C12.8587 6.93264 13.9389 6.42625 15.0928 6.42625C17.2233 6.42625 18.9566 8.15954 18.9566 10.29C18.9566 12.0871 17.8619 14.0247 15.7026 16.0489Z" fill="#A9D2FF"/>
<circle cx="12.0045" cy="11.5103" r="7.48396" fill="#A9D2FF"/>
<path d="M12.1227 8.15526C12.3174 7.95933 12.48 7.79074 12.6495 7.63126C13.6298 6.71995 15.0155 6.51263 16.0667 7.12776C16.6146 7.47004 17.0386 7.97692 17.2774 8.57496C17.5163 9.17299 17.5575 9.83114 17.3952 10.454C17.1661 11.436 16.6027 12.247 15.9568 13.0034C14.8872 14.2542 13.6 15.2612 12.2716 16.2181C12.2299 16.2398 12.1835 16.2512 12.1365 16.2512C12.0894 16.2512 12.043 16.2398 12.0013 16.2181C10.4118 15.0653 8.86581 13.8646 7.72062 12.2425C7.19612 11.4998 6.80446 10.7001 6.76781 9.766C6.74552 9.18788 6.89393 8.61593 7.19473 8.12076C7.49552 7.6256 7.93553 7.22891 8.4604 6.97967C8.99642 6.76625 9.58399 6.71553 10.149 6.83393C10.7139 6.95233 11.231 7.23453 11.6349 7.64493C11.7952 7.81124 11.9486 7.97528 12.1227 8.15526Z" fill="#5762FC"/>
</g>
<defs>
<clipPath id="clip0">
<rect width="30.4348" height="30.4348" fill="white" transform="translate(0.529297 0.0361328)"/>
</clipPath>
</defs>
</svg>
