<svg width="40" height="40" viewBox="0 0 40 40" fill="none" xmlns="http://www.w3.org/2000/svg">
<path d="M38.9912 24.5036L38.9935 24.5045C39.1617 24.5767 39.2647 24.7494 39.2482 24.9321C39.2318 25.1133 39.0998 25.2645 38.9209 25.305L38.9164 25.306L28.3314 27.7711L27.8769 27.877L27.771 28.3315L25.3059 38.9167L25.3059 38.9167L25.3049 38.9213C25.2644 39.1001 25.1133 39.2321 24.932 39.2485L24.9294 39.2488C24.926 39.2491 24.9218 39.2494 24.9165 39.2496C24.9103 39.2499 24.9027 39.2501 24.8932 39.2501C24.7257 39.2501 24.5717 39.1502 24.5041 38.993L24.5035 38.9915L13.8758 14.4312C13.8756 14.4307 13.8754 14.4302 13.8752 14.4297C13.8081 14.2706 13.8441 14.0873 13.9656 13.9657C14.086 13.8453 14.2694 13.8084 14.4306 13.8757C14.4313 13.876 14.432 13.8763 14.4326 13.8766L38.9912 24.5036Z" stroke="#00D09C" stroke-width="1.5"/>
<path d="M15.2344 9.375C15.8821 9.375 16.4062 8.85086 16.4062 8.20312V1.17188C16.4062 0.524141 15.8821 0 15.2344 0C14.5866 0 14.0625 0.524141 14.0625 1.17188V8.20312C14.0625 8.85086 14.5866 9.375 15.2344 9.375Z" fill="#00D09C"/>
<path d="M9.43462 19.3771L4.4622 24.3495C4.00446 24.8073 4.00446 25.5489 4.4622 26.0066C4.92001 26.4645 5.66149 26.4645 6.11931 26.0066L11.0917 21.0342C11.5495 20.5765 11.5495 19.8348 11.0917 19.3771C10.634 18.9194 9.89235 18.9194 9.43462 19.3771Z" fill="#00D09C"/>
<path d="M21.0341 11.0917L26.0065 6.11931C26.4643 5.66157 26.4643 4.91993 26.0065 4.4622C25.5488 4.00446 24.8071 4.00446 24.3494 4.4622L19.377 9.43462C18.9193 9.89235 18.9193 10.634 19.377 11.0917C19.8348 11.5495 20.5764 11.5495 21.0341 11.0917Z" fill="#00D09C"/>
<path d="M6.11906 4.46195C5.66133 4.00422 4.91969 4.00422 4.46195 4.46195C4.00422 4.91969 4.00422 5.66133 4.46195 6.11906L9.43437 11.0915C9.89219 11.5493 10.6337 11.5493 11.0915 11.0915C11.5492 10.6338 11.5492 9.89211 11.0915 9.43438L6.11906 4.46195Z" fill="#00D09C"/>
<path d="M9.375 15.2344C9.375 14.5866 8.85086 14.0625 8.20312 14.0625H1.17188C0.524141 14.0625 0 14.5866 0 15.2344C0 15.8821 0.524141 16.4062 1.17188 16.4062H8.20312C8.85086 16.4062 9.375 15.8821 9.375 15.2344Z" fill="#00D09C"/>
</svg>
