<svg width="52" height="48" viewBox="0 0 52 48" fill="none" xmlns="http://www.w3.org/2000/svg">
<path d="M51.1681 23.0361C51.5186 22.8343 51.497 22.3216 51.1308 22.15L42.8576 18.2746C42.7098 18.2053 42.5375 18.2126 42.396 18.294L0.719855 42.2848C0.393276 42.4728 0.384129 42.9408 0.703112 43.1414L7.62219 47.4929C7.93571 47.6901 8.33254 47.6979 8.65352 47.5131L51.1681 23.0361Z" fill="#0B5E49"/>
<path d="M8.32422 46.9905L50.7773 22.4602V17.5348L8.39683 42.0167L8.32422 46.9905Z" fill="#E5FAF5"/>
<path d="M50.7789 17.535L42.0051 13.9044L0.871094 37.6844L8.3984 42.0169L50.7789 17.535Z" fill="#0ABB92"/>
<path d="M8.3984 41.9685L0.871094 37.6845V42.4163L8.32579 46.9544L8.3984 41.9685Z" fill="#0B5E49"/>
<path d="M12.1407 39.8875L47.5384 19.4476C47.5384 19.0119 47.5142 18.5883 47.49 18.1648C47.49 18.0438 47.4779 17.9227 47.4658 17.8138C47.4416 17.475 47.4053 17.1482 47.369 16.8336C47.369 16.7489 47.3448 16.6642 47.3327 16.5794C47.2722 16.1922 47.2117 15.817 47.139 15.454C47.1148 15.3572 47.1027 15.2725 47.0785 15.1877C47.018 14.8973 46.9454 14.619 46.8607 14.3406C46.8365 14.2438 46.8123 14.147 46.776 14.0623C46.6671 13.7234 46.5582 13.3846 46.425 13.0699C46.4129 13.0336 46.4008 13.0094 46.3887 12.9731C46.2677 12.6827 46.1467 12.4043 46.0136 12.1381C45.9773 12.0655 45.941 11.9808 45.8926 11.9082C45.7594 11.6419 45.6142 11.3878 45.4569 11.1457C45.4448 11.1215 45.4206 11.0852 45.4085 11.061C45.227 10.7827 45.0454 10.5286 44.8518 10.2865C44.8155 10.2381 44.7792 10.1897 44.7429 10.1534C44.5735 9.94767 44.3919 9.74194 44.2104 9.56041C44.1741 9.5241 44.1378 9.4878 44.1015 9.45149C43.8837 9.23366 43.6416 9.02793 43.3996 8.8343C43.3996 8.8343 43.3754 8.8222 43.3633 8.8101C43.1334 8.62857 42.8913 8.45915 42.6493 8.30182C42.613 8.27762 42.5646 8.25342 42.5283 8.22921C41.9958 7.90247 41.4391 7.64833 40.8461 7.4426C40.8098 7.4426 40.7856 7.41839 40.7493 7.40629C40.4589 7.30948 40.1684 7.22477 39.8659 7.16426H39.8417C39.5149 7.09165 39.1761 7.04324 38.8372 7.00693C38.8372 7.00693 38.8251 7.00693 38.813 7.00693C38.4863 6.97063 38.1595 6.95853 37.8207 6.95853C37.7844 6.95853 37.7481 6.95853 37.7118 6.95853C37.4455 6.95853 37.1793 6.95853 36.9009 6.98273C36.8767 6.98273 36.8525 6.98273 36.8283 6.98273C36.2232 7.03114 35.606 7.12795 34.9646 7.27317C34.9162 7.27317 34.8557 7.29738 34.8073 7.30948C34.5532 7.36999 34.3111 7.4305 34.057 7.50311C33.9481 7.53941 33.8271 7.57572 33.7182 7.61202C33.5245 7.67253 33.3309 7.73304 33.1252 7.80565C32.9921 7.85406 32.8468 7.90247 32.7137 7.96298C32.5443 8.02348 32.3628 8.09609 32.1933 8.1687C32.036 8.22921 31.8787 8.30182 31.7214 8.37444C31.564 8.44705 31.3946 8.53176 31.2373 8.60437C31.0679 8.68908 30.9105 8.76169 30.7411 8.84641C30.5838 8.93112 30.4265 9.01583 30.2692 9.10054C30.1118 9.18526 29.9545 9.26997 29.7851 9.36678C20.0068 15.0062 12.1165 28.6933 12.1407 39.9238V39.8875Z" fill="#0ABB92"/>
<path d="M46.3861 18.7333C46.3498 7.50287 38.411 2.9647 28.6327 8.61623C18.8545 14.2557 10.9641 27.9428 10.9883 39.1732L46.3861 18.7333Z" fill="#E5FAF5"/>
<path d="M18.0357 24.5548L16.9707 23.986C18.8707 20.4039 21.291 17.1243 23.9897 14.474L24.8369 15.3333C22.2229 17.8988 19.8751 21.0816 18.0357 24.5427V24.5548Z" fill="#0ABB92"/>
<path d="M27.7163 12.8397L26.9902 11.8716C27.8253 11.2423 28.6845 10.6735 29.5316 10.1773C32.6902 8.36208 35.764 7.63598 38.2449 8.15635L37.9908 9.34233C35.8124 8.88246 33.0169 9.56016 30.1367 11.2181C29.3259 11.6901 28.503 12.2347 27.7163 12.8276V12.8397Z" fill="#0B5E49"/>
<path d="M44.4155 16.228C44.0766 13.7108 43.2295 11.6535 41.9225 10.2497L41.0391 11.0726C42.2613 12.3917 43.0238 14.4006 43.2779 16.8936L44.4276 16.228H44.4155Z" fill="#0B5E49"/>
<path d="M14.6948 33.3886C15.0942 31.6217 15.663 29.8186 16.4012 28.0275L15.2757 27.5676C14.3681 29.7944 13.7025 32.0211 13.291 34.1994L14.6948 33.3886Z" fill="#0ABB92"/>
<path d="M29.7461 29.6369C29.7461 29.6369 29.7461 29.7095 29.7582 29.7458C29.7582 29.7943 29.7703 29.8548 29.7824 29.9032C29.7824 29.9516 29.8066 30 29.8187 30.0484C29.8187 30.0847 29.8308 30.121 29.8429 30.1573C29.855 30.2057 29.8792 30.2541 29.9034 30.3025L29.9276 30.363C29.9276 30.363 29.976 30.472 30.0002 30.5204L30.0244 30.5567C30.0244 30.5567 30.0849 30.6535 30.1212 30.7019C30.1818 30.7624 30.2181 30.8108 30.2665 30.8592C30.3149 30.9076 30.3754 30.9439 30.4238 30.9923C30.7626 31.2344 31.1983 31.2949 31.6945 31.1739C31.8034 31.1497 31.9123 31.1133 32.0212 31.0649L32.0696 31.0407C32.1907 30.9923 32.2996 30.9439 32.4206 30.8713C33.897 30.0121 35.0951 27.9548 35.083 26.2484C35.083 24.5542 33.8728 23.8644 32.3964 24.7236C32.2996 24.7841 32.1907 24.8446 32.0938 24.9172C32.0696 24.9414 32.0333 24.9656 32.0091 24.9777C31.9365 25.0261 31.8639 25.0867 31.8034 25.1472C31.7671 25.1714 31.7429 25.1956 31.7066 25.2319C31.634 25.2924 31.5735 25.3529 31.5009 25.4134L31.4282 25.486C31.3556 25.5586 31.2709 25.6433 31.1983 25.7281C30.7989 26.1879 29.7461 27.5433 29.7461 29.6127V29.6369Z" fill="#0B5E49"/>
<path d="M31.8027 28.245C31.8027 27.7851 32.1295 27.2163 32.5288 26.9864C32.7104 26.8775 32.8677 26.8654 33.0008 26.9138H33.025C33.0371 26.9138 33.0613 26.9259 33.0734 26.938L34.1747 27.5915C34.0416 27.5189 33.86 27.531 33.6664 27.652C33.2671 27.8819 32.9403 28.4507 32.9403 28.9106C32.9403 29.1284 33.0129 29.2857 33.146 29.3704L32.0327 28.7048C32.0327 28.7048 32.0327 28.7048 32.0206 28.7048H32.0085C31.8874 28.6201 31.8148 28.4749 31.8148 28.2571L31.8027 28.245Z" fill="#0ABB92"/>
<path d="M32.9395 28.9226C32.9395 28.4627 33.2662 27.894 33.6656 27.664C33.8592 27.5551 34.0407 27.543 34.1738 27.6035C34.307 27.6761 34.4038 27.8456 34.4038 28.0755C34.4038 28.5354 34.077 29.1041 33.6777 29.3341C33.4719 29.4551 33.2783 29.4551 33.1452 29.3704C33.0242 29.2857 32.9395 29.1404 32.9395 28.9105V28.9226Z" fill="#E5FAF5"/>
<path d="M49.3771 18.3822C49.1713 12.8153 47.0777 8.57971 43.6408 6.41349C43.6408 6.41349 43.6287 6.41349 43.6166 6.40139L43.4472 6.30458C41.8135 5.32433 39.8772 4.79185 37.7231 4.79185C34.9033 4.79185 31.9263 5.69949 28.8404 7.46635C23.8302 10.3587 19.1468 15.2841 15.6494 21.335C12.152 27.3859 10.2399 33.8966 10.252 39.6571C10.252 40.0928 10.2883 40.5163 10.3125 40.9399L12.1399 39.887C12.1399 39.8144 12.1399 39.7297 12.1399 39.6571C12.1036 28.4266 20.006 14.7395 29.7843 9.10009C32.6524 7.44215 35.3632 6.66763 37.7594 6.67973C43.544 6.70394 47.5134 11.2784 47.5376 19.2172C47.5376 19.2898 47.5376 19.3745 47.5376 19.4592L49.3892 18.3943L49.3771 18.3822Z" fill="#E5FAF5"/>
<path d="M10.3233 40.9282C10.2991 40.5047 10.2628 40.0811 10.2628 39.6454C10.2507 33.885 12.1628 27.3742 15.6602 21.3233C19.1576 15.2725 23.841 10.347 28.8512 7.4547C31.9371 5.67574 34.9142 4.7802 37.7339 4.7802C39.9001 4.7802 41.8243 5.31268 43.458 6.29293L35.725 1.64584C35.6282 1.58533 35.5314 1.52482 35.4345 1.46432L35.3014 1.3796C33.7161 0.484071 31.8645 0 29.8072 0C26.9875 0 24.0105 0.907634 20.9245 2.67449C15.9144 5.56682 11.231 10.4922 7.73356 16.5431C4.23614 22.6182 2.31196 29.1169 2.33616 34.8773C2.33616 35.5308 2.37247 36.1722 2.43298 36.7894C2.65081 36.8983 10.045 41.0977 10.045 41.0977L10.3354 40.9282H10.3233Z" fill="#0B5E49"/>
<path d="M35.7251 1.64584C35.6283 1.58533 35.5315 1.52482 35.4347 1.46432L35.3015 1.3796C33.7162 0.484071 31.8646 0 29.8073 0C26.9876 0 24.0106 0.907634 20.9246 2.67449C17.0762 4.90122 13.4215 8.32603 10.3477 12.5374C10.7712 16.4342 12.4171 19.9679 14.8979 22.7393C15.1521 22.2552 15.3941 21.7832 15.6724 21.2991C19.1699 15.2482 23.8532 10.3228 28.8634 7.4305C31.9493 5.65153 34.9264 4.756 37.7461 4.756C39.9123 4.756 41.8365 5.28848 43.4702 6.26872L35.7372 1.62164L35.7251 1.64584Z" fill="#0ABB92"/>
<path d="M32.4082 26.6118L40.7826 12.1138L34.405 26.0793" fill="#0B5E49"/>
</svg>
