<svg width="24" height="24" viewBox="0 0 24 24" fill="none" xmlns="http://www.w3.org/2000/svg">
<path d="M7.4375 8.8125H5.9375V6.9375H5.1875V8.8125H3.6875C3.58804 8.8125 3.49266 8.85201 3.42233 8.92233C3.35201 8.99266 3.3125 9.08804 3.3125 9.1875V19.6875C3.3125 19.787 3.35201 19.8823 3.42233 19.9527C3.49266 20.023 3.58804 20.0625 3.6875 20.0625H5.1875V21.9375H5.9375V20.0625H7.4375C7.53696 20.0625 7.63234 20.023 7.70267 19.9527C7.77299 19.8823 7.8125 19.787 7.8125 19.6875V9.1875C7.8125 9.08804 7.77299 8.99266 7.70267 8.92233C7.63234 8.85201 7.53696 8.8125 7.4375 8.8125Z" fill="#44475B"/>
<path d="M13.875 3.9375H12.375V2.0625H11.625V3.9375H10.125C10.0255 3.9375 9.93016 3.97701 9.85983 4.04734C9.78951 4.11766 9.75 4.21304 9.75 4.3125V14.8125C9.75 14.912 9.78951 15.0073 9.85983 15.0777C9.93016 15.148 10.0255 15.1875 10.125 15.1875H11.625V17.0625H12.375V15.1875H13.875C13.9745 15.1875 14.0698 15.148 14.1402 15.0777C14.2105 15.0073 14.25 14.912 14.25 14.8125V4.3125C14.25 4.21304 14.2105 4.11766 14.1402 4.04734C14.0698 3.97701 13.9745 3.9375 13.875 3.9375Z" fill="#44475B"/>
<path d="M20.3125 8.0625H18.8125V6.1875H18.0625V8.0625H16.5625C16.463 8.0625 16.3677 8.10201 16.2973 8.17233C16.227 8.24266 16.1875 8.33804 16.1875 8.4375V18.9375C16.1875 19.037 16.227 19.1323 16.2973 19.2027C16.3677 19.273 16.463 19.3125 16.5625 19.3125H18.0625V21.1875H18.8125V19.3125H20.3125C20.412 19.3125 20.5073 19.273 20.5777 19.2027C20.648 19.1323 20.6875 19.037 20.6875 18.9375V8.4375C20.6875 8.33804 20.648 8.24266 20.5777 8.17233C20.5073 8.10201 20.412 8.0625 20.3125 8.0625Z" fill="#44475B"/>
</svg>
