<svg width="26" height="37" viewBox="0 0 26 37" fill="none" xmlns="http://www.w3.org/2000/svg">
<path d="M1.25259 31.2406H4.66332V36.1392C4.66332 36.4153 4.88718 36.6392 5.16332 36.6392H5.86869C6.14483 36.6392 6.36869 36.4153 6.36869 36.1392V31.2406H9.77942C10.0056 31.2406 10.2224 31.1508 10.3824 30.9909C10.5423 30.831 10.6321 30.6141 10.6321 30.388V12.1849C10.6321 11.9588 10.5423 11.7419 10.3824 11.582C10.2224 11.422 10.0056 11.3322 9.77942 11.3322H6.36869V3.03186C6.36869 2.75572 6.14483 2.53186 5.86869 2.53186H5.16332C4.88718 2.53186 4.66332 2.75572 4.66332 3.03186V11.3322H1.25259C1.02644 11.3322 0.809556 11.422 0.649647 11.582C0.489738 11.7419 0.399902 11.9588 0.399902 12.1849V30.388C0.399902 30.6141 0.489738 30.831 0.649647 30.9909C0.809556 31.1508 1.02644 31.2406 1.25259 31.2406Z" fill="#00D09C"/>
<path d="M16.1 26.1738H19.5107V31.7073V34.4742C19.5107 34.7503 19.7346 34.9742 20.0107 34.9742H20.7161C20.9922 34.9742 21.2161 34.7503 21.2161 34.4742V26.1738H24.6268C24.853 26.1738 25.0699 26.084 25.2298 25.9241C25.3897 25.7641 25.4795 25.5473 25.4795 25.3211V5.98292C25.4795 5.75677 25.3897 5.53989 25.2298 5.37998C25.0699 5.22007 24.853 5.13024 24.6268 5.13024H21.2161V1.36682C21.2161 1.09068 20.9922 0.866821 20.7161 0.866821H20.0107C19.7346 0.866821 19.5107 1.09068 19.5107 1.36682V5.13024H16.1C15.8739 5.13024 15.657 5.22007 15.4971 5.37998C15.3371 5.53989 15.2473 5.75677 15.2473 5.98292V25.3211C15.2473 25.5473 15.3371 25.7641 15.4971 25.9241C15.657 26.084 15.8739 26.1738 16.1 26.1738Z" fill="#00D09C"/>
</svg>
