<svg width="47" height="29" viewBox="0 0 47 29" fill="none" xmlns="http://www.w3.org/2000/svg">
<path d="M1.00024 10.0002L6.23271 15.2257L13.215 6.09198L21.053 17.5511L28.842 1.00024L34.0002 10.0002" stroke="#00D09C" stroke-width="1.4" stroke-linecap="round" stroke-linejoin="round"/>
<path d="M38 14H36V18H32V20H36V24H38V20H42V18H38V14ZM37 9C31.48 9 27 13.48 27 19C27 24.52 31.48 29 37 29C42.52 29 47 24.52 47 19C47 13.48 42.52 9 37 9ZM37 27C32.59 27 29 23.41 29 19C29 14.59 32.59 11 37 11C41.41 11 45 14.59 45 19C45 23.41 41.41 27 37 27Z" fill="#00D09C"/>
</svg>
