<svg width="28" height="28" viewBox="0 0 28 28" fill="none" xmlns="http://www.w3.org/2000/svg">
<path d="M8.67773 10.2812H6.92773V8.09375H6.05273V10.2812H4.30273C4.1867 10.2812 4.07542 10.3273 3.99337 10.4094C3.91133 10.4914 3.86523 10.6027 3.86523 10.7188V22.9688C3.86523 23.0848 3.91133 23.1961 3.99337 23.2781C4.07542 23.3602 4.1867 23.4062 4.30273 23.4062H6.05273V25.5938H6.92773V23.4062H8.67773C8.79377 23.4062 8.90505 23.3602 8.98709 23.2781C9.06914 23.1961 9.11523 23.0848 9.11523 22.9688V10.7188C9.11523 10.6027 9.06914 10.4914 8.98709 10.4094C8.90505 10.3273 8.79377 10.2812 8.67773 10.2812Z" fill="#EBEBF5"/>
<path d="M16.1875 4.59375H14.4375V2.40625H13.5625V4.59375H11.8125C11.6965 4.59375 11.5852 4.63984 11.5031 4.72189C11.4211 4.80394 11.375 4.91522 11.375 5.03125V17.2812C11.375 17.3973 11.4211 17.5086 11.5031 17.5906C11.5852 17.6727 11.6965 17.7188 11.8125 17.7188H13.5625V19.9062H14.4375V17.7188H16.1875C16.3035 17.7188 16.4148 17.6727 16.4969 17.5906C16.5789 17.5086 16.625 17.3973 16.625 17.2812V5.03125C16.625 4.91522 16.5789 4.80394 16.4969 4.72189C16.4148 4.63984 16.3035 4.59375 16.1875 4.59375Z" fill="#EBEBF5"/>
<path d="M23.6973 9.40625H21.9473V7.21875H21.0723V9.40625H19.3223C19.2062 9.40625 19.095 9.45234 19.0129 9.53439C18.9309 9.61644 18.8848 9.72772 18.8848 9.84375V22.0938C18.8848 22.2098 18.9309 22.3211 19.0129 22.4031C19.095 22.4852 19.2062 22.5312 19.3223 22.5312H21.0723V24.7188H21.9473V22.5312H23.6973C23.8133 22.5312 23.9246 22.4852 24.0066 22.4031C24.0887 22.3211 24.1348 22.2098 24.1348 22.0938V9.84375C24.1348 9.72772 24.0887 9.61644 24.0066 9.53439C23.9246 9.45234 23.8133 9.40625 23.6973 9.40625Z" fill="#EBEBF5"/>
</svg>
