<svg width="36" height="35" viewBox="0 0 36 35" fill="none" xmlns="http://www.w3.org/2000/svg">
<ellipse cx="15.121" cy="14.617" rx="13.3126" ry="12.8112" fill="white"/>
<path fill-rule="evenodd" clip-rule="evenodd" d="M26.5125 24.306L34.8463 32.3776C35.2417 32.7606 35.2417 33.3939 34.8463 33.7769C34.6486 33.9757 34.3825 34.0715 34.124 34.0715C33.8654 34.0715 33.5993 33.9684 33.4016 33.7769L25.0678 25.7053C22.4977 27.8705 19.1444 29.1814 15.4794 29.1814C7.41929 29.1814 0.857178 22.8257 0.857178 15.0193C0.857178 7.21282 7.41169 0.857178 15.4794 0.857178C23.5394 0.857178 30.1015 7.20545 30.1015 15.0193C30.1015 18.569 28.7481 21.8168 26.5125 24.306ZM15.4713 2.84606C8.54422 2.84606 2.90217 8.30322 2.90217 15.0197C2.90217 21.7362 8.54422 27.2007 15.4713 27.2007C22.406 27.2007 28.0405 21.7289 28.0405 15.0197C28.0405 8.31058 22.406 2.84606 15.4713 2.84606Z" fill="#00D09C"/>
<path d="M16.7322 17.9427L14.0101 15.1405L7.46297 21.7347L6.56274 20.8575L14.0196 13.3468L16.7682 16.1759L21.4966 11.6889L20.1418 10.3469H23.679V13.8511L22.3892 12.5735L16.7322 17.9427Z" fill="#00D09C"/>
</svg>
