<svg width="28" height="28" viewBox="0 0 28 28" fill="none" xmlns="http://www.w3.org/2000/svg">
<path d="M8.67725 10.2812H6.92725V8.09375H6.05225V10.2812H4.30225C4.18621 10.2812 4.07493 10.3273 3.99289 10.4094C3.91084 10.4914 3.86475 10.6027 3.86475 10.7188V22.9688C3.86475 23.0848 3.91084 23.1961 3.99289 23.2781C4.07493 23.3602 4.18621 23.4062 4.30225 23.4062H6.05225V25.5938H6.92725V23.4062H8.67725C8.79328 23.4062 8.90456 23.3602 8.98661 23.2781C9.06865 23.1961 9.11475 23.0848 9.11475 22.9688V10.7188C9.11475 10.6027 9.06865 10.4914 8.98661 10.4094C8.90456 10.3273 8.79328 10.2812 8.67725 10.2812Z" fill="#44475B"/>
<path d="M16.1875 4.59375H14.4375V2.40625H13.5625V4.59375H11.8125C11.6965 4.59375 11.5852 4.63984 11.5031 4.72189C11.4211 4.80394 11.375 4.91522 11.375 5.03125V17.2812C11.375 17.3973 11.4211 17.5086 11.5031 17.5906C11.5852 17.6727 11.6965 17.7188 11.8125 17.7188H13.5625V19.9062H14.4375V17.7188H16.1875C16.3035 17.7188 16.4148 17.6727 16.4969 17.5906C16.5789 17.5086 16.625 17.3973 16.625 17.2812V5.03125C16.625 4.91522 16.5789 4.80394 16.4969 4.72189C16.4148 4.63984 16.3035 4.59375 16.1875 4.59375Z" fill="#44475B"/>
<path d="M23.6978 9.40625H21.9478V7.21875H21.0728V9.40625H19.3228C19.2067 9.40625 19.0954 9.45234 19.0134 9.53439C18.9313 9.61644 18.8853 9.72772 18.8853 9.84375V22.0938C18.8853 22.2098 18.9313 22.3211 19.0134 22.4031C19.0954 22.4852 19.2067 22.5312 19.3228 22.5312H21.0728V24.7188H21.9478V22.5312H23.6978C23.8138 22.5312 23.9251 22.4852 24.0071 22.4031C24.0892 22.3211 24.1353 22.2098 24.1353 22.0938V9.84375C24.1353 9.72772 24.0892 9.61644 24.0071 9.53439C23.9251 9.45234 23.8138 9.40625 23.6978 9.40625Z" fill="#44475B"/>
</svg>
