<svg width="28" height="28" viewBox="0 0 28 28" fill="none" xmlns="http://www.w3.org/2000/svg">
  <path
    d="M12.6667 10.2133V0.666626C6 1.33329 0.666668 7.05329 0.666668 14C0.666668 20.9466 6 26.6666 12.6667 27.3333V17.7866C11.3333 17.24 10 15.76 10 14C10 12.24 11.3333 10.76 12.6667 10.2133ZM17.8133 12.6666H27.3333C26.6933 6.33329 22 1.29329 15.3333 0.666626V10.2133C16.6667 10.6133 17.36 11.52 17.8133 12.6666ZM15.3333 17.7866V27.3333C22 26.7066 26.6933 21.6666 27.3333 15.3333H17.8133C17.36 16.48 16.6667 17.3866 15.3333 17.7866Z"
    fill="#00D09C" />
</svg>
