<svg width="44" height="44" viewBox="0 0 44 44" fill="none" xmlns="http://www.w3.org/2000/svg">
<path d="M22.411 17.7861L7 26.8106L17.0025 32.6438L32.396 23.5258L22.411 17.7861Z" fill="white"/>
<path d="M32.3959 23.5193L16.9985 32.6373V39.9999L32.3959 30.8468V23.5193Z" fill="#B0D1FA"/>
<path d="M7.00309 26.8101V34.1551L16.9978 40V32.6394L7.00309 26.8101Z" fill="#5766F2"/>
<path d="M16.0278 19.821V32.1537L17.002 32.7246V20.388L16.0278 19.821Z" fill="#5766F2"/>
<path d="M17.8938 19.8716L17.0015 20.3859V32.7225L17.8938 32.2062V19.8716Z" fill="#B0D1FA"/>
<path d="M17.8924 19.8721L17.0001 20.3865L16.0279 19.8215L16.9202 19.3071L17.8924 19.8721Z" fill="white"/>
<path d="M30.5281 11.1343V23.4689L31.5003 24.0378V11.7012L30.5281 11.1343Z" fill="#5766F2"/>
<path d="M32.3938 11.1846L31.5015 11.7009V24.0375L32.3938 23.5212V11.1846Z" fill="#B0D1FA"/>
<path d="M32.3927 11.1866L31.5004 11.7009L30.5282 11.1359L31.4205 10.6196L32.3927 11.1866Z" fill="white"/>
<path d="M7 17.376V26.833L7.9722 27.4019V17.9429L7 17.376Z" fill="#5766F2"/>
<path d="M8.86483 17.4272L7.97056 17.9416V27.4025L8.86483 26.8843V17.4272Z" fill="#B0D1FA"/>
<path d="M8.86452 17.4273L7.9722 17.9436L7 17.3767L7.89232 16.8623L8.86452 17.4273Z" fill="white"/>
<path d="M22.3935 6.07227L7 15.2L17.0025 21.0332L32.396 11.9055L22.3935 6.07227Z" fill="white"/>
<path d="M32.3959 11.9099L16.9985 21.0299V23.4146L32.3959 14.2634V11.9099Z" fill="#B0D1FA"/>
<path d="M7.00309 15.2021V17.5713L16.9978 23.4162V21.0295L7.00309 15.2021Z" fill="#5766F2"/>
<path d="M32.0818 5.94968C32.0818 5.94968 30.7667 5.11971 30.7336 5.08659C30.492 4.89176 30.0556 5.08659 30.0556 5.08659L16.437 13.1817L17.6703 14.1208L31.4545 5.9302L32.0818 5.94968Z" fill="white"/>
<path d="M17.0114 21.0471L32.4029 11.8999V6.50116C32.404 6.38682 32.3746 6.27426 32.3177 6.17507C32.2608 6.07589 32.1785 5.99367 32.0793 5.9369C31.98 5.88013 31.8674 5.85085 31.7531 5.85209C31.6387 5.85333 31.5268 5.88504 31.4288 5.94394L17.8239 14.0352C17.5769 14.1778 17.3718 14.3828 17.2292 14.6297C17.0866 14.8766 17.0115 15.1567 17.0114 15.4419V21.0471Z" fill="#B0D1FA"/>
<path d="M16.4397 13.1917C15.676 13.556 15.5844 14.4561 15.5844 14.4561V20.2172L17.0106 21.0491V15.4712C17.0066 15.2107 17.0648 14.9531 17.1804 14.7196C17.2959 14.4862 17.4655 14.2836 17.6749 14.1288" fill="#5766F2"/>
<path d="M22.9325 25.2572L24.8535 24.1038L20.7991 18.7031L18.8683 19.8409L22.9325 25.2572Z" fill="white"/>
<path d="M16.9239 20.9026L21.0094 26.4124L16.9843 23.6692L16.9239 20.9026Z" fill="#5766F2"/>
<path d="M26.7829 22.9465L28.7039 21.7931L24.669 16.4236L22.7382 17.5614L26.7829 22.9465Z" fill="white"/>
<path d="M30.6313 20.6358L32.5524 19.4843L28.5389 14.144L26.6081 15.2818L30.6313 20.6358Z" fill="white"/>
<path d="M34.4789 18.3273L36.3902 17.1797L32.3962 11.8706L30.4752 13.0026L34.4789 18.3273Z" fill="white"/>
<path d="M18.8639 19.843L16.9331 20.9808L21.009 26.4127L22.928 25.2593L18.8639 19.843Z" fill="#B0D1FA"/>
<path d="M24.8577 24.1024L26.7787 22.949L22.734 17.564L20.8033 18.7018L24.8577 24.1024Z" fill="#B0D1FA"/>
<path d="M28.7081 21.791L30.6272 20.6376L26.6039 15.2837L24.6732 16.4215L28.7081 21.791Z" fill="#B0D1FA"/>
<path d="M28.5431 14.142L32.5566 19.4803L34.4776 18.3288L30.4738 13.0042L28.5431 14.142Z" fill="#B0D1FA"/>
</svg>
