<svg width="64" height="64" viewBox="0 0 64 64" fill="none" xmlns="http://www.w3.org/2000/svg">
<g clip-path="url(#clip0_5025_36150)">
<path d="M32.1846 52.8299L15 42.8208V48.9908L32.1846 59.0457" fill="#5766F2"/>
<path d="M20.9883 19.2651L32.4599 25.9379L42.8713 19.9232L31.3722 13.2505L20.9883 19.2651Z" fill="white"/>
<path d="M32.4766 51.4772L42.897 45.4717V19.9324L32.4766 25.9379V51.4772Z" fill="#B0D1FA"/>
<path d="M32.4782 25.9378L20.9883 19.2559V44.7952L32.4782 51.4771" fill="#5766F2"/>
<path d="M34.7891 48.3601L35.5843 47.9122V26.0383L34.7891 26.4862V48.3601Z" fill="#5766F2"/>
<path d="M37.6875 46.6509L38.4827 46.203V24.3291L37.6875 24.777V46.6509Z" fill="#5766F2"/>
<path d="M40.4688 45.1336L41.2457 44.6857V22.8484L40.4688 23.2963V45.1336Z" fill="#5766F2"/>
<path d="M43.4375 46.3401V52.5102L49.3516 49.0092V42.8301" fill="#B0D1FA"/>
<path d="M36.0312 46.7879V52.967L40.1446 50.5904V44.4204" fill="#B0D1FA"/>
<path d="M39.6699 48.5063L32.1836 52.8299V58.9999L39.6699 54.6855V48.5063Z" fill="#B0D1FA"/>
<path d="M43.4289 46.3402L49.3612 42.8301L42.8987 39.0732V42.6747L40.0742 44.3932L43.4289 46.3402Z" fill="white"/>
<path d="M36.3163 46.5596L32.6782 48.662L20.9781 41.843V39.375L15 42.8211L32.1846 52.8302L39.6618 48.5158L36.3163 46.5596Z" fill="white"/>
<path d="M43.438 52.5101L40.0834 50.5631L40.0742 44.3931L43.4289 46.3401L43.438 52.5101Z" fill="#5766F2"/>
<path d="M23.9688 16.9889L32.3143 21.8609L39.9011 17.4917L31.519 12.6196L23.9688 16.9889Z" fill="white"/>
<path d="M32.3672 24.0547L39.9449 19.6763V17.4734L32.3672 21.8427V24.0547Z" fill="#B0D1FA"/>
<path d="M32.3678 21.8428L23.9766 16.989V19.1828L32.3678 24.0548" fill="#5766F2"/>
<path d="M28.457 15.0879L32.2322 17.2908L35.66 15.3164L31.8757 13.1409L28.457 15.0879Z" fill="white"/>
<path d="M32.2422 19.1098L35.67 17.1263V15.2981L32.2422 17.2725V19.1098Z" fill="#B0D1FA"/>
<path d="M32.24 17.2817L28.4648 15.0879V16.916L32.24 19.119" fill="#5766F2"/>
<path d="M28.457 12.9854L32.2322 15.1883L35.66 13.2139L31.8757 11.011L28.457 12.9854Z" fill="white"/>
<path d="M32.2422 16.9981L35.67 15.0237V13.1956L32.2422 15.17V16.9981Z" fill="#B0D1FA"/>
<path d="M32.24 15.1791L28.4648 12.9854V14.8135L32.24 17.0073" fill="#5766F2"/>
<path d="M28.457 10.8738L32.2322 13.0767L35.66 11.1023L31.8757 8.89941L28.457 10.8738Z" fill="white"/>
<path d="M32.2422 14.8958L35.67 12.9214V11.0933L32.2422 13.0768V14.8958Z" fill="#B0D1FA"/>
<path d="M32.24 13.0767L28.4648 10.8738V12.7019L32.24 14.9049" fill="#5766F2"/>
<path d="M32.2045 11.596L32.1496 4L31.2812 11.075L32.2045 11.596Z" fill="#5766F2"/>
<path d="M32.2033 11.596L32.1484 4L33.1996 11.1298L32.2033 11.596Z" fill="#B0D1FA"/>
<path d="M19.6523 41.7697L20.9869 40.9379V39.1829L19.6523 39.9507V41.7697Z" fill="#B0D1FA"/>
<path d="M19.7697 40.033L20.9855 39.3291V37.501L16.5156 40.0878L32.5028 49.4114L34.0659 48.3968L19.7697 40.033Z" fill="white"/>
<path d="M16.5248 40.0876L16.5156 41.9341L32.1006 51.0474L32.1098 49.201L16.5248 40.0876Z" fill="#5766F2"/>
<path d="M38.0819 45.7368L36.336 44.7039L30.3945 48.1682L32.0856 49.1554L38.0819 45.7368Z" fill="white"/>
<path d="M42.8804 37.1536L42.8987 39.0823L44.4983 40.0146L40.0742 42.574L41.8292 43.5887L47.8713 40.0969L42.8804 37.1536Z" fill="white"/>
<path d="M41.8292 45.4169L40.0742 44.4022L40.0834 42.5649L41.8292 43.5887V45.4169Z" fill="#5766F2"/>
<path d="M42.8984 40.947L44.4981 40.0238L42.8984 39.0823V40.947Z" fill="#5766F2"/>
<path d="M32.1133 51.0202L38.0913 47.5833V45.7551L32.1224 49.1921L32.1133 51.0202Z" fill="#B0D1FA"/>
<path d="M47.8976 40.0786L41.8281 43.5887V45.4077L47.8976 41.9068V40.0786Z" fill="#B0D1FA"/>
</g>
<defs>
<clipPath id="clip0_5025_36150">
<rect width="34.3601" height="55" fill="white" transform="translate(15 4)"/>
</clipPath>
</defs>
</svg>
