<svg width="44" height="44" viewBox="0 0 44 44" fill="none" xmlns="http://www.w3.org/2000/svg">
<path d="M31.9426 26.7481L31.92 6.59497C31.9122 6.64138 31.8936 6.68528 31.8658 6.72313C31.838 6.76097 31.8017 6.79168 31.7598 6.81277V6.86201L16.7975 15.6554C15.7426 16.1081 16.0101 17.2918 16.7975 17.7615H16.8088C17.2877 18.0471 17.8336 18.1995 18.3904 18.2028C18.9473 18.2061 19.495 18.0603 19.9772 17.7804L31.7975 10.8998L31.9426 26.7481Z" fill="#5762FC"/>
<path d="M34.5227 7.95139C34.4037 7.88205 34.2685 7.84554 34.1309 7.84554C33.9933 7.84554 33.8582 7.88205 33.7391 7.95139L18.9369 16.5744C18.575 16.7854 18.1636 16.8953 17.7453 16.8926C17.327 16.89 16.9169 16.7749 16.5578 16.5592C16.4926 16.5201 16.4387 16.4646 16.4012 16.3982C16.3637 16.3318 16.344 16.2568 16.344 16.1804C16.344 16.1041 16.3637 16.0291 16.4012 15.9627C16.4387 15.8963 16.4926 15.8408 16.5578 15.8016L31.7706 6.86049C31.8144 6.8348 31.8507 6.79803 31.876 6.75383C31.9012 6.70964 31.9145 6.65957 31.9145 6.6086C31.9145 6.55764 31.9012 6.50757 31.876 6.46337C31.8507 6.41918 31.8144 6.3824 31.7706 6.35671C31.6672 6.29579 31.5496 6.26367 31.4297 6.26367C31.3098 6.26367 31.1921 6.29579 31.0887 6.35671L16.1716 15.135C15.9932 15.241 15.8452 15.3919 15.7425 15.573C15.6398 15.754 15.5857 15.9588 15.5857 16.1672C15.5857 16.3756 15.6398 16.5804 15.7425 16.7614C15.8452 16.9424 15.9932 17.0934 16.1716 17.1994H16.1829C16.6571 17.4828 17.198 17.6339 17.7497 17.6369C18.3014 17.6399 18.8439 17.4947 19.3212 17.2164L34.5303 8.36615C34.5674 8.34427 34.5982 8.313 34.6196 8.27546C34.641 8.23792 34.6522 8.19541 34.6522 8.15214C34.6522 8.10888 34.641 8.06636 34.6196 8.02882C34.5982 7.99128 34.5674 7.96002 34.5303 7.93813L34.5227 7.95139Z" fill="white"/>
<path d="M34.5208 8.3793C34.5587 8.35801 34.5901 8.32695 34.612 8.28932C34.6339 8.25169 34.6453 8.20886 34.6452 8.16528L34.6753 28.3203C34.6756 28.4469 34.6427 28.5714 34.5798 28.6811C34.517 28.7909 34.4265 28.882 34.3174 28.9453L19.3136 37.6952C18.6635 38.0671 17.9026 38.1934 17.1681 38.0512C16.8171 37.9842 16.4805 37.856 16.1735 37.6724C16.0134 37.5782 15.8777 37.4472 15.7776 37.2902C15.6774 37.1332 15.6155 36.9546 15.5971 36.769C15.5905 36.7131 15.5867 36.6568 15.5858 36.6005V16.1671C15.5841 16.3756 15.637 16.5809 15.7392 16.7624C15.8413 16.9439 15.9891 17.0952 16.1678 17.2011H16.1791C16.6535 17.4842 17.1943 17.635 17.746 17.638C18.2976 17.641 18.84 17.4961 19.3174 17.2182L34.5208 8.3793Z" fill="#A9D2FF"/>
<path d="M35.2479 21.9326V16.7205C35.2545 16.6625 35.2386 16.6042 35.2035 16.5576C35.1684 16.5111 35.1169 16.4799 35.0596 16.4705L34.6696 16.4175L32.2961 17.8038C30.8061 18.675 29.8906 19.961 29.8906 22.0083V22.0197C29.8911 22.2941 29.9637 22.5634 30.1009 22.8006C30.2382 23.0378 30.4352 23.2343 30.6722 23.3704C30.9092 23.5064 31.1777 23.5771 31.4506 23.5754C31.7235 23.5737 31.9912 23.4996 32.2264 23.3606L35.2479 21.9326Z" fill="white"/>
<path d="M35.25 21.9054V16.7009L32.8783 18.002C31.3883 18.8732 30.471 20.1744 30.471 22.2084C30.4714 22.4832 30.5437 22.753 30.6808 22.9908C30.8179 23.2285 31.0148 23.4257 31.2518 23.5626C31.4888 23.6995 31.7574 23.7712 32.0307 23.7706C32.304 23.7699 32.5723 23.6968 32.8086 23.5588L35.054 22.2463C35.1134 22.2116 35.1628 22.1619 35.1971 22.1021C35.2315 22.0423 35.2497 21.9745 35.25 21.9054Z" fill="#A9D2FF"/>
<path d="M33.5574 21.5802C33.8995 20.8311 33.7368 20.0208 33.1941 19.7703C32.6514 19.5198 31.9342 19.9239 31.5922 20.673C31.2501 21.4221 31.4128 22.2324 31.9555 22.4829C32.4982 22.7334 33.2154 22.3292 33.5574 21.5802Z" fill="white"/>
<path d="M32.3242 5.93625C32.3243 5.77159 32.2812 5.60982 32.1992 5.46727C32.1172 5.32473 31.9993 5.20646 31.8573 5.12442C31.7153 5.04237 31.5543 4.99946 31.3905 5.00001C31.2268 5.00055 31.066 5.04455 30.9246 5.12754L18.0023 12.6824V16.8755C18.2121 16.8531 18.4179 16.8028 18.6145 16.7259C18.6654 16.705 18.7163 16.6861 18.7652 16.6615C18.8142 16.6369 18.882 16.6065 18.9385 16.5744L31.6687 9.15779L32.3242 8.77901V5.93625Z" fill="white"/>
<path d="M19.2735 13.8171L18.0001 14.6183V15.3815L19.2735 14.5766V13.8171Z" fill="#5762FC"/>
<path d="M19.0589 16.2415C18.8178 16.0748 18.4806 16.1297 18.0474 16.4062L18.0003 16.4403V16.8759C18.21 16.8535 18.4159 16.8032 18.6125 16.7263C18.6633 16.7055 18.7142 16.6865 18.7632 16.6619C18.8121 16.6373 18.8799 16.607 18.9365 16.5748L19.2209 16.4081C19.1778 16.3428 19.1229 16.2863 19.0589 16.2415Z" fill="#5762FC"/>
<path d="M22.9944 14.2126V13.5781C22.9944 12.8603 22.8626 12.3982 22.6177 12.1899C22.3728 11.9815 22.0017 12.0345 21.5025 12.347C21.0084 12.6481 20.6149 13.0906 20.3723 13.6179C20.1088 14.2254 19.9803 14.8833 19.9956 15.5459V15.9493L20.749 15.508V14.847C20.7424 14.4598 20.8062 14.0747 20.9374 13.7107C21.0437 13.4337 21.2359 13.1986 21.4856 13.0402C21.7399 12.8792 21.9264 12.8754 22.0507 13.0289C22.175 13.1823 22.2259 13.5023 22.2259 13.9891V14.6519L22.9944 14.2126Z" fill="#5762FC"/>
<path d="M26.6429 12.0918V11.2509C26.6429 10.5445 26.511 10.0918 26.2661 9.89106C26.0213 9.6903 25.6502 9.74523 25.151 10.0577C24.6599 10.3574 24.2669 10.7953 24.0208 11.3172C23.7589 11.9132 23.6303 12.5597 23.644 13.2111V13.8285L24.3975 13.3872V12.5217C24.3921 12.142 24.456 11.7646 24.5859 11.4081C24.6933 11.1333 24.8854 10.9004 25.134 10.7433C25.3883 10.5823 25.5748 10.5767 25.6991 10.7263C25.8235 10.8759 25.8743 11.1884 25.8743 11.6732V12.5406L26.6429 12.0918Z" fill="#5762FC"/>
<path d="M30.923 5.12754L29.8248 5.76958C30.1067 6.38328 30.6186 6.85989 31.2489 7.09532C31.5936 7.21443 31.9614 7.25075 32.3226 7.20138V5.93625C32.3227 5.77159 32.2796 5.60982 32.1976 5.46727C32.1156 5.32473 31.9977 5.20646 31.8557 5.12442C31.7137 5.04237 31.5527 4.99946 31.3889 5.00001C31.2252 5.00055 31.0644 5.04455 30.923 5.12754Z" fill="#A9D2FF"/>
<path d="M9 30.8921C9 34.3878 13.787 37.2177 19.6899 37.2177C25.5927 37.2177 30.3798 34.3878 30.3798 30.8921V33.6749C30.3798 37.1706 25.5927 40.0005 19.6899 40.0005C13.787 40.0005 9 37.1706 9 33.6749V30.8921Z" fill="#5762FC"/>
<path d="M19.6899 37.2176C25.5937 37.2176 30.3798 34.3856 30.3798 30.892C30.3798 27.3985 25.5937 24.5664 19.6899 24.5664C13.786 24.5664 9 27.3985 9 30.892C9 34.3856 13.786 37.2176 19.6899 37.2176Z" fill="#A9D2FF"/>
<path d="M19.6907 35.4881C23.9784 35.4881 27.4543 33.4304 27.4543 30.8922C27.4543 28.354 23.9784 26.2964 19.6907 26.2964C15.4029 26.2964 11.927 28.354 11.927 30.8922C11.927 33.4304 15.4029 35.4881 19.6907 35.4881Z" fill="white"/>
<path d="M19.8917 29.0178L19.8701 31.019H14.59" stroke="#5762FC" stroke-width="1.19318" stroke-linecap="round" stroke-linejoin="round"/>
</svg>
