<svg width="44" height="44" viewBox="0 0 44 44" fill="none" xmlns="http://www.w3.org/2000/svg">
<g clip-path="url(#clip0_465_21338)">
<path d="M29.8776 15.2058C29.8776 16.8462 32.1399 18.1772 34.928 18.1772C37.7161 18.1772 39.9784 16.8462 39.9784 15.2058V17.363C39.9784 19.0034 37.7161 20.3344 34.928 20.3344C32.1399 20.3344 29.8776 19.0034 29.8776 17.363V15.2058Z" fill="#A9D2FF"/>
<path d="M34.9336 20.0763C32.1455 20.0763 29.8831 18.7454 29.8831 17.102V17.3633C29.8831 19.0037 32.1455 20.3347 34.9336 20.3347C37.7216 20.3347 39.984 19.0037 39.984 17.3633V17.0959C39.978 18.7454 37.7156 20.0763 34.9336 20.0763Z" fill="#A9D2FF"/>
<path d="M35.5139 20.5483C36.3475 20.498 37.1664 20.306 37.9354 19.9805V17.8203C37.1672 18.1484 36.3479 18.3406 35.5139 18.3882V20.5483Z" fill="white"/>
<path d="M29.8776 17.3574C29.8776 19.0008 32.1399 20.3318 34.928 20.3318C37.7161 20.3318 39.9784 19.0008 39.9784 17.3574V19.5176C39.9784 21.158 37.7161 22.4889 34.928 22.4889C32.1399 22.4889 29.8776 21.158 29.8776 19.5176V17.3574Z" fill="#A9D2FF"/>
<path d="M34.9334 22.2282C32.1453 22.2282 29.883 20.8972 29.883 19.2568V19.5183C29.883 21.1587 32.1453 22.4896 34.9334 22.4896C37.7215 22.4896 39.9838 21.1587 39.9838 19.5183V19.2568C39.9778 20.8972 37.7155 22.2282 34.9334 22.2282Z" fill="#A9D2FF"/>
<path d="M35.5138 22.4679C36.3482 22.4189 37.1681 22.2279 37.9383 21.9031V19.7429C37.1701 20.071 36.3508 20.2631 35.5168 20.3107L35.5138 22.4679Z" fill="white"/>
<path d="M29.8776 19.5176C29.8776 21.158 32.1399 22.4889 34.928 22.4889C37.7161 22.4889 39.9784 21.158 39.9784 19.5176V21.6747C39.9784 23.3151 37.7161 24.6461 34.928 24.6461C32.1399 24.6461 29.8776 23.3151 29.8776 21.6747V19.5176Z" fill="#A9D2FF"/>
<path d="M34.9334 24.3882C32.1453 24.3882 29.883 23.0572 29.883 21.4138V21.6752C29.883 23.3156 32.1453 24.6466 34.9334 24.6466C37.7215 24.6466 39.9838 23.3156 39.9838 21.6752V21.4138C39.9778 23.0572 37.7155 24.3882 34.9334 24.3882Z" fill="#A9D2FF"/>
<path d="M35.5138 24.6246C36.3476 24.5757 37.1667 24.3836 37.9353 24.0568V21.9026C37.1663 22.2281 36.3473 22.4201 35.5138 22.4704V24.6246Z" fill="white"/>
<path d="M29.8776 21.6682C29.8776 23.3116 32.1399 24.6426 34.928 24.6426C37.7161 24.6426 39.9784 23.3116 39.9784 21.6682V23.8284C39.9784 25.4688 37.7161 26.7998 34.928 26.7998C32.1399 26.7998 29.8776 25.4688 29.8776 23.8284V21.6682Z" fill="#A9D2FF"/>
<path d="M34.9334 26.5427C32.1453 26.5427 29.883 25.2118 29.883 23.5684V23.8297C29.883 25.4701 32.1453 26.8011 34.9334 26.8011C37.7215 26.8011 39.9838 25.4701 39.9838 23.8297V23.5684C39.9778 25.2088 37.7155 26.5427 34.9334 26.5427Z" fill="#A9D2FF"/>
<path d="M35.5138 26.7794C36.3473 26.7291 37.1663 26.5371 37.9353 26.2116V24.0544C37.1663 24.3799 36.3473 24.572 35.5138 24.6223V26.7794Z" fill="white"/>
<path d="M34.9281 18.1747C37.7174 18.1747 39.9785 16.8443 39.9785 15.2033C39.9785 13.5623 37.7174 12.2319 34.9281 12.2319C32.1388 12.2319 29.8777 13.5623 29.8777 15.2033C29.8777 16.8443 32.1388 18.1747 34.9281 18.1747Z" fill="white"/>
</g>
<g clip-path="url(#clip1_465_21338)">
<path d="M29.8777 8.97485C29.8777 10.6153 32.14 11.9462 34.9281 11.9462C37.7162 11.9462 39.9785 10.6153 39.9785 8.97485V11.132C39.9785 12.7724 37.7162 14.1034 34.9281 14.1034C32.14 14.1034 29.8777 12.7724 29.8777 11.132V8.97485Z" fill="#A9D2FF"/>
<path d="M34.9337 13.8444C32.1456 13.8444 29.8833 12.5134 29.8833 10.87V11.1314C29.8833 12.7718 32.1456 14.1028 34.9337 14.1028C37.7218 14.1028 39.9841 12.7718 39.9841 11.1314V10.864C39.9781 12.5134 37.7158 13.8444 34.9337 13.8444Z" fill="#A9D2FF"/>
<path d="M35.514 14.3164C36.3476 14.2661 37.1665 14.074 37.9356 13.7485V11.5884C37.1674 11.9165 36.348 12.1086 35.514 12.1562V14.3164Z" fill="white"/>
<path d="M29.8777 11.1255C29.8777 12.7689 32.14 14.0999 34.9281 14.0999C37.7162 14.0999 39.9785 12.7689 39.9785 11.1255V13.2857C39.9785 14.9261 37.7162 16.257 34.9281 16.257C32.14 16.257 29.8777 14.9261 29.8777 13.2857V11.1255Z" fill="#A9D2FF"/>
<path d="M34.9336 15.9955C32.1455 15.9955 29.8831 14.6646 29.8831 13.0242V13.2856C29.8831 14.926 32.1455 16.2569 34.9336 16.2569C37.7216 16.2569 39.984 14.926 39.984 13.2856V13.0242C39.978 14.6646 37.7156 15.9955 34.9336 15.9955Z" fill="#A9D2FF"/>
<path d="M35.5139 16.236C36.3483 16.187 37.1683 15.9959 37.9384 15.6711V13.511C37.1702 13.8391 36.3509 14.0312 35.5169 14.0788L35.5139 16.236Z" fill="white"/>
<path d="M29.8777 13.2861C29.8777 14.9265 32.14 16.2575 34.9281 16.2575C37.7162 16.2575 39.9785 14.9265 39.9785 13.2861V15.4433C39.9785 17.0837 37.7162 18.4146 34.9281 18.4146C32.14 18.4146 29.8777 17.0837 29.8777 15.4433V13.2861Z" fill="#A9D2FF"/>
<path d="M34.9336 18.1558C32.1455 18.1558 29.8831 16.8248 29.8831 15.1814V15.4428C29.8831 17.0832 32.1455 18.4141 34.9336 18.4141C37.7216 18.4141 39.984 17.0832 39.984 15.4428V15.1814C39.978 16.8248 37.7156 18.1558 34.9336 18.1558Z" fill="#A9D2FF"/>
<path d="M35.5139 18.3939C36.3477 18.345 37.1668 18.1529 37.9354 17.826V15.6719C37.1664 15.9974 36.3475 16.1894 35.5139 16.2397V18.3939Z" fill="white"/>
<path d="M34.928 11.9427C37.7172 11.9427 39.9784 10.6124 39.9784 8.97136C39.9784 7.33032 37.7172 6 34.928 6C32.1387 6 29.8776 7.33032 29.8776 8.97136C29.8776 10.6124 32.1387 11.9427 34.928 11.9427Z" fill="white"/>
</g>
<path d="M14.4565 23.096L31.5696 32.9801L40.0711 28.0811V22.6893L22.9581 12.8052L14.4565 17.7042V23.096Z" fill="#5762FC"/>
<path d="M40.0711 22.6893L31.5696 27.5883L14.4565 17.7042L22.9581 12.8052L40.0711 22.6893Z" fill="#A9D2FF"/>
<path d="M34.8121 19.6032L26.3106 24.5022L19.7419 20.7418L28.2386 15.8428L34.8121 19.6032Z" fill="white"/>
<path d="M26.2981 30.0238L26.3077 24.5028L19.739 20.7424L19.7246 26.2634L26.2981 30.0238Z" fill="white"/>
<path d="M38.9808 22.0586C38.8575 22.1131 38.7508 22.1994 38.6718 22.3087C38.5928 22.418 38.5442 22.5463 38.5311 22.6805C38.5467 22.8191 38.5994 22.9509 38.6836 23.0621C38.7678 23.1732 38.8804 23.2596 39.0095 23.3121L40.086 22.6901L38.9808 22.0586Z" fill="#5762FC"/>
<path d="M31.5732 27.5883L32.8984 26.8276C32.739 26.6446 32.5382 26.5023 32.3127 26.4124C32.0872 26.3225 31.8435 26.2878 31.6019 26.3109C31.357 26.2864 31.1097 26.3224 30.882 26.4159C30.6542 26.5093 30.4529 26.6573 30.2958 26.8468L31.5732 27.5883Z" fill="#5762FC"/>
<path d="M15.5581 18.345C15.6899 18.3014 15.8045 18.2173 15.8858 18.1048C15.967 17.9923 16.0107 17.8571 16.0107 17.7183C16.0107 17.5795 15.967 17.4442 15.8858 17.3317C15.8045 17.2192 15.6899 17.1352 15.5581 17.0916L14.4817 17.7135L15.5581 18.345Z" fill="#5762FC"/>
<path d="M22.9489 12.8152L22.0351 13.3414C22.1461 13.4664 22.2848 13.5635 22.4402 13.625C22.5956 13.6865 22.7633 13.7107 22.9297 13.6955C23.0996 13.7128 23.271 13.6878 23.4288 13.6227C23.5866 13.5575 23.7258 13.4544 23.834 13.3223L22.9489 12.8152Z" fill="#5762FC"/>
<path d="M5 28.4217L22.1131 38.3058L30.6098 33.4068V25.0105L13.5015 18.1309L5 20.0158V28.4217Z" fill="#5762FC"/>
<path d="M30.6098 25.0145L22.1131 29.9135L5 20.0294L13.5015 15.1304L30.6098 25.0145Z" fill="#A9D2FF"/>
<path d="M25.6562 22.1451L17.1547 27.0394L10.5812 23.2838L19.0828 18.3848L25.6562 22.1451Z" fill="white"/>
<path d="M16.8449 35.3485L16.8544 26.8422L10.2809 23.0818L10.2714 31.5881L16.8449 35.3485Z" fill="#A9D2FF"/>
<path d="M29.5219 24.3882C29.3986 24.4427 29.2919 24.529 29.2129 24.6383C29.1339 24.7476 29.0853 24.8759 29.0722 25.0101C29.0881 25.148 29.1409 25.279 29.2252 25.3893C29.3094 25.4997 29.4218 25.5852 29.5506 25.6369L30.6271 25.0197L29.5219 24.3882Z" fill="#5762FC"/>
<path d="M22.1086 29.9147L23.4338 29.1492C23.273 28.9683 23.0718 28.8277 22.8466 28.7388C22.6214 28.6499 22.3784 28.6151 22.1373 28.6373C21.8917 28.6124 21.6436 28.6482 21.4151 28.7417C21.1865 28.8351 20.9844 28.9833 20.8265 29.1732L22.1086 29.9147Z" fill="#5762FC"/>
<path d="M6.26382 20.7561C6.40618 20.6935 6.52919 20.594 6.62005 20.4678C6.71092 20.3416 6.76632 20.1933 6.78052 20.0385C6.76473 19.8803 6.70663 19.7293 6.61235 19.6014C6.51807 19.4734 6.39107 19.3732 6.24469 19.3113L5.00079 20.0289L6.26382 20.7561Z" fill="#5762FC"/>
<path d="M13.4788 15.1299L12.522 15.6801C12.7752 15.9239 13.113 16.0601 13.4645 16.0601C13.8159 16.0601 14.1538 15.9239 14.4069 15.6801L13.4788 15.1299Z" fill="#5762FC"/>
<defs>
<clipPath id="clip0_465_21338">
<rect width="10.1008" height="14.5684" fill="white" transform="translate(29.8777 12.2319)"/>
</clipPath>
<clipPath id="clip1_465_21338">
<rect width="10.1008" height="14.5684" fill="white" transform="translate(29.8776 6)"/>
</clipPath>
</defs>
</svg>
