<svg width="44" height="44" viewBox="0 0 44 44" fill="none" xmlns="http://www.w3.org/2000/svg">
<path d="M31.9423 26.6301L31.9197 6.58569C31.9119 6.63185 31.8934 6.67552 31.8656 6.71316C31.8377 6.7508 31.8015 6.78134 31.7596 6.80232V6.85129L16.7974 15.5973C15.7425 16.0475 16.01 17.2248 16.7974 17.692H16.8087C17.2876 17.9761 17.8335 18.1276 18.3903 18.1309C18.9472 18.1342 19.4948 17.9892 19.9771 17.7108L31.7973 10.8673L31.9423 26.6301Z" fill="#005B44"/>
<path d="M34.5226 7.93569C34.4035 7.86673 34.2684 7.83041 34.1308 7.83041C33.9932 7.83041 33.858 7.86673 33.739 7.93569L18.9369 16.5122C18.575 16.7221 18.1636 16.8314 17.7453 16.8287C17.327 16.8261 16.9169 16.7116 16.5578 16.4971C16.4926 16.4581 16.4387 16.403 16.4012 16.3369C16.3637 16.2709 16.344 16.1963 16.344 16.1203C16.344 16.0444 16.3637 15.9698 16.4012 15.9038C16.4387 15.8377 16.4926 15.7826 16.5578 15.7436L31.7705 6.85068C31.8143 6.82513 31.8506 6.78855 31.8758 6.7446C31.9011 6.70064 31.9143 6.65084 31.9143 6.60015C31.9143 6.54946 31.9011 6.49966 31.8758 6.4557C31.8506 6.41175 31.8143 6.37517 31.7705 6.34962C31.6671 6.28902 31.5494 6.25708 31.4296 6.25708C31.3097 6.25708 31.192 6.28902 31.0886 6.34962L16.1716 15.0805C15.9932 15.186 15.8452 15.3361 15.7425 15.5161C15.6398 15.6962 15.5857 15.8999 15.5857 16.1072C15.5857 16.3144 15.6398 16.5182 15.7425 16.6982C15.8452 16.8782 15.9932 17.0283 16.1716 17.1338H16.1829C16.6571 17.4157 17.198 17.5659 17.7497 17.5689C18.3014 17.5719 18.8439 17.4275 19.3212 17.1507L34.5301 8.34822C34.5672 8.32645 34.598 8.29535 34.6194 8.25802C34.6408 8.22068 34.6521 8.17839 34.6521 8.13536C34.6521 8.09233 34.6408 8.05005 34.6194 8.01271C34.598 7.97537 34.5672 7.94427 34.5301 7.92251L34.5226 7.93569Z" fill="#CBFFF2"/>
<path d="M34.5207 8.36056C34.5585 8.3394 34.59 8.3085 34.6118 8.27107C34.6337 8.23364 34.6451 8.19105 34.645 8.14771L34.6751 28.194C34.6754 28.3199 34.6425 28.4437 34.5797 28.5529C34.5168 28.662 34.4263 28.7527 34.3172 28.8156L19.3136 37.5183C18.6635 37.8883 17.9026 38.0139 17.168 37.8724C16.8171 37.8057 16.4805 37.6782 16.1735 37.4957C16.0134 37.4019 15.8777 37.2717 15.7776 37.1155C15.6774 36.9594 15.6155 36.7818 15.5971 36.5972C15.5905 36.5415 15.5867 36.4856 15.5858 36.4295V16.1063C15.5841 16.3137 15.637 16.5179 15.7392 16.6985C15.8413 16.879 15.9891 17.0295 16.1678 17.1348H16.1791C16.6535 17.4164 17.1943 17.5664 17.7459 17.5694C18.2976 17.5723 18.84 17.4282 19.3174 17.1518L34.5207 8.36056Z" fill="#00D09C"/>
<path d="M35.2486 21.8415V16.6576C35.2552 16.5999 35.2392 16.5419 35.2042 16.4956C35.1691 16.4493 35.1176 16.4183 35.0602 16.4089L34.6703 16.3562L32.2968 17.7351C30.8068 18.6016 29.8913 19.8806 29.8913 21.9169V21.9282C29.8919 22.2011 29.9644 22.469 30.1016 22.7049C30.2389 22.9408 30.436 23.1363 30.6729 23.2716C30.9099 23.4069 31.1785 23.4773 31.4513 23.4755C31.7242 23.4738 31.9919 23.4001 32.2271 23.2618L35.2486 21.8415Z" fill="#CBFFF2"/>
<path d="M35.25 21.8138V16.6375L32.8784 17.9316C31.3884 18.7981 30.4711 20.0921 30.4711 22.1152C30.4715 22.3885 30.5439 22.6569 30.6809 22.8934C30.818 23.1298 31.0149 23.326 31.2519 23.4621C31.4889 23.5983 31.7575 23.6696 32.0309 23.6689C32.3042 23.6683 32.5724 23.5956 32.8087 23.4583L35.0541 22.1529C35.1135 22.1184 35.1628 22.0689 35.1972 22.0095C35.2316 21.95 35.2498 21.8825 35.25 21.8138Z" fill="#00D09C"/>
<path d="M33.5574 21.4903C33.8994 20.7453 33.7367 19.9393 33.194 19.6902C32.6514 19.441 31.9341 19.843 31.5921 20.588C31.25 21.3331 31.4127 22.139 31.9554 22.3881C32.4981 22.6373 33.2153 22.2353 33.5574 21.4903Z" fill="#CBFFF2"/>
<path d="M32.3248 5.9312C32.325 5.76743 32.2819 5.60653 32.1999 5.46475C32.1179 5.32298 32 5.20535 31.858 5.12374C31.716 5.04214 31.555 4.99946 31.3912 5.00001C31.2274 5.00055 31.0667 5.04431 30.9253 5.12686L18.0031 12.6409V16.8114C18.2129 16.7891 18.4187 16.7391 18.6153 16.6626C18.6662 16.6419 18.717 16.6231 18.766 16.5986C18.815 16.5741 18.8828 16.5439 18.9393 16.5119L31.6693 9.13536L32.3248 8.75862V5.9312Z" fill="#CBFFF2"/>
<path d="M19.2736 13.769L18.0002 14.5658V15.325L19.2736 14.5244V13.769Z" fill="#005B44"/>
<path d="M19.059 16.1799C18.8179 16.0142 18.4807 16.0688 18.0474 16.3438L18.0003 16.3777V16.811C18.2101 16.7887 18.416 16.7386 18.6125 16.6622C18.6634 16.6414 18.7143 16.6226 18.7632 16.5981C18.8122 16.5736 18.88 16.5435 18.9365 16.5115L19.221 16.3457C19.1779 16.2807 19.1229 16.2245 19.059 16.1799Z" fill="#005B44"/>
<path d="M22.9943 14.1624V13.5314C22.9943 12.8174 22.8624 12.3578 22.6175 12.1506C22.3726 11.9434 22.0015 11.9961 21.5024 12.307C21.0082 12.6064 20.6147 13.0465 20.3721 13.5709C20.1087 14.1751 19.9801 14.8295 19.9954 15.4885V15.8897L20.7489 15.4508V14.7934C20.7422 14.4084 20.8061 14.0253 20.9373 13.6632C21.0435 13.3878 21.2358 13.154 21.4854 12.9964C21.7397 12.8363 21.9262 12.8325 22.0505 12.9851C22.1749 13.1377 22.2257 13.456 22.2257 13.9401V14.5994L22.9943 14.1624Z" fill="#005B44"/>
<path d="M26.6425 12.0524V11.2161C26.6425 10.5134 26.5107 10.0632 26.2658 9.86356C26.0209 9.66389 25.6498 9.71852 25.1506 10.0293C24.6595 10.3274 24.2666 10.7629 24.0204 11.282C23.7586 11.8748 23.63 12.5178 23.6437 13.1657V13.7798L24.3972 13.3409V12.48C24.3918 12.1024 24.4556 11.727 24.5855 11.3724C24.693 11.0991 24.8851 10.8674 25.1337 10.7112C25.388 10.5511 25.5745 10.5455 25.6988 10.6943C25.8231 10.8431 25.874 11.1539 25.874 11.6361V12.4989L26.6425 12.0524Z" fill="#005B44"/>
<path d="M30.9216 5.12686L29.8234 5.76543C30.1053 6.37582 30.6172 6.84986 31.2475 7.08402C31.5922 7.20249 31.9599 7.23861 32.3212 7.18951V5.9312C32.3213 5.76743 32.2782 5.60653 32.1962 5.46475C32.1142 5.32298 31.9963 5.20535 31.8543 5.12374C31.7123 5.04214 31.5513 4.99946 31.3875 5.00001C31.2237 5.00055 31.063 5.04431 30.9216 5.12686Z" fill="#00D09C"/>
<path d="M9 30.7515C9 34.2283 13.787 37.043 19.6898 37.043C25.5926 37.043 30.3796 34.2283 30.3796 30.7515V33.5193C30.3796 36.9962 25.5926 39.8108 19.6898 39.8108C13.787 39.8108 9 36.9962 9 33.5193V30.7515Z" fill="#005B44"/>
<path d="M19.6898 37.0425C25.5936 37.0425 30.3796 34.2257 30.3796 30.751C30.3796 27.2763 25.5936 24.4595 19.6898 24.4595C13.786 24.4595 9 27.2763 9 30.751C9 34.2257 13.786 37.0425 19.6898 37.0425Z" fill="#00D09C"/>
<path d="M19.6909 35.3216C23.9786 35.3216 27.4544 33.275 27.4544 30.7505C27.4544 28.226 23.9786 26.1794 19.6909 26.1794C15.4031 26.1794 11.9273 28.226 11.9273 30.7505C11.9273 33.275 15.4031 35.3216 19.6909 35.3216Z" fill="#CBFFF2"/>
<path d="M19.8917 28.8862L19.8701 30.8766H14.59" stroke="#005B44" stroke-width="1.5" stroke-linecap="round" stroke-linejoin="round"/>
</svg>
