<svg width="44" height="44" viewBox="0 0 44 44" fill="none" xmlns="http://www.w3.org/2000/svg">
<path d="M22.4109 17.7856L7 26.8101L17.0025 32.6432L32.3958 23.5253L22.4109 17.7856Z" fill="#CBFFF2"/>
<path d="M32.3957 23.519L16.9984 32.637V39.9995L32.3957 30.8465V23.519Z" fill="#00B386"/>
<path d="M7.00309 26.8098V34.1548L16.9978 39.9997V32.6391L7.00309 26.8098Z" fill="#005B44"/>
<path d="M16.0278 19.821V32.1536L17.0019 32.7245V20.388L16.0278 19.821Z" fill="#005B44"/>
<path d="M17.8936 19.8718L17.0013 20.3862V32.7227L17.8936 32.2064V19.8718Z" fill="#00B386"/>
<path d="M17.8925 19.8719L17.0002 20.3862L16.028 19.8212L16.9203 19.3069L17.8925 19.8719Z" fill="#CBFFF2"/>
<path d="M30.528 11.134V23.4686L31.5002 24.0375V11.701L30.528 11.134Z" fill="#005B44"/>
<path d="M32.3938 11.1848L31.5015 11.7011V24.0376L32.3938 23.5213V11.1848Z" fill="#00B386"/>
<path d="M32.3924 11.1866L31.5001 11.7009L30.5279 11.1359L31.4202 10.6196L32.3924 11.1866Z" fill="#CBFFF2"/>
<path d="M7 17.3762V26.8332L7.97219 27.4021V17.9432L7 17.3762Z" fill="#005B44"/>
<path d="M8.86469 17.4272L7.97043 17.9416V27.4024L8.86469 26.8842V17.4272Z" fill="#00B386"/>
<path d="M8.8645 17.4271L7.97219 17.9434L7 17.3764L7.89231 16.8621L8.8645 17.4271Z" fill="#CBFFF2"/>
<path d="M22.3933 6.07251L7 15.2002L17.0025 21.0333L32.3958 11.9057L22.3933 6.07251Z" fill="#CBFFF2"/>
<path d="M32.3957 11.9099L16.9984 21.0298V23.4145L32.3957 14.2634V11.9099Z" fill="#00B386"/>
<path d="M7.00309 15.2024V17.5715L16.9978 23.4163V21.0297L7.00309 15.2024Z" fill="#005B44"/>
<path d="M32.0813 5.94968C32.0813 5.94968 30.7662 5.11971 30.7331 5.08659C30.4915 4.89176 30.0551 5.08659 30.0551 5.08659L16.4366 13.1817L17.6699 14.1208L31.454 5.93019L32.0813 5.94968Z" fill="#CBFFF2"/>
<path d="M17.0111 21.0472L32.4025 11.9001V6.5014C32.4036 6.38706 32.3742 6.2745 32.3173 6.17531C32.2604 6.07613 32.1781 5.99392 32.0788 5.93714C31.9796 5.88037 31.867 5.85109 31.7526 5.85233C31.6383 5.85357 31.5264 5.88528 31.4284 5.94419L17.8235 14.0354C17.5766 14.178 17.3715 14.383 17.2289 14.6299C17.0863 14.8768 17.0112 15.1569 17.0111 15.442V21.0472Z" fill="#00B386"/>
<path d="M16.4394 13.1917C15.6756 13.556 15.5841 14.4561 15.5841 14.4561V20.2171L17.0102 21.0491V15.4711C17.0063 15.2107 17.0645 14.9531 17.18 14.7196C17.2956 14.4861 17.4651 14.2836 17.6746 14.1288" fill="#005B44"/>
<path d="M22.9321 25.2574L24.8531 24.104L20.7987 18.7034L18.868 19.8412L22.9321 25.2574Z" fill="#CBFFF2"/>
<path d="M16.924 20.9028L21.0096 26.4126L16.9844 23.6694L16.924 20.9028Z" fill="#005B44"/>
<path d="M26.7827 22.9464L28.7038 21.793L24.6689 16.4236L22.7381 17.5614L26.7827 22.9464Z" fill="#CBFFF2"/>
<path d="M30.6313 20.636L32.5523 19.4845L28.5388 14.1443L26.6081 15.2821L30.6313 20.636Z" fill="#CBFFF2"/>
<path d="M34.4786 18.3272L36.3899 17.1797L32.3959 11.8706L30.4749 13.0026L34.4786 18.3272Z" fill="#CBFFF2"/>
<path d="M18.8638 19.843L16.9331 20.9808L21.0089 26.4126L22.928 25.2592L18.8638 19.843Z" fill="#00B386"/>
<path d="M24.8574 24.1021L26.7784 22.9488L22.7338 17.5637L20.8031 18.7015L24.8574 24.1021Z" fill="#00B386"/>
<path d="M28.7079 21.7912L30.6269 20.6378L26.6037 15.2839L24.673 16.4217L28.7079 21.7912Z" fill="#00B386"/>
<path d="M28.5429 14.1422L32.5564 19.4805L34.4774 18.329L30.4737 13.0044L28.5429 14.1422Z" fill="#00B386"/>
</svg>
