<svg width="44" height="44" viewBox="0 0 44 44" fill="none" xmlns="http://www.w3.org/2000/svg">
<path d="M30.0875 28.2986V31.3509C30.0875 32.4072 31.4818 33.2624 33.201 33.2624C34.9202 33.2624 36.313 32.4072 36.313 31.3509V27.6721L30.0875 28.2986Z" fill="#005B44"/>
<path d="M6.63971 22.5653V31.3813C6.63971 32.6357 8.2948 33.6512 10.336 33.6512C12.3772 33.6512 14.0322 32.6313 14.0322 31.3813V21.8281L6.63971 22.5653Z" fill="#005B44"/>
<path d="M18.4644 28.9001V37.2454C18.4644 38.4314 20.0321 39.393 21.9611 39.393C23.8901 39.393 25.4577 38.4314 25.4577 37.2454V28.2036L18.4644 28.9001Z" fill="#005B44"/>
<path d="M18.4644 26.3449V34.6888C18.4644 35.8762 20.0321 36.8378 21.9611 36.8378C23.8901 36.8378 25.4577 35.8762 25.4577 34.6888V25.647L18.4644 26.3449Z" fill="#005B44"/>
<path d="M37.3234 23.2986C36.0427 31.1137 29.2141 35.974 20.0921 34.4807C10.9702 32.9873 3.86907 23.236 5.14972 15.4209C6.43037 7.6059 14.7845 3.49004 23.6004 5.51373C31.9852 7.43107 38.5997 15.4792 37.3234 23.2986Z" fill="var(--green500)"/>
<path d="M23.603 5.50883C21.3511 4.98134 19.0225 4.86435 16.7291 5.16352C17.3702 5.24656 18.0156 5.36022 18.6639 5.50883C27.0487 7.43054 30.3297 18.4756 30.4302 26.3999C30.455 28.294 26.5751 34.0503 18.4833 34.1319C29.4672 36.7049 36.07 30.9121 37.3186 23.2981C38.6022 15.4787 31.9877 7.43054 23.603 5.50883Z" fill="#005B44"/>
<path d="M23.5999 5.50979C17.558 4.12569 11.7331 5.62488 8.25396 9.21916C8.11847 16.6947 14.8568 25.2339 23.3435 26.6253C29.3461 27.6087 34.3551 25.8385 37.4438 22.2865C38.0281 14.8022 31.6219 7.34845 23.5999 5.50979Z" fill="#CBFFF2"/>
<path d="M29.7544 17.4837C28.3863 16.0821 25.4724 16.5177 24.2967 18.03C23.3016 19.3121 23.5041 22.8816 25.452 23.6931C26.1033 20.9337 27.6768 18.6696 29.7384 17.4749" fill="var(--green500)"/>
<path d="M36.75 17.6512C36.8082 17.5419 36.8651 17.4283 36.9175 17.3132C37.7756 15.4192 37.4872 13.4421 36.275 12.8929C36.1301 12.8279 35.9765 12.7847 35.819 12.7646C35.2362 12.6714 33.3494 12.7967 32.2932 13.2017C32.2674 13.2114 32.2443 13.2268 32.2253 13.2467C32.2064 13.2667 32.1922 13.2906 32.1839 13.3168C31.9202 14.1298 31.7381 15.5343 32.114 16.6284C32.4394 16.578 32.7681 16.5517 33.0974 16.5498C34.396 16.5564 35.6648 16.9394 36.75 17.6527" fill="#CBFFF2"/>
<path d="M33.0964 16.5514C34.395 16.558 35.6637 16.9411 36.7489 17.6543C36.8072 17.545 36.864 17.4314 36.9165 17.3163C37.7746 15.4223 37.4861 13.4452 36.274 12.8959C35.0618 12.3467 33.3849 13.4335 32.5267 15.3246C32.3359 15.7432 32.197 16.1836 32.1129 16.6359C32.4381 16.5828 32.7669 16.5546 33.0964 16.5514Z" fill="var(--green500)"/>
<path d="M17.5899 5.88354C16.9831 6.21334 16.399 6.58327 15.8415 6.99084C19.7675 7.94175 23.2739 10.1524 25.8245 13.2848C26.4181 12.8575 27.0408 12.4719 27.6879 12.1309C25.1007 8.99447 21.5514 6.79862 17.5899 5.88354Z" fill="var(--green500)"/>
<path d="M25.4426 23.6886C26.0939 20.9291 27.6761 18.6694 29.7377 17.4747C29.6513 17.3757 29.5535 17.2871 29.4463 17.211C28.3216 16.4446 26.4465 17.2358 25.2562 18.9797C24.0658 20.7237 24.0134 22.759 25.1381 23.5254C25.2337 23.5902 25.3357 23.6449 25.4426 23.6886Z" fill="#CBFFF2"/>
<path d="M31.8861 31.6351C33.1231 32.3505 35.2181 31.0392 36.5644 28.7096C37.9106 26.3799 37.9965 23.909 36.7596 23.1951L35.6713 22.6225C34.3425 21.9319 32.0041 23.077 30.6943 25.344C29.3845 27.6111 29.3277 29.8605 30.5661 30.7435L31.8861 31.6351Z" fill="#CBFFF2"/>
<path d="M36.5633 28.71C37.909 26.379 37.9968 23.9102 36.7592 23.1957C35.5216 22.4812 33.4273 23.7915 32.0815 26.1225C30.7357 28.4534 30.6481 30.9223 31.8857 31.6368C33.1233 32.3513 35.2175 31.0409 36.5633 28.71Z" fill="var(--green500)"/>
<path d="M31.2215 28.1756L29.7937 27.6335C29.5023 29.0031 29.7572 30.1686 30.5673 30.7456L31.7401 31.5382C30.9927 30.97 30.8266 29.666 31.2215 28.1756Z" fill="var(--green500)"/>
<path d="M29.6753 28.6533C29.6753 29.5683 29.9667 30.3171 30.5641 30.744L31.7369 31.5366C31.1876 31.1185 30.9516 30.3025 31.023 29.3075L29.6753 28.6533Z" fill="#005B44"/>
<path d="M33.5767 29.0759C33.8442 28.6125 33.8617 28.1217 33.6157 27.9796C33.3697 27.8376 32.9534 28.0982 32.6859 28.5616C32.4183 29.025 32.4008 29.5157 32.6468 29.6578C32.8928 29.7998 33.3091 29.5393 33.5767 29.0759Z" fill="#005B44"/>
<path d="M36.7247 26.6249C36.9923 26.1615 37.0098 25.6707 36.7638 25.5287C36.5178 25.3867 36.1015 25.6472 35.8339 26.1106C35.5664 26.574 35.5489 27.0648 35.7949 27.2069C36.0409 27.3489 36.4572 27.0883 36.7247 26.6249Z" fill="#005B44"/>
</svg>
