<svg width="64" height="64" viewBox="0 0 64 64" fill="none" xmlns="http://www.w3.org/2000/svg">
<path d="M35.5752 25.8997L14 38.5338L28.0034 46.7002L49.5541 33.9351L35.5752 25.8997Z" fill="white"/>
<path d="M49.5483 33.9272L27.9922 46.6923V56.9999L49.5483 44.1857V33.9272Z" fill="#B0D1FA"/>
<path d="M14.0039 38.5342V48.8172L27.9964 56.9999V46.6951L14.0039 38.5342Z" fill="#5766F2"/>
<path d="M26.6406 28.7498V46.0154L28.0044 46.8146V29.5435L26.6406 28.7498Z" fill="#5766F2"/>
<path d="M29.2492 28.8208L28 29.5409V46.812L29.2492 46.0891V28.8208Z" fill="#B0D1FA"/>
<path d="M29.2509 28.8208L28.0017 29.5409L26.6406 28.7499L27.8899 28.0298L29.2509 28.8208Z" fill="white"/>
<path d="M46.9453 16.5872V33.8555L48.3064 34.652V17.3809L46.9453 16.5872Z" fill="#5766F2"/>
<path d="M49.5539 16.6582L48.3047 17.381V34.6521L49.5539 33.9293V16.6582Z" fill="#B0D1FA"/>
<path d="M49.5556 16.6612L48.3064 17.3812L46.9453 16.5902L48.1945 15.8674L49.5556 16.6612Z" fill="white"/>
<path d="M14 25.3264V38.5661L15.3611 39.3626V26.1201L14 25.3264Z" fill="#5766F2"/>
<path d="M16.6074 25.3977L15.3555 26.1178V39.3629L16.6074 38.6374V25.3977Z" fill="#B0D1FA"/>
<path d="M16.6103 25.3977L15.3611 26.1205L14 25.3268L15.2492 24.6067L16.6103 25.3977Z" fill="white"/>
<path d="M35.5507 9.5022L14 22.2809L28.0034 30.4473L49.5541 17.6686L35.5507 9.5022Z" fill="white"/>
<path d="M49.5483 17.6733L27.9922 30.4412V33.7797L49.5483 20.9683V17.6733Z" fill="#B0D1FA"/>
<path d="M14.0039 22.283V25.5997L27.9964 33.7825V30.4412L14.0039 22.283Z" fill="#5766F2"/>
<path d="M49.1134 9.32955C49.1134 9.32955 47.2723 8.16759 47.226 8.12123C46.8877 7.84847 46.2768 8.12123 46.2768 8.12123L27.2109 19.4543L28.9375 20.769L48.2352 9.30227L49.1134 9.32955Z" fill="white"/>
<path d="M28.0078 30.466L49.5557 17.66V10.1019C49.5573 9.94178 49.5161 9.7842 49.4364 9.64534C49.3568 9.50649 49.2415 9.39138 49.1026 9.3119C48.9636 9.23242 48.806 9.19143 48.6459 9.19317C48.4859 9.1949 48.3291 9.23929 48.1919 9.32177L29.1452 20.6494C28.7995 20.849 28.5124 21.1361 28.3128 21.4817C28.1131 21.8274 28.0079 22.2196 28.0078 22.6187V30.466Z" fill="#B0D1FA"/>
<path d="M27.2169 19.4683C26.1477 19.9783 26.0195 21.2385 26.0195 21.2385V29.3039L28.0161 30.4686V22.6595C28.0106 22.2949 28.0921 21.9342 28.2539 21.6074C28.4156 21.2806 28.653 20.997 28.9462 20.7802" fill="#5766F2"/>
<path d="M36.2913 36.3599L38.9807 34.7452L33.3046 27.1843L30.6016 28.7772L36.2913 36.3599Z" fill="white"/>
<path d="M27.8867 30.2637L33.6065 37.9773L27.9713 34.1368L27.8867 30.2637Z" fill="#5766F2"/>
<path d="M41.6976 33.1251L44.387 31.5104L38.7382 23.9932L36.0352 25.5861L41.6976 33.1251Z" fill="white"/>
<path d="M47.0778 29.8898L49.7672 28.2778L44.1483 20.8015L41.4453 22.3944L47.0778 29.8898Z" fill="white"/>
<path d="M52.4607 26.6579L55.1364 25.0513L49.5449 17.6187L46.8555 19.2034L52.4607 26.6579Z" fill="white"/>
<path d="M30.6015 28.78L27.8984 30.3729L33.6045 37.9774L36.2912 36.3627L30.6015 28.78Z" fill="#B0D1FA"/>
<path d="M38.9847 34.7424L41.6741 33.1277L36.0116 25.5886L33.3086 27.1815L38.9847 34.7424Z" fill="#B0D1FA"/>
<path d="M44.3871 31.5071L47.0738 29.8924L41.4413 22.397L38.7383 23.9899L44.3871 31.5071Z" fill="#B0D1FA"/>
<path d="M44.1523 20.7995L49.7712 28.273L52.4606 26.661L46.8554 19.2065L44.1523 20.7995Z" fill="#B0D1FA"/>
</svg>
