<svg width="44" height="44" viewBox="0 0 44 44" fill="none" xmlns="http://www.w3.org/2000/svg">
<g clip-path="url(#clip0_465_22112)">
<path d="M21.9429 36.0806L11 29.7097V33.637L21.9429 40.037" fill="#005B44"/>
<path d="M14.8126 14.7163L22.1175 18.9636L28.7473 15.1352L21.4249 10.8879L14.8126 14.7163Z" fill="#CBFFF2"/>
<path d="M22.1292 35.2197L28.7648 31.3971V15.1411L22.1292 18.9637V35.2197Z" fill="#00B386"/>
<path d="M22.1292 18.9635L14.8126 14.7104V30.9664L22.1292 35.2195" fill="#005B44"/>
<path d="M23.6018 33.2356L24.1082 32.9505V19.0276L23.6018 19.3127V33.2356Z" fill="#005B44"/>
<path d="M25.447 32.1477L25.9534 31.8626V17.9397L25.447 18.2248V32.1477Z" fill="#005B44"/>
<path d="M27.2165 31.1818L27.7112 30.8967V16.9971L27.2165 17.2822V31.1818Z" fill="#005B44"/>
<path d="M29.1082 31.9498V35.877L32.8742 33.6487V29.7156" fill="#00B386"/>
<path d="M24.3934 32.2349V36.168L27.0127 34.6553V30.728" fill="#00B386"/>
<path d="M26.7101 33.3286L21.9429 36.0806V40.0079L26.7101 37.2617V33.3286Z" fill="#00B386"/>
<path d="M29.1024 31.9499L32.88 29.7157L28.7648 27.3245V29.6168L26.9662 30.7106L29.1024 31.9499Z" fill="#CBFFF2"/>
<path d="M24.5739 32.0894L22.2572 33.4276L14.8067 29.0873V27.5164L11 29.7098L21.9429 36.0807L26.7042 33.3345L24.5739 32.0894Z" fill="#CBFFF2"/>
<path d="M29.1082 35.877L26.972 34.6377L26.9662 30.7104L29.1024 31.9497L29.1082 35.877Z" fill="#005B44"/>
<path d="M16.7101 13.2677L22.0244 16.3688L26.8556 13.5877L21.518 10.4866L16.7101 13.2677Z" fill="#CBFFF2"/>
<path d="M22.0593 17.765L26.8847 14.9781V13.5759L22.0593 16.357V17.765Z" fill="#00B386"/>
<path d="M22.0593 16.357L16.7159 13.2676V14.6639L22.0593 17.765" fill="#005B44"/>
<path d="M19.5681 12.0574L21.972 13.4596L24.1548 12.2028L21.745 10.8181L19.5681 12.0574Z" fill="#CBFFF2"/>
<path d="M21.9778 14.6173L24.1606 13.3548V12.1912L21.9778 13.4479V14.6173Z" fill="#00B386"/>
<path d="M21.9778 13.4537L19.5739 12.0574V13.221L21.9778 14.6232" fill="#005B44"/>
<path d="M19.5681 10.7194L21.972 12.1216L24.1548 10.8648L21.745 9.46265L19.5681 10.7194Z" fill="#CBFFF2"/>
<path d="M21.9778 13.2736L24.1606 12.0169V10.8533L21.9778 12.11V13.2736Z" fill="#00B386"/>
<path d="M21.9778 12.1158L19.5739 10.7195V11.8831L21.9778 13.2795" fill="#005B44"/>
<path d="M19.5681 9.37538L21.972 10.7776L24.1548 9.52083L21.745 8.11865L19.5681 9.37538Z" fill="#CBFFF2"/>
<path d="M21.9778 11.9353L24.1606 10.6785V9.51489L21.9778 10.7774V11.9353Z" fill="#00B386"/>
<path d="M21.9778 10.7777L19.5739 9.37549V10.5391L21.9778 11.9413" fill="#005B44"/>
<path d="M21.9545 9.83491L21.9196 5L21.3667 9.50327L21.9545 9.83491Z" fill="#005B44"/>
<path d="M21.9545 9.83491L21.9196 5L22.589 9.53818L21.9545 9.83491Z" fill="#00B386"/>
<path d="M13.9627 29.0408L14.8126 28.5114V27.3943L13.9627 27.883V29.0408Z" fill="#00B386"/>
<path d="M14.0384 27.9354L14.8126 27.4874V26.3237L11.9662 27.9703L22.1466 33.9048L23.142 33.259L14.0384 27.9354Z" fill="#CBFFF2"/>
<path d="M11.9721 27.9702L11.9662 29.1455L21.8905 34.9462L21.8963 33.7709L11.9721 27.9702Z" fill="#005B44"/>
<path d="M25.6973 31.5659L24.5855 30.9084L20.802 33.1135L21.8789 33.7419L25.6973 31.5659Z" fill="#CBFFF2"/>
<path d="M28.7531 26.1025L28.7648 27.3302L29.7834 27.9236L26.9662 29.5527L28.0837 30.1985L31.9312 27.976L28.7531 26.1025Z" fill="#CBFFF2"/>
<path d="M28.0837 31.3621L26.9662 30.7163L26.972 29.5469L28.0837 30.1985V31.3621Z" fill="#005B44"/>
<path d="M28.7648 28.517L29.7834 27.9293L28.7648 27.3301V28.517Z" fill="#005B44"/>
<path d="M21.8963 34.9287L25.7031 32.741V31.5774L21.9022 33.765L21.8963 34.9287Z" fill="#00B386"/>
<path d="M31.9487 27.9644L28.0837 30.1985V31.3564L31.9487 29.128V27.9644Z" fill="#00B386"/>
</g>
<defs>
<clipPath id="clip0_465_22112">
<rect width="21.88" height="35.008" fill="white" transform="translate(11 5)"/>
</clipPath>
</defs>
</svg>
