<svg width="44" height="44" viewBox="0 0 44 44" fill="none" xmlns="http://www.w3.org/2000/svg">
<g clip-path="url(#clip0_465_22012)">
<path d="M29.8806 15.207C29.8806 16.8476 32.1431 18.1787 34.9315 18.1787C37.7199 18.1787 39.9825 16.8476 39.9825 15.207V17.3644C39.9825 19.005 37.7199 20.3361 34.9315 20.3361C32.1431 20.3361 29.8806 19.005 29.8806 17.3644V15.207Z" fill="var(--green500)"/>
<path d="M34.9369 20.0779C32.1485 20.0779 29.886 18.7468 29.886 17.1032V17.3646C29.886 19.0052 32.1485 20.3363 34.9369 20.3363C37.7253 20.3363 39.9879 19.0052 39.9879 17.3646V17.0972C39.9819 18.7468 37.7193 20.0779 34.9369 20.0779Z" fill="var(--green500)"/>
<path d="M35.5174 20.5496C36.3511 20.4993 37.1701 20.3072 37.9392 19.9817V17.8213C37.171 18.1494 36.3515 18.3416 35.5174 18.3892V20.5496Z" fill="#CBFFF2"/>
<path d="M29.8806 17.3584C29.8806 19.002 32.1431 20.3331 34.9315 20.3331C37.7199 20.3331 39.9825 19.002 39.9825 17.3584V19.5188C39.9825 21.1594 37.7199 22.4905 34.9315 22.4905C32.1431 22.4905 29.8806 21.1594 29.8806 19.5188V17.3584Z" fill="var(--green500)"/>
<path d="M34.937 22.229C32.1486 22.229 29.886 20.8979 29.886 19.2573V19.5188C29.886 21.1594 32.1486 22.4904 34.937 22.4904C37.7254 22.4904 39.9879 21.1594 39.9879 19.5188V19.2573C39.9819 20.8979 37.7194 22.229 34.937 22.229Z" fill="var(--green500)"/>
<path d="M35.5174 22.4694C36.3519 22.4204 37.172 22.2294 37.9422 21.9045V19.7441C37.174 20.0723 36.3545 20.2644 35.5204 20.312L35.5174 22.4694Z" fill="#CBFFF2"/>
<path d="M29.8806 19.5188C29.8806 21.1594 32.1431 22.4904 34.9315 22.4904C37.7199 22.4904 39.9825 21.1594 39.9825 19.5188V21.6762C39.9825 23.3168 37.7199 24.6479 34.9315 24.6479C32.1431 24.6479 29.8806 23.3168 29.8806 21.6762V19.5188Z" fill="var(--green500)"/>
<path d="M34.937 24.3895C32.1486 24.3895 29.886 23.0584 29.886 21.4148V21.6762C29.886 23.3168 32.1486 24.6479 34.937 24.6479C37.7254 24.6479 39.9879 23.3168 39.9879 21.6762V21.4148C39.9819 23.0584 37.7194 24.3895 34.937 24.3895Z" fill="var(--green500)"/>
<path d="M35.5174 24.6268C36.3513 24.5779 37.1705 24.3858 37.9392 24.0589V21.9045C37.1701 22.2301 36.3511 22.4221 35.5174 22.4724V24.6268Z" fill="#CBFFF2"/>
<path d="M29.8806 21.6702C29.8806 23.3138 32.1431 24.6449 34.9315 24.6449C37.7199 24.6449 39.9825 23.3138 39.9825 21.6702V23.8306C39.9825 25.4712 37.7199 26.8023 34.9315 26.8023C32.1431 26.8023 29.8806 25.4712 29.8806 23.8306V21.6702Z" fill="var(--green500)"/>
<path d="M34.937 26.5437C32.1486 26.5437 29.886 25.2127 29.886 23.5691V23.8305C29.886 25.4711 32.1486 26.8022 34.937 26.8022C37.7254 26.8022 39.9879 25.4711 39.9879 23.8305V23.5691C39.9819 25.2097 37.7194 26.5437 34.937 26.5437Z" fill="var(--green500)"/>
<path d="M35.5174 26.7812C36.3511 26.7309 37.1701 26.5388 37.9392 26.2133V24.0559C37.1701 24.3814 36.3511 24.5735 35.5174 24.6238V26.7812Z" fill="#CBFFF2"/>
<path d="M34.9315 18.1758C37.7211 18.1758 39.9825 16.8453 39.9825 15.2041C39.9825 13.5629 37.7211 12.2324 34.9315 12.2324C32.1419 12.2324 29.8806 13.5629 29.8806 15.2041C29.8806 16.8453 32.1419 18.1758 34.9315 18.1758Z" fill="#CBFFF2"/>
</g>
<g clip-path="url(#clip1_465_22012)">
<path d="M29.8805 8.97461C29.8805 10.6152 32.143 11.9463 34.9314 11.9463C37.7198 11.9463 39.9824 10.6152 39.9824 8.97461V11.132C39.9824 12.7726 37.7198 14.1037 34.9314 14.1037C32.143 14.1037 29.8805 12.7726 29.8805 11.132V8.97461Z" fill="var(--green500)"/>
<path d="M34.9369 13.8455C32.1485 13.8455 29.8859 12.5143 29.8859 10.8708V11.1322C29.8859 12.7728 32.1485 14.1039 34.9369 14.1039C37.7252 14.1039 39.9878 12.7728 39.9878 11.1322V10.8647C39.9818 12.5143 37.7192 13.8455 34.9369 13.8455Z" fill="var(--green500)"/>
<path d="M35.5173 14.3172C36.351 14.2668 37.17 14.0748 37.9392 13.7493V11.5889C37.1709 11.917 36.3514 12.1092 35.5173 12.1568V14.3172Z" fill="#CBFFF2"/>
<path d="M29.8805 11.126C29.8805 12.7696 32.143 14.1007 34.9314 14.1007C37.7198 14.1007 39.9824 12.7696 39.9824 11.126V13.2864C39.9824 14.927 37.7198 16.258 34.9314 16.258C32.143 16.258 29.8805 14.927 29.8805 13.2864V11.126Z" fill="var(--green500)"/>
<path d="M34.9369 15.9966C32.1485 15.9966 29.8859 14.6655 29.8859 13.0249V13.2863C29.8859 14.9269 32.1485 16.258 34.9369 16.258C37.7253 16.258 39.9878 14.9269 39.9878 13.2863V13.0249C39.9818 14.6655 37.7193 15.9966 34.9369 15.9966Z" fill="var(--green500)"/>
<path d="M35.5173 16.237C36.3519 16.188 37.1719 15.9969 37.9422 15.6721V13.5117C37.1739 13.8399 36.3544 14.032 35.5203 14.0796L35.5173 16.237Z" fill="#CBFFF2"/>
<path d="M29.8805 13.2866C29.8805 14.9272 32.143 16.2583 34.9314 16.2583C37.7198 16.2583 39.9824 14.9272 39.9824 13.2866V15.444C39.9824 17.0846 37.7198 18.4157 34.9314 18.4157C32.143 18.4157 29.8805 17.0846 29.8805 15.444V13.2866Z" fill="var(--green500)"/>
<path d="M34.9369 18.1573C32.1485 18.1573 29.8859 16.8262 29.8859 15.1826V15.444C29.8859 17.0846 32.1485 18.4157 34.9369 18.4157C37.7253 18.4157 39.9878 17.0846 39.9878 15.444V15.1826C39.9818 16.8262 37.7193 18.1573 34.9369 18.1573Z" fill="var(--green500)"/>
<path d="M35.5173 18.3947C36.3512 18.3458 37.1705 18.1537 37.9391 17.8268V15.6724C37.17 15.9979 36.351 16.1899 35.5173 16.2403V18.3947Z" fill="#CBFFF2"/>
<path d="M34.9314 11.9434C37.721 11.9434 39.9824 10.6129 39.9824 8.97168C39.9824 7.33047 37.721 6 34.9314 6C32.1419 6 29.8805 7.33047 29.8805 8.97168C29.8805 10.6129 32.1419 11.9434 34.9314 11.9434Z" fill="#CBFFF2"/>
</g>
<path d="M14.4584 23.0981L31.5733 32.9833L40.0757 28.0838V22.6914L22.9608 12.8062L14.4584 17.7057V23.0981Z" fill="#005B44"/>
<path d="M40.0757 22.6914L31.5733 27.5909L14.4584 17.7057L22.9608 12.8062L40.0757 22.6914Z" fill="var(--green500)"/>
<path d="M34.8171 19.6053L26.3147 24.5048L19.7453 20.744L28.2429 15.8445L34.8171 19.6053Z" fill="#CBFFF2"/>
<path d="M26.3009 30.0265L26.3105 24.5049L19.7411 20.7441L19.7267 26.2657L26.3009 30.0265Z" fill="#CBFFF2"/>
<path d="M38.9849 22.0601C38.8615 22.1146 38.7548 22.2009 38.6758 22.3102C38.5968 22.4195 38.5482 22.5478 38.5351 22.6821C38.5507 22.8207 38.6034 22.9525 38.6876 23.0636C38.7718 23.1748 38.8844 23.2612 39.0136 23.3137L40.0902 22.6916L38.9849 22.0601Z" fill="#005B44"/>
<path d="M31.5767 27.5917L32.9021 26.8309C32.7426 26.6478 32.5418 26.5055 32.3163 26.4156C32.0908 26.3257 31.8471 26.2909 31.6055 26.3141C31.3605 26.2896 31.1132 26.3256 30.8855 26.4191C30.6577 26.5125 30.4564 26.6605 30.2992 26.85L31.5767 27.5917Z" fill="#005B44"/>
<path d="M15.5601 18.3469C15.6919 18.3032 15.8065 18.2192 15.8878 18.1066C15.969 17.9941 16.0128 17.8589 16.0128 17.7201C16.0128 17.5813 15.969 17.446 15.8878 17.3335C15.8065 17.221 15.6919 17.1369 15.5601 17.0933L14.4836 17.7153L15.5601 18.3469Z" fill="#005B44"/>
<path d="M22.9522 12.8154L22.0383 13.3417C22.1493 13.4667 22.288 13.5639 22.4435 13.6254C22.5989 13.6869 22.7666 13.711 22.933 13.6958C23.1028 13.7131 23.2743 13.6881 23.4321 13.623C23.5899 13.5579 23.7291 13.4547 23.8373 13.3226L22.9522 12.8154Z" fill="#005B44"/>
<path d="M5 28.424L22.1149 38.3092L30.6126 33.4097V25.0125L13.5024 18.1321L5 20.0173V28.424Z" fill="#005B44"/>
<path d="M30.6126 25.0178L22.1149 29.9173L5 20.0321L13.5024 15.1326L30.6126 25.0178Z" fill="var(--green500)"/>
<path d="M25.6584 22.149L17.156 27.0437L10.5818 23.2877L19.0842 18.3882L25.6584 22.149Z" fill="#CBFFF2"/>
<path d="M16.8461 35.3537L16.8557 26.8465L10.2815 23.0857L10.2719 31.5929L16.8461 35.3537Z" fill="var(--green500)"/>
<path d="M29.5253 24.3899C29.4019 24.4444 29.2953 24.5307 29.2162 24.64C29.1372 24.7493 29.0887 24.8777 29.0756 25.0119C29.0914 25.1498 29.1443 25.2808 29.2285 25.3912C29.3128 25.5015 29.4252 25.587 29.554 25.6387L30.6306 25.0215L29.5253 24.3899Z" fill="#005B44"/>
<path d="M22.1108 29.9158L23.4362 29.1503C23.2753 28.9693 23.0741 28.8287 22.8489 28.7398C22.6237 28.6509 22.3807 28.6161 22.1396 28.6383C21.8939 28.6134 21.6458 28.6492 21.4172 28.7427C21.1886 28.8361 20.9864 28.9843 20.8286 29.1742L22.1108 29.9158Z" fill="#005B44"/>
<path d="M6.26432 20.7602C6.4067 20.6976 6.52972 20.598 6.62059 20.4718C6.71147 20.3456 6.76688 20.1973 6.78107 20.0425C6.76528 19.8843 6.70719 19.7333 6.61289 19.6053C6.5186 19.4773 6.39159 19.3771 6.24519 19.3152L5.00116 20.0329L6.26432 20.7602Z" fill="#005B44"/>
<path d="M13.4803 15.1335L12.5234 15.6838C12.7766 15.9276 13.1145 16.0639 13.466 16.0639C13.8175 16.0639 14.1554 15.9276 14.4086 15.6838L13.4803 15.1335Z" fill="#005B44"/>
<defs>
<clipPath id="clip0_465_22012">
<rect width="10.1019" height="14.57" fill="white" transform="translate(29.8806 12.2324)"/>
</clipPath>
<clipPath id="clip1_465_22012">
<rect width="10.1019" height="14.57" fill="white" transform="translate(29.8805 6)"/>
</clipPath>
</defs>
</svg>
