<svg width="44" height="44" viewBox="0 0 44 44" fill="none" xmlns="http://www.w3.org/2000/svg">
<path d="M30.0876 28.2988V31.3512C30.0876 32.4074 31.4819 33.2626 33.2011 33.2626C34.9203 33.2626 36.3132 32.4074 36.3132 31.3512V27.6724L30.0876 28.2988Z" fill="#5762FC"/>
<path d="M6.64069 22.5653V31.3813C6.64069 32.6358 8.29578 33.6513 10.337 33.6513C12.3781 33.6513 14.0332 32.6314 14.0332 31.3813V21.8281L6.64069 22.5653Z" fill="#5762FC"/>
<path d="M18.4654 28.9001V37.2454C18.4654 38.4314 20.0331 39.393 21.9621 39.393C23.8911 39.393 25.4588 38.4314 25.4588 37.2454V28.2036L18.4654 28.9001Z" fill="#5762FC"/>
<path d="M18.4654 26.3449V34.6888C18.4654 35.8762 20.0331 36.8378 21.9621 36.8378C23.8911 36.8378 25.4588 35.8762 25.4588 34.6888V25.647L18.4654 26.3449Z" fill="#5762FC"/>
<path d="M37.3235 23.2987C36.0428 31.1137 29.2141 35.9741 20.0922 34.4808C10.9702 32.9874 3.86906 23.2361 5.14972 15.421C6.43038 7.60591 14.7845 3.49003 23.6005 5.51373C31.9852 7.43108 38.5998 15.4792 37.3235 23.2987Z" fill="#A9D2FF"/>
<path d="M23.6029 5.50883C21.3511 4.98134 19.0225 4.86435 16.7291 5.16352C17.3701 5.24657 18.0155 5.36022 18.6639 5.50883C27.0486 7.43055 30.3297 18.4757 30.4302 26.4C30.455 28.294 26.5751 34.0504 18.4832 34.132C29.4672 36.705 36.07 30.9122 37.3187 23.2982C38.6022 15.4787 31.9877 7.43055 23.6029 5.50883Z" fill="#5762FC"/>
<path d="M23.6009 5.50979C17.5589 4.12569 11.7341 5.62489 8.25488 9.21918C8.11938 16.6948 14.8578 25.2339 23.3445 26.6253C29.3471 27.6088 34.3561 25.8386 37.4448 22.2865C38.0291 14.8022 31.6229 7.34846 23.6009 5.50979Z" fill="white"/>
<path d="M29.7544 17.4834C28.3863 16.0818 25.4724 16.5175 24.2967 18.0298C23.3016 19.3119 23.5041 22.8814 25.452 23.6929C26.1033 20.9335 27.6768 18.6694 29.7384 17.4747" fill="#A9D2FF"/>
<path d="M36.7501 17.6512C36.8084 17.542 36.8652 17.4283 36.9176 17.3132C37.7758 15.4192 37.4873 13.4421 36.2751 12.8929C36.1303 12.8279 35.9766 12.7847 35.8191 12.7646C35.2363 12.6714 33.3496 12.7967 32.2933 13.2017C32.2676 13.2114 32.2444 13.2268 32.2255 13.2467C32.2065 13.2667 32.1924 13.2906 32.184 13.3168C31.9203 14.1298 31.7382 15.5343 32.1141 16.6284C32.4395 16.578 32.7682 16.5517 33.0975 16.5498C34.3961 16.5564 35.6649 16.9395 36.7501 17.6527" fill="white"/>
<path d="M33.0965 16.5504C34.3951 16.557 35.6638 16.9401 36.749 17.6533C36.8073 17.5441 36.8641 17.4304 36.9166 17.3153C37.7747 15.4213 37.4863 13.4442 36.2741 12.8949C35.0619 12.3457 33.385 13.4326 32.5268 15.3237C32.336 15.7423 32.1971 16.1826 32.113 16.6349C32.4382 16.5818 32.767 16.5536 33.0965 16.5504Z" fill="#A9D2FF"/>
<path d="M17.5909 5.88354C16.9841 6.21334 16.4001 6.58327 15.8426 6.99084C19.7685 7.94175 23.275 10.1525 25.8256 13.2848C26.4192 12.8575 27.0419 12.4719 27.689 12.131C25.1017 8.99448 21.5525 6.79863 17.5909 5.88354Z" fill="#A9D2FF"/>
<path d="M25.4427 23.6886C26.094 20.9291 27.6762 18.6694 29.7378 17.4747C29.6514 17.3757 29.5536 17.2871 29.4464 17.211C28.3217 16.4446 26.4466 17.2358 25.2563 18.9797C24.0659 20.7237 24.0135 22.7591 25.1382 23.5254C25.2338 23.5903 25.3358 23.645 25.4427 23.6886Z" fill="white"/>
<path d="M31.8861 31.6351C33.123 32.3505 35.2181 31.0392 36.5644 28.7096C37.9106 26.3799 37.9965 23.909 36.7596 23.1951L35.6712 22.6225C34.3425 21.9319 32.0041 23.077 30.6943 25.3441C29.3845 27.6111 29.3277 29.8606 30.5661 30.7435L31.8861 31.6351Z" fill="white"/>
<path d="M36.5634 28.71C37.9091 26.379 37.9969 23.9102 36.7593 23.1957C35.5217 22.4811 33.4274 23.7915 32.0816 26.1224C30.7358 28.4534 30.6482 30.9223 31.8858 31.6368C33.1234 32.3513 35.2176 31.0409 36.5634 28.71Z" fill="#A9D2FF"/>
<path d="M31.2216 28.1758L29.7938 27.6338C29.5024 29.0033 29.7574 30.1689 30.5675 30.7458L31.7403 31.5385C30.9929 30.9702 30.8268 29.6663 31.2216 28.1758Z" fill="#A9D2FF"/>
<path d="M29.6754 28.6536C29.6754 29.5685 29.9668 30.3173 30.5642 30.7442L31.737 31.5369C31.1877 31.1187 30.9517 30.3028 31.0231 29.3077L29.6754 28.6536Z" fill="#5762FC"/>
<path d="M33.5768 29.0759C33.8444 28.6125 33.8618 28.1217 33.6158 27.9796C33.3698 27.8376 32.9536 28.0982 32.686 28.5616C32.4185 29.025 32.401 29.5157 32.6469 29.6578C32.8929 29.7998 33.3093 29.5393 33.5768 29.0759Z" fill="#5762FC"/>
<path d="M36.7258 26.6249C36.9934 26.1615 37.0109 25.6707 36.7649 25.5287C36.5189 25.3867 36.1026 25.6472 35.8351 26.1106C35.5675 26.574 35.55 27.0648 35.796 27.2069C36.042 27.3489 36.4583 27.0883 36.7258 26.6249Z" fill="#5762FC"/>
</svg>
