<svg width="49" height="46" viewBox="0 0 49 46" fill="none" xmlns="http://www.w3.org/2000/svg">
<g clip-path="url(#clip0_5401_29871)">
<path d="M34.4299 13.3711C34.4299 15.6414 37.5608 17.4834 41.4195 17.4834C45.2781 17.4834 48.409 15.6414 48.409 13.3711V16.3566C48.409 18.6268 45.2781 20.4688 41.4195 20.4688C37.5608 20.4688 34.4299 18.6268 34.4299 16.3566V13.3711Z" fill="#00D09C"/>
<path d="M41.427 20.1091C37.5684 20.1091 34.4374 18.2671 34.4374 15.9927V16.3544C34.4374 18.6247 37.5684 20.4667 41.427 20.4667C45.2856 20.4667 48.4166 18.6247 48.4166 16.3544V15.9844C48.4083 18.2671 45.2773 20.1091 41.427 20.1091Z" fill="#00D09C"/>
<path d="M42.2303 20.7637C43.3839 20.6941 44.5173 20.4283 45.5816 19.9779V16.9883C44.5184 17.4424 43.3845 17.7083 42.2303 17.7741V20.7637Z" fill="#CBFFF2"/>
<path d="M34.4299 16.3477C34.4299 18.6221 37.5608 20.4641 41.4195 20.4641C45.2781 20.4641 48.409 18.6221 48.409 16.3477V19.3373C48.409 21.6075 45.2781 23.4495 41.4195 23.4495C37.5608 23.4495 34.4299 21.6075 34.4299 19.3373V16.3477Z" fill="#00D09C"/>
<path d="M41.427 23.0888C37.5684 23.0888 34.4374 21.2468 34.4374 18.9766V19.3384C34.4374 21.6086 37.5684 23.4506 41.427 23.4506C45.2856 23.4506 48.4166 21.6086 48.4166 19.3384V18.9766C48.4083 21.2468 45.2773 23.0888 41.427 23.0888Z" fill="#00D09C"/>
<path d="M42.2303 23.4197C43.3851 23.3519 44.5199 23.0875 45.5858 22.638V19.6484C44.5226 20.1025 43.3886 20.3684 42.2344 20.4343L42.2303 23.4197Z" fill="#CBFFF2"/>
<path d="M34.4299 19.3359C34.4299 21.6062 37.5608 23.4481 41.4195 23.4481C45.2781 23.4481 48.409 21.6062 48.409 19.3359V22.3213C48.409 24.5916 45.2781 26.4336 41.4195 26.4336C37.5608 26.4336 34.4299 24.5916 34.4299 22.3213V19.3359Z" fill="#00D09C"/>
<path d="M41.427 26.0774C37.5684 26.0774 34.4374 24.2354 34.4374 21.9609V22.3227C34.4374 24.5929 37.5684 26.4349 41.427 26.4349C45.2856 26.4349 48.4166 24.5929 48.4166 22.3227V21.9609C48.4083 24.2354 45.2773 26.0774 41.427 26.0774Z" fill="#00D09C"/>
<path d="M42.2303 26.4039C43.3842 26.3362 44.5179 26.0704 45.5816 25.618V22.6367C44.5173 23.0872 43.3839 23.353 42.2303 23.4226V26.4039Z" fill="#CBFFF2"/>
<path d="M34.4299 22.3125C34.4299 24.5869 37.5608 26.4289 41.4195 26.4289C45.2781 26.4289 48.409 24.5869 48.409 22.3125V25.3021C48.409 27.5724 45.2781 29.4144 41.4195 29.4144C37.5608 29.4144 34.4299 27.5724 34.4299 25.3021V22.3125Z" fill="#00D09C"/>
<path d="M41.427 29.0578C37.5684 29.0578 34.4374 27.2158 34.4374 24.9414V25.3031C34.4374 27.5734 37.5684 29.4154 41.427 29.4154C45.2856 29.4154 48.4166 27.5734 48.4166 25.3031V24.9414C48.4083 27.2117 45.2773 29.0578 41.427 29.0578Z" fill="#00D09C"/>
<path d="M42.2303 29.3846C43.3839 29.3149 44.5173 29.0492 45.5816 28.5987V25.6133C44.5173 26.0638 43.3839 26.3295 42.2303 26.3991V29.3846Z" fill="#CBFFF2"/>
<path d="M41.4195 17.4784C45.2797 17.4784 48.409 15.6373 48.409 13.3662C48.409 11.095 45.2797 9.25391 41.4195 9.25391C37.5592 9.25391 34.4299 11.095 34.4299 13.3662C34.4299 15.6373 37.5592 17.4784 41.4195 17.4784Z" fill="#CBFFF2"/>
</g>
<g clip-path="url(#clip1_5401_29871)">
<path d="M34.4299 4.74609C34.4299 7.01636 37.5608 8.85836 41.4195 8.85836C45.2781 8.85836 48.409 7.01636 48.409 4.74609V7.73156C48.409 10.0018 45.2781 11.8438 41.4195 11.8438C37.5608 11.8438 34.4299 10.0018 34.4299 7.73156V4.74609Z" fill="#00D09C"/>
<path d="M41.427 11.4841C37.5684 11.4841 34.4374 9.64212 34.4374 7.3677V7.72944C34.4374 9.99971 37.5684 11.8417 41.427 11.8417C45.2856 11.8417 48.4166 9.99971 48.4166 7.72944V7.35938C48.4083 9.64211 45.2773 11.4841 41.427 11.4841Z" fill="#00D09C"/>
<path d="M42.2303 12.1387C43.3839 12.0691 44.5173 11.8033 45.5816 11.3529V8.36328C44.5184 8.81738 43.3845 9.0833 42.2303 9.14915V12.1387Z" fill="#CBFFF2"/>
<path d="M34.4299 7.72266C34.4299 9.99708 37.5608 11.8391 41.4195 11.8391C45.2781 11.8391 48.409 9.99708 48.409 7.72266V10.7123C48.409 12.9825 45.2781 14.8245 41.4195 14.8245C37.5608 14.8245 34.4299 12.9825 34.4299 10.7123V7.72266Z" fill="#00D09C"/>
<path d="M41.427 14.4638C37.5684 14.4638 34.4374 12.6218 34.4374 10.3516V10.7134C34.4374 12.9836 37.5684 14.8256 41.427 14.8256C45.2856 14.8256 48.4166 12.9836 48.4166 10.7134V10.3516C48.4083 12.6218 45.2773 14.4638 41.427 14.4638Z" fill="#00D09C"/>
<path d="M42.2303 14.7947C43.3851 14.7269 44.5199 14.4625 45.5858 14.013V11.0234C44.5226 11.4775 43.3886 11.7434 42.2344 11.8093L42.2303 14.7947Z" fill="#CBFFF2"/>
<path d="M34.4299 10.7109C34.4299 12.9812 37.5608 14.8232 41.4195 14.8232C45.2781 14.8232 48.409 12.9812 48.409 10.7109V13.6964C48.409 15.9666 45.2781 17.8086 41.4195 17.8086C37.5608 17.8086 34.4299 15.9666 34.4299 13.6964V10.7109Z" fill="#00D09C"/>
<path d="M41.427 17.4524C37.5684 17.4524 34.4374 15.6104 34.4374 13.3359V13.6977C34.4374 15.9679 37.5684 17.8099 41.427 17.8099C45.2856 17.8099 48.4166 15.9679 48.4166 13.6977V13.3359C48.4083 15.6104 45.2773 17.4524 41.427 17.4524Z" fill="#00D09C"/>
<path d="M42.2303 17.7789C43.3842 17.7112 44.5179 17.4454 45.5816 16.993V14.0117C44.5173 14.4622 43.3839 14.728 42.2303 14.7976V17.7789Z" fill="#CBFFF2"/>
<path d="M41.4195 8.85342C45.2797 8.85342 48.409 7.0123 48.409 4.74116C48.409 2.47003 45.2797 0.628906 41.4195 0.628906C37.5592 0.628906 34.4299 2.47003 34.4299 4.74116C34.4299 7.0123 37.5592 8.85342 41.4195 8.85342Z" fill="#CBFFF2"/>
</g>
<path d="M13.0886 24.289L36.7725 37.9683L48.5383 31.1882V23.7262L24.8544 10.0469L13.0886 16.8269V24.289Z" fill="#005B44"/>
<path d="M48.5383 23.7262L36.7725 30.5063L13.0886 16.8269L24.8544 10.0469L48.5383 23.7262Z" fill="#00D09C"/>
<path d="M41.2611 19.4542L29.4953 26.2343L20.4044 21.0301L32.1636 14.25L41.2611 19.4542Z" fill="#CBFFF2"/>
<path d="M29.4762 33.8763L29.4894 26.2355L20.3986 21.0312L20.3787 28.6721L29.4762 33.8763Z" fill="#CBFFF2"/>
<path d="M47.0286 22.8516C46.8578 22.927 46.7102 23.0464 46.6009 23.1977C46.4915 23.3489 46.4243 23.5266 46.4062 23.7123C46.4277 23.9041 46.5006 24.0865 46.6171 24.2403C46.7337 24.3941 46.8895 24.5137 47.0683 24.5863L48.5581 23.7256L47.0286 22.8516Z" fill="#005B44"/>
<path d="M36.7771 30.5087L38.6111 29.4559C38.3904 29.2026 38.1125 29.0056 37.8005 28.8812C37.4884 28.7569 37.1512 28.7087 36.8168 28.7408C36.4778 28.7069 36.1357 28.7567 35.8205 28.886C35.5053 29.0154 35.2267 29.2201 35.0092 29.4824L36.7771 30.5087Z" fill="#005B44"/>
<path d="M14.613 17.7152C14.7953 17.6548 14.954 17.5385 15.0664 17.3828C15.1789 17.2271 15.2394 17.0399 15.2394 16.8478C15.2394 16.6558 15.1789 16.4686 15.0664 16.3129C14.954 16.1572 14.7953 16.0409 14.613 15.9805L13.1232 16.8412L14.613 17.7152Z" fill="#005B44"/>
<path d="M24.8422 10.0586L23.5776 10.7869C23.7312 10.9598 23.9232 11.0943 24.1383 11.1794C24.3533 11.2645 24.5854 11.2979 24.8157 11.2769C25.0507 11.3009 25.2881 11.2662 25.5064 11.1761C25.7248 11.086 25.9174 10.9432 26.0671 10.7604L24.8422 10.0586Z" fill="#005B44"/>
<path d="M0 31.6601L23.6839 45.3394L35.4431 38.5593V26.9392L11.7658 17.418L0 20.0267V31.6601Z" fill="#005B44"/>
<path d="M35.4431 26.9449L23.6839 33.725L0 20.0457L11.7658 13.2656L35.4431 26.9449Z" fill="#00D09C"/>
<path d="M28.5875 22.9738L16.8217 29.7472L7.72424 24.5496L19.49 17.7695L28.5875 22.9738Z" fill="#CBFFF2"/>
<path d="M16.3928 41.2462L16.406 29.4738L7.30853 24.2695L7.29529 36.042L16.3928 41.2462Z" fill="#00D09C"/>
<path d="M33.9385 26.0742C33.7678 26.1496 33.6202 26.2691 33.5108 26.4203C33.4014 26.5716 33.3342 26.7492 33.3161 26.935C33.3381 27.1258 33.4112 27.3071 33.5278 27.4598C33.6443 27.6125 33.7999 27.7308 33.9782 27.8023L35.468 26.9482L33.9385 26.0742Z" fill="#005B44"/>
<path d="M23.6781 33.7199L25.5122 32.6605C25.2895 32.4101 25.0111 32.2155 24.6995 32.0925C24.3878 31.9694 24.0515 31.9213 23.7179 31.9521C23.3779 31.9176 23.0346 31.9672 22.7183 32.0965C22.4019 32.2258 22.1222 32.4309 21.9037 32.6936L23.6781 33.7199Z" fill="#005B44"/>
<path d="M1.74957 21.0504C1.94659 20.9638 2.11683 20.826 2.24258 20.6513C2.36834 20.4767 2.44501 20.2715 2.46466 20.0572C2.44281 19.8383 2.36241 19.6293 2.23192 19.4523C2.10144 19.2752 1.92568 19.1365 1.72309 19.0508L0.00158691 20.044L1.74957 21.0504Z" fill="#005B44"/>
<path d="M11.7352 13.2656L10.411 14.0271C10.7614 14.3645 11.2289 14.553 11.7154 14.553C12.2018 14.553 12.6694 14.3645 13.0197 14.0271L11.7352 13.2656Z" fill="#005B44"/>
<defs>
<clipPath id="clip0_5401_29871">
<rect width="13.9792" height="20.1621" fill="white" transform="translate(34.4299 9.25391)"/>
</clipPath>
<clipPath id="clip1_5401_29871">
<rect width="13.9792" height="20.1621" fill="white" transform="translate(34.4299 0.628906)"/>
</clipPath>
</defs>
</svg>
