<svg width="44" height="44" viewBox="0 0 44 44" fill="none" xmlns="http://www.w3.org/2000/svg">
<g clip-path="url(#clip0_465_21531)">
<path d="M16.3106 18.8387L31.3099 10.3573L22.0268 5L7.01316 13.5496L16.3106 18.8893V18.8387Z" fill="white"/>
<path d="M16.3106 18.8751L7.01195 13.5496L7 31.8453L16.2999 37.185L16.3106 18.8751Z" fill="#5766F2"/>
<path d="M16.2999 37.1606L31.3255 28.638L31.3363 10.3423L16.3106 18.839L16.2999 37.1606Z" fill="#B0D1FA"/>
<path d="M21.1747 40.0001L36.2242 31.4528V22.325L21.1747 30.8463V40.0001Z" fill="#B0D1FA"/>
<path d="M36.2172 22.3289L31.3102 19.501L16.3014 28.06L21.1748 30.8468L36.2172 22.3289Z" fill="white"/>
<path d="M21.1772 30.8478L16.3002 28.0598V37.1865L21.1796 39.9851L21.1772 30.8478Z" fill="#5766F2"/>
<path d="M21.1784 33.5203L36.2243 24.9883V22.325L21.1784 30.8311V33.5203Z" fill="#5766F2"/>
<path d="M24.9457 17.6085V23.094L27.8839 21.4285V15.9478L24.9457 17.6085Z" fill="#5766F2"/>
<path d="M24.6447 17.7786L21.2774 19.6827L21.2702 25.1787L24.6447 23.2652V17.7786Z" fill="#5766F2"/>
<path d="M29.7512 29.6376V35.123L32.6894 33.4563V27.9756L29.7512 29.6376Z" fill="#5766F2"/>
<path d="M29.4509 29.8076L26.0836 31.7117L26.0764 37.2089L29.4509 35.2942V29.8076Z" fill="#5766F2"/>
<path d="M16.6671 16.2526L28.7402 9.42611L21.5919 5.30176L9.50809 12.1835L16.6671 16.2938V16.2526Z" fill="white"/>
<path d="M16.6668 16.2821L9.4899 12.1719L9.48154 13.3155L16.6573 17.4387L16.6668 16.2821Z" fill="#5766F2"/>
<path d="M16.6572 17.4183L28.7554 10.5577L28.7649 9.41406L16.6668 16.2523L16.6572 17.4183Z" fill="#B0D1FA"/>
<path d="M30.4961 17.3423L30.4949 20.0068L36.7681 23.6046V21.04V20.9295L30.4961 17.3423Z" fill="#5766F2"/>
<path d="M22.6042 31.6809L37.6251 23.1465V20.4832L22.6042 28.9881V31.6809Z" fill="#B0D1FA"/>
<path d="M16.3072 25.4009L16.3048 28.0654L22.6043 31.6773V29.1127V29.0022L16.3072 25.4009Z" fill="#5766F2"/>
<path d="M37.6239 20.483L31.3567 16.8711L30.5091 17.3518L35.9588 20.4771L22.5851 28.05L17.1188 24.9552L16.3191 25.4089L22.621 29.0232L22.6043 28.9879L37.6239 20.483Z" fill="white"/>
</g>
<defs>
<clipPath id="clip0_465_21531">
<rect width="30.625" height="35" fill="white" transform="translate(7 5)"/>
</clipPath>
</defs>
</svg>
