<svg width="64" height="64" viewBox="0 0 64 64" fill="none" xmlns="http://www.w3.org/2000/svg">
<g clip-path="url(#clip0_5025_36041)">
<path d="M25.8183 27.3742L46.4662 15.5002L33.6871 8L13.0195 19.9694L25.8183 27.445V27.3742Z" fill="white"/>
<path d="M25.8169 27.4253L13.0165 19.9695L13 45.5835L25.8021 53.059L25.8169 27.4253Z" fill="#5766F2"/>
<path d="M25.8008 53.0244L46.4848 41.0928L46.4997 15.4788L25.8156 27.3742L25.8008 53.0244Z" fill="#B0D1FA"/>
<path d="M32.5117 57.0001L53.2287 45.0339V32.2549L32.5117 44.1848V57.0001Z" fill="#B0D1FA"/>
<path d="M53.2166 32.2599L46.4618 28.3008L25.8008 40.2834L32.5095 44.1849L53.2166 32.2599Z" fill="white"/>
<path d="M32.5145 44.1866L25.8008 40.2834V53.0608L32.5178 56.9788L32.5145 44.1866Z" fill="#5766F2"/>
<path d="M32.5156 47.9284L53.2277 35.9836V32.2549L32.5156 44.1634V47.9284Z" fill="#5766F2"/>
<path d="M37.7031 25.6513V33.3309L41.7478 30.9992V23.3262L37.7031 25.6513Z" fill="#5766F2"/>
<path d="M37.2898 25.8899L32.6544 28.5556L32.6445 36.25L37.2898 33.5711V25.8899Z" fill="#5766F2"/>
<path d="M44.3203 42.4933V50.1729L48.365 47.8395V40.1665L44.3203 42.4933Z" fill="#5766F2"/>
<path d="M43.907 42.7302L39.2716 45.396L39.2617 53.092L43.907 50.4115V42.7302Z" fill="#5766F2"/>
<path d="M26.3081 23.7541L42.9277 14.1969L33.0876 8.42285L16.4531 18.0573L26.3081 23.8117V23.7541Z" fill="white"/>
<path d="M26.3091 23.7951L16.4295 18.0408L16.418 19.6419L26.296 25.4143L26.3091 23.7951Z" fill="#5766F2"/>
<path d="M26.2969 25.3863L42.9511 15.7815L42.9642 14.1804L26.31 23.754L26.2969 25.3863Z" fill="#B0D1FA"/>
<path d="M45.3454 25.2795L45.3438 29.0099L53.9794 34.0468V30.4563V30.3016L45.3454 25.2795Z" fill="#5766F2"/>
<path d="M34.4805 45.353L55.158 33.405V29.6763L34.4805 41.5832V45.353Z" fill="#B0D1FA"/>
<path d="M25.8119 36.561L25.8086 40.2914L34.4804 45.3481V41.7576V41.6029L25.8119 36.561Z" fill="#5766F2"/>
<path d="M55.1561 29.6763L46.5286 24.6196L45.362 25.2926L52.8639 29.6681L34.4539 40.2701L26.929 35.9374L25.8281 36.5726L34.5033 41.6326L34.4802 41.5832L55.1561 29.6763Z" fill="white"/>
</g>
<defs>
<clipPath id="clip0_5025_36041">
<rect width="42.158" height="49" fill="white" transform="translate(13 8)"/>
</clipPath>
</defs>
</svg>
