<svg width="34" height="45" viewBox="0 0 34 45" fill="none" xmlns="http://www.w3.org/2000/svg">
<path d="M29.2504 27.8216L29.222 2.48633C29.2122 2.54467 29.1889 2.59986 29.1539 2.64744C29.1189 2.69501 29.0733 2.73362 29.0207 2.76013V2.82204L10.2109 13.8766C8.88479 14.4457 9.22106 15.9337 10.2109 16.5242H10.2251C10.8272 16.8833 11.5135 17.0748 12.2135 17.079C12.9135 17.0832 13.602 16.8999 14.2083 16.548L29.068 7.89815L29.2504 27.8216Z" fill="#5762FC"/>
<path d="M32.494 4.19201C32.3443 4.10484 32.1744 4.05894 32.0014 4.05894C31.8285 4.05894 31.6586 4.10484 31.5089 4.19201L12.9004 15.0323C12.4455 15.2976 11.9283 15.4358 11.4024 15.4324C10.8765 15.4291 10.361 15.2843 9.9095 15.0133C9.82758 14.964 9.75977 14.8943 9.71267 14.8108C9.66558 14.7273 9.64081 14.633 9.64081 14.5371C9.64081 14.4411 9.66558 14.3468 9.71267 14.2633C9.75977 14.1799 9.82758 14.1101 9.9095 14.0609L29.0342 2.8206C29.0892 2.7883 29.1349 2.74207 29.1666 2.68651C29.1984 2.63095 29.2151 2.56801 29.2151 2.50394C29.2151 2.43987 29.1984 2.37692 29.1666 2.32136C29.1349 2.26581 29.0892 2.21957 29.0342 2.18728C28.9042 2.11069 28.7563 2.07031 28.6056 2.07031C28.4549 2.07031 28.307 2.11069 28.177 2.18728L9.42406 13.2228C9.1997 13.3561 9.01375 13.5458 8.88459 13.7734C8.75543 14.0009 8.6875 14.2584 8.6875 14.5204C8.6875 14.7824 8.75543 15.0399 8.88459 15.2674C9.01375 15.495 9.1997 15.6847 9.42406 15.818H9.43825C10.0344 16.1744 10.7144 16.3642 11.408 16.368C12.1015 16.3718 12.7835 16.1893 13.3835 15.8394L32.5035 4.71343C32.5501 4.68591 32.5888 4.64661 32.6157 4.59941C32.6426 4.55222 32.6568 4.49877 32.6568 4.44438C32.6568 4.38999 32.6426 4.33655 32.6157 4.28936C32.5888 4.24216 32.5501 4.20286 32.5035 4.17534L32.494 4.19201Z" fill="white"/>
<path d="M32.4916 4.72998C32.5391 4.70323 32.5787 4.66417 32.6062 4.61686C32.6337 4.56956 32.6481 4.51572 32.6479 4.46094L32.6858 29.7986C32.6862 29.9578 32.6448 30.1143 32.5658 30.2522C32.4868 30.3902 32.373 30.5047 32.2358 30.5843L13.374 41.5841C12.5567 42.0518 11.6001 42.2105 10.6767 42.0317C10.2355 41.9475 9.81241 41.7863 9.42639 41.5556C9.22515 41.4371 9.05459 41.2724 8.92866 41.075C8.80274 40.8777 8.72499 40.6532 8.70174 40.4199C8.69347 40.3495 8.68875 40.2788 8.68755 40.208V14.5203C8.68545 14.7825 8.75196 15.0406 8.88039 15.2687C9.00882 15.4969 9.19466 15.6871 9.41928 15.8203H9.43347C10.0298 16.1762 10.7098 16.3658 11.4032 16.3695C12.0967 16.3733 12.7786 16.1911 13.3787 15.8417L32.4916 4.72998Z" fill="#A9D2FF"/>
<path d="M33.4058 21.7682V15.2159C33.414 15.143 33.394 15.0696 33.3499 15.0111C33.3058 14.9526 33.241 14.9134 33.169 14.9016L32.6788 14.835L29.695 16.5778C27.8218 17.673 26.6709 19.2897 26.6709 21.8634V21.8777C26.6715 22.2226 26.7627 22.5613 26.9353 22.8594C27.1078 23.1576 27.3556 23.4047 27.6535 23.5757C27.9514 23.7467 28.289 23.8357 28.6321 23.8335C28.9751 23.8313 29.3116 23.7382 29.6073 23.5634L33.4058 21.7682Z" fill="white"/>
<path d="M33.4082 21.7342V15.1914L30.4268 16.8271C28.5536 17.9223 27.4004 19.558 27.4004 22.1151C27.4009 22.4605 27.4919 22.7998 27.6642 23.0986C27.8365 23.3975 28.0841 23.6454 28.382 23.8175C28.6799 23.9896 29.0177 24.0798 29.3612 24.0789C29.7048 24.0781 30.0421 23.9863 30.3392 23.8127L33.1619 22.1627C33.2366 22.1191 33.2986 22.0566 33.3418 21.9814C33.385 21.9062 33.4079 21.821 33.4082 21.7342Z" fill="#A9D2FF"/>
<path d="M31.2805 21.325C31.7105 20.3833 31.506 19.3647 30.8237 19.0497C30.1415 18.7348 29.2398 19.2429 28.8098 20.1846C28.3798 21.1263 28.5843 22.1449 29.2666 22.4599C29.9488 22.7748 30.8505 22.2667 31.2805 21.325Z" fill="white"/>
<path d="M29.7302 1.65844C29.7303 1.45144 29.6761 1.24807 29.5731 1.06887C29.47 0.889673 29.3218 0.740994 29.1433 0.637853C28.9648 0.534711 28.7623 0.480761 28.5564 0.481452C28.3506 0.482143 28.1485 0.53745 27.9707 0.641787L11.7256 10.1392V15.4106C11.9893 15.3824 12.2481 15.3192 12.4952 15.2225C12.5592 15.1963 12.6231 15.1725 12.6847 15.1415C12.7462 15.1106 12.8315 15.0725 12.9025 15.032L28.9061 5.70837L29.7302 5.23219V1.65844Z" fill="white"/>
<path d="M13.3235 11.5654L11.7227 12.5726V13.5321L13.3235 12.5202V11.5654Z" fill="#5762FC"/>
<path d="M13.0535 14.6133C12.7504 14.4038 12.3265 14.4728 11.7819 14.8204L11.7227 14.8633V15.4109C11.9863 15.3827 12.2452 15.3195 12.4923 15.2228C12.5562 15.1966 12.6202 15.1728 12.6817 15.1419C12.7433 15.1109 12.8285 15.0728 12.8996 15.0323L13.2572 14.8228C13.203 14.7407 13.1339 14.6696 13.0535 14.6133Z" fill="#5762FC"/>
<path d="M18.001 12.0628V11.2652C18.001 10.3628 17.8353 9.7819 17.5274 9.52C17.2196 9.2581 16.753 9.32477 16.1255 9.71762C15.5043 10.0961 15.0096 10.6524 14.7046 11.3152C14.3734 12.0789 14.2118 12.9061 14.231 13.739V14.2461L15.1783 13.6914V12.8604C15.1699 12.3737 15.2501 11.8896 15.4151 11.4319C15.5487 11.0838 15.7904 10.7882 16.1042 10.589C16.4239 10.3867 16.6583 10.3819 16.8146 10.5747C16.9709 10.7676 17.0349 11.17 17.0349 11.7819V12.6152L18.001 12.0628Z" fill="#5762FC"/>
<path d="M22.5877 9.39654V8.33942C22.5877 7.45134 22.4219 6.8823 22.114 6.62992C21.8062 6.37755 21.3397 6.44659 20.7121 6.83944C20.0948 7.21623 19.6008 7.76669 19.2913 8.42275C18.9621 9.17201 18.8004 9.98475 18.8177 10.8037V11.5798L19.7649 11.0251V9.93701C19.7582 9.45973 19.8384 8.98525 20.0017 8.53703C20.1368 8.19164 20.3783 7.89878 20.6908 7.70133C21.0105 7.49896 21.245 7.49181 21.4012 7.67991C21.5575 7.868 21.6215 8.26085 21.6215 8.87036V9.96082L22.5877 9.39654Z" fill="#5762FC"/>
<path d="M27.9685 0.641787L26.5879 1.44892C26.9423 2.22042 27.5859 2.81959 28.3782 3.11556C28.8116 3.2653 29.2739 3.31096 29.728 3.24889V1.65844C29.7281 1.45144 29.6739 1.24807 29.5709 1.06887C29.4678 0.889674 29.3195 0.740994 29.141 0.637853C28.9625 0.534711 28.7601 0.480761 28.5542 0.481452C28.3483 0.482143 28.1463 0.53745 27.9685 0.641787Z" fill="#A9D2FF"/>
<path d="M0.408203 33.0312C0.408203 37.4259 6.42619 40.9834 13.8469 40.9834C21.2676 40.9834 27.2856 37.4259 27.2856 33.0312V36.5296C27.2856 40.9243 21.2676 44.4818 13.8469 44.4818C6.42619 44.4818 0.408203 40.9243 0.408203 36.5296V33.0312Z" fill="#5762FC"/>
<path d="M13.8469 40.9835C21.2689 40.9835 27.2856 37.4232 27.2856 33.0313C27.2856 28.6394 21.2689 25.0791 13.8469 25.0791C6.42491 25.0791 0.408203 28.6394 0.408203 33.0313C0.408203 37.4232 6.42491 40.9835 13.8469 40.9835Z" fill="#A9D2FF"/>
<path d="M13.8479 38.8091C19.2382 38.8091 23.6079 36.2224 23.6079 33.0315C23.6079 29.8406 19.2382 27.2539 13.8479 27.2539C8.4576 27.2539 4.08789 29.8406 4.08789 33.0315C4.08789 36.2224 8.4576 38.8091 13.8479 38.8091Z" fill="white"/>
<path d="M14.1006 30.6748L14.0734 33.1906H7.43555" stroke="#5762FC" stroke-width="1.5" stroke-linecap="round" stroke-linejoin="round"/>
</svg>
