<svg width="34" height="33" viewBox="0 0 34 33" fill="none" xmlns="http://www.w3.org/2000/svg">
<path d="M24.5713 22.355V25.2837C24.5713 26.2972 25.9091 27.1177 27.5587 27.1177C29.2082 27.1177 30.5446 26.2972 30.5446 25.2837V21.7539L24.5713 22.355Z" fill="#5762FC"/>
<path d="M2.07422 16.8538V25.3127C2.07422 26.5163 3.66226 27.4907 5.62076 27.4907C7.57925 27.4907 9.16729 26.5121 9.16729 25.3127V16.1465L2.07422 16.8538Z" fill="#5762FC"/>
<path d="M13.4199 22.9319V30.9392C13.4199 32.0771 14.9241 32.9998 16.7749 32.9998C18.6258 32.9998 20.13 32.0771 20.13 30.9392V22.2637L13.4199 22.9319Z" fill="#5762FC"/>
<path d="M13.4199 20.4802V28.4861C13.4199 29.6254 14.9241 30.548 16.7749 30.548C18.6258 30.548 20.13 29.6254 20.13 28.4861V19.8105L13.4199 20.4802Z" fill="#5762FC"/>
<path d="M31.514 17.5575C30.2853 25.0559 23.7332 29.7194 14.9808 28.2865C6.22837 26.8537 -0.585121 17.4974 0.643655 9.9989C1.87243 2.50042 9.88814 -1.44872 18.347 0.493002C26.392 2.33267 32.7386 10.0548 31.514 17.5575Z" fill="#A9D2FF"/>
<path d="M18.3493 0.488299C16.1887 -0.0178284 13.9544 -0.130078 11.7539 0.156974C12.369 0.236656 12.9883 0.34571 13.6104 0.488299C21.6554 2.33216 24.8035 12.9298 24.9 20.5331C24.9238 22.3505 21.2011 27.8736 13.437 27.9519C23.976 30.4207 30.3114 24.8625 31.5094 17.557C32.741 10.0543 26.3944 2.33216 18.3493 0.488299Z" fill="#5762FC"/>
<path d="M18.3474 0.48914C12.5502 -0.838889 6.96127 0.599571 3.62302 4.04825C3.49301 11.221 9.95842 19.4143 18.1013 20.7493C23.8608 21.6929 28.6669 19.9944 31.6305 16.5862C32.191 9.4051 26.0443 2.25332 18.3474 0.48914Z" fill="white"/>
<path d="M24.2516 11.9778C22.9389 10.633 20.1431 11.051 19.015 12.502C18.0602 13.7322 18.2545 17.1571 20.1235 17.9357C20.7484 15.2881 22.2582 13.1157 24.2362 11.9694" fill="#A9D2FF"/>
<path d="M30.9639 12.1386C31.0198 12.0338 31.0743 11.9247 31.1246 11.8143C31.948 9.99701 31.6712 8.10001 30.5081 7.57299C30.3691 7.51068 30.2217 7.46921 30.0706 7.44996C29.5114 7.36049 27.7011 7.48071 26.6876 7.86934C26.6629 7.87864 26.6407 7.89342 26.6225 7.91254C26.6044 7.93167 26.5908 7.95465 26.5828 7.97978C26.3297 8.75982 26.155 10.1074 26.5157 11.1573C26.8279 11.1088 27.1433 11.0836 27.4593 11.0818C28.7052 11.0881 29.9226 11.4557 30.9639 12.14" fill="white"/>
<path d="M27.4582 11.0826C28.7042 11.0889 29.9216 11.4565 30.9628 12.1408C31.0188 12.036 31.0733 11.927 31.1236 11.8165C31.947 9.99923 31.6702 8.10223 30.5071 7.57521C29.344 7.04819 27.735 8.09103 26.9117 9.90554C26.7286 10.3072 26.5953 10.7297 26.5146 11.1637C26.8267 11.1127 27.1421 11.0856 27.4582 11.0826Z" fill="#A9D2FF"/>
<path d="M12.5808 0.847656C11.9987 1.16409 11.4382 1.51904 10.9033 1.91009C14.6702 2.82249 18.0346 4.94363 20.4819 7.94913C21.0515 7.53909 21.6489 7.16916 22.2699 6.84198C19.7874 3.83257 16.3819 1.72567 12.5808 0.847656Z" fill="#A9D2FF"/>
<path d="M20.1146 17.9314C20.7395 15.2838 22.2576 13.1156 24.2357 11.9693C24.1527 11.8742 24.0589 11.7893 23.9561 11.7162C22.8769 10.9809 21.0778 11.74 19.9357 13.4133C18.7936 15.0866 18.7432 17.0395 19.8224 17.7748C19.9141 17.8371 20.012 17.8896 20.1146 17.9314Z" fill="white"/>
<path d="M26.2969 25.5561C27.4838 26.2425 29.494 24.9844 30.7857 22.7491C32.0773 20.5138 32.1598 18.1429 30.973 17.458L29.9287 16.9086C28.6538 16.246 26.4101 17.3447 25.1534 19.5199C23.8967 21.6951 23.8422 23.8534 25.0304 24.7006L26.2969 25.5561Z" fill="white"/>
<path d="M30.7847 22.7495C32.076 20.513 32.1601 18.1442 30.9727 17.4586C29.7852 16.773 27.7758 18.0303 26.4845 20.2668C25.1933 22.5033 25.1091 24.8722 26.2966 25.5578C27.4841 26.2434 29.4934 24.9861 30.7847 22.7495Z" fill="#A9D2FF"/>
<path d="M25.6594 22.2369L24.2894 21.7168C24.0098 23.0308 24.2545 24.1492 25.0317 24.7027L26.157 25.4633C25.4399 24.9181 25.2805 23.6669 25.6594 22.2369Z" fill="#A9D2FF"/>
<path d="M24.1758 22.6953C24.1758 23.5732 24.4554 24.2917 25.0285 24.7013L26.1538 25.4618C25.6268 25.0606 25.4004 24.2777 25.4689 23.3229L24.1758 22.6953Z" fill="#5762FC"/>
<path d="M27.9191 23.1005C28.1758 22.6559 28.1926 22.1849 27.9566 22.0487C27.7205 21.9124 27.3211 22.1624 27.0644 22.607C26.8077 23.0517 26.7909 23.5226 27.0269 23.6588C27.263 23.7951 27.6624 23.5451 27.9191 23.1005Z" fill="#5762FC"/>
<path d="M30.9406 20.7489C31.1973 20.3043 31.2141 19.8334 30.9781 19.6971C30.7421 19.5609 30.3426 19.8108 30.0859 20.2555C29.8292 20.7001 29.8124 21.171 30.0485 21.3073C30.2845 21.4436 30.6839 21.1936 30.9406 20.7489Z" fill="#5762FC"/>
</svg>
