<svg width="37" height="49" viewBox="0 0 37 49" fill="none" xmlns="http://www.w3.org/2000/svg">
<path d="M32.0656 30.2301L32.034 2.21484C32.0231 2.27935 31.9972 2.34039 31.9583 2.39299C31.9194 2.4456 31.8687 2.4883 31.8102 2.51761V2.58606L10.8981 14.81C9.42374 15.4392 9.7976 17.0847 10.8981 17.7376H10.9139C11.5832 18.1348 12.3462 18.3465 13.1245 18.3511C13.9027 18.3557 14.6682 18.1531 15.3422 17.764L31.8628 8.19913L32.0656 30.2301Z" fill="#005B44"/>
<path d="M35.6718 4.10394C35.5054 4.00756 35.3165 3.9568 35.1242 3.9568C34.9319 3.9568 34.743 4.00756 34.5766 4.10394L13.8883 16.0909C13.3825 16.3843 12.8075 16.5371 12.2229 16.5334C11.6382 16.5297 11.0651 16.3696 10.5631 16.0699C10.472 16.0154 10.3966 15.9383 10.3443 15.846C10.2919 15.7537 10.2644 15.6494 10.2644 15.5433C10.2644 15.4372 10.2919 15.3329 10.3443 15.2406C10.3966 15.1483 10.472 15.0712 10.5631 15.0168L31.8253 2.58747C31.8865 2.55175 31.9373 2.50063 31.9726 2.4392C32.0078 2.37776 32.0264 2.30815 32.0264 2.23731C32.0264 2.16646 32.0078 2.09686 31.9726 2.03542C31.9373 1.97398 31.8865 1.92286 31.8253 1.88715C31.6808 1.80246 31.5163 1.75781 31.3488 1.75781C31.1813 1.75781 31.0168 1.80246 30.8723 1.88715L10.0234 14.09C9.77398 14.2374 9.56725 14.4472 9.42365 14.6988C9.28005 14.9505 9.20453 15.2352 9.20453 15.5249C9.20453 15.8146 9.28005 16.0993 9.42365 16.3509C9.56725 16.6025 9.77398 16.8124 10.0234 16.9597H10.0392C10.702 17.3538 11.458 17.5638 12.2291 17.5679C13.0001 17.5721 13.7584 17.3703 14.4254 16.9834L35.6824 4.68052C35.7342 4.65009 35.7773 4.60663 35.8071 4.55444C35.837 4.50225 35.8528 4.44316 35.8528 4.38301C35.8528 4.32287 35.837 4.26377 35.8071 4.21159C35.7773 4.1594 35.7342 4.11594 35.6824 4.08551L35.6718 4.10394Z" fill="#CBFFF2"/>
<path d="M35.6691 4.69594C35.722 4.66635 35.766 4.62317 35.7966 4.57086C35.8271 4.51855 35.8431 4.45902 35.8429 4.39844L35.885 32.4164C35.8855 32.5924 35.8394 32.7654 35.7516 32.9179C35.6638 33.0705 35.5373 33.1972 35.3848 33.2852L14.4148 45.4486C13.5062 45.9656 12.4427 46.1412 11.4161 45.9435C10.9256 45.8503 10.4552 45.6721 10.026 45.417C9.80227 45.2859 9.61265 45.1038 9.47265 44.8856C9.33264 44.6674 9.24621 44.4191 9.22036 44.1611C9.21117 44.0833 9.20591 44.0051 9.20458 43.9268V15.5219C9.20225 15.8118 9.27619 16.0972 9.41898 16.3495C9.56176 16.6018 9.76837 16.8121 10.0181 16.9594H10.0339C10.6969 17.3529 11.4528 17.5626 12.2238 17.5667C12.9948 17.5709 13.7529 17.3694 14.4201 16.9831L35.6691 4.69594Z" fill="#00D09C"/>
<path d="M36.6865 23.5377V16.2923C36.6957 16.2117 36.6735 16.1306 36.6244 16.0659C36.5754 16.0012 36.5034 15.9578 36.4233 15.9448L35.8783 15.8711L32.561 17.7983C30.4784 19.0094 29.1989 20.797 29.1989 23.643V23.6588C29.1996 24.0402 29.301 24.4147 29.4928 24.7444C29.6846 25.0741 29.9601 25.3473 30.2913 25.5364C30.6226 25.7256 30.9979 25.8239 31.3793 25.8215C31.7607 25.8191 32.1347 25.7161 32.4636 25.5228L36.6865 23.5377Z" fill="#CBFFF2"/>
<path d="M36.6885 23.5005V16.2656L33.3739 18.0743C31.2913 19.2854 30.0092 21.0941 30.0092 23.9217C30.0098 24.3037 30.1109 24.6788 30.3025 25.0093C30.4941 25.3397 30.7693 25.6139 31.1005 25.8042C31.4317 25.9945 31.8072 26.0942 32.1892 26.0933C32.5712 26.0923 32.9462 25.9908 33.2765 25.7989L36.4147 23.9744C36.4977 23.9261 36.5667 23.857 36.6147 23.7739C36.6628 23.6907 36.6882 23.5965 36.6885 23.5005Z" fill="#00D09C"/>
<path d="M34.3228 23.0475C34.8008 22.0062 34.5735 20.8798 33.815 20.5316C33.0565 20.1833 32.0541 20.7452 31.576 21.7865C31.0979 22.8277 31.3253 23.9542 32.0838 24.3024C32.8423 24.6506 33.8447 24.0888 34.3228 23.0475Z" fill="#CBFFF2"/>
<path d="M32.6001 1.30149C32.6003 1.0726 32.54 0.847718 32.4255 0.649565C32.3109 0.451411 32.1461 0.287004 31.9476 0.172952C31.7491 0.0589006 31.5241 -0.000756533 31.2952 7.24264e-06C31.0663 0.000771018 30.8417 0.0619287 30.644 0.177302L12.5832 10.6794V16.5084C12.8764 16.4772 13.1641 16.4073 13.4388 16.3004C13.5099 16.2714 13.581 16.2451 13.6495 16.2109C13.7179 16.1766 13.8127 16.1345 13.8917 16.0898L31.6839 5.77983L32.6001 5.25328V1.30149Z" fill="#CBFFF2"/>
<path d="M14.3587 12.2539L12.5789 13.3676V14.4286L14.3587 13.3096V12.2539Z" fill="#005B44"/>
<path d="M14.0585 15.6229C13.7215 15.3912 13.2503 15.4675 12.6447 15.8519L12.5789 15.8993V16.5049C12.8721 16.4737 13.1598 16.4038 13.4346 16.2969C13.5057 16.2679 13.5768 16.2416 13.6452 16.2074C13.7137 16.1731 13.8084 16.131 13.8874 16.0862L14.2849 15.8546C14.2248 15.7637 14.1479 15.6851 14.0585 15.6229Z" fill="#005B44"/>
<path d="M19.5589 12.8054V11.9234C19.5589 10.9256 19.3746 10.2832 19.0323 9.99361C18.6901 9.70401 18.1714 9.77773 17.4737 10.2121C16.7831 10.6307 16.233 11.2458 15.894 11.9787C15.5258 12.8232 15.3461 13.7378 15.3675 14.6589V15.2197L16.4206 14.6062V13.6874C16.4113 13.1492 16.5005 12.6138 16.6839 12.1077C16.8324 11.7228 17.1011 11.396 17.45 11.1757C17.8054 10.9519 18.0661 10.9467 18.2399 11.1599C18.4136 11.3732 18.4847 11.8181 18.4847 12.4947V13.4162L19.5589 12.8054Z" fill="#005B44"/>
<path d="M24.6579 9.85627V8.68732C24.6579 7.7053 24.4736 7.07607 24.1314 6.797C23.7891 6.51792 23.2704 6.59427 22.5727 7.02868C21.8864 7.44532 21.3372 8.05401 20.9931 8.77947C20.6271 9.60799 20.4474 10.5067 20.4665 11.4122V12.2705L21.5196 11.6571V10.4539C21.5122 9.92614 21.6014 9.40147 21.7829 8.90584C21.9331 8.52391 22.2016 8.20008 22.5491 7.98174C22.9045 7.75796 23.1651 7.75006 23.3389 7.95805C23.5127 8.16604 23.5838 8.60044 23.5838 9.27443V10.4802L24.6579 9.85627Z" fill="#005B44"/>
<path d="M30.6388 0.177302L29.1039 1.06981C29.4979 1.92292 30.2134 2.58547 31.0943 2.91275C31.5762 3.07833 32.0901 3.12882 32.595 3.06018V1.30149C32.5952 1.0726 32.5349 0.847719 32.4203 0.649565C32.3057 0.451411 32.1409 0.287004 31.9425 0.172952C31.744 0.0589006 31.5189 -0.000756533 31.2901 7.24264e-06C31.0612 0.000771018 30.8365 0.0619287 30.6388 0.177302Z" fill="#00D09C"/>
<path d="M0 35.9922C0 40.8517 6.69061 44.7856 14.9407 44.7856C23.1908 44.7856 29.8814 40.8517 29.8814 35.9922V39.8606C29.8814 44.7201 23.1908 48.654 14.9407 48.654C6.69061 48.654 0 44.7201 0 39.8606V35.9922Z" fill="#005B44"/>
<path d="M14.9407 44.786C23.1922 44.786 29.8814 40.849 29.8814 35.9926C29.8814 31.1361 23.1922 27.1992 14.9407 27.1992C6.68918 27.1992 0 31.1361 0 35.9926C0 40.849 6.68918 44.786 14.9407 44.786Z" fill="#00D09C"/>
<path d="M14.9422 42.3791C20.935 42.3791 25.7931 39.5188 25.7931 35.9903C25.7931 32.4619 20.935 29.6016 14.9422 29.6016C8.94947 29.6016 4.09137 32.4619 4.09137 35.9903C4.09137 39.5188 8.94947 42.3791 14.9422 42.3791Z" fill="#CBFFF2"/>
<path d="M15.2228 33.3867L15.1927 36.1686H7.81287" stroke="#005B44" stroke-width="1.5" stroke-linecap="round" stroke-linejoin="round"/>
</svg>
