<svg width="44" height="44" viewBox="0 0 44 44" fill="none" xmlns="http://www.w3.org/2000/svg">
<g clip-path="url(#clip0_465_22160)">
<path d="M16.3121 18.841L31.3139 10.3582L22.0293 5L7.01315 13.551L16.3121 18.8915V18.841Z" fill="#CBFFF2"/>
<path d="M16.3121 18.8775L7.01196 13.551L7 31.8497L16.3014 37.1903L16.3121 18.8775Z" fill="#005B44"/>
<path d="M16.3014 37.1657L31.3294 28.6417L31.3402 10.343L16.3121 18.8411L16.3014 37.1657Z" fill="var(--green500)"/>
<path d="M21.1768 40.0059L36.2288 31.4573V22.3279L21.1768 30.8507V40.0059Z" fill="var(--green500)"/>
<path d="M36.2215 22.3313L31.3138 19.5029L16.3025 28.0633L21.1767 30.8506L36.2215 22.3313Z" fill="#CBFFF2"/>
<path d="M21.1792 30.8517L16.3014 28.0632V37.1914L21.1816 39.9904L21.1792 30.8517Z" fill="#005B44"/>
<path d="M21.1804 33.5251L36.2288 24.9917V22.3279L21.1804 30.8354V33.5251Z" fill="#005B44"/>
<path d="M24.9488 17.6103V23.0966L27.8875 21.4308V15.9492L24.9488 17.6103Z" fill="#005B44"/>
<path d="M24.6475 17.7808L21.2797 19.6852L21.2725 25.1821L24.6475 23.2683V17.7808Z" fill="#005B44"/>
<path d="M29.7549 29.642V35.1283L32.6936 33.4614V27.9797L29.7549 29.642Z" fill="#005B44"/>
<path d="M29.4548 29.8113L26.087 31.7157L26.0798 37.2138L29.4548 35.2988V29.8113Z" fill="#005B44"/>
<path d="M16.6684 16.2547L28.7435 9.42703L21.5941 5.302L9.50826 12.1849L16.6684 16.2958V16.2547Z" fill="#CBFFF2"/>
<path d="M16.6684 16.284L9.49033 12.1731L9.48196 13.3169L16.6589 17.4408L16.6684 16.284Z" fill="#005B44"/>
<path d="M16.6589 17.4208L28.759 10.5591L28.7686 9.41528L16.6684 16.2547L16.6589 17.4208Z" fill="var(--green500)"/>
<path d="M30.4997 17.3445L30.4985 20.0095L36.7728 23.6078V21.0428V20.9323L30.4997 17.3445Z" fill="#005B44"/>
<path d="M22.6067 31.6851L37.63 23.1494V20.4856L22.6067 28.9919V31.6851Z" fill="var(--green500)"/>
<path d="M16.3086 25.4041L16.3062 28.069L22.6067 31.6815V29.1165V29.006L16.3086 25.4041Z" fill="#005B44"/>
<path d="M37.6288 20.4855L31.3605 16.873L30.5129 17.3538L35.9634 20.4797L22.5876 28.0538L17.1203 24.9585L16.3205 25.4123L22.6234 29.0271L22.6067 28.9919L37.6288 20.4855Z" fill="#CBFFF2"/>
</g>
<defs>
<clipPath id="clip0_465_22160">
<rect width="30.63" height="35.0057" fill="white" transform="translate(7 5)"/>
</clipPath>
</defs>
</svg>
