<svg width="45" height="42" viewBox="0 0 45 42" fill="none" xmlns="http://www.w3.org/2000/svg">
<g clip-path="url(#clip0_332_24513)">
<path d="M31.6982 12.335C31.6982 14.3811 34.5202 16.0413 37.9979 16.0413C41.4756 16.0413 44.2976 14.3811 44.2976 12.335V15.0257C44.2976 17.0719 41.4756 18.7321 37.9979 18.7321C34.5202 18.7321 31.6982 17.0719 31.6982 15.0257V12.335Z" fill="#A9D2FF"/>
<path d="M38.0047 18.41C34.527 18.41 31.7051 16.7498 31.7051 14.6999V15.0259C31.7051 17.0721 34.527 18.7323 38.0047 18.7323C41.4825 18.7323 44.3044 17.0721 44.3044 15.0259V14.6924C44.2969 16.7498 41.475 18.41 38.0047 18.41Z" fill="#A9D2FF"/>
<path d="M38.7288 18.9985C39.7685 18.9357 40.79 18.6962 41.7493 18.2902V15.5957C40.7911 16.005 39.769 16.2446 38.7288 16.304V18.9985Z" fill="white"/>
<path d="M31.6982 15.0186C31.6982 17.0685 34.5202 18.7287 37.9979 18.7287C41.4756 18.7287 44.2976 17.0685 44.2976 15.0186V17.7131C44.2976 19.7593 41.4756 21.4194 37.9979 21.4194C34.5202 21.4194 31.6982 19.7593 31.6982 17.7131V15.0186Z" fill="#A9D2FF"/>
<path d="M38.0047 21.0936C34.527 21.0936 31.7051 19.4334 31.7051 17.3872V17.7133C31.7051 19.7595 34.527 21.4196 38.0047 21.4196C41.4825 21.4196 44.3044 19.7595 44.3044 17.7133V17.3872C44.2969 19.4334 41.475 21.0936 38.0047 21.0936Z" fill="#A9D2FF"/>
<path d="M38.7288 21.3932C39.7696 21.332 40.7924 21.0938 41.753 20.6886V17.9941C40.7948 18.4034 39.7728 18.643 38.7325 18.7024L38.7288 21.3932Z" fill="white"/>
<path d="M31.6982 17.7129C31.6982 19.7591 34.5202 21.4192 37.9979 21.4192C41.4756 21.4192 44.2976 19.7591 44.2976 17.7129V20.4036C44.2976 22.4498 41.4756 24.11 37.9979 24.11C34.5202 24.11 31.6982 22.4498 31.6982 20.4036V17.7129Z" fill="#A9D2FF"/>
<path d="M38.0047 23.7877C34.527 23.7877 31.7051 22.1276 31.7051 20.0776V20.4037C31.7051 22.4498 34.527 24.11 38.0047 24.11C41.4825 24.11 44.3044 22.4498 44.3044 20.4037V20.0776C44.2969 22.1276 41.475 23.7877 38.0047 23.7877Z" fill="#A9D2FF"/>
<path d="M38.7288 24.0838C39.7688 24.0228 40.7906 23.7832 41.7493 23.3755V20.6885C40.79 21.0945 39.7685 21.334 38.7288 21.3968V24.0838Z" fill="white"/>
<path d="M31.6982 20.396C31.6982 22.4459 34.5202 24.1061 37.9979 24.1061C41.4756 24.1061 44.2976 22.4459 44.2976 20.396V23.0905C44.2976 25.1367 41.4756 26.7969 37.9979 26.7969C34.5202 26.7969 31.6982 25.1367 31.6982 23.0905V20.396Z" fill="#A9D2FF"/>
<path d="M38.0047 26.4747C34.527 26.4747 31.7051 24.8146 31.7051 22.7646V23.0907C31.7051 25.1369 34.527 26.797 38.0047 26.797C41.4825 26.797 44.3044 25.1369 44.3044 23.0907V22.7646C44.2969 24.8108 41.475 26.4747 38.0047 26.4747Z" fill="#A9D2FF"/>
<path d="M38.7288 26.7706C39.7685 26.7079 40.79 26.4683 41.7493 26.0623V23.3716C40.79 23.7776 39.7685 24.0171 38.7288 24.0799V26.7706Z" fill="white"/>
<path d="M37.9979 16.0377C41.4771 16.0377 44.2976 14.3783 44.2976 12.3313C44.2976 10.2844 41.4771 8.625 37.9979 8.625C34.5187 8.625 31.6982 10.2844 31.6982 12.3313C31.6982 14.3783 34.5187 16.0377 37.9979 16.0377Z" fill="white"/>
</g>
<g clip-path="url(#clip1_332_24513)">
<path d="M31.6982 4.56152C31.6982 6.6077 34.5202 8.26787 37.9979 8.26787C41.4756 8.26787 44.2976 6.6077 44.2976 4.56152V7.2523C44.2976 9.29847 41.4756 10.9586 37.9979 10.9586C34.5202 10.9586 31.6982 9.29847 31.6982 7.2523V4.56152Z" fill="#A9D2FF"/>
<path d="M38.0047 10.6365C34.527 10.6365 31.7051 8.97637 31.7051 6.92645V7.25248C31.7051 9.29865 34.527 10.9588 38.0047 10.9588C41.4825 10.9588 44.3044 9.29865 44.3044 7.25248V6.91895C44.2969 8.97636 41.475 10.6365 38.0047 10.6365Z" fill="#A9D2FF"/>
<path d="M38.7288 11.225C39.7685 11.1623 40.79 10.9228 41.7493 10.5167V7.82227C40.7911 8.23154 39.769 8.47121 38.7288 8.53056V11.225Z" fill="white"/>
<path d="M31.6982 7.24512C31.6982 9.29504 34.5202 10.9552 37.9979 10.9552C41.4756 10.9552 44.2976 9.29504 44.2976 7.24512V9.93964C44.2976 11.9858 41.4756 13.6459 37.9979 13.6459C34.5202 13.6459 31.6982 11.9858 31.6982 9.93964V7.24512Z" fill="#A9D2FF"/>
<path d="M38.0047 13.3201C34.527 13.3201 31.7051 11.6599 31.7051 9.61377V9.93985C31.7051 11.986 34.527 13.6462 38.0047 13.6462C41.4825 13.6462 44.3044 11.986 44.3044 9.93985V9.61377C44.2969 11.6599 41.475 13.3201 38.0047 13.3201Z" fill="#A9D2FF"/>
<path d="M38.7288 13.6197C39.7696 13.5586 40.7924 13.3203 41.753 12.9152V10.2207C40.7948 10.63 39.7728 10.8696 38.7325 10.929L38.7288 13.6197Z" fill="white"/>
<path d="M31.6982 9.93945C31.6982 11.9856 34.5202 13.6458 37.9979 13.6458C41.4756 13.6458 44.2976 11.9856 44.2976 9.93945V12.6302C44.2976 14.6764 41.4756 16.3365 37.9979 16.3365C34.5202 16.3365 31.6982 14.6764 31.6982 12.6302V9.93945Z" fill="#A9D2FF"/>
<path d="M38.0047 16.0143C34.527 16.0143 31.7051 14.3541 31.7051 12.3042V12.6302C31.7051 14.6764 34.527 16.3366 38.0047 16.3366C41.4825 16.3366 44.3044 14.6764 44.3044 12.6302V12.3042C44.2969 14.3541 41.475 16.0143 38.0047 16.0143Z" fill="#A9D2FF"/>
<path d="M38.7288 16.3104C39.7688 16.2494 40.7906 16.0098 41.7493 15.6021V12.915C40.79 13.321 39.7685 13.5606 38.7288 13.6233V16.3104Z" fill="white"/>
<path d="M37.9979 8.26425C41.4771 8.26425 44.2976 6.60486 44.2976 4.55791C44.2976 2.51095 41.4771 0.851562 37.9979 0.851562C34.5187 0.851562 31.6982 2.51095 31.6982 4.55791C31.6982 6.60486 34.5187 8.26425 37.9979 8.26425Z" fill="white"/>
</g>
<path d="M12.4629 22.1771L33.809 34.5062L44.4134 28.3954V21.6699L23.0673 9.34082L12.4629 15.4516V22.1771Z" fill="#5762FC"/>
<path d="M44.4134 21.6699L33.809 27.7807L12.4629 15.4516L23.0673 9.34082L44.4134 21.6699Z" fill="#A9D2FF"/>
<path d="M37.8536 17.8204L27.2492 23.9312L19.0557 19.2407L29.6541 13.1299L37.8536 17.8204Z" fill="white"/>
<path d="M27.2337 30.8184L27.2456 23.9317L19.0521 19.2412L19.0342 26.1278L27.2337 30.8184Z" fill="white"/>
<path d="M43.0531 20.8828C42.8993 20.9508 42.7662 21.0585 42.6677 21.1948C42.5691 21.3311 42.5085 21.4912 42.4922 21.6586C42.5116 21.8315 42.5773 21.9958 42.6823 22.1345C42.7873 22.2731 42.9278 22.3809 43.0889 22.4463L44.4317 21.6705L43.0531 20.8828Z" fill="#5762FC"/>
<path d="M33.8131 27.7804L35.4661 26.8316C35.2672 26.6033 35.0167 26.4257 34.7355 26.3136C34.4542 26.2015 34.1503 26.1581 33.8489 26.1871C33.5434 26.1565 33.235 26.2014 32.9509 26.318C32.6668 26.4345 32.4157 26.6191 32.2197 26.8554L33.8131 27.7804Z" fill="#5762FC"/>
<path d="M13.8369 16.251C14.0012 16.1966 14.1442 16.0917 14.2455 15.9514C14.3469 15.8111 14.4014 15.6424 14.4014 15.4693C14.4014 15.2961 14.3469 15.1274 14.2455 14.9871C14.1442 14.8468 14.0012 14.7419 13.8369 14.6875L12.4941 15.4633L13.8369 16.251Z" fill="#5762FC"/>
<path d="M23.0558 9.35254L21.916 10.009C22.0544 10.1648 22.2275 10.286 22.4214 10.3627C22.6152 10.4394 22.8244 10.4695 23.032 10.4506C23.2438 10.4722 23.4577 10.441 23.6545 10.3597C23.8513 10.2785 24.0249 10.1498 24.1598 9.9851L23.0558 9.35254Z" fill="#5762FC"/>
<path d="M0.666992 28.8197L22.0131 41.1488L32.6115 35.0379V24.5648L11.2714 15.9834L0.666992 18.3346V28.8197Z" fill="#5762FC"/>
<path d="M32.6115 24.5703L22.0131 30.6811L0.666992 18.352L11.2714 12.2412L32.6115 24.5703Z" fill="#A9D2FF"/>
<path d="M26.4328 20.9913L15.8284 27.0962L7.62891 22.4116L18.2333 16.3008L26.4328 20.9913Z" fill="white"/>
<path d="M15.4417 37.4601L15.4536 26.8497L7.25412 22.1592L7.24219 32.7696L15.4417 37.4601Z" fill="#A9D2FF"/>
<path d="M31.2543 23.7891C31.1004 23.857 30.9674 23.9647 30.8688 24.101C30.7703 24.2373 30.7097 24.3974 30.6934 24.5648C30.7132 24.7368 30.7791 24.9003 30.8841 25.0379C30.9892 25.1755 31.1294 25.2821 31.2901 25.3466L32.6328 24.5768L31.2543 23.7891Z" fill="#5762FC"/>
<path d="M22.0075 30.6821L23.6605 29.7272C23.4598 29.5015 23.2089 29.3262 22.928 29.2153C22.6471 29.1044 22.3441 29.061 22.0433 29.0887C21.7369 29.0576 21.4275 29.1023 21.1424 29.2189C20.8572 29.3354 20.6051 29.5202 20.4082 29.7571L22.0075 30.6821Z" fill="#5762FC"/>
<path d="M2.24341 19.2592C2.42099 19.1812 2.57442 19.057 2.68776 18.8996C2.8011 18.7422 2.87021 18.5573 2.88792 18.3641C2.86822 18.1668 2.79576 17.9785 2.67815 17.8189C2.56055 17.6593 2.40214 17.5343 2.21955 17.457L0.667969 18.3522L2.24341 19.2592Z" fill="#5762FC"/>
<path d="M11.2433 12.2412L10.0498 12.9275C10.3656 13.2316 10.787 13.4015 11.2254 13.4015C11.6639 13.4015 12.0852 13.2316 12.401 12.9275L11.2433 12.2412Z" fill="#5762FC"/>
<defs>
<clipPath id="clip0_332_24513">
<rect width="12.5993" height="18.172" fill="white" transform="translate(31.6982 8.625)"/>
</clipPath>
<clipPath id="clip1_332_24513">
<rect width="12.5993" height="18.172" fill="white" transform="translate(31.6982 0.851562)"/>
</clipPath>
</defs>
</svg>
