<svg width="44" height="44" viewBox="0 0 44 44" fill="none" xmlns="http://www.w3.org/2000/svg">
<g clip-path="url(#clip0_465_21530)">
<path d="M22.9404 36.0736L12 29.7041V33.6305L22.9404 40.029" fill="#5766F2"/>
<path d="M15.8117 14.7142L23.115 18.9605L29.7432 15.133L22.4225 10.8867L15.8117 14.7142Z" fill="white"/>
<path d="M23.1265 35.2126L29.7605 31.391V15.1387L23.1265 18.9603V35.2126Z" fill="#B0D1FA"/>
<path d="M23.1265 18.9604L15.8116 14.7083V30.9605L23.1265 35.2127" fill="#5766F2"/>
<path d="M24.5988 33.2292L25.105 32.9441V19.0244L24.5988 19.3094V33.2292Z" fill="#5766F2"/>
<path d="M26.4436 32.1413L26.9499 31.8563V17.9365L26.4436 18.2215V32.1413Z" fill="#5766F2"/>
<path d="M28.2126 31.1761L28.7073 30.8911V16.9946L28.2126 17.2797V31.1761Z" fill="#5766F2"/>
<path d="M30.1041 31.9439V35.8703L33.8693 33.6424V29.7102" fill="#B0D1FA"/>
<path d="M25.3903 32.2285V36.1607L28.009 34.6483V30.7219" fill="#B0D1FA"/>
<path d="M27.7066 33.3223L22.9405 36.0736V40L27.7066 37.2545V33.3223Z" fill="#B0D1FA"/>
<path d="M30.0983 31.9437L33.875 29.7101L29.7607 27.3193V29.6112L27.9626 30.7047L30.0983 31.9437Z" fill="white"/>
<path d="M25.5708 32.0833L23.2547 33.4212L15.8059 29.0818V27.5112L12 29.7042L22.9404 36.0736L27.7006 33.3281L25.5708 32.0833Z" fill="white"/>
<path d="M30.1041 35.8702L27.9684 34.6312L27.9626 30.7048L30.0983 31.9438L30.1041 35.8702Z" fill="#5766F2"/>
<path d="M17.7087 13.2658L23.0218 16.3662L27.8519 13.5857L22.5155 10.4854L17.7087 13.2658Z" fill="white"/>
<path d="M23.0567 17.7621L27.8809 14.9758V13.574L23.0567 16.3544V17.7621Z" fill="#B0D1FA"/>
<path d="M23.0566 16.3544L17.7144 13.2656V14.6617L23.0566 17.7621" fill="#5766F2"/>
<path d="M20.5659 12.0559L22.9693 13.4577L25.1516 12.2013L22.7424 10.8169L20.5659 12.0559Z" fill="white"/>
<path d="M22.9751 14.6153L25.1574 13.3531V12.1897L22.9751 13.4461V14.6153Z" fill="#B0D1FA"/>
<path d="M22.975 13.452L20.5716 12.0559V13.2193L22.975 14.6211" fill="#5766F2"/>
<path d="M20.5659 10.7181L22.9693 12.12L25.1516 10.8635L22.7424 9.46167L20.5659 10.7181Z" fill="white"/>
<path d="M22.9751 13.2711L25.1574 12.0147V10.8513L22.9751 12.1078V13.2711Z" fill="#B0D1FA"/>
<path d="M22.975 12.1141L20.5716 10.718V11.8814L22.975 13.2774" fill="#5766F2"/>
<path d="M20.5659 9.3746L22.9693 10.7765L25.1516 9.52003L22.7424 8.11816L20.5659 9.3746Z" fill="white"/>
<path d="M22.9751 11.934L25.1574 10.6775V9.51416L22.9751 10.7764V11.934Z" fill="#B0D1FA"/>
<path d="M22.975 10.7764L20.5716 9.37451V10.5379L22.975 11.9397" fill="#5766F2"/>
<path d="M22.9518 9.8338L22.9169 5L22.364 9.50224L22.9518 9.8338Z" fill="#5766F2"/>
<path d="M22.9517 9.8338L22.9167 5L23.586 9.53715L22.9517 9.8338Z" fill="#B0D1FA"/>
<path d="M14.9621 29.0356L15.8117 28.5062V27.3894L14.9621 27.878V29.0356Z" fill="#B0D1FA"/>
<path d="M15.0377 27.9301L15.8117 27.4822V26.3188L12.966 27.965L23.1441 33.8982L24.1392 33.2525L15.0377 27.9301Z" fill="white"/>
<path d="M12.9718 27.9648L12.966 29.1398L22.888 34.9393L22.8938 33.7642L12.9718 27.9648Z" fill="#5766F2"/>
<path d="M26.6938 31.5596L25.5823 30.9023L21.7997 33.1069L22.8763 33.7352L26.6938 31.5596Z" fill="white"/>
<path d="M29.7491 26.0979L29.7607 27.3253L30.7791 27.9186L27.9626 29.5473L29.0799 30.193L32.9265 27.9709L29.7491 26.0979Z" fill="white"/>
<path d="M29.0799 31.3564L27.9626 30.7107L27.9684 29.5415L29.0799 30.193V31.3564Z" fill="#5766F2"/>
<path d="M29.7608 28.5118L30.7792 27.9243L29.7608 27.3252V28.5118Z" fill="#5766F2"/>
<path d="M22.8939 34.9218L26.6998 32.7347V31.5713L22.8997 33.7584L22.8939 34.9218Z" fill="#B0D1FA"/>
<path d="M32.9439 27.959L29.0798 30.1927V31.3502L32.9439 29.1224V27.959Z" fill="#B0D1FA"/>
</g>
<defs>
<clipPath id="clip0_465_21530">
<rect width="21.875" height="35" fill="white" transform="translate(12 5)"/>
</clipPath>
</defs>
</svg>
