<svg width="43" height="44" viewBox="0 0 43 44" fill="none" xmlns="http://www.w3.org/2000/svg">
<path d="M31.6534 29.3998V33.251C31.6534 34.5837 33.4126 35.6627 35.5817 35.6627C37.7509 35.6627 39.5082 34.5837 39.5082 33.251V28.6094L31.6534 29.3998Z" fill="#005B44"/>
<path d="M2.06879 22.1645V33.2878C2.06879 34.8705 4.15704 36.1518 6.73243 36.1518C9.30782 36.1518 11.3961 34.865 11.3961 33.2878V21.2344L2.06879 22.1645Z" fill="#005B44"/>
<path d="M16.9882 30.16V40.6894C16.9882 42.1858 18.9662 43.3991 21.4 43.3991C23.8339 43.3991 25.8118 42.1858 25.8118 40.6894V29.2812L16.9882 30.16Z" fill="#005B44"/>
<path d="M16.9882 26.9352V37.4629C16.9882 38.9611 18.9662 40.1743 21.4 40.1743C23.8339 40.1743 25.8118 38.9611 25.8118 37.4629V26.0547L16.9882 26.9352Z" fill="#005B44"/>
<path d="M40.783 23.093C39.1672 32.9534 30.5513 39.0858 19.042 37.2016C7.53272 35.3174 -1.42692 23.014 0.188905 13.1536C1.80473 3.29326 12.3453 -1.8998 23.4685 0.653534C34.0476 3.07267 42.3933 13.2271 40.783 23.093Z" fill="#00D09C"/>
<path d="M23.4716 0.64735C20.6303 -0.0181999 17.6923 -0.165806 14.7987 0.211662C15.6075 0.316443 16.4219 0.459848 17.2399 0.64735C27.819 3.072 31.9588 17.0078 32.0856 27.006C32.1169 29.3958 27.2216 36.6587 17.012 36.7616C30.8705 40.0079 39.2015 32.6991 40.7769 23.0924C42.3964 13.2265 34.0507 3.072 23.4716 0.64735Z" fill="#005B44"/>
<path d="M23.4677 0.647118C15.8445 -1.09922 8.49518 0.792333 4.10544 5.3273C3.93448 14.7594 12.4364 25.5333 23.1442 27.2889C30.7178 28.5297 37.0377 26.2962 40.9348 21.8146C41.6719 12.3715 33.5891 2.96699 23.4677 0.647118Z" fill="#CBFFF2"/>
<path d="M31.233 15.7562C29.5069 13.9878 25.8304 14.5374 24.3469 16.4455C23.0914 18.0632 23.3469 22.5669 25.8046 23.5908C26.6263 20.1092 28.6116 17.2525 31.2128 15.7452" fill="#00D09C"/>
<path d="M40.0595 15.9641C40.1331 15.8263 40.2048 15.6829 40.2709 15.5377C41.3537 13.148 40.9897 10.6535 39.4603 9.96044C39.2775 9.87849 39.0836 9.82396 38.8849 9.79865C38.1496 9.681 35.7691 9.83909 34.4363 10.3501C34.4039 10.3624 34.3746 10.3818 34.3507 10.4069C34.3269 10.4321 34.309 10.4623 34.2985 10.4954C33.9657 11.5211 33.736 13.2932 34.2102 14.6737C34.6208 14.61 35.0356 14.5769 35.451 14.5745C37.0895 14.5827 38.6903 15.0661 40.0595 15.966" fill="#CBFFF2"/>
<path d="M35.4497 14.5771C37.0881 14.5854 38.689 15.0688 40.0582 15.9687C40.1317 15.8308 40.2034 15.6875 40.2696 15.5422C41.3523 13.1525 40.9883 10.658 39.4589 9.96496C37.9295 9.27194 35.8137 10.6433 34.7309 13.0293C34.4902 13.5575 34.3149 14.1131 34.2089 14.6837C34.6192 14.6167 35.034 14.5811 35.4497 14.5771Z" fill="#00D09C"/>
<path d="M15.8849 1.11719C15.1193 1.5333 14.3824 2.00004 13.679 2.51428C18.6324 3.71406 23.0565 6.50333 26.2746 10.4555C27.0237 9.91632 27.8093 9.42986 28.6258 8.99963C25.3614 5.0423 20.8832 2.27176 15.8849 1.11719Z" fill="#00D09C"/>
<path d="M25.7929 23.585C26.6146 20.1033 28.6109 17.2522 31.212 15.7448C31.103 15.6198 30.9796 15.5081 30.8444 15.4121C29.4253 14.4451 27.0594 15.4433 25.5576 17.6437C24.0557 19.8441 23.9896 22.4121 25.4087 23.379C25.5292 23.4609 25.658 23.5299 25.7929 23.585Z" fill="#CBFFF2"/>
<path d="M33.9226 33.608C35.4832 34.5105 38.1266 32.8561 39.8252 29.9167C41.5237 26.9774 41.6322 23.8597 40.0715 22.959L38.6983 22.2366C37.0219 21.3652 34.0715 22.8101 32.4189 25.6704C30.7663 28.5307 30.6946 31.369 32.2571 32.4829L33.9226 33.608Z" fill="#CBFFF2"/>
<path d="M39.824 29.9201C41.5219 26.9791 41.6326 23.8641 40.0711 22.9626C38.5096 22.061 35.8673 23.7143 34.1693 26.6553C32.4713 29.5963 32.3607 32.7113 33.9222 33.6129C35.4837 34.5144 38.126 32.8611 39.824 29.9201Z" fill="#00D09C"/>
<path d="M33.0842 29.2464L31.2827 28.5625C30.9151 30.2905 31.2368 31.761 32.2588 32.489L33.7386 33.4891C32.7956 32.7721 32.586 31.1269 33.0842 29.2464Z" fill="#00D09C"/>
<path d="M31.1333 29.8477C31.1333 31.0021 31.501 31.9469 32.2546 32.4855L33.7344 33.4856C33.0414 32.958 32.7436 31.9285 32.8337 30.673L31.1333 29.8477Z" fill="#005B44"/>
<path d="M36.0557 30.3793C36.3933 29.7946 36.4153 29.1754 36.1049 28.9962C35.7946 28.817 35.2694 29.1457 34.9318 29.7304C34.5942 30.3151 34.5721 30.9343 34.8825 31.1135C35.1929 31.2927 35.7182 30.964 36.0557 30.3793Z" fill="#005B44"/>
<path d="M40.0276 27.2894C40.3652 26.7048 40.3873 26.0855 40.0769 25.9064C39.7666 25.7272 39.2413 26.0559 38.9037 26.6406C38.5661 27.2252 38.5441 27.8445 38.8545 28.0237C39.1648 28.2028 39.6901 27.8741 40.0276 27.2894Z" fill="#005B44"/>
</svg>
