<svg width="18" height="19" viewBox="0 0 18 19" fill="currentColor" xmlns="http://www.w3.org/2000/svg">
<path fill-rule="evenodd" clip-rule="evenodd" d="M16.8261 4.00599H15.5159C15.6887 3.73248 15.8027 3.42546 15.8353 3.10075C15.9391 2.06305 15.3926 1.13281 14.4622 0.720394C13.607 0.341304 12.6459 0.496273 11.9539 1.12395L10.2994 2.62337C9.97724 2.27096 9.51405 2.04948 9 2.04948C8.48503 2.04948 8.02111 2.27166 7.69883 2.62516L6.04227 1.12378C5.34909 0.496097 4.38841 0.341726 3.53359 0.720605C2.60343 1.13306 2.05682 2.06361 2.16102 3.10128C2.19361 3.42574 2.30759 3.73262 2.48038 4.00599H1.1739C0.525551 4.00599 0 4.53158 0 5.17989V6.94076C0 7.26491 0.262793 7.52773 0.586969 7.52773H17.4131C17.7372 7.52773 18 7.26494 18 6.94076V5.17989C18 4.53158 17.4744 4.00599 16.8261 4.00599ZM7.23912 3.81041V4.00606H4.47784C3.74828 4.00606 3.17411 3.32592 3.35632 2.56634C3.43658 2.23183 3.67804 1.94667 3.99033 1.80232C4.41917 1.60411 4.8942 1.66774 5.25437 1.99375L7.23961 3.79312L7.23938 3.80041L7.23912 3.81041ZM13.4641 4.00615C14.0757 4.00615 14.6268 3.55506 14.6705 2.945C14.7113 2.37564 14.3835 1.90096 13.8253 1.73446C13.4364 1.61845 13.0156 1.74568 12.7149 2.01824L10.7604 3.7898C10.7604 3.79295 10.7605 3.79608 10.7606 3.79922C10.7607 3.80298 10.7609 3.80673 10.7609 3.81051V4.00615H13.4641Z"/>
<path d="M1.17383 8.70178V17.3105C1.17383 17.9588 1.69938 18.4844 2.34773 18.4844H7.82599V8.70178H1.17383Z"/>
<path d="M10.1738 8.70178V18.4844H15.6521C16.3004 18.4844 16.826 17.9588 16.826 17.3105V8.70178H10.1738Z"/>
</svg>
