<svg width="40" height="32" viewBox="0 0 40 32" fill="none" xmlns="http://www.w3.org/2000/svg">
  <path fill-rule="evenodd" clip-rule="evenodd"
    d="M27.1445 7.15829C27.1445 11.1054 23.9333 14.3166 19.9862 14.3166C16.0391 14.3166 12.8279 11.1054 12.8279 7.15829C12.8279 3.21117 16.0391 0 19.9862 0C23.9333 0 27.1445 3.21117 27.1445 7.15829ZM25.8008 7.15829C25.8008 3.95207 23.1924 1.34362 19.9862 1.34362C16.7799 1.34362 14.1715 3.95207 14.1715 7.15829C14.1715 10.3645 16.7799 12.973 19.9862 12.973C23.1924 12.973 25.8008 10.3645 25.8008 7.15829Z"
    fill="#00D09C" />
  <path
    d="M21.5927 5.4511H21.0469C21.0021 5.23686 20.9247 5.03547 20.8106 4.85123H21.5927C21.8167 4.85123 22 4.65841 22 4.42274C22 4.18708 21.8167 3.99426 21.5927 3.99426H18.4074C18.1834 3.99426 18.0001 4.18708 18.0001 4.42274C18.0001 4.65841 18.1834 4.85123 18.4074 4.85123H19.3198C19.7027 4.85123 20.0367 5.10831 20.1874 5.4511H18.4074C18.1834 5.4511 18.0001 5.64392 18.0001 5.87958C18.0001 6.11525 18.1834 6.30806 18.4074 6.30806H20.1874C20.1345 6.40661 20.0734 6.4966 20 6.57801C19.8167 6.76654 19.5723 6.86937 19.3198 6.86509H18.4074C18.1793 6.86937 17.996 7.06219 18.0001 7.30214C18.0001 7.41783 18.0489 7.52924 18.1263 7.61065L20.4033 9.87732C20.5662 10.0401 20.8228 10.0316 20.9776 9.86018C21.1324 9.68878 21.1243 9.41884 20.9613 9.25602L19.4257 7.72634C19.8575 7.70063 20.2648 7.5121 20.5703 7.19074C20.8025 6.9465 20.9654 6.64228 21.0469 6.30806H21.5927C21.8167 6.30806 22 6.11525 22 5.87958C22 5.64392 21.8167 5.4511 21.5927 5.4511Z"
    fill="#00D09C" />
  <circle cx="4.02765" cy="25.9765" r="1.23591" fill="#00D09C" />
  <path fill-rule="evenodd" clip-rule="evenodd"
    d="M39.8234 18.2982L39.8028 18.2469C38.8287 15.827 36.1358 14.6011 33.671 15.4566L28.643 17.2015C27.5249 16.0006 25.7997 15.4426 24.142 15.8646L18.8032 17.223C17.5874 17.5324 16.2728 17.3402 15.1965 16.6958C13.6837 15.7902 11.9522 15.3116 10.189 15.3116H10.1822L8.05535 15.3131V13.3C8.05535 12.929 7.75454 12.6282 7.38354 12.6282H0.671812C0.30081 12.6282 0 12.929 0 13.3V30.9287C0 31.2997 0.30081 31.6005 0.671812 31.6005H7.38354C7.75454 31.6005 8.05535 31.2997 8.05535 30.9287V27.603L10.1899 27.6031C11.3763 27.6031 12.5289 27.8444 13.6157 28.3201L14.9473 28.9031C16.1112 29.4126 17.3512 29.6666 18.5901 29.6666C19.9441 29.6666 21.2967 29.3631 22.5465 28.7582C27.3139 26.4503 35.7696 22.3575 38.8374 20.875C39.7871 20.4159 40.2202 19.284 39.8234 18.2982ZM6.71173 15.9853V26.9311V30.2568H1.34362V13.9718H6.71173V15.9853ZM21.9611 27.5487C26.7285 25.2409 35.1846 21.1478 38.2527 19.6652C38.5736 19.51 38.7131 19.138 38.5771 18.7998L38.5565 18.7484C37.8504 16.9942 35.8981 16.106 34.1116 16.7257L29.4287 18.3509L29.507 18.5389L29.5104 18.5471L30.0086 19.743C30.0173 19.7639 30.0249 19.785 30.0314 19.8064C30.0713 19.9376 30.069 20.0733 30.031 20.1975C30.0304 20.1996 30.0296 20.2017 30.0288 20.2038C30.028 20.2059 30.0272 20.208 30.0265 20.2101C30.0211 20.2266 30.0154 20.2432 30.0088 20.2592L30.0081 20.261C30.0064 20.2649 30.0046 20.2686 30.0027 20.2724C30.0013 20.2751 29.9999 20.2779 29.9986 20.2807C29.9928 20.2935 29.9871 20.3064 29.9805 20.3187C29.978 20.3235 29.9752 20.3281 29.9724 20.3326C29.9708 20.3352 29.9693 20.3377 29.9678 20.3403L29.9662 20.343C29.9598 20.354 29.9534 20.3649 29.9464 20.3755C29.944 20.3791 29.9414 20.3826 29.9388 20.3861C29.9368 20.3887 29.9348 20.3914 29.9329 20.3941L29.9328 20.3941C29.9245 20.4058 29.9162 20.4174 29.907 20.4286C29.9025 20.434 29.8977 20.4389 29.8931 20.4441C29.8832 20.4555 29.8732 20.4668 29.8624 20.4776C29.8597 20.4803 29.8568 20.4829 29.8539 20.4855C29.8519 20.4873 29.8499 20.4891 29.8479 20.4909C29.8368 20.5014 29.8255 20.5118 29.8136 20.5216C29.8101 20.5245 29.8064 20.5271 29.8028 20.5298C29.8006 20.5314 29.7984 20.5331 29.7962 20.5347C29.7846 20.5437 29.7729 20.5525 29.7606 20.5607C29.7532 20.5657 29.7454 20.5699 29.7378 20.5745C29.7266 20.5814 29.7155 20.5883 29.7037 20.5946C29.6942 20.5996 29.6843 20.6038 29.6747 20.6084C29.6711 20.6101 29.6675 20.6119 29.6639 20.6136C29.6583 20.6164 29.6526 20.6192 29.6467 20.6217L29.6424 20.6232L29.6392 20.6247L19.8092 24.5819L19.3075 23.3356L28.5067 19.6323L28.4592 19.5183L28.3828 19.3349L28.2672 19.0575C27.6502 17.5858 26.0203 16.7732 24.4732 17.1667L19.1344 18.5251C17.5743 18.922 15.8875 18.6754 14.5062 17.8486C13.202 17.0679 11.709 16.6552 10.1889 16.6552H10.1831L8.05535 16.6567V26.2594L10.1899 26.2595C11.5629 26.2595 12.8968 26.5386 14.1545 27.0893L15.4861 27.6723C17.5619 28.5809 19.922 28.536 21.9611 27.5487Z"
    fill="#00D09C" />
</svg>
