<svg xmlns="http://www.w3.org/2000/svg" width="95" height="76" viewBox="0 0 95 76">
    <g fill="none">
        <path fill="#D2AB66" d="M68.016 49.653l-6.755 1.43-3.225-1.43H37.177l-3.225 1.43-6.754-1.43c-1.935 0-3.322-1.884-2.727-3.738l6.562-20.422c.38-1.185 1.482-1.989 2.726-1.989h27.696c1.244 0 2.345.804 2.726 1.989l6.561 20.422c.597 1.863-.801 3.738-2.726 3.738z"/>
        <path fill="#FFF" d="M68.016 49.653l-6.755 1.43-3.225-1.43h-10.43V23.504h13.849c1.244 0 2.345.804 2.726 1.989l6.561 20.422c.597 1.863-.801 3.738-2.726 3.738z" opacity=".22"/>
        <path fill="#FDDB9D" d="M87.688 16.209c-.859-1.28-2.592-1.62-3.871-.761l-6.349 4.263c-1.279.858-1.62 2.591-.76 3.87.859 1.28 2.592 1.62 3.87.761l6.349-4.262c1.279-.859 1.62-2.592.76-3.871zM17.745 19.71l-6.348-4.262c-1.279-.86-3.012-.518-3.871.761s-.518 3.012.76 3.87l6.35 4.263c1.278.86 3.012.519 3.87-.76.86-1.28.518-3.013-.76-3.871zM47.607.076c-1.54 0-2.79 1.249-2.79 2.79v6.282c0 1.54 1.25 2.79 2.79 2.79s2.79-1.25 2.79-2.79V2.866c0-1.541-1.25-2.79-2.79-2.79z"/>
        <path fill="#D2AB66" d="M43.684 75.803H2.865c-1.94 0-3.32-1.891-2.726-3.74L6.7 51.641c.38-1.185 1.482-1.988 2.726-1.988h27.695c1.244 0 2.346.803 2.727 1.987l6.562 20.423c.594 1.849-.785 3.74-2.726 3.74z"/>
        <path fill="#FFF" d="M43.684 75.803h-20.41v-26.15H37.12c1.244 0 2.346.803 2.727 1.988l6.562 20.422c.594 1.849-.785 3.74-2.726 3.74z" opacity=".22"/>
        <path fill="#D2AB66" d="M91.983 75.803h-40.82c-1.94 0-3.32-1.891-2.725-3.74l6.56-20.422c.381-1.185 1.483-1.988 2.727-1.988H85.42c1.244 0 2.345.803 2.726 1.987l6.563 20.423c.594 1.849-.785 3.74-2.726 3.74z"/>
        <path fill="#FFF" d="M91.983 75.803h-20.41v-26.15H85.42c1.244 0 2.346.803 2.726 1.988l6.563 20.422c.594 1.849-.785 3.74-2.726 3.74z" opacity=".22"/>
    </g>
</svg>
