<svg width="41" height="32" viewBox="0 0 41 32" fill="none" xmlns="http://www.w3.org/2000/svg">
  <path
    d="M28.967 20.3852L26.1896 20.9732L24.8636 20.3852H16.2866L14.9606 20.9732L12.1832 20.3852C11.3875 20.3852 10.8175 19.6107 11.0622 18.8481L13.76 10.4509C13.9168 9.96378 14.3695 9.63342 14.8811 9.63342H26.2691C26.7807 9.63342 27.2334 9.96378 27.3902 10.4509L30.088 18.8481C30.3335 19.6144 29.7584 20.3852 28.967 20.3852Z"
    stroke="#00D09C" />
  <path
    d="M37.0558 6.63373C36.7027 6.10776 35.9899 5.96774 35.4641 6.32081L32.8537 8.07352C32.3278 8.42666 32.1877 9.13929 32.5408 9.66517C32.894 10.1913 33.6068 10.3311 34.1325 9.97809L36.7429 8.22539C37.2688 7.87224 37.4089 7.15962 37.0558 6.63373Z"
    fill="#00D09C" />
  <path
    d="M8.29658 8.07346L5.68618 6.32075C5.16037 5.96754 4.44759 6.10771 4.09452 6.63367C3.74138 7.15956 3.88148 7.87227 4.40744 8.22533L7.01784 9.97804C7.54373 10.3312 8.25644 10.1911 8.6095 9.66512C8.96264 9.13923 8.82255 8.42653 8.29658 8.07346Z"
    fill="#00D09C" />
  <path
    d="M20.5753 0C19.9418 0 19.4282 0.513577 19.4282 1.14706V3.73016C19.4282 4.36364 19.9418 4.87722 20.5753 4.87722C21.2088 4.87722 21.7223 4.36364 21.7223 3.73016V1.14706C21.7223 0.513577 21.2088 0 20.5753 0V0Z"
    fill="#00D09C" />
  <path
    d="M18.9623 31.1376H2.17819C1.37999 31.1376 0.813118 30.3601 1.05729 29.6002L3.75509 21.2026C3.91155 20.7157 4.36449 20.3854 4.876 20.3854H16.2638C16.7752 20.3854 17.2282 20.7156 17.3847 21.2025L20.0831 29.6001C20.3273 30.36 19.7605 31.1376 18.9623 31.1376Z"
    stroke="#00D09C" />
  <path
    d="M38.8219 31.1376H22.0378C21.2396 31.1376 20.6727 30.3601 20.9169 29.6002L23.6147 21.2026C23.7712 20.7157 24.2241 20.3854 24.7356 20.3854H36.1234C36.6348 20.3854 37.0878 20.7156 37.2443 21.2025L39.9427 29.6001C40.187 30.36 39.6201 31.1376 38.8219 31.1376V31.1376Z"
    stroke="#00D09C" />
</svg>
