<svg width="30" height="21" viewBox="0 0 30 21" fill="none" xmlns="http://www.w3.org/2000/svg">
<rect x="10.4995" y="15.0002" width="19.5001" height="6.00004" fill="#00D09C"/>
<rect x="11.0522" y="7.5" width="18.9475" height="6.00004" fill="#00D09C"/>
<path d="M11.0522 1C11.0522 0.447715 11.5 0 12.0522 0H28.9998C29.552 0 29.9998 0.447715 29.9998 1V6.00004H11.0522V1Z" fill="#00D09C"/>
<path d="M7.89481 20.6842C12.255 20.6842 15.7896 17.1496 15.7896 12.7894C15.7896 8.42927 12.255 4.89465 7.89481 4.89465C3.53462 4.89465 0 8.42927 0 12.7894C0 17.1496 3.53462 20.6842 7.89481 20.6842Z" fill="#E6FBF6"/>
<path d="M7.89495 19.1056C11.3831 19.1056 14.2108 16.2779 14.2108 12.7897C14.2108 9.30157 11.3831 6.47388 7.89495 6.47388C4.4068 6.47388 1.5791 9.30157 1.5791 12.7897C1.5791 16.2779 4.4068 19.1056 7.89495 19.1056Z" fill="#00D09C"/>
</svg>
