<?xml version="1.0" encoding="UTF-8"?>
<svg width="167px" height="122px" viewBox="0 0 167 122" version="1.1" xmlns="http://www.w3.org/2000/svg" xmlns:xlink="http://www.w3.org/1999/xlink">
    <!-- Generator: Sketch 63.1 (92452) - https://sketch.com -->
    <title>undraw_under_construction_46pa</title>
    <desc>Created with Sketch.</desc>
    <g id="Product-Page-Gold" stroke="none" stroke-width="1" fill="none" fill-rule="evenodd">
        <g id="How-it-works" transform="translate(-145.000000, -716.000000)">
            <g id="Group-2" transform="translate(80.000000, 716.000000)">
                <g id="undraw_under_construction_46pa" transform="translate(65.000000, 0.000000)">
                    <path d="M164.767101,118.669113 C164.767101,119.865956 160.643863,120.987449 153.448785,121.951309 L17.3556353,121.951309 C11.3005875,121.964131 5.35009823,120.373424 0.109178965,117.340845 L0.0285716709,117.295284 C2.096324,116.541781 5.8287922,115.839096 10.9088041,115.204751 L10.9088041,115.204751 L11.1366073,115.176714 C13.4146395,114.898093 15.9607786,114.633491 18.7434826,114.382908 C18.8135759,114.382908 18.8854215,114.372394 18.9555148,114.363632 L18.9555148,114.363632 C21.1634538,114.167371 23.5121634,113.983376 26.0016438,113.811647 C26.0804987,113.811647 26.1576014,113.797628 26.2364563,113.794124 C27.1967345,113.725199 28.1768725,113.659778 29.1768702,113.597863 L29.1768702,113.597863 L29.5623834,113.57333 C36.8433249,113.121228 45.1195912,112.760248 54.0950382,112.52193 L54.1055522,112.52193 C55.3625587,112.486884 56.6329997,112.455926 57.9168753,112.429057 C59.3444422,112.395178 60.7895324,112.365389 62.2521459,112.339688 C63.3683817,112.315155 64.4986361,112.297632 65.6323953,112.280109 L65.6586802,112.280109 C70.7737388,112.203006 76.0587735,112.164455 81.4629669,112.164455 C94.8262545,112.164455 107.457067,112.408029 118.649215,112.846112 L118.680757,112.846112 C120.401547,112.912701 122.090796,112.986299 123.737988,113.061649 L125.139854,113.128237 C126.998495,113.217022 128.809238,113.312232 130.572085,113.413868 L130.572085,113.413868 C151.302178,114.593187 164.767101,116.508487 164.767101,118.669113 Z" id="Path" fill="#6C63FF" fill-rule="nonzero" opacity="0.1"></path>
                    <g id="Group" opacity="0.2" transform="translate(86.995081, 64.041900)">
                        <path d="M10.387827,47.3182341 C10.3822267,47.5072346 10.3605361,47.6954145 10.3229907,47.8807328 C9.10336726,47.686808 7.87673452,47.5115748 6.64309245,47.3550331 C6.64309245,47.3059678 6.64309245,47.2551501 6.64309245,47.2043325 C6.6545108,46.678883 6.80572503,46.1659643 7.08117557,45.7183545 C7.44215606,45.1470941 7.99063613,44.7896183 8.59519084,44.808894 C9.19974555,44.8281696 9.72369296,45.2189398 10.0478745,45.8094758 C10.2930709,46.2733172 10.410404,46.7940582 10.387827,47.3182341 Z" id="Path" fill="#3F3D56" fill-rule="nonzero"></path>
                        <ellipse id="Oval" fill="#3F3D56" fill-rule="nonzero" transform="translate(8.614427, 44.264592) rotate(-88.190000) translate(-8.614427, -44.264592) " cx="8.61442677" cy="44.2645923" rx="2.45501781" ry="1.87499576"></ellipse>
                        <ellipse id="Oval" fill="#3F3D56" fill-rule="nonzero" transform="translate(8.710034, 41.264517) rotate(-88.190000) translate(-8.710034, -41.264517) " cx="8.71003365" cy="41.2645169" rx="2.45501781" ry="1.87499576"></ellipse>
                        <ellipse id="Oval" fill="#3F3D56" fill-rule="nonzero" transform="translate(8.803888, 38.264441) rotate(-88.190000) translate(-8.803888, -38.264441) " cx="8.8038882" cy="38.2644414" rx="2.45501781" ry="1.87499576"></ellipse>
                        <ellipse id="Oval" fill="#3F3D56" fill-rule="nonzero" transform="translate(8.897743, 35.264366) rotate(-88.190000) translate(-8.897743, -35.264366) " cx="8.89774274" cy="35.264366" rx="2.45501781" ry="1.87499576"></ellipse>
                        <path d="M2.51985411,14.5075606 C2.27308341,14.1734356 2.05055236,13.8220708 1.85396777,13.4561612 L6.80605937,12.8025411 L1.47546395,12.6746209 C0.514063257,10.3942132 0.533709777,7.81861777 1.52978626,5.55314165 L8.56014419,9.48712807 L2.12032231,4.43340119 C3.8911408,1.56930473 7.11461716,-0.0643880058 10.4714672,0.2009505 C13.8283172,0.466289006 16.7551003,2.58612221 18.0539609,5.69285807 C19.3528215,8.79959392 18.8057486,12.3717729 16.6366446,14.9473961 C17.0204677,15.4671114 17.3465703,16.0270678 17.6091891,16.617369 L11.109788,19.7365208 L18.0017116,17.6635115 C18.8834791,20.5729786 18.2361929,23.7309705 16.2809211,26.0589364 C19.0619023,29.8320979 18.4755188,35.1090677 14.9340499,38.1796707 C11.392581,41.2502737 6.08576844,41.0829536 2.74476931,37.7953513 C-0.59622983,34.5077489 -0.849020851,29.2043206 2.16413062,25.6138439 C-0.296340025,22.2745621 -0.151515393,17.6850695 2.51459712,14.5075606 L2.51985411,14.5075606 Z" id="Path" fill="#D2AB66"></path>
                        <path d="M18.3837629,20.5671264 C18.3223863,22.5825291 17.581313,24.5179656 16.2809211,26.0589364 C19.0619023,29.8320979 18.4755188,35.1090677 14.9340499,38.1796707 C11.392581,41.2502737 6.08576844,41.0829536 2.74476931,37.7953513 C-0.59622983,34.5077489 -0.849020851,29.2043206 2.16413062,25.6138439 C1.01284818,24.049011 18.4152621,19.5595352 18.3837629,20.5671264 Z" id="Path" fill="#000000" fill-rule="nonzero" opacity="0.1"></path>
                    </g>
                    <g id="Group" opacity="0.2" transform="translate(60.359627, 64.041900)">
                        <path d="M10.387827,47.3182341 C10.3822267,47.5072346 10.3605361,47.6954145 10.3229907,47.8807328 C9.10336726,47.686808 7.87673452,47.5115748 6.64309245,47.3550331 C6.64309245,47.3059678 6.64309245,47.2551501 6.64309245,47.2043325 C6.6545108,46.678883 6.80572503,46.1659643 7.08117557,45.7183545 C7.44215606,45.1470941 7.99063613,44.7896183 8.59519084,44.808894 C9.19974555,44.8281696 9.72369296,45.2189398 10.0478745,45.8094758 C10.2930709,46.2733172 10.410404,46.7940582 10.387827,47.3182341 L10.387827,47.3182341 Z" id="Path" fill="#3F3D56" fill-rule="nonzero"></path>
                        <ellipse id="Oval" fill="#3F3D56" fill-rule="nonzero" transform="translate(8.612508, 44.265322) rotate(-88.190000) translate(-8.612508, -44.265322) " cx="8.61250776" cy="44.2653216" rx="2.45501781" ry="1.87499576"></ellipse>
                        <ellipse id="Oval" fill="#3F3D56" fill-rule="nonzero" transform="translate(8.708115, 41.265246) rotate(-88.190000) translate(-8.708115, -41.265246) " cx="8.70811463" cy="41.2652461" rx="2.45501781" ry="1.87499576"></ellipse>
                        <ellipse id="Oval" fill="#3F3D56" fill-rule="nonzero" transform="translate(8.801969, 38.265171) rotate(-88.190000) translate(-8.801969, -38.265171) " cx="8.80196918" cy="38.2651707" rx="2.45501781" ry="1.87499576"></ellipse>
                        <ellipse id="Oval" fill="#3F3D56" fill-rule="nonzero" transform="translate(8.895824, 35.265095) rotate(-88.190000) translate(-8.895824, -35.265095) " cx="8.89582372" cy="35.2650952" rx="2.45501781" ry="1.87499576"></ellipse>
                        <path d="M2.51985411,14.5075606 C2.27308341,14.1734356 2.05055236,13.8220708 1.85396777,13.4561612 L6.80605937,12.8025411 L1.47546395,12.6746209 C0.514063257,10.3942132 0.533709777,7.81861777 1.52978626,5.55314165 L8.56014419,9.48712807 L2.12032231,4.43340119 C3.8911408,1.56930473 7.11461716,-0.0643880058 10.4714672,0.2009505 C13.8283172,0.466289006 16.7551003,2.58612221 18.0539609,5.69285807 C19.3528215,8.79959392 18.8057486,12.3717729 16.6366446,14.9473961 C17.0204677,15.4671114 17.3465703,16.0270678 17.6091891,16.617369 L11.109788,19.7365208 L18.0017116,17.6635115 C18.8834791,20.5729786 18.2361929,23.7309705 16.2809211,26.0589364 C19.0619023,29.8320979 18.4755188,35.1090677 14.9340499,38.1796707 C11.392581,41.2502737 6.08576844,41.0829536 2.74476931,37.7953513 C-0.59622983,34.5077489 -0.849020851,29.2043206 2.16413062,25.6138439 C-0.296340025,22.2745621 -0.151515393,17.6850695 2.51459712,14.5075606 L2.51985411,14.5075606 Z" id="Path" fill="#D2AB66"></path>
                        <path d="M18.3837629,20.5671264 C18.3223863,22.5825291 17.581313,24.5179656 16.2809211,26.0589364 C19.0619023,29.8320979 18.4755188,35.1090677 14.9340499,38.1796707 C11.392581,41.2502737 6.08576844,41.0829536 2.74476931,37.7953513 C-0.59622983,34.5077489 -0.849020851,29.2043206 2.16413062,25.6138439 C1.01284818,24.049011 18.4152621,19.5595352 18.3837629,20.5671264 Z" id="Path" fill="#D2AB66"></path>
                    </g>
                    <g id="Group" opacity="0.2" transform="translate(123.618830, 22.511620)">
                        <path d="M19.885469,90.7655657 C19.8721025,91.1236109 19.8293183,91.4799509 19.7575488,91.8309839 C17.4094232,91.4559847 15.0443585,91.1207051 12.6623545,90.825145 C12.6623545,90.7305191 12.6623545,90.6341408 12.6623545,90.5360102 C12.6845956,89.5240471 12.9761424,88.5362962 13.5069788,87.6744512 C14.2079118,86.5757388 15.2593113,85.8870721 16.4211077,85.9221187 C17.5829042,85.9571654 18.594,86.7124207 19.2248397,87.8496845 C19.70056,88.7455554 19.9286141,89.7521393 19.885469,90.7655657 L19.885469,90.7655657 Z" id="Path" fill="#3F3D56" fill-rule="nonzero"></path>
                        <ellipse id="Oval" fill="#3F3D56" fill-rule="nonzero" transform="translate(16.466386, 84.882214) rotate(-88.190000) translate(-16.466386, -84.882214) " cx="16.4663857" cy="84.8822137" rx="4.72779304" ry="3.61155725"></ellipse>
                        <ellipse id="Oval" fill="#3F3D56" fill-rule="nonzero" transform="translate(16.648505, 79.106433) rotate(-88.190000) translate(-16.648505, -79.106433) " cx="16.6485045" cy="79.1064331" rx="4.72779304" ry="3.61155725"></ellipse>
                        <ellipse id="Oval" fill="#3F3D56" fill-rule="nonzero" transform="translate(16.832375, 73.330708) rotate(-88.190000) translate(-16.832375, -73.330708) " cx="16.8323748" cy="73.3307078" rx="4.72779304" ry="3.61155725"></ellipse>
                        <ellipse id="Oval" fill="#3F3D56" fill-rule="nonzero" transform="translate(16.807252, 67.297838) rotate(-88.281642) translate(-16.807252, -67.297838) " cx="16.8072517" cy="67.2978384" rx="4.72992007" ry="3.61318209"></ellipse>
                        <path d="M4.73655471,27.600989 C4.26371096,26.9577023 3.83571411,26.2826265 3.45559966,25.5805496 L12.9882884,24.3223749 L2.72838168,24.075296 C0.87621402,19.6855351 0.912973069,14.7268661 2.83001696,10.3650466 L16.3667854,17.9368753 L3.97078541,8.20792536 C7.38711514,2.70751963 13.5891401,-0.424523081 20.0435879,0.0911079715 C26.4980357,0.606739024 32.1241495,4.68370465 34.6238929,10.6567319 C37.1236364,16.6297592 36.0784431,23.498702 31.9152316,28.4578796 C32.6534642,29.4592396 33.2815125,30.5373206 33.788475,31.6734097 L21.2750687,37.6821578 L34.5419779,33.6868397 C36.2406328,39.2812157 34.9995002,45.3550537 31.2423359,49.8345835 C36.59504,57.0985382 35.4655671,67.2566279 28.6479745,73.1673733 C21.8303819,79.0781186 11.6147683,78.7560403 5.18305432,72.4275702 C-1.24865968,66.0991001 -1.73599608,55.8900355 4.06365903,48.977693 C-0.670331111,42.549484 -0.392325299,33.7170077 4.73655471,27.5992366 L4.73655471,27.600989 Z" id="Path" fill="#D2AB66"></path>
                        <path d="M35.279794,39.264514 C35.1647308,43.1422264 33.7446783,46.8677033 31.2493452,49.8380882 C36.6020494,57.1020429 35.4725764,67.2601326 28.6549838,73.1708779 C21.8373913,79.0816233 11.6217777,78.759545 5.19006365,72.4310748 C-1.24165035,66.1026047 -1.72898675,55.8935402 4.07066836,48.9811976 C1.83819678,45.9654334 35.3410416,37.3246819 35.279794,39.264514 Z" id="Path" fill="#000000" fill-rule="nonzero" opacity="0.1"></path>
                    </g>
                    <polygon id="Path" fill="#F1C0C0" fill-rule="nonzero" points="5.83054453 113.585596 7.66874131 113.580339 10.2604411 113.580339 13.5373028 60.347983 45.9887481 6.19565225 44.5781204 4.68163698 44.5781204 0.847533503 9.48240543 59.093313"></polygon>
                    <polygon id="Path" fill="#000000" fill-rule="nonzero" opacity="0.1" points="7.86500254 113.580339 10.2604411 113.580339 13.5373028 60.347983 45.9887481 6.19565225 44.5781204 4.68163698 11.1050653 59.5366531"></polygon>
                    <polygon id="Path" fill="#F1C0C0" fill-rule="nonzero" points="0.414084818 114.028936 84.4997591 120.463501 84.5716047 120.468758 165.948173 115.464097 166.009505 115.460592 166.009505 112.024268 76.3426514 110.378828 1.53382528 110.306982 0.98709754 110.306982 0.927518236 110.692495"></polygon>
                    <polygon id="Path" fill="#000000" fill-rule="nonzero" opacity="0.1" points="0.414084818 114.028936 84.4997591 120.463501 84.5716047 120.468758 165.948173 115.464097 166.009505 115.397508 166.009505 112.096114 165.937659 112.096114 84.4997591 114.815734 1.53382528 110.306982 1.52155895 110.306982 1.37436302 110.40336 0.927518236 110.692495"></polygon>
                    <polygon id="Path" fill="#000000" fill-rule="nonzero" opacity="0.1" points="0.414084818 114.028936 84.4997591 120.463501 84.4997591 114.815734 1.37436302 110.40336 0.927518236 110.692495"></polygon>
                    <polygon id="Path" fill="#F1C0C0" fill-rule="nonzero" points="44.5676064 4.60979135 81.6382002 44.3982528 80.4921747 114.386412 83.6411162 114.766668 83.6936862 114.773678 86.8426277 114.773678 87.2193791 47.403503 156.634526 70.5903664 157.805084 111.87532 160.338957 112.159198 161.1976 112.255576 159.210455 67.7270551 86.6463664 42.2516455 46.857905 0.88783715 44.5676064 0.88783715"></polygon>
                    <polygon id="Path" fill="#000000" fill-rule="nonzero" opacity="0.1" points="86.9337489 46.1155386 87.2193791 47.403503 156.634526 70.5903664 157.805084 111.87532 160.338957 112.159198 158.351812 69.7317235"></polygon>
                    <polygon id="Path" fill="#000000" fill-rule="nonzero" opacity="0.1" points="44.5676064 4.60979135 81.6382002 44.3982528 80.4921747 114.386412 83.6411162 114.766668 84.4997591 42.1079542 44.5676064 0.88783715"></polygon>
                    <polygon id="Path" fill="#F1C0C0" fill-rule="nonzero" points="87.0686785 74.203676 112.528317 79.2170992 112.537079 79.2188516 157.128684 88.0032943 159.170151 87.184955 159.163142 87.0412638 159.029964 84.1937235 87.0949635 69.6581255"></polygon>
                    <polygon id="Path" fill="#000000" fill-rule="nonzero" opacity="0.1" points="112.537079 79.2188516 157.128684 88.0032943 159.170151 87.184955 159.163142 87.0412638"></polygon>
                    <polygon id="Path" fill="#F1C0C0" fill-rule="nonzero" points="114.242098 56.4297676 114.930765 94.3397286 115.286489 113.788867 118.421411 113.683727 120.394538 113.617138 119.781221 56.9782477 118.421411 56.5261459 118.123515 56.4297676"></polygon>
                    <polygon id="Path" fill="#000000" fill-rule="nonzero" opacity="0.1" points="114.270136 56.4210059 114.270136 56.4297676 114.930765 94.3397286 115.286489 113.788867 118.421411 113.683727 118.421411 56.4210059"></polygon>
                    <path d="M65.1364852,66.1114046 C65.3204028,66.211353 65.4961776,66.3256066 65.6621849,66.4531094 C65.8584843,66.6249588 66.0348266,66.8183475 66.1878846,67.0296268 C66.9396353,68.0021713 67.6335589,69.1324258 67.559961,70.3590585 C67.5631339,70.7195175 67.4224993,71.066374 67.1691908,71.3228414 C66.859028,71.5874436 66.4139355,71.5997099 66.0073944,71.5997099 C65.5658066,71.5997099 65.1014385,71.5997099 64.71943,71.3719067 C64.3374215,71.1441035 64.018497,70.7007634 63.5663953,70.7112774 C63.5025767,70.7218344 63.4374572,70.7218344 63.3736387,70.7112774 C63.2176811,70.6604597 63.1861391,70.4554368 63.0845038,70.3257642 C62.9092706,70.092704 62.5395284,70.150531 62.2644122,70.2521662 C61.989296,70.3538015 61.6843902,70.5062545 61.4127786,70.3888482 C61.2551009,70.3056585 61.1262261,70.1767838 61.0430365,70.019106 C60.3929211,68.9677065 60.2544869,67.7042748 60.1318236,66.4828991 C60.0564733,65.7399101 59.4817082,63.2060373 61.0675691,63.7825547 C61.7685021,64.0348906 62.4238745,64.5395623 63.0617235,64.9093045 L65.1364852,66.1114046 Z" id="Path" fill="#3F3D56" fill-rule="nonzero"></path>
                    <path d="M63.5698999,66.3619881 C63.8613643,66.5716371 64.2581762,66.5557357 64.5319304,66.3234368 C64.7928593,66.0876597 64.9591491,65.7650449 64.9998032,65.4157286 C65.1750365,65.3614063 65.2644054,65.5909618 65.3765547,65.7311484 C65.5728159,65.9694656 65.9723478,65.965961 66.1510857,66.2200492 C66.2755013,66.3952824 66.247464,66.6388567 66.3350806,66.8368702 C66.4489822,67.0927108 66.7311077,67.225888 66.9238643,67.4326633 C67.1058837,67.6585806 67.2373432,67.9209021 67.3093774,68.2019372 L67.59676,69.0640848 C67.7342661,69.422622 67.822683,69.7980991 67.8596098,70.1803206 C67.8962188,70.5662979 67.7762578,70.9508045 67.5266667,71.2474911 C67.1411535,71.6627939 66.5085615,71.7066022 65.9495674,71.6943359 C65.7628845,71.6983039 65.5765472,71.6764859 65.3958304,71.6294996 C64.8999203,71.4752943 64.5827481,70.9758796 64.4513232,70.4729601 C64.3198982,69.9700407 64.3339169,69.4425886 64.2568142,68.9274029 C64.1735359,68.4213471 64.0263307,67.9279153 63.8187311,67.4589483 C63.6645259,67.0944631 63.2404614,66.55124 63.2474707,66.1639746 C63.3736387,66.1639746 63.46476,66.2796285 63.5698999,66.3619881 Z" id="Path" fill="#3F3D56" fill-rule="nonzero"></path>
                    <path d="M64.1989873,64.5868753 C64.1170656,64.3380591 64.0693162,64.0792694 64.0570483,63.8176014 C64.0570483,63.2919016 64.2971179,62.7977439 64.5389398,62.3281187 L62.5360237,62.5997303 C62.2942019,62.6330246 62.0243427,62.6820899 61.8876607,62.8836081 C61.782306,63.0862707 61.782306,63.3275563 61.8876607,63.5302188 C61.9880691,63.7301426 62.0679177,63.9397452 62.1259779,64.1558015 C62.1305206,64.344877 62.1522218,64.5331495 62.1908142,64.7183003 C62.2531452,64.8543104 62.3405323,64.9773657 62.4484071,65.0810331 C63.0214198,65.7153774 63.4507413,66.4636234 63.8783104,67.2048601 C63.8660441,67.1838321 65.0856675,66.2393249 65.0366022,65.9309143 C65.0085649,65.7556811 64.6563461,65.5454012 64.5441968,65.3771773 C64.3892808,65.1330044 64.2728493,64.8664531 64.1989873,64.5868753 L64.1989873,64.5868753 Z" id="Path" fill="#BE6F72" fill-rule="nonzero"></path>
                    <polygon id="Path" fill="#F1C0C0" fill-rule="nonzero" points="81.3718456 57.7405123 81.3718456 59.4665598 51.8152536 65.2317337 50.2819627 66.1604699 44.9916709 66.1604699 44.9916709 65.1879254 74.0313249 58.1715861"></polygon>
                    <polygon id="Path" fill="#000000" fill-rule="nonzero" opacity="0.1" points="81.3718456 59.4665598 51.8152536 65.2317337 50.2819627 66.1604699 44.9916709 66.1604699 74.2468617 59.8993859"></polygon>
                    <path d="M57.6417591,106.739233 C56.9636816,105.918035 55.8090365,105.672582 54.8555505,106.146945 C54.7564349,106.193613 54.6690188,106.261869 54.5997099,106.346711 C54.4244767,106.592037 54.536626,106.930237 54.5523969,107.233391 C54.5927006,107.972875 54.0039169,108.573925 53.4747125,109.090863 C53.1908346,109.367732 52.9016997,109.663876 52.7737795,110.040628 C52.6458592,110.417379 52.7404852,110.895766 53.0839423,111.092027 C53.2338266,111.167165 53.3969076,111.2124 53.5640814,111.225204 C54.1241978,111.334468 54.6985168,111.350455 55.2638439,111.272517 C55.822838,111.165625 56.3713181,110.848453 56.6131399,110.333267 C56.6597939,110.193588 56.7370196,110.066076 56.8391908,109.96002 C57.1476014,109.716446 57.6207311,110.002076 57.9711976,109.828595 C58.2603325,109.684904 58.2725988,109.458853 58.2761035,109.160957 C58.2866175,108.33736 58.1639542,107.40512 57.6417591,106.739233 Z" id="Path" fill="#00D09C" fill-rule="nonzero"></path>
                    <path d="M61.8473571,106.707691 C62.062894,107.275447 62.0926836,107.89402 62.1207209,108.500327 C62.1364919,108.850794 62.1470059,109.225793 61.957754,109.521937 C61.7685021,109.818081 61.39876,109.974039 61.0447888,110.047637 C60.3140662,110.198338 59.4676896,110.056399 58.9963121,109.476377 C58.6353316,109.033036 58.5599813,108.424977 58.62657,107.850212 C58.6826446,107.378835 58.8018032,106.82685 58.4636031,106.492154 C58.3759864,106.402785 58.2620848,106.339701 58.1814775,106.243323 C58.0062443,106.029539 58.0342816,105.707109 58.1289075,105.44426 C58.2521457,105.192883 58.3445221,104.927522 58.4040237,104.653958 C58.4180424,104.524285 60.7766819,104.745079 60.9939712,104.851971 C61.2901154,104.997415 61.2445547,105.240989 61.3339237,105.535381 C61.4583393,105.945427 61.6966565,106.315169 61.8473571,106.707691 Z" id="Path" fill="#00D09C" fill-rule="nonzero"></path>
                    <path d="M62.2801832,81.5336828 C62.742799,81.8333316 62.9215369,82.4221154 62.9933825,82.9688431 C63.1913961,84.4670874 62.8444343,85.9811026 62.8181493,87.4933656 C62.7936166,89.6119355 63.406933,91.7690568 62.8829856,93.8210382 C62.5693181,95.0476709 62.8356726,96.4495369 62.5412807,97.688436 C62.4536641,98.0564258 62.2924495,98.4033876 62.2083376,98.7713774 C62.0331043,99.5686887 62.2170992,100.402799 62.4641781,101.182587 C62.5430626,101.39275 62.593166,101.612616 62.6131264,101.836207 C62.6012459,102.180405 62.513908,102.517793 62.3572858,102.824522 L61.3058863,105.311082 C61.1884801,105.589703 60.7258643,105.635264 60.4297201,105.672063 C59.8724784,105.738651 59.2504003,105.785964 58.8070602,105.440755 C58.3637201,105.095545 58.2568278,104.517276 58.1884869,103.977557 C58.0574077,102.941437 57.9988541,101.897428 58.0132536,100.853148 C58.0325139,100.580606 58.0082619,100.306735 57.941408,100.041818 C57.8450297,99.7421696 57.6329975,99.4828244 57.5751705,99.1656522 C57.5015725,98.7556064 57.7101001,98.35257 57.7872027,97.9390195 C57.8400811,97.5612985 57.8341701,97.1776683 57.7696794,96.8017557 C57.7013384,96.2410093 57.6224835,95.6802629 57.5331145,95.1230212 C57.4069466,94.3432332 57.5874368,93.5739593 57.7083478,92.792419 C57.8222494,92.0581917 57.6768058,91.3099457 57.5331145,90.5809754 C57.5455374,91.1726215 57.4717496,91.7629242 57.3140729,92.3333079 C57.2211993,92.6119288 57.0880221,92.8782833 57.0074148,93.1621612 C56.6481866,94.4361069 57.4139559,95.7731366 57.3053113,97.0926429 C57.2544936,97.709464 57.0126718,98.3192757 57.0810127,98.927335 C57.1283257,99.3724275 57.3351009,99.7807209 57.4770399,100.204785 C57.6189788,100.62885 57.6925768,101.114246 57.4770399,101.510273 C56.9075318,102.586205 57.3333486,104.049403 57.8432774,105.153372 C57.9467822,105.349167 58.0369405,105.55173 58.1131366,105.759679 C58.2638372,106.257342 58.1376692,106.791803 58.1779729,107.310494 C57.8805876,107.359174 57.5773683,107.268014 57.3561289,107.063415 C57.2790263,106.982807 57.2159423,106.888182 57.140592,106.80407 C56.9300559,106.603418 56.6808223,106.447796 56.408117,106.346711 C56.2480002,106.257099 56.0655955,106.215145 55.8824173,106.2258 C55.6898397,106.279596 55.5165948,106.38719 55.3830025,106.535963 C55.2096917,106.688359 55.0258224,106.82831 54.8327701,106.95477 C54.7505391,107.017953 54.6544205,107.060606 54.5523969,107.079186 C54.4471855,107.095448 54.3433874,107.04249 54.2948041,106.947761 C54.2838547,106.918523 54.2773571,106.887807 54.2755284,106.85664 C54.210445,106.327528 54.1759252,105.795103 54.1721408,105.262017 C54.1721408,104.345547 53.0751807,103.714707 52.9367464,102.808751 C52.8263494,102.078029 53.0313723,101.333288 52.9630314,100.597308 C52.9297371,100.218804 52.8245971,99.8473096 52.8316064,99.4688058 C52.8316064,99.2234792 52.8876811,98.9834097 52.9069567,98.7398355 C52.923022,98.4694628 52.9189219,98.1982689 52.8946904,97.9285055 L52.8403681,97.0821289 C52.7877981,96.2462663 52.7299712,95.3928804 52.4005327,94.6288634 C52.0098754,93.7367473 51.778574,92.7830738 51.717123,91.8111128 C51.6820763,91.1977964 51.7048567,90.5844801 51.6347634,89.9694114 C51.5716794,89.413922 51.4314928,88.8619372 51.4717964,88.3046955 C51.5050908,87.8736217 51.6470297,87.4565666 51.680324,87.0254928 C51.748665,86.1966395 51.4332451,85.3905666 51.1861662,84.59676 C50.9390874,83.8029534 50.7568448,82.9232824 51.0810263,82.1575131 C51.1273545,82.0318183 51.2044743,81.9197534 51.3053249,81.8315793 C51.4296208,81.749331 51.5710742,81.6965856 51.7188753,81.677374 C54.7254384,81.0457998 57.8071224,80.8492849 60.8695556,81.0938473 C61.3687927,81.1221555 61.8533277,81.2732342 62.2801832,81.5336828 Z" id="Path" fill="#3F3D56" fill-rule="nonzero"></path>
                    <circle id="Oval" fill="#BE6F72" fill-rule="nonzero" cx="52.3321917" cy="60.1149228" r="2.80723664"></circle>
                    <path d="M51.7889686,63.6213401 C51.8293224,63.7818089 51.8293224,63.9497721 51.7889686,64.1102409 C51.7448247,64.2223701 51.6826762,64.3265429 51.6049737,64.4186514 C51.3332302,64.7691794 51.0325244,65.096263 50.7060271,65.3964529 C50.8723551,65.7679577 51.1718227,66.0636741 51.5453944,66.2253062 C51.9163075,66.3831854 52.3053769,66.4944321 52.7036862,66.556497 C52.9024984,66.6087696 53.109392,66.6230381 53.3134979,66.598553 C53.5016029,66.5512768 53.679671,66.4705526 53.8391976,66.3602358 L55.3987735,65.4262426 C55.6340919,65.2987782 55.8520068,65.1415261 56.0471366,64.9583698 C56.333169,64.6643777 56.4950625,64.2715664 56.4992383,63.8614097 C56.5065011,63.7879432 56.486548,63.7143661 56.4431637,63.6546344 C56.3833849,63.602601 56.308405,63.5712569 56.2293791,63.5652655 C55.6808991,63.4443545 55.2480729,62.9992621 55.0027464,62.4945903 C54.7809732,61.9772542 54.637461,61.4297815 54.5769296,60.8701781 L52.9139661,61.7463444 C52.6668872,61.8777693 52.4215606,62.0091942 52.1657201,62.1230958 C52.0027532,62.1966938 51.6733147,62.2580254 51.5576607,62.4069737 C51.3368668,62.6820899 51.7311416,63.2901493 51.7889686,63.6213401 Z" id="Path" fill="#BE6F72" fill-rule="nonzero"></path>
                    <path d="M50.7165411,64.8865242 C50.4797662,65.0806422 50.2949108,65.3305282 50.1785751,65.6137422 C50.0699304,65.9642087 50.1785751,66.3339508 50.2767057,66.6809126 C50.7366156,68.1597593 51.088015,69.6701907 51.3281052,71.2001781 C51.4753011,72.2515776 51.5296234,73.3187481 51.601469,74.3824139 C51.748665,76.5518015 51.9624495,80.0109059 52.2480797,82.1662748 C53.2994792,82.2135878 54.3245937,81.9069296 55.3672316,81.7947803 C57.3158253,81.5880051 59.322246,82.0611349 61.230536,81.6195471 C60.7679203,79.7918643 60.3053045,76.6709601 59.8426887,74.8450297 C59.6379766,74.1256195 59.4960894,73.3897994 59.4186243,72.6458524 C59.3783206,72.111391 59.4028533,71.5751773 59.4098626,71.0372112 C59.4256336,69.9858117 59.3678066,68.9344122 59.3099796,67.8830127 C59.243391,66.65638 59.1768024,65.4297472 58.8859152,64.2293995 C58.8656515,64.0764491 58.7939694,63.9349387 58.6826446,63.8281154 C58.5074114,63.7001951 58.2796081,63.7457557 58.0710806,63.773793 C57.4325888,63.8548859 56.786349,63.7017308 56.2521595,63.3427193 C56.0208516,63.1850093 55.7106887,62.9922528 55.4951518,63.167486 C55.4031732,63.2731888 55.3424898,63.4024444 55.3199186,63.5407328 C55.1269723,64.0422479 54.7272149,64.436258 54.2229584,64.621922 C53.723587,64.8027683 53.2006161,64.9101958 52.6703919,64.9408465 C52.5081308,64.9756798 52.3389346,64.9566068 52.1885004,64.8865242 C51.9396692,64.7340712 51.9221459,64.1855912 51.6084784,64.1487922 C51.3333622,64.1172502 50.9022884,64.7095386 50.7165411,64.8865242 Z" id="Path" fill="#3F3D56" fill-rule="nonzero"></path>
                    <path d="M54.8625598,69.1657201 C54.2159491,68.5471467 53.9320712,67.6499525 53.4606938,66.8876879 C53.1397138,66.3751132 52.7296352,65.9240862 52.2498321,65.5559152 C52.0086278,65.3966224 51.7874194,65.2089482 51.590955,64.9969211 C51.4244835,64.7918982 51.2983155,64.5185344 51.0459796,64.4396794 C50.8343133,64.3936236 50.6135313,64.4545516 50.4554436,64.6026463 C50.300968,64.7498581 50.1547188,64.9054673 50.0173605,65.0687668 C49.2743715,65.8380407 47.9688838,65.944933 47.3801001,66.8351179 C47.2212564,67.0238519 47.113284,67.2500509 47.0664326,67.4922426 C46.8969136,68.7878758 47.2319335,70.099096 48.0021781,71.1546175 C48.1513151,71.3992835 48.3803323,71.5849731 48.6505411,71.6803172 C48.6138963,72.0070554 48.6571944,72.3378046 48.7767091,72.6441001 C49.1011644,73.7531537 49.4998435,74.8391299 49.9700475,75.8946768 C49.857622,76.3075631 49.7790904,76.7289382 49.7352349,77.1546039 C49.6125717,78.2252791 49.7264733,79.3117252 49.6108193,80.3841527 C49.5161934,81.2603189 49.2603528,82.1137048 49.2515912,82.9916234 C49.2515912,83.13181 49.2638575,83.2982816 49.3847684,83.3701272 C49.449089,83.4031725 49.5211154,83.4183042 49.593296,83.4139355 L51.748665,83.4787718 C52.9998304,83.5155708 54.2632621,83.5523698 55.4951518,83.3210619 C55.6591973,83.2967893 55.8183217,83.2465084 55.9665293,83.1721137 C56.3835844,82.9390534 56.5220187,82.4133537 56.5886073,81.9454809 C56.6755704,81.3385965 56.7101605,80.7253554 56.6919949,80.1125411 C56.9530925,80.9378897 57.2632553,81.7912757 58.0518049,82.1487515 C58.4688601,82.3380034 58.9454945,82.3239847 59.4028533,82.3117184 C60.3886252,82.2678192 61.3710076,82.1665969 62.3450195,82.0085649 C62.4667371,82.023681 62.58842,81.9802438 62.6730512,81.8914675 C62.7576823,81.8026912 62.7952556,81.6790717 62.774341,81.5582154 L62.784855,80.6014419 C62.805883,78.6581052 62.3239915,76.8006327 62.1364919,74.8660577 C62.0769126,74.256246 62.0821696,73.6394249 61.9332214,73.0418796 C61.8718897,72.791296 61.7825208,72.5459695 61.7281985,72.2936336 C61.6814406,72.0465879 61.6521624,71.7965524 61.6405818,71.5453876 L61.5038999,69.6178219 C61.4390636,68.7258846 61.34619,67.8654894 61.277849,66.9753045 C61.2402914,66.1084966 61.1146448,65.2477585 60.9028499,64.4063851 C60.7503969,63.8806853 60.4332248,63.2848923 59.8847447,63.220056 C59.5921052,63.1867617 59.3082273,63.3146819 59.0296064,63.4040509 C58.3447829,63.6196472 57.6098106,63.6165848 56.9268075,63.3952892 C56.7157836,63.3119667 56.4958837,63.25317 56.2714351,63.220056 C56.0413995,63.1887488 55.8123469,63.2838525 55.6721374,63.4688872 C55.6041378,63.6057925 55.5721729,63.7577768 55.5792638,63.910475 C55.4969042,65.6610551 55.3444512,67.4642053 54.8625598,69.1657201 Z" id="Path" fill="#00D09C" fill-rule="nonzero"></path>
                    <path d="M52.0430568,69.2182901 C51.2352316,68.3666565 50.4063783,67.4992519 49.3654928,66.9577812 C48.955447,66.7439966 48.4893265,66.582782 48.0354724,66.6633893 C47.5816183,66.7439966 47.1593062,67.1382714 47.1803342,67.5991349 C47.1943528,67.8847651 47.3678338,68.1371009 47.4221561,68.4174741 C47.48524,68.732894 47.3941187,69.0693418 47.4922494,69.3742477 C47.57199,69.5751662 47.6911546,69.7580839 47.8427159,69.9122137 L49.0833673,71.3824207 C49.609067,71.9957371 50.1347668,72.6178151 50.8111671,73.0418796 C51.4875674,73.465944 52.3637337,73.6639576 53.1067226,73.3625564 C53.6353448,73.1168545 54.0748794,72.7134376 54.3648974,72.2077693 C54.6733079,71.7171162 54.8905971,71.1809025 55.179732,70.6744784 C55.6297423,69.8652985 56.2235707,69.1449846 56.9320645,68.5488991 C56.5675793,68.4542731 56.1102205,68.3210958 55.880665,68.0231993 C55.8153268,67.9284951 55.7595622,67.8275319 55.7141934,67.7217981 L55.4303155,67.1084818 C55.2351396,67.0983095 55.0445797,67.170087 54.9046158,67.3064953 C54.7828828,67.447201 54.6523651,67.5800598 54.5138456,67.7042748 C54.2667668,67.8900221 53.9320712,67.9408397 53.7077727,68.1528719 C53.620988,68.2438986 53.5424119,68.3424119 53.4729601,68.4472638 C53.1297523,68.8983759 52.6085501,69.1794163 52.0430568,69.2182901 Z" id="Path" fill="#3F3D56" fill-rule="nonzero"></path>
                    <path d="M56.9969008,65.5541628 C57.6049601,64.4449364 57.5769228,63.114916 57.7504037,61.8619983 C57.7691915,61.5301953 57.8856348,61.2113481 58.0850992,60.9455284 C58.4355657,60.5495013 59.0541391,60.5442443 59.5833435,60.5950619 C59.7393011,60.6125852 59.93381,60.6861832 59.9250483,60.8421408 C59.9127597,60.8980234 59.8855016,60.9495109 59.8461934,60.9910891 C59.333265,61.6530959 59.0316138,62.4542425 58.9805411,63.2901493 C59.2556573,63.4811535 59.6814741,63.088631 59.9460763,63.2901493 C60.1213096,63.4373452 60.0407023,63.7282324 59.9355623,63.9385123 C59.691404,64.4256607 59.4396522,64.9093045 59.180307,65.3894436 C58.9732846,65.8126448 58.7032757,66.2020011 58.3794911,66.5442307 C58.1569449,66.7580153 57.8958473,66.9262392 57.6697964,67.1365191 C57.1440967,67.6289245 56.8269245,68.3246005 56.2837014,68.8047396 C56.2378079,68.8544613 56.1756634,68.886155 56.1084682,68.8941086 C56.0393554,68.8891638 55.9742015,68.8599996 55.9244733,68.8117489 C55.6531093,68.591023 55.4280087,68.3188776 55.2620916,68.010933 C55.0553164,67.6289245 55.0868584,67.5167752 55.4127922,67.246916 C56.0226039,66.7650246 56.6166446,66.2480865 56.9969008,65.5541628 Z" id="Path" fill="#BE6F72" fill-rule="nonzero"></path>
                    <path d="M51.026704,68.4647871 C51.1318439,68.5296234 51.2615165,68.6032214 51.3771705,68.5488991 C51.4244302,68.5203175 51.4645765,68.4813696 51.4945768,68.4349975 C51.6949049,68.167663 51.8620164,67.8769831 51.9922392,67.5693452 C52.014651,67.5258856 52.027215,67.4780228 52.0290382,67.4291586 C52.0290382,67.3170093 51.9291552,67.2346497 51.8362816,67.1698134 C51.3386362,66.8526437 50.8036019,66.59837 50.2434114,66.4128058 C49.7807956,66.2375725 49.2971518,66.0851196 48.8064987,66.1289279 C48.4339662,66.1539451 48.0877723,66.32989 47.8479729,66.6160763 C47.4975064,67.0664258 48.0845377,67.2031077 48.4525276,67.3660746 C49.3041612,67.7533401 50.225888,67.9776387 51.026704,68.4647871 Z" id="Path" fill="#00D09C" fill-rule="nonzero"></path>
                    <path d="M50.4747193,71.4437523 C50.4627101,71.5248695 50.4900396,71.606858 50.5483172,71.6645462 C50.5991349,71.415715 50.5325462,71.1528651 50.5851162,70.9022816 C50.6622188,70.5255301 51.0284563,70.2416522 51.0599983,69.8631484 C50.388855,69.7317235 50.4799763,71.0372112 50.4747193,71.4437523 Z" id="Path" fill="#000000" fill-rule="nonzero" opacity="0.1"></path>
                    <polygon id="Path" fill="#000000" fill-rule="nonzero" opacity="0.2" points="81.3718456 57.7405123 81.3718456 59.4665598 74.2468617 59.8993859 74.0313249 58.1715861"></polygon>
                    <path d="M49.8053282,60.5319779 C50.2504207,60.1692451 49.9928278,59.4087328 50.294229,58.9215844 C50.4694623,58.6552299 50.7656064,58.5150433 51.0564936,58.3958846 C51.4075624,58.2316194 51.7836854,58.1273711 52.1692248,58.0874741 C52.5603555,58.0498959 52.9473197,58.1924277 53.2206243,58.4747396 C53.3345259,58.6044122 53.4116285,58.7621221 53.5185208,58.8970517 C53.7882231,59.2177689 54.2122467,59.3644945 54.6224902,59.2790602 C54.8555505,59.2264902 55.0973723,59.0495047 55.0816014,58.8111874 C55.0552809,58.6662382 54.9812663,58.5342454 54.8713215,58.4361883 L54.3701544,57.8806989 C53.8006463,57.2498592 53.1680543,56.5804682 52.3321917,56.4227583 C51.7504173,56.3123613 51.1546243,56.4683189 50.5938779,56.6558185 C50.367827,56.7311688 50.1137388,56.8433181 50.0506548,57.0728736 C50.0085988,57.2305835 50.0716828,57.4023121 50.0348838,57.5617744 C49.9630382,57.8789466 49.556497,57.9858388 49.3672451,58.2521934 C49.1779932,58.5185479 49.2358202,58.8339678 49.1814979,59.1283596 C49.1271756,59.4227515 48.9694656,59.710134 48.95019,60.0150399 C48.9379237,60.1990348 49.0307973,60.5407396 49.2375725,60.6073282 C49.4443478,60.6739169 49.677408,60.3129364 49.8053282,60.5319779 Z" id="Path" fill="#3F3D56" fill-rule="nonzero"></path>
                    <path d="M54.9116251,58.5588516 C54.76387,57.7878779 54.4453278,57.0597815 53.9793842,56.4280153 C53.5650797,55.8377398 52.9887175,55.3800583 52.3199254,55.1102612 C51.6426032,54.8455826 50.8813732,54.9056287 50.2539254,55.2732282 C49.7941709,55.6013994 49.4364079,56.0527032 49.2218015,56.5752112 C48.7679474,57.5530127 48.5997235,58.7481035 49.1271756,59.6873537 C49.3374555,59.4315131 49.698436,59.5471671 50.0173605,59.4542935 C50.4168923,59.3403919 50.7550925,59.0740373 51.1353486,58.9075657 C52.2831264,58.4011416 53.6849924,58.8111874 54.9116251,58.5588516 Z" id="Path" fill="#FED253" fill-rule="nonzero"></path>
                    <path d="M49.3952824,58.5045293 C49.3549788,58.1891094 49.3286938,57.8228719 49.5529924,57.5985734 C49.575598,57.5707088 49.610012,57.5551251 49.645866,57.5565174 C49.6774645,57.5667815 49.7034472,57.5895956 49.7177116,57.6196014 C49.8471772,57.8239341 49.95746,58.0398069 50.0471501,58.2644597 C49.7799273,58.2028754 49.5021697,58.3105065 49.3462171,58.5360712" id="Path" fill="#000000" fill-rule="nonzero" opacity="0.1"></path>
                    <path d="M53.4904835,57.6143444 L53.4273995,56.9887617 C53.4172263,56.9372101 53.4214708,56.8838514 53.4396658,56.8345564 C53.4943821,56.749081 53.6048649,56.7188117 53.6955064,56.7644631 C53.7817152,56.8122337 53.8527586,56.8832771 53.9005293,56.969486 C54.046396,57.1934064 54.1674367,57.43255 54.2615098,57.6826853 C53.9792754,57.6283126 53.6889329,57.6318898 53.4081238,57.6931993" id="Path" fill="#000000" fill-rule="nonzero" opacity="0.1"></path>
                    <polygon id="Path" fill="#000000" fill-rule="nonzero" opacity="0.1" points="55.058821 83.0038897 55.058821 84.433793 53.851464 84.5144003 47.501011 84.5144003 47.501011 83.0038897"></polygon>
                    <polygon id="Path" fill="#F1C0C0" fill-rule="nonzero" points="55.058821 83.0038897 55.058821 84.5144003 47.501011 84.5144003 27.4227854 59.3631722 27.4227854 58.1750908 31.631888 58.1750908"></polygon>
                    <polygon id="Path" fill="#000000" fill-rule="nonzero" opacity="0.1" points="55.058821 83.0038897 55.058821 84.5144003 47.501011 84.5144003 27.4227854 59.3631722 27.4227854 58.1750908 31.631888 58.1750908"></polygon>
                    <polygon id="Path" fill="#000000" fill-rule="nonzero" opacity="0.1" points="55.058821 83.0038897 55.058821 84.5144003 47.501011 84.5144003 27.4227854 59.3631722 27.4227854 58.1750908 47.6096556 83.0038897"></polygon>
                    <path d="M30.0547888,108.212945 C30.0814927,108.356634 30.0471752,108.504953 29.9600719,108.62231 C29.8729687,108.739667 29.7409426,108.815466 29.5956777,108.831518 C29.1085293,108.996237 28.5915912,109.159204 28.2463817,109.532451 C27.9011722,109.905698 27.8328312,110.597869 28.2463817,110.901023 C28.4577731,111.028505 28.7004722,111.094641 28.9473147,111.092027 C29.7411213,111.146349 30.5682222,111.135835 31.2884309,110.799388 C31.8036166,110.56107 32.2890127,110.154529 32.8550161,110.191328 C33.1476556,110.208852 33.4595708,110.345534 33.7206684,110.212356 C33.9817659,110.079179 34.0553639,109.707684 34.0571162,109.397522 C34.0637665,108.750031 33.9661393,108.105691 33.7679813,107.489232 C33.7416964,107.40512 32.6272129,107.340283 32.4940356,107.313998 L31.1429873,107.138765 C30.8871467,107.105471 30.335162,106.912714 30.1336438,107.126499 C29.9321255,107.340283 30.0547888,107.958857 30.0547888,108.212945 Z" id="Path" fill="#D2AB66" fill-rule="nonzero"></path>
                    <path d="M38.1172706,103.839123 C38.1744677,104.1547 38.2673535,104.462751 38.3941391,104.757345 C38.5816387,105.23398 38.8217082,105.740404 39.2808193,105.971712 C39.6978745,106.180239 40.2095556,106.104889 40.63362,105.906875 C40.8106095,105.833572 40.9657158,105.715884 41.0839695,105.56517 C41.2207661,105.326724 41.2818767,105.052337 41.2592027,104.778373 C41.2592027,104.100221 41.2188991,103.399288 40.9087362,102.796485 C40.6423817,102.270785 40.1780136,101.818684 40.1710042,101.236909 L38.5746293,101.54532 C38.4891715,101.553536 38.4077741,101.58573 38.3398168,101.638193 C38.2892353,101.69146 38.2541017,101.757487 38.2381815,101.829198 C38.0677336,102.484963 38.0266651,103.167653 38.1172706,103.839123 L38.1172706,103.839123 Z" id="Path" fill="#D2AB66" fill-rule="nonzero"></path>
                    <path d="M19.0536455,87.1919644 C18.9870568,87.7562154 19.0150941,88.3607701 19.309486,88.8479186 C19.6038779,89.335067 20.2242036,89.6574962 20.7604173,89.4629873 C20.8159194,89.448813 20.8633249,89.4127848 20.8918422,89.3631043 C20.9061101,89.3038822 20.8979973,89.2414768 20.8690619,89.1878711 C20.6323392,88.5561137 20.6518327,87.8568653 20.9233842,87.2392774 C20.9584309,87.1586701 21.0337812,87.0640441 21.1161408,87.0955861 C21.1505892,87.113033 21.1783101,87.1413699 21.1949958,87.1761934 C21.2798265,87.3229608 21.322288,87.4903807 21.317659,87.6598372 C21.2929227,87.8133688 21.2882105,87.969461 21.3036404,88.1242053 C21.3369347,88.2749059 21.4981493,88.4168448 21.6383359,88.3520085 C21.7202377,88.3017116 21.7778891,88.2199859 21.7977981,88.1259576 C22.1885683,86.9957031 22.0115827,85.7603087 21.8328448,84.5774843 C21.8358681,84.5225035 21.8143418,84.4690152 21.7740758,84.4314562 C21.7338098,84.3938972 21.678955,84.3761392 21.6243172,84.3829754 C20.7972163,84.3006158 20.3451145,84.1026022 19.8719847,84.8718762 C19.4654436,85.5202392 19.0536455,86.4121764 19.0536455,87.1919644 Z" id="Path" fill="#D2AB66" fill-rule="nonzero"></path>
                    <path d="M28.7230161,84.3163868 C28.4776896,85.3362443 28.2306107,86.3683681 28.2148397,87.4162629 C28.2191507,88.0689834 28.268332,88.7206352 28.3620356,89.366609 L28.5460305,90.8841289 C28.6091145,91.39581 28.6704461,91.9057388 28.7598151,92.4121628 C28.8168264,92.673063 28.8479352,92.9389553 28.8526887,93.2059695 C28.8354998,93.4691959 28.7938483,93.7302511 28.7282731,93.9857574 C28.6180815,94.5223457 28.5565005,95.0677773 28.5442782,95.6154266 C28.5250025,96.4915929 28.6336472,97.3677591 28.7019881,98.2439254 C28.8384212,99.989901 28.817895,101.744598 28.6406565,103.486904 C28.5698974,103.957189 28.671997,104.437182 28.928039,104.837953 C29.0319383,104.964322 29.1174783,105.104725 29.1821272,105.255008 C29.3135522,105.656292 29.006894,106.057576 28.928039,106.469374 C28.823014,107.138003 29.2794051,107.765345 29.9478965,107.87124 C31.3497625,108.037712 32.7901798,107.962361 34.0536115,108.603715 C34.1867888,108.214697 33.8959016,107.773109 34.0290789,107.377082 C34.1131908,107.131756 34.3444987,106.972293 34.5022087,106.765518 C34.7140817,106.450463 34.8196889,106.075926 34.8036098,105.696595 C34.8098016,105.201464 34.7217902,104.70967 34.5442646,104.247416 C34.3953164,103.861903 34.1815318,103.481647 34.1937981,103.068097 C34.1937981,102.864826 34.2656438,102.651042 34.1832841,102.463542 C34.1268021,102.355822 34.0500461,102.260026 33.9572332,102.181416 C33.4335155,101.607679 33.1116842,100.878482 33.0407634,100.104902 C32.9724321,99.337219 32.997144,98.5640903 33.1143613,97.8023376 C33.2002256,97.0768719 33.3158796,96.3111026 33.776743,95.7450992 C33.5630244,94.0288508 33.688652,92.2873316 34.1464852,90.6195267 C34.1920458,90.4653215 34.2638914,90.2865835 34.4216014,90.2497846 C34.5487443,90.2367543 34.67427,90.2864416 34.7580492,90.3829618 C35.0331654,90.6405547 35.1645903,91.0138015 35.2837489,91.3712774 C35.4151739,91.7585428 35.5483511,92.1720933 35.4484682,92.5681204 C35.4064122,92.7433537 35.3223003,92.8975589 35.2732349,93.0657829 C35.1666313,93.4038393 35.1852924,93.7689751 35.3258049,94.094402 C35.3942929,94.2133304 35.4372612,94.3452192 35.4519729,94.4816675 C35.4357233,94.5988483 35.4001968,94.7125329 35.3468329,94.8181154 C35.2153884,95.2374775 35.2682596,95.6929343 35.4922765,96.0710331 C35.7156257,96.4431477 35.9912138,96.7812889 36.3106158,97.0751196 C36.1580121,97.7476845 36.1974795,98.4495977 36.4245174,99.1008159 C36.4576076,99.1600649 36.4658021,99.2300333 36.4472977,99.2953249 C36.4157557,99.3619135 36.3351484,99.3864461 36.2720645,99.4337591 C36.0968312,99.5774504 36.2054758,99.8490619 36.3228821,100.036561 C36.6446582,100.551203 36.9999826,101.044091 37.3865479,101.512025 C37.7370144,101.930833 37.7054724,102.738658 38.2276675,102.889359 C38.4470998,102.936752 38.6741215,102.936752 38.8935539,102.889359 C39.4087396,102.810504 39.9835047,102.661556 40.2358405,102.205949 C40.3392282,102.01845 40.3812841,101.790646 40.5424987,101.65046 C40.7037133,101.510273 40.9122409,101.48574 41.0016098,101.317517 C41.0909788,101.149293 40.9910958,100.928499 41.0208855,100.73399 C41.0506751,100.539481 41.2206514,100.383523 41.2749737,100.1785 C41.4046463,99.7053707 40.8526616,99.3163528 40.7773113,98.8327091 C40.6686667,98.1317761 41.5518422,97.6060763 41.5150433,96.9051433 C41.4379406,95.3823664 41.3888753,93.8525802 41.3100204,92.3298032 C41.2110561,90.9657605 41.1970103,89.5968837 41.2679644,88.2310975 C41.329296,87.3812163 41.4431976,86.4910314 41.1312824,85.7007294 C40.6826853,84.586246 39.4455386,83.9606633 38.2486955,83.8415047 C37.0518524,83.7223461 35.858514,84.0062239 34.6721849,84.1919712 C32.7032744,84.4954079 30.7028912,84.5372421 28.7230161,84.3163868 Z" id="Path" fill="#3F3D56" fill-rule="nonzero"></path>
                    <circle id="Oval" fill="#FBBEBE" fill-rule="nonzero" cx="32.2802511" cy="64.7603562" r="2.80723664"></circle>
                    <path d="M31.1377303,68.0915403 C30.9425201,68.5460713 30.4877913,68.8336716 29.9934572,68.8152536 C29.8918219,69.2358134 30.1353961,69.6598779 30.414017,69.9910687 C31.5920983,71.3619761 33.4193719,71.9887189 35.1908753,71.6294996 C35.5294255,71.5688849 35.8506074,71.4349095 36.1318779,71.2369771 C36.5110597,70.9203559 36.7656395,70.4794982 36.8503342,69.992821 C36.9309859,69.5095167 36.953927,69.0183412 36.9186751,68.5296234 C36.9285059,68.4331135 36.9009058,68.336513 36.8415725,68.2597642 C36.7714951,68.2054917 36.6848564,68.1770247 36.596246,68.1791569 C36.0039576,68.1265869 35.3853842,68.1038066 34.8649415,67.8129194 C34.3444987,67.5220322 33.9747566,66.8649075 34.2253401,66.3251891 C34.1850365,66.4093011 33.1616743,66.4496047 33.0267447,66.4671281 C32.6044326,66.5267074 32.1821204,66.593296 31.7615606,66.6703986 C31.5594764,66.6814919 31.3597391,66.7192005 31.1675199,66.7825479 C30.9134317,66.9139729 31.0080577,66.8491366 31.067637,67.0874538 C31.1570059,67.4519389 31.2884309,67.7130365 31.1377303,68.0915403 Z" id="Path" fill="#FBBEBE" fill-rule="nonzero"></path>
                    <path d="M33.2738236,69.7983121 C32.8957422,69.8026723 32.5185409,69.7608919 32.1505785,69.6738965 C31.7790527,69.5871135 31.4515819,69.368592 31.2288516,69.0588278 C31.099179,68.8625666 31.015067,68.6154877 30.8082918,68.5050908 C30.4700916,68.3298575 30.0845785,68.6260017 29.8147193,68.8976132 C29.5690149,69.1654802 29.284262,69.3947004 28.970095,69.5775182 C28.5950958,69.7755318 28.1570127,69.8456251 27.8030416,70.0786853 C27.5265101,70.2876305 27.2891963,70.5439295 27.1021086,70.835693 L24.6190534,74.2176947 C23.6219763,75.5775047 22.7545717,77.0371976 21.8661391,78.4723579 C21.0968651,79.7147617 20.6938287,81.144665 20.1138066,82.4851993 C20.0678657,82.5672366 20.0488634,82.6616354 20.0594843,82.7550585 C20.0805123,82.8461798 20.1909092,82.9197778 20.2680119,82.8672078 C20.0069143,83.126553 20.2364699,83.5681408 20.1751383,83.932626 C20.1054172,84.1876615 19.9600012,84.4155613 19.7580831,84.586246 C20.1437802,84.5359357 20.5353393,84.5543272 20.9146226,84.6405683 C21.3066091,84.7516637 21.6765105,84.929501 22.008078,85.166268 C22.2201103,85.1329737 22.2008346,84.7562222 22.3585445,84.6160356 C22.4531705,84.533676 22.5933571,84.54419 22.7177727,84.5196573 C23.1856455,84.428536 23.3713927,83.8660373 23.7306209,83.5488651 C24.0302697,83.2842629 24.4543342,83.1983986 24.7715064,82.9495674 C25.2866921,82.5447786 25.3970891,81.82457 25.6669483,81.2270246 C25.8965038,80.7206005 26.2574843,80.2790127 26.4590025,79.7603223 C26.5904275,79.4238745 26.6535115,79.0593893 26.841011,78.7492265 C27.1406599,78.2480594 27.7049109,77.9817048 28.242877,77.7416353 C28.5828295,77.5891824 28.94381,77.4314724 29.3100475,77.4560051 C29.2907718,78.2708397 29.1873842,79.073408 29.3643698,79.8689669 C29.4257014,80.1493401 29.5115657,80.422704 29.5851637,80.7013249 C29.9198592,81.9559949 29.9987142,83.2632349 30.0144852,84.5564563 C30.8195958,84.372232 31.6419118,84.2735541 32.4677506,84.2620645 C33.117866,84.2427888 33.766229,84.3269008 34.4163444,84.3146344 C35.1873707,84.3006158 35.9496353,84.1516675 36.7206616,84.0990975 C37.4916879,84.0465276 38.2977608,84.0990975 38.9794182,84.449564 C38.9240707,83.3390234 38.955122,82.2258606 39.0722918,81.1201323 L39.258039,79.3783138 C39.2999562,78.872252 39.3778397,78.3698155 39.4910992,77.8748126 C39.5927345,77.4752807 39.7399304,77.0897676 39.8520797,76.6919881 C40.2463545,75.2901221 40.1745089,73.7936302 40.0991586,72.3339372 C40.0606073,71.5839389 39.7714724,70.846207 39.4315199,70.1785683 C39.3084757,69.9305737 39.1679339,69.6916527 39.0109601,69.4636166 C38.1759593,68.3131541 36.8091794,67.6714423 35.3906412,67.7638541 C35.3015,67.7666013 35.2136098,67.7856046 35.131296,67.8199288 C34.9833879,67.914633 34.8678579,68.0521687 34.8001052,68.2142036 C34.4375516,68.8658303 33.9115238,69.411788 33.2738236,69.7983121 L33.2738236,69.7983121 Z" id="Path" fill="#3F3D56" fill-rule="nonzero"></path>
                    <path d="M29.8112146,65.6908448 C29.8900696,65.5156115 30.1021018,65.4507752 30.2317744,65.3105886 C30.4806056,65.0442341 30.3684563,64.6184173 30.4070076,64.2591891 C30.4700916,63.7334894 30.9064224,63.2936539 31.4058372,63.1061544 C31.9151405,62.942701 32.457081,62.9083781 32.9829364,63.0062714 C33.2360657,63.0247472 33.480592,63.1060552 33.6943834,63.2428363 C33.7855047,63.3094249 33.8696166,63.3952892 33.9554809,63.4566209 C34.2809889,63.6533587 34.7040009,63.554604 34.9087498,63.2340746 C34.2884241,62.487581 33.6015098,61.6990314 32.6587549,61.4694758 C32.3353324,61.4034548 32.0057608,61.3723188 31.6756964,61.3766022 C31.2393656,61.3678405 30.7890161,61.3608312 30.3859796,61.5273028 C29.8374996,61.7533537 29.4519864,62.2737964 29.2539729,62.8345428 C29.0808086,63.4029223 28.9882016,63.9927762 28.9788567,64.5868753 C28.9429335,64.9832584 28.9429335,65.3820783 28.9788567,65.7784614 C29.0465969,66.3197833 29.2477087,66.8358096 29.5641357,67.2802103 C29.606916,67.3492308 29.6674307,67.4055094 29.739369,67.4431773 C30.5384326,67.7936438 29.7463783,65.8362884 29.8112146,65.6908448 Z" id="Path" fill="#3F3D56" fill-rule="nonzero"></path>
                    <path d="M34.8176285,62.8012485 C34.7212502,61.9758999 34.1324665,61.2942426 33.5068838,60.7457625 C33.0026661,60.2701795 32.4020513,59.9086154 31.7457897,59.6856014 C31.0851603,59.4910925 30.324648,59.5331484 29.7586446,59.9274232 C29.3030382,60.2445954 29.0139033,60.7492672 28.7913571,61.2574436 C28.4990029,61.8571352 28.35421,62.5180154 28.369045,63.1850093 C28.4128533,63.847391 28.7352824,64.5185344 29.3100475,64.8532299 C29.5168227,64.548324 29.8760509,64.3906141 30.2212604,64.2661985 C31.7258427,63.6953472 33.2602077,63.2063159 34.8176285,62.8012485 L34.8176285,62.8012485 Z" id="Path" fill="#FED253" fill-rule="nonzero"></path>
                    <path d="M29.5028041,62.4577913 C29.5588787,62.4577913 29.5956777,62.5156183 29.623715,62.5629313 C29.7663908,62.7852224 29.8889555,63.0197961 29.9899525,63.2638643 C29.7849296,63.3076726 29.4327108,63.3567379 29.3310755,63.1762477 C29.2767532,63.0851264 29.3415895,62.4490297 29.5028041,62.4577913 Z" id="Path" fill="#000000" fill-rule="nonzero" opacity="0.1"></path>
                    <path d="M33.4963698,62.0617642 C33.4543138,62.1020679 33.4052485,62.0197082 33.4052485,61.9601289 L33.4052485,61.2802239 C33.4041046,61.2613198 33.4083587,61.24248 33.4175148,61.2259016 C33.4321985,61.2091107 33.4530648,61.1989937 33.4753418,61.1978643 C33.6172807,61.1820933 33.734687,61.3030042 33.8258083,61.4186582 C33.9640878,61.606092 34.0843641,61.8061613 34.1850365,62.0162036 L33.4437998,61.9934232" id="Path" fill="#000000" fill-rule="nonzero" opacity="0.1"></path>
                    <path d="M42.746933,73.3205004 C42.9081966,73.1674264 43.0803793,73.0262834 43.2621187,72.8981883 C43.7475148,72.5740068 44.3345462,72.4460865 44.8795216,72.2393113 C45.424497,72.032536 45.9782341,71.6978405 46.1902663,71.1546175 C46.2964097,70.8149345 46.3310156,70.4569425 46.2919016,70.103218 C46.2969891,69.9551213 46.2707139,69.8076218 46.214799,69.6703919 C46.1480954,69.5491179 46.0531191,69.445726 45.9379304,69.3689907 C45.1984461,68.8222629 44.206626,68.7784546 43.2884037,68.8345293 C41.2640175,68.9600684 39.2797538,69.4553919 37.4338609,70.2959746 C37.3362425,70.3282252 37.2507017,70.3893258 37.1885344,70.4712078 C37.1525961,70.5471499 37.1363265,70.6309083 37.1412214,70.714782 C37.1085712,71.2315388 37.1758013,71.749746 37.3392349,72.2410636 C37.5810568,72.864894 38.0787193,73.3678134 38.2872468,74.0039101 C38.3818728,74.2895403 38.4134148,74.5926938 38.4957744,74.8800763 C38.5633419,75.176873 38.7388477,75.4379457 38.9881798,75.6125513 C39.6803511,76.0261018 40.3339712,75.4706124 40.8141103,75.0395386 L42.746933,73.3205004 Z" id="Path" fill="#3F3D56" fill-rule="nonzero"></path>
                    <path d="M33.682117,75.7474809 L32.7936845,73.8094012 C32.6634202,73.5408205 32.5510266,73.2639342 32.4572366,72.9805479 C32.3556014,72.6423478 32.306536,72.2918813 32.2119101,71.9519288 C31.8999949,70.819922 31.1131976,69.8771671 30.7294368,68.7679406 C30.7051733,68.6677856 30.6557105,68.5754953 30.5857455,68.4998338 C30.4723502,68.4196242 30.3291791,68.3939433 30.1949754,68.4297405 C29.6587617,68.5226141 29.2399542,68.9309075 28.7493011,69.1622154 C28.5214979,69.2673554 28.2761713,69.3374487 28.0483681,69.4583596 C27.8179525,69.5674891 27.6464991,69.7715698 27.578743,70.0173537 C27.5244207,70.2854606 27.657598,70.5430534 27.7697472,70.804151 C28.2463817,71.8800831 28.3550263,73.0821832 28.3760543,74.2597506 C28.3918253,75.0518049 28.3515216,75.9016862 27.8836489,76.5377829 C26.9847023,77.7644156 27.5594673,79.5658134 27.8959152,81.050039 C27.9362188,81.2252723 27.9835318,81.4145242 28.0115691,81.6002714 C28.0412197,81.8327005 28.0546867,82.0669087 28.0518728,82.3012044 C28.0518728,83.0880017 28.0080645,83.8993316 27.678626,84.612531 C28.003876,84.7855785 28.3623423,84.887144 28.7300254,84.9104275 C29.7475465,85.0401001 30.7691563,85.1312214 31.794855,85.1837913 C32.116218,85.2140087 32.4402643,85.1974817 32.7568855,85.134726 C33.5303934,84.9256837 34.0635834,84.2186117 34.0518592,83.4174402 C34.1079338,83.9028363 34.2113215,84.4302884 34.5635403,84.7667362 C34.9157591,85.1031841 35.4291925,85.1540017 35.9075793,85.1802867 C37.2577348,85.2518926 38.6114748,85.2138004 39.9554673,85.0663851 C40.0412531,85.0625146 40.1255974,85.0429135 40.2042986,85.0085581 C40.4636438,84.8788855 40.4776624,84.5214097 40.4566344,84.2340271 C40.4180831,83.6960611 40.3777795,83.158095 40.3129432,82.6236336 C40.25797,82.2829086 40.2298461,81.9383918 40.2288312,81.5932621 C40.2555523,81.2382447 40.3142004,80.8863561 40.4040645,80.5418626 C40.638877,79.4484071 40.8246243,78.3321713 40.7457693,77.2124309 C40.714605,76.9396644 40.7034771,76.6649804 40.712475,76.3905869 C40.7580356,75.7720136 41.0839695,75.1832299 41.0226378,74.5681612 C40.8474046,72.759754 40.7054656,70.9040339 40.2007939,69.1587108 C40.1096726,68.8467956 39.9940187,68.5121001 39.7224071,68.3333622 C39.3719406,68.0985496 38.8795352,68.2212129 38.4782511,68.0722646 C38.2899607,67.9846384 38.1109143,67.8783847 37.9437897,67.7550925 C37.5806647,67.5279936 37.1644131,67.3999162 36.7364326,67.383598 C36.4140034,67.3713316 36.0547752,67.4431773 35.8602663,67.7025225 C35.7701965,67.848538 35.7105904,68.0112627 35.6850331,68.1809092 C35.4309449,69.2498321 35.1330483,70.3064885 34.8351518,71.363145 L34.5495216,72.3759932 L33.7837523,75.0956132 C33.708402,75.3847481 33.7592197,75.474117 33.682117,75.7474809 Z" id="Path" fill="#D2AB66" fill-rule="nonzero"></path>
                    <polyline id="Path" fill="#F1C0C0" fill-rule="nonzero" points="38.1628312 65.1371077 55.1131433 82.9495674 55.1131433 84.460078 47.5553333 84.460078 34.8176285 67.8356997"></polyline>
                    <polyline id="Path" fill="#000000" fill-rule="nonzero" opacity="0.1" points="38.1628312 65.1371077 55.1131433 82.9495674 55.1131433 84.460078 47.5553333 84.460078 34.8176285 67.8356997"></polyline>
                    <polygon id="Path" fill="#000000" fill-rule="nonzero" opacity="0.1" points="35.0874877 67.6008872 35.14181 67.6201628 47.6639779 82.9495674 55.1131433 82.9495674 55.1131433 84.460078 47.5553333 84.460078 34.8176285 67.8356997"></polygon>
                    <path d="M37.0378338,67.9758863 C36.4245174,68.2439932 35.7428601,68.5874504 35.5588651,69.2323087 C35.5225396,69.3454749 35.5147146,69.4658589 35.5360848,69.5827752 C35.6278411,69.8642211 35.8835543,70.0600125 36.1791908,70.0751807 C36.467754,70.0821736 36.7546671,70.0296822 37.0220628,69.9209754 L40.6406293,68.7258846 C40.73876,68.6943427 40.8509092,68.6470297 40.8754419,68.5506514 C40.8817427,68.4900405 40.8695232,68.4289433 40.8403953,68.3754182 C40.728246,68.1020543 40.617849,67.5430602 40.3830365,67.352056 C40.1902799,67.1978507 39.8082714,67.252173 39.5752112,67.2556777 C38.678017,67.262687 37.835145,67.6254198 37.0378338,67.9758863 Z" id="Path" fill="#D2AB66" fill-rule="nonzero"></path>
                    <path d="M40.2638779,68.8678236 C40.8734892,68.8660477 41.4795939,68.9600679 42.0600187,69.1464444 C42.6430435,69.3357317 43.1594283,69.6885034 43.5477489,70.1627973 C43.6608356,70.2953728 43.7412592,70.4526188 43.7825615,70.6219084 C43.8176081,70.7971416 44.3888685,70.9022816 44.2627006,71.0214402 C44.6464614,70.9601086 44.5553401,71.1405988 44.9443579,71.1370941 C45.3333757,71.1335895 45.7539355,71.0337065 45.9869958,70.7235437 C46.1489177,70.4687419 46.2210778,70.1671497 46.1920187,69.8666531 C46.1971266,69.6586173 46.1576938,69.4518939 46.0763647,69.2603461 C45.9011315,68.8923562 45.498095,68.6943427 45.1266005,68.5243664 L41.9969347,67.0927108 C41.8153829,66.996137 41.6205032,66.9270433 41.418665,66.8876879 C41.2488001,66.8716446 41.0776333,66.875762 40.9087362,66.8999542 L39.4910992,67.0629211 C40.1218528,67.471109 40.4902662,68.1819537 40.4601391,68.9326599" id="Path" fill="#3F3D56" fill-rule="nonzero"></path>
                </g>
            </g>
        </g>
    </g>
</svg>