<svg width="40" height="40" viewBox="0 0 40 40" fill="none" xmlns="http://www.w3.org/2000/svg">
<circle cx="20" cy="20" r="20" fill="#F9F3E7"/>
<path d="M20.0173 27.7304L8.73575 27.755C8.25916 27.7561 7.92291 27.248 8.06235 26.752C8.9008 23.7742 8.51918 25.1297 9.70465 20.9185C9.79581 20.5948 10.0672 20.3744 10.3747 20.3738L18.3607 20.3563C18.6681 20.3556 18.9405 20.5748 19.0331 20.8981L20.7008 26.7244C20.8379 27.2045 20.528 27.7293 20.0173 27.7304Z" fill="#E0C189"/>
<path d="M31.3143 27.7046L20.0327 27.7292L20.0254 24.3608L21.0016 20.8927C21.0928 20.569 21.3642 20.3486 21.6716 20.3479L29.6576 20.3305C29.9651 20.3298 30.2375 20.549 30.33 20.8723L31.9978 26.6986C32.1349 27.1787 31.825 27.7035 31.3143 27.7046Z" fill="#E0C189"/>
<path d="M26.3428 20.3373L13.6894 20.365C13.689 20.1909 13.5427 20.7633 15.5802 13.5264C15.6714 13.2027 15.9428 12.9823 16.2502 12.9817L23.7497 12.9653C24.0572 12.9646 24.3295 13.1838 24.4221 13.5071C26.472 20.6679 26.3425 20.1612 26.3428 20.3373Z" fill="#E0C189"/>
</svg>
