<svg width="14" height="14" viewBox="0 0 28 28" fill="none" xmlns="http://www.w3.org/2000/svg">
<path d="M17.216 27.6212C24.7394 25.8452 29.3985 18.3065 27.6224 10.7835C25.8463 3.26049 18.3073 -1.39841 10.784 0.377597C3.26062 2.15361 -1.39847 9.69226 0.377613 17.2153C2.1537 24.7383 9.69268 29.3972 17.216 27.6212Z" fill="#5367FF"/>
<path d="M27.6223 10.7838C27.369 9.70822 26.9969 8.69202 26.5247 7.74148L26.5216 7.7446L17.7069 15.893C17.1565 16.4026 16.3373 16.4902 15.69 16.1119L11.944 13.9169C11.3373 13.5635 10.5775 13.6167 10.0272 14.0513C7.707 15.8867 1.76587 20.5863 1.68145 20.6551C4.61136 26.0894 10.9183 29.1099 17.2159 27.6215C24.7393 25.8455 29.3984 18.3069 27.6223 10.7838Z" fill="#00F3BB"/>
</svg>
