<svg width="14" height="14" viewBox="0 0 14 14" fill="none" xmlns="http://www.w3.org/2000/svg">
<path d="M1.77647e-06 6.85742C1.77647e-06 6.86344 1.77647e-06 6.86973 1.77647e-06 6.87602C-0.000455991 7.51154 0.087558 8.14402 0.26151 8.75527L0.27081 8.74953C0.0925065 8.13459 0.00134872 7.49768 1.77647e-06 6.85742Z" fill="#5367FC"/>
<path d="M13.6774 6.85742C13.6774 7.06586 13.6675 7.27193 13.6478 7.47563L13.6517 7.47235C13.6686 7.27567 13.679 7.0768 13.679 6.87602C13.6774 6.86973 13.6774 6.86344 13.6774 6.85742Z" fill="#00D9A4"/>
<path d="M6.8389 2.64811e-07C3.06208 2.64811e-07 0.000305176 3.06178 0.000305176 6.8386C0.000305176 6.84489 0.000305176 6.85118 0.000305176 6.85747C0.00156321 7.49772 0.0926289 8.13463 0.27084 8.74958L3.86603 6.44251L7.99654 7.99268L12.7417 3.42286L12.7559 3.40918C12.1551 2.37208 11.2921 1.51119 10.2536 0.912828C9.21507 0.314465 8.03748 -0.0003333 6.8389 2.64811e-07Z" fill="#5367FC"/>
<path d="M12.756 3.40912L12.7417 3.4228L7.99629 7.99262L3.86578 6.44245L0.270592 8.74952L0.261292 8.75526C0.38167 9.17704 0.542628 9.58617 0.741908 9.97691L0.756406 9.96788L4.1954 7.76093L8.32591 9.3111L13.2708 4.54925L13.2806 4.53995C13.1407 4.14776 12.965 3.76923 12.756 3.40912Z" fill="#00FFC3"/>
<path d="M13.2797 4.54022L13.2699 4.54952L8.32503 9.3111L4.19452 7.76093L0.755526 9.96761L0.741028 9.97664C0.951498 10.3902 1.20355 10.7813 1.49327 11.1438L1.51297 11.131L4.1937 9.4104L8.32421 10.9606L13.6036 5.87785L13.608 5.87348C13.5439 5.41911 13.4339 4.97241 13.2797 4.54022Z" fill="#00EBB2"/>
<path d="M13.6082 5.87213L13.6038 5.87651L8.32441 10.9592L4.1939 9.40906L1.51316 11.1296L1.49347 11.1425C1.7886 11.5118 2.12098 11.8498 2.48534 12.1511L2.51105 12.1344L4.1928 11.055L8.32167 12.6051L13.6468 7.47565C13.665 7.27213 13.6748 7.06606 13.6763 6.85744C13.6763 6.85115 13.6763 6.84485 13.6763 6.83856C13.6764 6.51522 13.6536 6.19227 13.6082 5.87213Z" fill="#00D9A4"/>
<path d="M13.6467 7.47573L8.32187 12.6052L4.193 11.055L2.51125 12.1345L2.48553 12.1511C3.70967 13.1642 5.24948 13.7174 6.83844 13.715C10.4145 13.715 13.3488 10.9703 13.6497 7.47272L13.6467 7.47573Z" fill="#01C897"/>
</svg>
