<svg className="profileIcon" xmlns="http://www.w3.org/2000/svg" width="15" height="15" viewBox="0 0 15 15">
  <path fill="#44475B"
    d="M396.158203,74.6738281 C396.285156,74.6738281 396.434082,74.625 396.60498,74.5273438 C396.775879,74.4296875 396.963867,74.2832031 397.168945,74.0878906 C397.383789,73.8925781 397.569336,73.7143555 397.725586,73.5532227 C397.881836,73.3920898 398.008789,73.2480469 398.106445,73.1210938 C398.213867,72.9941406 398.306641,72.8818359 398.384766,72.7841797 C398.462891,72.6865234 398.521484,72.6035156 398.560547,72.5351562 C398.658203,72.3886719 398.726562,72.2446289 398.765625,72.1030273 C398.804688,71.9614258 398.819336,71.8222656 398.80957,71.6855469 C398.790039,71.5585938 398.750977,71.4414062 398.692383,71.3339844 C398.633789,71.2265625 398.555664,71.1386719 398.458008,71.0703125 C397.901367,70.6796875 397.378906,70.3208008 396.890625,69.9936523 C396.402344,69.6665039 395.938477,69.3710938 395.499023,69.1074219 C395.430664,69.0683594 395.359863,69.0390625 395.286621,69.0195312 C395.213379,69 395.132812,68.9902344 395.044922,68.9902344 C394.9375,68.9902344 394.822754,69.0073242 394.700684,69.0415039 C394.578613,69.0756836 394.458984,69.1269531 394.341797,69.1953125 C394.244141,69.2441406 394.085449,69.3295898 393.865723,69.4516602 C393.645996,69.5737305 393.370117,69.7324219 393.038086,69.9277344 C392.754883,69.7226562 392.435059,69.4614258 392.078613,69.144043 C391.722168,68.8266602 391.329102,68.453125 390.899414,68.0234375 C390.479492,67.6035156 390.11084,67.2128906 389.793457,66.8515625 C389.476074,66.4902344 389.214844,66.1630859 389.009766,65.8701172 C389.195312,65.5283203 389.34668,65.25 389.463867,65.0351562 C389.581055,64.8203125 389.664062,64.6640625 389.712891,64.5664062 C389.839844,64.3417969 389.910645,64.1318359 389.925293,63.9365234 C389.939941,63.7412109 389.898438,63.5654297 389.800781,63.4091797 C389.419922,62.8134766 389.065918,62.2714844 388.73877,61.7832031 C388.411621,61.2949219 388.111328,60.8603516 387.837891,60.4794922 C387.75,60.3623047 387.64502,60.2768555 387.522949,60.2231445 C387.400879,60.1694336 387.261719,60.1425781 387.105469,60.1425781 C386.96875,60.1425781 386.841797,60.159668 386.724609,60.1938477 C386.607422,60.2280273 386.495117,60.2841797 386.387695,60.3623047 C386.30957,60.4208984 386.216797,60.4892578 386.109375,60.5673828 C386.001953,60.6455078 385.889648,60.7285156 385.772461,60.8164062 C385.645508,60.9140625 385.503906,61.0385742 385.347656,61.1899414 C385.191406,61.3413086 385.015625,61.5244141 384.820312,61.7392578 C384.625,61.9541016 384.478516,62.1469727 384.380859,62.3178711 C384.283203,62.4887695 384.234375,62.6425781 384.234375,62.7792969 C384.253906,63.2773438 384.361328,63.8071289 384.556641,64.3686523 C384.751953,64.9301758 385.037598,65.5185547 385.413574,66.1337891 C385.789551,66.7490234 386.253418,67.3935547 386.805176,68.0673828 C387.356934,68.7412109 387.999023,69.4443359 388.731445,70.1767578 C389.463867,70.8994141 390.166992,71.5390625 390.84082,72.0957031 C391.514648,72.6523438 392.15918,73.1162109 392.774414,73.4873047 C393.389648,73.8583984 393.975586,74.144043 394.532227,74.3442383 C395.088867,74.5444336 395.621094,74.6542969 396.128906,74.6738281 L396.128906,74.6738281 L396.158203,74.6738281 Z M396.128906,73.765625 C395.689453,73.7363281 395.218262,73.6289062 394.715332,73.4433594 C394.212402,73.2578125 393.680176,72.9892578 393.118652,72.6376953 C392.557129,72.2861328 391.966309,71.8515625 391.346191,71.3339844 C390.726074,70.8164062 390.074219,70.2158203 389.390625,69.5322266 C388.707031,68.8486328 388.106445,68.1967773 387.588867,67.5766602 C387.071289,66.956543 386.636719,66.3657227 386.285156,65.8041992 C385.933594,65.2426758 385.665039,64.7128906 385.479492,64.2148438 C385.293945,63.7167969 385.191406,63.2480469 385.171875,62.8085938 C385.201172,62.7207031 385.26709,62.6132812 385.369629,62.4863281 C385.472168,62.359375 385.611328,62.2080078 385.787109,62.0322266 C385.962891,61.8564453 386.143555,61.6879883 386.329102,61.5268555 C386.514648,61.3657227 386.705078,61.2167969 386.900391,61.0800781 C386.929688,61.0605469 386.961426,61.0458984 386.995605,61.0361328 C387.029785,61.0263672 387.066406,61.0214844 387.105469,61.0214844 L387.105469,61.0214844 L387.134766,61.0214844 C387.417969,61.4316406 387.713379,61.8710938 388.020996,62.3398438 C388.328613,62.8085938 388.65332,63.3115234 388.995117,63.8486328 C388.995117,63.8876953 388.987793,63.9316406 388.973145,63.9804688 C388.958496,64.0292969 388.936523,64.0830078 388.907227,64.1416016 C388.858398,64.2294922 388.775391,64.378418 388.658203,64.5883789 C388.541016,64.7983398 388.389648,65.0742188 388.204102,65.4160156 L388.204102,65.4160156 L387.911133,65.9287109 L388.262695,66.3828125 C388.477539,66.6953125 388.750977,67.0395508 389.083008,67.4155273 C389.415039,67.7915039 389.800781,68.2041016 390.240234,68.6533203 C390.689453,69.1025391 391.102051,69.4956055 391.478027,69.8325195 C391.854004,70.1694336 392.198242,70.4453125 392.510742,70.6601562 L392.510742,70.6601562 L392.994141,70.9824219 L393.477539,70.6894531 C393.819336,70.5039062 394.097656,70.3525391 394.3125,70.2353516 C394.527344,70.1181641 394.673828,70.0351562 394.751953,69.9863281 C394.810547,69.9570312 394.864258,69.9350586 394.913086,69.9204102 C394.961914,69.9057617 395.005859,69.8984375 395.044922,69.8984375 C395.425781,70.1425781 395.853027,70.4208984 396.32666,70.7333984 C396.800293,71.0458984 397.320312,71.4023438 397.886719,71.8027344 C397.896484,71.8320312 397.896484,71.8637695 397.886719,71.8979492 C397.876953,71.9321289 397.857422,71.96875 397.828125,72.0078125 C397.681641,72.203125 397.530273,72.3959961 397.374023,72.5864258 C397.217773,72.7768555 397.051758,72.9599609 396.875977,73.1357422 C396.700195,73.3115234 396.548828,73.453125 396.421875,73.5605469 C396.294922,73.6679688 396.197266,73.7363281 396.128906,73.765625 Z"
    opacity=".7" transform="translate(-384 -60)" />
</svg>
