<svg width="50" height="50" viewBox="0 0 50 50" fill="none" xmlns="http://www.w3.org/2000/svg">
  <g clip-path="url(#clip0)">
    <path
      d="M27.4068 9.89044C27.2189 9.69056 26.9486 9.5681 26.6683 9.55433H26.6677L20.5204 9.23287C20.1418 9.21325 19.8194 9.50314 19.7993 9.8818C19.7792 10.2599 20.0704 10.5824 20.4482 10.6021L25.1536 10.8486L11.1126 20.7801C10.8034 20.9992 10.7302 21.4267 10.9493 21.7358C11.1679 22.0454 11.596 22.1186 11.9055 21.8996L26.13 11.8372L25.3219 16.6711C25.2593 17.0438 25.5118 17.3977 25.8853 17.4604C26.2585 17.523 26.6124 17.2705 26.6751 16.8974L27.6899 10.827V10.8256C27.6999 10.7648 27.7054 10.7026 27.705 10.6404C27.7065 10.3615 27.5967 10.0885 27.4068 9.89044Z"
      fill="#00D09C" />
    <path
      d="M11.0518 32.5396H7.85052C7.21669 32.5423 6.70992 33.049 6.70721 33.6824V36.8823C6.71 37.5161 7.21669 38.0223 7.85052 38.0251H11.0518C11.6856 38.0224 12.1924 37.5161 12.1951 36.8823V33.6824C12.1924 33.049 11.6856 32.5423 11.0518 32.5396ZM10.8231 36.6536H8.07926V33.911H10.8231V36.6536Z"
      fill="#00D09C" />
    <path
      d="M18.8263 27.9683H15.6251C14.9912 27.971 14.4845 28.4777 14.4818 29.1111V36.8824C14.4845 37.5162 14.9912 38.0224 15.6251 38.0251H18.8263C19.4597 38.0224 19.9669 37.5162 19.9696 36.8824V29.1111C19.9669 28.4777 19.4597 27.971 18.8263 27.9683ZM18.5976 36.6536H15.8537V29.3397H18.5976V36.6536Z"
      fill="#00D09C" />
    <path
      d="M26.6005 22.9399H23.3992C22.7654 22.9427 22.2586 23.4494 22.2559 24.0827V36.8821C22.2586 37.5159 22.7654 38.0222 23.3992 38.0249H26.6005C27.2339 38.0222 27.7411 37.5159 27.7438 36.8821V24.0827C27.7411 23.4493 27.2339 22.9421 26.6005 22.9399ZM26.3719 36.6534H23.628V24.3114H26.3719V36.6534Z"
      fill="#00D09C" />
    <path
      d="M34.375 17.4541H31.1738C30.5399 17.4568 30.0332 17.9636 30.0305 18.5969V36.8818C30.0332 37.5161 30.5399 38.0223 31.1738 38.0251H34.375C35.0084 38.0224 35.5156 37.5162 35.5183 36.8823V18.5969C35.5156 17.9635 35.0084 17.4568 34.375 17.4541ZM34.1464 36.6536H31.4025V24.3115H34.1464V36.6536ZM34.1464 22.9401H31.4025V18.8261H34.1464V22.9401Z"
      fill="#00D09C" />
    <path
      d="M42.1493 9.68286H38.9481C38.3142 9.68557 37.8075 10.1923 37.8047 10.8257V36.8822C37.8075 37.5161 38.3142 38.0222 38.9481 38.025H42.1493C42.7827 38.0223 43.2899 37.5161 43.2926 36.8822V10.8257C43.2899 10.1923 42.7827 9.68557 42.1493 9.68286ZM41.9206 36.6531H39.1767V18.8255H41.9206V36.6531ZM41.9206 17.454H39.1767V11.0543H41.9206V17.454Z"
      fill="#00D09C" />
    <path
      d="M43.064 39.3965H6.93599C6.55732 39.3965 6.25 39.7038 6.25 40.082C6.25 40.4606 6.55732 40.7679 6.93599 40.7679H43.064C43.4427 40.7679 43.75 40.4606 43.75 40.082C43.75 39.7038 43.4427 39.3965 43.064 39.3965Z"
      fill="#00D09C" />
  </g>
  <defs>
    <clipPath id="clip0">
      <rect width="37.5" height="37.5" fill="white" transform="translate(6.25 6.25)" />
    </clipPath>
  </defs>
</svg>
