<svg width="36" height="36" viewBox="0 0 36 36" fill="none" xmlns="http://www.w3.org/2000/svg">
<path opacity="0.05" d="M18 36C27.9411 36 36 27.9411 36 18C36 8.05888 27.9411 0 18 0C8.05888 0 0 8.05888 0 18C0 27.9411 8.05888 36 18 36Z" fill="#44475B"/>
<path d="M22.25 15H21.625V13.75C21.625 12.025 20.225 10.625 18.5 10.625C16.775 10.625 15.375 12.025 15.375 13.75V15H14.75C14.0594 15 13.5 15.5594 13.5 16.25V22.5C13.5 23.1906 14.0594 23.75 14.75 23.75H22.25C22.9406 23.75 23.5 23.1906 23.5 22.5V16.25C23.5 15.5594 22.9406 15 22.25 15ZM18.5 20.625C17.8094 20.625 17.25 20.0656 17.25 19.375C17.25 18.6844 17.8094 18.125 18.5 18.125C19.1906 18.125 19.75 18.6844 19.75 19.375C19.75 20.0656 19.1906 20.625 18.5 20.625ZM20.4375 15H16.5625V13.75C16.5625 12.6813 17.4313 11.8125 18.5 11.8125C19.5687 11.8125 20.4375 12.6813 20.4375 13.75V15Z" fill="#44475B"/>
</svg>
