<svg width="12" height="16" viewBox="0 0 12 16" fill="none" xmlns="http://www.w3.org/2000/svg">
<path d="M6.00002 4V6L8.66669 3.33333L6.00002 0.666664V2.66666C3.05335 2.66666 0.666687 5.05333 0.666687 8C0.666687 9.04666 0.973354 10.0167 1.49335 10.84L2.46669 9.86666C2.17002 9.31 2.00002 8.67666 2.00002 8C2.00002 5.79 3.79002 4 6.00002 4ZM10.5067 5.16L9.53335 6.13333C9.83002 6.69 10 7.32333 10 8C10 10.21 8.21002 12 6.00002 12V10L3.33335 12.6667L6.00002 15.3333V13.3333C8.94669 13.3333 11.3334 10.9467 11.3334 8C11.3334 6.95333 11.0267 5.98333 10.5067 5.16Z" fill="#FFB61B"/>
</svg>
