<svg width="29" height="55" viewBox="0 0 29 55" fill="none" xmlns="http://www.w3.org/2000/svg">
<path d="M15.2397 28.4539C15.2397 27.1036 26.4284 24.0171 26.4284 16.4937C23.9206 18.7121 19.4837 20.2554 14.4681 20.2554C9.45249 20.2554 5.01561 18.7121 2.50781 16.4937C2.50781 24.21 13.6965 27.0071 13.6965 28.4539C13.6965 30.1901 2.50781 31.7334 2.50781 41.6681C2.50781 45.6227 7.90923 48.8057 14.5645 48.8057C21.2199 48.8057 26.6213 45.6227 26.6213 41.6681C26.4284 31.6369 15.2397 30.1901 15.2397 28.4539Z" fill="#66E3C4"/>
<path d="M14.3717 50.7319C22.3089 50.7319 28.7433 47.0181 28.7433 42.4369C28.7433 37.8557 22.3089 34.1418 14.3717 34.1418C6.43442 34.1418 0 37.8557 0 42.4369C0 47.0181 6.43442 50.7319 14.3717 50.7319Z" fill="white"/>
<path d="M28.7433 46.104C28.7433 50.6373 22.3773 54.399 14.3717 54.399C6.36598 54.399 0 50.7338 0 46.104V42.4387C0 46.9721 6.36598 50.7338 14.3717 50.7338C22.3773 50.7338 28.7433 47.0685 28.7433 42.4387V46.104Z" fill="#0ABB92"/>
<path d="M19.1953 50.2515V53.9167C24.7896 52.7593 28.6478 49.6728 28.6478 46.104V42.4387C28.7442 46.104 24.7896 49.094 19.1953 50.2515Z" fill="#66E3C4"/>
<path d="M14.468 23.6321C12.4424 23.6321 10.8027 24.3073 10.8027 25.1753C10.8027 25.2718 10.8027 25.4647 10.8992 25.5612C11.4779 26.8151 14.0822 27.2009 14.1786 28.5512C14.1786 28.937 14.3715 33.9526 14.3715 34.242C14.3715 33.9526 14.5644 28.937 14.5644 28.5512C14.7573 27.2009 17.3616 26.8151 17.8439 25.5612C17.9403 25.4647 17.9403 25.3683 17.9403 25.1753C18.0368 24.4037 16.4935 23.6321 14.468 23.6321Z" fill="#0ABB92"/>
<path d="M25.4637 41.7637C25.4637 36.4588 14.3715 32.6006 14.3715 31.1538C14.3715 32.5042 3.2793 36.3623 3.2793 41.7637V41.8602C3.2793 45.2361 8.19844 47.9368 14.275 48.0332H14.4679C20.5445 47.9368 25.4637 45.2361 25.4637 41.7637Z" fill="#0ABB92"/>
<path d="M21.7989 48.226C23.728 47.0685 24.9819 45.3324 24.9819 42.7281C24.9819 34.9153 14.8543 30.7678 14.8543 28.4529C14.8543 26.5239 25.6571 23.2444 25.6571 15.3352L23.3422 16.1068C23.3422 24.0161 14.7578 26.138 14.7578 28.5494C14.7578 31.2501 22.667 35.0118 22.667 42.8246C22.667 45.4288 21.4131 47.165 19.484 48.3224" fill="white"/>
<path d="M28.7433 11.9619C28.7433 16.4952 22.3773 20.2569 14.3717 20.2569C6.36598 20.2569 0 16.5917 0 11.9619V8.29663C0 12.83 6.36598 16.5917 14.3717 16.5917C22.3773 16.5917 28.7433 12.9264 28.7433 8.29663V11.9619Z" fill="#0ABB92"/>
<path d="M14.3717 16.5901C22.3089 16.5901 28.7433 12.8763 28.7433 8.29504C28.7433 3.71381 22.3089 0 14.3717 0C6.43442 0 0 3.71381 0 8.29504C0 12.8763 6.43442 16.5901 14.3717 16.5901Z" fill="white"/>
<path d="M19.1953 16.1094V19.7746C24.7896 18.6172 28.6478 15.5307 28.6478 11.9619V8.29663C28.7442 11.9619 24.7896 14.952 19.1953 16.1094Z" fill="#66E3C4"/>
</svg>
