<svg xmlns="http://www.w3.org/2000/svg" width="132" height="110" viewBox="0 0 132 110">
    <g fill="none" fill-rule="evenodd">
        <path fill="#F0E8E8" d="M57.356 21.884v26.601H53.18c-2.967 0-5.373-2.405-5.373-5.372V27.258c0-2.968 2.406-5.374 5.373-5.374h4.176zm0 41.056H55.05c.332 1.15 1.195 2.076 2.307 2.492V83.99H19.332c-2.511 0-4.549-2.036-4.549-4.55V61.939c0-2.513 2.038-4.55 4.55-4.55H54.9v4.5c0 .18.013.356.038.528h2.418v.524zm60.405-19.827V27.258c0-2.968-2.407-5.374-5.374-5.374h-10.615v13.073c0 .825-.668 1.493-1.493 1.493v12.035h12.108c2.967 0 5.374-2.405 5.374-5.372z" opacity=".3"/>
        <path fill="#303131" d="M98.748 7.444l-.508.255-.255-.509c-.69-1.38-2.368-1.939-3.747-1.25-.978.49-1.545 1.476-1.545 2.5 0 .074.003.147.01.22.026.348.12.697.286 1.027l.254.51 2.497 4.995 4.539-2.269.458-.228.508-.254c1.38-.69 1.94-2.367 1.25-3.747-.689-1.38-2.367-1.94-3.747-1.25zM128.11 30.61c-2.132 0-3.868 1.736-3.868 3.868 0 2.132 1.736 3.867 3.868 3.867 2.132 0 3.866-1.735 3.866-3.867 0-2.132-1.734-3.868-3.866-3.868zm0 7.101c-1.784 0-3.235-1.45-3.235-3.233 0-1.784 1.45-3.235 3.235-3.235 1.782 0 3.233 1.451 3.233 3.235 0 1.782-1.451 3.233-3.233 3.233zM84.813 53.765h1.26c.755 0 1.367.612 1.367 1.368v2.192l-.856-1.674c-.043-.084-.089-.166-.136-.245h-.002v-.001c-.03-.072-.063-.143-.097-.212-.224-.458-.525-.867-.966-1.14-.19-.116-.38-.214-.57-.288zm-21.196 1.368v2.445c0 .755.613 1.367 1.368 1.367h14.94c-.243-.503-.366-1.042-.366-1.599 0-1.403.777-2.672 2.025-3.31.227-.115.461-.206.697-.271H64.985c-.755 0-1.368.612-1.368 1.368zM43.82 18.817l-1.347-6.126 6.127-1.347 1.348 6.127-6.128 1.346zm-.593-5.644l1.076 4.891 4.89-1.075-1.076-4.89-4.89 1.074zM35.781 37.47l-.363.18-.182-.36c-.49-.983-1.685-1.382-2.667-.89-.697.348-1.1 1.05-1.1 1.78 0 .299.067.602.21.888l.18.362 1.78 3.558 3.557-1.778.363-.18c.983-.493 1.38-1.687.89-2.67-.491-.983-1.687-1.38-2.668-.89zm-9.153 33.021c.72.208 1.404.119 1.89-.25.105-.078.253-.058.33.046.08.103.06.251-.044.33-.636.48-1.522.587-2.433.289l-.118-.04c-.542.424-1.299.636-2.059.636h-.04c.247.737.367 1.578.367 2.532 0 2.47-.452 4.674-1.941 5.764v1.348c0 .832-.676 1.507-1.508 1.507-.182 0-.357-.032-.519-.091-.578-.212-.99-.766-.99-1.416v-.623h-5.757v.623c0 .65-.412 1.204-.99 1.416-.162.059-.335.091-.519.091-.832 0-1.507-.675-1.507-1.507v-.783c-1.8-.42-2.94-1.658-3.446-3.415l-1.536.222c-.627-.012-1.043-4.105-.069-4.147.041-.003.082-.003.123-.002l1.335.024c.142-.653.38-1.256.7-1.806.384-.656.888-1.235 1.498-1.726l-.864-2.155-.307-.767c1.914-.77 4.62-.438 5.475 1.134.273-.042.555-.078.842-.104.206-.019.413-.034.622-.046-.297.261-.508.617-.588 1.017-.024.119-.037.238-.037.364l.001.024c-.254.058-.452.12-.59.169-.134.047-.212.08-.228.087-.07.031-.101.115-.07.187.031.07.116.103.186.07.001-.001.021-.01.056-.022.363-.141 2.436-.855 5.197.028.014.004.03.007.043.007.06 0 .115-.038.134-.099.024-.073-.017-.152-.091-.176-.33-.106-.65-.19-.96-.254.002-.007.002-.014.002-.021 0-.126-.013-.245-.036-.364-.078-.386-.278-.73-.556-.987.197.017.393.037.588.06 3.044.355 4.904 1.449 5.756 3.366.7.055 1.324-.107 1.784-.394-.646-.357-1.133-.894-1.305-1.47-.213-.71-.042-1.348.459-1.702.47-.334 1.125-.331 1.593.009.292.211.92.87.443 2.411-.07.226-.178.427-.316.606zm-16.349 2.111c0-.423-.344-.767-.767-.767-.424 0-.768.344-.768.767 0 .18.06.344.165.474.138.178.354.293.598.295h.005c.423 0 .767-.344.767-.769zm-2.3 4.735s.666 1.058 1.034.865c.264-.14.365-.564.264-1.386l-1.299.521zM24.9 69.033c.149.5.633.986 1.252 1.28.162-.17.277-.363.341-.566.272-.88.175-1.57-.27-1.891-.155-.112-.34-.168-.527-.168-.182 0-.364.053-.517.162-.332.237-.435.667-.28 1.183z"/>
        <path fill="#D2AB66" d="M100.279 36.45V16.322c.413 0 .785.166 1.056.437.27.27.437.643.437 1.056v17.142c0 .5-.245.943-.623 1.214-.245.175-.544.28-.87.28zm23.096 53.946l1.841 3.19c.477.824.195 1.88-.632 2.357l-16.427 9.486c-.826.476-1.882.193-2.359-.634l-1.842-3.19c-.476-.824-.193-1.88.632-2.357l.536-.31.228-.131.232-.134 14.484-8.362.228-.132.229-.133.492-.283c.825-.477 1.881-.194 2.358.633zM54.9 27.323v34.565c0 .18.013.356.038.528h26.759l-1.727-3.379-.012-.023-.034-.069h-14.94c-.754 0-1.367-.612-1.367-1.367v-2.446c0-.755.613-1.367 1.368-1.367H82.28c.345-.096.696-.14 1.043-.134.485-.113.983-.067 1.49.134h1.258c.756 0 1.368.612 1.368 1.367v2.193l2.605 5.09h.315c1.63 0 2.955-1.324 2.955-2.954V23.764c0-.075-.003-.148-.01-.221-.019-.002-.038-.002-.057-.002H58.683c-.467 0-.914.085-1.327.24-1.435.537-2.456 1.92-2.456 3.542zM81.966 62.94l1.396 2.731H58.683c-.467 0-.914-.084-1.327-.24-1.112-.415-1.975-1.34-2.307-2.491h26.917zM93.84 23.764c0-.06-.001-.118-.004-.178 1.809.282 3.195 1.847 3.195 3.737v34.565c0 1.56-.942 2.898-2.288 3.476-.459.199-.964.307-1.494.307H91.71l-1.397-2.731h.047c1.918 0 3.48-1.56 3.48-3.479V23.764z"/>
        <path fill="#F0E8E8" d="M17.578 4.705c.515 0 .932-.417.932-.932V.933c0-.516-.417-.933-.932-.933-.515 0-.932.417-.932.932v2.841c0 .515.417.932.932.932zm3.525.945c.147.085.308.126.466.126.321 0 .635-.168.807-.467l1.42-2.46c.258-.446.106-1.016-.34-1.274s-1.016-.104-1.274.341l-1.42 2.46c-.258.446-.104 1.018.341 1.274zm2.58 2.58c.173.3.487.467.809.467.158 0 .318-.04.465-.125l2.46-1.42c.446-.258.6-.828.342-1.273-.258-.447-.828-.6-1.274-.342l-2.46 1.42c-.446.258-.6.828-.341 1.274zm69.56 1.966l2.497 4.996 4.539-2.269V65.522c-.223.431-.361.91-.4 1.409-.873-1.551-2.698-2.266-4.399-1.702-.186.06-.365.135-.53.221l-.09.048-.048.025c-.677.384-1.207.956-1.537 1.667-.142.309-.241.633-.296.963l-1.269-2.482h1.538c.53 0 1.035-.108 1.494-.307 1.346-.578 2.288-1.916 2.288-3.476V27.323c0-1.89-1.386-3.455-3.195-3.737-.093-1.836-1.616-3.3-3.475-3.3H57.356V12.89c0-2.336 1.893-4.23 4.229-4.23h9.228c.1.016.203.025.307.025h15.395c.105 0 .207-.009.308-.024h5.88c.026.347.12.696.286 1.026l.254.51zm-3.327 79.93l-1.352-1.204h-.578c-.735 0-1.328-.593-1.328-1.328v-.37l-1.983-1.766v2.136c0 .735-.594 1.328-1.327 1.328h-3.68c-.733 0-1.327-.593-1.327-1.328v-3.679c0-.733.594-1.328 1.327-1.328h1.784l-.837-.745c-.736-.675-1.143-1.617-1.146-2.652-.004-1.03.39-2.03 1.111-2.815l.082-.086c.706-.733 1.63-1.181 2.613-1.266.482-.044.956.003 1.406.14.507.153.961.41 1.348.765l.022.022 4.717 4.2-7.406-14.479H58.683c-.467 0-.914-.084-1.327-.24v15.92h4.119c.162 0 .293.132.293.292 0 .163-.13.294-.293.294h-4.119v12.296c0 2.335 1.893 4.228 4.229 4.228h34.467c1.693 0 3.154-.995 3.828-2.433-2.173-.116-6.314-.877-9.964-5.902zm-21.874-2.532c0 .735-.595 1.328-1.328 1.328h-3.68c-.733 0-1.328-.593-1.328-1.328v-3.679c0-.733.595-1.328 1.329-1.328h3.679c.733 0 1.328.595 1.328 1.328v3.679zm1.981-3.679c0-.733.595-1.328 1.328-1.328h3.68c.732 0 1.327.595 1.327 1.328v3.679c0 .735-.595 1.328-1.328 1.328h-3.679c-.733 0-1.328-.593-1.328-1.328v-3.679zm16.989 11.403H70.624c-.144 0-.261-.117-.261-.262 0-.145.117-.262.26-.262h16.389c.143 0 .262.117.262.262 0 .145-.119.262-.262.262zM7.898 71.24l-1.44-3.59c.691-.277 1.405-.367 2.073-.29l.864 2.154c-.61.49-1.114 1.07-1.497 1.726zm5.908 9.907c0 .65-.412 1.204-.99 1.416.161.059.336.091.518.091.833 0 1.507-.675 1.507-1.507v-.623h-1.035v.623zm5.757 0v-.623h-1.035v.623c0 .832.674 1.507 1.508 1.507.182 0 .357-.032.517-.091-.578-.212-.99-.766-.99-1.416zm73.685-57.606c.019 0 .038 0 .057.002-.112-1.526-1.39-2.733-2.945-2.733H57.356v2.971c.413-.155.86-.24 1.327-.24h34.565zM.998 95.81h33.16c.5 0 .905.406.905.907 0 .25-.102.476-.265.64-.164.163-.39.265-.64.265H.998c-.5 0-.905-.405-.905-.905 0-.251.102-.477.265-.642.164-.163.39-.265.64-.265zm32.515-4.855H19.128c-.429 0-.815.174-1.096.454-.28.28-.454.669-.454 1.096 0 .856.694 1.55 1.55 1.55h14.385c.429 0 .815-.174 1.096-.455.28-.28.454-.668.454-1.095 0-.856-.694-1.55-1.55-1.55zM25.56 12.688c-.514 0-.932-.417-.932-.932 0-.515.418-.932.932-.932h2.842c.514 0 .932.417.932.932 0 .515-.418.932-.932.932H25.56zm-1.876 2.593c.256-.446.827-.6 1.273-.341l2.46 1.42c.446.258.6.827.342 1.273-.172.3-.487.467-.808.467-.158 0-.319-.04-.466-.126l-2.46-1.42c-.446-.258-.6-.827-.341-1.273zm-.693 6.781c-.323 0-.636-.168-.809-.467l-1.42-2.46c-.258-.446-.104-1.017.341-1.274.446-.258 1.015-.104 1.273.342l1.42 2.46c.258.446.106 1.016-.34 1.274-.147.084-.307.125-.465.125zm-9.388 27.92c.725 1.16 2.696 2.1 4.402 2.1 1.705 0 2.499-.94 1.774-2.1-.726-1.16-2.696-2.1-4.402-2.1-1.705 0-2.5.94-1.774 2.1zM18.51 22.58c0 .514-.417.932-.932.932-.515 0-.932-.418-.932-.932v-2.842c0-.514.417-.932.932-.932.515 0 .932.418.932.932v2.842zm-2.132 44.537c.48 0 .92.185 1.248.49.278.256.478.6.556.986.024.119.036.238.036.364l-.001.021c.001.033 0 .065-.003.097-1.207-.142-2.455-.156-3.673-.043-.002-.017-.003-.034-.002-.051l-.001-.024c0-.126.013-.245.037-.364.08-.4.291-.756.588-1.017.324-.286.75-.46 1.215-.46zm.718-27.62c.526.24.77-.587.547-1.85-.224-1.261-.832-2.48-1.357-2.72-.526-.24-.771.587-.547 1.85.223 1.261.83 2.48 1.357 2.72zM13.588 5.777c-.322 0-.635-.168-.808-.467l-1.42-2.46c-.258-.446-.106-1.016.34-1.274s1.016-.104 1.274.341l1.42 2.46c.258.446.104 1.018-.341 1.274-.147.085-.308.126-.465.126zM11.7 21.936c.146.085.306.126.465.126.322 0 .635-.168.808-.467l1.42-2.46c.258-.446.104-1.017-.341-1.274-.446-.258-1.015-.104-1.273.342l-1.42 2.46c-.258.446-.106 1.016.34 1.274zM10.199 8.573l-2.46-1.42c-.446-.258-.6-.828-.342-1.273.258-.447.828-.6 1.274-.342l2.46 1.42c.446.258.6.828.341 1.274-.172.299-.486.466-.808.466-.158 0-.318-.04-.465-.125zm1.273 6.709c-.256-.446-.827-.6-1.273-.341l-2.46 1.42c-.446.258-.6.827-.342 1.273.174.3.487.467.808.467.158 0 .319-.04.466-.126l2.46-1.42c.446-.258.6-.827.341-1.273zm-1.876-2.593H6.754c-.514 0-.932-.417-.932-.932 0-.515.418-.932.932-.932h2.842c.514 0 .932.417.932.932 0 .515-.418.932-.932.932zM1.643 94.053h4.143c.428 0 .815-.173 1.095-.454.28-.28.454-.668.454-1.095 0-.856-.694-1.55-1.55-1.55H1.644c-.429 0-.815.174-1.096.454-.28.28-.454.669-.454 1.096 0 .856.694 1.55 1.55 1.55zm16.53-33.721h14.004c1.644 0 2.979 1.336 2.979 2.979v22.265c0 1.643-1.335 2.98-2.98 2.98H2.98C1.335 88.556 0 87.219 0 85.576V63.311c0-1.643 1.335-2.98 2.98-2.98h11.603c.18-.823.917-1.44 1.795-1.44.879 0 1.615.617 1.795 1.44zm14.004 28.037c1.54 0 2.793-1.253 2.793-2.793V63.311c0-1.54-1.252-2.793-2.793-2.793H18.205c.009.07.013.142.013.214 0 1.015-.823 1.84-1.84 1.84-1.017 0-1.84-.825-1.84-1.84 0-.072.004-.144.013-.214H2.979c-1.54 0-2.793 1.253-2.793 2.793v22.265c0 1.54 1.252 2.793 2.793 2.793h29.198z"/>
        <path fill="#F0E8E8" fill-rule="nonzero" d="M131.616 40.72v17.503c0 2.513-2.037 4.55-4.548 4.55h-26.789V36.45c.326 0 .625-.104.87-.279h25.919c2.511 0 4.548 2.036 4.548 4.55z" opacity=".3"/>
        <path fill="#FFF" d="M83.297 49.471c0 .722.586 1.307 1.308 1.307.721 0 1.305-.585 1.307-1.307v-3.982c0-.722-.586-1.307-1.307-1.307-.722 0-1.308.585-1.308 1.307v3.982zM85.91 75.83v-3.982c0-.722-.584-1.308-1.305-1.308-.722 0-1.308.586-1.308 1.308v3.436c.445-.041.887.001 1.308.13.454.136.88.37 1.246.708l.021.02c.026-.1.038-.205.038-.312zM74.915 56.372c-.222 0-.447-.056-.652-.175l-3.449-1.99c-.625-.362-.839-1.161-.478-1.786s1.16-.839 1.785-.478l3.45 1.991c.624.361.838 1.16.477 1.785-.242.419-.682.653-1.133.653zm20.155 9.31c.16-.082.326-.15.492-.205l-.616-.356c-.625-.36-1.424-.146-1.785.479-.334.582-.174 1.31.352 1.7.313-.674.844-1.252 1.557-1.617zm-23.602 3.87c-.451 0-.89-.234-1.132-.654-.361-.625-.147-1.424.478-1.785l3.449-1.991c.625-.361 1.424-.147 1.785.478.361.624.147 1.424-.478 1.785l-3.45 1.99c-.206.12-.43.177-.652.177zm21.694-13.834c.241.42.681.654 1.133.654.221 0 .445-.056.652-.176l3.45-1.991c.624-.361.838-1.16.478-1.785-.361-.625-1.161-.84-1.786-.478l-3.449 1.99c-.624.362-.839 1.161-.478 1.786z" opacity=".6"/>
        <path fill="#000" d="M86.029 75.928c-.433-.397-.95-.672-1.513-.812l-6.49-12.69c-1.191-2.327-.369-5.164 1.821-6.511-.04.093-.075.189-.106.286-.306.945-.224 1.952.227 2.836l10.8 21.113-4.74-4.222zM125.356 95l.366.634c.435.753.55 1.629.326 2.47-.226.838-.764 1.54-1.517 1.975l-16.428 9.484c-.494.286-1.056.437-1.625.437-1.16 0-2.24-.625-2.819-1.627l-1.842-3.19c-.434-.753-.55-1.63-.325-2.469.152-.567.447-1.072.854-1.472-.641-.713-1.268-1.108-1.796-1.115l-.068-.001h-.443c-1.792 0-7.22 0-11.881-6.332l-9.215-8.208c-.998-.915-1.551-2.186-1.555-3.58-.006-1.347.507-2.653 1.444-3.673.309-.338.654-.632 1.026-.879-.702 1.502-.448 3.284.759 4.388l9.3 8.284c4.317 5.945 9.273 5.933 11.14 5.923.123-.002.232-.002.327 0 1.506.02 2.8 1.424 3.74 2.889l-.536.31c-.825.477-1.108 1.533-.632 2.358l1.842 3.19c.477.826 1.533 1.11 2.359.633l16.427-9.486c.38-.219.643-.56.772-.943z" opacity=".1"/>
        <path fill="#000" d="M103.663 66.584c0-.318.257-.576.574-.576.319 0 .575.258.575.576 0 .317-.256.575-.575.575-.317 0-.574-.258-.574-.575zm6.324-.576c-.318 0-.575.258-.575.576 0 .317.257.575.575.575.318 0 .574-.258.574-.575 0-.318-.256-.576-.574-.576zm1.437 1.437c-.12 0-.23.037-.321.099-.026.017-.05.038-.07.058l-.009.006-.007.007c-.051.05-.093.112-.122.181h-.001c-.03.07-.045.146-.045.225 0 .317.257.575.575.575.16 0 .302-.065.406-.17.103-.104.168-.247.168-.405 0-.318-.257-.576-.574-.576zm.862 2.012c0-.317.258-.573.575-.573.317 0 .575.256.575.573 0 .32-.258.576-.575.576-.317 0-.575-.257-.575-.576zm2.012 3.737c.199 0 .374.102.477.254.042.062.071.131.087.206.007.038.011.076.011.116 0 .317-.258.575-.575.575-.317 0-.574-.258-.574-.575 0-.04.003-.078.011-.116.016-.075.045-.144.086-.206.103-.152.278-.254.477-.254zm.863 7.761c0-.317.257-.574.574-.574.319 0 .575.257.575.574 0 .319-.256.576-.575.576-.317 0-.574-.257-.574-.576zm0 2.875c0-.317.257-.575.574-.575.319 0 .575.258.575.575 0 .318-.256.576-.575.576-.317 0-.574-.258-.574-.576zm.574 2.3c-.317 0-.574.257-.574.574 0 .319.257.575.574.575.319 0 .575-.256.575-.575 0-.317-.256-.574-.575-.574zm-.96-6.933c-.103-.152-.278-.253-.477-.253-.199 0-.374.1-.477.253-.04.062-.07.131-.086.206-.008.038-.011.076-.011.115 0 .318.257.576.574.576.317 0 .575-.258.575-.576 0-.04-.004-.077-.011-.115-.016-.075-.045-.144-.087-.206zm-.477 5.496c.199 0 .374.1.477.253.042.062.071.13.087.206.007.038.011.076.011.115 0 .317-.258.576-.575.576-.317 0-.574-.259-.574-.576 0-.04.003-.077.011-.115.016-.075.045-.144.086-.206.103-.153.278-.253.477-.253zm0-8.624c-.317 0-.574.258-.574.576 0 .317.257.574.574.574.317 0 .575-.257.575-.574 0-.318-.258-.576-.575-.576zm-.574 6.325c0-.318.257-.576.574-.576.317 0 .575.258.575.576 0 .317-.258.573-.575.573-.317 0-.574-.256-.574-.573zm.574 5.173c-.317 0-.574.258-.574.575 0 .318.257.574.574.574.317 0 .575-.256.575-.574 0-.317-.258-.575-.575-.575zm-1.437-15.81c-.317 0-.575.258-.575.576 0 .317.258.575.575.575.317 0 .575-.258.575-.575 0-.318-.258-.576-.575-.576zm-.575 3.45c0-.318.258-.575.575-.575.317 0 .575.257.575.574 0 .319-.258.576-.575.576-.317 0-.575-.257-.575-.576zm.575 2.3c-.317 0-.575.257-.575.575 0 .317.258.575.575.575.317 0 .575-.258.575-.575 0-.318-.258-.576-.575-.576zm-.575 3.448c0-.317.258-.574.575-.574.317 0 .575.257.575.574 0 .319-.258.576-.575.576-.317 0-.575-.257-.575-.576zm.575 2.3c-.317 0-.575.258-.575.575 0 .318.258.576.575.576.317 0 .575-.258.575-.576 0-.317-.258-.575-.575-.575zm-.575 3.45c0-.318.258-.575.575-.575.317 0 .575.257.575.574 0 .319-.258.575-.575.575-.317 0-.575-.256-.575-.575zm.575 2.299c-.317 0-.575.258-.575.575 0 .318.258.576.575.576.317 0 .575-.258.575-.576 0-.317-.258-.575-.575-.575zm-1.437-15.81c.198 0 .372.102.477.254.04.062.07.131.086.206.008.038.011.076.011.116 0 .317-.257.575-.574.575-.318 0-.575-.258-.575-.575 0-.04.004-.078.011-.116.016-.075.045-.144.088-.206.103-.152.277-.254.476-.254zm.477 6.003c-.105-.152-.28-.253-.477-.253-.199 0-.373.1-.476.253-.043.062-.072.131-.088.206-.007.038-.011.076-.011.115 0 .318.257.576.575.576.317 0 .574-.258.574-.576 0-.04-.003-.077-.011-.115-.016-.075-.045-.144-.086-.206zm-.477 11.245c.198 0 .372.1.477.253.04.062.07.13.086.206.008.038.011.076.011.115 0 .317-.257.575-.574.575-.318 0-.575-.258-.575-.575 0-.04.004-.077.011-.115.016-.075.045-.144.088-.206.103-.153.277-.253.476-.253zm-.575-19.546c0-.319.257-.576.575-.576.317 0 .574.257.574.576 0 .317-.257.574-.574.574-.318 0-.575-.257-.575-.574zm.575 5.173c-.318 0-.575.258-.575.576 0 .317.257.574.575.574.317 0 .574-.257.574-.574 0-.318-.257-.576-.574-.576zm-.575 12.073c0-.317.257-.575.575-.575.317 0 .574.258.574.575 0 .318-.257.574-.574.574-.318 0-.575-.256-.575-.574zm-1.437-18.685c0-.317.257-.573.574-.573.319 0 .575.256.575.573 0 .32-.256.576-.575.576-.317 0-.574-.257-.574-.576zm.574 2.3c-.317 0-.574.258-.574.576 0 .317.257.575.574.575.319 0 .575-.258.575-.575 0-.318-.256-.576-.575-.576zm-.574 3.45c0-.318.257-.575.574-.575.319 0 .575.257.575.574 0 .319-.256.576-.575.576-.317 0-.574-.257-.574-.576zm.574 13.797c-.317 0-.574.258-.574.575 0 .318.257.576.574.576.319 0 .575-.258.575-.576 0-.317-.256-.575-.575-.575zm-.574 3.45c0-.318.257-.575.574-.575.319 0 .575.257.575.575 0 .318-.256.574-.575.574-.317 0-.574-.256-.574-.574zm-.863-25.009c-.118 0-.23.037-.321.099-.021.014-.04.031-.06.047l-.011.01-.007.007-.007.007c-.052.05-.093.112-.123.181-.03.07-.046.146-.046.225 0 .317.258.575.575.575.19 0 .358-.095.463-.237l.005-.006.009-.01.003-.007.004-.007c.058-.09.091-.194.091-.308 0-.04-.004-.08-.01-.116-.054-.262-.287-.46-.565-.46zm0 5.75c.199 0 .374.1.477.253.042.062.072.131.087.206.007.038.011.076.011.116 0 .317-.258.575-.575.575-.317 0-.575-.258-.575-.575 0-.04.004-.078.012-.116.016-.075.046-.144.086-.206.103-.152.278-.254.477-.254zm.477 17.5c-.103-.153-.278-.253-.477-.253-.199 0-.374.1-.477.253-.04.062-.07.13-.086.206-.008.038-.012.076-.012.115 0 .317.258.575.575.575.317 0 .575-.258.575-.575 0-.04-.004-.077-.01-.115-.016-.075-.046-.144-.088-.206zm-1.052-19.8c0-.318.258-.575.575-.575.317 0 .575.257.575.576 0 .317-.258.574-.575.574-.317 0-.575-.257-.575-.574zm-.862-2.011c-.317 0-.575.256-.575.573 0 .32.258.576.575.576.317 0 .576-.257.576-.576 0-.317-.259-.573-.576-.573zm-1.758-1.34c.091-.062.201-.099.321-.099.318 0 .574.258.574.576 0 .158-.063.301-.168.406-.104.104-.248.169-.406.169-.318 0-.575-.258-.575-.575 0-.08.016-.155.045-.225h.002c.028-.069.07-.13.12-.181l.009-.007.007-.006c.021-.02.045-.041.07-.058zm10.38 11.113c.32 0 .576-.258.576-.575 0-.318-.256-.576-.575-.576-.317 0-.574.258-.574.576 0 .317.257.575.574.575z" opacity=".3"/>
        <path fill="#303030" d="M70.813 8.66c.1.016.203.025.307.025h15.395c.105 0 .207-.009.308-.024.939-.148 1.66-.963 1.66-1.943V4.477h-3.475c-.145 0-.262.118-.262.262 0 .145.117.263.262.263h2.951v1.716c0 .796-.649 1.443-1.444 1.443H71.12c-.795 0-1.444-.647-1.444-1.443V5.002h11.495c.144 0 .262-.118.262-.263 0-.144-.118-.262-.262-.262H69.153v2.24c0 .98.72 1.796 1.66 1.944zm47.247 68.16c.178.421.264.862.257 1.31-.027 1.82.091 6.51 1.745 10.774.153.392.31.777.463 1.142l-.229.133-.228.132c-.164-.388-.331-.8-.494-1.218-1.687-4.349-1.809-9.12-1.782-10.97.007-.377-.065-.745-.214-1.099l-5.236-12.389c-.324-.627-.871-1.091-1.542-1.309-.674-.217-1.392-.16-2.022.163-1.174.6-1.724 1.943-1.309 3.193l-.24.1-.24.102-.568-1.107c-.389-.76-1.049-1.321-1.861-1.583-.81-.263-1.675-.194-2.434.194-1.071.549-1.736 1.637-1.736 2.843 0 .357.058.708.174 1.04l-.285.123-.195.083-.599-1.171c-.71-1.39-2.362-2.07-3.841-1.581-.16.054-.312.117-.454.19-.639.328-1.136.845-1.44 1.495-.253.551-.348 1.158-.27 1.754l.194 1.495-2.552-4.988-1.397-2.73-.268-.525-2.162-4.225-.111-.22c.014.128.022.252.022.372.003.119-.003.233-.014.344-.066.652-.362 1.224-.812 1.571-.364.28-.798.395-1.228.395-.471 0-.938-.137-1.312-.345-.589-.329-1.049-.83-1.448-1.363-.101-.134-.199-.27-.293-.407-.065-.093-.13-.188-.193-.284l-.106-.152-.001-.003-.061-.089c-.48-.692-.636-1.556-.43-2.371.115-.457.334-.863.637-1.195-.04.017-.08.037-.121.058-1.075.549-1.74 1.639-1.74 2.844 0 .508.118.996.351 1.451l.076.148 1.775 3.47.268.525 1.398 2.731 8.556 16.73-6.836-6.088c-.326-.3-.71-.519-1.144-.648-.385-.119-.79-.158-1.207-.12-.89.076-1.726.496-2.353 1.183l-.063.07c-.593.679-.916 1.523-.913 2.389.003.888.35 1.694.975 2.266l1.273 1.134 2.435 2.17 1.983 1.765 2.694 2.4.956.852.016.022c3.614 4.99 7.717 5.632 9.758 5.715.303.013.56.013.762.013h.548c1.741.026 3.176 1.568 4.192 3.149l-.232.134-.228.131c-.94-1.465-2.234-2.868-3.74-2.89h-.54c-.25 0-.575 0-.964-.02-2.173-.116-6.314-.878-9.964-5.902l-1.352-1.204-1.906-1.698-1.983-1.766-3.223-2.871-.837-.745c-.736-.675-1.143-1.617-1.146-2.652-.004-1.03.39-2.03 1.111-2.815l.082-.086c.706-.733 1.63-1.181 2.613-1.266.482-.044.956.003 1.406.14.507.153.961.41 1.348.765l.022.021 4.717 4.201-7.406-14.479-1.396-2.73H54.663c-1.918 0-3.477-1.562-3.477-3.48V23.764c0-1.918 1.56-3.477 3.477-3.477h35.698c1.858 0 3.38 1.463 3.474 3.3.003.059.004.118.004.177v35.697c0 1.918-1.56 3.48-3.478 3.48h-.048l1.397 2.73 1.269 2.482c.055-.33.154-.654.296-.963.33-.71.86-1.283 1.537-1.667l.072-.038.066-.035c.165-.086.344-.16.53-.221 1.701-.564 3.526.15 4.399 1.702.039-.5.177-.978.4-1.409.348-.675.902-1.238 1.607-1.599.885-.453 1.891-.533 2.836-.228.907.293 1.653.909 2.111 1.741.128-1.008.742-1.92 1.705-2.413.756-.386 1.616-.455 2.424-.194.806.26 1.463.82 1.85 1.575l.008.018 5.24 12.399zM86.644 58.822c.01-.06.02-.124.026-.187.044-.42-.02-.89-.2-1.478l-.084-.285-.001-.003v-.001l-.023-.079-.005-.016c-.112-.38-.225-.766-.372-1.116-.202-.484-.467-.903-.877-1.157-.437-.27-.855-.404-1.26-.404-.156 0-.31.02-.462.059-.142.037-.283.09-.423.162-.578.296-.985.81-1.148 1.451-.167.668-.039 1.378.353 1.946.058.082.114.165.17.247l.046.068.146.212c.167.24.34.481.53.705.3.361.64.684 1.036.906.564.314 1.39.434 1.965-.009.293-.225.5-.59.583-1.02zm-.06-3.17l.856 1.674 2.605 5.09h.316c1.628 0 2.954-1.323 2.954-2.954V23.764c0-.075-.003-.148-.01-.221-.112-1.526-1.39-2.733-2.944-2.733H54.663c-1.629 0-2.954 1.325-2.954 2.954v35.697c0 1.63 1.325 2.955 2.954 2.955H81.697l-1.727-3.379-.012-.023-.001-.003-.001-.001-.017-.034-.014-.03c-.243-.504-.366-1.043-.366-1.6 0-1.403.777-2.672 2.025-3.31.227-.115.461-.206.697-.271.345-.096.696-.14 1.043-.134.485-.113.983-.066 1.49.134.188.074.379.172.569.289.441.272.742.68.966 1.14.034.068.066.139.097.21v.002h.002c.047.079.093.16.136.245zm21.766-21.344h14.647c.162 0 .293.131.293.293 0 .163-.131.294-.293.294H108.35c-.162 0-.293-.131-.293-.294 0-.162.131-.293.293-.293zM70.624 94.794h16.388c.143 0 .262.117.262.262 0 .145-.119.262-.262.262H70.624c-.144 0-.261-.117-.261-.262 0-.145.117-.262.26-.262zM61.475 81.35H46.829c-.163 0-.294.132-.294.292 0 .162.131.294.294.294H61.475c.162 0 .293-.132.293-.294 0-.16-.13-.292-.293-.292zm-19.257 3.244h14.646c.162 0 .293.13.293.293 0 .16-.13.292-.293.292H42.218c-.162 0-.294-.131-.294-.292 0-.162.132-.293.294-.293zM19.176 69.232c-.33-.106-.65-.189-.96-.254.002.032 0 .065-.002.097-1.207-.142-2.455-.156-3.673-.043-.002-.017-.003-.034-.002-.051-.254.058-.452.12-.59.169-.134.047-.212.08-.228.087-.07.032-.101.115-.07.187.031.07.116.103.186.07.001-.001.021-.01.056-.022.363-.141 2.436-.855 5.197.028.014.004.03.007.043.007.06 0 .115-.038.134-.099.024-.073-.017-.152-.091-.176zM8.744 72.603c0-.423.344-.767.768-.767.423 0 .767.344.767.767 0 .425-.344.769-.767.769h-.005c-.244-.002-.46-.117-.598-.295-.104-.13-.165-.295-.165-.474z"/>
        <path fill="#000" d="M7.898 71.24l-1.44-3.59c.691-.277 1.405-.367 2.073-.29l.864 2.154c-.61.49-1.114 1.07-1.497 1.726zm5.908 9.907c0 .65-.412 1.204-.99 1.416.161.059.336.091.518.091.833 0 1.507-.675 1.507-1.507v-.623h-1.035v.623zm5.757 0v-.623h-1.035v.623c0 .832.674 1.507 1.508 1.507.182 0 .357-.032.517-.091-.578-.212-.99-.766-.99-1.416z" opacity=".3"/>
        <path fill="#FFF" d="M79.668 82.587c-.733 0-1.327.595-1.327 1.328v3.679c0 .735.594 1.328 1.327 1.328h3.68c.733 0 1.327-.593 1.327-1.328v-2.136l-3.223-2.871h-1.784zm6.99 5.007c0 .735.593 1.328 1.328 1.328h.578l-1.906-1.698v.37zM71.35 82.587h3.68c.732 0 1.327.595 1.327 1.328v3.679c0 .735-.595 1.328-1.328 1.328h-3.679c-.733 0-1.328-.593-1.328-1.328v-3.679c0-.733.595-1.328 1.328-1.328zm-4.637 0h-3.68c-.733 0-1.328.595-1.328 1.328v3.679c0 .735.595 1.328 1.329 1.328h3.679c.733 0 1.328-.593 1.328-1.328v-3.679c0-.733-.595-1.328-1.328-1.328zm-57.7-4.384c-.369.193-1.036-.865-1.036-.865l1.299-.521c.101.822 0 1.246-.264 1.386z"/>
        <path fill="#292929" fill-rule="nonzero" d="M18.218 68.957c0 .04-.001.079-.004.118-1.207-.142-2.455-.156-3.673-.043-.003-.024-.003-.05-.003-.075 0-.126.013-.245.037-.364.541-.116 1.153-.182 1.803-.182.65 0 1.262.066 1.804.182.023.119.036.238.036.364z" opacity=".2"/>
        <path fill="#FFF" fill-rule="nonzero" d="M54.151 55.674V24.551c0-1.03.835-1.863 1.863-1.863h31.123c.302 0 .453.365.24.578L54.729 55.914c-.213.213-.578.062-.578-.24z" opacity=".2"/>
        <path fill="#303030" d="M18.158 56.492c0-.94.764-1.704 1.703-1.704H54.9v3.407H19.861c-.94 0-1.703-.764-1.703-1.703zm36.449-.293H19.133c-.162 0-.293.13-.293.293 0 .16.131.292.293.292h35.474v.825H19.86c-.616 0-1.117-.501-1.117-1.117s.5-1.117 1.117-1.117h34.746v.824z" opacity=".1"/>
        <g fill="#FFF" fill-rule="nonzero">
            <path d="M10.655 5.289c-.722 0-1.386.556-1.511 1.265l-.357 1.988c-.079.445.217.871.662.951.05.008.098.013.146.013.389 0 .734-.279.805-.675l.342-1.904h2.229c.452 0 .819-.366.819-.819 0-.452-.367-.819-.82-.819h-2.315zM6.98 12.815H4.664c-.721 0-1.385.556-1.51 1.265l-.357 1.988c-.08.445.217.871.662.951.05.009.098.013.146.013.388 0 .734-.279.805-.675l.341-1.904h2.23c.451 0 .818-.366.818-.819 0-.452-.366-.819-.819-.819z" transform="translate(63 28)"/>
            <path d="M24.78 18.144H13.78l.863-4.817c.102-.57.7-1.072 1.281-1.072h5.735c.58 0 1.18.501 1.281 1.072l.651 3.633c.08.445.503.74.951.662.446-.08.742-.506.662-.951l-.65-3.633c-.243-1.358-1.515-2.421-2.895-2.421h-5.726l-.009-.001H7.788L8.651 5.8c.102-.57.7-1.072 1.281-1.072h5.734c.58 0 1.18.501 1.282 1.072l.645 3.606c.08.445.506.74.951.662.446-.08.742-.506.662-.951l-.645-3.606c-.243-1.358-1.515-2.422-2.894-2.422H9.932c-1.38 0-2.651 1.064-2.894 2.422l-.915 5.106h-2.18c-1.38 0-2.652 1.063-2.895 2.421l-1.035 5.78c-.043.239.022.484.178.67.156.186.386.293.628.293h23.962c.452 0 .82-.366.82-.818 0-.453-.367-.82-.82-.82zm-22.982 0l.862-4.817c.103-.57.701-1.072 1.282-1.072h5.735c.58 0 1.18.501 1.281 1.072l.863 4.817H1.798zM12.8 14.316l-.229-1.278c-.05-.275-.141-.539-.268-.784h.994c-.126.245-.219.509-.268.784l-.229 1.278zM18.577 3.133h.659v.657c0 .452.367.819.82.819.452 0 .818-.367.818-.82v-.656h.657c.453 0 .82-.367.82-.82 0-.452-.367-.818-.82-.818h-.657V.838c0-.453-.366-.82-.819-.82-.452 0-.82.367-.82.82v.657h-.658c-.453 0-.82.366-.82.819 0 .452.367.819.82.819z" transform="translate(63 28)"/>
            <path d="M1.769 8.172h.66v.657c0 .453.366.82.818.82.453 0 .82-.367.82-.82v-.657h.656c.453 0 .82-.366.82-.819 0-.452-.367-.819-.82-.819h-.657v-.657c0-.452-.366-.819-.819-.819-.452 0-.819.367-.819.82v.656h-.66c-.451 0-.818.367-.818.82 0 .452.366.818.819.818zM16.645 12.815c-.721 0-1.385.556-1.51 1.265l-.357 1.988c-.08.445.217.871.662.951.049.009.098.013.145.013.39 0 .735-.279.806-.675l.342-1.904h2.228c.453 0 .82-.366.82-.819 0-.452-.367-.819-.82-.819h-2.316z" transform="translate(63 28)"/>
        </g>
    </g>
</svg>
