<svg xmlns="http://www.w3.org/2000/svg" width="38" height="38" viewBox="0 0 38 38">
    <g fill="none" fill-rule="evenodd" transform="translate(1 1)">
        <circle cx="18" cy="18" r="18" fill-rule="nonzero" stroke="#979797" stroke-width=".825" opacity=".1"/>
        <g fill="#00D09C">
            <path fill-rule="nonzero" stroke="#FFF" stroke-width=".559" d="M2.542 9.548c.136 0 .272-.052.375-.155l3.869-3.869 1.747 1.747c.207.207.542.207.75 0l5.46-5.46v.841c0 .293.237.53.53.53.293 0 .53-.237.53-.53V.53c0-.017 0-.035-.002-.052l-.004-.025-.004-.026-.007-.03-.005-.02-.011-.031-.007-.018-.014-.03-.008-.016-.019-.033-.007-.012-.03-.041s0 0 0 0c-.024-.028-.05-.054-.077-.077 0 0 0 0 0 0l-.042-.03-.011-.008-.033-.02-.016-.007-.031-.014-.018-.006-.03-.011-.02-.005-.03-.008-.026-.004c-.009 0-.017-.003-.026-.003C15.308 0 15.29 0 15.273 0H13.15c-.293 0-.53.237-.53.53 0 .294.237.53.53.53h.841L8.908 6.147 7.16 4.399c-.207-.207-.543-.207-.75 0L2.167 8.643c-.207.207-.207.542 0 .75.104.103.24.155.375.155z" transform="translate(9 9)"/>
            <path d="M6.706 14.082H11.4V15.423H6.706zM13.412 14.082H18.106V15.423H13.412zM13.412 8.718H18.106V10.059H13.412zM7.376 11.4h3.353c.37 0 .671.3.671.67v.671H6.706v-.67c0-.37.3-.671.67-.671zM13.412 11.4H18.106V12.741H13.412zM14.082 6.035h3.353c.37 0 .67.3.67.67v.671h-4.693v-.67c0-.37.3-.67.67-.67zM6.706 16.765H11.4v.67c0 .37-.3.67-.67.67H7.375c-.37 0-.67-.3-.67-.67v-.67zM13.412 16.765h4.694v.67c0 .37-.3.67-.67.67h-3.354c-.37 0-.67-.3-.67-.67v-.67zM.67 14.082h3.354c.37 0 .67.3.67.67v.672H0v-.671c0-.37.3-.67.67-.67zM0 16.765h4.694v.67c0 .37-.3.67-.67.67H.67c-.37 0-.671-.3-.671-.67v-.67z" transform="translate(9 9)"/>
        </g>
    </g>
</svg>
