<svg width="28" height="28" viewBox="0 0 28 28" fill="none" xmlns="http://www.w3.org/2000/svg">
<path d="M1.16602 12.5779V13.4799C1.17197 15.7074 2.89891 17.5513 5.12128 17.703V24.0379C5.12128 24.4774 5.47759 24.8337 5.91711 24.8337H8.73433C9.17385 24.8337 9.53016 24.4774 9.53016 24.0379V17.7163H9.99175V8.3335H5.41044C3.06632 8.3335 1.16602 10.2338 1.16602 12.5779Z" fill="#EBEBF5"/>
<path d="M25.6963 3.63824C25.476 3.48809 25.1952 3.4582 24.9483 3.55866L11.8516 9.12947V16.9021L24.9483 22.4729C25.353 22.6443 25.82 22.4552 25.9914 22.0505C26.0329 21.9525 26.0544 21.8472 26.0544 21.7407V4.30143C26.054 4.03429 25.9195 3.78518 25.6963 3.63824Z" fill="#EBEBF5"/>
</svg>
