<svg width="28" height="28" viewBox="0 0 28 28" fill="none" xmlns="http://www.w3.org/2000/svg">
<path d="M1.1665 12.5781V13.48C1.17246 15.7076 2.8994 17.5515 5.12177 17.7032V24.0381C5.12177 24.4776 5.47808 24.8339 5.9176 24.8339H8.73482C9.17434 24.8339 9.53065 24.4776 9.53065 24.0381V17.7165H9.99224V8.33368H5.41093C3.06681 8.33368 1.1665 10.234 1.1665 12.5781Z" fill="#44475B"/>
<path d="M25.6968 3.63824C25.4765 3.48809 25.1957 3.4582 24.9487 3.55866L11.8521 9.12947V16.9021L24.9487 22.4729C25.3534 22.6443 25.8205 22.4552 25.9919 22.0505C26.0334 21.9525 26.0549 21.8472 26.0549 21.7407V4.30143C26.0545 4.03429 25.92 3.78518 25.6968 3.63824Z" fill="#44475B"/>
</svg>
