<svg width="40" height="40" viewBox="0 0 40 40" fill="none" xmlns="http://www.w3.org/2000/svg">
<path d="M3.33203 36.6667L26.6654 28.3334L11.6654 13.3334L3.33203 36.6667Z" fill="#00D09C"/>
<path d="M24.2159 20.8834L33.5326 11.5667C34.3492 10.75 35.6659 10.75 36.4825 11.5667L37.4659 12.55L39.2326 10.7834L38.2492 9.80002C36.4659 8.01669 33.5492 8.01669 31.7659 9.80002L22.4492 19.1167L24.2159 20.8834Z" fill="#00D09C"/>
<path d="M16.7646 11.4667L15.7812 12.4501L17.5479 14.2167L18.5312 13.2334C20.3146 11.4501 20.3146 8.53339 18.5312 6.75006L17.5479 5.76672L15.7812 7.55006L16.7646 8.53339C17.5646 9.33339 17.5646 10.6667 16.7646 11.4667Z" fill="#00D09C"/>
<path d="M28.4312 19.8L25.7812 22.45L27.5479 24.2167L30.1979 21.5667C31.0146 20.75 32.3312 20.75 33.1479 21.5667L35.8312 24.25L37.5979 22.4834L34.9146 19.8C33.1146 18.0167 30.2146 18.0167 28.4312 19.8Z" fill="#00D09C"/>
<path d="M25.1005 9.80002L19.1172 15.7833L20.8839 17.55L26.8672 11.5667C28.6505 9.78335 28.6505 6.86668 26.8672 5.08335L24.2172 2.43335L22.4505 4.20002L25.1005 6.85002C25.9005 7.66668 25.9005 9.00002 25.1005 9.80002Z" fill="#00D09C"/>
</svg>
