<svg width="43" height="36" viewBox="0 0 43 36" fill="none" xmlns="http://www.w3.org/2000/svg">
<g clip-path="url(#clip0_237_4404)">
<path d="M9.00039 32.24L9.40039 34.04L9.70039 35.04L11.8004 33.74C12.4004 33.54 12.8004 32.84 12.8004 31.84V16.54L8.20039 13.94L5.90039 15.34L8.20039 27.14V29.14C8.20039 30.14 8.60039 31.34 9.00039 32.24Z" fill="#0B5E49"/>
<path d="M5.90086 30.54V15.24L10.5009 17.84V33.14C10.5009 34.84 9.50086 35.64 8.20086 34.94C6.90086 34.24 5.80086 32.24 5.90086 30.54Z" fill="#0ABB92"/>
<path d="M1.29987 10.84H1.39987L9.29987 15.14L14.9999 4.44002L7.29987 0.340021C6.49987 -0.159979 5.29987 -0.159979 4.09987 0.640021C1.79987 2.14002 -0.100131 5.54002 -0.000130867 8.24002C-0.000130867 9.54002 0.499869 10.54 1.29987 10.84Z" fill="#0ABB92"/>
<path d="M3.20067 14.34C3.20067 14.44 3.30067 14.44 3.30067 14.44L13.5007 19.94L20.9007 5.94001L11.0007 0.540011C10.0007 -0.159989 8.50067 -0.0599892 6.90067 0.940011C3.90067 2.74001 1.50067 7.14001 1.60067 10.74C1.60067 12.44 2.20067 13.64 3.20067 14.34Z" fill="#E5FAF5"/>
<path d="M2.80078 12.44C2.90078 14.44 3.70078 15.24 4.80078 16.44L17.4008 29.34C17.6008 29.64 17.8008 29.94 18.0008 30.34L19.0008 32.04L35.0008 2.83997L32.9008 2.93997C32.4008 3.03997 32.0008 3.03997 31.5008 3.03997L13.0008 0.639971C11.7008 0.439971 10.4008 0.439971 8.90078 1.33997C5.50078 3.43997 2.90078 8.33997 2.80078 12.44Z" fill="#0ABB92"/>
<path d="M19.9006 32.44H20.0006L21.8006 33.44L21.5006 33.04C23.5006 33.54 25.8006 33.04 28.4006 31.44C34.9006 27.44 40.0006 17.94 39.8006 10.34C39.7006 7.34 38.8006 5.04 37.4006 3.64L38.1006 3.74L36.1006 2.64C33.9006 1.44 30.9006 1.74 27.7006 3.74C21.2006 7.74 16.1006 17.24 16.3006 24.84C16.4006 28.64 17.8006 31.24 19.9006 32.44Z" fill="#E5FAF5"/>
<path d="M22.5002 34.14L22.2002 33.74C24.2002 34.24 26.5002 33.74 29.1002 32.14C35.6002 28.14 40.7002 18.64 40.5002 11.04C40.4002 8.04002 39.5002 5.74002 38.1002 4.34002L38.7002 4.44002C38.6002 4.34002 38.5002 4.34002 38.4002 4.24002L38.1002 4.04002C35.9002 2.84002 33.0002 3.14002 29.8002 5.14002C23.3002 9.14002 18.2002 18.64 18.4002 26.24C18.5002 30.34 20.1002 33.04 22.5002 34.14Z" fill="#E5FAF5"/>
<path d="M39.2645 23.9007C43.7081 15.6927 43.4519 6.94996 38.6922 4.3732C33.9325 1.79645 26.4718 6.36145 22.0283 14.5694C17.5847 22.7774 17.8409 31.5201 22.6005 34.0969C27.3602 36.6737 34.8209 32.1087 39.2645 23.9007Z" fill="#0ABB92"/>
<path d="M38.2096 23.3294C42.1273 16.0928 41.9172 8.39323 37.7404 6.132C33.5636 3.87076 27.0016 7.90411 23.0839 15.1407C19.1662 22.3773 19.3762 30.0769 23.5531 32.3381C27.7299 34.5993 34.2918 30.566 38.2096 23.3294Z" fill="#0B5E49"/>
<path d="M8.45914 4.05999C8.94914 4.19999 9.17914 4.25999 9.61914 4.37999C8.41914 5.69999 7.28914 7.50999 6.61914 9.58999C6.23914 9.33999 6.03914 9.20999 5.61914 8.92999C6.24914 6.93999 7.31914 5.23999 8.45914 4.04999V4.05999Z" fill="#E5FAF5"/>
<path d="M10.8888 4.75C11.6288 4.96 11.9588 5.06 12.5888 5.24C12.8188 5.31 13.0088 5.39 13.1788 5.49C13.3488 5.59 13.4588 5.72 13.5188 5.87C13.5788 6.03 13.5788 6.22 13.5188 6.46C13.4588 6.7 13.3088 7 13.0788 7.36C12.8188 7.77 12.5587 8.11 12.3187 8.34C12.0788 8.57 11.8387 8.73 11.6087 8.8C11.3787 8.88 11.1488 8.89 10.9288 8.84C10.6988 8.79 10.4788 8.7 10.2488 8.58C10.0288 8.47 9.91875 8.41 9.67875 8.29C9.09875 9.36 8.82875 9.94 8.52875 10.87C8.21875 10.67 8.05875 10.56 7.71875 10.34C8.42875 8.16 9.60875 6.23 10.8888 4.76V4.75ZM10.7188 7.53C10.8288 7.58 10.9488 7.63 11.0788 7.67C11.2088 7.71 11.3388 7.72 11.4688 7.71C11.6088 7.69 11.7388 7.63 11.8788 7.54C12.0188 7.44 12.1488 7.28 12.2888 7.07C12.4088 6.88 12.4887 6.72 12.4988 6.59C12.5188 6.46 12.4987 6.36 12.4387 6.27C12.3887 6.18 12.3088 6.11 12.1988 6.06C12.0988 6.01 11.9888 5.96 11.8788 5.92C11.6388 5.84 11.5188 5.8 11.2688 5.71C10.8588 6.27 10.6388 6.61 10.2188 7.32C10.4188 7.41 10.5188 7.46 10.7088 7.54L10.7188 7.53Z" fill="#E5FAF5"/>
<path d="M12.6093 9.03C12.9293 8.45 13.2993 7.96 13.6793 7.56C14.0693 7.16 14.4493 6.87 14.8393 6.67C15.2293 6.46 15.5993 6.35 15.9793 6.3C16.3593 6.25 16.7193 6.28 17.0793 6.38C17.4393 6.48 17.7493 6.63 17.9693 6.86C18.1893 7.09 18.3393 7.39 18.3693 7.79C18.4093 8.19 18.3393 8.68 18.1693 9.27C17.9993 9.86 17.7093 10.53 17.3293 11.24C16.9593 11.94 16.5693 12.54 16.1693 13C15.7693 13.47 15.3993 13.8 15.0293 14.01C14.6593 14.22 14.3093 14.3 13.9693 14.29C13.6293 14.28 13.2893 14.16 12.9793 13.95C12.6693 13.75 12.4193 13.49 12.2193 13.17C12.0293 12.85 11.8993 12.49 11.8493 12.07C11.7993 11.65 11.8293 11.18 11.9493 10.66C12.0693 10.14 12.2893 9.59 12.6093 9.02V9.03ZM13.3893 9.3C13.1693 9.7 12.9993 10.09 12.8893 10.47C12.7793 10.85 12.7293 11.19 12.7293 11.5C12.7293 11.81 12.7893 12.08 12.8993 12.32C13.0093 12.56 13.1693 12.74 13.3793 12.87C13.5893 13 13.8193 13.06 14.0593 13.03C14.2993 13 14.5493 12.9 14.8093 12.71C15.0693 12.53 15.3293 12.27 15.5993 11.93C15.8693 11.59 16.1293 11.19 16.3793 10.73C16.6093 10.3 16.7893 9.89 16.9193 9.5C17.0393 9.11 17.1093 8.77 17.1093 8.47C17.1093 8.17 17.0593 7.93 16.9393 7.73C16.8193 7.53 16.6393 7.4 16.4093 7.32C16.1793 7.24 15.9293 7.23 15.6693 7.29C15.4093 7.35 15.1493 7.46 14.8793 7.63C14.6093 7.8 14.3493 8.03 14.0893 8.31C13.8293 8.59 13.5993 8.92 13.3893 9.3Z" fill="#E5FAF5"/>
<path d="M23.0702 15.14C22.3002 16.57 21.6902 18.01 21.2402 19.43L29.3002 21.94L32.1002 16.74L25.2702 11.75C24.4802 12.78 23.7302 13.91 23.0702 15.14Z" fill="#0ABB92"/>
<path d="M30.5 16.84C31.6 16.14 32.6 16.74 32.6 18.04C32.6 19.34 31.7 21.04 30.6 21.74C29.5 22.44 28.5 21.84 28.5 20.54C28.5 19.24 29.4 17.54 30.5 16.84Z" fill="#E5FAF5"/>
</g>
<defs>
<clipPath id="clip0_237_4404">
<rect width="42.43" height="35.2" fill="white"/>
</clipPath>
</defs>
</svg>
