<svg width="20" height="18" viewBox="0 0 20 18" fill="none" xmlns="http://www.w3.org/2000/svg">
<path d="M8.42316 15.624C8.11727 15.624 7.81139 15.504 7.5761 15.264L4.14078 11.7601C3.67019 11.2801 3.67019 10.4881 4.14078 10.0081L10.9879 3.02406C11.4585 2.54406 12.2349 2.54406 12.7055 3.02406L16.1173 6.50406C16.5879 6.98406 16.5879 7.77606 16.1173 8.25606L9.27022 15.264C9.03493 15.504 8.72904 15.624 8.42316 15.624ZM11.8349 3.91206L4.98785 10.8961L8.42316 14.4001L15.2703 7.41606L11.8349 3.91206Z" fill="#44475B"/>
<path d="M7.94178 1.08246C8.24146 1.08246 8.47063 0.847926 8.47063 0.541229C8.47063 0.234533 8.24146 0 7.94178 0C4.46903 0 1.61326 2.63398 1.11967 6.04373L0.925756 5.82724C0.731846 5.61075 0.39691 5.5927 0.167743 5.8092C-0.0437954 6.00765 -0.0614236 6.35043 0.150115 6.58496L1.24306 7.75762C1.34883 7.86587 1.48986 7.91999 1.63088 7.91999C1.75428 7.91999 1.89531 7.86587 2.00108 7.77566L3.16454 6.65712C3.37608 6.45867 3.39371 6.11589 3.18217 5.88136C2.98826 5.66487 2.65332 5.64683 2.42415 5.86332L2.19499 6.07981C2.65332 3.26542 5.05076 1.08246 7.94178 1.08246Z" fill="#44475B"/>
<path d="M19.8566 11.665L18.7628 10.4918C18.5687 10.2752 18.2335 10.2572 18.0218 10.4738L16.8574 11.5928C16.6457 11.7913 16.6281 12.1342 16.8398 12.3508C17.0338 12.5674 17.3691 12.5855 17.5808 12.3689L17.7748 12.1884C17.2103 14.8776 14.8638 16.9171 12.0587 16.9171C11.7588 16.9171 11.5294 17.1518 11.5294 17.4586C11.5294 17.7654 11.7588 18.0001 12.0587 18.0001C15.446 18.0001 18.2688 15.4732 18.851 12.1703L19.0804 12.423C19.1862 12.5313 19.3274 12.5855 19.4685 12.5855C19.592 12.5855 19.7331 12.5313 19.839 12.4411C20.0507 12.2425 20.0507 11.8996 19.8566 11.665Z" fill="#44475B"/>
<path d="M8.37594 12.7679C8.21123 12.7679 8.07005 12.6959 7.9524 12.5759L6.7524 11.3279C6.5171 11.0879 6.5171 10.7039 6.7524 10.4639C6.98769 10.2239 7.36417 10.2239 7.59946 10.4639L8.79947 11.7119C9.03476 11.9519 9.03476 12.3359 8.79947 12.5759C8.68182 12.7199 8.54064 12.7679 8.37594 12.7679Z" fill="#44475B"/>
</svg>
