<svg width="23" height="21" viewBox="0 0 23 21" fill="none" xmlns="http://www.w3.org/2000/svg">
<path d="M9.68673 17.9678C9.33496 17.9678 8.98319 17.8298 8.7126 17.5538L4.76197 13.5242C4.22078 12.9722 4.22078 12.0614 4.76197 11.5094L12.6362 3.47772C13.1774 2.92572 14.0703 2.92572 14.6115 3.47772L18.5351 7.47975C19.0763 8.03175 19.0763 8.94255 18.5351 9.49456L10.6609 17.5538C10.3903 17.8298 10.0385 17.9678 9.68673 17.9678ZM13.6103 4.49893L5.7361 12.5306L9.68673 16.5602L17.5609 8.52855L13.6103 4.49893Z" fill="#EBEBF5"/>
<path d="M9.13311 1.24484C9.47775 1.24484 9.74129 0.975122 9.74129 0.622418C9.74129 0.269715 9.47775 0 9.13311 0C5.13941 0 1.85526 3.0291 1.28763 6.95034L1.06463 6.70137C0.841628 6.4524 0.456449 6.43166 0.192906 6.68062C-0.0503651 6.90884 -0.0706376 7.30304 0.172633 7.57276L1.42953 8.92133C1.55117 9.04581 1.71335 9.10805 1.87553 9.10805C2.01744 9.10805 2.17962 9.04581 2.30125 8.94208L3.63924 7.65575C3.88252 7.42753 3.90279 7.03333 3.65952 6.76361C3.43652 6.51464 3.05134 6.4939 2.7878 6.74286L2.52425 6.99183C3.05134 3.75526 5.80841 1.24484 9.13311 1.24484Z" fill="#EBEBF5"/>
<path d="M22.8353 13.4148L21.5774 12.0657C21.3542 11.8166 20.9687 11.7958 20.7252 12.0449L19.3862 13.3318C19.1427 13.5601 19.1224 13.9545 19.3659 14.2036C19.589 14.4526 19.9745 14.4734 20.218 14.2243L20.4412 14.0167C19.7919 17.1094 17.0935 19.4548 13.8676 19.4548C13.5227 19.4548 13.2589 19.7247 13.2589 20.0775C13.2589 20.4304 13.5227 20.7002 13.8676 20.7002C17.763 20.7002 21.0093 17.7944 21.6788 13.996L21.9426 14.2866C22.0643 14.4111 22.2266 14.4734 22.3889 14.4734C22.5309 14.4734 22.6932 14.4111 22.815 14.3073C23.0584 14.079 23.0584 13.6846 22.8353 13.4148Z" fill="#EBEBF5"/>
<path d="M9.6324 14.6833C9.44299 14.6833 9.28063 14.6005 9.14534 14.4625L7.76532 13.0273C7.49473 12.7513 7.49473 12.3097 7.76532 12.0337C8.03591 11.7577 8.46886 11.7577 8.73945 12.0337L10.1195 13.4689C10.3901 13.7449 10.3901 14.1865 10.1195 14.4625C9.98417 14.6281 9.82182 14.6833 9.6324 14.6833Z" fill="#EBEBF5"/>
</svg>
