<svg width="38" height="38" viewBox="0 0 38 38" fill="none" xmlns="http://www.w3.org/2000/svg">
<path d="M18.7 36.4C28.4754 36.4 36.4 28.4754 36.4 18.7C36.4 8.92456 28.4754 1 18.7 1C8.92456 1 1 8.92456 1 18.7C1 28.4754 8.92456 36.4 18.7 36.4Z" fill="#1569BF" fill-opacity="0.1"/>
<path d="M18.7 36.9C28.7516 36.9 36.9 28.7516 36.9 18.7C36.9 8.64842 28.7516 0.5 18.7 0.5C8.64842 0.5 0.5 8.64842 0.5 18.7C0.5 28.7516 8.64842 36.9 18.7 36.9Z" stroke="#1569BF" stroke-opacity="0.2"/>
<path d="M9.96735 14.7277H13.7075V26.8832H9.96735V14.7277ZM11.8374 8.7168C13.0396 8.7168 13.9746 9.65183 13.9746 10.854C13.9746 12.0562 13.0396 12.9912 11.8374 12.9912C10.6352 13.1248 9.7002 12.0562 9.7002 10.854C9.7002 9.65183 10.6352 8.7168 11.8374 8.7168Z" fill="#1569BF"/>
<path d="M16.1118 14.7278H19.7184V16.3308C20.3863 15.3957 21.5885 14.4607 23.4585 14.4607C27.3323 14.4607 28.0001 16.9986 28.0001 20.2045V26.8833H24.26V21.0059C24.26 19.5366 24.26 17.8001 22.2563 17.8001C20.2527 17.8001 19.9855 19.2695 19.9855 20.8724V26.8833H16.1118V14.7278Z" fill="#1569BF"/>
</svg>
