<svg width="24" height="24" viewBox="0 0 24 24" fill="none" xmlns="http://www.w3.org/2000/svg">
<rect width="24" height="24" rx="5" fill="#00D09C"/>
<path d="M16.2812 12.2187C16.1353 12.0728 15.9583 12 15.7499 12H9.99992V9.50005C9.99992 8.94787 10.1953 8.47658 10.5859 8.08593C10.9766 7.69537 11.4479 7.50004 12 7.50004C12.5521 7.50004 13.0235 7.69534 13.414 8.08593C13.8047 8.47658 14.0001 8.9479 14.0001 9.50005C14.0001 9.63542 14.0495 9.75259 14.1484 9.85154C14.2475 9.95052 14.3647 10 14.4999 10H15.0002C15.1355 10 15.2526 9.95052 15.3517 9.85154C15.4504 9.75259 15.5 9.63542 15.5 9.50005C15.5 8.5364 15.1576 7.71233 14.4728 7.02738C13.7878 6.34241 12.9636 6 12 6C11.0364 6 10.2122 6.34241 9.52726 7.02735C8.8424 7.71222 8.49996 8.53637 8.49996 9.50002V12H8.24999C8.04173 12 7.8646 12.073 7.71875 12.2187C7.5729 12.3644 7.5 12.5416 7.5 12.7499V17.25C7.5 17.4584 7.57293 17.6355 7.71875 17.7813C7.8646 17.927 8.04173 18 8.24999 18H15.7499C15.9583 18 16.1355 17.927 16.2812 17.7813C16.4269 17.6355 16.4999 17.4584 16.4999 17.25V12.75C16.5001 12.5416 16.4271 12.3646 16.2812 12.2187Z" fill="#0E231E"/>
</svg>
