<svg width="40" height="50" viewBox="0 0 40 50" fill="none" xmlns="http://www.w3.org/2000/svg">
<g clip-path="url(#clip0_722_29403)">
<path d="M15.934 20.8109L0.620972 11.9818V39.9367L2.17402 40.8297L3.24563 37.4907L13.6433 43.4932L14.5907 47.9815L17.0056 49.3715L19.84 47.7253L21.0514 42.111L34.8425 34.5476L36.1005 38.2284L37.8864 37.1878V9.23291L18.0772 20.8109C17.7512 20.9983 17.3817 21.0968 17.0056 21.0968C16.6296 21.0968 16.2601 20.9983 15.934 20.8109Z" fill="#66E3C4"/>
<path d="M37.8942 9.27159L18.1006 20.8107C17.7679 21.0037 17.3902 21.1053 17.0056 21.1053C16.6211 21.1053 16.2434 21.0037 15.9108 20.8107L0.620972 11.9817L20.896 0.178461C21.0809 0.0699146 21.2913 0.0126953 21.5056 0.0126953C21.72 0.0126953 21.9304 0.0699146 22.1152 0.178461L37.8942 9.27159Z" fill="white"/>
<path d="M35.7747 31.0688V13.5038C35.7751 13.4419 35.7591 13.3809 35.7282 13.3272C35.6974 13.2735 35.6529 13.229 35.5991 13.1982C35.5454 13.1674 35.4845 13.1514 35.4225 13.1519C35.3606 13.1524 35.2998 13.1693 35.2466 13.201L20.1743 22.0223C20.1204 22.0525 20.0755 22.0964 20.0442 22.1496C20.0128 22.2028 19.9961 22.2634 19.9957 22.3251V39.4941C19.9963 39.5558 20.0127 39.6163 20.0436 39.6697C20.0745 39.7231 20.1186 39.7676 20.1718 39.7989C20.2249 39.8302 20.2853 39.8472 20.347 39.8482C20.4087 39.8492 20.4695 39.8342 20.5237 39.8047L35.5961 31.3794C35.6506 31.3479 35.6957 31.3027 35.7271 31.2481C35.7585 31.1936 35.7749 31.1317 35.7747 31.0688V31.0688Z" fill="white"/>
<path d="M35.7741 30.665V13.5038C35.7745 13.4419 35.7585 13.3809 35.7277 13.3272C35.6968 13.2735 35.6523 13.229 35.5986 13.1982C35.5448 13.1674 35.4839 13.1514 35.422 13.1519C35.36 13.1524 35.2993 13.1693 35.246 13.201L20.0961 22.0689C20.0864 22.0743 20.0782 22.0821 20.0726 22.0917C20.067 22.1013 20.064 22.1121 20.064 22.1232C20.064 22.1343 20.067 22.1452 20.0726 22.1548C20.0782 22.1643 20.0864 22.1722 20.0961 22.1776L35.246 30.9679C35.2993 30.9995 35.36 31.0165 35.422 31.017C35.4839 31.0174 35.5448 31.0015 35.5986 30.9707C35.6523 30.9398 35.6968 30.8953 35.7277 30.8416C35.7585 30.7879 35.7745 30.727 35.7741 30.665V30.665Z" fill="#0ABB92"/>
<path d="M34.1742 32.1635V13.7754L37.9093 22.3016V40.5966L34.1742 32.1635Z" fill="#66E3C4"/>
<path d="M39.5089 21.37L37.9093 22.3018L34.1742 13.7756L35.7738 12.8438L39.5089 21.37Z" fill="white"/>
<path d="M25.3232 27.6055C25.2505 27.6371 25.1877 27.6877 25.1413 27.7518C25.0948 27.816 25.0664 27.8915 25.0591 27.9704C25.0679 28.0499 25.0978 28.1256 25.1455 28.1898C25.1933 28.2539 25.2573 28.3042 25.3309 28.3354L25.9599 27.9782L25.3232 27.6055Z" fill="#0ABB92"/>
<path d="M20.9753 30.8513L21.7518 30.4009C21.6551 30.2931 21.5345 30.2095 21.3996 30.1569C21.2648 30.1043 21.1194 30.0842 20.9753 30.098C20.8295 30.082 20.6822 30.1028 20.5465 30.1584C20.4109 30.214 20.2913 30.3027 20.1987 30.4164L20.9753 30.8513Z" fill="#0ABB92"/>
<path d="M20.0116 38.2597L20.9745 38.8188L25.9598 35.9379V31.0147L20.0116 28.6152V38.2597Z" fill="#0ABB92"/>
<path d="M20.0116 33.338L20.9745 33.8971L25.9598 31.0162L20.0116 27.5762V33.338Z" fill="#66E3C4"/>
<path d="M25.3232 30.6421C25.251 30.6744 25.1886 30.7251 25.1422 30.7892C25.0959 30.8533 25.0672 30.9284 25.0591 31.0071C25.0674 31.0877 25.0969 31.1646 25.1447 31.2301C25.1924 31.2956 25.2567 31.3472 25.3309 31.3798L25.9599 31.0148L25.3232 30.6421Z" fill="#0ABB92"/>
<path d="M20.9753 33.8882L21.7518 33.4456C21.5443 33.2426 21.2655 33.1289 20.9753 33.1289C20.685 33.1289 20.4062 33.2426 20.1987 33.4456L20.9753 33.8882Z" fill="#0ABB92"/>
<path d="M20.0116 30.8593L22.877 29.2053L20.0116 27.5591V30.8593Z" fill="white"/>
<path d="M20.0116 31.9621L26.5266 35.7282L31.5119 32.8473V29.6868L21.4715 23.8784L20.0116 24.7248V31.9621Z" fill="#0ABB92"/>
<path d="M20.0116 28.7938L26.5266 32.56L31.5119 29.6868L21.4715 23.8784L20.0116 24.7248V28.7938Z" fill="#66E3C4"/>
<path d="M30.8757 29.353C30.803 29.3847 30.7402 29.4352 30.6938 29.4994C30.6473 29.5636 30.619 29.6391 30.6117 29.718C30.6197 29.7977 30.6492 29.8738 30.6971 29.9381C30.745 30.0024 30.8094 30.0524 30.8835 30.083L31.5125 29.718L30.8757 29.353Z" fill="#0ABB92"/>
<path d="M26.5263 32.5602L27.3028 32.1098C27.2073 32.0005 27.0869 31.9159 26.9517 31.8632C26.8165 31.8104 26.6705 31.7912 26.5263 31.807C26.3805 31.7902 26.2328 31.8106 26.0971 31.8663C25.9613 31.9219 25.8418 32.0111 25.7498 32.1253L26.5263 32.5602Z" fill="#0ABB92"/>
<path d="M20.0116 32.0242L23.4361 33.9889L23.4438 30.7507L20.0116 28.7861V32.0242Z" fill="white"/>
<path d="M20.0116 28.7862L23.4438 30.7508L28.4291 27.8699L24.5698 25.6646L20.0116 28.297V28.7862Z" fill="white"/>
<path d="M20.0116 28.7936L26.5266 32.5598L31.5119 29.6866V26.5184L21.4715 20.7178L20.0116 21.5642V28.7936Z" fill="#0ABB92"/>
<path d="M20.0116 25.6254L26.5266 29.3916L31.5119 26.5184L21.4715 20.7178L20.0116 21.5642V25.6254Z" fill="#66E3C4"/>
<path d="M30.8757 26.1455C30.803 26.1771 30.7402 26.2277 30.6938 26.2919C30.6473 26.3561 30.619 26.4316 30.6117 26.5105C30.6189 26.5905 30.6481 26.6669 30.6961 26.7313C30.744 26.7958 30.8089 26.8456 30.8835 26.8754L31.5125 26.5182L30.8757 26.1455Z" fill="#0ABB92"/>
<path d="M26.5263 29.3917L27.3028 28.9414C27.2061 28.8336 27.0855 28.75 26.9507 28.6974C26.8158 28.6448 26.6704 28.6246 26.5263 28.6385C26.3805 28.6217 26.2328 28.6422 26.0971 28.6978C25.9613 28.7535 25.8418 28.8426 25.7498 28.9569L26.5263 29.3917Z" fill="#0ABB92"/>
<path d="M20.0116 28.8635L23.4361 30.8204L23.4438 27.5823L20.0116 25.6177V28.8635Z" fill="white"/>
<path d="M20.0116 25.6177L23.4438 27.5823L28.4291 24.7092L24.5698 22.4961L20.0116 25.1285V25.6177Z" fill="white"/>
<path d="M20.0116 35.2236L20.9745 35.7749L25.9598 32.9017V27.9708L20.0116 25.5791V35.2236Z" fill="#0ABB92"/>
<path d="M20.0116 30.2941L20.9745 30.8532L25.9598 27.98L20.0116 24.54V30.2941Z" fill="#66E3C4"/>
<path d="M25.3232 27.606C25.2505 27.6376 25.1877 27.6881 25.1413 27.7523C25.0948 27.8165 25.0664 27.892 25.0591 27.9709C25.0679 28.0504 25.0978 28.1261 25.1455 28.1902C25.1933 28.2544 25.2573 28.3047 25.3309 28.3359L25.9599 27.9787L25.3232 27.606Z" fill="#0ABB92"/>
<path d="M20.9753 30.8517L21.7518 30.4014C21.6551 30.2936 21.5345 30.21 21.3996 30.1574C21.2648 30.1048 21.1194 30.0846 20.9753 30.0985C20.8295 30.0825 20.6822 30.1032 20.5465 30.1589C20.4109 30.2145 20.2913 30.3032 20.1987 30.4169L20.9753 30.8517Z" fill="#0ABB92"/>
<path d="M20.0116 27.8154L22.877 26.1614L20.0116 24.5229V27.8154Z" fill="white"/>
<path d="M34.8436 34.563L36.1094 38.236L32.219 35.9918L34.8436 34.563Z" fill="#0ABB92"/>
<path d="M3.25357 37.4829L2.17419 40.8297L5.36572 38.7021L3.25357 37.4829Z" fill="#0ABB92"/>
<path d="M39.5097 39.4937V21.3696L37.91 22.3015V40.5964L39.1758 40.014C39.2752 39.9681 39.3595 39.8948 39.4186 39.8026C39.4778 39.7104 39.5094 39.6033 39.5097 39.4937Z" fill="white"/>
</g>
<defs>
<clipPath id="clip0_722_29403">
<rect width="39.5174" height="49.9694" fill="white"/>
</clipPath>
</defs>
</svg>
