<svg width="36" height="51" viewBox="0 0 36 51" fill="none" xmlns="http://www.w3.org/2000/svg">
<path d="M17.8985 48.0467C24.4478 48.0467 29.757 45.2172 29.757 41.7267C29.757 38.2363 24.4478 35.4067 17.8985 35.4067C11.3493 35.4067 6.04004 38.2363 6.04004 41.7267C6.04004 45.2172 11.3493 48.0467 17.8985 48.0467Z" fill="#EBF9F5"/>
<path d="M6.04004 43.71C6.04004 47.1978 11.348 50.03 17.8987 50.03C24.4495 50.03 29.7571 47.1978 29.7571 43.71V41.7222C29.7571 45.2152 24.4442 48.0422 17.8987 48.0422C11.3532 48.0422 6.04004 45.2152 6.04004 41.7222V43.71Z" fill="#10362D"/>
<path d="M2.74488 14.9671C3.82169 13.2073 5.20137 11.6518 6.8201 10.3727C6.61031 7.37264 7.10852 5.16469 8.0893 3.66992C4.18717 4.10524 1.38659 7.34124 2.72926 14.9042L2.74488 14.9671Z" fill="#0ABB92"/>
<path d="M16.8184 37.9697C16.8184 38.4155 17.3009 38.7774 17.8673 38.7774C18.4338 38.7774 18.9163 38.4155 18.9163 37.9697V42.5852C18.9163 43.031 18.439 43.3929 17.8673 43.3929C17.2956 43.3929 16.8184 43.031 16.8184 42.5852V37.9697Z" fill="#10362D"/>
<path d="M17.6601 41.5224C27.303 41.5224 35.1201 33.7053 35.1201 24.0625C35.1201 14.4196 27.303 6.60254 17.6601 6.60254C8.01728 6.60254 0.200195 14.4196 0.200195 24.0625C0.200195 33.7053 8.01728 41.5224 17.6601 41.5224Z" fill="#0ABB92"/>
<path d="M17.6538 41.7155C12.9734 41.71 8.4865 39.8483 5.17694 36.5387C1.86737 33.2291 0.00555211 28.742 0 24.0616C0.00416407 19.3802 1.86517 14.8918 5.17489 11.5811C8.4846 8.27038 12.9725 6.4079 17.6538 6.40234C22.3361 6.40651 26.8255 8.2683 30.1363 11.5792C33.4472 14.89 35.3091 19.3793 35.3133 24.0616C35.3077 28.7429 33.4453 33.2308 30.1346 36.5405C26.8239 39.8502 22.3352 41.7113 17.6538 41.7155V41.7155ZM17.6538 6.7957C13.0789 6.80817 8.69514 8.63144 5.46069 11.8669C2.22624 15.1023 0.404434 19.4867 0.39336 24.0616C0.405818 28.6355 2.22818 33.0186 5.46248 36.2529C8.69678 39.4872 13.0798 41.3097 17.6538 41.3222C22.2287 41.3111 26.6133 39.4893 29.8488 36.2548C33.0842 33.0204 34.9075 28.6364 34.9199 24.0616C34.9088 19.4858 33.0861 15.1005 29.8505 11.865C26.615 8.62937 22.2296 6.80678 17.6538 6.7957V6.7957Z" fill="#0ABB92"/>
<path d="M25.8656 11.3368L26.1122 11.1375C26.836 10.5501 26.7572 9.56411 25.9286 8.91375L25.5457 8.61476C24.8653 8.10047 24.0858 7.7329 23.2562 7.5352C22.4266 7.3375 21.5649 7.31399 20.7257 7.46618L19.0317 7.78604C17.8988 8.00108 17.4582 9.0343 18.1505 9.88396L18.6173 10.4399C19.2475 11.1362 20.0392 11.6668 20.9227 11.9851C21.8062 12.3034 22.7542 12.3996 23.6836 12.2651V12.2651C24.4808 12.1563 25.2343 11.8357 25.8656 11.3368Z" fill="#10362D"/>
<path d="M22.0769 24.5374C20.021 23.3049 16.7953 23.9081 15.9509 24.0969H15.8672C15.4822 23.8728 15.1108 23.6257 14.7552 23.3573C14.4248 23.1213 14.0682 22.8696 13.7063 22.6336C13.6819 22.6189 13.6619 22.5981 13.6481 22.5733C13.6343 22.5484 13.6272 22.5204 13.6276 22.492C13.5925 22.0927 13.6843 21.6927 13.8899 21.3486C13.9213 21.3172 13.9947 21.2384 14.2517 21.2646H14.2832C14.4997 21.3567 14.7067 21.4692 14.902 21.6004C15.4579 21.936 16.0821 22.3189 16.7115 21.9937C16.8909 21.8964 17.0408 21.7525 17.1451 21.5771C17.2494 21.4017 17.3043 21.2012 17.3041 20.9971C17.3671 19.9482 18.264 19.0094 19.0507 18.186C19.7587 17.4465 20.367 16.8066 20.409 16.0356C20.4982 14.5303 18.3113 13.2454 17.383 12.7681L17.0788 12.6107C17.0551 12.5991 17.0291 12.5932 17.0027 12.5932C16.9763 12.5932 16.9503 12.5991 16.9266 12.6107C16.7114 12.0048 16.4628 11.4113 16.1819 10.8328L15.9197 10.4342C15.904 10.4111 15.8827 10.3923 15.858 10.3795C15.8332 10.3667 15.8059 10.3603 15.7781 10.3608L14.8758 6.78906C9.50516 7.62299 4.61708 11.0583 2.36182 15.7996C3.50838 15.5178 4.66906 15.2972 5.83906 15.1387C5.87106 15.1347 5.90349 15.1394 5.93304 15.1523C5.9626 15.1652 5.98808 15.186 6.0068 15.2122C6.32673 15.7367 6.87223 16.7122 7.22888 17.3625C7.72714 18.2699 8.04193 18.8469 8.25172 19.1353C8.33564 19.2507 8.48248 19.5496 8.63458 19.8433C9.22724 21.0286 10.1292 22.8171 11.645 23.4884C12.3827 23.8567 13.085 24.2921 13.7429 24.7891C14.1467 25.0828 14.5035 25.3137 14.8287 25.5235C14.8634 25.5433 14.8902 25.5744 14.9045 25.6117C14.9189 25.649 14.9198 25.69 14.9073 25.728C14.5651 26.5904 14.5651 27.551 14.9073 28.4134C15.1827 28.9789 15.5455 29.4975 15.9824 29.9501C16.4177 30.4378 16.5541 30.6109 16.5069 30.999C16.5069 31.2088 16.4492 31.5235 16.3968 31.8801C15.9982 34.77 15.7412 37.6862 17.3251 38.7771C17.4476 38.8575 17.5823 38.9176 17.7239 38.9553C17.9966 38.9553 18.2484 38.9554 18.5421 38.9187C18.6949 38.8654 18.8395 38.7912 18.9721 38.6984C21.0385 37.2718 24.2169 28.7333 23.7449 26.7927C23.6352 26.323 23.4306 25.8807 23.1438 25.4929C22.857 25.1051 22.4939 24.7799 22.0769 24.5374Z" fill="#10362D"/>
<path d="M18.0166 11.9197C21.006 11.9197 23.4293 10.6282 23.4293 9.03503C23.4293 7.44189 21.006 6.15039 18.0166 6.15039C15.0273 6.15039 12.604 7.44189 12.604 9.03503C12.604 10.6282 15.0273 11.9197 18.0166 11.9197Z" fill="#EBF9F5"/>
<path d="M12.604 9.93713C12.604 11.5106 15.0273 12.8218 18.0168 12.8218C21.0063 12.8218 23.4293 11.5315 23.4293 9.93713V9.02979C23.4293 10.6032 21.0063 11.9144 18.0168 11.9144C15.0273 11.9144 12.604 10.6242 12.604 9.02979V9.93713Z" fill="#10362D"/>
<path d="M23.4054 6.16649V4.78711L19.7183 7.29412V8.79414L23.4054 6.16649Z" fill="#0ABB92"/>
<path d="M1.87867 16.5084C2.09266 15.9385 2.37999 15.399 2.73351 14.9034C0.111106 0.05015 13.3333 1.8438 19.7215 8.79316V7.29322C14.7494 1.42953 -1.992 -2.35194 1.87867 16.5084Z" fill="#10362D"/>
<path d="M16.8184 5.7832C16.8184 6.22901 17.3009 6.59092 17.8673 6.59092C18.4338 6.59092 18.9163 6.22901 18.9163 5.7832V8.82521C18.9163 9.27102 18.439 9.63293 17.8673 9.63293C17.2956 9.63293 16.8184 9.27102 16.8184 8.82521V5.7832Z" fill="#10362D"/>
<path d="M23.4095 4.79155C21.1647 2.07999 14.9601 -0.83614 9.72051 0.317717C8.19952 0.558978 5.00023 2.41568 3.46875 4.68668C7.6069 0.490836 16.3762 3.35974 19.7276 7.30908L23.4095 4.79155Z" fill="#EBF9F5"/>
<path d="M17.8883 3.51774C18.4792 3.51774 18.9582 3.15612 18.9582 2.71004C18.9582 2.26396 18.4792 1.90234 17.8883 1.90234C17.2974 1.90234 16.8184 2.26396 16.8184 2.71004C16.8184 3.15612 17.2974 3.51774 17.8883 3.51774Z" fill="#EBF9F5"/>
<path d="M16.8184 2.69385C16.8584 2.93668 16.9888 3.1554 17.1833 3.30617C17.3778 3.45693 17.6222 3.52862 17.8673 3.50682C18.1127 3.52989 18.3578 3.45869 18.5526 3.3077C18.7474 3.15672 18.8774 2.93724 18.9163 2.69385V3.11346C18.8786 3.35741 18.7488 3.57764 18.5537 3.72885C18.3585 3.88006 18.113 3.95079 17.8673 3.92643C17.6219 3.9495 17.3771 3.8783 17.1823 3.72731C16.9874 3.57633 16.8572 3.35685 16.8184 3.11346V2.69385Z" fill="#10362D"/>
</svg>
