<svg width="70" height="70" viewBox="0 0 70 70" fill="none" xmlns="http://www.w3.org/2000/svg">
<path d="M26.3556 36.1233C26.2238 36.0244 26.0355 36.1184 26.0355 36.2833V54.2117C26.0355 54.3222 26.1251 54.4117 26.2355 54.4117H36.4238C36.5343 54.4117 36.6238 54.3222 36.6238 54.2117V43.9314C36.6238 43.8685 36.5942 43.8092 36.5439 43.7714L26.3556 36.1233Z" stroke="#B3B6B9"/>
<path d="M40.2124 44.1884C40.1745 44.226 40.1532 44.2771 40.1532 44.3304V54.2118C40.1532 54.3223 40.2427 54.4118 40.3532 54.4118H54.1885C54.299 54.4118 54.3885 54.3223 54.3885 54.2118V30.6094C54.3885 30.4316 54.1739 30.3422 54.0477 30.4674L40.2124 44.1884Z" stroke="#B3B6B9"/>
<path d="M15.5058 44.1883C15.4683 44.2258 15.4473 44.2766 15.4473 44.3297V54.2116C15.4473 54.322 15.5368 54.4116 15.6473 54.4116H22.3061C22.4166 54.4116 22.5061 54.322 22.5061 54.2116V37.6708C22.5061 37.4927 22.2907 37.4034 22.1647 37.5294L15.5058 44.1883Z" stroke="#B3B6B9"/>
<path d="M59.3045 15.9426L60.164 15.088H58.952H56.1533C55.454 15.088 54.8886 14.5226 54.8886 13.8233C54.8886 13.124 55.454 12.5586 56.1533 12.5586H63.2121C63.3739 12.5586 63.5377 12.5914 63.6947 12.6562C64.0041 12.7843 64.2509 13.031 64.379 13.3405C64.444 13.4976 64.4768 13.6614 64.4768 13.8233V20.8821C64.4768 21.5814 63.9114 22.1468 63.2121 22.1468C62.5129 22.1468 61.9474 21.5814 61.9474 20.8821V18.0834V16.8809L61.0948 17.7289L39.2837 39.4224L39.2823 39.4238C38.8383 39.869 38.1303 39.9172 37.6312 39.5413L37.6304 39.5407L24.7362 29.871L24.3893 29.6108L24.0827 29.9174L11.5643 42.4358L11.4178 42.5823V42.7894V42.8109V42.8324V42.8539V42.8755V42.8971V42.9187V42.9403V42.962V42.9837V43.0054V43.0271V43.0489V43.0706V43.0925V43.1143V43.1361V43.158V43.1799V43.2018V43.2238V43.2458V43.2678V43.2898V43.3119V43.3339V43.356V43.3782V43.4003V43.4225V43.4447V43.4669V43.4892V43.5114V43.5337V43.5561V43.5784V43.6008V43.6232V43.6456V43.6681V43.6906V43.7131V43.7356V43.7582V43.7808V43.8034V43.826V43.8487V43.8714V43.8941V43.9168V43.9396V43.9624V43.9852V44.008V44.0309V44.0538V44.0767V44.0997V44.1227V44.1457V44.1687V44.1917V44.2148V44.2379V44.2611V44.2842V44.3074V44.3307V44.3539V44.3772V44.4005V44.4238V44.4472V44.4705V44.4939V44.5174V44.5408V44.5643V44.5878V44.6114V44.635V44.6586V44.6822V44.7059V44.7295V44.7532V44.777V44.8008V44.8245V44.8484V44.8722V44.8961V44.92V44.9439V44.9679V44.9919V45.0159V45.04V45.064V45.0881V45.1123V45.1364V45.1606V45.1849V45.2091V45.2334V45.2577V45.282V45.3064V45.3308V45.3552V45.3796V45.4041V45.4286V45.4532V45.4777V45.5023V45.527V45.5516V45.5763V45.601V45.6257V45.6505V45.6753V45.7001V45.725V45.7499V45.7748V45.7998V45.8248V45.8498V45.8748V45.8999V45.925V45.9501V45.9753V46.0004V46.0257V46.0509V46.0762V46.1015V46.1268V46.1522V46.1776V46.2031V46.2285V46.254V46.2795V46.3051V46.3307V46.3563V46.3819V46.4076V46.4333V46.4591V46.4848V46.5106V46.5365V46.5623V46.5882V46.6142V46.6401V46.6661V46.6921V46.7182V46.7443V46.7704V46.7965V46.8227V46.8489V46.8752V46.9014V46.9277V46.9541V46.9804V47.0068V47.0333V47.0597V47.0862V47.1128V47.1393V47.1659V47.1925V47.2192V47.2459V47.2726V47.2994V47.3262V47.353V47.3798V47.4067V47.4336V47.4606V47.4876V47.5146V47.5416V47.5687V47.5958V47.623V47.6502V47.6774V47.7046V47.7319V47.7592V47.7866V47.8139V47.8414V47.8688V47.8963V47.9238V47.9514V47.9789V48.0066V48.0342V48.0619V48.0896V48.1174V48.1451V48.173V48.2008V48.2287V48.2566V48.2846V48.3126V48.3406V48.3686V48.3967V48.4249V48.453V48.4812V48.5094V48.5377V48.566V48.5943V48.6227V48.6511V48.6795V48.708V48.7365V48.7651V48.7936V48.8222V48.8509V48.8796V48.9083V48.937V48.9658V48.9947V49.0235V49.0524V49.0813V49.1103V49.1393V49.1683V49.1974V49.2265V49.2556V49.2848V49.314V49.3433V49.3726V49.4019V49.4312V49.4606V49.4901V49.5195V49.549V49.5786V49.6081V49.6378V49.6674V49.6971V49.7268V49.7566V49.7864V49.8162V49.846V49.8759V49.9059V49.9359V49.9659V49.9959V50.026V50.0561V50.0863V50.1165V50.1467V50.177V50.2073V50.2376V50.268V50.2985V50.3289V50.3594V50.3899V50.4205V50.4511V50.4818V50.5124V50.5432V50.5739V50.6047V50.6355V50.6664V50.6973V50.7283V50.7593V50.7903V50.8213V50.8524V50.8836V50.9148V50.946V50.9772V51.0085V51.0398V51.0712V51.1026V51.1341V51.1655V51.1971V51.2286V51.2602V51.2919V51.3235V51.3553V51.387V51.4188V51.4506V51.4825V51.5144V51.5464V51.5784V51.6104V51.6425V51.6746V51.7067V51.7389V51.7711V51.8034V51.8357V51.868V51.9004V51.9328V51.9653V51.9978V52.0303V52.0629V52.0956V52.1282V52.1609V52.1937V52.2264V52.2593V52.2921V52.325V52.358V52.391V52.424V52.4571V52.4902V52.5233V52.5565V52.5897V52.623V52.6563V52.6896V52.723V52.7565V52.7899V52.8234V52.857V52.8906V52.9242V52.9579V52.9916V53.0254V53.0592V53.093V53.1269V53.1608V53.1948V53.2288V53.2629V53.297V53.3311V53.3653V53.3995V53.4337V53.468V53.5024V53.5368V53.5712V53.6057V53.6402V53.6747V53.7093V53.7439V53.7786V53.8134V53.8481V53.8829V53.9178V53.9527V53.9876V54.0226V54.0576V54.0926V54.1277V54.1629V54.1981V54.2333V54.2686V54.3039V54.3393V54.3747V54.4101V54.4456V54.4811V54.5167V54.5523V54.588V54.6237V54.6595V54.6953V54.7311V54.767V54.8029V54.8389V54.8749V54.9109V54.947V54.9832V55.0194V55.0556V55.0919V55.1282V55.1645V55.2009V55.2374V55.2739V55.3104V55.347V55.3836V55.4203V55.457V55.4938V55.5306V55.5674V55.6043V55.6413V55.6783V55.7153V55.7524V55.7895V55.8266V55.8639V55.9011V55.9384V55.9757V56.0131V56.0506V56.088V56.1256V56.1631V56.2008V56.2384V56.2761V56.3139V56.3517V56.3895V56.4274V56.4653V56.5033V56.5413V56.5794V56.6175V56.6557V56.6939V56.7321V56.7704V56.8088V56.8472V56.8856V56.9241V56.9626V57.0012V57.0398V57.0785V57.1172V57.156V57.1948V57.2337V57.2726V57.3115V57.3505V57.3895V57.4286V57.4678V57.507V57.5462V57.5855V57.6248V57.6642V57.7036V57.7431V57.7826V57.8221V57.8617V57.9014V57.9411V58.4411H11.9178H12.1839H12.4486H12.7119H12.9739H13.2345H13.4938H13.7517H14.0083H14.2635H14.5174H14.7699H15.0212H15.2711H15.5196H15.7669H16.0129H16.2575H16.5008H16.7429H16.9836H17.2231H17.4613H17.6981H17.9337H18.1681H18.4011H18.6329H18.8635H19.0928H19.3208H19.5476H19.7731H19.9974H20.2205H20.4423H20.6629H20.8823H21.1005H21.3174H21.5331H21.7477H21.961H22.1731H22.3841H22.5938H22.8024H23.0098H23.216H23.421H23.6249H23.8276H24.0292H24.2296H24.4288H24.6269H24.8239H25.0197H25.2144H25.4079H25.6003H25.7917H25.9818H26.1709H26.3589H26.5458H26.7315H26.9162H27.0998H27.2823H27.4637H27.644H27.8233H28.0015H28.1786H28.3547H28.5297H28.7036H28.8765H29.0484H29.2192H29.389H29.5578H29.7255H29.8922H30.0579H30.2225H30.3862H30.5489H30.7105H30.8712H31.0308H31.1895H31.3472H31.5039H31.6596H31.8144H31.9682H32.121H32.2728H32.4238H32.5737H32.7227H32.8708H33.0179H33.1641H33.3094H33.4537H33.5972H33.7397H33.8813H34.022H34.1617H34.3006H34.4386H34.5757H34.7119H34.8472H34.9817H35.1152H35.2479H35.3798H35.5107H35.6409H35.7701H35.8985H36.0261H36.1528H36.2787H36.4038H36.528H36.6514H36.774H36.8958H37.0168H37.1369H37.2563H37.3748H37.4926H37.6096H37.7257H37.8412H37.9558H38.0696H38.1827H38.2951H38.4066H38.5174H38.6275H38.7368H38.8454H38.9532H39.0603H39.1667H39.2723H39.3772H39.4814H39.5849H39.6877H39.7898H39.8912H39.9918H40.0918H40.1911H40.2897H40.3877H40.485H40.5815H40.6775H40.7727H40.8673H40.9613H41.0546H41.1473H41.2393H41.3307H41.4214H41.5115H41.601H41.6899H41.7782H41.8658H41.9529H42.0393H42.1252H42.2104H42.2951H42.3791H42.4626H42.5456H42.6279H42.7097H42.7909H42.8715H42.9516H43.0312H43.1102H43.1886H43.2665H43.3439H43.4208H43.4971H43.5729H43.6482H43.7229H43.7972H43.871H43.9442H44.017H44.0892H44.161H44.2323H44.3031H44.3735H44.4433H44.5127H44.5817H44.6502H44.7182H44.7858H44.8529H44.9196H44.9859H45.0517H45.1171H45.1821H45.2466H45.3107H45.3745H45.4378H45.5007H45.5632H45.6253H45.6871H45.7484H45.8094H45.87H45.9302H45.99H46.0495H46.1086H46.1674H46.2258H46.2839H46.3416H46.399H46.456H46.5127H46.5691H46.6252H46.6809H46.7364H46.7915H46.8463H46.9008H46.955H47.009H47.0626H47.116H47.169H47.2218H47.2744H47.3266H47.3786H47.4304H47.4819H47.5331H47.5841H47.6349H47.6854H47.7357H47.7857H47.8355H47.8851H47.9345H47.9837H48.0327H48.0815H48.13H48.1784H48.2266H48.2746H48.3224H48.37H48.4175H48.4648H48.5119H48.5589H48.6057H48.6524H48.6989H48.7453H48.7915H48.8376H48.8836H48.9294H48.9751H49.0207H49.0662H49.1116H49.1568H49.202H49.2471H49.292H49.3369H49.3817H49.4265H49.4711H49.5157H49.5602H49.6046H49.649H49.6933H49.7376H49.7819H49.8261H49.8702H49.9143H49.9584H50.0025H50.0465H50.0906H50.1346H50.1786H50.2226H50.2666H50.3106H50.3547H50.3987H50.4428H50.4868H50.5309H50.5751H50.6192H50.6634H50.7077H50.752H50.7963H50.8407H50.8852H50.9297H50.9743H51.019H51.0638H51.1086H51.1535H51.1985H51.2436H51.2888H51.3341H51.3795H51.425H51.4706H51.5164H51.5623H51.6083H51.6544H51.7007H51.7471H51.7937H51.8404H51.8872H51.9343H51.9814H52.0288H52.0763H52.124H52.1719H52.2199H52.2682H52.3166H52.3652H52.4141H52.4631H52.5123H52.5618H52.6115H52.6614H52.7115H52.7619H52.8124H52.8633H52.9143H52.9656H53.0172H53.069H53.1211H53.1735H53.2261H53.279H53.3321H53.3856H53.4393H53.4933H53.5476H53.6022H53.6572H53.7124H53.7679H53.8238H53.8799H53.9364H53.9932H54.0504H54.1079H54.1657H54.2239H54.2824H54.3412H54.4005H54.4601H54.52H54.5804H54.6411H54.7021H54.7636H54.8254H54.8877H54.9503H55.0134H55.0768H55.1407H55.2049H55.2696H55.3347H55.4002H55.4662H55.5326H55.5994H55.6667H55.7344H55.8026H55.8712H55.9403H56.0098H56.0798H56.1503H56.2213H56.2927H56.3647H56.4371H56.51H56.5834H56.6573H56.7317H56.8067H56.8821H56.9581H57.0345H57.1116H57.1891H57.2672H57.3458H57.425H57.5047H57.5849H57.6658H57.7472H57.8291H57.9116H57.9947H58.0784H58.1626H58.2475H58.3329H58.4189H58.5056H58.5928H58.6806H58.7691H58.8582H58.9479H59.0382H59.1291H59.2207H59.3129H59.4058H59.4993H59.5934H59.6882H59.7837H59.8798H59.9766H60.0741H60.1723H60.2711H60.3706H60.4708H60.5717H60.6733H60.7756H60.8786H60.9823H61.0867H61.1918H61.2977H61.4043H61.5116H61.6197H61.7285H61.838H61.9483H62.0594H62.1712H62.2837H62.3971H62.5112H62.626H62.7417H62.8581H62.9753H63.0933H63.2121C63.9114 58.4411 64.4768 59.0065 64.4768 59.7058C64.4768 60.4051 63.9114 60.9705 63.2121 60.9705H57.918H54.3886H50.7415H50.2415V61.4705V63.3529C50.2415 64.0521 49.6761 64.6176 48.9768 64.6176C48.2775 64.6176 47.7121 64.0521 47.7121 63.3529V61.4705V60.9705H47.2121H43.6826H40.1532H36.6238H36.1238V61.4705V63.3529C36.1238 64.0521 35.5584 64.6176 34.8591 64.6176C34.1598 64.6176 33.5944 64.0521 33.5944 63.3529V61.4705V60.9705H33.0944H29.565H26.0355H22.5061H22.0061V61.4705V63.3529C22.0061 64.0521 21.4407 64.6176 20.7414 64.6176C20.0421 64.6176 19.4767 64.0521 19.4767 63.3529V61.4705V60.9705H18.9767H15.4473H11.9178H10.1531C9.45384 60.9705 8.8884 60.4051 8.8884 59.7058V57.9411V54.4117V50.8822V50.3822H8.3884H6.50605C5.80677 50.3822 5.24133 49.8168 5.24133 49.1175C5.24133 48.4183 5.80677 47.8528 6.50605 47.8528H8.3884H8.8884V47.3528V43.8234V40.294V36.7645V36.2645H8.3884H6.50605C5.80677 36.2645 5.24133 35.6991 5.24133 34.9998C5.24133 34.3006 5.80677 33.7351 6.50605 33.7351H8.3884H8.8884V33.2351V29.7057V26.1763V22.6468V22.1468H8.3884H6.50605C5.80677 22.1468 5.24133 21.5814 5.24133 20.8821C5.24133 20.1829 5.80677 19.6174 6.50605 19.6174H8.3884H8.8884V19.1174V15.588V12.0586V6.64679C8.8884 5.94752 9.45384 5.38208 10.1531 5.38208C10.8524 5.38208 11.4178 5.94752 11.4178 6.64679V6.76055V6.87395V6.987V7.09971V7.21207V7.32409V7.43576V7.54709V7.65807V7.76871V7.87901V7.98897V8.09858V8.20786V8.3168V8.42541V8.53367V8.6416V8.7492V8.85646V8.96339V9.06998V9.17625V9.28218V9.38778V9.49306V9.598V9.70262V9.80691V9.91088V10.0145V10.1178V10.2208V10.3235V10.4259V10.5279V10.6296V10.731V10.832V10.9328V11.0332V11.1334V11.2332V11.3327V11.4318V11.5307V11.6293V11.7275V11.8254V11.9231V12.0204V12.1174V12.2141V12.3105V12.4066V12.5024V12.5979V12.693V12.7879V12.8825V12.9768V13.0708V13.1645V13.2578V13.3509V13.4437V13.5362V13.6284V13.7203V13.812V13.9033V13.9943V14.0851V14.1755V14.2657V14.3556V14.4452V14.5345V14.6235V14.7123V14.8007V14.8889V14.9768V15.0644V15.1517V15.2388V15.3256V15.4121V15.4983V15.5842V15.6699V15.7553V15.8404V15.9253V16.0099V16.0942V16.1782V16.262V16.3455V16.4288V16.5117V16.5944V16.6769V16.759V16.841V16.9226V17.004V17.0851V17.166V17.2466V17.327V17.4071V17.4869V17.5665V17.6458V17.7249V17.8037V17.8823V17.9606V18.0387V18.1165V18.1941V18.2714V18.3484V18.4253V18.5019V18.5782V18.6543V18.7301V18.8057V18.8811V18.9562V19.0311V19.1058V19.1802V19.2544V19.3283V19.402V19.4755V19.5487V19.6217V19.6945V19.767V19.8393V19.9114V19.9832V20.0548V20.1262V20.1974V20.2683V20.3391V20.4095V20.4798V20.5499V20.6197V20.6893V20.7587V20.8278V20.8968V20.9655V21.034V21.1023V21.1704V21.2383V21.306V21.3734V21.4406V21.5077V21.5745V21.6411V21.7075V21.7737V21.8397V21.9054V21.971V22.0364V22.1015V22.1665V22.2313V22.2958V22.3602V22.4244V22.4883V22.5521V22.6157V22.6791V22.7423V22.8052V22.868V22.9306V22.9931V23.0553V23.1173V23.1792V23.2408V23.3023V23.3636V23.4247V23.4856V23.5463V23.6069V23.6673V23.7274V23.7874V23.8473V23.9069V23.9664V24.0257V24.0848V24.1437V24.2025V24.2611V24.3195V24.3778V24.4358V24.4938V24.5515V24.6091V24.6665V24.7237V24.7808V24.8377V24.8944V24.951V25.0074V25.0636V25.1197V25.1757V25.2314V25.287V25.3425V25.3978V25.4529V25.5079V25.5627V25.6174V25.6719V25.7263V25.7805V25.8346V25.8885V25.9423V25.9959V26.0494V26.1027V26.1559V26.209V26.2619V26.3146V26.3672V26.4197V26.472V26.5242V26.5763V26.6282V26.68V26.7316V26.7831V26.8345V26.8857V26.9369V26.9878V27.0387V27.0894V27.14V27.1904V27.2408V27.291V27.3411V27.391V27.4408V27.4905V27.5401V27.5896V27.6389V27.6881V27.7372V27.7862V27.8351V27.8838V27.9325V27.981V28.0294V28.0777V28.1258V28.1739V28.2218V28.2697V28.3174V28.365V28.4126V28.46V28.5073V28.5545V28.6016V28.6486V28.6955V28.7422V28.7889V28.8355V28.882V28.9284V28.9747V29.0209V29.067V29.113V29.1589V29.2047V29.2504V29.2961V29.3416V29.387V29.4324V29.4777V29.5229V29.568V29.613V29.6579V29.7027V29.7475V29.7922V29.8368V29.8813V29.9257V29.9701V30.0144V30.0586V30.1027V30.1467V30.1907V30.2346V30.2784V30.3222V30.3659V30.4095V30.453V30.4965V30.5399V30.5832V30.6265V30.6697V30.7128V30.7559V30.7989V30.8419V30.8847V30.9276V30.9703V31.013V31.0557V31.0983V31.1408V31.1833V31.2257V31.2681V31.3104V31.3527V31.3949V31.437V31.4791V31.5212V31.5632V31.6052V31.6471V31.689V31.7308V31.7726V31.8143V31.856V31.8977V31.9393V31.9809V32.0224V32.0639V32.1054V32.1468V32.1882V32.2296V32.2709V32.3122V32.3534V32.3947V32.4359V32.477V32.5181V32.5593V32.6003V32.6414V32.6824V32.7234V32.7644V32.8053V32.8463V32.8872V32.9281V32.969V33.0098V33.0506V33.0915V33.1323V33.173V33.2138V33.2546V33.2953V33.336V33.3768V33.4175V33.4582V33.4988V33.5395V33.5802V33.6209V33.6615V33.7022V33.7428V33.7835V33.8241V33.8648V33.9054V33.9461V33.9867V34.0274V34.068V34.1087V34.1493V34.19V34.2307V34.2714V34.312V34.3527V34.3934V34.4341V34.4749V34.5156V34.5564V34.5971V34.6379V34.6787V34.7195V34.7603V34.8012V34.842V34.8829V34.9238V34.9647V35.0057V35.0467V35.0876V35.1287V35.1697V35.2108V35.2519V35.293V35.3341V35.3753V35.4165V35.4578V35.499V35.5404V35.5817V35.6231V35.6645V35.7059V35.7474V35.7889V35.8305V35.8721V35.9137V35.9554V35.9971V36.0389V36.0807V36.1226V36.1645V36.2064V36.2484V36.2904V36.3325V36.3747V36.4169V36.4591V36.5014V36.5437V36.5861V36.6286V36.6711V36.7137V36.7563V36.799V36.8417V36.8845V36.9274V36.9703V37.0133V37.0563V37.0994V37.1426V37.1858V37.2292V37.2725V37.316V37.3595V37.4031V37.4467V37.4904V37.5342V37.5781V37.622V37.666V37.7101V37.7543V37.7985V39.0057L12.2714 38.1521L23.3766 27.0469L23.3785 27.0449C23.8216 26.597 24.523 26.5477 25.0277 26.9286L25.029 26.9296L37.9231 36.5993L38.269 36.8587L38.5756 36.5538L59.3045 15.9426Z" fill="#0ABB92" stroke="#121212"/>
<path fill-rule="evenodd" clip-rule="evenodd" d="M25.375 45.5C36.4897 45.5 45.5 36.4897 45.5 25.375C45.5 14.2603 36.4897 5.25 25.375 5.25C14.2603 5.25 5.25 14.2603 5.25 25.375C5.25 36.4897 14.2603 45.5 25.375 45.5Z" fill="#5367FF" fill-opacity="0.12"/>
<path fill-rule="evenodd" clip-rule="evenodd" d="M53.375 56C58.6907 56 63 51.6907 63 46.375C63 41.0593 58.6907 36.75 53.375 36.75C48.0593 36.75 43.75 41.0593 43.75 46.375C43.75 51.6907 48.0593 56 53.375 56Z" fill="#5367FF" fill-opacity="0.12"/>
</svg>
