<svg width="49" height="48" viewBox="0 0 49 48" fill="none" xmlns="http://www.w3.org/2000/svg">
<path d="M5.04321 40.393V41.7702L37.4983 23.678V22.3115L5.04321 40.393Z" fill="#0ABB92"/>
<path d="M0 37.3906V38.7678L5.04557 41.77V40.3928L0 37.3906Z" fill="#0ABB92"/>
<path d="M37.4962 15.3333V15.3225L32.4489 12.3203V12.3885C33.2658 13.2289 33.5711 14.3673 33.6716 15.5631L3.94406 32.9282L2.07666 36.7994L5.04116 40.4498L37.4962 22.3145V22.1673C36.4476 21.0576 36.1424 19.5601 36.1567 17.9764C36.1711 16.4196 36.4709 15.2381 37.4962 15.3333Z" fill="#10362D"/>
<path d="M33.2968 13.7514C33.1123 13.2439 32.825 12.7799 32.4529 12.3885V12.3203L33.5985 13.0008C33.6236 13.1804 33.6451 13.36 33.6595 13.5395L33.2968 13.7514Z" fill="#E5FAF5"/>
<path d="M2.58204 37.4226L2.07568 36.7995L2.34861 36.2339L2.58204 37.4226Z" fill="#E5FAF5"/>
<path d="M5.04737 33.4726V33.4618L0 30.4668V30.5332C1.06657 31.6411 1.27127 33.2374 1.2569 34.8426C1.24254 36.412 1.04323 37.5198 0 37.4013L5.04557 40.4538V40.3066C3.99696 39.1969 3.69171 37.6976 3.70787 36.1139C3.72403 34.5589 4.02209 33.3774 5.04737 33.4726Z" fill="#0ABB92"/>
<path d="M5.04737 32.2088L37.5006 14.1273L31.8374 10.8701L0 29.255L5.04737 32.2088Z" fill="#E5FAF5"/>
<path d="M5.04321 32.2065V33.5837L37.4983 15.4932V14.125L5.04321 32.2065Z" fill="#0ABB92"/>
<path d="M0 29.2534V30.5821L5.04557 33.5843V32.2071L0 29.2534Z" fill="#0ABB92"/>
<path d="M5.92045 30.5871C5.92045 30.808 5.6547 30.9857 5.32611 30.9857C4.99752 30.9857 4.72998 30.8062 4.72998 30.5871C4.72998 30.368 4.99573 30.1885 5.32611 30.1885C5.6565 30.1885 5.92045 30.3662 5.92045 30.5871Z" fill="#10362D"/>
<path d="M4.90234 30.5879C4.90234 30.6938 5.0819 30.8105 5.32251 30.8105C5.56312 30.8105 5.74088 30.6938 5.74088 30.5879C5.74088 30.4819 5.56132 30.3652 5.32251 30.3652C5.0837 30.3652 4.90234 30.4819 4.90234 30.5879Z" fill="#10362D"/>
<path d="M5.92045 30.3141C5.92045 30.5332 5.6547 30.7128 5.32611 30.7128C4.99752 30.7128 4.72998 30.5332 4.72998 30.3141C4.72998 30.0951 4.99573 29.9155 5.32611 29.9155C5.6565 29.9155 5.92045 30.0933 5.92045 30.3141Z" fill="#10362D"/>
<path d="M4.90234 30.3144C4.90234 30.4186 5.0819 30.5371 5.32251 30.5371C5.56312 30.5371 5.74088 30.4186 5.74088 30.3144C5.74088 30.2103 5.56132 30.0918 5.32251 30.0918C5.0837 30.0918 4.90234 30.2085 4.90234 30.3144Z" fill="#0ABB92"/>
<path d="M8.40409 26.0978C8.40409 26.3169 8.13655 26.4965 7.80796 26.4965C7.47937 26.4965 7.21362 26.3169 7.21362 26.0978C7.21362 25.8788 7.47937 25.6992 7.80796 25.6992C8.13655 25.6992 8.40409 25.877 8.40409 26.0978Z" fill="#10362D"/>
<path d="M7.39111 26.0977C7.39111 26.2018 7.57067 26.3203 7.80948 26.3203C8.04829 26.3203 8.22965 26.2018 8.22965 26.0977C8.22965 25.9935 8.05009 25.875 7.80948 25.875C7.56888 25.875 7.39111 25.9917 7.39111 26.0977Z" fill="#10362D"/>
<path d="M8.40409 25.8244C8.40409 26.0435 8.13655 26.2212 7.80796 26.2212C7.47937 26.2212 7.21362 26.0417 7.21362 25.8244C7.21362 25.6071 7.47937 25.4258 7.80796 25.4258C8.13655 25.4258 8.40409 25.6035 8.40409 25.8244Z" fill="#10362D"/>
<path d="M7.39111 25.8223C7.39111 25.9282 7.57067 26.0449 7.80948 26.0449C8.04829 26.0449 8.22965 25.9282 8.22965 25.8223C8.22965 25.7163 8.05009 25.5996 7.80948 25.5996C7.56888 25.5996 7.39111 25.7181 7.39111 25.8223Z" fill="#0ABB92"/>
<path d="M11.0601 27.614C11.0601 27.833 10.7926 28.0126 10.464 28.0126C10.1354 28.0126 9.86963 27.833 9.86963 27.614C9.86963 27.3949 10.1354 27.2153 10.464 27.2153C10.7926 27.2153 11.0601 27.3931 11.0601 27.614Z" fill="#10362D"/>
<path d="M11.0596 27.3395C11.0596 27.5604 10.7921 27.7382 10.4635 27.7382C10.1349 27.7382 9.86914 27.5586 9.86914 27.3395C9.86914 27.1205 10.1349 26.9409 10.4635 26.9409C10.7921 26.9409 11.0596 27.1205 11.0596 27.3395Z" fill="#10362D"/>
<path d="M10.0415 27.3389C10.0415 27.4448 10.2211 27.5615 10.4599 27.5615C10.6987 27.5615 10.88 27.4448 10.88 27.3389C10.88 27.2329 10.7005 27.1162 10.4599 27.1162C10.2193 27.1162 10.0415 27.2347 10.0415 27.3389Z" fill="#0ABB92"/>
<path d="M3.26517 29.0705C3.26517 29.2913 2.99943 29.4691 2.66904 29.4691C2.33866 29.4691 2.07471 29.2896 2.07471 29.0705C2.07471 28.8514 2.33327 28.6719 2.66904 28.6719C3.00482 28.6719 3.26517 28.8514 3.26517 29.0705Z" fill="#10362D"/>
<path d="M2.25244 29.0703C2.25244 29.1762 2.432 29.293 2.67081 29.293C2.90962 29.293 3.09098 29.1762 3.09098 29.0703C3.09098 28.9644 2.91142 28.8477 2.67081 28.8477C2.4302 28.8477 2.25244 28.9662 2.25244 29.0703Z" fill="#10362D"/>
<path d="M3.26517 28.7971C3.26517 29.0161 2.99943 29.1957 2.66904 29.1957C2.33866 29.1957 2.07471 29.0161 2.07471 28.7971C2.07471 28.578 2.34045 28.3984 2.66904 28.3984C2.99763 28.3984 3.26517 28.5762 3.26517 28.7971Z" fill="#10362D"/>
<path d="M2.25244 28.7969C2.25244 28.901 2.432 29.0195 2.67081 29.0195C2.90962 29.0195 3.09098 28.901 3.09098 28.7969C3.09098 28.6927 2.91142 28.5742 2.67081 28.5742C2.4302 28.5742 2.25244 28.6909 2.25244 28.7969Z" fill="#0ABB92"/>
<path d="M29.8853 16.8703C29.8853 17.0894 29.6178 17.2689 29.2892 17.2689C28.9606 17.2689 28.6948 17.0894 28.6948 16.8703C28.6948 16.6512 28.9606 16.4717 29.2892 16.4717C29.6178 16.4717 29.8853 16.6494 29.8853 16.8703Z" fill="#10362D"/>
<path d="M28.8726 16.87C28.8726 16.9741 29.0521 17.0926 29.2909 17.0926C29.5297 17.0926 29.7111 16.9741 29.7111 16.87C29.7111 16.7658 29.5315 16.6455 29.2909 16.6455C29.0503 16.6455 28.8726 16.764 28.8726 16.87Z" fill="#10362D"/>
<path d="M29.8853 16.5954C29.8853 16.8198 29.616 16.9994 29.2892 16.9994C28.9624 16.9994 28.6948 16.8198 28.6948 16.6008C28.6948 16.3817 28.9606 16.2021 29.2892 16.2021C29.6178 16.2021 29.8853 16.3763 29.8853 16.5954Z" fill="#10362D"/>
<path d="M28.8726 16.5957C28.8726 16.7016 29.0521 16.8183 29.2909 16.8183C29.5297 16.8183 29.7111 16.7016 29.7111 16.5957C29.7111 16.4898 29.5315 16.373 29.2909 16.373C29.0503 16.373 28.8726 16.4916 28.8726 16.5957Z" fill="#0ABB92"/>
<path d="M32.3938 12.3785C32.3938 12.5993 32.1281 12.7771 31.7995 12.7771C31.4709 12.7771 31.2034 12.5975 31.2034 12.3785C31.2034 12.1594 31.4709 11.9727 31.7995 11.9727C32.1281 11.9727 32.3938 12.1522 32.3938 12.3785Z" fill="#10362D"/>
<path d="M31.3809 12.3779C31.3809 12.4839 31.5604 12.6006 31.801 12.6006C32.0416 12.6006 32.2194 12.4839 32.2194 12.3779C32.2194 12.272 32.0398 12.1553 31.801 12.1553C31.5622 12.1553 31.3809 12.2738 31.3809 12.3779Z" fill="#10362D"/>
<path d="M32.3938 12.1047C32.3938 12.3255 32.1281 12.5033 31.7995 12.5033C31.4709 12.5033 31.2034 12.3237 31.2034 12.1047C31.2034 11.8856 31.4709 11.7061 31.7995 11.7061C32.1281 11.7061 32.3938 11.8838 32.3938 12.1047Z" fill="#10362D"/>
<path d="M31.3809 12.1045C31.3809 12.2104 31.5604 12.3271 31.801 12.3271C32.0416 12.3271 32.2194 12.2104 32.2194 12.1045C32.2194 11.9985 32.0398 11.8818 31.801 11.8818C31.5622 11.8818 31.3809 11.9985 31.3809 12.1045Z" fill="#0ABB92"/>
<path d="M35.0332 13.8957C35.0332 14.1165 34.7675 14.2943 34.4389 14.2943C34.1103 14.2943 33.8428 14.1147 33.8428 13.8957C33.8428 13.6766 34.1103 13.4971 34.4389 13.4971C34.7675 13.4971 35.0332 13.6766 35.0332 13.8957Z" fill="#10362D"/>
<path d="M35.0323 13.6232C35.0323 13.8423 34.7665 14.0218 34.4379 14.0218C34.1093 14.0218 33.8418 13.8423 33.8418 13.6232C33.8418 13.4042 34.104 13.23 34.4379 13.23C34.7719 13.23 35.0323 13.4095 35.0323 13.6232Z" fill="#10362D"/>
<path d="M34.0195 13.623C34.0195 13.7272 34.1991 13.8457 34.4379 13.8457C34.6767 13.8457 34.8563 13.7272 34.8563 13.623C34.8563 13.5189 34.6767 13.4004 34.4379 13.4004C34.1991 13.4004 34.0195 13.5171 34.0195 13.623Z" fill="#0ABB92"/>
<path d="M27.229 15.3537C27.229 15.5728 26.9615 15.7523 26.6329 15.7523C26.3043 15.7523 26.0386 15.5728 26.0386 15.3537C26.0386 15.1346 26.3043 14.9551 26.6329 14.9551C26.9615 14.9551 27.229 15.1328 27.229 15.3537Z" fill="#10362D"/>
<path d="M26.2163 15.3535C26.2163 15.4577 26.3959 15.5762 26.6347 15.5762C26.8735 15.5762 27.0548 15.4577 27.0548 15.3535C27.0548 15.2494 26.8753 15.1309 26.6347 15.1309C26.3941 15.1309 26.2163 15.2476 26.2163 15.3535Z" fill="#10362D"/>
<path d="M27.229 15.0783C27.229 15.2992 26.9615 15.4769 26.6329 15.4769C26.3043 15.4769 26.0386 15.2974 26.0386 15.0783C26.0386 14.8592 26.3043 14.6797 26.6329 14.6797C26.9615 14.6797 27.229 14.8592 27.229 15.0783Z" fill="#10362D"/>
<path d="M26.2163 15.0781C26.2163 15.1841 26.3959 15.3008 26.6347 15.3008C26.8735 15.3008 27.0548 15.1841 27.0548 15.0781C27.0548 14.9722 26.8753 14.8555 26.6347 14.8555C26.3941 14.8555 26.2163 14.974 26.2163 15.0781Z" fill="#0ABB92"/>
<path d="M5.04321 30.0035V31.3825L37.4983 13.2903V11.9238L5.04321 30.0035Z" fill="#0ABB92"/>
<path d="M0 27.001V28.38L5.04557 31.3822V30.0032L0 27.001Z" fill="#0ABB92"/>
<path d="M37.4962 4.94544V4.93287L32.4489 1.93066V1.9989C33.2658 2.84461 33.5765 3.97403 33.6716 5.17886L3.94406 22.5385L2.07666 26.4116L5.04834 30.062L37.5034 11.9266V11.7794C36.4548 10.6679 36.1495 9.17043 36.1639 7.58673C36.1711 6.03176 36.4709 4.85027 37.4962 4.94544Z" fill="#10362D"/>
<path d="M33.2968 3.36174C33.1116 2.85456 32.8244 2.39073 32.4529 1.9989V1.93066L33.5985 2.61298C33.6236 2.79254 33.6451 2.9721 33.6595 3.15166L33.2968 3.36174Z" fill="#E5FAF5"/>
<path d="M2.58204 27.0329L2.07568 26.4116L2.34861 25.8442L2.58204 27.0329Z" fill="#E5FAF5"/>
<path d="M5.04737 23.0851V23.0725L0 20.0703V20.1385C1.06657 21.2446 1.27127 22.8427 1.2569 24.4479C1.24254 26.0173 1.04323 27.1251 0 27.0066L5.04557 30.0591V29.9101C3.99696 28.8004 3.69171 27.3029 3.70787 25.7192C3.72403 24.1714 4.02209 22.9899 5.04737 23.0851Z" fill="#0ABB92"/>
<path d="M5.04737 21.8191L37.5006 3.73944L31.8374 0.480469L0 18.8654L5.04737 21.8191Z" fill="#E5FAF5"/>
<path d="M5.04321 21.8175V23.1965L37.4983 5.10423V3.73779L5.04321 21.8175Z" fill="#0ABB92"/>
<path d="M0 18.8652V20.194L5.04557 23.1962V21.8172L0 18.8652Z" fill="#0ABB92"/>
<path d="M5.92224 20.1999C5.92224 20.4136 5.6547 20.5931 5.32611 20.5931C4.99752 20.5931 4.72998 20.4136 4.72998 20.1945C4.72998 19.9755 4.99573 19.7959 5.32611 19.7959C5.6565 19.7959 5.92224 19.9808 5.92224 20.1999Z" fill="#10362D"/>
<path d="M4.90771 20.2002C4.90771 20.3061 5.08727 20.4228 5.32788 20.4228C5.56849 20.4228 5.74445 20.3061 5.74445 20.2002C5.74445 20.0943 5.5649 19.9775 5.32608 19.9775C5.08727 19.9775 4.90771 20.096 4.90771 20.2002Z" fill="#10362D"/>
<path d="M5.92045 19.926C5.92045 20.1468 5.6547 20.3246 5.32611 20.3246C4.99752 20.3246 4.72998 20.145 4.72998 19.926C4.72998 19.7069 4.99573 19.5273 5.32611 19.5273C5.6565 19.5273 5.92045 19.7069 5.92045 19.926Z" fill="#10362D"/>
<path d="M4.90234 19.9268C4.90234 20.0327 5.0819 20.1494 5.32251 20.1494C5.56312 20.1494 5.74088 20.0327 5.74088 19.9268C5.74088 19.8208 5.56132 19.7041 5.32251 19.7041C5.0837 19.7041 4.90234 19.8226 4.90234 19.9268Z" fill="#0ABB92"/>
<path d="M8.40409 15.7089C8.40409 15.9243 8.13655 16.1039 7.80796 16.1039C7.47937 16.1039 7.21362 15.9243 7.21362 15.7053C7.21362 15.4862 7.47937 15.3066 7.80796 15.3066C8.13655 15.3066 8.40409 15.4898 8.40409 15.7089Z" fill="#10362D"/>
<path d="M7.39111 15.709C7.39111 15.8149 7.57067 15.9316 7.80948 15.9316C8.04829 15.9316 8.22965 15.8149 8.22965 15.709C8.22965 15.603 8.05009 15.4863 7.80948 15.4863C7.56888 15.4863 7.39111 15.6048 7.39111 15.709Z" fill="#10362D"/>
<path d="M8.40409 15.4367C8.40409 15.6576 8.13655 15.8353 7.80796 15.8353C7.47937 15.8353 7.21362 15.6558 7.21362 15.4367C7.21362 15.2176 7.47937 15.0381 7.80796 15.0381C8.13655 15.0381 8.40409 15.2158 8.40409 15.4367Z" fill="#10362D"/>
<path d="M7.39111 15.4369C7.39111 15.541 7.57067 15.6595 7.80948 15.6595C8.04829 15.6595 8.22965 15.541 8.22965 15.4369C8.22965 15.3327 8.05009 15.207 7.80948 15.207C7.56888 15.207 7.39111 15.3309 7.39111 15.4369Z" fill="#0ABB92"/>
<path d="M11.0643 17.2253C11.0643 17.4461 10.7968 17.6239 10.4682 17.6239C10.1396 17.6239 9.8667 17.4461 9.8667 17.2253C9.8667 17.0044 10.1396 16.8213 10.4682 16.8213C10.7968 16.8213 11.0643 17.0008 11.0643 17.2253Z" fill="#10362D"/>
<path d="M11.0663 16.9528C11.0663 17.1809 10.7988 17.3604 10.4702 17.3604C10.1416 17.3604 9.86865 17.1809 9.86865 16.9528C9.86865 16.7248 10.1344 16.5542 10.463 16.5542C10.7916 16.5542 11.0663 16.732 11.0663 16.9528Z" fill="#10362D"/>
<path d="M10.0464 16.9526C10.0464 17.0568 10.2259 17.1753 10.4648 17.1753C10.7036 17.1753 10.8849 17.0568 10.8849 16.9526C10.8849 16.8485 10.7054 16.73 10.4648 16.73C10.2241 16.73 10.0464 16.8467 10.0464 16.9526Z" fill="#0ABB92"/>
<path d="M3.26517 18.6838C3.26517 18.9028 2.99943 19.0824 2.66904 19.0824C2.33866 19.0824 2.07471 18.9028 2.07471 18.6838C2.07471 18.4647 2.34045 18.2852 2.66904 18.2852C2.99763 18.2852 3.26517 18.4629 3.26517 18.6838Z" fill="#10362D"/>
<path d="M2.25244 18.6836C2.25244 18.7877 2.432 18.9062 2.67081 18.9062C2.90962 18.9062 3.09098 18.7877 3.09098 18.6836C3.09098 18.5794 2.91142 18.4609 2.67081 18.4609C2.4302 18.4609 2.25244 18.5777 2.25244 18.6836Z" fill="#10362D"/>
<path d="M3.26517 18.4089C3.26517 18.6297 2.99943 18.8075 2.66904 18.8075C2.33866 18.8075 2.07471 18.6279 2.07471 18.4089C2.07471 18.1898 2.34045 18.0103 2.66904 18.0103C2.99763 18.0103 3.26517 18.1898 3.26517 18.4089Z" fill="#10362D"/>
<path d="M2.25244 18.4087C2.25244 18.5146 2.432 18.6313 2.67081 18.6313C2.90962 18.6313 3.09098 18.5146 3.09098 18.4087C3.09098 18.3027 2.91142 18.186 2.67081 18.186C2.4302 18.186 2.25244 18.3045 2.25244 18.4087Z" fill="#0ABB92"/>
<path d="M29.8853 6.48065C29.8853 6.7015 29.6178 6.87927 29.2892 6.87927C28.9606 6.87927 28.6948 6.69971 28.6948 6.48065C28.6948 6.26159 28.9606 6.08203 29.2892 6.08203C29.6178 6.08203 29.8853 6.25979 29.8853 6.48065Z" fill="#10362D"/>
<path d="M28.8726 6.48046C28.8726 6.5864 29.0521 6.70312 29.2909 6.70312C29.5297 6.70312 29.7111 6.5864 29.7111 6.48046C29.7111 6.37452 29.5315 6.25781 29.2909 6.25781C29.0503 6.25781 28.8726 6.37452 28.8726 6.48046Z" fill="#10362D"/>
<path d="M29.8853 6.20819C29.8853 6.42725 29.6178 6.60681 29.2892 6.60681C28.9606 6.60681 28.6948 6.42725 28.6948 6.20819C28.6948 5.98913 28.9606 5.80957 29.2892 5.80957C29.6178 5.80957 29.8853 5.98733 29.8853 6.20819Z" fill="#10362D"/>
<path d="M28.8726 6.208C28.8726 6.31215 29.0521 6.43065 29.2909 6.43065C29.5297 6.43065 29.7111 6.31215 29.7111 6.208C29.7111 6.10386 29.5315 5.98535 29.2909 5.98535C29.0503 5.98535 28.8726 6.10206 28.8726 6.208Z" fill="#0ABB92"/>
<path d="M32.3938 1.98944C32.3938 2.2085 32.1281 2.38806 31.7995 2.38806C31.4709 2.38806 31.2034 2.2085 31.2034 1.98944C31.2034 1.77038 31.4709 1.59082 31.7995 1.59082C32.1281 1.59082 32.3938 1.76858 32.3938 1.98944Z" fill="#10362D"/>
<path d="M31.3809 1.98925C31.3809 2.0934 31.5604 2.2119 31.801 2.2119C32.0416 2.2119 32.2194 2.0934 32.2194 1.98925C32.2194 1.88511 32.0398 1.7666 31.801 1.7666C31.5622 1.7666 31.3809 1.88331 31.3809 1.98925Z" fill="#10362D"/>
<path d="M32.3938 1.71551C32.3938 1.93637 32.1281 2.11413 31.7995 2.11413C31.4709 2.11413 31.2034 1.93457 31.2034 1.71551C31.2034 1.49645 31.4709 1.31689 31.7995 1.31689C32.1281 1.31689 32.3938 1.49645 32.3938 1.71551Z" fill="#10362D"/>
<path d="M31.3809 1.71533C31.3809 1.82127 31.5604 1.93798 31.801 1.93798C32.0416 1.93798 32.2194 1.82127 32.2194 1.71533C32.2194 1.60939 32.0398 1.49268 31.801 1.49268C31.5622 1.49268 31.3809 1.61118 31.3809 1.71533Z" fill="#0ABB92"/>
<path d="M35.0332 3.5075C35.0332 3.72657 34.7675 3.90612 34.4389 3.90612C34.1103 3.90612 33.8428 3.72657 33.8428 3.5075C33.8428 3.28844 34.1103 3.10889 34.4389 3.10889C34.7675 3.10889 35.0332 3.28665 35.0332 3.5075Z" fill="#10362D"/>
<path d="M35.0323 3.23309C35.0323 3.45395 34.7665 3.63171 34.4379 3.63171C34.1093 3.63171 33.8418 3.45215 33.8418 3.23309C33.8418 3.01403 34.1093 2.83447 34.4379 2.83447C34.7665 2.83447 35.0323 3.01403 35.0323 3.23309Z" fill="#10362D"/>
<path d="M34.0195 3.23339C34.0195 3.33933 34.1991 3.45605 34.4379 3.45605C34.6767 3.45605 34.8563 3.33933 34.8563 3.23339C34.8563 3.12745 34.6767 3.01074 34.4379 3.01074C34.1991 3.01074 34.0195 3.12925 34.0195 3.23339Z" fill="#0ABB92"/>
<path d="M27.229 4.96942C27.229 5.19027 26.9615 5.36804 26.6329 5.36804C26.3043 5.36804 26.0386 5.18848 26.0386 4.96942C26.0386 4.75036 26.3043 4.5708 26.6329 4.5708C26.9615 4.5708 27.229 4.74497 27.229 4.96942Z" fill="#10362D"/>
<path d="M26.2163 4.96972C26.2163 5.07566 26.3959 5.19237 26.6347 5.19237C26.8735 5.19237 27.0548 5.07566 27.0548 4.96972C27.0548 4.86378 26.8753 4.74707 26.6347 4.74707C26.3941 4.74707 26.2163 4.86019 26.2163 4.96972Z" fill="#10362D"/>
<path d="M27.229 4.69159C27.229 4.91065 26.9615 5.09021 26.6329 5.09021C26.3043 5.09021 26.0386 4.91065 26.0386 4.69159C26.0386 4.47253 26.3043 4.29297 26.6329 4.29297C26.9615 4.29297 27.229 4.47073 27.229 4.69159Z" fill="#10362D"/>
<path d="M26.2163 4.6914C26.2163 4.79555 26.3959 4.91405 26.6347 4.91405C26.8735 4.91405 27.0548 4.79555 27.0548 4.6914C27.0548 4.58726 26.8753 4.46875 26.6347 4.46875C26.3941 4.46875 26.2163 4.58546 26.2163 4.6914Z" fill="#0ABB92"/>
<g clip-path="url(#clip0_722_30693)">
<path d="M15.7708 46.5338V47.9128L48.2258 29.8205V28.4541L15.7708 46.5338Z" fill="#0ABB92"/>
<path d="M10.7251 43.5312V44.9103L15.7707 47.9125V46.5335L10.7251 43.5312Z" fill="#0ABB92"/>
<path d="M48.2258 21.4762V21.4636L43.1856 18.4614V18.5297C44.0026 19.3754 44.3115 20.5048 44.4066 21.7096L14.6665 39.0693L12.7991 42.9423L15.7708 46.5927L48.2258 28.4574V28.3102C47.1754 27.1987 46.8719 25.7012 46.8863 24.1175C46.9007 22.5625 47.2005 21.381 48.2258 21.4762Z" fill="#10362D"/>
<path d="M44.0314 19.8925C43.8462 19.3853 43.559 18.9215 43.1875 18.5297V18.4614L44.3331 19.1437C44.3582 19.3233 44.3798 19.5029 44.3941 19.6824L44.0314 19.8925Z" fill="#E5FAF5"/>
<path d="M13.3145 43.5637L12.8081 42.9424L13.081 42.375L13.3145 43.5637Z" fill="#E5FAF5"/>
<path d="M15.7707 39.6154V39.6028L10.7251 36.6006V36.6688C11.7917 37.7749 11.9964 39.373 11.982 40.9782C11.9676 42.5475 11.7683 43.6554 10.7251 43.5369L15.7707 46.5894V46.4404C14.7221 45.3307 14.4168 43.8332 14.4312 42.2495C14.4455 40.6999 14.7454 39.5202 15.7707 39.6154Z" fill="#0ABB92"/>
<path d="M15.769 38.3494L48.224 20.2697L42.559 17.0107L10.7234 35.3957L15.769 38.3494Z" fill="#E5FAF5"/>
<path d="M15.7708 38.3477V39.7267L48.2258 21.6345V20.2681L15.7708 38.3477Z" fill="#0ABB92"/>
<path d="M10.7251 35.3955V36.7242L15.7707 39.7264V38.3474L10.7251 35.3955Z" fill="#0ABB92"/>
<path d="M16.647 36.7282C16.647 36.9491 16.3795 37.1268 16.0509 37.1268C15.7223 37.1268 15.4565 36.9473 15.4565 36.7282C15.4565 36.5091 15.7223 36.3296 16.0509 36.3296C16.3795 36.3296 16.647 36.5091 16.647 36.7282Z" fill="#10362D"/>
<path d="M15.6326 36.728C15.6326 36.834 15.8121 36.9507 16.0509 36.9507C16.2897 36.9507 16.4711 36.834 16.4711 36.728C16.4711 36.6221 16.2915 36.5054 16.0509 36.5054C15.8103 36.5054 15.6326 36.6185 15.6326 36.728Z" fill="#10362D"/>
<path d="M16.647 36.4553C16.647 36.6761 16.3795 36.8539 16.0509 36.8539C15.7223 36.8539 15.4565 36.6743 15.4565 36.4553C15.4565 36.2362 15.7223 36.0566 16.0509 36.0566C16.3795 36.0566 16.647 36.2344 16.647 36.4553Z" fill="#10362D"/>
<path d="M15.6326 36.4551C15.6326 36.561 15.8121 36.6777 16.0509 36.6777C16.2897 36.6777 16.4711 36.561 16.4711 36.4551C16.4711 36.3491 16.2915 36.2324 16.0509 36.2324C15.8103 36.2324 15.6326 36.3509 15.6326 36.4551Z" fill="#0ABB92"/>
<path d="M19.1392 32.2375C19.1392 32.4583 18.8717 32.6361 18.5431 32.6361C18.2145 32.6361 17.9487 32.4565 17.9487 32.2375C17.9487 32.0184 18.2145 31.8389 18.5431 31.8389C18.8717 31.8389 19.1392 32.0184 19.1392 32.2375Z" fill="#10362D"/>
<path d="M18.1248 32.2373C18.1248 32.3432 18.3043 32.46 18.5431 32.46C18.7819 32.46 18.9633 32.3432 18.9633 32.2373C18.9633 32.1314 18.7837 32.0146 18.5431 32.0146C18.3025 32.0146 18.1248 32.1296 18.1248 32.2373Z" fill="#10362D"/>
<path d="M19.1392 31.9645C19.1392 32.1836 18.8717 32.3632 18.5431 32.3632C18.2145 32.3632 17.9487 32.1836 17.9487 31.9645C17.9487 31.7455 18.2145 31.5659 18.5431 31.5659C18.8717 31.5659 19.1392 31.7437 19.1392 31.9645Z" fill="#10362D"/>
<path d="M18.1248 31.9644C18.1248 32.0685 18.3043 32.187 18.5431 32.187C18.7819 32.187 18.9633 32.0685 18.9633 31.9644C18.9633 31.8602 18.7837 31.7417 18.5431 31.7417C18.3025 31.7417 18.1248 31.8584 18.1248 31.9644Z" fill="#0ABB92"/>
<path d="M21.7967 33.7546C21.7967 33.9754 21.5291 34.1532 21.2005 34.1532C20.8719 34.1532 20.6062 33.9736 20.6062 33.7546C20.6062 33.5355 20.8719 33.356 21.2005 33.356C21.5291 33.356 21.7967 33.5337 21.7967 33.7546Z" fill="#10362D"/>
<path d="M21.7967 33.4816C21.7967 33.7007 21.5291 33.8802 21.2005 33.8802C20.8719 33.8802 20.6062 33.7007 20.6062 33.4816C20.6062 33.2626 20.8719 33.083 21.2005 33.083C21.5291 33.083 21.7967 33.2608 21.7967 33.4816Z" fill="#10362D"/>
<path d="M20.7822 33.4814C20.7822 33.5856 20.9618 33.7041 21.2006 33.7041C21.4394 33.7041 21.6208 33.5856 21.6208 33.4814C21.6208 33.3773 21.4412 33.2588 21.2006 33.2588C20.96 33.2588 20.7822 33.3755 20.7822 33.4814Z" fill="#0ABB92"/>
<path d="M13.9895 35.2129C13.9895 35.4319 13.722 35.6115 13.3934 35.6115C13.0648 35.6115 12.7991 35.4319 12.7991 35.2129C12.7991 34.9938 13.0648 34.8232 13.3934 34.8232C13.722 34.8232 13.9895 34.992 13.9895 35.2129Z" fill="#10362D"/>
<path d="M12.9751 35.2127C12.9751 35.3169 13.1547 35.4354 13.3935 35.4354C13.6323 35.4354 13.8136 35.3169 13.8136 35.2127C13.8136 35.1086 13.6341 34.9883 13.3935 34.9883C13.1529 34.9883 12.9751 35.1068 12.9751 35.2127Z" fill="#10362D"/>
<path d="M13.9895 34.9382C13.9895 35.159 13.722 35.3368 13.3934 35.3368C13.0648 35.3368 12.7991 35.1572 12.7991 34.9382C12.7991 34.7191 13.0648 34.5396 13.3934 34.5396C13.722 34.5396 13.9895 34.7191 13.9895 34.9382Z" fill="#10362D"/>
<path d="M12.9751 34.938C12.9751 35.0439 13.1547 35.1606 13.3935 35.1606C13.6323 35.1606 13.8136 35.0439 13.8136 34.938C13.8136 34.832 13.6341 34.7153 13.3935 34.7153C13.1529 34.7153 12.9751 34.8338 12.9751 34.938Z" fill="#0ABB92"/>
<path d="M40.6197 23.0119C40.6197 23.231 40.3521 23.4105 40.0235 23.4105C39.6949 23.4105 39.4292 23.231 39.4292 23.0119C39.4292 22.7928 39.6949 22.6133 40.0235 22.6133C40.3521 22.6133 40.6197 22.7928 40.6197 23.0119Z" fill="#10362D"/>
<path d="M39.6052 23.0117C39.6052 23.1159 39.7848 23.2344 40.0236 23.2344C40.2624 23.2344 40.4438 23.1159 40.4438 23.0117C40.4438 22.9076 40.2642 22.7891 40.0236 22.7891C39.783 22.7891 39.6052 22.9058 39.6052 23.0117Z" fill="#10362D"/>
<path d="M40.6197 22.7389C40.6197 22.958 40.3521 23.1376 40.0235 23.1376C39.6949 23.1376 39.4292 22.958 39.4292 22.7389C39.4292 22.5199 39.6949 22.3403 40.0235 22.3403C40.3521 22.3403 40.6197 22.5181 40.6197 22.7389Z" fill="#10362D"/>
<path d="M39.6052 22.7388C39.6052 22.8429 39.7848 22.9614 40.0236 22.9614C40.2624 22.9614 40.4438 22.8429 40.4438 22.7388C40.4438 22.6346 40.2642 22.5161 40.0236 22.5161C39.783 22.5161 39.6052 22.6328 39.6052 22.7388Z" fill="#0ABB92"/>
<path d="M43.1101 18.5208C43.1101 18.7399 42.8444 18.9195 42.5158 18.9195C42.1872 18.9195 41.9197 18.7399 41.9197 18.5208C41.9197 18.3018 42.1872 18.124 42.5158 18.124C42.8444 18.124 43.1101 18.3036 43.1101 18.5208Z" fill="#10362D"/>
<path d="M42.0957 18.521C42.0957 18.6251 42.2753 18.7436 42.5159 18.7436C42.7565 18.7436 42.9342 18.6251 42.9342 18.521C42.9342 18.4168 42.7547 18.2983 42.5159 18.2983C42.2771 18.2983 42.0957 18.4151 42.0957 18.521Z" fill="#10362D"/>
<path d="M43.1101 18.2463C43.1101 18.4671 42.8444 18.6449 42.5158 18.6449C42.1872 18.6449 41.9197 18.4653 41.9197 18.2463C41.9197 18.0272 42.1872 17.8477 42.5158 17.8477C42.8444 17.8477 43.1101 18.0272 43.1101 18.2463Z" fill="#10362D"/>
<path d="M42.0957 18.2461C42.0957 18.352 42.2753 18.4687 42.5159 18.4687C42.7565 18.4687 42.9342 18.352 42.9342 18.2461C42.9342 18.1401 42.7547 18.0234 42.5159 18.0234C42.2771 18.0234 42.0957 18.1419 42.0957 18.2461Z" fill="#0ABB92"/>
<path d="M45.7676 20.0381C45.7676 20.2572 45.5019 20.4367 45.1733 20.4367C44.8447 20.4367 44.5771 20.2572 44.5771 20.0381C44.5771 19.819 44.8447 19.6377 45.1733 19.6377C45.5019 19.6377 45.7676 19.8173 45.7676 20.0381Z" fill="#10362D"/>
<path d="M45.7676 19.7634C45.7676 19.9842 45.5019 20.162 45.1733 20.162C44.8447 20.162 44.5771 19.9824 44.5771 19.7634C44.5771 19.5443 44.8447 19.3647 45.1733 19.3647C45.5019 19.3647 45.7676 19.5443 45.7676 19.7634Z" fill="#10362D"/>
<path d="M44.7532 19.7632C44.7532 19.8691 44.9327 19.9858 45.1733 19.9858C45.4139 19.9858 45.5917 19.8691 45.5917 19.7632C45.5917 19.6572 45.4122 19.5405 45.1733 19.5405C44.9345 19.5405 44.7532 19.659 44.7532 19.7632Z" fill="#0ABB92"/>
<path d="M37.9605 21.4943C37.9605 21.7152 37.6947 21.8929 37.3661 21.8929C37.0376 21.8929 36.77 21.7134 36.77 21.4943C36.77 21.2753 37.0376 21.0957 37.3661 21.0957C37.6947 21.0957 37.9605 21.2735 37.9605 21.4943Z" fill="#10362D"/>
<path d="M36.9478 21.4941C36.9478 21.6001 37.1273 21.7168 37.3661 21.7168C37.6049 21.7168 37.7845 21.6001 37.7845 21.4941C37.7845 21.3882 37.6049 21.2715 37.3661 21.2715C37.1273 21.2715 36.9478 21.39 36.9478 21.4941Z" fill="#10362D"/>
<path d="M37.9605 21.2214C37.9605 21.4404 37.6947 21.62 37.3661 21.62C37.0376 21.62 36.77 21.4404 36.77 21.2214C36.77 21.0023 37.0376 20.8228 37.3661 20.8228C37.6947 20.8228 37.9605 20.9969 37.9605 21.2214Z" fill="#10362D"/>
<path d="M36.9478 21.2212C36.9478 21.3253 37.1273 21.4438 37.3661 21.4438C37.6049 21.4438 37.7845 21.3253 37.7845 21.2212C37.7845 21.117 37.6049 20.9985 37.3661 20.9985C37.1273 20.9985 36.9478 21.1152 36.9478 21.2212Z" fill="#0ABB92"/>
<path d="M15.7708 36.1464V37.5236L48.2258 19.4314V18.0649L15.7708 36.1464Z" fill="#0ABB92"/>
<path d="M10.7251 33.144V34.5213L15.7707 37.5235V36.1462L10.7251 33.144Z" fill="#0ABB92"/>
<path d="M48.2258 11.0872V11.0764L43.1856 8.06885V8.13528C44.0026 8.9828 44.3115 10.1104 44.4066 11.3153L14.6665 28.6803L12.7991 32.5533L15.7708 36.2037L48.2258 18.0684V17.9212C47.1754 16.8115 46.8719 15.3122 46.8863 13.7285C46.9007 12.1735 47.2005 10.992 48.2258 11.0872Z" fill="#10362D"/>
<path d="M44.0314 9.50531C43.8464 8.99749 43.5592 8.53303 43.1875 8.14067V8.06885L44.3331 8.74937C44.3582 8.92893 44.3798 9.10849 44.3941 9.28804L44.0314 9.50531Z" fill="#E5FAF5"/>
<path d="M13.3145 33.1747L12.8081 32.5534L13.081 31.9878L13.3145 33.1747Z" fill="#E5FAF5"/>
<path d="M15.7707 29.2259V29.2151L10.7251 26.2129V26.2793C11.7917 27.3872 11.9964 28.9835 11.982 30.5887C11.9676 32.1563 11.7683 33.2641 10.7251 33.1456L15.7707 36.1981V36.0509C14.7221 34.9412 14.4168 33.4419 14.4312 31.8582C14.4455 30.3122 14.7454 29.1307 15.7707 29.2259Z" fill="#0ABB92"/>
<path d="M15.769 27.9602L48.224 9.88055L42.559 6.62158L10.7234 25.0083L15.769 27.9602Z" fill="#E5FAF5"/>
<path d="M15.7708 27.9604V29.3376L48.2258 11.2453V9.87891L15.7708 27.9604Z" fill="#0ABB92"/>
<path d="M10.7251 25.0063V26.3351L15.7707 29.3373V27.9601L10.7251 25.0063Z" fill="#0ABB92"/>
<path d="M16.647 26.3405C16.647 26.5596 16.3795 26.7391 16.0509 26.7391C15.7223 26.7391 15.4565 26.5596 15.4565 26.3405C15.4565 26.1215 15.7223 25.9419 16.0509 25.9419C16.3795 25.9419 16.647 26.1197 16.647 26.3405Z" fill="#10362D"/>
<path d="M15.6326 26.3403C15.6326 26.4445 15.8121 26.563 16.0509 26.563C16.2897 26.563 16.4711 26.4445 16.4711 26.3403C16.4711 26.2362 16.2915 26.1177 16.0509 26.1177C15.8103 26.1177 15.6326 26.2344 15.6326 26.3403Z" fill="#10362D"/>
<path d="M16.647 26.0659C16.647 26.2868 16.3795 26.4664 16.0509 26.4664C15.7223 26.4664 15.4565 26.2868 15.4565 26.0659C15.4565 25.8451 15.7223 25.6655 16.0509 25.6655C16.3795 25.6655 16.647 25.8451 16.647 26.0659Z" fill="#10362D"/>
<path d="M15.6326 26.0679C15.6326 26.172 15.8121 26.2905 16.0509 26.2905C16.2897 26.2905 16.4711 26.172 16.4711 26.0679C16.4711 25.9637 16.2915 25.8452 16.0509 25.8452C15.8103 25.8452 15.6326 25.9619 15.6326 26.0679Z" fill="#0ABB92"/>
<path d="M19.1392 21.8503C19.1392 22.0693 18.8717 22.2489 18.5431 22.2489C18.2145 22.2489 17.9487 22.0693 17.9487 21.8503C17.9487 21.6312 18.2145 21.4517 18.5431 21.4517C18.8717 21.4517 19.1392 21.6294 19.1392 21.8503Z" fill="#10362D"/>
<path d="M18.1248 21.8501C18.1248 21.9542 18.3043 22.0727 18.5431 22.0727C18.7819 22.0727 18.9633 21.9542 18.9633 21.8501C18.9633 21.7459 18.7837 21.6274 18.5431 21.6274C18.3025 21.6274 18.1248 21.7442 18.1248 21.8501Z" fill="#10362D"/>
<path d="M19.1392 21.5754C19.1392 21.7962 18.8717 21.974 18.5431 21.974C18.2145 21.974 17.9487 21.7944 17.9487 21.5754C17.9487 21.3563 18.2145 21.1768 18.5431 21.1768C18.8717 21.1768 19.1392 21.3563 19.1392 21.5754Z" fill="#10362D"/>
<path d="M18.1248 21.5752C18.1248 21.6811 18.3043 21.7978 18.5431 21.7978C18.7819 21.7978 18.9633 21.6811 18.9633 21.5752C18.9633 21.4693 18.7837 21.3525 18.5431 21.3525C18.3025 21.3525 18.1248 21.471 18.1248 21.5752Z" fill="#0ABB92"/>
<path d="M21.7967 23.3654C21.7967 23.5863 21.5291 23.764 21.2005 23.764C20.8719 23.764 20.6062 23.5845 20.6062 23.3654C20.6062 23.1464 20.8719 22.9668 21.2005 22.9668C21.5291 22.9668 21.7967 23.1517 21.7967 23.3654Z" fill="#10362D"/>
<path d="M21.7967 23.0925C21.7967 23.3133 21.5291 23.4911 21.2005 23.4911C20.8719 23.4911 20.6062 23.3115 20.6062 23.0925C20.6062 22.8734 20.8719 22.6938 21.2005 22.6938C21.5291 22.6938 21.7967 22.8734 21.7967 23.0925Z" fill="#10362D"/>
<path d="M20.7822 23.0923C20.7822 23.1982 20.9618 23.3149 21.2006 23.3149C21.4394 23.3149 21.6208 23.1982 21.6208 23.0923C21.6208 22.9863 21.4412 22.8696 21.2006 22.8696C20.96 22.8696 20.7822 22.9881 20.7822 23.0923Z" fill="#0ABB92"/>
<path d="M13.9895 24.8234C13.9895 25.0443 13.722 25.222 13.3934 25.222C13.0648 25.222 12.7991 25.0425 12.7991 24.8234C12.7991 24.6044 13.0648 24.4248 13.3934 24.4248C13.722 24.4248 13.9895 24.6026 13.9895 24.8234Z" fill="#10362D"/>
<path d="M12.9751 24.8232C12.9751 24.9292 13.1547 25.0459 13.3935 25.0459C13.6323 25.0459 13.8136 24.9292 13.8136 24.8232C13.8136 24.7173 13.6341 24.6006 13.3935 24.6006C13.1529 24.6006 12.9751 24.7173 12.9751 24.8232Z" fill="#10362D"/>
<path d="M13.9895 24.5505C13.9895 24.7695 13.722 24.9491 13.3934 24.9491C13.0648 24.9491 12.7991 24.7695 12.7991 24.5505C12.7991 24.3314 13.0648 24.1519 13.3934 24.1519C13.722 24.1519 13.9895 24.3296 13.9895 24.5505Z" fill="#10362D"/>
<path d="M12.9751 24.5503C12.9751 24.6544 13.1547 24.7729 13.3935 24.7729C13.6323 24.7729 13.8136 24.6544 13.8136 24.5503C13.8136 24.4461 13.6341 24.3276 13.3935 24.3276C13.1529 24.3276 12.9751 24.4443 12.9751 24.5503Z" fill="#0ABB92"/>
<path d="M40.6197 12.6223C40.6197 12.8431 40.3521 13.0209 40.0235 13.0209C39.6949 13.0209 39.4292 12.8413 39.4292 12.6223C39.4292 12.4032 39.6949 12.2236 40.0235 12.2236C40.3521 12.2236 40.6197 12.4032 40.6197 12.6223Z" fill="#10362D"/>
<path d="M39.6052 12.6221C39.6052 12.728 39.7848 12.8447 40.0236 12.8447C40.2624 12.8447 40.4438 12.728 40.4438 12.6221C40.4438 12.5161 40.2642 12.3994 40.0236 12.3994C39.783 12.3994 39.6052 12.5179 39.6052 12.6221Z" fill="#10362D"/>
<path d="M40.6197 12.3493C40.6197 12.5702 40.3521 12.7479 40.0235 12.7479C39.6949 12.7479 39.4292 12.5684 39.4292 12.3493C39.4292 12.1302 39.6949 11.9507 40.0235 11.9507C40.3521 11.9507 40.6197 12.1284 40.6197 12.3493Z" fill="#10362D"/>
<path d="M39.6052 12.3491C39.6052 12.4551 39.7848 12.5718 40.0236 12.5718C40.2624 12.5718 40.4438 12.4551 40.4438 12.3491C40.4438 12.2432 40.2642 12.1265 40.0236 12.1265C39.783 12.1265 39.6052 12.2432 39.6052 12.3491Z" fill="#0ABB92"/>
<path d="M43.1101 8.13153C43.1101 8.35238 42.8444 8.53015 42.5158 8.53015C42.1872 8.53015 41.9197 8.35059 41.9197 8.13153C41.9197 7.91247 42.1872 7.73291 42.5158 7.73291C42.8444 7.73291 43.1101 7.91247 43.1101 8.13153Z" fill="#10362D"/>
<path d="M42.0957 8.13134C42.0957 8.23728 42.2753 8.35399 42.5159 8.35399C42.7565 8.35399 42.9342 8.23728 42.9342 8.13134C42.9342 8.0254 42.7547 7.90869 42.5159 7.90869C42.2771 7.90869 42.0957 8.0272 42.0957 8.13134Z" fill="#10362D"/>
<path d="M43.1101 7.85858C43.1101 8.07764 42.8444 8.2572 42.5158 8.2572C42.1872 8.2572 41.9197 8.07764 41.9197 7.85858C41.9197 7.63952 42.1872 7.45996 42.5158 7.45996C42.8444 7.45996 43.1101 7.63772 43.1101 7.85858Z" fill="#10362D"/>
<path d="M42.0957 7.85839C42.0957 7.96254 42.2753 8.08105 42.5159 8.08105C42.7565 8.08105 42.9342 7.96254 42.9342 7.85839C42.9342 7.75425 42.7547 7.63574 42.5159 7.63574C42.2771 7.63574 42.0957 7.75246 42.0957 7.85839Z" fill="#0ABB92"/>
<path d="M45.7676 9.64862C45.7676 9.86947 45.5019 10.0472 45.1733 10.0472C44.8447 10.0472 44.5771 9.86768 44.5771 9.64862C44.5771 9.42956 44.8447 9.25 45.1733 9.25C45.5019 9.25 45.7676 9.42776 45.7676 9.64862Z" fill="#10362D"/>
<path d="M45.7676 9.37567C45.7676 9.59473 45.5019 9.77429 45.1733 9.77429C44.8447 9.77429 44.5771 9.59473 44.5771 9.37567C44.5771 9.15661 44.8447 8.97705 45.1733 8.97705C45.5019 8.97705 45.7676 9.15481 45.7676 9.37567Z" fill="#10362D"/>
<path d="M44.7532 9.37548C44.7532 9.47963 44.9327 9.59814 45.1733 9.59814C45.4139 9.59814 45.5917 9.47963 45.5917 9.37548C45.5917 9.27134 45.4122 9.15283 45.1733 9.15283C44.9345 9.15283 44.7532 9.26954 44.7532 9.37548Z" fill="#0ABB92"/>
<path d="M37.9605 11.1052C37.9605 11.326 37.6947 11.5038 37.3661 11.5038C37.0376 11.5038 36.77 11.3242 36.77 11.1052C36.77 10.8861 37.0376 10.7065 37.3661 10.7065C37.6947 10.7065 37.9605 10.8861 37.9605 11.1052Z" fill="#10362D"/>
<path d="M36.9478 11.1068C36.9478 11.2109 37.1273 11.3294 37.3661 11.3294C37.6049 11.3294 37.7845 11.2109 37.7845 11.1068C37.7845 11.0026 37.6049 10.8823 37.3661 10.8823C37.1273 10.8823 36.9478 11.0008 36.9478 11.1068Z" fill="#10362D"/>
<path d="M37.9605 10.8322C37.9605 11.0531 37.6947 11.2308 37.3661 11.2308C37.0376 11.2308 36.77 11.0513 36.77 10.8322C36.77 10.6132 37.0376 10.4336 37.3661 10.4336C37.6947 10.4336 37.9605 10.6132 37.9605 10.8322Z" fill="#10362D"/>
<path d="M36.9478 10.832C36.9478 10.938 37.1273 11.0547 37.3661 11.0547C37.6049 11.0547 37.7845 10.938 37.7845 10.832C37.7845 10.7261 37.6049 10.6094 37.3661 10.6094C37.1273 10.6094 36.9478 10.7279 36.9478 10.832Z" fill="#0ABB92"/>
</g>
<defs>
<clipPath id="clip0_722_30693">
<rect width="45.6202" height="46.1284" fill="white" transform="translate(2.60547 1.78418)"/>
</clipPath>
</defs>
</svg>
