<svg width="49" height="48" viewBox="0 0 49 48" fill="none" xmlns="http://www.w3.org/2000/svg">
<path d="M5.04321 40.393V41.7702L37.4983 23.678V22.3115L5.04321 40.393Z" fill="#66E3C4"/>
<path d="M0 37.3906V38.7678L5.04557 41.77V40.3928L0 37.3906Z" fill="#66E3C4"/>
<path d="M37.4961 15.3333V15.3225L32.4487 12.3203V12.3885C33.2657 13.2289 33.571 14.3673 33.6715 15.5631L3.94394 32.9282L2.07654 36.7994L5.04104 40.4498L37.4961 22.3145V22.1673C36.4475 21.0576 36.1422 19.5601 36.1566 17.9764C36.171 16.4196 36.4708 15.2381 37.4961 15.3333Z" fill="#0ABB92"/>
<path d="M33.2968 13.7514C33.1123 13.2439 32.825 12.7799 32.4529 12.3885V12.3203L33.5985 13.0008C33.6236 13.1804 33.6451 13.36 33.6595 13.5395L33.2968 13.7514Z" fill="white"/>
<path d="M2.58191 37.4226L2.07556 36.7995L2.34849 36.2339L2.58191 37.4226Z" fill="white"/>
<path d="M5.04737 33.4726V33.4618L0 30.4668V30.5332C1.06657 31.6411 1.27127 33.2374 1.2569 34.8426C1.24254 36.412 1.04323 37.5198 0 37.4013L5.04557 40.4538V40.3066C3.99696 39.1969 3.69171 37.6976 3.70787 36.1139C3.72403 34.5589 4.02209 33.3774 5.04737 33.4726Z" fill="#66E3C4"/>
<path d="M5.04737 32.2088L37.5006 14.1273L31.8374 10.8701L0 29.255L5.04737 32.2088Z" fill="white"/>
<path d="M5.04321 32.2065V33.5837L37.4983 15.4932V14.125L5.04321 32.2065Z" fill="#66E3C4"/>
<path d="M0 29.2534V30.5821L5.04557 33.5843V32.2071L0 29.2534Z" fill="#66E3C4"/>
<path d="M5.92057 30.5871C5.92057 30.808 5.65482 30.9857 5.32623 30.9857C4.99764 30.9857 4.7301 30.8062 4.7301 30.5871C4.7301 30.368 4.99585 30.1885 5.32623 30.1885C5.65662 30.1885 5.92057 30.3662 5.92057 30.5871Z" fill="#0ABB92"/>
<path d="M4.90247 30.5879C4.90247 30.6938 5.08202 30.8105 5.32263 30.8105C5.56324 30.8105 5.741 30.6938 5.741 30.5879C5.741 30.4819 5.56144 30.3652 5.32263 30.3652C5.08382 30.3652 4.90247 30.4819 4.90247 30.5879Z" fill="#0ABB92"/>
<path d="M5.92045 30.3141C5.92045 30.5332 5.6547 30.7128 5.32611 30.7128C4.99752 30.7128 4.72998 30.5332 4.72998 30.3141C4.72998 30.0951 4.99573 29.9155 5.32611 29.9155C5.6565 29.9155 5.92045 30.0933 5.92045 30.3141Z" fill="#0ABB92"/>
<path d="M4.90234 30.3144C4.90234 30.4186 5.0819 30.5371 5.32251 30.5371C5.56312 30.5371 5.74088 30.4186 5.74088 30.3144C5.74088 30.2103 5.56132 30.0918 5.32251 30.0918C5.0837 30.0918 4.90234 30.2085 4.90234 30.3144Z" fill="#66E3C4"/>
<path d="M8.40385 26.0978C8.40385 26.3169 8.13631 26.4965 7.80771 26.4965C7.47912 26.4965 7.21338 26.3169 7.21338 26.0978C7.21338 25.8788 7.47912 25.6992 7.80771 25.6992C8.13631 25.6992 8.40385 25.877 8.40385 26.0978Z" fill="#0ABB92"/>
<path d="M7.39099 26.0977C7.39099 26.2018 7.57055 26.3203 7.80936 26.3203C8.04817 26.3203 8.22953 26.2018 8.22953 26.0977C8.22953 25.9935 8.04997 25.875 7.80936 25.875C7.56875 25.875 7.39099 25.9917 7.39099 26.0977Z" fill="#0ABB92"/>
<path d="M8.40385 25.8244C8.40385 26.0435 8.13631 26.2212 7.80771 26.2212C7.47912 26.2212 7.21338 26.0417 7.21338 25.8244C7.21338 25.6071 7.47912 25.4258 7.80771 25.4258C8.13631 25.4258 8.40385 25.6035 8.40385 25.8244Z" fill="#0ABB92"/>
<path d="M7.39099 25.8223C7.39099 25.9282 7.57055 26.0449 7.80936 26.0449C8.04817 26.0449 8.22953 25.9282 8.22953 25.8223C8.22953 25.7163 8.04997 25.5996 7.80936 25.5996C7.56875 25.5996 7.39099 25.7181 7.39099 25.8223Z" fill="#66E3C4"/>
<path d="M11.06 27.614C11.06 27.833 10.7924 28.0126 10.4638 28.0126C10.1353 28.0126 9.86951 27.833 9.86951 27.614C9.86951 27.3949 10.1353 27.2153 10.4638 27.2153C10.7924 27.2153 11.06 27.3931 11.06 27.614Z" fill="#0ABB92"/>
<path d="M11.0595 27.3395C11.0595 27.5604 10.7919 27.7382 10.4634 27.7382C10.1348 27.7382 9.86902 27.5586 9.86902 27.3395C9.86902 27.1205 10.1348 26.9409 10.4634 26.9409C10.7919 26.9409 11.0595 27.1205 11.0595 27.3395Z" fill="#0ABB92"/>
<path d="M10.0413 27.3389C10.0413 27.4448 10.2208 27.5615 10.4596 27.5615C10.6984 27.5615 10.8798 27.4448 10.8798 27.3389C10.8798 27.2329 10.7002 27.1162 10.4596 27.1162C10.219 27.1162 10.0413 27.2347 10.0413 27.3389Z" fill="#66E3C4"/>
<path d="M3.26505 29.0705C3.26505 29.2913 2.99931 29.4691 2.66892 29.4691C2.33853 29.4691 2.07458 29.2896 2.07458 29.0705C2.07458 28.8514 2.33315 28.6719 2.66892 28.6719C3.00469 28.6719 3.26505 28.8514 3.26505 29.0705Z" fill="#0ABB92"/>
<path d="M2.2522 29.0703C2.2522 29.1762 2.43175 29.293 2.67057 29.293C2.90938 29.293 3.09073 29.1762 3.09073 29.0703C3.09073 28.9644 2.91117 28.8477 2.67057 28.8477C2.42996 28.8477 2.2522 28.9662 2.2522 29.0703Z" fill="#0ABB92"/>
<path d="M3.26505 28.7971C3.26505 29.0161 2.99931 29.1957 2.66892 29.1957C2.33853 29.1957 2.07458 29.0161 2.07458 28.7971C2.07458 28.578 2.34033 28.3984 2.66892 28.3984C2.99751 28.3984 3.26505 28.5762 3.26505 28.7971Z" fill="#0ABB92"/>
<path d="M2.2522 28.7969C2.2522 28.901 2.43175 29.0195 2.67057 29.0195C2.90938 29.0195 3.09073 28.901 3.09073 28.7969C3.09073 28.6927 2.91117 28.5742 2.67057 28.5742C2.42996 28.5742 2.2522 28.6909 2.2522 28.7969Z" fill="#66E3C4"/>
<path d="M29.885 16.8703C29.885 17.0894 29.6175 17.2689 29.2889 17.2689C28.9603 17.2689 28.6946 17.0894 28.6946 16.8703C28.6946 16.6512 28.9603 16.4717 29.2889 16.4717C29.6175 16.4717 29.885 16.6494 29.885 16.8703Z" fill="#0ABB92"/>
<path d="M28.8722 16.87C28.8722 16.9741 29.0517 17.0926 29.2906 17.0926C29.5294 17.0926 29.7107 16.9741 29.7107 16.87C29.7107 16.7658 29.5312 16.6455 29.2906 16.6455C29.05 16.6455 28.8722 16.764 28.8722 16.87Z" fill="#0ABB92"/>
<path d="M29.885 16.5954C29.885 16.8198 29.6157 16.9994 29.2889 16.9994C28.9621 16.9994 28.6946 16.8198 28.6946 16.6008C28.6946 16.3817 28.9603 16.2021 29.2889 16.2021C29.6175 16.2021 29.885 16.3763 29.885 16.5954Z" fill="#0ABB92"/>
<path d="M28.8722 16.5957C28.8722 16.7016 29.0517 16.8183 29.2906 16.8183C29.5294 16.8183 29.7107 16.7016 29.7107 16.5957C29.7107 16.4898 29.5312 16.373 29.2906 16.373C29.05 16.373 28.8722 16.4916 28.8722 16.5957Z" fill="#66E3C4"/>
<path d="M32.3938 12.3785C32.3938 12.5993 32.1281 12.7771 31.7995 12.7771C31.4709 12.7771 31.2034 12.5975 31.2034 12.3785C31.2034 12.1594 31.4709 11.9727 31.7995 11.9727C32.1281 11.9727 32.3938 12.1522 32.3938 12.3785Z" fill="#0ABB92"/>
<path d="M31.381 12.3779C31.381 12.4839 31.5605 12.6006 31.8011 12.6006C32.0418 12.6006 32.2195 12.4839 32.2195 12.3779C32.2195 12.272 32.04 12.1553 31.8011 12.1553C31.5623 12.1553 31.381 12.2738 31.381 12.3779Z" fill="#0ABB92"/>
<path d="M32.3938 12.1047C32.3938 12.3255 32.1281 12.5033 31.7995 12.5033C31.4709 12.5033 31.2034 12.3237 31.2034 12.1047C31.2034 11.8856 31.4709 11.7061 31.7995 11.7061C32.1281 11.7061 32.3938 11.8838 32.3938 12.1047Z" fill="#0ABB92"/>
<path d="M31.381 12.1045C31.381 12.2104 31.5605 12.3271 31.8011 12.3271C32.0418 12.3271 32.2195 12.2104 32.2195 12.1045C32.2195 11.9985 32.04 11.8818 31.8011 11.8818C31.5623 11.8818 31.381 11.9985 31.381 12.1045Z" fill="#66E3C4"/>
<path d="M35.0332 13.8957C35.0332 14.1165 34.7675 14.2943 34.4389 14.2943C34.1103 14.2943 33.8428 14.1147 33.8428 13.8957C33.8428 13.6766 34.1103 13.4971 34.4389 13.4971C34.7675 13.4971 35.0332 13.6766 35.0332 13.8957Z" fill="#0ABB92"/>
<path d="M35.0323 13.6232C35.0323 13.8423 34.7665 14.0218 34.4379 14.0218C34.1093 14.0218 33.8418 13.8423 33.8418 13.6232C33.8418 13.4042 34.104 13.23 34.4379 13.23C34.7719 13.23 35.0323 13.4095 35.0323 13.6232Z" fill="#0ABB92"/>
<path d="M34.0194 13.623C34.0194 13.7272 34.199 13.8457 34.4378 13.8457C34.6766 13.8457 34.8561 13.7272 34.8561 13.623C34.8561 13.5189 34.6766 13.4004 34.4378 13.4004C34.199 13.4004 34.0194 13.5171 34.0194 13.623Z" fill="#66E3C4"/>
<path d="M27.2289 15.3537C27.2289 15.5728 26.9614 15.7523 26.6328 15.7523C26.3042 15.7523 26.0385 15.5728 26.0385 15.3537C26.0385 15.1346 26.3042 14.9551 26.6328 14.9551C26.9614 14.9551 27.2289 15.1328 27.2289 15.3537Z" fill="#0ABB92"/>
<path d="M26.2161 15.3535C26.2161 15.4577 26.3956 15.5762 26.6344 15.5762C26.8732 15.5762 27.0546 15.4577 27.0546 15.3535C27.0546 15.2494 26.875 15.1309 26.6344 15.1309C26.3938 15.1309 26.2161 15.2476 26.2161 15.3535Z" fill="#0ABB92"/>
<path d="M27.2289 15.0783C27.2289 15.2992 26.9614 15.4769 26.6328 15.4769C26.3042 15.4769 26.0385 15.2974 26.0385 15.0783C26.0385 14.8592 26.3042 14.6797 26.6328 14.6797C26.9614 14.6797 27.2289 14.8592 27.2289 15.0783Z" fill="#0ABB92"/>
<path d="M26.2161 15.0781C26.2161 15.1841 26.3956 15.3008 26.6344 15.3008C26.8732 15.3008 27.0546 15.1841 27.0546 15.0781C27.0546 14.9722 26.875 14.8555 26.6344 14.8555C26.3938 14.8555 26.2161 14.974 26.2161 15.0781Z" fill="#66E3C4"/>
<path d="M5.04321 30.0035V31.3825L37.4983 13.2903V11.9238L5.04321 30.0035Z" fill="#66E3C4"/>
<path d="M0 27.001V28.38L5.04557 31.3822V30.0032L0 27.001Z" fill="#66E3C4"/>
<path d="M37.4961 4.94544V4.93287L32.4487 1.93066V1.9989C33.2657 2.84461 33.5764 3.97403 33.6715 5.17886L3.94394 22.5385L2.07654 26.4116L5.04822 30.062L37.5033 11.9266V11.7794C36.4547 10.6679 36.1494 9.17043 36.1638 7.58673C36.171 6.03176 36.4708 4.85027 37.4961 4.94544Z" fill="#0ABB92"/>
<path d="M33.2968 3.36174C33.1116 2.85456 32.8244 2.39073 32.4529 1.9989V1.93066L33.5985 2.61298C33.6236 2.79254 33.6451 2.9721 33.6595 3.15166L33.2968 3.36174Z" fill="white"/>
<path d="M2.58191 27.0329L2.07556 26.4116L2.34849 25.8442L2.58191 27.0329Z" fill="white"/>
<path d="M5.04737 23.0851V23.0725L0 20.0703V20.1385C1.06657 21.2446 1.27127 22.8427 1.2569 24.4479C1.24254 26.0173 1.04323 27.1251 0 27.0066L5.04557 30.0591V29.9101C3.99696 28.8004 3.69171 27.3029 3.70787 25.7192C3.72403 24.1714 4.02209 22.9899 5.04737 23.0851Z" fill="#66E3C4"/>
<path d="M5.04737 21.8191L37.5006 3.73944L31.8374 0.480469L0 18.8654L5.04737 21.8191Z" fill="white"/>
<path d="M5.04321 21.8175V23.1965L37.4983 5.10423V3.73779L5.04321 21.8175Z" fill="#66E3C4"/>
<path d="M0 18.8652V20.194L5.04557 23.1962V21.8172L0 18.8652Z" fill="#66E3C4"/>
<path d="M5.92237 20.1999C5.92237 20.4136 5.65482 20.5931 5.32623 20.5931C4.99764 20.5931 4.7301 20.4136 4.7301 20.1945C4.7301 19.9755 4.99585 19.7959 5.32623 19.7959C5.65662 19.7959 5.92237 19.9808 5.92237 20.1999Z" fill="#0ABB92"/>
<path d="M4.90784 20.2002C4.90784 20.3061 5.08739 20.4228 5.328 20.4228C5.56861 20.4228 5.74458 20.3061 5.74458 20.2002C5.74458 20.0943 5.56502 19.9775 5.32621 19.9775C5.08739 19.9775 4.90784 20.096 4.90784 20.2002Z" fill="#0ABB92"/>
<path d="M5.92045 19.926C5.92045 20.1468 5.6547 20.3246 5.32611 20.3246C4.99752 20.3246 4.72998 20.145 4.72998 19.926C4.72998 19.7069 4.99573 19.5273 5.32611 19.5273C5.6565 19.5273 5.92045 19.7069 5.92045 19.926Z" fill="#0ABB92"/>
<path d="M4.90234 19.9268C4.90234 20.0327 5.0819 20.1494 5.32251 20.1494C5.56312 20.1494 5.74088 20.0327 5.74088 19.9268C5.74088 19.8208 5.56132 19.7041 5.32251 19.7041C5.0837 19.7041 4.90234 19.8226 4.90234 19.9268Z" fill="#66E3C4"/>
<path d="M8.40385 15.7089C8.40385 15.9243 8.13631 16.1039 7.80771 16.1039C7.47912 16.1039 7.21338 15.9243 7.21338 15.7053C7.21338 15.4862 7.47912 15.3066 7.80771 15.3066C8.13631 15.3066 8.40385 15.4898 8.40385 15.7089Z" fill="#0ABB92"/>
<path d="M7.39099 15.709C7.39099 15.8149 7.57055 15.9316 7.80936 15.9316C8.04817 15.9316 8.22953 15.8149 8.22953 15.709C8.22953 15.603 8.04997 15.4863 7.80936 15.4863C7.56875 15.4863 7.39099 15.6048 7.39099 15.709Z" fill="#0ABB92"/>
<path d="M8.40385 15.4367C8.40385 15.6576 8.13631 15.8353 7.80771 15.8353C7.47912 15.8353 7.21338 15.6558 7.21338 15.4367C7.21338 15.2176 7.47912 15.0381 7.80771 15.0381C8.13631 15.0381 8.40385 15.2158 8.40385 15.4367Z" fill="#0ABB92"/>
<path d="M7.39099 15.4369C7.39099 15.541 7.57055 15.6595 7.80936 15.6595C8.04817 15.6595 8.22953 15.541 8.22953 15.4369C8.22953 15.3327 8.04997 15.207 7.80936 15.207C7.56875 15.207 7.39099 15.3309 7.39099 15.4369Z" fill="#66E3C4"/>
<path d="M11.0642 17.2253C11.0642 17.4461 10.7967 17.6239 10.4681 17.6239C10.1395 17.6239 9.86658 17.4461 9.86658 17.2253C9.86658 17.0044 10.1395 16.8213 10.4681 16.8213C10.7967 16.8213 11.0642 17.0008 11.0642 17.2253Z" fill="#0ABB92"/>
<path d="M11.0662 16.9528C11.0662 17.1809 10.7986 17.3604 10.47 17.3604C10.1415 17.3604 9.86853 17.1809 9.86853 16.9528C9.86853 16.7248 10.1343 16.5542 10.4629 16.5542C10.7915 16.5542 11.0662 16.732 11.0662 16.9528Z" fill="#0ABB92"/>
<path d="M10.0461 16.9526C10.0461 17.0568 10.2257 17.1753 10.4645 17.1753C10.7033 17.1753 10.8847 17.0568 10.8847 16.9526C10.8847 16.8485 10.7051 16.73 10.4645 16.73C10.2239 16.73 10.0461 16.8467 10.0461 16.9526Z" fill="#66E3C4"/>
<path d="M3.26505 18.6838C3.26505 18.9028 2.99931 19.0824 2.66892 19.0824C2.33853 19.0824 2.07458 18.9028 2.07458 18.6838C2.07458 18.4647 2.34033 18.2852 2.66892 18.2852C2.99751 18.2852 3.26505 18.4629 3.26505 18.6838Z" fill="#0ABB92"/>
<path d="M2.2522 18.6836C2.2522 18.7877 2.43175 18.9062 2.67057 18.9062C2.90938 18.9062 3.09073 18.7877 3.09073 18.6836C3.09073 18.5794 2.91117 18.4609 2.67057 18.4609C2.42996 18.4609 2.2522 18.5777 2.2522 18.6836Z" fill="#0ABB92"/>
<path d="M3.26505 18.4089C3.26505 18.6297 2.99931 18.8075 2.66892 18.8075C2.33853 18.8075 2.07458 18.6279 2.07458 18.4089C2.07458 18.1898 2.34033 18.0103 2.66892 18.0103C2.99751 18.0103 3.26505 18.1898 3.26505 18.4089Z" fill="#0ABB92"/>
<path d="M2.2522 18.4087C2.2522 18.5146 2.43175 18.6313 2.67057 18.6313C2.90938 18.6313 3.09073 18.5146 3.09073 18.4087C3.09073 18.3027 2.91117 18.186 2.67057 18.186C2.42996 18.186 2.2522 18.3045 2.2522 18.4087Z" fill="#66E3C4"/>
<path d="M29.885 6.48065C29.885 6.7015 29.6175 6.87927 29.2889 6.87927C28.9603 6.87927 28.6946 6.69971 28.6946 6.48065C28.6946 6.26159 28.9603 6.08203 29.2889 6.08203C29.6175 6.08203 29.885 6.25979 29.885 6.48065Z" fill="#0ABB92"/>
<path d="M28.8722 6.48046C28.8722 6.5864 29.0517 6.70312 29.2906 6.70312C29.5294 6.70312 29.7107 6.5864 29.7107 6.48046C29.7107 6.37452 29.5312 6.25781 29.2906 6.25781C29.05 6.25781 28.8722 6.37452 28.8722 6.48046Z" fill="#0ABB92"/>
<path d="M29.885 6.20819C29.885 6.42725 29.6175 6.60681 29.2889 6.60681C28.9603 6.60681 28.6946 6.42725 28.6946 6.20819C28.6946 5.98913 28.9603 5.80957 29.2889 5.80957C29.6175 5.80957 29.885 5.98733 29.885 6.20819Z" fill="#0ABB92"/>
<path d="M28.8722 6.208C28.8722 6.31215 29.0517 6.43065 29.2906 6.43065C29.5294 6.43065 29.7107 6.31215 29.7107 6.208C29.7107 6.10386 29.5312 5.98535 29.2906 5.98535C29.05 5.98535 28.8722 6.10206 28.8722 6.208Z" fill="#66E3C4"/>
<path d="M32.3938 1.98944C32.3938 2.2085 32.1281 2.38806 31.7995 2.38806C31.4709 2.38806 31.2034 2.2085 31.2034 1.98944C31.2034 1.77038 31.4709 1.59082 31.7995 1.59082C32.1281 1.59082 32.3938 1.76858 32.3938 1.98944Z" fill="#0ABB92"/>
<path d="M31.381 1.98925C31.381 2.0934 31.5605 2.2119 31.8011 2.2119C32.0418 2.2119 32.2195 2.0934 32.2195 1.98925C32.2195 1.88511 32.04 1.7666 31.8011 1.7666C31.5623 1.7666 31.381 1.88331 31.381 1.98925Z" fill="#0ABB92"/>
<path d="M32.3938 1.71551C32.3938 1.93637 32.1281 2.11413 31.7995 2.11413C31.4709 2.11413 31.2034 1.93457 31.2034 1.71551C31.2034 1.49645 31.4709 1.31689 31.7995 1.31689C32.1281 1.31689 32.3938 1.49645 32.3938 1.71551Z" fill="#0ABB92"/>
<path d="M31.381 1.71533C31.381 1.82127 31.5605 1.93798 31.8011 1.93798C32.0418 1.93798 32.2195 1.82127 32.2195 1.71533C32.2195 1.60939 32.04 1.49268 31.8011 1.49268C31.5623 1.49268 31.381 1.61118 31.381 1.71533Z" fill="#66E3C4"/>
<path d="M35.0332 3.5075C35.0332 3.72657 34.7675 3.90612 34.4389 3.90612C34.1103 3.90612 33.8428 3.72657 33.8428 3.5075C33.8428 3.28844 34.1103 3.10889 34.4389 3.10889C34.7675 3.10889 35.0332 3.28665 35.0332 3.5075Z" fill="#0ABB92"/>
<path d="M35.0323 3.23309C35.0323 3.45395 34.7665 3.63171 34.4379 3.63171C34.1093 3.63171 33.8418 3.45215 33.8418 3.23309C33.8418 3.01403 34.1093 2.83447 34.4379 2.83447C34.7665 2.83447 35.0323 3.01403 35.0323 3.23309Z" fill="#0ABB92"/>
<path d="M34.0194 3.23339C34.0194 3.33933 34.199 3.45605 34.4378 3.45605C34.6766 3.45605 34.8561 3.33933 34.8561 3.23339C34.8561 3.12745 34.6766 3.01074 34.4378 3.01074C34.199 3.01074 34.0194 3.12925 34.0194 3.23339Z" fill="#66E3C4"/>
<path d="M27.2289 4.96942C27.2289 5.19027 26.9614 5.36804 26.6328 5.36804C26.3042 5.36804 26.0385 5.18848 26.0385 4.96942C26.0385 4.75036 26.3042 4.5708 26.6328 4.5708C26.9614 4.5708 27.2289 4.74497 27.2289 4.96942Z" fill="#0ABB92"/>
<path d="M26.2161 4.96972C26.2161 5.07566 26.3956 5.19237 26.6344 5.19237C26.8732 5.19237 27.0546 5.07566 27.0546 4.96972C27.0546 4.86378 26.875 4.74707 26.6344 4.74707C26.3938 4.74707 26.2161 4.86019 26.2161 4.96972Z" fill="#0ABB92"/>
<path d="M27.2289 4.69159C27.2289 4.91065 26.9614 5.09021 26.6328 5.09021C26.3042 5.09021 26.0385 4.91065 26.0385 4.69159C26.0385 4.47253 26.3042 4.29297 26.6328 4.29297C26.9614 4.29297 27.2289 4.47073 27.2289 4.69159Z" fill="#0ABB92"/>
<path d="M26.2161 4.6914C26.2161 4.79555 26.3956 4.91405 26.6344 4.91405C26.8732 4.91405 27.0546 4.79555 27.0546 4.6914C27.0546 4.58726 26.875 4.46875 26.6344 4.46875C26.3938 4.46875 26.2161 4.58546 26.2161 4.6914Z" fill="#66E3C4"/>
<g clip-path="url(#clip0_722_29644)">
<path d="M15.7705 46.5338V47.9128L48.2256 29.8205V28.4541L15.7705 46.5338Z" fill="#66E3C4"/>
<path d="M10.725 43.5312V44.9103L15.7705 47.9125V46.5335L10.725 43.5312Z" fill="#66E3C4"/>
<path d="M48.2256 21.4762V21.4636L43.1854 18.4614V18.5297C44.0024 19.3754 44.3112 20.5048 44.4064 21.7096L14.6662 39.0693L12.7988 42.9423L15.7705 46.5927L48.2256 28.4574V28.3102C47.1752 27.1987 46.8717 25.7012 46.8861 24.1175C46.9004 22.5625 47.2003 21.381 48.2256 21.4762Z" fill="#0ABB92"/>
<path d="M44.0311 19.8925C43.8458 19.3853 43.5586 18.9215 43.1871 18.5297V18.4614L44.3327 19.1437C44.3579 19.3233 44.3794 19.5029 44.3938 19.6824L44.0311 19.8925Z" fill="white"/>
<path d="M13.3141 43.5637L12.8077 42.9424L13.0807 42.375L13.3141 43.5637Z" fill="white"/>
<path d="M15.7705 39.6154V39.6028L10.725 36.6006V36.6688C11.7915 37.7749 11.9962 39.373 11.9819 40.9782C11.9675 42.5475 11.7682 43.6554 10.725 43.5369L15.7705 46.5894V46.4404C14.7219 45.3307 14.4167 43.8332 14.431 42.2495C14.4454 40.6999 14.7453 39.5202 15.7705 39.6154Z" fill="#66E3C4"/>
<path d="M15.7687 38.3494L48.2238 20.2697L42.5587 17.0107L10.7231 35.3957L15.7687 38.3494Z" fill="white"/>
<path d="M15.7705 38.3477V39.7267L48.2256 21.6345V20.2681L15.7705 38.3477Z" fill="#66E3C4"/>
<path d="M10.725 35.3955V36.7242L15.7705 39.7264V38.3474L10.725 35.3955Z" fill="#66E3C4"/>
<path d="M16.6468 36.7282C16.6468 36.9491 16.3792 37.1268 16.0506 37.1268C15.722 37.1268 15.4563 36.9473 15.4563 36.7282C15.4563 36.5091 15.722 36.3296 16.0506 36.3296C16.3792 36.3296 16.6468 36.5091 16.6468 36.7282Z" fill="#0ABB92"/>
<path d="M15.6323 36.728C15.6323 36.834 15.8119 36.9507 16.0507 36.9507C16.2895 36.9507 16.4709 36.834 16.4709 36.728C16.4709 36.6221 16.2913 36.5054 16.0507 36.5054C15.8101 36.5054 15.6323 36.6185 15.6323 36.728Z" fill="#0ABB92"/>
<path d="M16.6468 36.4553C16.6468 36.6761 16.3792 36.8539 16.0506 36.8539C15.722 36.8539 15.4563 36.6743 15.4563 36.4553C15.4563 36.2362 15.722 36.0566 16.0506 36.0566C16.3792 36.0566 16.6468 36.2344 16.6468 36.4553Z" fill="#0ABB92"/>
<path d="M15.6323 36.4551C15.6323 36.561 15.8119 36.6777 16.0507 36.6777C16.2895 36.6777 16.4709 36.561 16.4709 36.4551C16.4709 36.3491 16.2913 36.2324 16.0507 36.2324C15.8101 36.2324 15.6323 36.3509 15.6323 36.4551Z" fill="#66E3C4"/>
<path d="M19.139 32.2375C19.139 32.4583 18.8714 32.6361 18.5428 32.6361C18.2142 32.6361 17.9485 32.4565 17.9485 32.2375C17.9485 32.0184 18.2142 31.8389 18.5428 31.8389C18.8714 31.8389 19.139 32.0184 19.139 32.2375Z" fill="#0ABB92"/>
<path d="M18.1245 32.2373C18.1245 32.3432 18.3041 32.46 18.5429 32.46C18.7817 32.46 18.963 32.3432 18.963 32.2373C18.963 32.1314 18.7835 32.0146 18.5429 32.0146C18.3023 32.0146 18.1245 32.1296 18.1245 32.2373Z" fill="#0ABB92"/>
<path d="M19.139 31.9645C19.139 32.1836 18.8714 32.3632 18.5428 32.3632C18.2142 32.3632 17.9485 32.1836 17.9485 31.9645C17.9485 31.7455 18.2142 31.5659 18.5428 31.5659C18.8714 31.5659 19.139 31.7437 19.139 31.9645Z" fill="#0ABB92"/>
<path d="M18.1245 31.9644C18.1245 32.0685 18.3041 32.187 18.5429 32.187C18.7817 32.187 18.963 32.0685 18.963 31.9644C18.963 31.8602 18.7835 31.7417 18.5429 31.7417C18.3023 31.7417 18.1245 31.8584 18.1245 31.9644Z" fill="#66E3C4"/>
<path d="M21.7964 33.7546C21.7964 33.9754 21.5289 34.1532 21.2003 34.1532C20.8717 34.1532 20.606 33.9736 20.606 33.7546C20.606 33.5355 20.8717 33.356 21.2003 33.356C21.5289 33.356 21.7964 33.5337 21.7964 33.7546Z" fill="#0ABB92"/>
<path d="M21.7964 33.4816C21.7964 33.7007 21.5289 33.8802 21.2003 33.8802C20.8717 33.8802 20.606 33.7007 20.606 33.4816C20.606 33.2626 20.8717 33.083 21.2003 33.083C21.5289 33.083 21.7964 33.2608 21.7964 33.4816Z" fill="#0ABB92"/>
<path d="M20.782 33.4814C20.782 33.5856 20.9615 33.7041 21.2004 33.7041C21.4392 33.7041 21.6205 33.5856 21.6205 33.4814C21.6205 33.3773 21.441 33.2588 21.2004 33.2588C20.9597 33.2588 20.782 33.3755 20.782 33.4814Z" fill="#66E3C4"/>
<path d="M13.9893 35.2129C13.9893 35.4319 13.7218 35.6115 13.3932 35.6115C13.0646 35.6115 12.7988 35.4319 12.7988 35.2129C12.7988 34.9938 13.0646 34.8232 13.3932 34.8232C13.7218 34.8232 13.9893 34.992 13.9893 35.2129Z" fill="#0ABB92"/>
<path d="M12.9749 35.2127C12.9749 35.3169 13.1544 35.4354 13.3932 35.4354C13.632 35.4354 13.8134 35.3169 13.8134 35.2127C13.8134 35.1086 13.6338 34.9883 13.3932 34.9883C13.1526 34.9883 12.9749 35.1068 12.9749 35.2127Z" fill="#0ABB92"/>
<path d="M13.9893 34.9382C13.9893 35.159 13.7218 35.3368 13.3932 35.3368C13.0646 35.3368 12.7988 35.1572 12.7988 34.9382C12.7988 34.7191 13.0646 34.5396 13.3932 34.5396C13.7218 34.5396 13.9893 34.7191 13.9893 34.9382Z" fill="#0ABB92"/>
<path d="M12.9749 34.938C12.9749 35.0439 13.1544 35.1606 13.3932 35.1606C13.632 35.1606 13.8134 35.0439 13.8134 34.938C13.8134 34.832 13.6338 34.7153 13.3932 34.7153C13.1526 34.7153 12.9749 34.8338 12.9749 34.938Z" fill="#66E3C4"/>
<path d="M40.6195 23.0119C40.6195 23.231 40.352 23.4105 40.0234 23.4105C39.6948 23.4105 39.4291 23.231 39.4291 23.0119C39.4291 22.7928 39.6948 22.6133 40.0234 22.6133C40.352 22.6133 40.6195 22.7928 40.6195 23.0119Z" fill="#0ABB92"/>
<path d="M39.6051 23.0117C39.6051 23.1159 39.7847 23.2344 40.0235 23.2344C40.2623 23.2344 40.4436 23.1159 40.4436 23.0117C40.4436 22.9076 40.2641 22.7891 40.0235 22.7891C39.7829 22.7891 39.6051 22.9058 39.6051 23.0117Z" fill="#0ABB92"/>
<path d="M40.6195 22.7389C40.6195 22.958 40.352 23.1376 40.0234 23.1376C39.6948 23.1376 39.4291 22.958 39.4291 22.7389C39.4291 22.5199 39.6948 22.3403 40.0234 22.3403C40.352 22.3403 40.6195 22.5181 40.6195 22.7389Z" fill="#0ABB92"/>
<path d="M39.6051 22.7388C39.6051 22.8429 39.7847 22.9614 40.0235 22.9614C40.2623 22.9614 40.4436 22.8429 40.4436 22.7388C40.4436 22.6346 40.2641 22.5161 40.0235 22.5161C39.7829 22.5161 39.6051 22.6328 39.6051 22.7388Z" fill="#66E3C4"/>
<path d="M43.1099 18.5208C43.1099 18.7399 42.8442 18.9195 42.5156 18.9195C42.187 18.9195 41.9194 18.7399 41.9194 18.5208C41.9194 18.3018 42.187 18.124 42.5156 18.124C42.8442 18.124 43.1099 18.3036 43.1099 18.5208Z" fill="#0ABB92"/>
<path d="M42.0955 18.521C42.0955 18.6251 42.275 18.7436 42.5156 18.7436C42.7562 18.7436 42.934 18.6251 42.934 18.521C42.934 18.4168 42.7544 18.2983 42.5156 18.2983C42.2768 18.2983 42.0955 18.4151 42.0955 18.521Z" fill="#0ABB92"/>
<path d="M43.1099 18.2463C43.1099 18.4671 42.8442 18.6449 42.5156 18.6449C42.187 18.6449 41.9194 18.4653 41.9194 18.2463C41.9194 18.0272 42.187 17.8477 42.5156 17.8477C42.8442 17.8477 43.1099 18.0272 43.1099 18.2463Z" fill="#0ABB92"/>
<path d="M42.0955 18.2461C42.0955 18.352 42.275 18.4687 42.5156 18.4687C42.7562 18.4687 42.934 18.352 42.934 18.2461C42.934 18.1401 42.7544 18.0234 42.5156 18.0234C42.2768 18.0234 42.0955 18.1419 42.0955 18.2461Z" fill="#66E3C4"/>
<path d="M45.7674 20.0381C45.7674 20.2572 45.5016 20.4367 45.173 20.4367C44.8444 20.4367 44.5769 20.2572 44.5769 20.0381C44.5769 19.819 44.8444 19.6377 45.173 19.6377C45.5016 19.6377 45.7674 19.8173 45.7674 20.0381Z" fill="#0ABB92"/>
<path d="M45.7674 19.7634C45.7674 19.9842 45.5016 20.162 45.173 20.162C44.8444 20.162 44.5769 19.9824 44.5769 19.7634C44.5769 19.5443 44.8444 19.3647 45.173 19.3647C45.5016 19.3647 45.7674 19.5443 45.7674 19.7634Z" fill="#0ABB92"/>
<path d="M44.7529 19.7632C44.7529 19.8691 44.9325 19.9858 45.1731 19.9858C45.4137 19.9858 45.5915 19.8691 45.5915 19.7632C45.5915 19.6572 45.4119 19.5405 45.1731 19.5405C44.9343 19.5405 44.7529 19.659 44.7529 19.7632Z" fill="#66E3C4"/>
<path d="M37.9602 21.4943C37.9602 21.7152 37.6945 21.8929 37.3659 21.8929C37.0373 21.8929 36.7698 21.7134 36.7698 21.4943C36.7698 21.2753 37.0373 21.0957 37.3659 21.0957C37.6945 21.0957 37.9602 21.2735 37.9602 21.4943Z" fill="#0ABB92"/>
<path d="M36.9475 21.4941C36.9475 21.6001 37.1271 21.7168 37.3659 21.7168C37.6047 21.7168 37.7842 21.6001 37.7842 21.4941C37.7842 21.3882 37.6047 21.2715 37.3659 21.2715C37.1271 21.2715 36.9475 21.39 36.9475 21.4941Z" fill="#0ABB92"/>
<path d="M37.9602 21.2214C37.9602 21.4404 37.6945 21.62 37.3659 21.62C37.0373 21.62 36.7698 21.4404 36.7698 21.2214C36.7698 21.0023 37.0373 20.8228 37.3659 20.8228C37.6945 20.8228 37.9602 20.9969 37.9602 21.2214Z" fill="#0ABB92"/>
<path d="M36.9475 21.2212C36.9475 21.3253 37.1271 21.4438 37.3659 21.4438C37.6047 21.4438 37.7842 21.3253 37.7842 21.2212C37.7842 21.117 37.6047 20.9985 37.3659 20.9985C37.1271 20.9985 36.9475 21.1152 36.9475 21.2212Z" fill="#66E3C4"/>
<path d="M15.7705 36.1464V37.5236L48.2256 19.4314V18.0649L15.7705 36.1464Z" fill="#66E3C4"/>
<path d="M10.725 33.144V34.5213L15.7705 37.5235V36.1462L10.725 33.144Z" fill="#66E3C4"/>
<path d="M48.2256 11.0872V11.0764L43.1854 8.06885V8.13528C44.0024 8.9828 44.3112 10.1104 44.4064 11.3153L14.6662 28.6803L12.7988 32.5533L15.7705 36.2037L48.2256 18.0684V17.9212C47.1752 16.8115 46.8717 15.3122 46.8861 13.7285C46.9004 12.1735 47.2003 10.992 48.2256 11.0872Z" fill="#0ABB92"/>
<path d="M44.0311 9.50531C43.8461 8.99749 43.5588 8.53303 43.1871 8.14067V8.06885L44.3327 8.74937C44.3579 8.92893 44.3794 9.10849 44.3938 9.28804L44.0311 9.50531Z" fill="white"/>
<path d="M13.3141 33.1747L12.8077 32.5534L13.0807 31.9878L13.3141 33.1747Z" fill="white"/>
<path d="M15.7705 29.2259V29.2151L10.725 26.2129V26.2793C11.7915 27.3872 11.9962 28.9835 11.9819 30.5887C11.9675 32.1563 11.7682 33.2641 10.725 33.1456L15.7705 36.1981V36.0509C14.7219 34.9412 14.4167 33.4419 14.431 31.8582C14.4454 30.3122 14.7453 29.1307 15.7705 29.2259Z" fill="#66E3C4"/>
<path d="M15.7687 27.9602L48.2238 9.88055L42.5587 6.62158L10.7231 25.0083L15.7687 27.9602Z" fill="white"/>
<path d="M15.7705 27.9604V29.3376L48.2256 11.2453V9.87891L15.7705 27.9604Z" fill="#66E3C4"/>
<path d="M10.725 25.0063V26.3351L15.7705 29.3373V27.9601L10.725 25.0063Z" fill="#66E3C4"/>
<path d="M16.6468 26.3405C16.6468 26.5596 16.3792 26.7391 16.0506 26.7391C15.722 26.7391 15.4563 26.5596 15.4563 26.3405C15.4563 26.1215 15.722 25.9419 16.0506 25.9419C16.3792 25.9419 16.6468 26.1197 16.6468 26.3405Z" fill="#0ABB92"/>
<path d="M15.6323 26.3403C15.6323 26.4445 15.8119 26.563 16.0507 26.563C16.2895 26.563 16.4709 26.4445 16.4709 26.3403C16.4709 26.2362 16.2913 26.1177 16.0507 26.1177C15.8101 26.1177 15.6323 26.2344 15.6323 26.3403Z" fill="#0ABB92"/>
<path d="M16.6468 26.0659C16.6468 26.2868 16.3792 26.4664 16.0506 26.4664C15.722 26.4664 15.4563 26.2868 15.4563 26.0659C15.4563 25.8451 15.722 25.6655 16.0506 25.6655C16.3792 25.6655 16.6468 25.8451 16.6468 26.0659Z" fill="#0ABB92"/>
<path d="M15.6323 26.0679C15.6323 26.172 15.8119 26.2905 16.0507 26.2905C16.2895 26.2905 16.4709 26.172 16.4709 26.0679C16.4709 25.9637 16.2913 25.8452 16.0507 25.8452C15.8101 25.8452 15.6323 25.9619 15.6323 26.0679Z" fill="#66E3C4"/>
<path d="M19.139 21.8503C19.139 22.0693 18.8714 22.2489 18.5428 22.2489C18.2142 22.2489 17.9485 22.0693 17.9485 21.8503C17.9485 21.6312 18.2142 21.4517 18.5428 21.4517C18.8714 21.4517 19.139 21.6294 19.139 21.8503Z" fill="#0ABB92"/>
<path d="M18.1245 21.8501C18.1245 21.9542 18.3041 22.0727 18.5429 22.0727C18.7817 22.0727 18.963 21.9542 18.963 21.8501C18.963 21.7459 18.7835 21.6274 18.5429 21.6274C18.3023 21.6274 18.1245 21.7442 18.1245 21.8501Z" fill="#0ABB92"/>
<path d="M19.139 21.5754C19.139 21.7962 18.8714 21.974 18.5428 21.974C18.2142 21.974 17.9485 21.7944 17.9485 21.5754C17.9485 21.3563 18.2142 21.1768 18.5428 21.1768C18.8714 21.1768 19.139 21.3563 19.139 21.5754Z" fill="#0ABB92"/>
<path d="M18.1245 21.5752C18.1245 21.6811 18.3041 21.7978 18.5429 21.7978C18.7817 21.7978 18.963 21.6811 18.963 21.5752C18.963 21.4693 18.7835 21.3525 18.5429 21.3525C18.3023 21.3525 18.1245 21.471 18.1245 21.5752Z" fill="#66E3C4"/>
<path d="M21.7964 23.3654C21.7964 23.5863 21.5289 23.764 21.2003 23.764C20.8717 23.764 20.606 23.5845 20.606 23.3654C20.606 23.1464 20.8717 22.9668 21.2003 22.9668C21.5289 22.9668 21.7964 23.1517 21.7964 23.3654Z" fill="#0ABB92"/>
<path d="M21.7964 23.0925C21.7964 23.3133 21.5289 23.4911 21.2003 23.4911C20.8717 23.4911 20.606 23.3115 20.606 23.0925C20.606 22.8734 20.8717 22.6938 21.2003 22.6938C21.5289 22.6938 21.7964 22.8734 21.7964 23.0925Z" fill="#0ABB92"/>
<path d="M20.782 23.0923C20.782 23.1982 20.9615 23.3149 21.2004 23.3149C21.4392 23.3149 21.6205 23.1982 21.6205 23.0923C21.6205 22.9863 21.441 22.8696 21.2004 22.8696C20.9597 22.8696 20.782 22.9881 20.782 23.0923Z" fill="#66E3C4"/>
<path d="M13.9893 24.8234C13.9893 25.0443 13.7218 25.222 13.3932 25.222C13.0646 25.222 12.7988 25.0425 12.7988 24.8234C12.7988 24.6044 13.0646 24.4248 13.3932 24.4248C13.7218 24.4248 13.9893 24.6026 13.9893 24.8234Z" fill="#0ABB92"/>
<path d="M12.9749 24.8232C12.9749 24.9292 13.1544 25.0459 13.3932 25.0459C13.632 25.0459 13.8134 24.9292 13.8134 24.8232C13.8134 24.7173 13.6338 24.6006 13.3932 24.6006C13.1526 24.6006 12.9749 24.7173 12.9749 24.8232Z" fill="#0ABB92"/>
<path d="M13.9893 24.5505C13.9893 24.7695 13.7218 24.9491 13.3932 24.9491C13.0646 24.9491 12.7988 24.7695 12.7988 24.5505C12.7988 24.3314 13.0646 24.1519 13.3932 24.1519C13.7218 24.1519 13.9893 24.3296 13.9893 24.5505Z" fill="#0ABB92"/>
<path d="M12.9749 24.5503C12.9749 24.6544 13.1544 24.7729 13.3932 24.7729C13.632 24.7729 13.8134 24.6544 13.8134 24.5503C13.8134 24.4461 13.6338 24.3276 13.3932 24.3276C13.1526 24.3276 12.9749 24.4443 12.9749 24.5503Z" fill="#66E3C4"/>
<path d="M40.6195 12.6223C40.6195 12.8431 40.352 13.0209 40.0234 13.0209C39.6948 13.0209 39.4291 12.8413 39.4291 12.6223C39.4291 12.4032 39.6948 12.2236 40.0234 12.2236C40.352 12.2236 40.6195 12.4032 40.6195 12.6223Z" fill="#0ABB92"/>
<path d="M39.6051 12.6221C39.6051 12.728 39.7847 12.8447 40.0235 12.8447C40.2623 12.8447 40.4436 12.728 40.4436 12.6221C40.4436 12.5161 40.2641 12.3994 40.0235 12.3994C39.7829 12.3994 39.6051 12.5179 39.6051 12.6221Z" fill="#0ABB92"/>
<path d="M40.6195 12.3493C40.6195 12.5702 40.352 12.7479 40.0234 12.7479C39.6948 12.7479 39.4291 12.5684 39.4291 12.3493C39.4291 12.1302 39.6948 11.9507 40.0234 11.9507C40.352 11.9507 40.6195 12.1284 40.6195 12.3493Z" fill="#0ABB92"/>
<path d="M39.6051 12.3491C39.6051 12.4551 39.7847 12.5718 40.0235 12.5718C40.2623 12.5718 40.4436 12.4551 40.4436 12.3491C40.4436 12.2432 40.2641 12.1265 40.0235 12.1265C39.7829 12.1265 39.6051 12.2432 39.6051 12.3491Z" fill="#66E3C4"/>
<path d="M43.1099 8.13153C43.1099 8.35238 42.8442 8.53015 42.5156 8.53015C42.187 8.53015 41.9194 8.35059 41.9194 8.13153C41.9194 7.91247 42.187 7.73291 42.5156 7.73291C42.8442 7.73291 43.1099 7.91247 43.1099 8.13153Z" fill="#0ABB92"/>
<path d="M42.0955 8.13134C42.0955 8.23728 42.275 8.35399 42.5156 8.35399C42.7562 8.35399 42.934 8.23728 42.934 8.13134C42.934 8.0254 42.7544 7.90869 42.5156 7.90869C42.2768 7.90869 42.0955 8.0272 42.0955 8.13134Z" fill="#0ABB92"/>
<path d="M43.1099 7.85858C43.1099 8.07764 42.8442 8.2572 42.5156 8.2572C42.187 8.2572 41.9194 8.07764 41.9194 7.85858C41.9194 7.63952 42.187 7.45996 42.5156 7.45996C42.8442 7.45996 43.1099 7.63772 43.1099 7.85858Z" fill="#0ABB92"/>
<path d="M42.0955 7.85839C42.0955 7.96254 42.275 8.08105 42.5156 8.08105C42.7562 8.08105 42.934 7.96254 42.934 7.85839C42.934 7.75425 42.7544 7.63574 42.5156 7.63574C42.2768 7.63574 42.0955 7.75246 42.0955 7.85839Z" fill="#66E3C4"/>
<path d="M45.7674 9.64862C45.7674 9.86947 45.5016 10.0472 45.173 10.0472C44.8444 10.0472 44.5769 9.86768 44.5769 9.64862C44.5769 9.42956 44.8444 9.25 45.173 9.25C45.5016 9.25 45.7674 9.42776 45.7674 9.64862Z" fill="#0ABB92"/>
<path d="M45.7674 9.37567C45.7674 9.59473 45.5016 9.77429 45.173 9.77429C44.8444 9.77429 44.5769 9.59473 44.5769 9.37567C44.5769 9.15661 44.8444 8.97705 45.173 8.97705C45.5016 8.97705 45.7674 9.15481 45.7674 9.37567Z" fill="#0ABB92"/>
<path d="M44.7529 9.37548C44.7529 9.47963 44.9325 9.59814 45.1731 9.59814C45.4137 9.59814 45.5915 9.47963 45.5915 9.37548C45.5915 9.27134 45.4119 9.15283 45.1731 9.15283C44.9343 9.15283 44.7529 9.26954 44.7529 9.37548Z" fill="#66E3C4"/>
<path d="M37.9602 11.1052C37.9602 11.326 37.6945 11.5038 37.3659 11.5038C37.0373 11.5038 36.7698 11.3242 36.7698 11.1052C36.7698 10.8861 37.0373 10.7065 37.3659 10.7065C37.6945 10.7065 37.9602 10.8861 37.9602 11.1052Z" fill="#0ABB92"/>
<path d="M36.9475 11.1068C36.9475 11.2109 37.1271 11.3294 37.3659 11.3294C37.6047 11.3294 37.7842 11.2109 37.7842 11.1068C37.7842 11.0026 37.6047 10.8823 37.3659 10.8823C37.1271 10.8823 36.9475 11.0008 36.9475 11.1068Z" fill="#0ABB92"/>
<path d="M37.9602 10.8322C37.9602 11.0531 37.6945 11.2308 37.3659 11.2308C37.0373 11.2308 36.7698 11.0513 36.7698 10.8322C36.7698 10.6132 37.0373 10.4336 37.3659 10.4336C37.6945 10.4336 37.9602 10.6132 37.9602 10.8322Z" fill="#0ABB92"/>
<path d="M36.9475 10.832C36.9475 10.938 37.1271 11.0547 37.3659 11.0547C37.6047 11.0547 37.7842 10.938 37.7842 10.832C37.7842 10.7261 37.6047 10.6094 37.3659 10.6094C37.1271 10.6094 36.9475 10.7279 36.9475 10.832Z" fill="#66E3C4"/>
</g>
<defs>
<clipPath id="clip0_722_29644">
<rect width="45.6202" height="46.1284" fill="white" transform="translate(2.60535 1.78418)"/>
</clipPath>
</defs>
</svg>
