<svg width="35" height="57" viewBox="0 0 35 57" fill="none" xmlns="http://www.w3.org/2000/svg">
<path d="M17.5047 50.1984L0 40.0073V46.2895L17.5047 56.5272" fill="#0ABB92"/>
<path d="M6.09875 16.0229L17.784 22.817L28.3893 16.693L16.676 9.89893L6.09875 16.0229Z" fill="white"/>
<path d="M17.8026 48.8205L28.4171 42.7058V16.7021L17.8026 22.8168V48.8205Z" fill="#66E3C4"/>
<path d="M17.8027 22.8171L6.09875 16.0137V42.0173L17.8027 48.8207" fill="#0ABB92"/>
<path d="M20.1583 45.647L20.9684 45.191V22.9194L20.1583 23.3755V45.647Z" fill="#0ABB92"/>
<path d="M23.11 43.9068L23.92 43.4508V21.1792L23.11 21.6352V43.9068Z" fill="#0ABB92"/>
<path d="M25.9404 42.3618L26.7319 41.9057V19.6714L25.9404 20.1274V42.3618Z" fill="#0ABB92"/>
<path d="M28.9664 43.5905V49.8727L34.9906 46.3081V40.0166" fill="#66E3C4"/>
<path d="M21.4246 44.0462V50.3378L25.6145 47.9179V41.6357" fill="#66E3C4"/>
<path d="M25.1303 45.7959L17.5046 50.1981V56.4803L25.1303 52.0874V45.7959Z" fill="#66E3C4"/>
<path d="M28.9572 43.5904L35 40.0166L28.4171 36.1914V39.8584L25.54 41.6081L28.9572 43.5904Z" fill="white"/>
<path d="M21.7132 43.8138L18.0074 45.9544L6.08938 39.0114V36.4985L0 40.0073L17.5047 50.1984L25.121 45.8055L21.7132 43.8138Z" fill="white"/>
<path d="M28.9665 49.8725L25.5494 47.8901L25.54 41.6079L28.9572 43.5903L28.9665 49.8725Z" fill="#0ABB92"/>
<path d="M9.13403 13.7056L17.635 18.6662L25.3631 14.2174L16.8249 9.25684L9.13403 13.7056Z" fill="white"/>
<path d="M17.6908 20.8997L25.4096 16.4417V14.1987L17.6908 18.6475V20.8997Z" fill="#66E3C4"/>
<path d="M17.6908 18.6476L9.14331 13.7056V15.9392L17.6908 20.8999" fill="#0ABB92"/>
<path d="M13.7057 11.77L17.5511 14.013L21.0427 12.0027L17.188 9.7876L13.7057 11.77Z" fill="white"/>
<path d="M17.5604 15.8649L21.052 13.8453V11.9839L17.5604 13.9942V15.8649Z" fill="#66E3C4"/>
<path d="M17.5604 14.0037L13.715 11.77V13.6314L17.5604 15.8744" fill="#0ABB92"/>
<path d="M13.7057 9.62945L17.5511 11.8724L21.0427 9.86212L17.188 7.61914L13.7057 9.62945Z" fill="white"/>
<path d="M17.5604 13.715L21.052 11.7047V9.84326L17.5604 11.8536V13.715Z" fill="#66E3C4"/>
<path d="M17.5604 11.8631L13.715 9.62939V11.4908L17.5604 13.7245" fill="#0ABB92"/>
<path d="M13.7057 7.47954L17.5511 9.72252L21.0427 7.71222L17.188 5.46924L13.7057 7.47954Z" fill="white"/>
<path d="M17.5604 11.5748L21.052 9.56452V7.70312L17.5604 9.72274V11.5748Z" fill="#66E3C4"/>
<path d="M17.5604 9.72247L13.715 7.47949V9.34088L17.5604 11.5839" fill="#0ABB92"/>
<path d="M17.5232 8.21456L17.4673 0.480469L16.5828 7.68406L17.5232 8.21456Z" fill="#0ABB92"/>
<path d="M17.5232 8.21456L17.4673 0.480469L18.538 7.7399L17.5232 8.21456Z" fill="#66E3C4"/>
</svg>
