<svg xmlns="http://www.w3.org/2000/svg" width="62" height="62" viewBox="0 0 62 62">
    <g fill="none" fill-rule="evenodd">
        <g transform="translate(-3 -3)">
            <g fill="#FFF" transform="translate(4.738 4.876)">
                <ellipse cx="46.584" cy="39.683" stroke="#1D4B70" stroke-width="1.12" rx="11.517" ry="4.616"/>
                <path fill-rule="nonzero" stroke="#1D4B70" stroke-width="1.12" d="M35.361 46.786v.12c0 2.796 4.909 4.625 11.541 4.625 6.632 0 11.54-1.829 11.54-4.626V46.7c-4.032 1.951-6.343 2.495-11.54 2.495-4.787 0-8.746-.844-11.54-2.408zM35.361 53.767v.053c0 .133.035.29.122.557.61 2.468 5.366 4.07 11.419 4.07 6.053 0 10.809-1.602 11.431-4.112.075-.225.11-.381.11-.515v-.053c-2.821 1.53-6.783 2.342-11.541 2.342s-8.72-.812-11.54-2.342z"/>
                <path fill-rule="nonzero" stroke="#66C4AC" stroke-width="2.24" d="M29.5 0C13.465 0 .17 13.155.003 29.18a1.73 1.73 0 0 0 1.682 1.748c.984-.068 1.732-.713 1.774-1.653a4.9 4.9 0 0 1 .036-.42l.001-.012a5.189 5.189 0 0 1 5.144-4.526 5.192 5.192 0 0 1 5.186 5.186 1.728 1.728 0 1 0 3.458 0c0-2.86 2.441-5.186 5.301-5.186a5.192 5.192 0 0 1 5.186 5.186v22.588a3.462 3.462 0 0 1-3.457 3.458 3.462 3.462 0 0 1-3.458-3.458 1.728 1.728 0 1 0-3.457 0 6.922 6.922 0 0 0 6.915 6.915 6.922 6.922 0 0 0 6.914-6.915V29.503a5.192 5.192 0 0 1 5.187-5.186c2.86 0 5.3 2.326 5.3 5.186a1.728 1.728 0 1 0 3.458 0 5.192 5.192 0 0 1 5.186-5.186 5.181 5.181 0 0 1 5.186 4.962c.043.942.738 1.673 1.775 1.652A1.73 1.73 0 0 0 59 29.184C58.83 13.154 45.532 0 29.5 0z"/>
            </g>
            <path d="M0 0h70v70H0z"/>
            <circle cx="23.625" cy="25.375" r="20.125" fill="#0070A8" fill-opacity=".1"/>
            <circle cx="51.625" cy="46.375" r="9.625" fill="#0070A8" fill-opacity=".1"/>
        </g>
    </g>
</svg>
