<svg xmlns="http://www.w3.org/2000/svg" width="59" height="63" viewBox="0 0 59 63">
    <g fill="none" fill-rule="evenodd">
        <g transform="translate(-1 -3)">
            <g fill-rule="nonzero">
                <path fill="#FFF" stroke="#66C4AC" stroke-width="1.568" d="M30.34 34.116h1.315v4.199H30.34zM30.34 25.465h1.315v4.199H30.34zM36.107 25.465h1.316v4.199h-1.316zM36.107 34.116h1.316v4.199h-1.316zM21.689 21.013h24.384v-3.638a.657.657 0 0 0-.657-.658h-23.07a.657.657 0 0 0-.657.658v3.638zM41.874 25.465h1.316v4.199h-1.316zM24.573 42.766v21.597h1.315V49.191c0-1.23.996-2.226 2.226-2.226h11.534c1.23 0 2.226.996 2.226 2.226v15.172h1.316V42.766H24.573zM24.572 34.116h1.316v4.199h-1.316zM24.572 25.465h1.316v4.199h-1.316z"/>
                <path stroke="#1D4B70" stroke-width="1.12" d="M56.164 51.193h1.764v1.764h-1.764z"/>
                <path fill="#FFF" stroke="#66C4AC" stroke-width="1.568" d="M10.058 35.43H13.6c1.23 0 2.226.997 2.226 2.227v5.767c0 1.23-.996 2.226-2.226 2.226h-3.542v1.315H13.6c1.23 0 2.226.996 2.226 2.226v5.767c0 1.23-.996 2.226-2.226 2.226h-3.542v6.521c0 .364.294.658.658.658h9.405V31.231h-9.405a.657.657 0 0 0-.658.658v3.542zM57.704 35.43v-3.54a.657.657 0 0 0-.658-.659h-9.405v33.132h9.405a.657.657 0 0 0 .658-.658v-6.521h-3.541a2.225 2.225 0 0 1-2.226-2.226v-5.767c0-1.23.996-2.226 2.226-2.226h3.541V45.65h-3.541a2.225 2.225 0 0 1-2.226-2.226v-5.767c0-1.23.996-2.226 2.226-2.226h3.541zM41.874 34.116h1.316v4.199h-1.316z"/>
                <path stroke="#1D4B70" stroke-width="1.12" d="M56.164 39.658v1.764h1.764v-1.764h-1.764z"/>
                <path fill="#FFF" stroke="#1D4B70" stroke-width="1.12" d="M9.834 39.658v1.764h1.764v-1.764H9.834zM30.116 51.193v13.394h7.53V51.193h-7.53zM9.834 51.193h1.764v1.764H9.834zM21.53 14.078h24.703L34.04 6.18a.292.292 0 0 0-.32 0L21.53 14.078zm12.351-.68c-.796 0-1.435-.658-1.435-1.461 0-.804.64-1.461 1.435-1.461.796 0 1.435.657 1.435 1.46 0 .804-.639 1.461-1.435 1.461z"/>
            </g>
            <path d="M0 0h70v70H0z"/>
            <circle cx="21.875" cy="23.625" r="20.125" fill="#0070A8" fill-opacity=".1"/>
            <circle cx="49.875" cy="44.625" r="9.625" fill="#0070A8" fill-opacity=".1"/>
        </g>
    </g>
</svg>
