<svg width="70" height="70" viewBox="0 0 70 70" fill="none" xmlns="http://www.w3.org/2000/svg">
<rect x="29.9057" y="33.6811" width="2.18361" height="5.06723" stroke="#00D09C" stroke-width="0.7"/>
<rect x="29.9057" y="25.0302" width="2.18361" height="5.06723" stroke="#00D09C" stroke-width="0.7"/>
<rect x="35.673" y="25.0302" width="2.18361" height="5.06723" stroke="#00D09C" stroke-width="0.7"/>
<rect x="35.673" y="33.6811" width="2.18361" height="5.06723" stroke="#00D09C" stroke-width="0.7"/>
<path d="M22.3466 16.2833H45.4155C46.0191 16.2833 46.5073 16.7715 46.5073 17.3752V21.4467H21.2548V17.3752C21.2548 16.7715 21.743 16.2833 22.3466 16.2833Z" stroke="#0ABB92" stroke-width="0.7"/>
<rect x="41.4398" y="25.0302" width="2.18361" height="5.06723" stroke="#00D09C" stroke-width="0.7"/>
<path d="M26.3222 64.797H24.1386V42.3319H43.6239V64.797H41.4403V49.191C41.4403 48.2007 40.6387 47.3992 39.6485 47.3992H28.114C27.1238 47.3992 26.3222 48.2007 26.3222 49.191V64.797Z" stroke="#0ABB92" stroke-width="0.7"/>
<rect x="24.1386" y="33.6811" width="2.18361" height="5.06723" stroke="#00D09C" stroke-width="0.7"/>
<rect x="24.1386" y="25.0302" width="2.18361" height="5.06723" stroke="#00D09C" stroke-width="0.7"/>
<rect x="55.8545" y="50.8828" width="2.38361" height="2.38361" stroke="#B3B6B9" stroke-width="0.5"/>
<path d="M9.62417 31.8896C9.62417 31.2859 10.1123 30.7978 10.716 30.7978H20.5547V64.7973H10.716C10.1123 64.7973 9.62417 64.3091 9.62417 63.7054V56.7503H13.5996C14.5898 56.7503 15.3914 55.9487 15.3914 54.9585V49.1912C15.3914 48.201 14.5898 47.3994 13.5996 47.3994H9.62417V45.2158H13.5996C14.5898 45.2158 15.3914 44.4143 15.3914 43.424V37.6568C15.3914 36.6666 14.5898 35.865 13.5996 35.865H9.62417V31.8896Z" stroke="#0ABB92" stroke-width="0.7"/>
<path d="M58.138 31.8896V35.865H54.1626C53.1723 35.865 52.3708 36.6666 52.3708 37.6568V43.424C52.3708 44.4143 53.1723 45.2158 54.1626 45.2158H58.138V47.3994H54.1626C53.1723 47.3994 52.3708 48.201 52.3708 49.1912V54.9585C52.3708 55.9487 53.1723 56.7503 54.1626 56.7503H58.138V63.7054C58.138 64.3091 57.6498 64.7973 57.0462 64.7973H47.2074V30.7978H57.0462C57.6498 30.7978 58.138 31.2859 58.138 31.8896Z" stroke="#0ABB92" stroke-width="0.7"/>
<rect x="41.4398" y="33.6811" width="2.18361" height="5.06723" stroke="#00D09C" stroke-width="0.7"/>
<path d="M55.8545 39.3486H58.2381V41.7322H55.8545V39.3486Z" stroke="#B3B6B9" stroke-width="0.5"/>
<path d="M9.52417 39.3486H11.9078V41.7322H9.52417V39.3486Z" stroke="#B3B6B9" stroke-width="0.5"/>
<path d="M29.8057 64.897V50.8828H35.3229H37.9565V64.897H35.3229H29.8057Z" stroke="#B3B6B9" stroke-width="0.5"/>
<rect x="9.52417" y="50.8828" width="2.38361" height="2.38361" stroke="#B3B6B9" stroke-width="0.5"/>
<mask id="path-18-inside-1" fill="white">
<path fill-rule="evenodd" clip-rule="evenodd" d="M33.4172 5.70972C33.7008 5.52677 34.0613 5.52677 34.3449 5.70972L48.1271 14.6382H19.635L33.4172 5.70972ZM33.0063 9.62501C33.0063 10.1083 33.398 10.5 33.8811 10.5C34.3641 10.5 34.7558 10.1083 34.7558 9.62501C34.7558 9.14176 34.3641 8.75001 33.8811 8.75001C33.398 8.75001 33.0063 9.14176 33.0063 9.62501Z"/>
</mask>
<path fill-rule="evenodd" clip-rule="evenodd" d="M33.4172 5.70972C33.7008 5.52677 34.0613 5.52677 34.3449 5.70972L48.1271 14.6382H19.635L33.4172 5.70972ZM33.0063 9.62501C33.0063 10.1083 33.398 10.5 33.8811 10.5C34.3641 10.5 34.7558 10.1083 34.7558 9.62501C34.7558 9.14176 34.3641 8.75001 33.8811 8.75001C33.398 8.75001 33.0063 9.14176 33.0063 9.62501Z" fill="#121212"/>
<path d="M34.3449 5.70972L34.6167 5.29008L34.6159 5.28957L34.3449 5.70972ZM33.4172 5.70972L33.1462 5.28957L33.1454 5.29009L33.4172 5.70972ZM48.1271 14.6382V15.1382H49.8186L48.399 14.2186L48.1271 14.6382ZM19.635 14.6382L19.3632 14.2186L17.9436 15.1382H19.635V14.6382ZM34.6159 5.28957C34.1673 5.00016 33.5948 5.00015 33.1462 5.28957L33.6883 6.12988C33.8068 6.05339 33.9553 6.05339 34.0738 6.12988L34.6159 5.28957ZM48.399 14.2186L34.6167 5.29009L34.073 6.12936L47.8553 15.0578L48.399 14.2186ZM19.635 15.1382H48.1271V14.1382H19.635V15.1382ZM33.1454 5.29009L19.3632 14.2186L19.9069 15.0578L33.6891 6.12936L33.1454 5.29009ZM33.8811 10C33.6743 10 33.5063 9.83226 33.5063 9.62501H32.5063C32.5063 10.3842 33.1217 11 33.8811 11V10ZM34.2558 9.62501C34.2558 9.83226 34.0878 10 33.8811 10V11C34.6404 11 35.2558 10.3842 35.2558 9.62501H34.2558ZM33.8811 9.25001C34.0878 9.25001 34.2558 9.41776 34.2558 9.62501H35.2558C35.2558 8.86577 34.6404 8.25001 33.8811 8.25001V9.25001ZM33.5063 9.62501C33.5063 9.41776 33.6743 9.25001 33.8811 9.25001V8.25001C33.1217 8.25001 32.5063 8.86577 32.5063 9.62501H33.5063Z" fill="#B3B6B9" mask="url(#path-18-inside-1)"/>
<path fill-rule="evenodd" clip-rule="evenodd" d="M21.875 43.75C32.9897 43.75 42 34.7397 42 23.625C42 12.5103 32.9897 3.5 21.875 3.5C10.7603 3.5 1.75 12.5103 1.75 23.625C1.75 34.7397 10.7603 43.75 21.875 43.75Z" fill="#5367FF" fill-opacity="0.12"/>
<path fill-rule="evenodd" clip-rule="evenodd" d="M49.875 54.25C55.1907 54.25 59.5 49.9407 59.5 44.625C59.5 39.3093 55.1907 35 49.875 35C44.5593 35 40.25 39.3093 40.25 44.625C40.25 49.9407 44.5593 54.25 49.875 54.25Z" fill="#5367FF" fill-opacity="0.12"/>
</svg>
