<svg width="70" height="70" viewBox="0 0 70 70" fill="none" xmlns="http://www.w3.org/2000/svg">
<path d="M62.8987 44.5583C62.8987 45.1039 62.6429 45.6654 62.0938 46.2218C61.5425 46.7803 60.7201 47.3063 59.6644 47.7587C57.5547 48.6629 54.6054 49.2343 51.3214 49.2343C48.0375 49.2343 45.0881 48.6629 42.9785 47.7587C41.9227 47.3063 41.1003 46.7803 40.5491 46.2218C40 45.6654 39.7441 45.1039 39.7441 44.5583C39.7441 44.0127 40 43.4512 40.5491 42.8948C41.1003 42.3363 41.9227 41.8104 42.9785 41.3579C45.0881 40.4538 48.0375 39.8823 51.3214 39.8823C54.6054 39.8823 57.5547 40.4538 59.6644 41.3579C60.7201 41.8104 61.5425 42.3363 62.0938 42.8948C62.6429 43.4512 62.8987 44.0127 62.8987 44.5583Z" fill="#121212" stroke="#A4A8AB"/>
<path d="M63.3658 51.2806V51.7812C63.3658 53.325 62.0613 54.5343 59.8154 55.3712C57.5989 56.1971 54.6223 56.5923 51.6399 56.5923C48.6576 56.5923 45.681 56.1971 43.4645 55.3712C41.2185 54.5343 39.9141 53.325 39.9141 51.7812V51.3424C42.6826 52.9691 46.6615 53.8849 51.6399 53.8849C54.809 53.8849 57.0051 53.6064 58.8529 53.1024C60.503 52.6523 61.8619 52.0256 63.3658 51.2806Z" fill="#121212" stroke="#A4A8AB" stroke-width="0.75"/>
<path d="M40.0413 59.2974L40.0378 59.2831L40.0331 59.2692C39.9659 59.0668 39.9141 58.8736 39.9141 58.6959V58.3281C42.6892 59.9223 46.7027 60.7996 51.6399 60.7996C56.5772 60.7996 60.5907 59.9222 63.3658 58.3281V58.6959C63.3658 58.8736 63.3141 59.0669 63.2468 59.269L63.2422 59.283L63.2386 59.2974C62.9077 60.636 61.4897 61.7017 59.3167 62.4332C57.1716 63.1553 54.4143 63.507 51.6399 63.507C48.8656 63.507 46.1083 63.1553 43.9631 62.4332C41.7902 61.7017 40.3722 60.636 40.0413 59.2974Z" fill="#121212" stroke="#A4A8AB" stroke-width="0.75"/>
<path d="M34.2376 4.87573C18.2033 4.87573 4.90842 18.0305 4.74131 34.0564C4.73117 35 5.48073 35.7767 6.42276 35.8036C7.40696 35.7361 8.1548 35.0912 8.19709 34.1509C8.20389 34.0091 8.21392 33.869 8.23259 33.7306C8.23259 33.7255 8.23432 33.7222 8.23432 33.7187C8.56001 31.1375 10.7715 29.1927 13.378 29.1927C16.2377 29.1927 18.5641 31.5191 18.5641 34.3788C18.5641 35.3343 19.3373 36.1075 20.2928 36.1075C21.2483 36.1075 22.0215 35.3343 22.0215 34.3788C22.0215 31.5191 24.4631 29.1927 27.3228 29.1927C30.1826 29.1927 32.5089 31.5191 32.5089 34.3788V56.9672C32.5089 58.8731 30.9575 60.4245 29.0515 60.4245C27.1456 60.4245 25.5941 58.8731 25.5941 56.9672C25.5941 56.0116 24.8209 55.2385 23.8654 55.2385C22.9099 55.2385 22.1367 56.0116 22.1367 56.9672C22.1367 60.7808 25.2379 63.8819 29.0515 63.8819C32.8651 63.8819 35.9663 60.7808 35.9663 56.9672V34.3788C35.9663 31.5191 38.2927 29.1927 41.1524 29.1927C44.0121 29.1927 46.4537 31.5191 46.4537 34.3788C46.4537 35.3343 47.2269 36.1075 48.1824 36.1075C49.138 36.1075 49.9111 35.3343 49.9111 34.3788C49.9111 31.5191 52.2375 29.1927 55.0972 29.1927C57.8827 29.1927 60.1601 31.3722 60.2833 34.1543C60.3255 35.0964 61.021 35.8274 62.0577 35.8071C63.0013 35.7801 63.7493 35.0035 63.7391 34.0598C63.5668 18.0305 50.2702 4.87573 34.2376 4.87573Z" fill="#121212" stroke="#0ABB92"/>
<path fill-rule="evenodd" clip-rule="evenodd" d="M23.625 45.5C34.7397 45.5 43.75 36.4897 43.75 25.375C43.75 14.2603 34.7397 5.25 23.625 5.25C12.5103 5.25 3.5 14.2603 3.5 25.375C3.5 36.4897 12.5103 45.5 23.625 45.5Z" fill="#5367FF" fill-opacity="0.12"/>
<path fill-rule="evenodd" clip-rule="evenodd" d="M51.625 56C56.9407 56 61.25 51.6907 61.25 46.375C61.25 41.0593 56.9407 36.75 51.625 36.75C46.3093 36.75 42 41.0593 42 46.375C42 51.6907 46.3093 56 51.625 56Z" fill="#5367FF" fill-opacity="0.12"/>
</svg>
