<svg width="40" height="46" viewBox="0 0 40 46" fill="none" xmlns="http://www.w3.org/2000/svg">
<g clip-path="url(#clip0_722_29958)">
<path d="M11.9707 18.2731L31.2556 7.36844L19.3201 0.480469L0.0168457 11.4728L11.9707 18.3381V18.2731Z" fill="white"/>
<path d="M11.9708 18.3198L0.0153689 11.4727L0 34.9957L11.957 41.861L11.9708 18.3198Z" fill="#0ABB92"/>
<path d="M11.9569 41.8293L31.2756 30.8717L31.2894 7.34863L11.9707 18.273L11.9569 41.8293Z" fill="#66E3C4"/>
<path d="M18.2244 45.4805L37.5737 34.4912V22.7554L18.2244 33.7114V45.4805Z" fill="#66E3C4"/>
<path d="M37.5643 22.7599L31.2554 19.124L11.9583 30.1285L18.2241 33.7115L37.5643 22.7599Z" fill="white"/>
<path d="M18.2274 33.7129L11.9569 30.1284V41.8628L18.2305 45.4609L18.2274 33.7129Z" fill="#0ABB92"/>
<path d="M18.2289 37.1494L37.5737 26.1797V22.7554L18.2289 33.6918V37.1494Z" fill="#0ABB92"/>
<path d="M23.0732 16.691V23.7437L26.8509 21.6023V14.5557L23.0732 16.691Z" fill="#0ABB92"/>
<path d="M22.6859 16.9102L18.3565 19.3583L18.3473 26.4246L22.6859 23.9644V16.9102Z" fill="#0ABB92"/>
<path d="M29.2515 32.1578V39.2105L33.0291 37.0676V30.021L29.2515 32.1578Z" fill="#0ABB92"/>
<path d="M28.8657 32.3755L24.5363 34.8236L24.5271 41.8914L28.8657 39.4297V32.3755Z" fill="#0ABB92"/>
<path d="M12.4288 14.9483L27.9513 6.17139L18.7607 0.868652L3.22437 9.71663L12.4288 15.0012V14.9483Z" fill="white"/>
<path d="M12.4288 14.9863L3.20131 9.70166L3.19055 11.172L12.4165 16.4733L12.4288 14.9863Z" fill="#0ABB92"/>
<path d="M12.4165 16.4474L27.9713 7.62663L27.9836 6.15625L12.4288 14.9483L12.4165 16.4474Z" fill="#66E3C4"/>
<path d="M30.2091 16.3496L30.2075 19.7755L38.2731 24.4012V21.1038V20.9617L30.2091 16.3496Z" fill="#0ABB92"/>
<path d="M20.0625 34.7847L39.375 23.812V20.3877L20.0625 31.3226V34.7847Z" fill="#66E3C4"/>
<path d="M11.9662 26.7104L11.9631 30.1363L20.0625 34.7802V31.4828V31.3407L11.9662 26.7104Z" fill="#0ABB92"/>
<path d="M39.3735 20.3875L31.3156 15.7437L30.2259 16.3617L37.2326 20.38L20.0379 30.1165L13.0097 26.1376L11.9816 26.7209L20.084 31.3678L20.0625 31.3224L39.3735 20.3875Z" fill="white"/>
</g>
<defs>
<clipPath id="clip0_722_29958">
<rect width="39.375" height="45" fill="white" transform="translate(0 0.480469)"/>
</clipPath>
</defs>
</svg>
