<svg width="48" height="40" viewBox="0 0 48 40" fill="none" xmlns="http://www.w3.org/2000/svg">
<path d="M9.00381 32.5114L9.40381 34.3114L9.70381 35.3114L11.8038 34.0114C12.4038 33.8114 12.8038 33.1114 12.8038 32.1114V16.8114L8.20381 14.2114L5.90381 15.6114L8.20381 27.4114V29.4114C8.20381 30.4114 8.60381 31.6114 9.00381 32.5114V32.5114Z" fill="#10362D"/>
<path d="M5.90379 30.8117V15.5117L10.5038 18.1117V33.4117C10.5038 35.1117 9.50378 35.9117 8.20378 35.2117C6.90378 34.5117 5.80379 32.5117 5.90379 30.8117V30.8117Z" fill="#0ABB92"/>
<path d="M1.30378 11.1116H1.40378L9.30378 15.4116L15.0038 4.71164L7.30378 0.611632C6.50378 0.111632 5.30378 0.11162 4.10378 0.91162C1.80378 2.41162 -0.0962246 5.81163 0.00377538 8.51163C0.00377538 9.81163 0.503775 10.8116 1.30378 11.1116V11.1116Z" fill="#0ABB92"/>
<path d="M3.20385 14.6117C3.20385 14.7117 3.30385 14.7117 3.30385 14.7117L13.5038 20.2117L20.9038 6.21169L11.0038 0.811669C10.0038 0.111669 8.50385 0.211693 6.90385 1.21169C3.90385 3.01169 1.50385 7.41168 1.60385 11.0117C1.60385 12.7117 2.20385 13.9117 3.20385 14.6117V14.6117Z" fill="#E5FAF5"/>
<path d="M2.80371 12.7113C2.90371 14.7113 3.70371 15.5113 4.80371 16.7113L17.4037 29.6113C17.6037 29.9113 17.8037 30.2113 18.0037 30.6113L19.0037 32.3113L35.0037 3.11134L32.9037 3.21135C32.4037 3.31135 32.0037 3.31132 31.5037 3.31132L13.0037 0.911331C11.7037 0.711331 10.4037 0.711343 8.90371 1.61134C5.50371 3.71134 2.90371 8.61135 2.80371 12.7113V12.7113Z" fill="#0ABB92"/>
<path d="M19.9038 32.7113H20.0038L21.8038 33.7113L21.5038 33.3113C23.5038 33.8113 25.8038 33.3113 28.4038 31.7113C34.9038 27.7113 40.0038 18.2113 39.8038 10.6113C39.7038 7.61131 38.8038 5.3113 37.4038 3.9113L38.1038 4.0113L36.1038 2.9113C33.9038 1.7113 30.9038 2.0113 27.7038 4.0113C21.2038 8.0113 16.1038 17.5113 16.3038 25.1113C16.4038 28.9113 17.8038 31.5113 19.9038 32.7113V32.7113Z" fill="#E5FAF5"/>
<path d="M22.5039 34.4117L22.2039 34.0117C24.2039 34.5117 26.5039 34.0117 29.1039 32.4117C35.6039 28.4117 40.7039 18.9117 40.5039 11.3117C40.4039 8.31169 39.5039 6.01171 38.1039 4.61171L38.7039 4.71171C38.6039 4.61171 38.5039 4.6117 38.4039 4.5117L38.1039 4.31169C35.9039 3.11169 33.0039 3.41169 29.8039 5.41169C23.3039 9.41169 18.2039 18.9117 18.4039 26.5117C18.5039 30.6117 20.1039 33.3117 22.5039 34.4117V34.4117Z" fill="#E5FAF5"/>
<path d="M39.2491 24.193C43.6927 15.9851 43.4365 7.24231 38.6768 4.66555C33.9172 2.0888 26.4565 6.65381 22.0129 14.8618C17.5693 23.0698 17.8255 31.8125 22.5851 34.3893C27.3448 36.966 34.8055 32.401 39.2491 24.193Z" fill="#0ABB92"/>
<path d="M38.1937 23.6217C42.1114 16.3851 41.9014 8.6856 37.7245 6.42436C33.5477 4.16313 26.9857 8.19647 23.068 15.4331C19.1503 22.6697 19.3604 30.3692 23.5372 32.6305C27.714 34.8917 34.276 30.8584 38.1937 23.6217Z" fill="#10362D"/>
<path d="M23.0737 15.4017C22.3037 16.8317 21.6937 18.2717 21.2437 19.6917L29.3037 22.2017L32.1037 17.0017L25.2737 12.0117C24.4837 13.0417 23.7337 14.1717 23.0737 15.4017V15.4017Z" fill="#0ABB92"/>
<path d="M30.5037 17.1116C31.6037 16.4116 32.6037 17.0116 32.6037 18.3116C32.6037 19.6116 31.7037 21.3116 30.6037 22.0116C29.5037 22.7116 28.5037 22.1116 28.5037 20.8116C28.5037 19.5116 29.4037 17.8116 30.5037 17.1116Z" fill="#E5FAF5"/>
<path d="M8.25372 4.63135C8.60372 4.72135 8.78372 4.77136 9.14372 4.86136C9.01372 5.99136 8.78372 7.05135 8.66372 9.16135C9.44372 7.45135 10.0637 6.45136 11.0237 5.36136C11.3037 5.43136 11.4437 5.47136 11.7237 5.55136C10.3837 7.10136 9.39372 8.83136 8.67372 11.0214C8.37372 10.8114 8.22372 10.7113 7.92372 10.5013C7.81372 8.42134 8.04372 7.17135 8.22372 5.66135C7.32372 6.91135 6.83372 7.85135 6.35372 9.38135C6.13372 9.22135 6.02372 9.14136 5.81372 8.99136C6.42372 7.03136 7.12372 5.79135 8.23372 4.63135H8.25372Z" fill="#E5FAF5"/>
<path d="M12.6336 5.79126C13.6636 6.06126 14.1836 6.20126 15.2136 6.48126C14.9736 6.79126 14.8436 6.97126 14.5736 7.35126C13.8436 7.11126 13.4736 6.99126 12.7436 6.76126C12.3536 7.32126 12.1436 7.64127 11.7536 8.30127C12.4136 8.59127 12.7436 8.74125 13.3936 9.03125C13.1336 9.48125 13.0136 9.71126 12.7736 10.1713C12.1336 9.84126 11.8136 9.67125 11.1836 9.34125C10.6136 10.4312 10.3536 11.0013 10.0436 11.9513C9.8036 11.7813 9.6836 11.7013 9.4436 11.5312C10.1836 9.29125 11.2436 7.43125 12.6236 5.78125L12.6336 5.79126Z" fill="#E5FAF5"/>
<path d="M13.5937 9.84113C13.9137 9.26113 14.2637 8.76114 14.6437 8.35114C15.0237 7.94114 15.3937 7.64113 15.7737 7.41113C16.1537 7.19113 16.5137 7.05115 16.8737 6.99115C17.2337 6.92115 17.5637 6.93114 17.8637 7.01114C18.1737 7.09114 18.4137 7.22114 18.5637 7.42114C18.7137 7.63114 18.7737 7.91113 18.7337 8.28113C18.6937 8.66113 18.5637 9.13114 18.3337 9.70114C18.1137 10.2711 17.7937 10.9311 17.4137 11.6411C17.0437 12.3411 16.6837 12.9511 16.3337 13.4411C15.9937 13.9411 15.6837 14.3011 15.3837 14.5511C15.0937 14.8011 14.8237 14.9211 14.5537 14.9511C14.2837 14.9711 14.0237 14.8912 13.7637 14.7112C13.5037 14.5312 13.2937 14.2811 13.1237 13.9711C12.9637 13.6611 12.8537 13.3011 12.8137 12.8811C12.7737 12.4611 12.8137 11.9911 12.9437 11.4711C13.0737 10.9511 13.2837 10.4011 13.5937 9.83115V9.84113ZM14.3237 10.0911C14.1037 10.5011 13.9337 10.8912 13.8237 11.2712C13.7137 11.6512 13.6537 11.9911 13.6537 12.3011C13.6537 12.6111 13.6937 12.8811 13.7737 13.1111C13.8637 13.3411 13.9937 13.5111 14.1637 13.6311C14.3337 13.7511 14.5237 13.7811 14.7237 13.7311C14.9237 13.6811 15.1337 13.5611 15.3537 13.3511C15.5737 13.1411 15.8037 12.8712 16.0537 12.5212C16.3037 12.1712 16.5437 11.7511 16.7937 11.2911C17.0237 10.8611 17.2137 10.4511 17.3637 10.0611C17.5137 9.68113 17.6037 9.34115 17.6537 9.05115C17.6937 8.76115 17.6737 8.53114 17.6037 8.35114C17.5237 8.17114 17.3837 8.05115 17.1837 7.99115C16.9837 7.93115 16.7637 7.93113 16.5237 8.00113C16.2837 8.07113 16.0337 8.19114 15.7737 8.38114C15.5137 8.56114 15.2637 8.80113 15.0137 9.09113C14.7637 9.38113 14.5337 9.72113 14.3337 10.0911H14.3237Z" fill="#E5FAF5"/>
</svg>
