<svg width="40" height="40" viewBox="0 0 40 40" fill="none" xmlns="http://www.w3.org/2000/svg">
<circle cx="20" cy="20" r="20" fill="#E6FBF6"/>
<rect x="16.9995" y="23" width="13.0002" height="4.00007" fill="#00D09C"/>
<rect x="17.3682" y="18" width="12.6318" height="4.00007" fill="#00D09C"/>
<path d="M17.3682 14C17.3682 13.4477 17.8159 13 18.3682 13H28.9999C29.5522 13 29.9999 13.4477 29.9999 14V17.0001H17.3682V14Z" fill="#00D09C"/>
<path d="M15.2632 26.7902C18.1701 26.7902 20.5265 24.4337 20.5265 21.5269C20.5265 18.6201 18.1701 16.2637 15.2632 16.2637C12.3564 16.2637 10 18.6201 10 21.5269C10 24.4337 12.3564 26.7902 15.2632 26.7902Z" fill="#E6FBF6"/>
<path d="M15.2633 25.7366C17.5888 25.7366 19.4739 23.8515 19.4739 21.526C19.4739 19.2006 17.5888 17.3154 15.2633 17.3154C12.9379 17.3154 11.0527 19.2006 11.0527 21.526C11.0527 23.8515 12.9379 25.7366 15.2633 25.7366Z" fill="#00D09C"/>
</svg>
