<svg width="35" height="49" viewBox="0 0 35 49" fill="none" xmlns="http://www.w3.org/2000/svg">
<path d="M3.51654 44.5966C3.35359 44.4937 3.12632 44.3608 2.97195 44.245C2.64778 44.0142 2.33709 43.7651 2.04142 43.4989C1.84066 43.3167 1.65025 43.1234 1.47109 42.92C1.27384 42.6841 1.04228 42.3539 0.862173 42.0966C0.72281 41.8801 0.602299 41.652 0.501968 41.4148C0.397341 41.1702 0.307135 40.9196 0.231813 40.6644C0.189941 40.5239 0.15841 40.3806 0.137474 40.2356C0.103169 39.9997 0.0774397 39.6824 0.0645752 39.4423C0.0645752 41.0374 1.09373 42.6284 3.14776 43.8633C7.38018 46.4105 14.387 46.4834 18.7953 44.022C21.068 42.7356 22.2258 41.0675 22.2001 39.3779C22.2079 39.5208 22.2079 39.6639 22.2001 39.8067C22.1615 40.0726 22.0971 40.4285 22.0328 40.6901C21.9852 40.8652 21.9264 41.0371 21.857 41.2047C21.8013 41.3376 21.7198 41.5091 21.6598 41.6335C21.5409 41.8858 21.3972 42.1257 21.2309 42.3496C21.0851 42.5469 20.8793 42.8042 20.7164 42.9928C20.5534 43.1815 20.4462 43.2759 20.3261 43.3916C19.9701 43.7287 19.5856 44.0342 19.1769 44.305C18.9625 44.4465 18.6709 44.6223 18.4479 44.7338C18.2249 44.8453 18.0191 44.9654 17.8219 45.0597C17.6246 45.1541 17.2901 45.2999 17.0586 45.3942C16.827 45.4886 16.5783 45.5786 16.3682 45.6515C15.8716 45.8215 15.3663 45.9646 14.8544 46.0803C13.8297 46.3077 12.7861 46.4397 11.737 46.4748C10.9608 46.5006 10.3647 46.4748 10.1675 46.4748C9.59716 46.4448 9.30985 46.4105 8.61517 46.3205C8.10589 46.2476 7.60067 46.1489 7.10145 46.0246C6.88275 45.9731 6.59116 45.8916 6.37675 45.8273C6.16234 45.763 5.86217 45.6601 5.64347 45.5872C5.42478 45.5143 5.17178 45.4071 4.97023 45.3213C4.76869 45.2356 4.47709 45.094 4.26697 44.9954C4.05685 44.8968 3.72666 44.7253 3.51654 44.5966Z" fill="#EBF9F5"/>
<path d="M0.0645752 39.4284V33.2792C0.0645752 34.8744 1.09373 36.4653 3.14776 37.7003C7.38018 40.2474 14.387 40.3203 18.7953 37.8589C21.0637 36.5939 22.2258 34.9044 22.2001 33.2148V39.3641C22.2001 41.0536 21.068 42.7431 18.7953 44.0081C14.387 46.4696 7.38018 46.3967 3.14776 43.8495C1.09373 42.6145 0.0731515 41.0236 0.0645752 39.4284Z" fill="#EBF9F5"/>
<path d="M0.0471698 33.2803L0 18.3661C0 19.957 1.02487 21.5479 3.0789 22.7872C7.31131 25.3343 14.3182 25.403 18.7264 22.9458C20.9991 21.6594 22.1569 19.987 22.1312 18.3018L22.1741 33.2074C22.1741 34.8969 21.0377 36.5865 18.7693 37.8515C14.3696 40.3215 7.36277 40.2357 3.13036 37.7014C1.07633 36.4664 0.0514579 34.8755 0.0471698 33.2803Z" fill="#0ABB92"/>
<path d="M22.0926 15.145C22.0926 14.9777 22.0369 14.7547 22.0111 14.5875C21.9704 14.3233 21.9102 14.0624 21.831 13.8071C21.6241 13.079 21.3166 12.3834 20.9176 11.7402C20.7333 11.4443 20.4588 11.0669 20.2444 10.7925C20.0379 10.5361 19.8175 10.2913 19.584 10.0592C19.4297 9.91341 19.2281 9.72044 19.0695 9.57893C18.9108 9.43742 18.735 9.3002 18.5849 9.18871C18.289 8.95715 17.8688 8.687 17.5557 8.48545C17.3156 8.34394 16.9897 8.16384 16.741 8.05664C16.5737 7.97087 16.3465 7.86796 16.1749 7.79077C16.0034 7.71358 15.6647 7.58494 15.446 7.50346C15.2273 7.42199 14.9914 7.3448 14.7899 7.28906C14.4382 7.19043 13.9623 7.07894 13.6063 6.99746C13.4219 6.95887 13.1775 6.92027 12.9888 6.89455C12.8002 6.86882 12.56 6.83451 12.3928 6.82165C12.0412 6.79592 11.5695 6.76161 11.2135 6.75732C11.0377 6.75732 10.7847 6.75732 10.6218 6.75732C10.4588 6.75732 10.193 6.77876 10.03 6.78734C9.86706 6.79592 9.60119 6.83022 9.42109 6.85166C9.13807 6.88168 8.48198 6.99317 8.18181 7.06607C7.9674 7.12182 7.6801 7.18614 7.46998 7.25046C7.10977 7.36195 6.63807 7.52062 6.28644 7.65355C6.04202 7.74789 5.72469 7.89798 5.48885 8.00947C5.253 8.12096 5.08576 8.2153 4.91852 8.30964C4.61406 8.47688 4.21526 8.73845 3.92796 8.92713C3.58953 9.16786 3.26458 9.42696 2.95454 9.70329C2.70775 9.91895 2.47298 10.148 2.25128 10.3894C2.1355 10.5266 1.97255 10.7024 1.86535 10.8439C1.67861 11.0749 1.50399 11.3153 1.34219 11.5644C1.18444 11.7968 1.04123 12.0389 0.913378 12.2891C0.84048 12.4434 0.733275 12.645 0.668953 12.8036C0.561335 13.0486 0.466861 13.2991 0.385934 13.5541C0.334477 13.717 0.270154 13.9314 0.231561 14.0987C0.192967 14.2659 0.11578 14.639 0.0771869 14.8748C0.0321217 15.2492 0.00635864 15.6256 0 16.0026C0 17.5935 1.02916 19.1844 3.08319 20.4237C7.31131 22.9666 14.3182 23.0395 18.7307 20.5781C20.9991 19.3131 22.1612 17.6235 22.1355 15.934C22.1312 15.6981 22.114 15.3637 22.0926 15.145Z" fill="#EBF9F5"/>
<path d="M0 18.3646V15.9932C0 17.5927 1.02916 19.1836 3.08319 20.4229C7.31131 22.9658 14.3182 23.0387 18.7307 20.5773C20.9991 19.3123 22.1612 17.6227 22.1355 15.9375V18.3089C22.1355 19.9941 21.0034 21.6836 18.7307 22.9529C14.3225 25.41 7.3156 25.3414 3.08319 22.7943C1.03345 21.555 0 19.9641 0 18.3646Z" fill="#EBF9F5"/>
<path d="M15.4857 1.68915C17.8442 3.10853 17.7627 5.36839 15.3056 6.7406C12.8485 8.11281 8.94199 8.07422 6.5835 6.65055C4.22501 5.22688 4.28933 2.97131 6.7636 1.59909C9.23787 0.226883 13.1272 0.269765 15.4857 1.68915Z" fill="white"/>
<path d="M3.55762 9.29565V5.26477C3.55762 6.34539 4.2523 7.40885 5.64166 8.26649C8.50615 9.98175 13.2446 10.0332 16.2248 8.37369C17.76 7.51606 18.5319 6.37112 18.5276 5.23047V9.26134C18.5276 10.4063 17.76 11.5469 16.2248 12.4046C13.2231 14.0684 8.50615 14.0169 5.64166 12.2974C4.2523 11.4526 3.56191 10.3763 3.55762 9.29565Z" fill="#0ABB92"/>
<path d="M6.12406 1.52614C6.24842 1.45753 6.41137 1.36747 6.55288 1.30744C6.69439 1.24741 6.90879 1.1402 7.06746 1.08446C7.34619 0.977252 7.72354 0.852895 8.01085 0.762844C8.16951 0.715674 8.38392 0.664216 8.54687 0.625623C8.97569 0.531283 9.49884 0.454096 9.59318 0.44552C9.68752 0.436944 9.96625 0.402639 10.1249 0.394062C10.2836 0.385486 10.4851 0.355469 10.6438 0.355469C10.8024 0.355469 11.0126 0.355469 11.1755 0.355469C11.4928 0.355469 11.9174 0.389774 12.2347 0.415503C12.3891 0.415503 12.5992 0.458385 12.7536 0.479825C12.9079 0.501266 13.3882 0.578453 13.7784 0.677081C13.9285 0.715674 14.1386 0.767132 14.2887 0.81859C14.5674 0.908642 14.9362 1.04157 15.2064 1.14878C15.3522 1.20881 15.5366 1.29458 15.6738 1.36747C15.811 1.44037 16.0168 1.55187 16.1626 1.63334C16.0544 1.58086 15.934 1.55836 15.8141 1.56816C15.6942 1.57796 15.5791 1.61972 15.4808 1.68909C13.1223 0.269706 9.22011 0.231112 6.75871 1.59904C4.2973 2.96696 4.22012 5.23111 6.5786 6.65049C8.93709 8.06987 12.8436 8.10846 15.3007 6.74054C17.7578 5.37262 17.8393 3.10847 15.4808 1.68909C15.5799 1.62108 15.6954 1.58085 15.8153 1.57255C15.9352 1.56426 16.0551 1.58821 16.1626 1.64192C16.2656 1.71053 16.4114 1.79629 16.5143 1.86919C16.7072 2.0107 16.9431 2.20367 17.1361 2.36233C17.4053 2.60266 17.6443 2.8748 17.8479 3.17279C17.9585 3.34023 18.0601 3.51343 18.1524 3.69166C18.2221 3.83088 18.2837 3.97407 18.3367 4.12047C18.3828 4.26097 18.42 4.40418 18.4482 4.54929C18.4482 4.62648 18.4825 4.73368 18.4911 4.81516C18.4997 4.89663 18.5168 5.10246 18.5168 5.24397C18.5168 6.38462 17.7493 7.52956 16.2141 8.38719C13.2338 10.0467 8.49541 9.99954 5.63092 8.27999C4.24156 7.4438 3.55116 6.36747 3.54688 5.27828C3.54688 5.11533 3.56832 4.89663 3.58976 4.73797C3.61322 4.57538 3.64906 4.41483 3.69696 4.2577C3.81568 3.8702 3.99516 3.50401 4.22869 3.17279C4.34064 3.00863 4.46387 2.85245 4.59747 2.70538C4.74756 2.54672 4.96197 2.34518 5.12492 2.20367C5.28707 2.06937 5.45595 1.94342 5.63092 1.82631C5.78963 1.71721 5.95426 1.617 6.12406 1.52614V1.52614Z" fill="#EBF9F5"/>
<path d="M18.9005 44.3279V35.0086C18.9005 36.0753 19.5904 37.1356 20.9573 37.9596C23.7805 39.6586 28.4561 39.7034 31.3944 38.0618C32.9082 37.2186 33.6683 36.0944 33.6683 34.9639V44.2832C33.6683 45.4073 32.9082 46.5379 31.3944 47.3811C28.4561 49.0226 23.7805 48.9715 20.9573 47.2725C19.5904 46.4485 18.9069 45.3882 18.9005 44.3279Z" fill="#0ABB92"/>
<path d="M18.1901 35.0148V31.5017C18.1901 32.6643 18.9374 33.8268 20.4384 34.7274C23.5236 36.5862 28.6399 36.6436 31.8592 34.8424C33.5135 33.9226 34.3439 32.6898 34.3439 31.457V34.9637C34.3439 36.1965 33.5199 37.4293 31.8592 38.3555C28.6655 40.1503 23.5555 40.0992 20.4384 38.2405C18.9438 37.3335 18.1965 36.1774 18.1901 35.0148Z" fill="#EBF9F5"/>
<path d="M32.096 28.231C35.1875 30.0898 35.0789 33.0472 31.8596 34.842C28.6404 36.6369 23.556 36.5858 20.4453 34.7271C17.3346 32.8683 17.456 29.9109 20.6752 28.1161C23.8945 26.3212 29.0045 26.3723 32.096 28.231Z" fill="white"/>
</svg>
