<svg width="70" height="70" viewBox="0 0 70 70" fill="none" xmlns="http://www.w3.org/2000/svg">
<path d="M20.3865 57.3511H48.0063C50.5858 57.3511 52.685 59.4503 52.685 62.0298C52.685 62.7078 52.1368 63.256 51.4588 63.256H16.934C16.256 63.256 15.7078 62.7078 15.7078 62.0298C15.7078 59.4503 17.807 57.3511 20.3865 57.3511Z" fill="#121212" stroke="#B3B6B9"/>
<path fill-rule="evenodd" clip-rule="evenodd" d="M56.6633 13.0341L63.5683 33.7489C63.6033 33.8539 63.6614 34.2664 63.6392 34.4759C63.5401 39.1498 59.7233 42.9263 55.0263 42.9263C50.4066 42.9263 46.4973 39.2737 46.408 34.4564C46.3872 34.2375 46.46 33.8225 46.4845 33.7489L52.3247 16.2287C50.3724 16.7091 48.3857 16.9771 46.3952 16.9771C43.8906 16.9771 41.2736 16.5795 38.8455 15.8191C38.4846 16.5649 37.9534 17.2071 37.2977 17.7018L40.4674 46.4939H27.9256L31.0953 17.7018C30.4396 17.2071 29.9086 16.565 29.5476 15.8191C27.1195 16.5795 24.5025 16.9771 21.9978 16.9771C20.0074 16.9771 18.0207 16.7091 16.0683 16.2287L21.9085 33.7489C21.9434 33.8539 22.0016 34.2664 21.9795 34.4759C21.8804 39.1498 18.0636 42.9263 13.3666 42.9263C8.74699 42.9263 4.83763 39.2737 4.74833 34.4562C4.7275 34.2374 4.80035 33.8224 4.82486 33.7488L11.7298 13.034C11.7317 13.028 11.7361 13.0244 11.7405 13.0206C11.7428 13.0187 11.7451 13.0167 11.7471 13.0144C11.7488 13.0125 11.7502 13.0104 11.7511 13.0078C11.755 12.997 11.7559 12.986 11.7568 12.975C11.7578 12.9631 11.7588 12.9512 11.7635 12.9396C12.1175 12.0513 13.129 11.6197 14.0073 11.9771C18.8729 13.9246 24.2994 13.9667 29.2166 12.2379C29.6604 10.5962 30.8821 9.28595 32.4703 8.71951V6.56021C32.4703 5.60608 33.2424 4.83398 34.1966 4.83398C35.1507 4.83398 35.9228 5.60608 35.9228 6.56021V8.71964C37.511 9.28607 38.7328 10.5963 39.1765 12.238C44.0937 13.9668 49.5203 13.9247 54.3859 11.9772C55.2658 11.6214 56.2756 12.053 56.6296 12.9397C56.6343 12.9513 56.6353 12.9632 56.6363 12.9751C56.6373 12.9861 56.6382 12.9971 56.642 13.008C56.6441 13.0135 56.6484 13.0172 56.6526 13.0207C56.657 13.0244 56.6614 13.0282 56.6633 13.0341ZM8.85596 32.569H17.877L13.3665 19.0389L8.85596 32.569ZM34.1965 15.3064C33.244 15.3064 32.4702 14.5326 32.4702 13.5802C32.4702 12.6277 33.244 11.8539 34.1965 11.8539C35.1489 11.8539 35.9227 12.6277 35.9227 13.5802C35.9227 14.5326 35.1489 15.3064 34.1965 15.3064ZM55.0264 19.0389L50.5159 32.569H59.5368L55.0264 19.0389Z" fill="#121212"/>
<path d="M63.5683 33.7489L63.0939 33.907L63.094 33.9071L63.5683 33.7489ZM56.6633 13.0341L56.1881 13.1896L56.189 13.1922L56.6633 13.0341ZM63.6392 34.4759L63.142 34.4232L63.1397 34.4442L63.1393 34.4653L63.6392 34.4759ZM46.408 34.4564L46.9079 34.4471L46.9075 34.428L46.9057 34.409L46.408 34.4564ZM46.4845 33.7489L46.0102 33.5908L46.0102 33.5908L46.4845 33.7489ZM52.3247 16.2287L52.7991 16.3868L53.0859 15.5264L52.2052 15.7432L52.3247 16.2287ZM38.8455 15.8191L38.9949 15.3419L38.5833 15.213L38.3954 15.6013L38.8455 15.8191ZM37.2977 17.7018L36.9966 17.3027L36.7696 17.4739L36.8007 17.7565L37.2977 17.7018ZM40.4674 46.4939V46.9939H41.0255L40.9644 46.4392L40.4674 46.4939ZM27.9256 46.4939L27.4286 46.4392L27.3675 46.9939H27.9256V46.4939ZM31.0953 17.7018L31.5923 17.7565L31.6234 17.4739L31.3965 17.3027L31.0953 17.7018ZM29.5476 15.8191L29.9977 15.6013L29.8098 15.213L29.3981 15.3419L29.5476 15.8191ZM16.0683 16.2287L16.1878 15.7432L15.3072 15.5264L15.594 16.3868L16.0683 16.2287ZM21.9085 33.7489L22.383 33.5913L22.3829 33.5908L21.9085 33.7489ZM21.9795 34.4759L21.4823 34.4235L21.4801 34.4444L21.4796 34.4653L21.9795 34.4759ZM4.74833 34.4562L5.24824 34.447L5.24789 34.4279L5.24608 34.4089L4.74833 34.4562ZM4.82486 33.7488L4.35052 33.5907L4.35051 33.5907L4.82486 33.7488ZM11.7298 13.034L12.2042 13.1921L12.2052 13.1891L11.7298 13.034ZM11.7405 13.0206L11.4182 12.6384L11.4171 12.6393L11.7405 13.0206ZM11.7471 13.0144L11.3692 12.687L11.3683 12.6881L11.7471 13.0144ZM11.7511 13.0078L12.2193 13.1835L12.222 13.176L11.7511 13.0078ZM11.7568 12.975L11.2586 12.9333L11.2586 12.9333L11.7568 12.975ZM11.7635 12.9396L12.2266 13.1283L12.228 13.1247L11.7635 12.9396ZM14.0073 11.9771L13.8189 12.4402L13.8215 12.4412L14.0073 11.9771ZM29.2166 12.2379L29.3824 12.7096L29.6306 12.6224L29.6993 12.3684L29.2166 12.2379ZM32.4703 8.71951L32.6383 9.19046L32.9703 9.07204V8.71951H32.4703ZM35.9228 8.71964H35.4228V9.07215L35.7548 9.19058L35.9228 8.71964ZM39.1765 12.238L38.6939 12.3685L38.7625 12.6225L39.0107 12.7097L39.1765 12.238ZM54.3859 11.9772L54.5717 12.4414L54.5733 12.4407L54.3859 11.9772ZM56.6296 12.9397L56.1653 13.1251L56.1665 13.1283L56.6296 12.9397ZM56.6363 12.9751L57.1346 12.9335L57.1346 12.9334L56.6363 12.9751ZM56.642 13.008L56.1711 13.1761L56.1737 13.183L56.642 13.008ZM56.6526 13.0207L56.9755 12.639L56.9751 12.6386L56.6526 13.0207ZM17.877 32.569V33.069H18.5708L18.3514 32.4108L17.877 32.569ZM8.85596 32.569L8.38162 32.4108L8.16222 33.069H8.85596V32.569ZM13.3665 19.0389L13.8408 18.8808L13.3665 17.458L12.8922 18.8808L13.3665 19.0389ZM50.5159 32.569L50.0415 32.4108L49.8221 33.069H50.5159V32.569ZM55.0264 19.0389L55.5008 18.8808L55.0264 17.458L54.5521 18.8808L55.0264 19.0389ZM59.5368 32.569V33.069H60.2306L60.0112 32.4108L59.5368 32.569ZM64.0426 33.5908L57.1377 12.876L56.189 13.1922L63.0939 33.907L64.0426 33.5908ZM64.1364 34.5286C64.1535 34.3669 64.1389 34.1663 64.122 34.0169C64.1058 33.8737 64.0783 33.6978 64.0426 33.5908L63.094 33.9071C63.0903 33.8961 63.0954 33.9109 63.1049 33.9644C63.1129 34.0098 63.1213 34.0675 63.1284 34.1295C63.1437 34.265 63.147 34.3754 63.142 34.4232L64.1364 34.5286ZM55.0263 43.4263C59.9975 43.4263 64.0343 39.4301 64.1391 34.4865L63.1393 34.4653C63.0459 38.8694 59.449 42.4263 55.0263 42.4263V43.4263ZM45.9081 34.4656C46.0026 39.5621 50.1408 43.4263 55.0263 43.4263V42.4263C50.6725 42.4263 46.992 38.9853 46.9079 34.4471L45.9081 34.4656ZM46.0102 33.5908C45.9812 33.6777 45.9521 33.843 45.9336 33.9822C45.9143 34.1273 45.8941 34.3338 45.9102 34.5037L46.9057 34.409C46.9011 34.36 46.9068 34.2496 46.9249 34.1141C46.933 34.0527 46.9424 33.9961 46.9506 33.9525C46.9609 33.8982 46.9647 33.8894 46.9589 33.907L46.0102 33.5908ZM51.8504 16.0706L46.0102 33.5908L46.9589 33.907L52.7991 16.3868L51.8504 16.0706ZM46.3952 17.4771C48.4305 17.4771 50.4575 17.2031 52.4442 16.7142L52.2052 15.7432C50.2872 16.2152 48.3408 16.4771 46.3952 16.4771V17.4771ZM38.696 16.2962C41.1725 17.0718 43.8398 17.4771 46.3952 17.4771V16.4771C43.9413 16.4771 41.3747 16.0873 38.9949 15.3419L38.696 16.2962ZM37.5988 18.101C38.3172 17.559 38.8997 16.8549 39.2955 16.0368L38.3954 15.6013C38.0694 16.2749 37.5897 16.8552 36.9966 17.3027L37.5988 18.101ZM40.9644 46.4392L37.7947 17.6471L36.8007 17.7565L39.9704 46.5486L40.9644 46.4392ZM27.9256 46.9939H40.4674V45.9939H27.9256V46.9939ZM30.5983 17.6471L27.4286 46.4392L28.4226 46.5486L31.5923 17.7565L30.5983 17.6471ZM29.0975 16.0369C29.4935 16.855 30.0758 17.559 30.7942 18.101L31.3965 17.3027C30.8034 16.8552 30.3237 16.2751 29.9977 15.6013L29.0975 16.0369ZM21.9978 17.4771C24.5532 17.4771 27.2206 17.0718 29.697 16.2962L29.3981 15.3419C27.0183 16.0873 24.4517 16.4771 21.9978 16.4771V17.4771ZM15.9488 16.7142C17.9356 17.2031 19.9625 17.4771 21.9978 17.4771V16.4771C20.0522 16.4771 18.1058 16.2152 16.1878 15.7432L15.9488 16.7142ZM22.3829 33.5908L16.5427 16.0706L15.594 16.3868L21.4342 33.907L22.3829 33.5908ZM22.4768 34.5283C22.4938 34.3667 22.4791 34.1661 22.4622 34.0168C22.4459 33.8736 22.4185 33.698 22.383 33.5913L21.434 33.9066C21.4305 33.8959 21.4356 33.9108 21.4451 33.9643C21.4531 34.0099 21.4615 34.0675 21.4686 34.1295C21.4839 34.2651 21.4873 34.3756 21.4823 34.4235L22.4768 34.5283ZM13.3666 43.4263C18.3378 43.4263 22.3746 39.4301 22.4794 34.4865L21.4796 34.4653C21.3863 38.8694 17.7894 42.4263 13.3666 42.4263V43.4263ZM4.24841 34.4655C4.34289 39.5621 8.48117 43.4263 13.3666 43.4263V42.4263C9.0128 42.4263 5.33237 38.9853 5.24824 34.447L4.24841 34.4655ZM4.35051 33.5907C4.32155 33.6776 4.29249 33.8428 4.27396 33.9821C4.25465 34.1272 4.23441 34.3337 4.25058 34.5036L5.24608 34.4089C5.24142 34.3599 5.24719 34.2495 5.26522 34.114C5.27339 34.0526 5.28271 33.996 5.29094 33.9524C5.3012 33.8981 5.30509 33.8893 5.29921 33.9069L4.35051 33.5907ZM11.2555 12.8759L4.35052 33.5907L5.2992 33.9069L12.2042 13.1921L11.2555 12.8759ZM11.4171 12.6393C11.417 12.6394 11.4147 12.6413 11.4123 12.6434C11.4096 12.6457 11.4056 12.6492 11.4007 12.6536C11.3913 12.6622 11.3764 12.6764 11.3598 12.6952C11.3247 12.7348 11.2817 12.7955 11.2545 12.8789L12.2052 13.1891C12.1799 13.2665 12.14 13.3224 12.1087 13.3578C12.0827 13.3872 12.0565 13.4083 12.0639 13.402L11.4171 12.6393ZM11.3683 12.6881C11.3837 12.6702 11.3973 12.6571 11.4056 12.6495C11.4132 12.6425 11.4195 12.6373 11.4182 12.6384L12.0628 13.4029C12.0638 13.402 12.0724 13.3948 12.0823 13.3857C12.0928 13.3761 12.1086 13.3609 12.126 13.3407L11.3683 12.6881ZM11.283 12.8322C11.3069 12.7684 11.3403 12.7203 11.3692 12.687L12.125 13.3418C12.1572 13.3047 12.1934 13.2523 12.2192 13.1835L11.283 12.8322ZM11.2586 12.9333C11.2579 12.9415 11.2586 12.9304 11.2607 12.9167C11.2631 12.9007 11.2683 12.873 11.2802 12.8397L12.222 13.176C12.2512 13.0941 12.2549 13.0183 12.2551 13.0166L11.2586 12.9333ZM11.3005 12.7509C11.2625 12.8443 11.2587 12.932 11.2586 12.9333L12.2551 13.0167C12.2558 13.0075 12.255 13.0211 12.2522 13.0377C12.249 13.0573 12.2422 13.0899 12.2266 13.1283L11.3005 12.7509ZM14.1957 11.5139C13.0585 11.0513 11.7551 11.6101 11.2991 12.7545L12.228 13.1247C12.48 12.4924 13.1994 12.1882 13.8189 12.4402L14.1957 11.5139ZM29.0508 11.7662C24.2433 13.4564 18.9419 13.4136 14.1931 11.5129L13.8215 12.4412C18.8039 14.4355 24.3554 14.477 29.3824 12.7096L29.0508 11.7662ZM32.3024 8.24857C30.5607 8.86972 29.2207 10.3065 28.7339 12.1075L29.6993 12.3684C30.1 10.8858 31.2034 9.70218 32.6383 9.19046L32.3024 8.24857ZM31.9703 6.56021V8.71951H32.9703V6.56021H31.9703ZM34.1966 4.33398C32.9663 4.33398 31.9703 5.32994 31.9703 6.56021H32.9703C32.9703 5.88222 33.5186 5.33398 34.1966 5.33398V4.33398ZM36.4228 6.56021C36.4228 5.32993 35.4269 4.33398 34.1966 4.33398V5.33398C34.8746 5.33398 35.4228 5.88222 35.4228 6.56021H36.4228ZM36.4228 8.71964V6.56021H35.4228V8.71964H36.4228ZM39.6592 12.1076C39.1724 10.3066 37.8323 8.86984 36.0908 8.24869L35.7548 9.19058C37.1896 9.70231 38.2931 10.886 38.6939 12.3685L39.6592 12.1076ZM54.2001 11.513C49.4513 13.4138 44.1498 13.4565 39.3424 11.7663L39.0107 12.7097C44.0376 14.4771 49.5893 14.4357 54.5717 12.4414L54.2001 11.513ZM57.094 12.7543C56.6378 11.6116 55.3364 11.0535 54.1984 11.5136L54.5733 12.4407C55.1951 12.1893 55.9135 12.4944 56.1653 13.1251L57.094 12.7543ZM57.1346 12.9334C57.1345 12.9323 57.1307 12.8445 57.0927 12.7511L56.1665 13.1283C56.1509 13.0898 56.1441 13.0572 56.1409 13.0377C56.1382 13.0211 56.1373 13.0076 56.1381 13.0168L57.1346 12.9334ZM57.1129 12.8398C57.1248 12.8731 57.13 12.9008 57.1325 12.9169C57.1345 12.9306 57.1353 12.9417 57.1346 12.9335L56.1381 13.0167C56.1382 13.0185 56.1419 13.0942 56.1712 13.1761L57.1129 12.8398ZM56.9751 12.6386C56.969 12.6335 56.9929 12.6527 57.0172 12.6795C57.0459 12.7112 57.0839 12.7619 57.1104 12.833L56.1737 13.183C56.2023 13.2596 56.2435 13.3149 56.2759 13.3507C56.2914 13.3678 56.3053 13.3809 56.3142 13.3889C56.3225 13.3964 56.3299 13.4027 56.3301 13.4028L56.9751 12.6386ZM57.1385 12.8785C57.1113 12.7953 57.0683 12.7347 57.0334 12.6953C57.0168 12.6765 57.0019 12.6624 56.9923 12.6537C56.9835 12.6457 56.9755 12.639 56.9755 12.639L56.3297 13.4025C56.3366 13.4083 56.3105 13.3874 56.2844 13.3579C56.2533 13.3227 56.2135 13.267 56.1881 13.1896L57.1385 12.8785ZM17.877 32.069H8.85596V33.069H17.877V32.069ZM12.8922 19.1971L17.4027 32.7271L18.3514 32.4108L13.8408 18.8808L12.8922 19.1971ZM9.33029 32.7271L13.8408 19.1971L12.8922 18.8808L8.38162 32.4108L9.33029 32.7271ZM31.9702 13.5802C31.9702 14.8087 32.9679 15.8064 34.1965 15.8064V14.8064C33.5202 14.8064 32.9702 14.2565 32.9702 13.5802H31.9702ZM34.1965 11.3539C32.9679 11.3539 31.9702 12.3516 31.9702 13.5802H32.9702C32.9702 12.9039 33.5202 12.3539 34.1965 12.3539V11.3539ZM36.4227 13.5802C36.4227 12.3516 35.425 11.3539 34.1965 11.3539V12.3539C34.8727 12.3539 35.4227 12.9039 35.4227 13.5802H36.4227ZM34.1965 15.8064C35.425 15.8064 36.4227 14.8087 36.4227 13.5802H35.4227C35.4227 14.2565 34.8727 14.8064 34.1965 14.8064V15.8064ZM50.9902 32.7271L55.5008 19.1971L54.5521 18.8808L50.0415 32.4108L50.9902 32.7271ZM59.5368 32.069H50.5159V33.069H59.5368V32.069ZM54.5521 19.1971L59.0625 32.7271L60.0112 32.4108L55.5008 18.8808L54.5521 19.1971Z" fill="#0ABB92"/>
<path d="M27.2917 50.3213H41.1016C42.9909 50.3213 44.6173 51.4259 45.3981 53.0238H22.9951C23.7759 51.4259 25.4023 50.3213 27.2917 50.3213Z" fill="#121212" stroke="#B3B6B9" stroke-width="0.75"/>
<path fill-rule="evenodd" clip-rule="evenodd" d="M23.625 21C34.7397 21 43.75 30.0103 43.75 41.125C43.75 52.2397 34.7397 61.25 23.625 61.25C12.5103 61.25 3.5 52.2397 3.5 41.125C3.5 30.0103 12.5103 21 23.625 21Z" fill="#5367FF" fill-opacity="0.12"/>
<path fill-rule="evenodd" clip-rule="evenodd" d="M51.625 10.5C56.9407 10.5 61.25 14.8093 61.25 20.125C61.25 25.4407 56.9407 29.75 51.625 29.75C46.3093 29.75 42 25.4407 42 20.125C42 14.8093 46.3093 10.5 51.625 10.5Z" fill="#5367FF" fill-opacity="0.12"/>
</svg>
