<svg xmlns="http://www.w3.org/2000/svg" width="62" height="61" viewBox="0 0 62 61">
    <g fill="none" fill-rule="evenodd">
        <g transform="translate(-3 -3)">
            <g fill="#FFF" fill-rule="nonzero">
                <path stroke="#1D4B70" stroke-width="1.12" d="M48.006 57.411h-27.62a4.624 4.624 0 0 0-4.618 4.619c0 .645.521 1.166 1.166 1.166h34.525c.645 0 1.166-.521 1.166-1.166a4.624 4.624 0 0 0-4.619-4.619z"/>
                <path stroke="#66C4AC" stroke-width="2.24" d="M63.568 33.749l-6.905-20.715c-.004-.012-.017-.015-.021-.026-.008-.023-.003-.046-.013-.068a1.726 1.726 0 0 0-2.243-.963c-4.866 1.948-10.292 1.99-15.21.26a5.17 5.17 0 0 0-3.253-3.518V6.56a1.725 1.725 0 1 0-3.453 0v2.16a5.17 5.17 0 0 0-3.254 3.518c-4.917 1.729-10.343 1.686-15.209-.261a1.724 1.724 0 0 0-2.244.962c-.009.023-.004.046-.012.069-.004.011-.018.014-.021.026L4.825 33.749c-.025.073-.098.488-.077.707.09 4.818 3.999 8.47 8.618 8.47 4.697 0 8.514-3.776 8.613-8.45a2.645 2.645 0 0 0-.07-.727l-5.84-17.52c1.952.48 3.938.748 5.929.748a25.62 25.62 0 0 0 7.55-1.158 5.186 5.186 0 0 0 1.547 1.883l-3.17 28.792h12.542l-3.17-28.792a5.186 5.186 0 0 0 1.548-1.883 25.62 25.62 0 0 0 7.55 1.158c1.99 0 3.977-.268 5.93-.749l-5.84 17.52c-.025.074-.098.49-.077.708.09 4.818 3.998 8.47 8.618 8.47 4.697 0 8.514-3.776 8.613-8.45a2.637 2.637 0 0 0-.07-.727zm-45.691-1.18H8.856l4.51-13.53 4.511 13.53zm16.32-17.263a1.727 1.727 0 0 1 0-3.452 1.727 1.727 0 0 1 0 3.452zM50.515 32.57l4.51-13.53 4.51 13.53h-9.02z"/>
                <path stroke="#1D4B70" stroke-width="1.12" d="M23.301 52.839h21.79a4.595 4.595 0 0 0-3.99-2.333h-13.81a4.595 4.595 0 0 0-3.99 2.333z"/>
            </g>
            <path d="M0 0h70v70H0z"/>
            <circle cx="23.625" cy="41.125" r="20.125" fill="#0070A8" fill-opacity=".1" transform="matrix(1 0 0 -1 0 82.25)"/>
            <circle cx="51.625" cy="20.125" r="9.625" fill="#0070A8" fill-opacity=".1" transform="matrix(1 0 0 -1 0 40.25)"/>
        </g>
    </g>
</svg>
