<svg xmlns="http://www.w3.org/2000/svg" width="64" height="60" viewBox="0 0 64 60">
    <g fill="none" fill-rule="evenodd">
        <g transform="translate(-1 -3)">
            <g fill="#FFF" fill-rule="nonzero">
                <path stroke="#66C4AC" stroke-width="2.24" d="M58.477 54.519H9.912c-2.268 0-4.059 1.567-4.059 3.412v3.022c0 .18.24.39.606.39h55.47c.366 0 .606-.21.606-.39V57.93c0-1.845-1.79-3.412-4.058-3.412zM42.932 37.141h-3.666a45.826 45.826 0 0 0-.022 11.685h3.71a45.83 45.83 0 0 0-.022-11.685zM56.857 37.141H53.19a45.826 45.826 0 0 0-.022 11.685h3.71c.491-3.856.484-7.827-.022-11.685zM29.122 37.141h-3.666a45.826 45.826 0 0 0-.022 11.685h3.71a45.83 45.83 0 0 0-.022-11.685zM15.197 37.141h-3.665a45.842 45.842 0 0 0-.023 11.685h3.71a45.826 45.826 0 0 0-.022-11.685z"/>
                <path stroke="#1D4B70" stroke-width="1.12" d="M35.11 5.097a1.725 1.725 0 0 0-1.831 0L6.079 22.21h56.23l-27.2-17.114zm-.916 13.662a1.726 1.726 0 1 1 0-3.453 1.726 1.726 0 0 1 0 3.453z"/>
                <path stroke="#66C4AC" stroke-width="2.24" d="M5.853 26.784v.606a4.064 4.064 0 0 0 4.059 4.059h48.565a4.064 4.064 0 0 0 4.058-4.059v-.606H5.853z"/>
            </g>
            <path d="M0 0h70v70H0z"/>
            <circle cx="39.375" cy="23.625" r="20.125" fill="#0070A8" fill-opacity=".1" transform="matrix(-1 0 0 1 78.75 0)"/>
            <circle cx="11.375" cy="44.625" r="9.625" fill="#0070A8" fill-opacity=".1" transform="matrix(-1 0 0 1 22.75 0)"/>
        </g>
    </g>
</svg>
