<svg width="37" height="49" viewBox="0 0 37 49" fill="none" xmlns="http://www.w3.org/2000/svg">
<path d="M32.0656 30.2316L32.034 2.21631C32.0231 2.28082 31.9972 2.34185 31.9583 2.39446C31.9194 2.44707 31.8687 2.48976 31.8102 2.51908V2.58753L10.8981 14.8115C9.42374 15.4407 9.7976 17.0862 10.8981 17.7391H10.9139C11.5832 18.1362 12.3462 18.348 13.1245 18.3526C13.9027 18.3572 14.6682 18.1546 15.3422 17.7654L31.8628 8.20059L32.0656 30.2316Z" fill="#0ABB92"/>
<path d="M35.6719 4.10296C35.5055 4.00658 35.3166 3.95582 35.1243 3.95582C34.932 3.95582 34.7431 4.00658 34.5767 4.10296L13.8884 16.09C13.3826 16.3833 12.8076 16.5361 12.2229 16.5324C11.6382 16.5287 11.0652 16.3687 10.5632 16.0689V16.0689C10.4721 16.0145 10.3967 15.9373 10.3443 15.845C10.292 15.7527 10.2644 15.6484 10.2644 15.5423C10.2644 15.4362 10.292 15.3319 10.3443 15.2396C10.3967 15.1474 10.4721 15.0702 10.5632 15.0158L31.8254 2.58649C31.8866 2.55078 31.9374 2.49966 31.9726 2.43822C32.0079 2.37678 32.0265 2.30718 32.0265 2.23633C32.0265 2.16549 32.0079 2.09588 31.9726 2.03444C31.9374 1.97301 31.8866 1.92189 31.8254 1.88617V1.88617C31.6809 1.80148 31.5164 1.75684 31.3489 1.75684C31.1814 1.75684 31.0169 1.80148 30.8723 1.88617L10.0235 14.0891C9.77404 14.2364 9.56731 14.4462 9.42371 14.6979C9.28011 14.9495 9.20459 15.2342 9.20459 15.5239C9.20459 15.8136 9.28011 16.0983 9.42371 16.3499C9.56731 16.6016 9.77404 16.8114 10.0235 16.9588H10.0393C10.7021 17.3528 11.458 17.5628 12.2291 17.567C13.0002 17.5711 13.7584 17.3693 14.4255 16.9825L35.6824 4.67954C35.7343 4.64911 35.7773 4.60565 35.8072 4.55346C35.8371 4.50128 35.8528 4.44218 35.8528 4.38204C35.8528 4.32189 35.8371 4.2628 35.8072 4.21061C35.7773 4.15842 35.7343 4.11496 35.6824 4.08453L35.6719 4.10296Z" fill="white"/>
<path d="M35.6692 4.69692C35.7221 4.66733 35.7661 4.62415 35.7966 4.57183C35.8272 4.51952 35.8432 4.45999 35.843 4.39941L35.8851 32.4173C35.8855 32.5934 35.8395 32.7664 35.7517 32.9189C35.6638 33.0715 35.5373 33.1981 35.3849 33.2861L14.4149 45.4495C13.5062 45.9666 12.4428 46.1422 11.4161 45.9445C10.9256 45.8513 10.4552 45.6731 10.0261 45.4179C9.80233 45.2869 9.61271 45.1048 9.47271 44.8866C9.33271 44.6683 9.24627 44.4201 9.22042 44.1621C9.21123 44.0843 9.20598 44.0061 9.20464 43.9278V15.5229C9.20232 15.8128 9.27625 16.0982 9.41904 16.3505C9.56182 16.6028 9.76844 16.8131 10.0182 16.9604H10.0339C10.6969 17.3539 11.4529 17.5635 12.2238 17.5677C12.9948 17.5719 13.7529 17.3704 14.4201 16.984V16.984L35.6692 4.69692Z" fill="#66E3C4"/>
<path d="M36.6868 23.5387V16.2933C36.696 16.2127 36.6738 16.1316 36.6247 16.0669C36.5757 16.0022 36.5037 15.9588 36.4236 15.9458L35.8786 15.8721L32.5613 17.7993C30.4788 19.0103 29.1992 20.798 29.1992 23.644V23.6598C29.1999 24.0412 29.3013 24.4157 29.4931 24.7454C29.6849 25.0751 29.9604 25.3483 30.2916 25.5374C30.6229 25.7265 30.9982 25.8249 31.3796 25.8225C31.761 25.8201 32.135 25.7171 32.4639 25.5238L36.6868 23.5387Z" fill="white"/>
<path d="M36.6886 23.5V16.2651L33.3739 18.0738C31.2914 19.2849 30.0093 21.0936 30.0093 23.9212C30.0098 24.3032 30.111 24.6783 30.3025 25.0088C30.4941 25.3393 30.7694 25.6134 31.1006 25.8037C31.4318 25.994 31.8073 26.0937 32.1893 26.0928C32.5713 26.0918 32.9462 25.9903 33.2765 25.7984L36.4148 23.9739C36.4978 23.9256 36.5668 23.8565 36.6148 23.7734C36.6628 23.6903 36.6883 23.596 36.6886 23.5V23.5Z" fill="#66E3C4"/>
<path d="M34.3228 23.048C34.8009 22.0067 34.5736 20.8803 33.8151 20.5321C33.0566 20.1838 32.0541 20.7457 31.5761 21.7869C31.098 22.8282 31.3253 23.9547 32.0838 24.3029C32.8423 24.6511 33.8448 24.0893 34.3228 23.048Z" fill="white"/>
<path d="M32.6 1.30149C32.6001 1.0726 32.5399 0.847718 32.4253 0.649565C32.3107 0.451411 32.1459 0.287004 31.9474 0.172952C31.749 0.0589006 31.5239 -0.000756533 31.295 7.24264e-06C31.0661 0.000771018 30.8415 0.0619287 30.6438 0.177302L12.583 10.6794V16.5084C12.8762 16.4772 13.1639 16.4073 13.4387 16.3004V16.3004C13.5097 16.2714 13.5808 16.2451 13.6493 16.2109C13.7177 16.1766 13.8125 16.1345 13.8915 16.0898L31.6838 5.77983L32.6 5.25328V1.30149Z" fill="white"/>
<path d="M14.3587 12.2563L12.579 13.37V14.431L14.3587 13.3121V12.2563Z" fill="#0ABB92"/>
<path d="M14.0586 15.6258C13.7216 15.3941 13.2503 15.4705 12.6448 15.8549L12.579 15.9023V16.5078C12.8721 16.4766 13.1599 16.4067 13.4346 16.2998V16.2998C13.5057 16.2708 13.5768 16.2445 13.6453 16.2103C13.7137 16.1761 13.8085 16.1339 13.8875 16.0892L14.285 15.8575C14.2248 15.7667 14.148 15.6881 14.0586 15.6258V15.6258Z" fill="#0ABB92"/>
<path d="M19.5592 12.8064V11.9244C19.5592 10.9266 19.3749 10.2842 19.0326 9.99459C18.6904 9.70498 18.1717 9.7787 17.474 10.2131C16.7834 10.6316 16.2334 11.2467 15.8944 11.9797C15.5261 12.8242 15.3464 13.7388 15.3678 14.6599V15.2206L16.4209 14.6072V13.6884C16.4116 13.1502 16.5008 12.6148 16.6842 12.1087C16.8327 11.7238 17.1014 11.3969 17.4503 11.1767C17.8058 10.9529 18.0664 10.9477 18.2402 11.1609C18.4139 11.3742 18.485 11.8191 18.485 12.4957V13.4172L19.5592 12.8064Z" fill="#0ABB92"/>
<path d="M24.658 9.85725V8.6883C24.658 7.70628 24.4737 7.07705 24.1314 6.79797C23.7892 6.5189 23.2705 6.59525 22.5728 7.02966C21.8864 7.4463 21.3372 8.05499 20.9931 8.78045C20.6272 9.60897 20.4475 10.5077 20.4666 11.4132V12.2715L21.5197 11.6581V10.4549C21.5122 9.92712 21.6014 9.40244 21.783 8.90682C21.9331 8.52489 22.2016 8.20106 22.5491 7.98272C22.9045 7.75893 23.1652 7.75104 23.339 7.95902C23.5127 8.16701 23.5838 8.60142 23.5838 9.27541V10.4812L24.658 9.85725Z" fill="#0ABB92"/>
<path d="M30.6389 0.177302L29.104 1.06981C29.498 1.92292 30.2135 2.58547 31.0944 2.91275C31.5762 3.07833 32.0902 3.12882 32.5951 3.06018V1.30149C32.5952 1.0726 32.535 0.847719 32.4204 0.649565C32.3058 0.451411 32.141 0.287004 31.9425 0.172952C31.7441 0.0589006 31.519 -0.000756533 31.2901 7.24264e-06C31.0612 0.000771018 30.8366 0.0619287 30.6389 0.177302V0.177302Z" fill="#66E3C4"/>
<path d="M0 35.9917C0 40.8512 6.69061 44.7851 14.9407 44.7851C23.1908 44.7851 29.8814 40.8512 29.8814 35.9917V39.8602C29.8814 44.7196 23.1908 48.6535 14.9407 48.6535C6.69061 48.6535 0 44.7196 0 39.8602V35.9917Z" fill="#0ABB92"/>
<path d="M14.9407 44.7845C23.1922 44.7845 29.8814 40.8476 29.8814 35.9911C29.8814 31.1347 23.1922 27.1978 14.9407 27.1978C6.68918 27.1978 0 31.1347 0 35.9911C0 40.8476 6.68918 44.7845 14.9407 44.7845Z" fill="#66E3C4"/>
<path d="M14.9422 42.3791C20.9349 42.3791 25.793 39.5188 25.793 35.9903C25.793 32.4619 20.9349 29.6016 14.9422 29.6016C8.94941 29.6016 4.09131 32.4619 4.09131 35.9903C4.09131 39.5188 8.94941 42.3791 14.9422 42.3791Z" fill="white"/>
<path d="M15.2228 33.3848L15.1927 36.1667H7.81287" stroke="#0ABB92" stroke-width="1.5" stroke-linecap="round" stroke-linejoin="round"/>
</svg>
