<svg width="70" height="70" viewBox="0 0 70 70" fill="none" xmlns="http://www.w3.org/2000/svg">
<path d="M9.91163 53.8987H58.4765C61.1207 53.8987 63.1552 55.7685 63.1552 57.9312V60.9528C63.1552 61.4512 62.6716 61.9636 61.929 61.9636H6.45915C5.71646 61.9636 5.23291 61.4512 5.23291 60.9528V57.9312C5.23291 55.7685 7.26743 53.8987 9.91163 53.8987Z" fill="#121212" stroke="#0ABB92"/>
<path d="M38.701 49.4462C38.1061 45.1885 38.114 40.7806 38.7252 36.5212H43.4725C44.0837 40.7806 44.0916 45.1885 43.4969 49.4462H38.701Z" fill="#121212" stroke="#0ABB92"/>
<path d="M52.626 49.4462C52.0312 45.1885 52.0391 40.7806 52.6503 36.5212H57.397C58.008 40.7807 58.0166 45.1887 57.422 49.4462H52.626Z" fill="#121212" stroke="#0ABB92"/>
<path d="M24.8914 49.4462C24.2965 45.1885 24.3044 40.7806 24.9157 36.5212H29.6629C30.2742 40.7806 30.2821 45.1885 29.6873 49.4462H24.8914Z" fill="#121212" stroke="#0ABB92"/>
<path d="M10.9657 49.4462C10.3712 45.1887 10.3799 40.7807 10.9909 36.5212H15.7376C16.3488 40.7806 16.3567 45.1885 15.7619 49.4462H10.9657Z" fill="#121212" stroke="#0ABB92"/>
<path fill-rule="evenodd" clip-rule="evenodd" d="M33.2786 5.09699C33.8382 4.74632 34.5496 4.74632 35.1093 5.09699L62.3084 22.2115H6.07959L33.2786 5.09699ZM32.4675 17.0329C32.4675 17.9862 33.2404 18.7591 34.1938 18.7591C35.1471 18.7591 35.92 17.9862 35.92 17.0329C35.92 16.0795 35.1471 15.3066 34.1938 15.3066C33.2404 15.3066 32.4675 16.0795 32.4675 17.0329Z" fill="#121212"/>
<path d="M35.1093 5.09699L35.3756 4.6738L35.3748 4.6733L35.1093 5.09699ZM33.2786 5.09699L33.0131 4.6733L33.0123 4.6738L33.2786 5.09699ZM62.3084 22.2115V22.7115H64.0418L62.5746 21.7883L62.3084 22.2115ZM6.07959 22.2115L5.8133 21.7883L4.34613 22.7115H6.07959V22.2115ZM35.3748 4.6733C34.6528 4.22088 33.7351 4.22088 33.0131 4.6733L33.544 5.52069C33.9413 5.27175 34.4465 5.27175 34.8438 5.52069L35.3748 4.6733ZM62.5746 21.7883L35.3756 4.6738L34.843 5.52018L62.0421 22.6347L62.5746 21.7883ZM6.07959 22.7115H62.3084V21.7115H6.07959V22.7115ZM33.0123 4.6738L5.8133 21.7883L6.34588 22.6347L33.5448 5.52018L33.0123 4.6738ZM34.1938 18.2591C33.5166 18.2591 32.9675 17.7101 32.9675 17.0329H31.9675C31.9675 18.2624 32.9643 19.2591 34.1938 19.2591V18.2591ZM35.42 17.0329C35.42 17.7101 34.871 18.2591 34.1938 18.2591V19.2591C35.4233 19.2591 36.42 18.2624 36.42 17.0329H35.42ZM34.1938 15.8066C34.871 15.8066 35.42 16.3557 35.42 17.0329H36.42C36.42 15.8034 35.4233 14.8066 34.1938 14.8066V15.8066ZM32.9675 17.0329C32.9675 16.3557 33.5166 15.8066 34.1938 15.8066V14.8066C32.9643 14.8066 31.9675 15.8034 31.9675 17.0329H32.9675Z" fill="#B3B6B9"/>
<path d="M5.23291 27.3903V26.1641H63.1552V27.3903C63.1552 29.9698 61.056 32.069 58.4765 32.069H9.91163C7.33211 32.069 5.23291 29.9698 5.23291 27.3903Z" fill="#121212" stroke="#0ABB92"/>
<path fill-rule="evenodd" clip-rule="evenodd" d="M40.3763 44.8607C28.9837 44.8607 19.7481 35.6252 19.7481 24.2326C19.7481 12.84 28.9837 3.60449 40.3763 3.60449C51.7689 3.60449 61.0044 12.84 61.0044 24.2326C61.0044 35.6252 51.7689 44.8607 40.3763 44.8607Z" fill="#5367FF" fill-opacity="0.12"/>
<path fill-rule="evenodd" clip-rule="evenodd" d="M11.6764 55.6233C6.22773 55.6233 1.81074 51.2063 1.81074 45.7577C1.81074 40.3091 6.22773 35.8921 11.6764 35.8921C17.125 35.8921 21.542 40.3091 21.542 45.7577C21.542 51.2063 17.125 55.6233 11.6764 55.6233Z" fill="#5367FF" fill-opacity="0.12"/>
</svg>
