<svg width="38" height="45" viewBox="0 0 38 45" fill="none" xmlns="http://www.w3.org/2000/svg">
<path d="M19.4706 16.3882L0 27.7899L12.6374 35.1597L32.0858 23.6398L19.4706 16.3882Z" fill="white"/>
<path d="M32.0856 23.6318L12.6323 35.1517V44.4538L32.0856 32.8896V23.6318Z" fill="#66E3C4"/>
<path d="M0.00378418 27.7896V37.0694L12.6313 44.454V35.1544L0.00378418 27.7896Z" fill="#0ABB92"/>
<path d="M11.406 18.9595V34.5408L12.6368 35.2621V19.6758L11.406 18.9595Z" fill="#0ABB92"/>
<path d="M13.7634 19.0234L12.636 19.6733V35.2596L13.7634 34.6073V19.0234Z" fill="#66E3C4"/>
<path d="M13.7618 19.0239L12.6344 19.6737L11.4061 18.9599L12.5335 18.3101L13.7618 19.0239Z" fill="white"/>
<path d="M29.7257 7.98438V23.5682L30.954 24.287V8.70068L29.7257 7.98438Z" fill="#0ABB92"/>
<path d="M32.0832 8.04834L30.9558 8.70064V24.2869L32.0832 23.6346V8.04834Z" fill="#66E3C4"/>
<path d="M32.0814 8.05077L30.954 8.70061L29.7257 7.98677L30.8531 7.33447L32.0814 8.05077Z" fill="white"/>
<path d="M0 15.8706V27.8188L1.22829 28.5375V16.5869L0 15.8706Z" fill="#0ABB92"/>
<path d="M2.35603 15.9351L1.2262 16.5849V28.538L2.35603 27.8832V15.9351Z" fill="#66E3C4"/>
<path d="M2.35567 15.935L1.22829 16.5873L0 15.871L1.12737 15.2212L2.35567 15.935Z" fill="white"/>
<path d="M19.4484 1.58936L0 13.1215L12.6374 20.4913L32.0858 8.95912L19.4484 1.58936Z" fill="white"/>
<path d="M32.0856 8.96387L12.6323 20.4862V23.4991L32.0856 11.9374V8.96387Z" fill="#66E3C4"/>
<path d="M0.00378418 13.124V16.1172L12.6313 23.5018V20.4864L0.00378418 13.124Z" fill="#0ABB92"/>
<path d="M31.6885 1.43423C31.6885 1.43423 30.027 0.385621 29.9852 0.343776C29.68 0.0976244 29.1286 0.343776 29.1286 0.343776L11.9226 10.5714L13.4807 11.7578L30.8959 1.40961L31.6885 1.43423Z" fill="white"/>
<path d="M12.6487 20.5083L32.0946 8.95149V2.13064C32.096 1.98618 32.0588 1.84397 31.987 1.71866C31.9151 1.59335 31.8111 1.48947 31.6857 1.41775C31.5603 1.34602 31.418 1.30903 31.2736 1.31059C31.1291 1.31216 30.9877 1.35222 30.8639 1.42665L13.6751 11.6493C13.3631 11.8294 13.1041 12.0885 12.9239 12.4004C12.7437 12.7124 12.6488 13.0663 12.6487 13.4265V20.5083Z" fill="#66E3C4"/>
<path d="M11.9261 10.584C10.9611 11.0443 10.8455 12.1815 10.8455 12.1815V19.4602L12.6473 20.5113V13.464C12.6423 13.1349 12.7159 12.8094 12.8618 12.5144C13.0078 12.2195 13.222 11.9636 13.4867 11.768" fill="#0ABB92"/>
<path d="M20.1292 25.8284L22.5563 24.3712L17.4339 17.5479L14.9945 18.9854L20.1292 25.8284Z" fill="white"/>
<path d="M12.5383 20.3267L17.7001 27.2878L12.6146 23.822L12.5383 20.3267Z" fill="#0ABB92"/>
<path d="M24.994 22.9091L27.4211 21.4519L22.3233 14.668L19.8839 16.1055L24.994 22.9091Z" fill="white"/>
<path d="M29.8563 19.9894L32.2834 18.5346L27.2127 11.7876L24.7733 13.2251L29.8563 19.9894Z" fill="white"/>
<path d="M34.7173 17.0725L37.1321 15.6227L32.086 8.91504L29.6589 10.3452L34.7173 17.0725Z" fill="white"/>
<path d="M14.9889 18.9878L12.5496 20.4253L17.699 27.288L20.1236 25.8308L14.9889 18.9878Z" fill="#66E3C4"/>
<path d="M22.5616 24.3687L24.9887 22.9115L19.8786 16.1079L17.4392 17.5454L22.5616 24.3687Z" fill="#66E3C4"/>
<path d="M27.4264 21.449L29.851 19.9918L24.768 13.2275L22.3286 14.6651L27.4264 21.449Z" fill="#66E3C4"/>
<path d="M27.218 11.7852L32.2887 18.5297L34.7158 17.075L29.6574 10.3477L27.218 11.7852Z" fill="#66E3C4"/>
</svg>
