<svg width="70" height="70" viewBox="0 0 70 70" fill="none" xmlns="http://www.w3.org/2000/svg">
<path fill-rule="evenodd" clip-rule="evenodd" d="M61.9638 30.9532C61.2874 30.2768 60.1915 30.2768 59.5151 30.9532C58.8387 31.6296 58.8387 32.7255 59.5151 33.4019C60.1695 34.0564 60.5297 34.9255 60.5297 35.8506C60.5297 37.7598 58.8602 39.3139 56.9509 39.3139H56.8706C56.8701 39.3086 56.8699 39.3033 56.87 39.298C56.87 39.2939 56.8701 39.2898 56.8701 39.2857C56.8704 39.2766 56.8706 39.2675 56.8698 39.2582C56.1563 31.4496 50.5094 25.154 43.004 22.9236C42.5268 28.2135 38.1196 32.3873 32.7076 32.3873C27.0904 32.3873 22.5285 27.8996 22.3507 22.3249C20.0714 19.9449 16.9431 18.5339 13.6593 18.5339C13.1503 18.5339 12.6666 18.7572 12.3386 19.1461C12.0089 19.5351 11.8668 20.0491 11.9514 20.5497L13.2654 28.4284C11.3274 30.5897 9.92546 33.1584 9.15267 35.9554C6.78675 36.4408 4.8855 38.5377 4.8855 41.0456V44.5089C4.8855 47.3736 7.3313 49.7039 10.1959 49.7039C10.2754 49.7039 10.3549 49.6989 10.4327 49.6887C10.4665 49.6904 10.5004 49.6904 10.5359 49.692C11.7196 52.0122 13.3752 54.0753 15.3909 55.7411V61.941C15.3909 62.8982 16.1655 63.6727 17.1226 63.6727H24.0493C25.0064 63.6727 25.7809 62.8982 25.7809 61.941V59.9208C25.9899 59.9398 26.1979 59.9676 26.4057 59.9954L26.4062 59.9955C26.7741 60.0447 27.1415 60.0939 27.5126 60.0939H36.1709V61.941C36.1709 62.8982 36.9455 63.6727 37.9026 63.6727H44.8293C45.7864 63.6727 46.5609 62.8982 46.5609 61.941V58.0173C52.4256 55.0253 56.2369 49.242 56.8336 42.7773H56.9509C60.7711 42.7773 63.993 39.6708 63.993 35.8506C63.993 34.0006 63.2727 32.2621 61.9638 30.9532ZM17.1228 39.314C16.1664 39.314 15.3911 38.5387 15.3911 37.5823C15.3911 36.6257 16.1664 35.8506 17.1228 35.8506C18.0791 35.8506 18.8544 36.6257 18.8544 37.5823C18.8544 38.5387 18.0791 39.314 17.1228 39.314ZM27.5124 39.314H37.9024C38.8596 39.314 39.6341 38.5395 39.6341 37.5823C39.6341 36.6252 38.8596 35.8506 37.9024 35.8506H27.5124C26.5553 35.8506 25.7808 36.6252 25.7808 37.5823C25.7808 38.5395 26.5553 39.314 27.5124 39.314Z" fill="#121212"/>
<path d="M59.5151 30.9532L59.1615 30.5997V30.5997L59.5151 30.9532ZM61.9638 30.9532L61.6102 31.3068V31.3068L61.9638 30.9532ZM59.5151 33.4019L59.1615 33.7555L59.1615 33.7555L59.5151 33.4019ZM56.8706 39.3139L56.3727 39.3596L56.4143 39.8139H56.8706V39.3139ZM56.87 39.298L56.37 39.2975V39.2976L56.87 39.298ZM56.8701 39.2857L56.3703 39.2739V39.274L56.8701 39.2857ZM56.8698 39.2582L57.368 39.2154L57.3677 39.2127L56.8698 39.2582ZM43.004 22.9236L43.1464 22.4443L42.5609 22.2703L42.506 22.8787L43.004 22.9236ZM22.3507 22.3249L22.8505 22.309L22.8444 22.1174L22.7118 21.9791L22.3507 22.3249ZM12.3386 19.1461L12.72 19.4695L12.7208 19.4685L12.3386 19.1461ZM11.9514 20.5497L12.4446 20.4675L12.4444 20.4664L11.9514 20.5497ZM13.2654 28.4284L13.6376 28.7622L13.7981 28.5833L13.7586 28.3462L13.2654 28.4284ZM9.15267 35.9554L9.25315 36.4452L9.55307 36.3837L9.63461 36.0886L9.15267 35.9554ZM10.4327 49.6887L10.4584 49.1894L10.413 49.187L10.368 49.1929L10.4327 49.6887ZM10.5359 49.692L10.9813 49.4648L10.8492 49.2058L10.5586 49.1926L10.5359 49.692ZM15.3909 55.7411H15.8909V55.5056L15.7094 55.3557L15.3909 55.7411ZM25.7809 59.9208L25.8262 59.4228L25.2809 59.3733V59.9208H25.7809ZM26.4057 59.9954L26.4862 59.5019L26.4791 59.5008L26.472 59.4998L26.4057 59.9954ZM26.4062 59.9955L26.3257 60.4889L26.3328 60.4901L26.3399 60.4911L26.4062 59.9955ZM36.1709 60.0939H36.6709V59.5939H36.1709V60.0939ZM46.5609 58.0173L46.3337 57.5719L46.0609 57.7111V58.0173H46.5609ZM56.8336 42.7773V42.2773H56.3777L56.3358 42.7313L56.8336 42.7773ZM59.8686 31.3068C60.3498 30.8256 61.1291 30.8256 61.6102 31.3068L62.3173 30.5997C61.4457 29.728 60.0332 29.728 59.1615 30.5997L59.8686 31.3068ZM59.8686 33.0484C59.3875 32.5672 59.3875 31.7879 59.8686 31.3068L59.1615 30.5997C58.2899 31.4713 58.2899 32.8838 59.1615 33.7555L59.8686 33.0484ZM61.0297 35.8506C61.0297 34.7928 60.6168 33.7965 59.8686 33.0484L59.1615 33.7555C59.7223 34.3162 60.0297 35.0582 60.0297 35.8506H61.0297ZM56.9509 39.8139C59.1149 39.8139 61.0297 38.0569 61.0297 35.8506H60.0297C60.0297 37.4627 58.6055 38.8139 56.9509 38.8139V39.8139ZM56.8706 39.8139H56.9509V38.8139H56.8706V39.8139ZM56.37 39.2976C56.3699 39.3121 56.3703 39.3338 56.3727 39.3596L57.3685 39.2683C57.3699 39.2833 57.37 39.2944 57.37 39.2983L56.37 39.2976ZM56.3703 39.274C56.3702 39.2772 56.37 39.2869 56.37 39.2975L57.37 39.2984C57.37 39.3 57.3699 39.3009 57.3699 39.3007C57.3699 39.3002 57.37 39.2996 57.37 39.2973L56.3703 39.274ZM56.3716 39.301C56.3705 39.2881 56.3704 39.2785 56.3703 39.2741C56.3703 39.273 56.3703 39.2721 56.3703 39.2715C56.3704 39.2709 56.3704 39.2706 56.3704 39.2706C56.3704 39.2706 56.3704 39.2706 56.3704 39.2708C56.3704 39.2709 56.3703 39.2711 56.3703 39.2714C56.3703 39.272 56.3703 39.2727 56.3703 39.2739L57.37 39.2974C57.3701 39.2924 57.3715 39.2563 57.3679 39.2154L56.3716 39.301ZM42.8616 23.4029C50.1905 25.5809 55.6788 31.7185 56.3719 39.3037L57.3677 39.2127C56.6339 31.1807 50.8282 24.7271 43.1464 22.4443L42.8616 23.4029ZM32.7076 32.8873C38.385 32.8873 43.0022 28.5094 43.502 22.9685L42.506 22.8787C42.0515 27.9176 37.8543 31.8873 32.7076 31.8873V32.8873ZM21.851 22.3408C22.0373 28.1821 26.8173 32.8873 32.7076 32.8873V31.8873C27.3635 31.8873 23.0198 27.617 22.8505 22.309L21.851 22.3408ZM13.6593 19.0339C16.7988 19.0339 19.799 20.3833 21.9896 22.6707L22.7118 21.9791C20.3438 19.5065 17.0874 18.0339 13.6593 18.0339V19.0339ZM12.7208 19.4685C12.9531 19.193 13.2966 19.0339 13.6593 19.0339V18.0339C13.004 18.0339 12.38 18.3214 11.9563 18.8238L12.7208 19.4685ZM12.4444 20.4664C12.3845 20.1122 12.4849 19.7467 12.72 19.4695L11.9572 18.8228C11.5328 19.3234 11.349 19.986 11.4584 20.6331L12.4444 20.4664ZM13.7586 28.3462L12.4446 20.4675L11.4582 20.632L12.7722 28.5107L13.7586 28.3462ZM9.63461 36.0886C10.3869 33.3658 11.7514 30.8658 13.6376 28.7622L12.8931 28.0946C10.9034 30.3136 9.46403 32.951 8.67073 35.8223L9.63461 36.0886ZM5.3855 41.0456C5.3855 38.7963 7.09837 36.8873 9.25315 36.4452L9.05219 35.4656C6.47513 35.9943 4.3855 38.2791 4.3855 41.0456H5.3855ZM5.3855 44.5089V41.0456H4.3855V44.5089H5.3855ZM10.1959 49.2039C7.59309 49.2039 5.3855 47.0833 5.3855 44.5089H4.3855C4.3855 47.6638 7.06951 50.2039 10.1959 50.2039V49.2039ZM10.368 49.1929C10.3122 49.2002 10.2543 49.2039 10.1959 49.2039V50.2039C10.2964 50.2039 10.3976 50.1975 10.4975 50.1845L10.368 49.1929ZM10.5586 49.1926C10.5346 49.1915 10.5117 49.191 10.4959 49.1906C10.4782 49.1901 10.4677 49.1898 10.4584 49.1894L10.407 50.188C10.4316 50.1893 10.4548 50.1899 10.4714 50.1903C10.4899 50.1907 10.5017 50.191 10.5132 50.1915L10.5586 49.1926ZM15.7094 55.3557C13.7461 53.7333 12.1338 51.724 10.9813 49.4648L10.0905 49.9193C11.3053 52.3005 13.0042 54.4174 15.0724 56.1265L15.7094 55.3557ZM15.8909 61.941V55.7411H14.8909V61.941H15.8909ZM17.1226 63.1727C16.4416 63.1727 15.8909 62.622 15.8909 61.941H14.8909C14.8909 63.1743 15.8893 64.1727 17.1226 64.1727V63.1727ZM24.0493 63.1727H17.1226V64.1727H24.0493V63.1727ZM25.2809 61.941C25.2809 62.622 24.7303 63.1727 24.0493 63.1727V64.1727C25.2826 64.1727 26.2809 63.1743 26.2809 61.941H25.2809ZM25.2809 59.9208V61.941H26.2809V59.9208H25.2809ZM26.472 59.4998C26.2659 59.4722 26.0474 59.4429 25.8262 59.4228L25.7357 60.4187C25.9323 60.4366 26.1298 60.4629 26.3394 60.491L26.472 59.4998ZM26.4868 59.502L26.4862 59.5019L26.3251 60.4889L26.3257 60.4889L26.4868 59.502ZM27.5126 59.5939C27.1804 59.5939 26.8461 59.5499 26.4726 59.4999L26.3399 60.4911C26.7022 60.5396 27.1026 60.5939 27.5126 60.5939V59.5939ZM36.1709 59.5939H27.5126V60.5939H36.1709V59.5939ZM36.6709 61.941V60.0939H35.6709V61.941H36.6709ZM37.9026 63.1727C37.2216 63.1727 36.6709 62.622 36.6709 61.941H35.6709C35.6709 63.1743 36.6693 64.1727 37.9026 64.1727V63.1727ZM44.8293 63.1727H37.9026V64.1727H44.8293V63.1727ZM46.0609 61.941C46.0609 62.622 45.5103 63.1727 44.8293 63.1727V64.1727C46.0626 64.1727 47.0609 63.1743 47.0609 61.941H46.0609ZM46.0609 58.0173V61.941H47.0609V58.0173H46.0609ZM56.3358 42.7313C55.7544 49.0294 52.0421 54.6597 46.3337 57.5719L46.7882 58.4627C52.8092 55.391 56.7194 49.4547 57.3315 42.8232L56.3358 42.7313ZM56.9509 42.2773H56.8336V43.2773H56.9509V42.2773ZM63.493 35.8506C63.493 39.384 60.5058 42.2773 56.9509 42.2773V43.2773C61.0365 43.2773 64.493 39.9576 64.493 35.8506H63.493ZM61.6102 31.3068C62.8254 32.522 63.493 34.1333 63.493 35.8506H64.493C64.493 33.8679 63.7199 32.0023 62.3173 30.5997L61.6102 31.3068ZM14.8911 37.5823C14.8911 38.8148 15.8903 39.814 17.1228 39.814V38.814C16.4426 38.814 15.8911 38.2625 15.8911 37.5823H14.8911ZM17.1228 35.3506C15.8903 35.3506 14.8911 36.3495 14.8911 37.5823H15.8911C15.8911 36.9019 16.4425 36.3506 17.1228 36.3506V35.3506ZM19.3544 37.5823C19.3544 36.3495 18.3552 35.3506 17.1228 35.3506V36.3506C17.803 36.3506 18.3544 36.9019 18.3544 37.5823H19.3544ZM17.1228 39.814C18.3553 39.814 19.3544 38.8148 19.3544 37.5823H18.3544C18.3544 38.2625 17.803 38.814 17.1228 38.814V39.814ZM37.9024 38.814H27.5124V39.814H37.9024V38.814ZM39.1341 37.5823C39.1341 38.2633 38.5834 38.814 37.9024 38.814V39.814C39.1357 39.814 40.1341 38.8156 40.1341 37.5823H39.1341ZM37.9024 36.3506C38.5834 36.3506 39.1341 36.9013 39.1341 37.5823H40.1341C40.1341 36.349 39.1357 35.3506 37.9024 35.3506V36.3506ZM27.5124 36.3506H37.9024V35.3506H27.5124V36.3506ZM26.2808 37.5823C26.2808 36.9013 26.8314 36.3506 27.5124 36.3506V35.3506C26.2791 35.3506 25.2808 36.349 25.2808 37.5823H26.2808ZM27.5124 38.814C26.8314 38.814 26.2808 38.2633 26.2808 37.5823H25.2808C25.2808 38.8156 26.2791 39.814 27.5124 39.814V38.814Z" fill="#0ABB92"/>
<path d="M26.2808 21.9975C26.2808 18.4534 29.1634 15.5708 32.7074 15.5708C36.2515 15.5708 39.1341 18.4534 39.1341 21.9975C39.1341 25.5415 36.2515 28.4241 32.7074 28.4241C29.1634 28.4241 26.2808 25.5415 26.2808 21.9975Z" fill="#121212" stroke="#B3B6B9"/>
<path d="M40.1343 11.4919C40.1343 7.94782 43.0169 5.06519 46.5609 5.06519C50.105 5.06519 52.9876 7.94782 52.9876 11.4919C52.9876 15.0359 50.105 17.9185 46.5609 17.9185C43.0169 17.9185 40.1343 15.0359 40.1343 11.4919Z" fill="#121212" stroke="#B3B6B9"/>
<path fill-rule="evenodd" clip-rule="evenodd" d="M23.625 15.75C34.7397 15.75 43.75 24.7603 43.75 35.875C43.75 46.9897 34.7397 56 23.625 56C12.5103 56 3.5 46.9897 3.5 35.875C3.5 24.7603 12.5103 15.75 23.625 15.75Z" fill="#5367FF" fill-opacity="0.12"/>
<path fill-rule="evenodd" clip-rule="evenodd" d="M51.625 5.25C56.9407 5.25 61.25 9.55926 61.25 14.875C61.25 20.1907 56.9407 24.5 51.625 24.5C46.3093 24.5 42 20.1907 42 14.875C42 9.55926 46.3093 5.25 51.625 5.25Z" fill="#5367FF" fill-opacity="0.12"/>
</svg>
