<svg width="43" height="44" viewBox="0 0 43 44" fill="none" xmlns="http://www.w3.org/2000/svg">
<path d="M31.6533 29.4003V33.2514C31.6533 34.5842 33.4125 35.6632 35.5817 35.6632C37.7508 35.6632 39.5082 34.5842 39.5082 33.2514V28.6099L31.6533 29.4003Z" fill="#10362D"/>
<path d="M2.06885 22.1664V33.2897C2.06885 34.8725 4.1571 36.1537 6.73249 36.1537C9.30788 36.1537 11.3961 34.8669 11.3961 33.2897V21.2363L2.06885 22.1664Z" fill="#10362D"/>
<path d="M16.9883 30.159V40.6885C16.9883 42.1848 18.9662 43.3981 21.4001 43.3981C23.8339 43.3981 25.8119 42.1848 25.8119 40.6885V29.2803L16.9883 30.159Z" fill="#10362D"/>
<path d="M16.9883 26.9352V37.4629C16.9883 38.9611 18.9662 40.1743 21.4001 40.1743C23.8339 40.1743 25.8119 38.9611 25.8119 37.4629V26.0547L16.9883 26.9352Z" fill="#10362D"/>
<path d="M40.783 23.0916C39.1672 32.9519 30.5513 39.0843 19.042 37.2001C7.53272 35.3159 -1.42692 23.0126 0.188905 13.1522C1.80473 3.2918 12.3453 -1.90126 23.4685 0.652069C34.0476 3.07121 42.3933 13.2257 40.783 23.0916Z" fill="#0ABB92"/>
<path d="M23.4717 0.645885C20.6305 -0.0196648 17.6925 -0.167271 14.7988 0.210198C15.6077 0.314978 16.422 0.458383 17.24 0.645885C27.8192 3.07054 31.9589 17.0063 32.0857 27.0046C32.117 29.3943 27.2217 36.6572 17.0121 36.7601C30.8707 40.0065 39.2016 32.6976 40.777 23.0909C42.3965 13.225 34.0508 3.07054 23.4717 0.645885Z" fill="#10362D"/>
<path d="M23.4679 0.647118C15.8446 -1.09922 8.4953 0.792333 4.10556 5.3273C3.9346 14.7594 12.4365 25.5333 23.1443 27.2889C30.7179 28.5297 37.0378 26.2962 40.9349 21.8146C41.6721 12.3715 33.5893 2.96699 23.4679 0.647118Z" fill="var(--green100)"/>
<path d="M31.2331 15.7547C29.5069 13.9863 25.8304 14.536 24.347 16.4441C23.0914 18.0617 23.347 22.5654 25.8047 23.5893C26.6264 20.1077 28.6117 17.2511 31.2128 15.7437" fill="#0ABB92"/>
<path d="M40.0595 15.9661C40.133 15.8282 40.2047 15.6849 40.2709 15.5397C41.3536 13.1499 40.9896 10.6554 39.4602 9.96239C39.2774 9.88044 39.0835 9.82591 38.8848 9.8006C38.1495 9.68295 35.769 9.84104 34.4363 10.3521C34.4038 10.3643 34.3746 10.3837 34.3507 10.4089C34.3268 10.434 34.3089 10.4643 34.2984 10.4973C33.9657 11.523 33.7359 13.2951 34.2102 14.6756C34.6207 14.6119 35.0355 14.5788 35.451 14.5764C37.0894 14.5847 38.6903 15.068 40.0595 15.9679" fill="var(--green100)"/>
<path d="M35.4498 14.5786C37.0882 14.5869 38.6891 15.0703 40.0583 15.9701C40.1318 15.8323 40.2035 15.6889 40.2697 15.5437C41.3524 13.154 40.9884 10.6594 39.459 9.96642C37.9296 9.2734 35.8138 10.6447 34.731 13.0308C34.4903 13.5589 34.315 14.1145 34.209 14.6852C34.6193 14.6182 35.0341 14.5826 35.4498 14.5786V14.5786Z" fill="#0ABB92"/>
<path d="M15.8846 1.11865C15.1191 1.53476 14.3821 2.00151 13.6787 2.51574C18.6322 3.71552 23.0563 6.5048 26.2744 10.457C27.0234 9.91778 27.809 9.43133 28.6255 9.0011C25.3612 5.04376 20.883 2.27322 15.8846 1.11865V1.11865Z" fill="#0ABB92"/>
<path d="M25.7928 23.5835C26.6145 20.1018 28.6109 17.2507 31.212 15.7433C31.1029 15.6184 30.9795 15.5067 30.8443 15.4106C29.4252 14.4437 27.0594 15.4419 25.5575 17.6423C24.0557 19.8426 23.9895 22.4107 25.4086 23.3776C25.5292 23.4594 25.6579 23.5284 25.7928 23.5835V23.5835Z" fill="var(--green100)"/>
<path d="M33.9227 33.6099C35.4834 34.5125 38.1268 32.8581 39.8253 29.9187C41.5239 26.9793 41.6323 23.8617 40.0716 22.9609L38.6985 22.2385C37.022 21.3672 34.0716 22.812 32.419 25.6724C30.7664 28.5327 30.6947 31.3709 32.2572 32.4849L33.9227 33.6099Z" fill="var(--green100)"/>
<path d="M39.8239 29.9191C41.5219 26.9781 41.6326 23.8631 40.0711 22.9616C38.5096 22.0601 35.8672 23.7133 34.1692 26.6543C32.4712 29.5953 32.3606 32.7104 33.9221 33.6119C35.4836 34.5134 38.1259 32.8601 39.8239 29.9191Z" fill="#0ABB92"/>
<path d="M33.0841 29.2449L31.2826 28.561C30.9149 30.289 31.2366 31.7596 32.2587 32.4875L33.7385 33.4876C32.7955 32.7707 32.5859 31.1254 33.0841 29.2449Z" fill="#0ABB92"/>
<path d="M31.1333 29.8477C31.1333 31.0021 31.501 31.9469 32.2546 32.4855L33.7344 33.4856C33.0414 32.958 32.7436 31.9285 32.8337 30.673L31.1333 29.8477Z" fill="#10362D"/>
<path d="M36.0555 30.3808C36.3931 29.7961 36.4151 29.1768 36.1047 28.9976C35.7943 28.8185 35.2691 29.1472 34.9315 29.7319C34.594 30.3165 34.5719 30.9358 34.8822 31.115C35.1926 31.2941 35.7179 30.9654 36.0555 30.3808Z" fill="#10362D"/>
<path d="M40.0276 27.2885C40.3652 26.7038 40.3873 26.0846 40.0769 25.9054C39.7666 25.7262 39.2413 26.0549 38.9037 26.6396C38.5661 27.2243 38.5441 27.8435 38.8545 28.0227C39.1648 28.2019 39.6901 27.8731 40.0276 27.2885Z" fill="#10362D"/>
</svg>
