<svg width="34" height="49" viewBox="0 0 34 49" fill="none" xmlns="http://www.w3.org/2000/svg">
<g clip-path="url(#clip0_722_29505)">
<path d="M10.5798 9.0505L22.761 16.1457L33.8182 9.76704L21.6089 2.67188L10.5798 9.0505Z" fill="white"/>
<path d="M22.775 41.323L33.8463 34.9444V9.76709L22.775 16.1457V41.323Z" fill="#66E3C4"/>
<path d="M22.7751 16.1455L10.5798 9.05029V34.2276L22.7751 41.3227" fill="#0ABB92"/>
<path d="M13.7411 4.69504L22.6065 9.86537L30.6571 5.22893L21.7635 0.0585938L13.7411 4.69504Z" fill="white"/>
<path d="M22.6205 14.1365L30.671 9.48599V5.21484L22.6205 9.85129V14.1365Z" fill="#66E3C4"/>
<path d="M22.6211 9.85111L13.7556 4.69482V8.96597L22.6211 14.1363" fill="#0ABB92"/>
<path d="M25.2336 38.0073L26.0766 37.5296V16.2441L25.2336 16.7218V38.0073Z" fill="#0ABB92"/>
<path d="M28.3109 36.1948L29.1539 35.7171V14.4316L28.3109 14.9093V36.1948Z" fill="#0ABB92"/>
<path d="M31.2607 34.6211L32.0897 34.1434V12.8579L31.2607 13.3356V34.6211Z" fill="#0ABB92"/>
<path d="M0 22.2714L10.2423 28.2426L20.9342 22.0747L10.6638 16.1035L0 22.2714Z" fill="white"/>
<path d="M10.2421 48.5586L20.934 42.3908V22.0747L10.2421 28.2426V48.5586Z" fill="#66E3C4"/>
<path d="M10.2423 28.2427L0 22.2715V42.5875L10.2423 48.5587" fill="#0ABB92"/>
<path d="M11.7734 33.6098L12.5181 33.1883V29.1841L11.7734 29.6056V33.6098Z" fill="#0ABB92"/>
<path d="M11.7734 39.6933L12.5181 39.2718V35.2676L11.7734 35.6891V39.6933Z" fill="#0ABB92"/>
<path d="M11.7734 45.7908L12.5181 45.3693V41.3511L11.7734 41.7726V45.7908Z" fill="#0ABB92"/>
<path d="M14.1338 32.2469L14.8784 31.8254V27.8071L14.1338 28.2286V32.2469Z" fill="#0ABB92"/>
<path d="M14.1338 38.3446L14.8784 37.9232V33.9189L14.1338 34.3404V38.3446Z" fill="#0ABB92"/>
<path d="M14.1338 44.4423L14.8784 44.0348V40.0166L14.1338 40.4381V44.4423Z" fill="#0ABB92"/>
<path d="M16.5084 30.8559L17.239 30.4344V26.4302L16.5084 26.8517V30.8559Z" fill="#0ABB92"/>
<path d="M16.5084 36.9677L17.239 36.5462V32.542L16.5084 32.9635V36.9677Z" fill="#0ABB92"/>
<path d="M16.5084 43.079L17.239 42.6575V38.6533L16.5084 39.0748V43.079Z" fill="#0ABB92"/>
<path d="M18.8689 29.4789L19.5995 29.0574V25.0532L18.8689 25.4747V29.4789Z" fill="#0ABB92"/>
<path d="M18.8689 35.6185L19.5995 35.197V31.1787L18.8689 31.6002V35.6185Z" fill="#0ABB92"/>
<path d="M18.8689 41.7445L19.5995 41.323V37.3188L18.8689 37.7403V41.7445Z" fill="#0ABB92"/>
</g>
<defs>
<clipPath id="clip0_722_29505">
<rect width="33.832" height="48.5" fill="white" transform="translate(0 0.0585938)"/>
</clipPath>
</defs>
</svg>
