<svg width="43" height="49" viewBox="0 0 43 49" fill="none" xmlns="http://www.w3.org/2000/svg">
<path d="M41.5947 36.7351C41.7671 36.6286 41.9088 36.4792 42.0059 36.3014C42.1031 36.1237 42.1523 35.9237 42.1488 35.7211C42.1453 35.5186 42.0892 35.3204 41.9859 35.1461C41.8827 34.9718 41.7359 34.8273 41.5599 34.7269L23.6186 24.4603C22.4562 23.7894 21.01 23.9715 19.8458 24.6433L0.386955 36.1978C0.268667 36.2668 0.17063 36.3657 0.102705 36.4846C0.0347788 36.6035 -0.00064064 36.7382 8.77201e-06 36.8751C0.000658184 37.0121 0.0373535 37.1464 0.106404 37.2647C0.175454 37.3829 0.274425 37.4809 0.393362 37.5488L7.59387 41.7233C7.83683 41.8616 8.11315 41.9304 8.39259 41.9222C8.67203 41.914 8.94382 41.829 9.17822 41.6767L12.6142 39.4553L12.2481 38.8933L8.81668 41.1183C8.6848 41.2042 8.53182 41.2519 8.37454 41.2565C8.21727 41.261 8.06179 41.2221 7.9252 41.144L0.722863 36.9712C0.705338 36.9617 0.690777 36.9475 0.680769 36.9302C0.670761 36.9129 0.665692 36.8932 0.666116 36.8733C0.665567 36.8535 0.670492 36.834 0.680346 36.8169C0.6902 36.7998 0.704598 36.7857 0.721948 36.7763L20.1808 25.2263C21.1382 24.6772 22.3271 24.4941 23.2845 25.0433L41.1325 35.2368C41.2269 35.2906 41.3056 35.3681 41.3609 35.4617C41.4162 35.5552 41.4462 35.6616 41.4479 35.7702C41.4495 35.8789 41.4228 35.9861 41.3704 36.0813C41.318 36.1765 41.2417 36.2564 41.1489 36.3131L21.1162 47.8914C20.8747 48.0278 20.6019 48.099 20.3246 48.0979C20.0472 48.0967 19.775 48.0234 19.5346 47.885L12.6371 43.8852C12.6243 43.8781 12.6137 43.8676 12.6064 43.8548C12.5991 43.8421 12.5955 43.8276 12.5959 43.8129C12.5956 43.7984 12.5993 43.7841 12.6065 43.7715C12.6138 43.7589 12.6243 43.7485 12.6371 43.7415L17.1732 41.111L16.8382 40.6241L12.3021 43.2546C12.0678 43.2985 11.9277 43.542 11.9277 43.8129C11.927 43.9448 11.9613 44.0745 12.0271 44.1888C12.0928 44.3032 12.1877 44.398 12.3021 44.4637L19.1996 48.4662C19.5409 48.6638 19.928 48.7685 20.3224 48.7701C20.7167 48.7717 21.1046 48.6701 21.4475 48.4754L41.5947 36.7351Z" fill="#0ABB92"/>
<path d="M19.0179 43.7054L7.61808 37.1245C6.91881 36.72 7.00576 36.0143 7.81395 35.5484L18.8211 29.1927C19.6293 28.7268 20.8512 28.6756 21.5514 29.0801L32.9512 35.6619C33.6505 36.0656 33.5626 36.7712 32.7553 37.2371L21.7473 43.591C20.94 44.0587 19.7172 44.1099 19.0179 43.7054Z" fill="#0ABB92"/>
<path d="M36.7597 30.6461V25.721L25.715 25.7145L21.8974 23.5106C21.0215 23.0053 19.4911 23.0685 18.4788 23.6524L14.9175 25.7091L3.86271 25.7027V30.7687C3.838 31.111 4.02929 31.4415 4.44941 31.684L18.7278 39.9261C19.6037 40.4313 21.134 40.3682 22.1463 39.7842L35.9295 31.8259C36.5107 31.4891 36.7917 31.0497 36.7597 30.6461Z" fill="#66E3C4"/>
<path d="M20.3094 23.1709C19.6692 23.18 19.0409 23.345 18.4788 23.6514L14.9175 25.7081L3.86271 25.7016V30.7677C3.838 31.11 4.02929 31.4405 4.44941 31.683L18.7278 39.9251C19.1488 40.1676 19.7209 40.2784 20.314 40.2638L20.3094 23.1709Z" fill="#0ABB92"/>
<path d="M5.1139 25.7036H3.86271V30.7697C3.838 31.112 4.02929 31.4424 4.44941 31.685L5.1139 32.0685V25.7036Z" fill="#0ABB92"/>
<path d="M18.9464 40.0329C19.7024 40.3569 20.7953 40.3386 21.6794 40.0018V34.2529H18.9464V40.0329Z" fill="#66E3C4"/>
<path d="M18.7262 34.8782L4.44783 26.6406C3.57191 26.1345 3.68174 25.2513 4.69404 24.6664L18.4772 16.7089C19.4895 16.125 21.0199 16.0609 21.8958 16.5671L36.1742 24.8046C37.051 25.3098 36.9412 26.1931 35.9289 26.7779L22.1448 34.7363C21.1325 35.3212 19.6021 35.3843 18.7262 34.8782Z" fill="#66E3C4"/>
<path d="M18.9764 33.3937L7.01555 26.487C6.28333 26.0632 6.37486 25.3228 7.22058 24.834L18.7723 18.1644C19.6199 17.6756 20.9022 17.6216 21.6362 18.0463L33.5989 24.953C34.3312 25.3768 34.2396 26.1172 33.393 26.606L21.8422 33.2756C20.9946 33.7644 19.7087 33.8184 18.9764 33.3937Z" fill="#0ABB92"/>
<path d="M31.4911 31.9476C31.4802 32.1476 31.4224 32.3423 31.3222 32.5158C31.222 32.6893 31.0823 32.8367 30.9145 32.9462C30.596 33.1292 30.3379 32.9809 30.3379 32.613C30.3487 32.4129 30.4066 32.2183 30.5068 32.0448C30.607 31.8712 30.7467 31.7238 30.9145 31.6144C31.233 31.4305 31.4911 31.5797 31.4911 31.9476Z" fill="white"/>
<path d="M33.3539 30.8754C33.3433 31.0755 33.2855 31.2703 33.1853 31.4438C33.085 31.6173 32.9453 31.7647 32.7773 31.874C32.4588 32.057 32.2007 31.9097 32.2007 31.5417C32.2115 31.3417 32.2694 31.147 32.3696 30.9735C32.4698 30.8 32.6095 30.6526 32.7773 30.5432C33.0958 30.3592 33.3539 30.5084 33.3539 30.8754Z" fill="white"/>
<path d="M35.2167 29.8041C35.2059 30.0042 35.148 30.1989 35.0478 30.3724C34.9477 30.5459 34.808 30.6933 34.6401 30.8027C34.3216 30.9857 34.0635 30.8375 34.0635 30.4704C34.0742 30.2704 34.132 30.0756 34.2322 29.9021C34.3324 29.7286 34.4721 29.5812 34.6401 29.4719C34.9586 29.2879 35.2167 29.4371 35.2167 29.8041Z" fill="white"/>
<path d="M36.7597 22.7744V17.8484L25.715 17.842L21.8974 15.638C21.0215 15.1328 19.4911 15.1959 18.4788 15.7799L14.9175 17.8365L3.86271 17.8301V22.8962C3.838 23.2385 4.02929 23.5689 4.44941 23.8114L18.7278 32.0535C19.6037 32.5597 21.134 32.4956 22.1463 31.9117L35.9295 23.9533C36.5107 23.6165 36.7917 23.1772 36.7597 22.7744Z" fill="#66E3C4"/>
<path d="M20.3094 15.2993C19.6693 15.3089 19.0411 15.4738 18.4788 15.7798L14.9175 17.8365L3.86271 17.8301V22.8961C3.838 23.2385 4.02929 23.5689 4.44941 23.8114L18.7278 32.0535C19.1488 32.2961 19.7209 32.4068 20.314 32.3922L20.3094 15.2993Z" fill="#0ABB92"/>
<path d="M5.1139 17.8311H3.86271V22.8971C3.838 23.2394 4.02929 23.5699 4.44941 23.8124L5.1139 24.1959V17.8311Z" fill="#0ABB92"/>
<path d="M18.9464 32.1618C19.7024 32.4849 20.7953 32.4675 21.6794 32.1297V26.3809H18.9464V32.1618Z" fill="#66E3C4"/>
<path d="M18.7262 27.0068L4.44783 18.7693C3.57191 18.2632 3.68174 17.3799 4.69404 16.796L18.48 8.83395C19.4923 8.25 21.0226 8.18593 21.8986 8.69208L36.1769 16.9342C37.0537 17.4394 36.9439 18.3236 35.9316 18.9075L22.1484 26.8705C21.1325 27.4498 19.6021 27.513 18.7262 27.0068Z" fill="#66E3C4"/>
<path d="M18.9764 25.5251L7.01555 18.6184C6.28333 18.1937 6.37486 17.4542 7.22058 16.9645L18.7723 10.2949C19.6199 9.80611 20.9022 9.75302 21.6362 10.1768L33.5989 17.0835C34.3312 17.5073 34.2396 18.2477 33.393 18.7374L21.8422 25.4061C20.9946 25.8958 19.7087 25.9489 18.9764 25.5251Z" fill="#0ABB92"/>
<path d="M31.4911 24.0755C31.4802 24.2756 31.4224 24.4702 31.3222 24.6437C31.222 24.8172 31.0823 24.9647 30.9145 25.0741C30.596 25.2572 30.3379 25.1089 30.3379 24.7409C30.3487 24.5409 30.4066 24.3462 30.5068 24.1727C30.607 23.9992 30.7467 23.8517 30.9145 23.7424C31.233 23.5584 31.4911 23.7076 31.4911 24.0755Z" fill="white"/>
<path d="M33.3539 23.0042C33.343 23.2043 33.2851 23.3989 33.185 23.5724C33.0848 23.7459 32.9451 23.8934 32.7773 24.0028C32.4588 24.1859 32.2007 24.0376 32.2007 23.6696C32.2115 23.4696 32.2694 23.2749 32.3696 23.1014C32.4698 22.9279 32.6095 22.7805 32.7773 22.6711C33.0958 22.4871 33.3539 22.6363 33.3539 23.0042Z" fill="white"/>
<path d="M35.2167 21.9321C35.206 22.1321 35.1482 22.3269 35.048 22.5004C34.9478 22.6739 34.8081 22.8213 34.6401 22.9306C34.3216 23.1137 34.0635 22.9663 34.0635 22.5984C34.0743 22.3983 34.1322 22.2036 34.2324 22.0301C34.3325 21.8566 34.4722 21.7092 34.6401 21.5998C34.9586 21.4158 35.2167 21.565 35.2167 21.9321Z" fill="white"/>
<path d="M36.7597 14.9043V9.97828L25.715 9.97279L21.8974 7.76788C21.0215 7.26265 19.4911 7.3258 18.4788 7.90975L14.9175 9.96638L3.86271 9.95998V15.026C3.838 15.3684 4.02929 15.6988 4.44941 15.9413L18.7278 24.1834C19.6037 24.6896 21.134 24.6255 22.1463 24.0416L35.9295 16.0786C36.5107 15.7464 36.7917 15.307 36.7597 14.9043Z" fill="#66E3C4"/>
<path d="M20.3094 7.42969C19.6693 7.43928 19.0411 7.60418 18.4788 7.91021L14.9175 9.96684L3.86271 9.96044V15.0265C3.838 15.3688 4.02929 15.6992 4.44941 15.9418L18.7278 24.1839C19.1488 24.4274 19.7209 24.5372 20.314 24.5225L20.3094 7.42969Z" fill="#0ABB92"/>
<path d="M5.1139 9.96094H3.86271V15.027C3.838 15.3693 4.02929 15.6997 4.44941 15.9423L5.1139 16.3258V9.96094Z" fill="#0ABB92"/>
<path d="M18.9464 24.2917C19.7024 24.6147 20.7953 24.5974 21.6794 24.2605V18.5107H18.9464V24.2917Z" fill="#66E3C4"/>
<path d="M18.7262 19.1367L4.44783 10.8992C3.57191 10.393 3.68174 9.5098 4.69404 8.92585L18.48 0.963832C19.4923 0.379883 21.0226 0.315814 21.8986 0.821963L36.1769 9.06406C37.0538 9.56929 36.9439 10.4535 35.9316 11.0374L22.1448 18.9958C21.1325 19.5797 19.6021 19.6429 18.7262 19.1367Z" fill="white"/>
<path d="M35.9289 10.0681L22.1457 18.0265C21.1334 18.6104 19.6031 18.6736 18.7272 18.1674L4.44878 9.92992C4.27704 9.83454 4.1288 9.70194 4.01494 9.54185C3.71381 10.026 3.85019 10.5487 4.45153 10.8992L18.7299 19.1367C19.6058 19.6429 21.1362 19.5797 22.1485 18.9958L35.9317 11.0374C36.7179 10.5798 36.9568 9.94915 36.6145 9.45215C36.4397 9.71035 36.2043 9.92184 35.9289 10.0681Z" fill="#66E3C4"/>
<path d="M31.4911 16.2059C31.4803 16.406 31.4225 16.6006 31.3223 16.7741C31.2221 16.9477 31.0824 17.0951 30.9145 17.2045C30.596 17.3875 30.3379 17.2392 30.3379 16.8713C30.3488 16.6713 30.4067 16.4766 30.5069 16.3031C30.607 16.1296 30.7467 15.9822 30.9145 15.8727C31.233 15.6888 31.4911 15.838 31.4911 16.2059Z" fill="white"/>
<path d="M33.3539 15.1346C33.343 15.3347 33.2851 15.5293 33.185 15.7028C33.0848 15.8763 32.9451 16.0237 32.7773 16.1332C32.4588 16.3162 32.2007 16.168 32.2007 15.8C32.2115 15.6 32.2694 15.4053 32.3696 15.2318C32.4698 15.0583 32.6095 14.9108 32.7773 14.8014C33.0958 14.6175 33.3539 14.7667 33.3539 15.1346Z" fill="white"/>
<path d="M35.2167 14.0633C35.2058 14.2634 35.1479 14.458 35.0478 14.6315C34.9476 14.805 34.8079 14.9525 34.6401 15.0619C34.3216 15.2449 34.0635 15.0967 34.0635 14.7287C34.0743 14.5287 34.1322 14.334 34.2324 14.1605C34.3325 13.987 34.4722 13.8395 34.6401 13.7302C34.9586 13.5462 35.2167 13.6954 35.2167 14.0633Z" fill="white"/>
<path d="M19.5577 14.0281L12.8762 10.1711C12.4661 9.93405 12.5174 9.52126 12.9906 9.24759L19.4406 5.52332C19.9147 5.24873 20.6304 5.22036 21.0405 5.45742L27.722 9.31441C28.132 9.55055 28.0808 9.96425 27.6076 10.2379L21.1576 13.9613C20.6844 14.2359 19.9678 14.2652 19.5577 14.0281Z" fill="#66E3C4"/>
<path d="M12.8791 10.1719L12.8974 10.1829C12.9267 10.1594 12.9573 10.1374 12.9889 10.117L19.4389 6.3927C19.913 6.11812 20.6288 6.08975 21.0388 6.3268L27.7002 10.171C28.0782 9.89639 28.0974 9.53028 27.7185 9.31428L21.037 5.45729C20.6269 5.22023 19.9112 5.25043 19.4371 5.52319L12.9935 9.24838C12.5203 9.52205 12.4718 9.93484 12.8791 10.1719Z" fill="#0ABB92"/>
</svg>
