<svg width="43" height="49" viewBox="0 0 43 49" fill="none" xmlns="http://www.w3.org/2000/svg">
<path d="M41.5947 36.7351C41.7671 36.6286 41.9088 36.4792 42.0059 36.3014C42.1031 36.1237 42.1523 35.9237 42.1488 35.7211C42.1453 35.5186 42.0892 35.3204 41.9859 35.1461C41.8827 34.9718 41.7359 34.8273 41.5599 34.7269L23.6186 24.4603C22.4562 23.7894 21.01 23.9715 19.8458 24.6433L0.386955 36.1978C0.268667 36.2668 0.17063 36.3657 0.102705 36.4846C0.0347788 36.6035 -0.00064064 36.7382 8.77201e-06 36.8751C0.000658184 37.0121 0.0373535 37.1464 0.106404 37.2647C0.175454 37.3829 0.274425 37.4809 0.393362 37.5488L7.59387 41.7233C7.83683 41.8616 8.11315 41.9304 8.39259 41.9222C8.67203 41.914 8.94382 41.829 9.17822 41.6767L12.6142 39.4553L12.2481 38.8933L8.81668 41.1183C8.6848 41.2042 8.53182 41.2519 8.37454 41.2565C8.21727 41.261 8.06179 41.2221 7.9252 41.144L0.722863 36.9712C0.705338 36.9617 0.690777 36.9475 0.680769 36.9302C0.670761 36.9129 0.665692 36.8932 0.666116 36.8733C0.665567 36.8535 0.670492 36.834 0.680346 36.8169C0.6902 36.7998 0.704598 36.7857 0.721948 36.7763L20.1808 25.2263C21.1382 24.6772 22.3271 24.4941 23.2845 25.0433L41.1325 35.2368C41.2269 35.2906 41.3056 35.3681 41.3609 35.4617C41.4162 35.5552 41.4462 35.6616 41.4479 35.7702C41.4495 35.8789 41.4228 35.9861 41.3704 36.0813C41.318 36.1765 41.2417 36.2564 41.1489 36.3131L21.1162 47.8914C20.8747 48.0278 20.6019 48.099 20.3246 48.0979C20.0472 48.0967 19.775 48.0234 19.5346 47.885L12.6371 43.8852C12.6243 43.8781 12.6137 43.8676 12.6064 43.8548C12.5991 43.8421 12.5955 43.8276 12.5959 43.8129C12.5956 43.7984 12.5993 43.7841 12.6065 43.7715C12.6138 43.7589 12.6243 43.7485 12.6371 43.7415L17.1732 41.111L16.8382 40.6241L12.3021 43.2546C12.0678 43.2985 11.9277 43.542 11.9277 43.8129C11.927 43.9448 11.9613 44.0745 12.0271 44.1888C12.0928 44.3032 12.1877 44.398 12.3021 44.4637L19.1996 48.4662C19.5409 48.6638 19.928 48.7685 20.3224 48.7701C20.7167 48.7717 21.1046 48.6701 21.4475 48.4754L41.5947 36.7351Z" fill="#10362D"/>
<path d="M19.0176 43.7054L7.61784 37.1245C6.91857 36.72 7.00552 36.0143 7.81371 35.5484L18.8209 29.1927C19.6291 28.7268 20.851 28.6756 21.5511 29.0801L32.951 35.6619C33.6502 36.0656 33.5624 36.7712 32.7551 37.2371L21.747 43.591C20.9397 44.0587 19.7169 44.1099 19.0176 43.7054Z" fill="#10362D"/>
<path d="M36.7595 30.6461V25.721L25.7148 25.7145L21.8971 23.5106C21.0212 23.0053 19.4909 23.0685 18.4786 23.6524L14.9172 25.7091L3.86247 25.7027V30.7687C3.83776 31.111 4.02905 31.4415 4.44916 31.684L18.7275 39.9261C19.6035 40.4313 21.1338 40.3682 22.1461 39.7842L35.9293 31.8259C36.5105 31.4891 36.7915 31.0497 36.7595 30.6461Z" fill="#0ABB92"/>
<path d="M20.3091 23.1709C19.669 23.18 19.0407 23.345 18.4786 23.6514L14.9172 25.7081L3.86247 25.7016V30.7677C3.83776 31.11 4.02905 31.4405 4.44916 31.683L18.7275 39.9251C19.1486 40.1676 19.7206 40.2784 20.3137 40.2638L20.3091 23.1709Z" fill="#10362D"/>
<path d="M5.11366 25.7036H3.86247V30.7697C3.83776 31.112 4.02905 31.4424 4.44916 31.685L5.11366 32.0685V25.7036Z" fill="#10362D"/>
<path d="M18.9463 40.0329C19.7023 40.3569 20.7952 40.3386 21.6793 40.0018V34.2529H18.9463V40.0329Z" fill="#0ABB92"/>
<path d="M18.7261 34.8782L4.44771 26.6406C3.57179 26.1345 3.68162 25.2513 4.69392 24.6664L18.4771 16.7089C19.4894 16.125 21.0198 16.0609 21.8957 16.5671L36.1741 24.8046C37.0509 25.3098 36.9411 26.1931 35.9288 26.7779L22.1446 34.7363C21.1323 35.3212 19.602 35.3843 18.7261 34.8782Z" fill="#0ABB92"/>
<path d="M18.9763 33.3937L7.01543 26.487C6.28321 26.0632 6.37473 25.3228 7.22045 24.834L18.7722 18.1644C19.6198 17.6756 20.9021 17.6216 21.6361 18.0463L33.5988 24.953C34.331 25.3768 34.2395 26.1172 33.3929 26.606L21.8421 33.2756C20.9945 33.7644 19.7085 33.8184 18.9763 33.3937Z" fill="#10362D"/>
<path d="M31.4909 31.9476C31.48 32.1476 31.4221 32.3423 31.3219 32.5158C31.2217 32.6893 31.0821 32.8367 30.9143 32.9462C30.5958 33.1292 30.3376 32.9809 30.3376 32.613C30.3485 32.4129 30.4063 32.2183 30.5065 32.0448C30.6067 31.8712 30.7464 31.7238 30.9143 31.6144C31.2328 31.4305 31.4909 31.5797 31.4909 31.9476Z" fill="#E5FAF5"/>
<path d="M33.3537 30.8754C33.343 31.0755 33.2852 31.2703 33.185 31.4438C33.0848 31.6173 32.945 31.7647 32.7771 31.874C32.4585 32.057 32.2004 31.9097 32.2004 31.5417C32.2113 31.3417 32.2691 31.147 32.3693 30.9735C32.4695 30.8 32.6092 30.6526 32.7771 30.5432C33.0956 30.3592 33.3537 30.5084 33.3537 30.8754Z" fill="#E5FAF5"/>
<path d="M35.2165 29.8041C35.2057 30.0042 35.1478 30.1989 35.0476 30.3724C34.9474 30.5459 34.8077 30.6933 34.6399 30.8027C34.3213 30.9857 34.0632 30.8375 34.0632 30.4704C34.0739 30.2704 34.1317 30.0756 34.2319 29.9021C34.3321 29.7286 34.4719 29.5812 34.6399 29.4719C34.9584 29.2879 35.2165 29.4371 35.2165 29.8041Z" fill="#E5FAF5"/>
<path d="M36.7595 22.7744V17.8484L25.7148 17.842L21.8971 15.638C21.0212 15.1328 19.4909 15.1959 18.4786 15.7799L14.9172 17.8365L3.86247 17.8301V22.8962C3.83776 23.2385 4.02905 23.5689 4.44916 23.8114L18.7275 32.0535C19.6035 32.5597 21.1338 32.4956 22.1461 31.9117L35.9293 23.9533C36.5105 23.6165 36.7915 23.1772 36.7595 22.7744Z" fill="#0ABB92"/>
<path d="M20.3091 15.2993C19.669 15.3089 19.0409 15.4738 18.4786 15.7798L14.9172 17.8365L3.86247 17.8301V22.8961C3.83776 23.2385 4.02905 23.5689 4.44916 23.8114L18.7275 32.0535C19.1486 32.2961 19.7206 32.4068 20.3137 32.3922L20.3091 15.2993Z" fill="#10362D"/>
<path d="M5.11366 17.8311H3.86247V22.8971C3.83776 23.2394 4.02905 23.5699 4.44916 23.8124L5.11366 24.1959V17.8311Z" fill="#10362D"/>
<path d="M18.9463 32.1618C19.7023 32.4849 20.7952 32.4675 21.6793 32.1297V26.3809H18.9463V32.1618Z" fill="#0ABB92"/>
<path d="M18.7261 27.0068L4.44771 18.7693C3.57179 18.2632 3.68162 17.3799 4.69392 16.796L18.4799 8.83395C19.4922 8.25 21.0225 8.18593 21.8984 8.69208L36.1768 16.9342C37.0536 17.4394 36.9438 18.3236 35.9315 18.9075L22.1483 26.8705C21.1323 27.4498 19.602 27.513 18.7261 27.0068Z" fill="#0ABB92"/>
<path d="M18.9763 25.5251L7.01543 18.6184C6.28321 18.1937 6.37473 17.4542 7.22045 16.9645L18.7722 10.2949C19.6198 9.80611 20.9021 9.75302 21.6361 10.1768L33.5988 17.0835C34.331 17.5073 34.2395 18.2477 33.3929 18.7374L21.8421 25.4061C20.9945 25.8958 19.7085 25.9489 18.9763 25.5251Z" fill="#10362D"/>
<path d="M31.4909 24.0755C31.48 24.2756 31.4221 24.4702 31.3219 24.6437C31.2217 24.8172 31.0821 24.9647 30.9143 25.0741C30.5958 25.2572 30.3376 25.1089 30.3376 24.7409C30.3485 24.5409 30.4063 24.3462 30.5065 24.1727C30.6067 23.9992 30.7464 23.8517 30.9143 23.7424C31.2328 23.5584 31.4909 23.7076 31.4909 24.0755Z" fill="#E5FAF5"/>
<path d="M33.3537 23.0042C33.3428 23.2043 33.2849 23.3989 33.1847 23.5724C33.0845 23.7459 32.9449 23.8934 32.7771 24.0028C32.4585 24.1859 32.2004 24.0376 32.2004 23.6696C32.2113 23.4696 32.2691 23.2749 32.3693 23.1014C32.4695 22.9279 32.6092 22.7805 32.7771 22.6711C33.0956 22.4871 33.3537 22.6363 33.3537 23.0042Z" fill="#E5FAF5"/>
<path d="M35.2165 21.9321C35.2058 22.1321 35.148 22.3269 35.0478 22.5004C34.9476 22.6739 34.8078 22.8213 34.6399 22.9306C34.3213 23.1137 34.0632 22.9663 34.0632 22.5984C34.0741 22.3983 34.1319 22.2036 34.2321 22.0301C34.3323 21.8566 34.472 21.7092 34.6399 21.5998C34.9584 21.4158 35.2165 21.565 35.2165 21.9321Z" fill="#E5FAF5"/>
<path d="M36.7595 14.9043V9.97828L25.7148 9.97279L21.8971 7.76788C21.0212 7.26265 19.4909 7.3258 18.4786 7.90975L14.9172 9.96638L3.86247 9.95998V15.026C3.83776 15.3684 4.02905 15.6988 4.44916 15.9413L18.7275 24.1834C19.6035 24.6896 21.1338 24.6255 22.1461 24.0416L35.9293 16.0786C36.5105 15.7464 36.7915 15.307 36.7595 14.9043Z" fill="#0ABB92"/>
<path d="M20.3091 7.42969C19.669 7.43928 19.0409 7.60418 18.4786 7.91021L14.9172 9.96684L3.86247 9.96044V15.0265C3.83776 15.3688 4.02905 15.6992 4.44916 15.9418L18.7275 24.1839C19.1486 24.4274 19.7206 24.5372 20.3137 24.5225L20.3091 7.42969Z" fill="#10362D"/>
<path d="M5.11366 9.96094H3.86247V15.027C3.83776 15.3693 4.02905 15.6997 4.44916 15.9423L5.11366 16.3258V9.96094Z" fill="#10362D"/>
<path d="M18.9463 24.2917C19.7023 24.6147 20.7952 24.5974 21.6793 24.2605V18.5107H18.9463V24.2917Z" fill="#0ABB92"/>
<path d="M18.7261 19.1367L4.44771 10.8992C3.57179 10.393 3.68162 9.5098 4.69392 8.92585L18.4799 0.963832C19.4922 0.379883 21.0225 0.315814 21.8984 0.821963L36.1768 9.06406C37.0536 9.56929 36.9438 10.4535 35.9315 11.0374L22.1446 18.9958C21.1323 19.5797 19.602 19.6429 18.7261 19.1367Z" fill="#E5FAF5"/>
<path d="M35.9287 10.0681L22.1455 18.0265C21.1332 18.6104 19.6028 18.6736 18.7269 18.1674L4.44854 9.92992C4.27679 9.83454 4.12856 9.70194 4.0147 9.54185C3.71357 10.026 3.84995 10.5487 4.45128 10.8992L18.7297 19.1367C19.6056 19.6429 21.1359 19.5797 22.1482 18.9958L35.9314 11.0374C36.7176 10.5798 36.9565 9.94915 36.6142 9.45215C36.4394 9.71035 36.204 9.92184 35.9287 10.0681Z" fill="#0ABB92"/>
<path d="M31.4909 16.2059C31.4801 16.406 31.4222 16.6006 31.322 16.7741C31.2218 16.9477 31.0821 17.0951 30.9143 17.2045C30.5958 17.3875 30.3376 17.2392 30.3376 16.8713C30.3485 16.6713 30.4064 16.4766 30.5066 16.3031C30.6068 16.1296 30.7465 15.9822 30.9143 15.8727C31.2328 15.6888 31.4909 15.838 31.4909 16.2059Z" fill="#E5FAF5"/>
<path d="M33.3537 15.1346C33.3428 15.3347 33.2849 15.5293 33.1847 15.7028C33.0845 15.8763 32.9449 16.0237 32.7771 16.1332C32.4585 16.3162 32.2004 16.168 32.2004 15.8C32.2113 15.6 32.2691 15.4053 32.3693 15.2318C32.4695 15.0583 32.6092 14.9108 32.7771 14.8014C33.0956 14.6175 33.3537 14.7667 33.3537 15.1346Z" fill="#E5FAF5"/>
<path d="M35.2165 14.0633C35.2056 14.2634 35.1477 14.458 35.0475 14.6315C34.9473 14.805 34.8077 14.9525 34.6399 15.0619C34.3213 15.2449 34.0632 15.0967 34.0632 14.7287C34.0741 14.5287 34.1319 14.334 34.2321 14.1605C34.3323 13.987 34.472 13.8395 34.6399 13.7302C34.9584 13.5462 35.2165 13.6954 35.2165 14.0633Z" fill="#E5FAF5"/>
<path d="M19.5576 14.0281L12.876 10.1711C12.466 9.93405 12.5173 9.52126 12.9905 9.24759L19.4404 5.52332C19.9145 5.24873 20.6303 5.22036 21.0403 5.45742L27.7219 9.31441C28.1319 9.55055 28.0807 9.96425 27.6075 10.2379L21.1575 13.9613C20.6843 14.2359 19.9676 14.2652 19.5576 14.0281Z" fill="#0ABB92"/>
<path d="M12.8788 10.1719L12.8971 10.1829C12.9265 10.1594 12.9571 10.1374 12.9887 10.117L19.4386 6.3927C19.9128 6.11812 20.6285 6.08975 21.0386 6.3268L27.7 10.171C28.078 9.89639 28.0972 9.53028 27.7183 9.31428L21.0367 5.45729C20.6267 5.22023 19.9109 5.25043 19.4368 5.52319L12.9932 9.24838C12.52 9.52205 12.4715 9.93484 12.8788 10.1719Z" fill="#10362D"/>
</svg>
