<svg xmlns="http://www.w3.org/2000/svg" width="63" height="61" viewBox="0 0 63 61">
    <g fill="none" fill-rule="evenodd">
        <g transform="translate(-3 -4)">
            <g fill="#FFF" fill-rule="nonzero">
                <path stroke="#66C4AC" stroke-width="2.24" d="M61.964 30.953a1.731 1.731 0 1 0-2.449 2.449 3.44 3.44 0 0 1 1.015 2.449c0 1.909-1.67 3.463-3.579 3.463h-.08c-.002-.019 0-.037-.001-.056-.714-7.808-6.36-14.104-13.866-16.334-.477 5.29-4.884 9.463-10.296 9.463-5.617 0-10.18-4.487-10.357-10.062-2.28-2.38-5.408-3.791-8.692-3.791-.509 0-.992.223-1.32.612-.33.39-.472.903-.388 1.404l1.314 7.879a18.724 18.724 0 0 0-4.112 7.526c-2.366.486-4.267 2.583-4.267 5.09v3.464c0 2.865 2.445 5.195 5.31 5.195.08 0 .159-.005.237-.015l.103.003a19.142 19.142 0 0 0 4.855 6.05v6.2a1.73 1.73 0 0 0 1.732 1.73h6.926a1.73 1.73 0 0 0 1.732-1.73V59.92c.579.052 1.15.173 1.732.173h8.658v1.847a1.73 1.73 0 0 0 1.732 1.732h6.926a1.73 1.73 0 0 0 1.732-1.732v-3.924c5.865-2.992 9.676-8.775 10.273-15.24h.117c3.82 0 7.042-3.106 7.042-6.926a6.88 6.88 0 0 0-2.03-4.898zm-44.841 8.361a1.732 1.732 0 1 1 0-3.463 1.732 1.732 0 0 1 0 3.463zm20.78 0h-10.39a1.73 1.73 0 1 1 0-3.463h10.39a1.73 1.73 0 1 1 0 3.463z"/>
                <path stroke="#1D4B70" stroke-width="1.12" d="M32.708 15.63a6.373 6.373 0 0 0-6.367 6.367 6.373 6.373 0 0 0 6.367 6.367 6.373 6.373 0 0 0 6.366-6.367 6.373 6.373 0 0 0-6.366-6.366zM46.561 5.125a6.373 6.373 0 0 0-6.367 6.367 6.373 6.373 0 0 0 6.367 6.367 6.373 6.373 0 0 0 6.367-6.367 6.373 6.373 0 0 0-6.367-6.367z"/>
            </g>
            <path d="M0 0h70v70H0z"/>
            <circle cx="23.625" cy="35.875" r="20.125" fill="#0070A8" fill-opacity=".1" transform="matrix(1 0 0 -1 0 71.75)"/>
            <circle cx="51.625" cy="14.875" r="9.625" fill="#0070A8" fill-opacity=".1" transform="matrix(1 0 0 -1 0 29.75)"/>
        </g>
    </g>
</svg>
