<svg width="38" height="38" viewBox="0 0 38 38" fill="none" xmlns="http://www.w3.org/2000/svg">
<path d="M18.7 36.4C28.4754 36.4 36.4 28.4754 36.4 18.7C36.4 8.92456 28.4754 1 18.7 1C8.92456 1 1 8.92456 1 18.7C1 28.4754 8.92456 36.4 18.7 36.4Z" fill="#80868B" fill-opacity="0.1"/>
<path d="M18.7 36.9C28.7516 36.9 36.9 28.7516 36.9 18.7C36.9 8.64842 28.7516 0.5 18.7 0.5C8.64842 0.5 0.5 8.64842 0.5 18.7C0.5 28.7516 8.64842 36.9 18.7 36.9Z" stroke="#80868B" stroke-opacity="0.2"/>
<circle cx="11.5" cy="18.5" r="2.5" fill="#80868B"/>
<circle cx="18.5" cy="18.5" r="2.5" fill="#80868B"/>
<circle cx="25.5" cy="18.5" r="2.5" fill="#80868B"/>
</svg>
