<svg width="24" height="26" viewBox="0 0 24 26" fill="none" xmlns="http://www.w3.org/2000/svg">
  <path
    d="M19.8426 0.26569H7.45548C6.36171 0.267734 5.31332 0.702533 4.5399 1.47487C3.76649 2.24721 3.33108 3.29413 3.32903 4.38638V20.8846C3.34891 21.0892 3.44436 21.2791 3.59679 21.4173C3.74922 21.5554 3.94769 21.632 4.15355 21.632C4.3594 21.632 4.55788 21.5554 4.71031 21.4173C4.86273 21.2791 4.95819 21.0892 4.97806 20.8846V4.38638C4.97806 3.73025 5.23908 3.10099 5.70368 2.63703C6.16829 2.17307 6.79843 1.91242 7.45548 1.91242H19.8426C20.4996 1.91242 21.1298 2.17307 21.5944 2.63703C22.059 3.10099 22.32 3.73025 22.32 4.38638V20.8846C22.32 21.5407 22.059 22.17 21.5944 22.634C21.1298 23.0979 20.4996 23.3586 19.8426 23.3586H4.15742C3.50037 23.3586 2.87023 23.0979 2.40562 22.634C1.94101 22.17 1.68 21.5407 1.68 20.8846V4.38638C1.68 4.16391 1.5915 3.95055 1.43397 3.79324C1.27644 3.63593 1.06278 3.54755 0.84 3.54755C0.617218 3.54755 0.403561 3.63593 0.24603 3.79324C0.0884998 3.95055 3.31971e-09 4.16391 0 4.38638V20.8846C0.00101054 21.4281 0.109461 21.966 0.319131 22.4675C0.5288 22.969 0.835562 23.4242 1.22182 23.8071C1.60808 24.1899 2.06623 24.4928 2.56999 24.6985C3.07375 24.9041 3.61321 25.0084 4.15742 25.0053H19.8426C20.3868 25.0084 20.9263 24.9041 21.43 24.6985C21.9338 24.4928 22.3919 24.1899 22.7782 23.8071C23.1644 23.4242 23.4712 22.969 23.6809 22.4675C23.8905 21.966 23.999 21.4281 24 20.8846V4.38638C23.999 3.84292 23.8905 3.30501 23.6809 2.80351C23.4712 2.302 23.1644 1.84676 22.7782 1.46392C22.3919 1.08108 21.9338 0.778153 21.43 0.572532C20.9263 0.366911 20.3868 0.262636 19.8426 0.26569Z"
    fill="#00D09C" />
  <path
    d="M19.8423 6.85958H7.45525C7.34026 6.87072 7.22421 6.85772 7.11455 6.82141C7.00489 6.7851 6.90405 6.72629 6.8185 6.64875C6.73296 6.57121 6.6646 6.47666 6.61782 6.37117C6.57104 6.26568 6.54688 6.15158 6.54688 6.03622C6.54688 5.92085 6.57104 5.80675 6.61782 5.70126C6.6646 5.59578 6.73296 5.50122 6.8185 5.42368C6.90405 5.34614 7.00489 5.28733 7.11455 5.25102C7.22421 5.21471 7.34026 5.20171 7.45525 5.21285H19.8423C19.9573 5.20171 20.0734 5.21471 20.1831 5.25102C20.2927 5.28733 20.3936 5.34614 20.4791 5.42368C20.5646 5.50122 20.633 5.59578 20.6798 5.70126C20.7266 5.80675 20.7507 5.92085 20.7507 6.03622C20.7507 6.15158 20.7266 6.26568 20.6798 6.37117C20.633 6.47666 20.5646 6.57121 20.4791 6.64875C20.3936 6.72629 20.2927 6.7851 20.1831 6.82141C20.0734 6.85772 19.9573 6.87072 19.8423 6.85958Z"
    fill="#00D09C" />
  <path
    d="M19.8425 20.0647H7.45543C7.25054 20.0448 7.06039 19.9495 6.92203 19.7973C6.78368 19.6451 6.70703 19.4469 6.70703 19.2413C6.70703 19.0357 6.78368 18.8375 6.92203 18.6853C7.06039 18.5331 7.25054 18.4378 7.45543 18.4179H19.8425C19.9575 18.4068 20.0736 18.4198 20.1832 18.4561C20.2929 18.4924 20.3937 18.5512 20.4793 18.6288C20.5648 18.7063 20.6332 18.8009 20.68 18.9063C20.7267 19.0118 20.7509 19.1259 20.7509 19.2413C20.7509 19.3567 20.7267 19.4708 20.68 19.5762C20.6332 19.6817 20.5648 19.7763 20.4793 19.8538C20.3937 19.9314 20.2929 19.9902 20.1832 20.0265C20.0736 20.0628 19.9575 20.0758 19.8425 20.0647Z"
    fill="#00D09C" />
  <path
    d="M19.843 11.8166H14.8959C14.691 11.7968 14.5008 11.7014 14.3625 11.5492C14.2241 11.397 14.1475 11.1988 14.1475 10.9932C14.1475 10.7877 14.2241 10.5895 14.3625 10.4373C14.5008 10.2851 14.691 10.1897 14.8959 10.1699H19.843C19.9579 10.1587 20.074 10.1717 20.1837 10.2081C20.2933 10.2444 20.3942 10.3032 20.4797 10.3807C20.5653 10.4583 20.6336 10.5528 20.6804 10.6583C20.7272 10.7638 20.7513 10.8779 20.7513 10.9932C20.7513 11.1086 20.7272 11.2227 20.6804 11.3282C20.6336 11.4337 20.5653 11.5282 20.4797 11.6058C20.3942 11.6833 20.2933 11.7421 20.1837 11.7784C20.074 11.8147 19.9579 11.8278 19.843 11.8166Z"
    fill="#00D09C" />
  <path
    d="M19.843 15.9367H14.8959C14.691 15.9169 14.5008 15.8216 14.3625 15.6693C14.2241 15.5171 14.1475 15.3189 14.1475 15.1134C14.1475 14.9078 14.2241 14.7096 14.3625 14.5574C14.5008 14.4052 14.691 14.3098 14.8959 14.29H19.843C19.9579 14.2789 20.074 14.2919 20.1837 14.3282C20.2933 14.3645 20.3942 14.4233 20.4797 14.5008C20.5653 14.5784 20.6336 14.6729 20.6804 14.7784C20.7272 14.8839 20.7513 14.998 20.7513 15.1134C20.7513 15.2287 20.7272 15.3428 20.6804 15.4483C20.6336 15.5538 20.5653 15.6484 20.4797 15.7259C20.3942 15.8034 20.2933 15.8622 20.1837 15.8986C20.074 15.9349 19.9579 15.9479 19.843 15.9367Z"
    fill="#00D09C" />
  <path
    d="M11.6128 16.7647H8.2838C7.84707 16.7626 7.42882 16.5885 7.12001 16.2801C6.81119 15.9717 6.6368 15.554 6.63477 15.1179V10.9895C6.6368 10.5534 6.81119 10.1357 7.12001 9.82734C7.42882 9.51895 7.84707 9.34481 8.2838 9.34277H11.6128C12.0496 9.34481 12.4678 9.51895 12.7766 9.82734C13.0854 10.1357 13.2598 10.5534 13.2619 10.9895V15.1179C13.2598 15.554 13.0854 15.9717 12.7766 16.2801C12.4678 16.5885 12.0496 16.7626 11.6128 16.7647ZM8.2838 10.9895V15.1179H11.6128V10.9895H8.2838Z"
    fill="#00D09C" />
</svg>
