<svg width="50" height="50" viewBox="0 0 50 50" fill="none" xmlns="http://www.w3.org/2000/svg">
<path d="M39.3542 8H30.1039C28.351 8 26.7031 8.6825 25.4635 9.92206L9.24394 26.1417C8.44188 26.9438 8 28.0098 8 29.1488C8 30.2819 8.44188 31.3479 9.24394 32.15L18.85 41.7561C19.6521 42.5581 20.7181 43 21.8571 43C22.9902 43 24.0562 42.5581 24.8583 41.7561L41.0779 25.5365C42.3175 24.2969 43 22.6489 43 20.8961V11.6458C43 9.63625 41.3638 8 39.3542 8ZM41.5417 20.8961C41.5417 22.2596 41.0109 23.5415 40.0484 24.504L23.8273 40.725C22.7788 41.7736 20.9398 41.7808 19.8825 40.725L10.275 31.1175C9.74856 30.5925 9.45831 29.8925 9.45831 29.1429C9.45831 28.3992 9.7485 27.6992 10.275 27.1728L26.4946 10.9531C27.46 9.98919 28.7404 9.45831 30.1039 9.45831H39.3541C40.5602 9.45831 41.5416 10.4397 41.5416 11.6458V20.8961H41.5417Z" fill="#00D09C"/>
<path d="M34.9792 12.375C32.9697 12.375 31.3334 14.0113 31.3334 16.0208C31.3334 18.0304 32.9697 19.6666 34.9792 19.6666C36.9888 19.6666 38.625 18.0304 38.625 16.0208C38.625 14.0113 36.9888 12.375 34.9792 12.375ZM34.9792 18.2083C33.7731 18.2083 32.7917 17.2269 32.7917 16.0208C32.7917 14.8147 33.7731 13.8333 34.9792 13.8333C36.1853 13.8333 37.1667 14.8147 37.1667 16.0208C37.1667 17.2269 36.1852 18.2083 34.9792 18.2083Z" fill="#00D09C"/>
</svg>
