<svg width="120" height="120" viewBox="0 0 120 120" fill="none" xmlns="http://www.w3.org/2000/svg"><circle cx="60" cy="60" r="60" fill="#E5FAF5"/><path d="M76.279 70.091c-.807.238-1.991.265-3.262.08-1.362-.197-2.753-.614-4.119-1.228 2.437-.354 4.327-.245 5.943.328.384.136 1.013.499 1.438.82zm-13.595-2.235c-.1.027-.196.052-.294.08-.656.178-1.293.352-1.908.507l-.829.21c-1.667.422-3.372.853-5.056 1.366.64-1.543 1.235-3.103 1.817-4.629.43-1.129.87-2.282 1.326-3.421.231.381.472.763.723 1.145a22.293 22.293 0 0 0 4.221 4.742zm-4.241-17.402c.108 1.904-.303 3.736-.906 5.493-.742-2.173-1.088-4.573-.16-6.51.238-.496.433-.762.56-.9.195.302.452.976.506 1.917zm-8.705 24.121a32.838 32.838 0 0 1-1.28 2.104c-1.052 1.587-2.774 3.287-3.66 3.287-.086 0-.192-.014-.346-.177-.099-.104-.115-.179-.11-.28.03-.584.803-1.623 1.923-2.586a18.913 18.913 0 0 1 3.473-2.348zm29.359-4.402c-.136-1.943-3.407-3.19-3.44-3.202-1.264-.448-2.638-.666-4.2-.666-1.671 0-3.473.242-5.788.783-2.06-1.46-3.839-3.288-5.168-5.311a32.478 32.478 0 0 1-1.574-2.658c1.123-2.685 2.134-5.572 1.95-8.805-.148-2.593-1.317-4.334-2.907-4.334-1.09 0-2.03.808-2.793 2.403-1.362 2.842-1.004 6.48 1.064 10.82-.745 1.749-1.437 3.562-2.106 5.318-.834 2.183-1.692 4.434-2.66 6.576-2.714 1.074-4.943 2.376-6.8 3.975-1.218 1.045-2.685 2.643-2.769 4.311-.04.786.229 1.507.776 2.084.581.613 1.313.936 2.116.936 2.654 0 5.208-3.646 5.692-4.377.975-1.47 1.887-3.109 2.782-5 2.252-.814 4.653-1.421 6.98-2.009l.832-.212c.626-.159 1.277-.335 1.945-.517.707-.191 1.434-.39 2.172-.578 2.39 1.52 4.958 2.51 7.464 2.874 2.11.307 3.985.13 5.253-.532 1.142-.595 1.206-1.512 1.179-1.879zm5.139 16.712c0 3.56-3.137 3.778-3.77 3.786H39.992c-3.546 0-3.76-3.159-3.767-3.786v-53.77c0-3.563 3.143-3.78 3.767-3.787h27.341l.015.015v10.67c0 2.14 1.294 6.195 6.197 6.195h10.6l.09.09v40.587zm-2.513-43.11h-8.177c-3.546 0-3.76-3.141-3.765-3.763v-8.228l11.942 11.991zm4.945 43.11v-41.59L69.78 28.337v-.078H69.7l-1.356-1.363H39.992c-2.144 0-6.199 1.3-6.199 6.218v53.771c0 2.15 1.296 6.218 6.199 6.218H80.47c2.143 0 6.198-1.3 6.198-6.218z" fill="#00D09C"/></svg>
