<svg width="100" height="100" viewBox="0 0 100 100" fill="none" xmlns="http://www.w3.org/2000/svg">
<path d="M50 100C77.6142 100 100 77.6142 100 50C100 22.3858 77.6142 0 50 0C22.3858 0 0 22.3858 0 50C0 77.6142 22.3858 100 50 100Z" fill="#FFF5E0"/>
<path d="M50.0003 83.3333C68.4098 83.3333 83.3337 68.4095 83.3337 50C83.3337 31.5905 68.4098 16.6666 50.0003 16.6666C31.5908 16.6666 16.667 31.5905 16.667 50C16.667 68.4095 31.5908 83.3333 50.0003 83.3333Z" fill="#FFB61B"/>
<circle cx="49.9997" cy="49.9997" r="16.6667" fill="white"/>
<path d="M50 25.0002C36.2 25.0002 25 36.2002 25 50.0002C25 63.8002 36.2 75.0002 50 75.0002C63.8 75.0002 75 63.8002 75 50.0002C75 36.2002 63.8 25.0002 50 25.0002ZM52.5 62.5002H47.5V57.5002H52.5V62.5002ZM52.5 52.5002H47.5V37.5002H52.5V52.5002Z" fill="#FFB61B"/>
</svg>
