<svg width="18" height="18" fill="none" xmlns="http://www.w3.org/2000/svg"><path d="M7.313 18H2.251A2.187 2.187 0 0 1 0 15.75V3.374A3.378 3.378 0 0 1 3.376 0h11.25A3.378 3.378 0 0 1 18 3.375v3.937a.562.562 0 1 1-1.125 0V3.375a2.25 2.25 0 0 0-2.25-2.25H3.375a2.25 2.25 0 0 0-2.25 2.25v12.374a1.058 1.058 0 0 0 1.126 1.125h5.062a.563.563 0 0 1 0 1.125Z" fill="currentColor"/><path d="M12.938 18A5.062 5.062 0 1 1 18 12.937 5.069 5.069 0 0 1 12.938 18Zm0-9a3.937 3.937 0 1 0 0 7.874 3.937 3.937 0 0 0 0-7.874Z" fill="currentColor"/><path d="M12.937 14.062H11.25a.563.563 0 0 1 0-1.125h1.125v-1.124a.563.563 0 0 1 1.125 0V13.5c0 .31-.252.562-.563.562Z" fill="currentColor"/></svg>
