<svg width="17" height="16" viewBox="0 0 17 16" fill="none" xmlns="http://www.w3.org/2000/svg">
<g clip-path="url(#clip0_1725_87)">
<path d="M15.0005 6.85943L3.30254 0.172648C3.10086 0.0574476 2.87633 0 2.6518 0C2.64722 0 2.64273 0.000609524 2.63823 0.000609524C2.60806 0.000914286 2.57797 0.0024381 2.54795 0.0048C2.53439 0.00586667 2.5209 0.00731429 2.50734 0.00883809C2.48387 0.0114286 2.46048 0.0147048 2.43717 0.0185905C2.42871 0.0200381 2.42018 0.0204952 2.41172 0.0220952L2.41218 0.0227048C2.26642 0.0496 2.12418 0.100952 1.99199 0.177676C1.58711 0.412571 1.33789 0.845257 1.33789 1.3133V14.6868C1.33789 15.1548 1.58711 15.5875 1.99199 15.8224C2.1241 15.8991 2.26635 15.9506 2.4121 15.9774L2.41172 15.978C2.41934 15.9794 2.42703 15.9799 2.43458 15.9811C2.45964 15.9854 2.48479 15.9889 2.51 15.9915C2.52265 15.9929 2.53522 15.9943 2.54787 15.9953C2.57751 15.9976 2.60707 15.999 2.63679 15.9994C2.64181 15.9995 2.64677 16.0001 2.6518 16.0001C2.87633 16.0001 3.10086 15.9426 3.30254 15.8274L15.0005 9.14057C15.4095 8.90674 15.6619 8.47185 15.6619 8.00061C15.6619 8.00061 15.6619 8.00038 15.6619 8.0003C15.6619 8.0003 15.6619 8.00008 15.6619 8C15.6619 8 15.6619 7.99977 15.6619 7.99969C15.6619 7.99969 15.6619 7.99947 15.6619 7.99939C15.6619 7.52823 15.4095 7.09333 15.0005 6.85943ZM10.3744 5.5315L9.21126 7.05737L6.25202 3.17501L10.3744 5.5315ZM14.4334 8.14834L6.25202 12.825L11.3746 6.10453L14.4333 7.85288C14.4862 7.88312 14.5191 7.93981 14.5191 8.00053C14.5191 8.06149 14.4862 8.11817 14.4334 8.14834Z" fill="white"/>
</g>
<defs>
<clipPath id="clip0_1725_87">
<rect width="16" height="16" fill="white" transform="translate(0.5)"/>
</clipPath>
</defs>
</svg>
