<svg width="27" height="28" viewBox="0 0 27 28" fill="none" xmlns="http://www.w3.org/2000/svg">
<path d="M25.8068 13.9933L14.4135 1.5V8.98367H13.09C9.81144 8.98367 6.72897 10.2605 4.41059 12.5788C2.09221 14.8972 0.81543 17.9797 0.81543 21.2584V26.5L3.00201 24.1042C5.92693 20.8996 10.0788 19.0459 14.4135 19.0037V26.4868L25.8068 13.9933ZM2.28046 22.7337V21.2584C2.28046 18.3711 3.40485 15.6563 5.44647 13.6147C7.4881 11.5731 10.2026 10.4487 13.09 10.4487H15.8783V5.28056L23.8243 13.9933L15.8783 22.7063V17.5381H14.564C9.9398 17.5381 5.49301 19.4255 2.28046 22.7337Z" fill="#7C7E8C" stroke="white" stroke-width="0.5"/>
</svg>
