<svg className="profileIcon" xmlns="http://www.w3.org/2000/svg" width="15" height="14" viewBox="0 0 15 14">
          <g fill="#FFFFFF" opacity=".7">
            <path d="M13.9659703,0 L8.5318324,0 C8.10821171,0 7.70941861,0.1595 7.41045309,0.449 L0.464935851,7.1625 C-0.156271046,7.7635 -0.153684839,8.7325 0.464935851,9.3305 L4.83045309,13.5505 C5.44907378,14.1485 6.45459102,14.148 7.07269447,13.5505 L14.0182117,6.8365 C14.3182117,6.5475 14.4832117,6.1625 14.4832117,5.753 L14.4832117,0.5 C14.4832117,0.224 14.2520048,0 13.9659703,0 Z M13.448729,5.753 C13.448729,5.8955 13.3913152,6.029 13.2868324,6.13 L6.3418324,12.844 C6.12717723,13.0515 5.7780393,13.0525 5.56234964,12.844 L1.1968324,8.6235 C0.98217723,8.417 0.980625506,8.0785 1.1968324,7.87 L8.14234964,1.156 C8.24579792,1.0555 8.38441861,1 8.5318324,1 L13.448729,1 L13.448729,5.753 Z" />
            <path d="M6.08982759 5.1465L8.67603448 7.6465C8.87827586 7.842 8.87827586 8.158 8.67603448 8.3535 8.4737931 8.549 8.14689655 8.549 7.94465517 8.3535L5.35844828 5.8535C5.1562069 5.658 5.1562069 5.342 5.35844828 5.1465 5.56068966 4.951 5.88758621 4.951 6.08982759 5.1465L6.08982759 5.1465zM6.60706897 9.6465C6.80931034 9.842 6.80931034 10.158 6.60706897 10.3535 6.40482759 10.549 6.07793103 10.549 5.87568966 10.3535L3.28948276 7.8535C3.08724138 7.658 3.08724138 7.342 3.28948276 7.1465 3.49172414 6.951 3.81862069 6.951 4.02086207 7.1465L6.60706897 9.6465zM10.3793103 5C11.2348276 5 11.9310345 4.327 11.9310345 3.5 11.9310345 2.673 11.2348276 2 10.3793103 2 9.5237931 2 8.82758621 2.673 8.82758621 3.5 8.82758621 4.327 9.5237931 5 10.3793103 5zM10.3793103 3C10.6648276 3 10.8965517 3.2245 10.8965517 3.5 10.8965517 3.7755 10.6648276 4 10.3793103 4 10.0937931 4 9.86206897 3.7755 9.86206897 3.5 9.86206897 3.2245 10.0937931 3 10.3793103 3z" />
          </g>
        </svg>
