<svg className="profileIcon" xmlns="http://www.w3.org/2000/svg" width="15" height="16" viewBox="0 0 15 16">
          <path fill="#44475B" d="M493.96875,74.9375 C494.232422,74.9375 494.45459,74.8374023 494.635254,74.637207 C494.815918,74.4370117 494.925781,74.2246094 494.964844,74 L495.228516,72.7841797 C495.384766,72.7353516 495.53125,72.6816406 495.667969,72.6230469 C495.804688,72.5644531 495.941406,72.5009766 496.078125,72.4326172 L497.132812,73.1064453 C497.328125,73.2333984 497.557617,73.3041992 497.821289,73.3188477 C498.084961,73.3334961 498.30957,73.2480469 498.495117,73.0625 L499.154297,72.4033203 C499.339844,72.2177734 499.417969,71.9980469 499.388672,71.7441406 C499.359375,71.4902344 499.28125,71.265625 499.154297,71.0703125 L498.509766,69.9863281 C498.578125,69.859375 498.63916,69.7299805 498.692871,69.5981445 C498.746582,69.4663086 498.797852,69.3271484 498.84668,69.1806641 L500.0625,68.8876953 C500.287109,68.8291016 500.499512,68.7216797 500.699707,68.5654297 C500.899902,68.4091797 501,68.2041016 501,67.9501953 L501,67.0126953 C501,66.7490234 500.899902,66.5268555 500.699707,66.3461914 C500.499512,66.1655273 500.287109,66.0556641 500.0625,66.0166016 L498.861328,65.7529297 C498.822266,65.5966797 498.770996,65.4477539 498.70752,65.3061523 C498.644043,65.1645508 498.578125,65.0253906 498.509766,64.8886719 L499.154297,63.8046875 C499.28125,63.609375 499.359375,63.3847656 499.388672,63.1308594 C499.417969,62.8769531 499.339844,62.6572266 499.154297,62.4716797 L498.495117,61.8125 C498.30957,61.6269531 498.084961,61.5415039 497.821289,61.5561523 C497.557617,61.5708008 497.328125,61.6416016 497.132812,61.7685547 L496.078125,62.4423828 C495.941406,62.3740234 495.802246,62.3105469 495.660645,62.2519531 C495.519043,62.1933594 495.375,62.1396484 495.228516,62.0908203 L494.964844,60.8603516 C494.916016,60.6455078 494.803711,60.4379883 494.62793,60.237793 C494.452148,60.0375977 494.232422,59.9375 493.96875,59.9375 L493.03125,59.9375 C492.767578,59.9375 492.557617,60.0375977 492.401367,60.237793 C492.245117,60.4379883 492.142578,60.6503906 492.09375,60.875 L491.786133,62.0761719 C491.629883,62.125 491.476074,62.1811523 491.324707,62.2446289 C491.17334,62.3081055 491.024414,62.3789062 490.87793,62.4570312 L489.793945,61.7685547 C489.608398,61.6416016 489.381348,61.5708008 489.112793,61.5561523 C488.844238,61.5415039 488.62207,61.6269531 488.446289,61.8125 L487.772461,62.4716797 C487.59668,62.6572266 487.523438,62.8769531 487.552734,63.1308594 C487.582031,63.3847656 487.655273,63.609375 487.772461,63.8046875 L488.460938,64.9472656 C488.402344,65.0742188 488.34375,65.2060547 488.285156,65.3427734 C488.226562,65.4794922 488.177734,65.6162109 488.138672,65.7529297 L486.9375,66.0166016 C486.712891,66.0556641 486.500488,66.1655273 486.300293,66.3461914 C486.100098,66.5268555 486,66.7490234 486,67.0126953 L486,67.9501953 C486,68.2041016 486.100098,68.4091797 486.300293,68.5654297 C486.500488,68.7216797 486.712891,68.8291016 486.9375,68.8876953 L488.15332,69.1806641 C488.192383,69.3173828 488.23877,69.4467773 488.29248,69.5688477 C488.346191,69.690918 488.402344,69.8105469 488.460938,69.9277344 L487.772461,71.0703125 C487.655273,71.265625 487.582031,71.4902344 487.552734,71.7441406 C487.523438,71.9980469 487.59668,72.2177734 487.772461,72.4033203 L488.446289,73.0625 C488.62207,73.2480469 488.844238,73.3334961 489.112793,73.3188477 C489.381348,73.3041992 489.608398,73.2333984 489.793945,73.1064453 L490.87793,72.4179688 C491.024414,72.4960938 491.175781,72.5668945 491.332031,72.6303711 C491.488281,72.6938477 491.644531,72.75 491.800781,72.7988281 L492.09375,74 C492.152344,74.2246094 492.259766,74.4370117 492.416016,74.637207 C492.572266,74.8374023 492.777344,74.9375 493.03125,74.9375 L493.96875,74.9375 Z M493.954102,74 L493.104492,74 C493.084961,73.9804688 493.067871,73.9536133 493.053223,73.9194336 C493.038574,73.8852539 493.026367,73.84375 493.016602,73.7949219 L492.577148,72.0664062 L492.079102,71.9052734 C491.952148,71.8662109 491.825195,71.8198242 491.698242,71.7661133 C491.571289,71.7124023 491.444336,71.6513672 491.317383,71.5830078 L490.833984,71.3339844 L489.295898,72.3154297 C489.266602,72.3349609 489.234863,72.3520508 489.200684,72.3666992 C489.166504,72.3813477 489.134766,72.3886719 489.105469,72.3886719 L488.490234,71.7880859 C488.490234,71.7587891 488.497559,71.7246094 488.512207,71.6855469 C488.526855,71.6464844 488.548828,71.6074219 488.578125,71.5683594 L489.530273,69.9716797 L489.310547,69.5175781 C489.251953,69.4101562 489.200684,69.3051758 489.156738,69.2026367 C489.112793,69.1000977 489.076172,69 489.046875,68.9023438 L488.885742,68.4042969 L487.171875,67.9648438 C487.113281,67.9550781 487.064453,67.9428711 487.025391,67.9282227 C486.986328,67.9135742 486.957031,67.8964844 486.9375,67.8769531 L486.9375,67.0126953 L486.9375,67.0126953 C486.947266,67.0126953 486.969238,67.0029297 487.003418,66.9833984 C487.037598,66.9638672 487.069336,66.9492188 487.098633,66.9394531 L488.871094,66.5439453 L489.032227,66.03125 C489.061523,65.9238281 489.098145,65.8164062 489.14209,65.7089844 C489.186035,65.6015625 489.237305,65.484375 489.295898,65.3574219 L489.530273,64.9033203 L488.578125,63.3212891 C488.548828,63.2724609 488.526855,63.2285156 488.512207,63.1894531 C488.497559,63.1503906 488.490234,63.1162109 488.490234,63.0869141 L489.105469,62.4716797 C489.134766,62.4814453 489.164062,62.4936523 489.193359,62.5083008 C489.222656,62.5229492 489.24707,62.5351562 489.266602,62.5449219 L490.833984,63.5410156 L491.317383,63.2919922 C491.444336,63.2236328 491.571289,63.1625977 491.698242,63.1088867 C491.825195,63.0551758 491.952148,63.0087891 492.079102,62.9697266 L492.577148,62.8085938 L493.001953,61.109375 C493.011719,61.0507812 493.026367,61.0019531 493.045898,60.9628906 C493.06543,60.9238281 493.084961,60.8945312 493.104492,60.875 L493.96875,60.875 C493.96875,60.875 493.978516,60.8920898 493.998047,60.9262695 C494.017578,60.9604492 494.032227,60.9970703 494.041992,61.0361328 L494.422852,62.8085938 L494.935547,62.984375 C495.0625,63.0136719 495.18457,63.0551758 495.301758,63.1088867 C495.418945,63.1625977 495.536133,63.21875 495.65332,63.2773438 L496.136719,63.5263672 L497.645508,62.5595703 C497.674805,62.5400391 497.706543,62.5253906 497.740723,62.515625 C497.774902,62.5058594 497.806641,62.5009766 497.835938,62.5009766 L498.451172,63.1015625 C498.451172,63.1210938 498.443848,63.1503906 498.429199,63.1894531 C498.414551,63.2285156 498.392578,63.2675781 498.363281,63.3066406 L497.44043,64.8447266 L497.674805,65.3134766 C497.743164,65.4404297 497.801758,65.5625 497.850586,65.6796875 C497.899414,65.796875 497.938477,65.9140625 497.967773,66.03125 L498.128906,66.5439453 L499.87207,66.9394531 C499.920898,66.9492188 499.964844,66.9663086 500.003906,66.9907227 C500.042969,67.0151367 500.067383,67.0322266 500.077148,67.0419922 L500.0625,67.8769531 C500.042969,67.8964844 500.016113,67.9135742 499.981934,67.9282227 C499.947754,67.9428711 499.90625,67.9550781 499.857422,67.9648438 L498.114258,68.4042969 L497.953125,68.8876953 C497.914062,69.0048828 497.872559,69.1196289 497.828613,69.2319336 C497.784668,69.3442383 497.733398,69.4541016 497.674805,69.5615234 L497.44043,70.0302734 L498.363281,71.5537109 C498.392578,71.6025391 498.414551,71.6464844 498.429199,71.6855469 C498.443848,71.7246094 498.451172,71.7587891 498.451172,71.7880859 L497.835938,72.4033203 C497.806641,72.3935547 497.777344,72.3813477 497.748047,72.3666992 C497.71875,72.3520508 497.694336,72.3398438 497.674805,72.3300781 L496.136719,71.3486328 L495.65332,71.5976562 C495.536133,71.65625 495.418945,71.7099609 495.301758,71.7587891 C495.18457,71.8076172 495.067383,71.8515625 494.950195,71.890625 L494.4375,72.0664062 L494.056641,73.8095703 C494.046875,73.8486328 494.029785,73.8876953 494.005371,73.9267578 C493.980957,73.9658203 493.963867,73.9902344 493.954102,74 Z M493.5,70.25 C494.28125,70.25 494.947754,69.9765625 495.499512,69.4296875 C496.05127,68.8828125 496.327148,68.21875 496.327148,67.4375 C496.327148,66.65625 496.05127,65.9921875 495.499512,65.4453125 C494.947754,64.8984375 494.28125,64.625 493.5,64.625 C492.728516,64.625 492.066895,64.8984375 491.515137,65.4453125 C490.963379,65.9921875 490.6875,66.65625 490.6875,67.4375 C490.6875,68.21875 490.963379,68.8828125 491.515137,69.4296875 C492.066895,69.9765625 492.728516,70.25 493.5,70.25 Z M493.5,69.3125 C492.982422,69.3125 492.540527,69.1293945 492.174316,68.7631836 C491.808105,68.3969727 491.625,67.9550781 491.625,67.4375 C491.625,66.9199219 491.808105,66.4780273 492.174316,66.1118164 C492.540527,65.7456055 492.982422,65.5625 493.5,65.5625 C494.017578,65.5625 494.459473,65.7456055 494.825684,66.1118164 C495.191895,66.4780273 495.375,66.9199219 495.375,67.4375 C495.375,67.9550781 495.191895,68.3969727 494.825684,68.7631836 C494.459473,69.1293945 494.017578,69.3125 493.5,69.3125 Z" opacity=".7" transform="translate(-486 -59)" />
        </svg>
