<svg width="143" height="110" viewBox="0 0 143 110" fill="none" xmlns="http://www.w3.org/2000/svg">
<g clip-path="url(#clip0_9785_3420)">
<path d="M89.3066 24.2983C88.5689 23.6876 87.8001 23.108 87.0097 22.5619C82.5644 19.4986 76.9718 17.9417 70.3877 17.9274C69.8057 17.9274 69.2284 17.9369 68.656 17.9585C68.656 17.9585 68.6512 17.9585 68.6488 17.9585C68.0788 17.9825 67.5136 18.016 66.9507 18.0639C66.9483 18.0639 66.9435 18.0639 66.9411 18.0639C66.3807 18.1118 65.825 18.1693 65.2741 18.2411C65.2693 18.2411 65.2669 18.2411 65.2622 18.2411C64.7113 18.313 64.1652 18.3968 63.6239 18.4926C63.6191 18.4926 63.6143 18.4926 63.6095 18.495C63.0682 18.5908 62.5317 18.6986 62 18.8183C61.9928 18.8183 61.9857 18.8207 61.9785 18.8231C61.4468 18.9429 60.9222 19.0746 60.3977 19.2183C60.3905 19.2183 60.3809 19.2231 60.3737 19.2255C59.8516 19.3692 59.3343 19.5249 58.8193 19.6926C58.8121 19.695 58.8026 19.6974 58.7954 19.7021C58.2828 19.8698 57.7727 20.0494 57.2673 20.2434C57.2649 20.2434 57.2625 20.2434 57.2601 20.2458C57.2338 20.2554 57.2098 20.2674 57.1835 20.277C56.92 20.3776 56.6565 20.4829 56.3931 20.5907C56.2997 20.629 56.2039 20.6698 56.1105 20.7105C55.9093 20.7943 55.7105 20.8805 55.5117 20.9692C55.4111 21.0147 55.3081 21.0602 55.2075 21.1057C55.0039 21.1991 54.8003 21.2925 54.5991 21.3907C54.5129 21.4314 54.4267 21.4721 54.3405 21.5152C54.0555 21.6542 53.7728 21.7955 53.4902 21.944C53.4854 21.944 53.483 21.9488 53.4782 21.9488C53.4016 21.9871 53.3273 22.0302 53.2507 22.0709C53.0783 22.1619 52.9058 22.2529 52.7334 22.3487C52.6328 22.4038 52.5346 22.4613 52.434 22.5164C52.2831 22.6002 52.1322 22.6864 51.9813 22.7727C51.8735 22.8349 51.7681 22.8996 51.6628 22.9619C51.519 23.0457 51.3777 23.1295 51.2364 23.2182C51.1262 23.2852 51.0161 23.3547 50.9083 23.4241C50.7718 23.5104 50.6329 23.5966 50.4963 23.6828C50.4724 23.6996 50.446 23.7139 50.4221 23.7283C50.3933 23.7475 50.3646 23.7666 50.3359 23.7858C49.9047 24.066 49.476 24.3558 49.0473 24.6552C49.009 24.684 48.9683 24.7127 48.9299 24.739C48.4988 25.0456 48.0701 25.3594 47.6462 25.6851C47.6342 25.6947 47.6246 25.7019 47.6126 25.7091C47.5719 25.7402 47.5312 25.7737 47.4905 25.8049C47.2414 25.9965 46.9947 26.1929 46.748 26.3941C46.6666 26.4587 46.5875 26.5258 46.5061 26.5905C46.2115 26.8324 45.9169 27.0767 45.6247 27.3282C45.3708 27.5461 45.1217 27.7665 44.8774 27.9868C44.7696 28.0826 44.669 28.1832 44.5637 28.279C44.372 28.4563 44.1804 28.6335 43.9936 28.8131C43.7637 29.0311 43.5362 29.2514 43.3134 29.4742C43.1314 29.6562 42.9494 29.8358 42.7721 30.0203C42.6811 30.1137 42.5853 30.2047 42.4967 30.2981C42.3626 30.4394 42.2356 30.5807 42.1063 30.7244C41.953 30.8897 41.7997 31.0525 41.6512 31.2178C41.4237 31.4693 41.2057 31.7256 40.9878 31.9795C40.8536 32.1351 40.7171 32.2908 40.5878 32.4513C40.5495 32.4968 40.5087 32.5423 40.4704 32.5902C40.2716 32.8321 40.0848 33.0764 39.8956 33.3207C39.7926 33.4524 39.6872 33.5818 39.5866 33.7135C39.2681 34.135 38.9591 34.559 38.6597 34.9901C38.6573 34.9949 38.6549 34.9997 38.6501 35.0021C38.5879 35.0931 38.5304 35.1865 38.4681 35.2799C38.2262 35.6368 37.9867 35.996 37.7592 36.3601C37.6538 36.5254 37.558 36.6978 37.4574 36.8655C37.2969 37.1313 37.134 37.3948 36.9808 37.663C36.9592 37.699 36.94 37.7373 36.9185 37.7732C36.8873 37.8283 36.8586 37.8834 36.8275 37.9385C36.5808 38.3792 36.3437 38.8247 36.1161 39.2773C36.1161 39.2797 36.1137 39.2845 36.1113 39.2869C35.8838 39.7396 35.6706 40.1971 35.4647 40.6593C35.4383 40.7192 35.4096 40.7791 35.3832 40.8389C35.3641 40.8797 35.3449 40.9204 35.3281 40.9635C35.1413 41.3922 34.9617 41.8257 34.7916 42.264C34.7581 42.3527 34.727 42.4413 34.6934 42.5299C34.5449 42.9179 34.4036 43.3083 34.2695 43.7035C34.2144 43.8688 34.1617 44.034 34.1066 44.2017C34.0012 44.5298 33.8983 44.8579 33.8001 45.1909C33.7474 45.3705 33.6947 45.5525 33.6444 45.7345C33.6084 45.8639 33.5677 45.9908 33.5342 46.1226C33.4576 46.4076 33.3881 46.695 33.3186 46.9824C33.3067 47.0327 33.2923 47.0806 33.2803 47.1309C33.1654 47.6171 33.06 48.1081 32.9642 48.6039C32.9402 48.7212 32.9187 48.8386 32.8971 48.956C32.8037 49.4589 32.7127 49.9643 32.636 50.4768C32.5762 50.8744 32.5259 51.2648 32.4804 51.6552C32.4684 51.7463 32.4588 51.8373 32.4492 51.9283C32.4061 52.3115 32.3678 52.6947 32.3366 53.0731C32.3342 53.1163 32.3319 53.157 32.3271 53.2001C32.3007 53.5474 32.2792 53.8923 32.2624 54.2348C32.2576 54.3186 32.2528 54.4024 32.2504 54.4863C32.2337 54.8551 32.2241 55.2216 32.2217 55.5856C32.2217 55.6503 32.2217 55.7126 32.2217 55.7748C32.2217 56.0958 32.2217 56.4167 32.2313 56.7329C32.2313 56.8071 32.2337 56.8814 32.236 56.9556C32.248 57.3101 32.2648 57.6646 32.2887 58.0142C32.2935 58.0885 32.3007 58.1604 32.3055 58.2346C32.3295 58.546 32.3582 58.8573 32.3893 59.1663C32.3965 59.2238 32.4013 59.2813 32.4061 59.3363C32.4444 59.6812 32.4923 60.0237 32.5426 60.3615C32.5474 60.395 32.5498 60.4285 32.557 60.4596C32.5642 60.5051 32.5738 60.5483 32.5809 60.5938C32.6312 60.9123 32.6863 61.2261 32.7486 61.5398C32.7558 61.571 32.7606 61.6045 32.7678 61.6356C32.8348 61.971 32.9115 62.3039 32.9905 62.6344C33.0097 62.7134 33.0288 62.7901 33.048 62.8667C33.1318 63.1973 33.218 63.5278 33.3138 63.8559C33.3162 63.8679 33.321 63.8799 33.3258 63.8918C33.4192 64.208 33.5198 64.5217 33.6252 64.8355C33.6396 64.8762 33.6492 64.9169 33.6635 64.9577C33.6779 65.0032 33.6971 65.0463 33.7114 65.0894C33.7641 65.2403 33.8192 65.3888 33.8743 65.5373C33.9102 65.6355 33.9462 65.7337 33.9845 65.8319C34.0444 65.9899 34.109 66.1456 34.1713 66.3013C34.2072 66.3899 34.2431 66.4785 34.2791 66.5648C34.3581 66.7516 34.4395 66.936 34.5234 67.1204C34.5473 67.1755 34.5713 67.233 34.5976 67.2881C34.7078 67.5276 34.8204 67.7647 34.9377 67.9994C34.9425 68.0066 34.9449 68.0138 34.9473 68.021C34.9976 68.1216 35.0503 68.2198 35.1006 68.318C35.1605 68.4329 35.218 68.5455 35.2778 68.6605C35.3353 68.7683 35.3952 68.8737 35.4527 68.979C35.5149 69.0916 35.5748 69.2042 35.6395 69.3144C35.6994 69.4197 35.764 69.5251 35.8239 69.6281C35.8886 69.7383 35.9533 69.8509 36.0203 69.961C36.0826 70.064 36.1497 70.167 36.2143 70.27C36.2838 70.3802 36.3532 70.4903 36.4227 70.6005C36.4299 70.6101 36.4347 70.6197 36.4395 70.6293C36.5089 70.7347 36.5808 70.8376 36.6502 70.943C36.7125 71.0364 36.7748 71.1322 36.8394 71.2256C36.9185 71.3406 36.9999 71.4532 37.0813 71.5681C37.146 71.6592 37.2107 71.7526 37.2777 71.8436C37.364 71.9609 37.4526 72.0783 37.5412 72.1957C37.6059 72.2819 37.6681 72.3681 37.7352 72.4519C37.8334 72.5789 37.9364 72.7058 38.037 72.8328C38.0969 72.907 38.1544 72.9813 38.2142 73.0555C38.2142 73.0555 38.2166 73.0603 38.219 73.0627C38.3795 73.2591 38.5424 73.4555 38.71 73.6519C38.7915 73.7477 38.8753 73.8435 38.9567 73.9369L46.7719 82.8347C46.6881 82.7413 46.6067 82.6455 46.5252 82.5497C46.3552 82.3533 46.1899 82.1545 46.0271 81.9533C45.972 81.8863 45.9193 81.8168 45.8666 81.7497C45.7588 81.6156 45.6534 81.4839 45.548 81.3474C45.4882 81.2683 45.4283 81.1893 45.3684 81.1102C45.275 80.9857 45.1792 80.8636 45.0882 80.7366C45.0235 80.6504 44.9636 80.5618 44.9014 80.4731C44.8175 80.3558 44.7313 80.2384 44.6499 80.1187C44.5876 80.0277 44.5253 79.9342 44.4655 79.8432C44.3864 79.7283 44.3098 79.6109 44.2331 79.4935C44.1637 79.3858 44.0966 79.2756 44.0272 79.1678C43.9625 79.0624 43.8954 78.9594 43.8308 78.8541C43.7637 78.7463 43.7014 78.6361 43.6367 78.5259C43.5745 78.4181 43.5098 78.3128 43.4475 78.205C43.3853 78.0948 43.323 77.9822 43.2631 77.8721C43.2032 77.7643 43.1434 77.6589 43.0859 77.5511C43.026 77.4362 42.9661 77.3212 42.9086 77.2062C42.8536 77.1008 42.7985 76.9955 42.7458 76.8901C42.6284 76.653 42.5134 76.4158 42.4057 76.1763C42.3817 76.1212 42.3578 76.0662 42.3338 76.0135C42.25 75.8266 42.1686 75.6422 42.0895 75.453C42.0536 75.3644 42.0177 75.2782 41.9817 75.1895C41.9171 75.0339 41.8548 74.8782 41.7949 74.7201C41.7566 74.6219 41.7207 74.5237 41.6847 74.4255C41.6297 74.277 41.5746 74.1285 41.5219 73.9776C41.4931 73.8914 41.4644 73.8076 41.4333 73.7213C41.3279 73.41 41.2273 73.0962 41.1339 72.7777C41.1315 72.7657 41.1267 72.7537 41.1219 72.7417C41.0261 72.416 40.9375 72.0855 40.856 71.755C40.8369 71.6759 40.8177 71.5993 40.7986 71.5202C40.7195 71.1897 40.6429 70.8568 40.5758 70.5215C40.5686 70.4903 40.5638 70.4568 40.5566 70.4257C40.4944 70.1119 40.4393 69.7982 40.389 69.4796C40.377 69.4006 40.3626 69.3239 40.3531 69.2449C40.3028 68.9048 40.2549 68.5647 40.2165 68.2198C40.2094 68.1623 40.2046 68.1048 40.1998 68.0449C40.1662 67.7384 40.1399 67.427 40.1159 67.1156C40.1112 67.0414 40.104 66.9672 40.0992 66.8929C40.0752 66.5432 40.0585 66.1887 40.0465 65.8343C40.0441 65.7624 40.0441 65.6882 40.0417 65.6139C40.0345 65.2954 40.0297 64.9768 40.0321 64.6535C40.0321 64.5912 40.0321 64.5265 40.0321 64.4643C40.0369 64.1002 40.0465 63.7338 40.0609 63.3649C40.0633 63.2811 40.068 63.1949 40.0728 63.111C40.0896 62.7685 40.1112 62.426 40.1375 62.0787C40.1399 62.0356 40.1423 61.9949 40.1471 61.9518C40.1782 61.5734 40.2165 61.1902 40.2597 60.8069C40.2692 60.7159 40.2812 60.6249 40.2908 60.5339C40.3387 60.1435 40.389 59.7507 40.4465 59.3555C40.5231 58.843 40.6117 58.3376 40.7051 57.8346C40.7267 57.7173 40.7506 57.5975 40.7722 57.4801C40.8704 56.9844 40.9734 56.4934 41.0884 56.0095C41.1003 55.9592 41.1147 55.9089 41.1267 55.8587C41.2273 55.4395 41.3374 55.0252 41.4524 54.6132C41.5027 54.4312 41.5554 54.2491 41.6081 54.0695C41.7063 53.739 41.8093 53.4085 41.9147 53.0827C41.9698 52.9175 42.0201 52.7498 42.0775 52.5845C42.2117 52.1894 42.3554 51.7989 42.5015 51.4109C42.535 51.3223 42.5661 51.2313 42.5997 51.1451C42.7865 50.6661 42.9853 50.1894 43.1913 49.72C43.2176 49.6601 43.2463 49.6002 43.2727 49.5404C43.4787 49.0781 43.6942 48.6206 43.9194 48.168C43.9194 48.1656 43.9218 48.1632 43.9242 48.1608C44.1517 47.7081 44.3888 47.2626 44.6355 46.8219C44.6666 46.7668 44.6954 46.7117 44.7265 46.6567C44.899 46.3501 45.0834 46.0483 45.2654 45.7489C45.366 45.5813 45.4618 45.4112 45.5672 45.2459C45.7947 44.8843 46.0343 44.5274 46.2738 44.1705C46.336 44.0771 46.3959 43.9813 46.4606 43.8903C46.7624 43.4568 47.0737 43.0257 47.3971 42.6017C47.4953 42.47 47.6007 42.3431 47.7036 42.2137C47.9312 41.9215 48.1611 41.6293 48.3982 41.3419C48.5276 41.1838 48.6641 41.0282 48.7982 40.8725C49.0162 40.6162 49.2365 40.3599 49.464 40.1084C49.6125 39.9432 49.7658 39.7803 49.9167 39.615C50.1371 39.3779 50.3574 39.1432 50.585 38.9109C50.7622 38.7289 50.9442 38.5468 51.1262 38.3648C51.349 38.1445 51.5765 37.9241 51.8065 37.7038C51.9957 37.5241 52.1849 37.3469 52.3789 37.1696C52.7262 36.8511 53.0759 36.5325 53.4399 36.2188C53.7321 35.9673 54.0267 35.7206 54.3213 35.4811C54.4027 35.414 54.4842 35.3494 54.5632 35.2847C54.8099 35.0859 55.0566 34.8895 55.3033 34.6979C55.356 34.6572 55.4087 34.6165 55.459 34.5757C55.8853 34.25 56.3116 33.9339 56.7428 33.6297C56.7811 33.6009 56.8218 33.5722 56.8601 33.5458C57.2865 33.2465 57.7152 32.9567 58.1463 32.6764C58.199 32.6429 58.2517 32.607 58.3068 32.571C58.4433 32.4824 58.5798 32.3986 58.7187 32.3124C58.8289 32.2429 58.9391 32.1735 59.0493 32.1064C59.1906 32.0202 59.3343 31.9363 59.478 31.8501C59.5834 31.7878 59.6887 31.7232 59.7941 31.6609C59.945 31.5723 60.0983 31.4885 60.2516 31.4022C60.3498 31.3471 60.448 31.2897 60.5462 31.2346C60.7186 31.1412 60.8911 31.0478 61.0635 30.9567C61.1426 30.9136 61.2216 30.8705 61.303 30.8298C61.5857 30.6837 61.8683 30.54 62.1533 30.4011C62.2395 30.3604 62.3258 30.3196 62.412 30.2789C62.6156 30.1807 62.8191 30.0873 63.0227 29.9939C63.1233 29.9484 63.2239 29.9029 63.3245 29.8598C63.5257 29.7712 63.7245 29.6849 63.9257 29.5987C64.0191 29.5604 64.1125 29.5197 64.2059 29.4814C64.467 29.3736 64.7304 29.2682 64.9939 29.1676C65.0226 29.1556 65.0514 29.1436 65.0801 29.1341C65.5855 28.9425 66.0933 28.7628 66.6058 28.5952C66.6154 28.5928 66.625 28.588 66.6346 28.5856C67.1471 28.4179 67.6668 28.2622 68.1866 28.1185C68.1938 28.1185 68.2033 28.1138 68.2105 28.1114C68.7327 27.9677 69.2596 27.8359 69.7889 27.7162C69.7961 27.7162 69.8033 27.7114 69.8105 27.7114C70.3422 27.5916 70.8787 27.4838 71.4176 27.388C71.4248 27.388 71.4296 27.388 71.4367 27.3856C71.978 27.2898 72.5241 27.206 73.0726 27.1342C73.0774 27.1342 73.0822 27.1342 73.087 27.1342C73.6378 27.0623 74.1959 27.0024 74.7564 26.9569C74.7587 26.9569 74.7611 26.9569 74.7635 26.9569C75.324 26.909 75.8916 26.8755 76.4617 26.8515C76.4617 26.8515 76.4665 26.8515 76.4689 26.8515C77.0413 26.8276 77.6185 26.818 78.2005 26.818C84.7847 26.8348 90.3772 28.3916 94.8225 31.4525C95.6153 32.001 96.3818 32.5782 97.1195 33.189L89.3042 24.2912L89.3066 24.2983Z" fill="url(#paint0_linear_9785_3420)"/>
<path d="M117.303 0.165268L125.118 9.06309L124.222 50.8529L116.407 41.9575L117.303 0.165268Z" fill="url(#paint1_linear_9785_3420)"/>
<path d="M116.407 41.9574L124.222 50.8529L84.7625 43.8472L76.9473 34.9518L116.407 41.9574Z" fill="#1E2A7D"/>
<path d="M115.325 58.4885L112.803 64.3876C112.515 65.0582 112.219 65.7193 111.91 66.3731C111.866 66.4642 111.821 66.5528 111.78 66.6438C111.536 67.1587 111.284 67.6689 111.026 68.1719C110.935 68.3491 110.844 68.524 110.753 68.6988C110.511 69.1587 110.266 69.6161 110.015 70.0688C109.941 70.2005 109.869 70.3371 109.795 70.4688C109.483 71.0197 109.165 71.5633 108.837 72.1022C108.77 72.2148 108.7 72.325 108.631 72.4376C108.293 72.986 107.948 73.5297 107.594 74.0662C107.56 74.1165 107.526 74.1668 107.493 74.2171C107.213 74.6387 106.923 75.0506 106.633 75.465C106.386 75.8147 106.135 76.1619 105.881 76.5068C105.685 76.7751 105.486 77.0409 105.285 77.3068C105.021 77.6517 104.751 77.9918 104.48 78.3319C104.274 78.5882 104.07 78.8469 103.862 79.0983C103.61 79.4025 103.352 79.7019 103.093 80.0013C102.868 80.2624 102.645 80.5258 102.415 80.7821C102.149 81.0791 101.879 81.3713 101.606 81.6611C101.373 81.9126 101.141 82.1641 100.904 82.4132C100.626 82.703 100.341 82.9832 100.056 83.2682C99.8143 83.5101 99.5747 83.752 99.328 83.9892C99.0335 84.2718 98.7317 84.5472 98.4323 84.825C98.1856 85.0526 97.9413 85.2849 97.6922 85.5076C97.3138 85.8478 96.9234 86.1783 96.533 86.5088C96.3366 86.6765 96.145 86.8465 95.9462 87.0118C95.3689 87.4908 94.7821 87.9602 94.1834 88.4225C94.1666 88.4345 94.1522 88.4488 94.1355 88.4608C93.7139 88.7841 93.2828 89.0979 92.8517 89.4117C92.6768 89.5386 92.5068 89.6727 92.3296 89.7973C91.7164 90.2332 91.0961 90.6619 90.4638 91.0811C90.1979 91.2559 89.932 91.4283 89.6662 91.6008C89.2854 91.8451 88.9045 92.0846 88.5213 92.3217C88.4662 92.3552 88.4088 92.3888 88.3537 92.4223C88.0232 92.6235 87.6926 92.8223 87.3597 93.0163C87.2423 93.0858 87.1226 93.1528 87.0052 93.2223C86.7106 93.3923 86.416 93.56 86.1214 93.7229C86.0184 93.7803 85.9179 93.8378 85.8149 93.8929C85.4269 94.1061 85.0365 94.3144 84.646 94.518C84.5934 94.5444 84.5407 94.5707 84.4904 94.5971C84.0616 94.8198 83.6305 95.0354 83.197 95.2485C83.1084 95.2916 83.0198 95.3348 82.9312 95.3779C82.4737 95.5982 82.0138 95.8138 81.554 96.0222C81.4606 96.0653 81.3648 96.106 81.2713 96.1491C80.8259 96.3479 80.3804 96.5419 79.9325 96.7287C79.8966 96.7431 79.8582 96.7598 79.8223 96.7766C79.3505 96.973 78.8762 97.1598 78.402 97.3419C78.2823 97.3874 78.1649 97.4329 78.0451 97.4784C77.7913 97.5742 77.535 97.6676 77.2811 97.7586C77.1566 97.8041 77.032 97.8496 76.9075 97.8927C76.565 98.0125 76.2225 98.1322 75.8776 98.2448C75.844 98.2568 75.8081 98.2688 75.7746 98.2807C75.3962 98.4053 75.0153 98.525 74.6345 98.6424C74.5172 98.6783 74.4022 98.7119 74.2848 98.7478C74.019 98.8268 73.7507 98.9059 73.4849 98.9825C73.3459 99.0208 73.2046 99.0615 73.0657 99.0999C72.8142 99.1693 72.5627 99.2364 72.3089 99.3011C72.1699 99.337 72.031 99.3729 71.8921 99.4088C71.6167 99.4783 71.3412 99.5454 71.0634 99.61C70.9508 99.6364 70.8407 99.6627 70.7281 99.6891C70.3425 99.7777 69.9569 99.8615 69.5689 99.9429C69.5042 99.9573 69.4395 99.9693 69.3725 99.9813C69.0491 100.046 68.7258 100.111 68.4001 100.17C68.2683 100.194 68.1342 100.218 68.0025 100.242C67.7414 100.288 67.4803 100.333 67.2169 100.376C67.0732 100.4 66.9295 100.422 66.7857 100.446C66.5247 100.487 66.2636 100.525 66.0002 100.561C65.866 100.58 65.7295 100.599 65.5954 100.618C65.2816 100.659 64.9679 100.697 64.6541 100.736C64.5727 100.745 64.4912 100.755 64.4098 100.764C64.0146 100.808 63.6194 100.848 63.2242 100.884C63.1188 100.894 63.0111 100.901 62.9057 100.911C62.6135 100.935 62.3213 100.958 62.0291 100.978C61.8878 100.987 61.7441 100.997 61.6027 101.004C61.3417 101.021 61.0782 101.035 60.8148 101.047C60.6687 101.054 60.5225 101.061 60.3741 101.066C60.0986 101.078 59.8256 101.085 59.5501 101.093C59.4208 101.095 59.2939 101.1 59.1645 101.102C58.7645 101.109 58.3622 101.114 57.9598 101.112C44.1209 101.078 32.8615 96.2257 24.4834 86.6884L32.2986 95.5862C40.6767 105.124 51.9361 109.976 65.775 110.01C66.1774 110.01 66.5774 110.007 66.9798 110C67.1091 110 67.236 109.993 67.3654 109.99C67.6408 109.983 67.9162 109.976 68.1893 109.964C68.3354 109.959 68.4815 109.952 68.63 109.945C68.8934 109.933 69.1545 109.919 69.418 109.902C69.5593 109.892 69.703 109.885 69.8443 109.875C70.1365 109.856 70.4287 109.832 70.7209 109.808C70.8263 109.799 70.9341 109.792 71.0395 109.782C71.4347 109.746 71.8298 109.708 72.225 109.662C72.3065 109.653 72.3879 109.643 72.4693 109.634C72.7831 109.598 73.0969 109.559 73.4106 109.516C73.5447 109.499 73.6813 109.478 73.8154 109.459C74.0788 109.423 74.3399 109.384 74.6034 109.344C74.7471 109.322 74.8884 109.298 75.0321 109.277C75.2956 109.234 75.559 109.188 75.8225 109.143C75.9542 109.119 76.0859 109.097 76.2177 109.073C76.5434 109.013 76.8667 108.949 77.1925 108.884C77.2572 108.872 77.3218 108.86 77.3865 108.846C77.7745 108.767 78.1601 108.68 78.5457 108.592C78.6583 108.565 78.7685 108.539 78.8786 108.513C79.1541 108.448 79.4319 108.381 79.7073 108.311C79.8463 108.276 79.9828 108.24 80.1217 108.204C80.3756 108.137 80.6271 108.07 80.8809 108C81.0199 107.962 81.1588 107.923 81.2953 107.885C81.5636 107.808 81.8318 107.729 82.0977 107.65C82.215 107.614 82.33 107.581 82.4473 107.547C82.8282 107.43 83.2066 107.31 83.5874 107.186C83.6209 107.174 83.6569 107.162 83.6904 107.15C84.0353 107.035 84.3778 106.917 84.7203 106.798C84.8448 106.755 84.967 106.709 85.0891 106.664C85.3454 106.57 85.6017 106.477 85.8556 106.381C85.9202 106.357 85.9849 106.335 86.0472 106.309C86.1023 106.288 86.155 106.266 86.2101 106.244C86.6843 106.062 87.1585 105.876 87.6303 105.679C87.6663 105.665 87.7022 105.648 87.7405 105.634C88.1884 105.447 88.6363 105.253 89.0818 105.054C89.1752 105.011 89.271 104.97 89.3644 104.927C89.8243 104.719 90.2841 104.503 90.744 104.283C90.8326 104.24 90.9212 104.197 91.0098 104.154C91.4434 103.943 91.8745 103.725 92.3032 103.502C92.3415 103.483 92.3798 103.464 92.4158 103.445C92.4301 103.437 92.4445 103.428 92.4589 103.421C92.8493 103.217 93.2397 103.009 93.6277 102.793C93.7307 102.738 93.8313 102.681 93.9319 102.623C94.2289 102.458 94.5235 102.29 94.8181 102.12C94.9354 102.053 95.0528 101.984 95.1701 101.914C95.5055 101.718 95.8384 101.519 96.1713 101.315C96.2264 101.282 96.2791 101.251 96.3342 101.217C96.7174 100.982 97.1006 100.741 97.4814 100.496C97.515 100.475 97.5509 100.453 97.5844 100.432C97.8167 100.283 98.0467 100.13 98.279 99.9789C98.9113 99.5597 99.534 99.131 100.145 98.6951C100.26 98.6137 100.37 98.5274 100.485 98.4436C100.978 98.0867 101.469 97.7275 101.951 97.3586C101.963 97.349 101.977 97.3371 101.989 97.3275C102.59 96.8652 103.179 96.3934 103.759 95.912C103.958 95.7467 104.147 95.5767 104.343 95.4114C104.734 95.0809 105.124 94.748 105.503 94.4079C105.543 94.3719 105.586 94.336 105.63 94.2977C105.838 94.1109 106.037 93.9145 106.243 93.7253C106.542 93.4474 106.846 93.172 107.138 92.887C107.385 92.6498 107.622 92.4079 107.864 92.166C108.149 91.881 108.434 91.5984 108.714 91.311C108.77 91.2535 108.827 91.1984 108.882 91.1409C109.064 90.9493 109.237 90.7529 109.416 90.5589C109.687 90.2667 109.96 89.9745 110.226 89.6775C110.456 89.4212 110.678 89.1578 110.904 88.8967C111.162 88.5973 111.421 88.2979 111.672 87.9938C111.737 87.9147 111.807 87.8381 111.874 87.759C112.017 87.5842 112.151 87.4022 112.293 87.2273C112.563 86.8872 112.834 86.5495 113.098 86.2046C113.299 85.9412 113.497 85.6729 113.694 85.4047C113.948 85.0598 114.199 84.7149 114.446 84.3628C114.535 84.2358 114.628 84.1137 114.717 83.9868C114.915 83.6993 115.112 83.4071 115.306 83.1149C115.339 83.0646 115.375 83.0143 115.409 82.964C115.763 82.4275 116.108 81.8839 116.446 81.3354C116.515 81.2252 116.582 81.1126 116.652 81.0001C116.949 80.5115 117.241 80.0205 117.524 79.5223C117.552 79.472 117.581 79.4193 117.61 79.3666C117.684 79.2349 117.756 79.1007 117.83 78.969C118.082 78.5163 118.328 78.0589 118.57 77.5966C118.661 77.4218 118.752 77.2469 118.843 77.0697C119.102 76.5643 119.354 76.0542 119.598 75.5392C119.641 75.4482 119.686 75.3596 119.727 75.271C119.971 74.7536 120.209 74.2315 120.439 73.7022C120.498 73.5633 120.558 73.4243 120.618 73.2854L123.14 67.3863L115.325 58.4885Z" fill="url(#paint2_linear_9785_3420)"/>
<path d="M96.8463 58.4454L115.322 58.4885L112.8 64.3876C108.087 75.3955 100.568 84.3748 90.4585 91.0787C80.3799 97.7586 69.4463 101.133 57.9593 101.105C43.9097 101.071 32.5209 96.0701 24.1045 86.2453C15.6881 76.4182 12.4787 64.3685 14.56 50.4337C16.6414 36.4966 23.4483 24.4708 34.7939 14.6916C46.1419 4.90997 59.018 -0.0335299 73.0677 1.59102e-06C82.0086 0.0215575 89.7256 1.89213 96.008 5.56144C98.9204 7.25957 101.615 9.27864 104.06 11.5803L117.303 0.165264L116.407 41.9551L76.9477 34.9494L89.3065 24.2959C88.5688 23.6852 87.8 23.1056 87.0096 22.5595C82.5643 19.4962 76.9717 17.9393 70.3875 17.925C61.0921 17.9034 52.9943 20.9811 45.6246 27.3329C38.2572 33.6848 34.0035 41.2557 32.6263 50.4744C31.2491 59.6932 33.2371 67.2785 38.7027 73.6615C44.1707 80.0444 51.3441 83.1581 60.6395 83.1796C67.7266 83.1964 74.3371 81.2515 80.8398 77.235C87.2946 73.2471 92.0201 68.1288 95.2847 61.5805L96.8463 58.4454Z" fill="url(#paint3_linear_9785_3420)"/>
<path d="M104.06 11.5803C101.615 9.27864 98.9203 7.25957 96.0078 5.56144C89.7255 1.89213 82.006 0.0215575 73.0675 1.59111e-06C59.0178 -0.0335299 46.1417 4.90997 34.7961 14.6892C30.6909 18.2291 27.1821 22.0637 24.2744 26.1761C33.6057 15.0365 48.7859 7.22843 65.9325 7.22843C90.3889 7.22843 110.85 23.1128 116.033 41.8904L116.407 41.9575L117.303 0.165264L104.06 11.5803Z" fill="url(#paint4_linear_9785_3420)"/>
<path d="M14.6415 49.9379C14.62 50.0793 14.596 50.2206 14.5745 50.3619C14.5697 50.6014 14.5625 50.8385 14.5625 51.078L14.6415 49.9379Z" fill="url(#paint5_linear_9785_3420)"/>
<path d="M112.803 64.3876L115.325 58.4885L96.8657 58.4454C95.1269 78.9906 75.3744 94.0989 52.7383 92.1948C30.095 90.2907 13.1424 72.0831 14.8717 51.5283L14.3759 51.7941C12.6969 65.154 15.9662 76.7392 24.1072 86.2453C32.5236 96.0725 43.9123 101.073 57.962 101.105C69.4489 101.131 80.3826 97.7586 90.4612 91.0787C100.571 84.3748 108.089 75.3955 112.803 64.3876Z" fill="url(#paint6_linear_9785_3420)"/>
<path d="M54.3311 67.0102C54.973 66.1528 55.27 65.0822 55.1574 64.0164C55.0473 62.9505 54.5371 61.9638 53.7299 61.2572L49.7373 57.7316L54.0245 60.9554C54.8772 61.5973 55.9406 61.8967 57.0017 61.7913C58.0627 61.6859 59.0471 61.1854 59.7584 60.3902L63.3343 56.388L60.1153 60.6009C59.4614 61.4584 59.1573 62.529 59.2626 63.602C59.368 64.675 59.8758 65.6666 60.6829 66.3803L64.666 69.8844L60.3955 66.6821C59.5381 66.0378 58.4699 65.7384 57.4016 65.8486C56.3334 65.9588 55.349 66.4666 54.6401 67.2713L51.1193 71.2735L54.3335 67.0102H54.3311Z" fill="#1E2A7D"/>
<path d="M2.24237 53.1905C3.40906 53.1905 4.35485 52.2447 4.35485 51.078C4.35485 49.9113 3.40906 48.9655 2.24237 48.9655C1.07567 48.9655 0.129883 49.9113 0.129883 51.078C0.129883 52.2447 1.07567 53.1905 2.24237 53.1905Z" fill="#1E2A7D"/>
<path d="M110.501 102.017C111.668 102.017 112.614 101.071 112.614 99.9046C112.614 98.7379 111.668 97.7921 110.501 97.7921C109.334 97.7921 108.389 98.7379 108.389 99.9046C108.389 101.071 109.334 102.017 110.501 102.017Z" fill="#1E2A7D"/>
</g>
<defs>
<linearGradient id="paint0_linear_9785_3420" x1="64.6706" y1="17.9274" x2="64.6706" y2="82.8347" gradientUnits="userSpaceOnUse">
<stop offset="0.0477146"/>
<stop offset="1" stop-color="#1E2A7D"/>
</linearGradient>
<linearGradient id="paint1_linear_9785_3420" x1="120.763" y1="0.165268" x2="120.763" y2="50.8529" gradientUnits="userSpaceOnUse">
<stop stop-color="#1E2A7D"/>
<stop offset="1"/>
</linearGradient>
<linearGradient id="paint2_linear_9785_3420" x1="120.13" y1="74.9997" x2="58.1299" y2="105" gradientUnits="userSpaceOnUse">
<stop stop-color="#1E2A7D"/>
<stop offset="1" stop-color="#121212"/>
</linearGradient>
<linearGradient id="paint3_linear_9785_3420" x1="88.6289" y1="59.4998" x2="14.1299" y2="38.4998" gradientUnits="userSpaceOnUse">
<stop offset="0.111733" stop-color="#5762FC"/>
<stop offset="1"/>
</linearGradient>
<linearGradient id="paint4_linear_9785_3420" x1="108.628" y1="24.4998" x2="43.6299" y2="-2.50017" gradientUnits="userSpaceOnUse">
<stop stop-color="#5762FC"/>
<stop offset="1"/>
</linearGradient>
<linearGradient id="paint5_linear_9785_3420" x1="14.602" y1="49.9379" x2="14.602" y2="51.078" gradientUnits="userSpaceOnUse">
<stop stop-color="#5762FC"/>
<stop offset="1"/>
</linearGradient>
<linearGradient id="paint6_linear_9785_3420" x1="96.6299" y1="59.5" x2="36.6299" y2="99.5" gradientUnits="userSpaceOnUse">
<stop stop-color="#5762FC"/>
<stop offset="1"/>
</linearGradient>
<clipPath id="clip0_9785_3420">
<rect width="142.741" height="110" fill="white" transform="translate(0.129883)"/>
</clipPath>
</defs>
</svg>
