<svg width="34" height="34" viewBox="0 0 34 34" fill="none" xmlns="http://www.w3.org/2000/svg">
<g clip-path="url(#clip0)">
<path d="M27.8593 19.1188H30.3164C29.3752 26.3406 22.6837 30.8044 16.9742 30.8044C12.9938 30.8044 8.77205 28.6639 6.21947 25.3512C6.11137 25.2072 5.93445 25.1323 5.75587 25.1554C5.57728 25.1782 5.42488 25.2958 5.35718 25.4627C5.2892 25.6293 5.31651 25.8199 5.42851 25.9608C6.84355 27.7801 8.65225 29.2553 10.7192 30.2753C12.7361 31.2747 14.8989 31.8029 16.9742 31.8029C20.147 31.8029 23.4861 30.5645 26.1359 28.4053C29.0442 26.0352 30.8858 22.7376 31.3232 19.1191H34.0004L30.9299 14.6689L27.8593 19.1188Z" fill="#00D09C"/>
<path d="M3.68428 14.8738C4.62541 7.65208 11.317 3.18798 17.0262 3.18798C21.0066 3.18798 25.2283 5.32851 27.7812 8.64114C27.9495 8.85956 28.2629 8.90024 28.4813 8.73196C28.6997 8.56368 28.7404 8.25025 28.5721 8.03182C27.1571 6.21225 25.3481 4.73731 23.2811 3.71733C21.2643 2.71797 19.1018 2.18945 17.0262 2.18945C13.8534 2.18945 10.5143 3.42786 7.86476 5.58733C4.9564 7.95744 3.11453 11.2547 2.67712 14.8736H0L3.07051 19.3237L6.14131 14.8738H3.68428Z" fill="#00D09C"/>
<path d="M7.94238 16.9971C7.94238 21.9799 12.0059 26.0342 17.0004 26.0342C21.995 26.0342 26.0585 21.9799 26.0585 16.9971C26.0585 12.0139 21.995 7.95996 17.0004 7.95996C12.0059 7.95996 7.94238 12.0139 7.94238 16.9971ZM20.4755 12.4324C20.4755 12.708 20.252 12.9317 19.9762 12.9317H17.9839C18.3806 13.366 18.6428 13.906 18.7389 14.4866H19.9762C20.252 14.4866 20.4755 14.71 20.4755 14.9858C20.4755 15.2614 20.252 15.4851 19.9762 15.4851H18.7389C18.4929 16.957 17.2202 18.0363 15.7278 18.0382H15.28L18.6241 21.1985C18.7542 21.321 18.8091 21.5035 18.7679 21.6774C18.7267 21.8509 18.5957 21.9897 18.4247 22.0407C18.2533 22.0917 18.068 22.0471 17.9385 21.9242L13.6819 17.9017C13.5332 17.7613 13.4852 17.5443 13.5608 17.3543C13.6363 17.1642 13.8201 17.0394 14.0246 17.0394H15.7278C16.6694 17.0383 17.4902 16.3978 17.7203 15.4845H14.0246C13.7491 15.4845 13.5254 15.2611 13.5254 14.9853C13.5254 14.7097 13.7491 14.486 14.0246 14.486H17.7203C17.4902 13.573 16.6694 12.9328 15.7278 12.9317H14.0246C13.7491 12.9317 13.5254 12.708 13.5254 12.4324C13.5254 12.1566 13.7491 11.9332 14.0246 11.9332H19.9762C20.252 11.9332 20.4755 12.1566 20.4755 12.4324Z" fill="#00D09C"/>
</g>
<defs>
<clipPath id="clip0">
<rect width="34" height="34" fill="white"/>
</clipPath>
</defs>
</svg>
