<svg xmlns="http://www.w3.org/2000/svg" width="40" height="38" viewBox="0 0 40 38">
    <g fill="#D2AB66">
        <path d="M35.191 26.523c-.27-.179-.633-.105-.812.165l-2.178 3.287-1.11-1.054c-.236-.223-.606-.213-.83.021-.222.235-.212.606.022.829l1.617 1.535c.256.243.698.192.892-.101l2.564-3.87c.179-.27.105-.633-.165-.812zM24.464 31.44H3.907v-2.514h.114c.724 0 1.313-.59 1.313-1.313v-4.558c0-.723-.59-1.313-1.313-1.313h-.114v-8.138h.114c.724 0 1.313-.589 1.313-1.313V7.734c0-.724-.59-1.313-1.313-1.313h-.114V3.907H31.44v15.766c0 .323.262.585.586.585.324 0 .586-.262.586-.585V3.845c0-.612-.498-1.11-1.11-1.11H3.846c-.612 0-1.11.498-1.11 1.11v2.59c-.63.096-1.114.642-1.114 1.3v4.556c0 .657.484 1.203 1.115 1.298v8.168c-.63.096-1.115.642-1.115 1.298v4.558c0 .656.484 1.202 1.115 1.298v2.59c0 .613.497 1.11 1.109 1.11h20.62c.323 0 .585-.262.585-.586 0-.323-.262-.586-.586-.586zM4.162 23.054v4.558c0 .078-.063.141-.141.141H2.934c-.078 0-.142-.063-.142-.141v-4.558c0-.077.064-.14.142-.14h1.087c.078 0 .141.063.141.14zm0-15.32v4.556c0 .078-.063.142-.141.142H2.934c-.078 0-.142-.064-.142-.142V7.734c0-.078.064-.142.142-.142h1.087c.078 0 .141.064.141.142z"/>
        <path d="M25.404 19.954l-2.615-1.51c.047-.28.071-.566.071-.859 0-2.265-1.459-4.195-3.487-4.9V9.694c0-.928-.755-1.684-1.684-1.685h-.02c-.935 0-1.696.762-1.696 1.698v2.978c-2.027.705-3.487 2.636-3.487 4.9 0 .293.024.58.071.859l-2.614 1.51c-.799.461-1.086 1.488-.64 2.288l.017.03c.654 1.054 1.734.918 2.322.627l2.549-1.472c.921.836 2.143 1.346 3.482 1.346 1.34 0 2.561-.51 3.482-1.346l2.549 1.472c1.218.755 2.025-.14 2.323-.629l.016-.028c.446-.8.16-1.827-.639-2.288zM17.145 9.707c0-.29.236-.526.528-.526h.016c.282 0 .513.23.513.513 0 .907.026 1.818-.003 2.725-.601-.108-1.054.006-1.054.006V9.707zm-6.088 12.177c-.168.12-.536.077-.714-.184l-.016-.028c-.136-.245-.046-.56.202-.703l2.366-1.367c.138.328.309.637.509.926l-2.347 1.356zm6.616-.283c-2.214 0-4.015-1.802-4.015-4.016 0-2.213 1.801-4.014 4.015-4.014 2.214 0 4.016 1.8 4.016 4.014 0 2.214-1.802 4.016-4.016 4.016zm7.346.07l-.014.027c-.093.172-.39.394-.715.186l-2.347-1.356c.2-.289.37-.598.51-.926l2.365 1.367c.247.142.338.458.201.703z"/>
        <path d="M17.673 15.375c-1.219 0-2.21.992-2.21 2.21 0 1.22.991 2.211 2.21 2.211 1.22 0 2.21-.992 2.21-2.21 0-1.22-.99-2.21-2.21-2.21zm0 3.25c-.572 0-1.038-.467-1.038-1.04 0-.572.466-1.038 1.038-1.038.573 0 1.039.466 1.039 1.039 0 .572-.466 1.038-1.039 1.038z"/>
        <path d="M39.304 25.335c-1.097-.455-1.842-1.473-1.946-2.657-.043-.49-.462-.873-.955-.873h-.006l-1.05.006V2.056C35.347.922 34.424 0 33.29 0H2.056C.923 0 0 .923 0 2.056V33.29c0 1.134.923 2.057 2.056 2.057h27.265c.808.708 1.765 1.35 2.896 1.871.198.092.448.092.649-.003 5.954-2.832 6.962-8.933 7.13-10.736.045-.493-.233-.953-.692-1.144zM1.172 33.29V2.056c0-.487.397-.884.884-.884H33.29c.488 0 .885.397.885.884v19.762l-5.67.034c-.503.002-.912.384-.95.888-.092 1.184-.826 2.21-1.918 2.677-.455.194-.726.657-.675 1.15.134 1.28.72 4.729 3.198 7.608H2.056c-.487 0-.884-.397-.884-.885zm31.363 2.783c-5.236-2.522-6.223-7.925-6.403-9.593 1.416-.62 2.387-1.93 2.572-3.458l7.508-.044c.203 1.525 1.189 2.824 2.613 3.427-.16 1.67-1.084 7.084-6.29 9.668z"/>
    </g>
</svg>
