<svg width="43" height="49" viewBox="0 0 43 49" fill="none" xmlns="http://www.w3.org/2000/svg">
<path d="M23.9926 32.6981C23.9926 32.2581 23.7126 31.8181 23.1426 31.4781C22.9926 31.3881 22.8426 31.3181 22.6726 31.2481C22.5526 31.1981 22.4326 31.1581 22.3026 31.1281C22.2026 31.0981 22.0926 31.0681 21.9826 31.0481C21.8826 31.0281 21.7826 31.0081 21.6826 30.9981C21.5826 30.9881 21.4826 30.9781 21.3926 30.9681C21.2926 30.9681 21.1926 30.9581 21.0926 30.9481C20.9926 30.9481 20.8826 30.9481 20.7826 30.9481C20.6726 30.9481 20.5526 30.9581 20.4426 30.9681C20.3126 30.9781 20.1826 30.9981 20.0526 31.0181C19.8626 31.0581 19.6726 31.0981 19.4826 31.1581C19.2626 31.2281 19.0426 31.3181 18.8526 31.4281C18.8326 31.4381 18.8026 31.4581 18.7826 31.4681C18.6326 31.5581 18.5026 31.6581 18.3926 31.7581C18.3226 31.8181 18.2626 31.8881 18.2026 31.9581C18.1526 32.0181 18.1126 32.0781 18.0826 32.1381C18.0526 32.1981 18.0226 32.2481 18.0026 32.3081C17.9826 32.3681 17.9626 32.4181 17.9526 32.4781C17.9426 32.5381 17.9326 32.5981 17.9326 32.6481C17.9326 32.6481 17.9326 32.6681 17.9326 32.6781L17.8926 46.5881C17.8926 46.6481 17.9126 46.7081 17.9226 46.7681C17.9226 46.8181 17.9226 46.8681 17.9426 46.9081C17.9626 46.9781 18.0026 47.0381 18.0326 47.0981C18.0526 47.1381 18.0726 47.1881 18.1026 47.2281C18.1526 47.2981 18.2126 47.3581 18.2726 47.4281C18.3026 47.4581 18.3326 47.4981 18.3626 47.5381C18.4726 47.6381 18.5926 47.7281 18.7426 47.8181C18.8926 47.9081 19.0426 47.9781 19.2126 48.0481C19.3326 48.0981 19.4526 48.1381 19.5826 48.1681C19.6226 48.1781 19.6526 48.1881 19.6926 48.1981C19.7226 48.1981 19.7526 48.2181 19.7826 48.2181C19.8226 48.2181 19.8626 48.2381 19.9026 48.2481C20.0026 48.2681 20.1026 48.2881 20.2026 48.2981C20.2226 48.2981 20.2426 48.2981 20.2726 48.2981C20.2926 48.2981 20.3126 48.2981 20.3426 48.2981C20.3926 48.2981 20.4526 48.3081 20.5026 48.3181C20.6026 48.3181 20.7026 48.3281 20.8026 48.3381C20.8226 48.3381 20.8426 48.3381 20.8526 48.3381C20.8726 48.3381 20.8926 48.3381 20.9226 48.3381C20.9826 48.3381 21.0526 48.3381 21.1126 48.3381C21.2226 48.3381 21.3426 48.3281 21.4526 48.3181C21.4526 48.3181 21.4626 48.3181 21.4726 48.3181C21.5926 48.3081 21.7126 48.2881 21.8326 48.2681C21.8626 48.2681 21.8926 48.2481 21.9226 48.2481C22.0226 48.2281 22.1226 48.1981 22.2226 48.1781C22.2826 48.1581 22.3426 48.1481 22.4026 48.1381C22.4226 48.1381 22.4426 48.1181 22.4626 48.1181C22.6626 48.0481 22.8626 47.9681 23.0326 47.8681C23.0526 47.8581 23.0826 47.8381 23.1026 47.8281C23.1626 47.7981 23.1926 47.7581 23.2426 47.7181C23.3126 47.6681 23.3926 47.6181 23.4526 47.5681C23.4626 47.5681 23.4826 47.5481 23.4926 47.5381C23.5626 47.4781 23.6226 47.4081 23.6826 47.3381C23.6826 47.3381 23.6926 47.3181 23.7026 47.3081C23.7126 47.2981 23.7226 47.2781 23.7326 47.2681C23.7626 47.2281 23.7826 47.1981 23.8026 47.1581C23.8326 47.0981 23.8626 47.0481 23.8826 46.9881C23.8826 46.9881 23.8826 46.9781 23.8826 46.9681C23.9026 46.9181 23.9126 46.8681 23.9226 46.8281C23.9326 46.7681 23.9426 46.7081 23.9426 46.6581C23.9426 46.6581 23.9426 46.6381 23.9426 46.6281L23.9826 32.7181L23.9926 32.6981Z" fill="#0ABB92"/>
<path d="M20.9543 34.4381L20.0243 31.0281C19.8443 31.0581 19.6643 31.1081 19.4943 31.1581C19.2743 31.2281 19.0543 31.3181 18.8643 31.4281C18.8443 31.4381 18.8143 31.4581 18.7943 31.4681C18.6443 31.5581 18.5143 31.6581 18.4043 31.7581C18.3343 31.8181 18.2743 31.8881 18.2143 31.9581C18.1643 32.0181 18.1243 32.0781 18.0943 32.1381C18.0643 32.1981 18.0343 32.2481 18.0143 32.3081C17.9943 32.3681 17.9743 32.4181 17.9643 32.4781C17.9543 32.5381 17.9443 32.5981 17.9443 32.6481C17.9443 32.6481 17.9443 32.6681 17.9443 32.6781L17.9043 46.5881C17.9043 46.6481 17.9243 46.7081 17.9343 46.7681C17.9343 46.8181 17.9343 46.8681 17.9543 46.9081C17.9743 46.9781 18.0143 47.0381 18.0443 47.0981C18.0643 47.1381 18.0843 47.1881 18.1143 47.2281C18.1643 47.2981 18.2243 47.3581 18.2843 47.4281C18.3143 47.4581 18.3443 47.4981 18.3743 47.5381C18.4843 47.6381 18.6043 47.7281 18.7543 47.8181C18.9043 47.9081 19.0543 47.9781 19.2243 48.0481C19.3443 48.0981 19.4643 48.1381 19.5943 48.1681C19.6343 48.1781 19.6643 48.1881 19.7043 48.1981C19.7343 48.1981 19.7643 48.2181 19.7943 48.2181C19.8343 48.2181 19.8743 48.2381 19.9143 48.2481C20.0143 48.2681 20.1143 48.2881 20.2143 48.2981C20.2343 48.2981 20.2543 48.2981 20.2843 48.2981C20.3043 48.2981 20.3243 48.2981 20.3543 48.2981C20.4043 48.2981 20.4643 48.3081 20.5143 48.3181C20.6143 48.3181 20.7143 48.3281 20.8143 48.3381C20.8343 48.3381 20.8543 48.3381 20.8643 48.3381C20.8843 48.3381 20.9043 48.3381 20.9343 48.3381C20.9343 48.3381 20.9443 48.3381 20.9543 48.3381V34.4281V34.4381Z" fill="#0B5E49"/>
<path d="M41.7939 10.2581C41.6039 9.56807 41.3039 8.87807 40.9039 8.20807C40.6139 7.72807 40.2739 7.24807 39.8739 6.78807C39.5539 6.41807 39.2039 6.04807 38.8139 5.69807C38.4739 5.38807 38.1039 5.08807 37.7139 4.78807C37.3639 4.51807 36.9839 4.26807 36.5939 4.00807C36.4439 3.90807 36.2839 3.81807 36.1239 3.71807C35.9039 3.58807 35.6739 3.45807 35.4439 3.32807C35.0739 3.12807 34.6939 2.92807 34.3039 2.74807C33.9339 2.56807 33.5539 2.40807 33.1639 2.24807C32.7939 2.09807 32.4139 1.94807 32.0239 1.80807C31.6539 1.67807 31.2739 1.54807 30.8939 1.43807C30.5339 1.32807 30.1739 1.21807 29.8039 1.12807C29.4639 1.03807 29.1139 0.948072 28.7639 0.868072C28.4339 0.788072 28.1039 0.718072 27.7639 0.658072C27.4839 0.598072 27.1939 0.548072 26.9039 0.498072C26.6239 0.448072 26.3439 0.408072 26.0639 0.368072C25.8339 0.338072 25.6039 0.308072 25.3739 0.278072C25.1439 0.248072 24.9139 0.228072 24.6839 0.198072C24.4939 0.178072 24.2939 0.158072 24.1039 0.138072C23.9239 0.118072 23.7339 0.108072 23.5539 0.0980719C23.3739 0.0880719 23.1839 0.0780719 23.0039 0.0580719C22.8439 0.0580719 22.6939 0.0380719 22.5339 0.0380719C22.3839 0.0380719 22.2339 0.0280719 22.0739 0.0180719C21.9239 0.0180719 21.7739 0.0180719 21.6139 0.0080719C21.4639 0.0080719 21.3239 0.0080719 21.1739 0.0080719C21.0339 0.0080719 20.9039 0.0080719 20.7639 0.0080719C20.6239 0.0080719 20.4939 0.0080719 20.3539 0.0080719C20.2139 0.0080719 20.0839 0.0080719 19.9439 0.0080719C19.8039 0.0080719 19.6739 0.0080719 19.5339 0.0180719C19.4039 0.0180719 19.2639 0.0280719 19.1339 0.0380719C19.0039 0.0380719 18.8639 0.0480719 18.7339 0.0580719C18.6039 0.0580719 18.4639 0.0780719 18.3339 0.0880719C18.1839 0.0980719 18.0439 0.108072 17.8939 0.118072C17.7339 0.128072 17.5739 0.148072 17.4039 0.158072C17.2439 0.178072 17.0839 0.188072 16.9239 0.208072C16.7539 0.228072 16.5839 0.248072 16.4139 0.268072C16.1539 0.298072 15.8939 0.338072 15.6239 0.378072C15.2439 0.438072 14.8639 0.498072 14.4939 0.568072C14.0239 0.658072 13.5639 0.748072 13.1039 0.858072C12.7339 0.948072 12.3739 1.03807 12.0139 1.13807C11.7939 1.19807 11.5839 1.25807 11.3739 1.31807C11.1839 1.37807 10.9939 1.43807 10.8039 1.49807C10.6239 1.55807 10.4439 1.61807 10.2739 1.67807C10.1239 1.72807 9.96391 1.78807 9.81391 1.83807C9.66391 1.89807 9.51391 1.94807 9.36391 2.00807C9.21391 2.06807 9.06391 2.12807 8.91391 2.18807C8.75391 2.24807 8.59391 2.31807 8.44391 2.38807C8.28391 2.45807 8.13391 2.52807 7.98391 2.59807C7.82391 2.67807 7.65391 2.74807 7.49391 2.82807C7.30391 2.91807 7.12391 3.00807 6.93391 3.10807C6.75391 3.20807 6.57391 3.29807 6.39391 3.39807C6.39391 3.39807 6.38391 3.39807 6.37391 3.40807C6.13391 3.53807 5.91391 3.67807 5.68391 3.80807C5.43391 3.96807 5.18391 4.12807 4.94391 4.28807C4.64391 4.49807 4.35391 4.70807 4.07391 4.92807C3.72391 5.19807 3.39391 5.48807 3.09391 5.76807C2.76391 6.07807 2.46391 6.39807 2.18391 6.71807C1.91391 7.02807 1.67391 7.34807 1.45391 7.66807C1.25391 7.96807 1.07391 8.26807 0.913906 8.56807C0.763906 8.85807 0.633906 9.14807 0.513906 9.43807C0.403906 9.71807 0.313906 9.98807 0.243906 10.2681C0.173906 10.5381 0.113906 10.8081 0.0739063 11.0781C0.0339063 11.3381 0.0139062 11.6081 0.00390625 11.8681C0.00390625 12.1281 0.00390625 12.3881 0.0139062 12.6481C0.0339062 12.9081 0.0639062 13.1581 0.113906 13.4181C0.163906 13.6681 0.223906 13.9281 0.293906 14.1781C0.363906 14.4281 0.453906 14.6881 0.553906 14.9381C0.653906 15.1881 0.773906 15.4481 0.903906 15.6981C1.03391 15.9581 1.18391 16.2081 1.35391 16.4581C1.52391 16.7181 1.70391 16.9681 1.90391 17.2281C2.11391 17.4881 2.33391 17.7481 2.57391 18.0081C2.67391 18.1181 2.78391 18.2281 2.89391 18.3281L18.3639 33.5781C18.4839 33.6981 18.6339 33.8081 18.8039 33.9081C19.9639 34.6081 21.8739 34.6181 23.0739 33.9481C23.2739 33.8381 23.4339 33.7181 23.5639 33.5881L39.1239 18.4281C41.6739 15.9481 42.5639 13.0381 41.7839 10.2581H41.7939Z" fill="#0ABB92"/>
<path d="M11.9134 1.18807C11.7434 1.23807 11.5634 1.28807 11.3934 1.33807C11.2034 1.39807 11.0134 1.45807 10.8234 1.51807C10.6434 1.57807 10.4634 1.63807 10.2934 1.69807C10.1434 1.74807 9.98344 1.80807 9.83344 1.85807C9.68344 1.91807 9.53344 1.96807 9.38344 2.02807C9.23344 2.08807 9.08344 2.14807 8.93344 2.20807C8.77344 2.26807 8.61344 2.33807 8.46344 2.40807C8.30344 2.47807 8.15344 2.54807 8.00344 2.61807C7.84344 2.69807 7.67344 2.76807 7.51344 2.84807C7.32344 2.93807 7.14344 3.02807 6.95344 3.12807C6.77344 3.22807 6.59344 3.31807 6.41344 3.41807C6.41344 3.41807 6.40344 3.41807 6.39344 3.42807C6.15344 3.55807 5.93344 3.69807 5.70344 3.82807C5.45344 3.98807 5.20344 4.14807 4.96344 4.30807C4.66344 4.51807 4.37344 4.72807 4.09344 4.94807C3.74344 5.21807 3.41344 5.50807 3.11344 5.78807C2.78344 6.09807 2.48344 6.41807 2.20344 6.73807C1.93344 7.04807 1.69344 7.36807 1.47344 7.68807C1.27344 7.98807 1.09344 8.28807 0.933438 8.58807C0.783437 8.87807 0.653437 9.16807 0.533437 9.45807C0.423437 9.73807 0.333438 10.0081 0.263437 10.2881C0.193437 10.5581 0.133438 10.8281 0.0934375 11.0981C0.0534375 11.3581 0.0334375 11.6281 0.0234375 11.8881C0.0234375 12.1481 0.0234375 12.4081 0.0334375 12.6681C0.0534375 12.9281 0.0834375 13.1781 0.133437 13.4381C0.183437 13.6881 0.243437 13.9481 0.313437 14.1981C0.383437 14.4481 0.473438 14.7081 0.573438 14.9581C0.673438 15.2081 0.793438 15.4681 0.923438 15.7181C1.05344 15.9781 1.20344 16.2281 1.37344 16.4781C1.54344 16.7381 1.72344 16.9881 1.92344 17.2481C2.13344 17.5081 2.35344 17.7681 2.59344 18.0281C2.69344 18.1381 2.80344 18.2481 2.91344 18.3481L18.3834 33.5981C18.5034 33.7181 18.6534 33.8281 18.8234 33.9281C19.4134 34.2781 20.1934 34.4581 20.9734 34.4581L11.9134 1.18807Z" fill="#0B5E49"/>
<path d="M35.6934 20.9381C27.3634 25.6081 14.0534 25.4781 5.95337 20.6381C-2.14663 15.7981 -1.95663 8.08807 6.37337 3.41807C14.7034 -1.25193 28.0234 -1.12193 36.1134 3.71807C44.2134 8.55807 44.0234 16.2681 35.6934 20.9481V20.9381Z" fill="#E5FAF5"/>
<path d="M33.2928 19.5081C26.3228 23.4181 15.1928 23.3081 8.42279 19.2581C1.65279 15.2081 1.81279 8.75808 8.77279 4.84808C15.7428 0.938076 26.8728 1.04808 33.6428 5.09808C40.4128 9.14808 40.2528 15.5981 33.2928 19.5081Z" fill="#0B5E49"/>
<path d="M33.6429 5.09808C28.1529 1.81808 19.7929 1.12808 13.1129 3.06808C11.9129 5.52808 11.2129 8.27808 11.2129 11.1981C11.2129 15.0581 12.4029 18.6481 14.4229 21.6181C20.6929 23.0981 28.1329 22.4181 33.2829 19.5181C40.2529 15.6081 40.4029 9.15808 33.6329 5.10808L33.6429 5.09808Z" fill="#0ABB92"/>
<path d="M8.42414 19.2581C15.1941 23.3081 26.3341 23.4181 33.2941 19.5081C34.9441 18.5881 36.1941 17.5181 37.0741 16.3781C36.2541 15.3181 35.1241 14.3081 33.6441 13.4281C26.8741 9.37807 15.7341 9.26807 8.77414 13.1781C7.12414 14.0981 5.87414 15.1681 4.99414 16.3081C5.81414 17.3681 6.94414 18.3781 8.42414 19.2581Z" fill="#0B5E49"/>
</svg>
