<svg width="32" height="32" viewBox="0 0 32 32" fill="none" xmlns="http://www.w3.org/2000/svg">
  <ellipse cx="13.3128" cy="13.2412" rx="12.4251" ry="11.9405" fill="white" />
  <path fill-rule="evenodd" clip-rule="evenodd"
    d="M23.945 22.272L31.7232 29.795C32.0923 30.1519 32.0923 30.7422 31.7232 31.0992C31.5387 31.2845 31.2903 31.3737 31.049 31.3737C30.8077 31.3737 30.5593 31.2776 30.3748 31.0992L22.5966 23.5762C20.1978 25.5942 17.0681 26.816 13.6474 26.816C6.12464 26.816 0 20.8924 0 13.6165C0 6.34064 6.11754 0.416992 13.6474 0.416992C21.1701 0.416992 27.2947 6.33378 27.2947 13.6165C27.2947 16.925 26.0315 19.952 23.945 22.272ZM13.6394 2.2703C7.17412 2.2703 1.9082 7.35654 1.9082 13.6165C1.9082 19.8765 7.17412 24.9696 13.6394 24.9696C20.1118 24.9696 25.3706 19.8696 25.3706 13.6165C25.3706 7.36341 20.1118 2.2703 13.6394 2.2703Z"
    fill="#00D09C" />
  <path
    d="M14.8167 16.3412L12.2761 13.7295L6.1654 19.8755L5.3252 19.0579L12.2849 12.0577L14.8503 14.6945L19.2635 10.5125L17.999 9.26172H21.3003V12.5277L20.0966 11.337L14.8167 16.3412Z"
    fill="#00D09C" />
</svg>
