<svg width="40" height="38" viewBox="0 0 40 38" fill="none" xmlns="http://www.w3.org/2000/svg">
  <path
    d="M35.1914 26.5228C34.9216 26.3439 34.5582 26.4178 34.3793 26.6876L32.201 29.9752L31.0901 28.9208C30.8555 28.6981 30.4847 28.7075 30.2619 28.9422C30.0391 29.1769 30.0486 29.548 30.2833 29.7708C30.2833 29.7708 31.8973 31.303 31.9004 31.3058C32.1564 31.549 32.5977 31.4981 32.7921 31.2045L35.3562 27.3345C35.535 27.0651 35.4612 26.7016 35.1914 26.5228Z"
    fill="#00D09C" />
  <path fill-rule="evenodd" clip-rule="evenodd"
    d="M24.4642 31.4392H3.90753V28.9261H4.02075C4.74493 28.9261 5.33423 28.3368 5.33423 27.6129V23.0554C5.33423 22.3315 4.74493 21.7422 4.02075 21.7422H3.90753V13.6044H4.02075C4.74493 13.6044 5.33423 13.0151 5.33423 12.2913V7.73407C5.33423 7.00989 4.74493 6.42059 4.02075 6.42059H3.90753V3.90747H31.4393V19.6725C31.4393 19.9963 31.7014 20.2585 32.0252 20.2585C32.3487 20.2585 32.6111 19.9963 32.6111 19.6725V3.84491C32.6111 3.23303 32.1134 2.7356 31.5018 2.7356H3.84497C3.2334 2.7356 2.73566 3.23303 2.73566 3.84491V6.43555C2.10516 6.53137 1.62085 7.07733 1.62085 7.73407V12.2913C1.62085 12.948 2.10547 13.4937 2.73566 13.5895V21.7572C2.10516 21.853 1.62085 22.3987 1.62085 23.0554V27.6126C1.62085 28.2693 2.10547 28.815 2.73566 28.9111V31.5018C2.73566 32.1136 3.2334 32.6111 3.84497 32.6111H24.4642C24.7877 32.6111 25.0501 32.3486 25.0501 32.0251C25.0501 31.7017 24.7877 31.4392 24.4642 31.4392ZM4.16235 23.0554V27.6126C4.16235 27.6907 4.09888 27.7542 4.02075 27.7542H2.93402C2.8559 27.7542 2.79242 27.6907 2.79242 27.6126V23.0554C2.79242 22.9776 2.8559 22.9141 2.93402 22.9141H4.02106C4.09888 22.9141 4.16235 22.9776 4.16235 23.0554ZM4.16235 12.2913V7.73407C4.16235 7.65594 4.09888 7.59247 4.02106 7.59247H2.93402C2.8559 7.59247 2.79242 7.65594 2.79242 7.73407V12.2913C2.79242 12.3691 2.8559 12.4326 2.93402 12.4326H4.02075C4.09888 12.4326 4.16235 12.3691 4.16235 12.2913Z"
    fill="#00D09C" />
  <path fill-rule="evenodd" clip-rule="evenodd"
    d="M25.4039 19.954L22.7892 18.444C22.8359 18.1647 22.8603 17.8779 22.8603 17.5855C22.8603 15.3205 21.4009 13.39 19.3731 12.6847V9.69366C19.3731 8.76562 18.618 8.0097 17.6891 8.00879H17.6696C16.7342 8.0097 15.9731 8.77142 15.9731 9.70679V12.6847C13.9455 13.3903 12.4862 15.3208 12.4862 17.5858C12.4862 17.8782 12.5103 18.1647 12.557 18.444L9.94251 19.954C9.14387 20.4151 8.85731 21.4417 9.30347 22.2422L9.32026 22.2721C9.97364 23.3256 11.0543 23.1904 11.6423 22.8986L14.1909 21.4268C15.1119 22.2626 16.3341 22.7729 17.6729 22.7729C19.012 22.7729 20.234 22.2626 21.1553 21.4268L23.7035 22.8986C24.9215 23.6542 25.7286 22.7592 26.0271 22.2703L26.0427 22.2425C26.4891 21.4417 26.2026 20.4151 25.4039 19.954ZM17.145 9.70679C17.145 9.41687 17.3809 9.18097 17.6732 9.18066H17.6888C17.9714 9.18097 18.2015 9.41107 18.2015 9.69366C18.2015 9.98808 18.2043 10.2829 18.2071 10.5779V10.5779V10.578V10.5781V10.5781V10.5782V10.5782C18.213 11.1921 18.2189 11.8065 18.1993 12.4189C17.5975 12.3115 17.1453 12.4253 17.1453 12.4253C17.145 12.4253 17.145 9.70679 17.145 9.70679ZM10.3429 21.6999C10.5205 21.9614 10.8886 22.0038 11.0567 21.8836L13.4035 20.5283C13.2039 20.2393 13.0327 19.9296 12.8945 19.6024L10.5288 20.9687C10.2813 21.1115 10.1906 21.4271 10.327 21.6718L10.3429 21.6999ZM17.6732 21.6007C15.4592 21.6007 13.658 19.7996 13.658 17.5855C13.658 15.3718 15.4592 13.5706 17.6732 13.5706C19.887 13.5706 21.6884 15.3718 21.6884 17.5855C21.6884 19.7996 19.8873 21.6007 17.6732 21.6007ZM25.0045 21.6978L25.0191 21.6718C25.1555 21.4271 25.0652 21.1115 24.8177 20.9687L22.452 19.6024C22.3134 19.9296 22.1422 20.2393 21.9426 20.5283L24.2897 21.8836C24.6157 22.0917 24.9117 21.8702 25.0045 21.6978Z"
    fill="#00D09C" />
  <path fill-rule="evenodd" clip-rule="evenodd"
    d="M15.4629 17.5854C15.4629 16.3665 16.4544 15.375 17.6733 15.375C18.8922 15.375 19.8837 16.3665 19.8837 17.5854C19.8837 18.8043 18.8922 19.7961 17.6733 19.7961C16.4544 19.7961 15.4629 18.8046 15.4629 17.5854ZM16.6348 17.5857C16.6348 18.1582 17.1005 18.6242 17.6733 18.6242C18.2461 18.6242 18.7118 18.1582 18.7118 17.5857C18.7118 17.0129 18.2461 16.5469 17.6733 16.5469C17.1005 16.5469 16.6348 17.0129 16.6348 17.5857Z"
    fill="#00D09C" />
  <path fill-rule="evenodd" clip-rule="evenodd"
    d="M39.3039 25.3354C38.2071 24.8801 37.4615 23.8617 37.3581 22.6776C37.3154 22.1872 36.8964 21.8051 36.4032 21.8051H36.3974L35.3467 21.8112V2.05627C35.3467 0.922241 34.4241 0 33.2904 0H2.05627C0.922546 0 0 0.922546 0 2.05627V33.2904C0 34.4244 0.922546 35.3467 2.05627 35.3467H29.3207C30.1288 36.0553 31.0855 36.6965 32.2174 37.2183C32.4146 37.3096 32.6648 37.3102 32.8659 37.2147C38.8196 34.3832 39.8279 28.2816 39.9951 26.4789C40.0409 25.9857 39.7632 25.5258 39.3039 25.3354ZM1.17188 33.2904V2.05627C1.17188 1.5686 1.5686 1.17188 2.05627 1.17188H33.2904C33.7781 1.17188 34.1748 1.5686 34.1748 2.05627V21.8179L28.5049 21.8515C28.0017 21.8542 27.5931 22.2363 27.5543 22.7399C27.4631 23.9243 26.7285 24.95 25.6369 25.4169C25.1819 25.6113 24.9109 26.0736 24.9625 26.5668C25.0964 27.847 25.6812 31.2958 28.1598 34.1748H2.05627C1.5686 34.1748 1.17188 33.7781 1.17188 33.2904ZM26.1316 26.4798C26.312 28.1485 27.2989 33.5507 32.5348 36.0727C37.7411 33.4894 38.6646 28.0756 38.8251 26.4053C37.4008 25.8017 36.4154 24.5029 36.2125 22.9782L28.7036 23.0222C28.5187 24.5496 27.5482 25.86 26.1316 26.4798Z"
    fill="#00D09C" />
</svg>
