<svg xmlns="http://www.w3.org/2000/svg" width="40" height="32" viewBox="0 0 40 32">
    <g fill="#D2AB66">
        <path d="M19.986 14.322c3.947 0 7.158-3.21 7.158-7.158 0-3.947-3.21-7.158-7.158-7.158-3.947 0-7.158 3.21-7.158 7.158 0 3.947 3.211 7.158 7.158 7.158zm0-12.973c3.206 0 5.815 2.609 5.815 5.815 0 3.206-2.609 5.815-5.815 5.815-3.206 0-5.814-2.609-5.814-5.815 0-3.206 2.608-5.815 5.814-5.815z"/>
        <path d="M21.593 5.457h-.546c-.045-.214-.122-.416-.236-.6h.782c.224 0 .407-.193.407-.429 0-.235-.183-.428-.407-.428h-3.186c-.224 0-.407.193-.407.428 0 .236.183.429.407.429h.913c.383 0 .717.257.867.6h-1.78c-.224 0-.407.193-.407.428 0 .236.183.429.407.429h1.78c-.053.098-.114.188-.187.27-.183.188-.428.291-.68.287h-.913c-.228.004-.411.197-.407.437 0 .116.049.227.126.308l2.277 2.267c.163.163.42.154.575-.017.154-.171.146-.441-.017-.604l-1.535-1.53c.431-.026.839-.214 1.144-.536.232-.244.395-.548.477-.882h.546c.224 0 .407-.193.407-.429 0-.235-.183-.428-.407-.428z"/>
        <circle cx="4.028" cy="25.982" r="1.236"/>
        <path d="M39.823 18.304l-.02-.051c-.974-2.42-3.667-3.646-6.132-2.79l-5.028 1.744c-1.118-1.2-2.843-1.759-4.501-1.337l-5.339 1.359c-1.216.31-2.53.117-3.606-.527-1.513-.906-3.245-1.385-5.008-1.385h-.007l-2.127.002v-2.013c0-.371-.3-.672-.671-.672H.672c-.371 0-.672.3-.672.672v17.628c0 .372.3.672.672.672h6.712c.37 0 .671-.3.671-.672V27.61h2.135c1.186 0 2.339.241 3.426.717l1.331.583c1.164.51 2.404.763 3.643.763 1.354 0 2.707-.303 3.957-.908 4.767-2.308 13.223-6.4 16.29-7.883.95-.46 1.383-1.591.986-2.577zM6.712 15.991v14.272H1.344V13.978h5.368v2.013zm31.54 3.68c-3.067 1.483-11.523 5.576-16.29 7.883-2.04.988-4.4 1.033-6.476.124l-1.331-.583c-1.258-.55-2.592-.83-3.965-.83H8.055v-9.603l2.128-.001h.006c1.52 0 3.013.413 4.317 1.193 1.382.827 3.068 1.074 4.628.677l5.34-1.359c1.546-.393 3.176.42 3.793 1.891l.116.278.076.183.048.114-9.2 3.703.502 1.247 9.83-3.958.003-.001c.002 0 .003 0 .005-.002l.028-.013.029-.014.034-.02.023-.014.035-.026.018-.013.034-.03.014-.014c.011-.01.021-.022.031-.033l.014-.016c.01-.01.018-.022.026-.034.004-.006.01-.012.013-.019l.022-.035.012-.021.019-.039.01-.02v-.001l.018-.05.004-.012c.038-.124.04-.26 0-.39-.006-.022-.014-.043-.022-.064l-.499-1.196c0-.003-.002-.006-.003-.008l-.078-.188 4.683-1.625c1.786-.62 3.738.268 4.445 2.022l.02.052c.136.338-.003.71-.324.865z"/>
    </g>
</svg>
