<svg width="45" height="35" viewBox="0 0 45 35" fill="currentColor" xmlns="http://www.w3.org/2000/svg">
<path fill-rule="evenodd" clip-rule="evenodd" d="M39.5361 14.5762C39.5361 17.3747 38.2042 19.9533 36.0182 21.6009C41.0347 22.5454 44.8387 26.9069 44.8387 32.1296V33.8856C44.8387 34.363 44.4465 34.75 43.963 34.75H34.521C34.5076 34.75 34.4943 34.7497 34.481 34.7491H26.6791C26.6658 34.7497 26.6525 34.75 26.6391 34.75H0.875756C0.392164 34.75 0 34.363 0 33.8856V31.6687C0 24.8636 5.40245 19.2815 12.196 18.8794V18.5984C9.75943 17.3111 8.09794 14.7739 8.09794 11.8606V4.24495C8.09794 2.57634 9.47332 1.21876 11.1639 1.21876C11.3102 1.21876 11.4539 1.22956 11.5948 1.24927C12.8553 0.431436 14.3124 0 15.8349 0C17.3573 0 18.8145 0.431436 20.075 1.24936C20.2159 1.22965 20.3597 1.21884 20.506 1.21884C22.1966 1.21884 23.5719 2.57634 23.5719 4.24503V9.08272C24.4925 7.94064 25.6928 7.02763 27.0698 6.44595C26.9141 6.03578 26.8333 5.59881 26.8333 5.14862C26.8333 3.10857 28.5148 1.44887 30.5816 1.44887C32.6484 1.44887 34.3298 3.10857 34.3298 5.14862C34.3298 5.5989 34.2491 6.03578 34.0934 6.44595C37.2903 7.79654 39.5361 10.9322 39.5361 14.5762ZM27.1714 33.1991H30.0444C30.1967 33.0835 30.3867 33.0186 30.5804 33.0186C30.7733 33.0186 30.9632 33.0835 31.1155 33.1991H33.9887C34.1362 33.0875 34.3208 33.0212 34.521 33.0212H43.0872V32.1296C43.0872 27.2611 39.1462 23.2845 34.2478 23.1439V24.468C34.2478 24.5628 34.232 24.657 34.201 24.7468C33.6733 26.2757 32.2186 27.3029 30.5815 27.3029C28.9442 27.3029 27.4895 26.2756 26.9619 24.7466C26.931 24.6568 26.9151 24.5626 26.9151 24.4678V23.1435C26.7183 23.149 26.523 23.1611 26.3293 23.1789L26.3143 23.1802C21.6956 23.6109 18.0697 27.4599 18.0697 32.1296V33.0212H26.6391C26.8393 33.0212 27.0239 33.0875 27.1714 33.1991ZM15.835 19.4974C15.1841 19.4974 14.5519 19.4173 13.9476 19.2672V21.1274C13.9476 21.4316 14.1984 21.6792 14.5067 21.6792H17.1632C17.4715 21.6792 17.7222 21.4317 17.7222 21.1274V19.2672C17.118 19.4173 16.4858 19.4974 15.835 19.4974ZM21.8718 16.6311C21.2176 17.4361 20.402 18.108 19.4737 18.5984V18.8782C20.7841 18.954 22.0543 19.2198 23.2576 19.6664C22.6094 18.7576 22.1365 17.7291 21.8718 16.6311ZM25.9369 16.2492V17.4377C25.9369 19.9705 28.0244 22.0312 30.5905 22.0312C33.1567 22.0312 35.2443 19.9706 35.2443 17.4377V16.2492C35.2443 15.9124 34.9668 15.6385 34.6256 15.6385H26.5556C26.2144 15.6385 25.9369 15.9124 25.9369 16.2492ZM30.5815 3.17772C29.4805 3.17772 28.5848 4.06186 28.5848 5.14862C28.5848 5.41996 28.6396 5.68215 28.7451 5.9247C29.3381 5.80221 29.9523 5.73747 30.5815 5.73747C31.2106 5.73747 31.8248 5.80221 32.4177 5.9247C32.5232 5.68215 32.5782 5.41996 32.5782 5.14862C32.5782 4.06186 31.6825 3.17772 30.5815 3.17772ZM37.7845 14.5762C37.7845 10.6558 34.5533 7.46633 30.5815 7.46633C26.6098 7.46633 23.3785 10.6558 23.3787 14.5762C23.3787 15.7557 23.6722 16.8852 24.2034 17.8842C24.1929 17.7365 24.1856 17.588 24.1856 17.4377V16.2492C24.1856 14.9591 25.2487 13.9096 26.5557 13.9096H34.6258C35.9327 13.9096 36.996 14.9591 36.996 16.2492V17.4377C36.996 17.5737 36.99 17.7082 36.9814 17.842C37.4991 16.8528 37.7845 15.738 37.7845 14.5762ZM21.8203 6.63224V4.24495C21.8203 3.52963 21.2308 2.94761 20.506 2.94761C19.7812 2.94761 19.1916 3.52963 19.1916 4.24495C19.1916 4.75012 19.4637 5.22633 19.9016 5.48756L21.8203 6.63224ZM11.164 2.94761C10.4392 2.94761 9.84954 3.52963 9.84954 4.24495H9.84963V6.63224L11.7682 5.48765C12.2063 5.22633 12.4784 4.75021 12.4784 4.24503C12.4784 3.52963 11.8887 2.94761 11.164 2.94761ZM9.84954 8.65232V11.8606C9.84954 15.1183 12.5345 17.7687 15.8349 17.7687C19.1353 17.7687 21.8203 15.1183 21.8203 11.8606V8.65232L18.9957 6.9672C18.0361 6.39487 17.44 5.35176 17.44 4.24503C17.44 3.46731 17.739 2.75727 18.2292 2.22063C17.4808 1.89742 16.6707 1.72886 15.8349 1.72886C14.9991 1.72886 14.1891 1.89742 13.4407 2.22063C13.9309 2.75718 14.2299 3.46722 14.2299 4.24495C14.2299 5.35168 13.6338 6.39478 12.6741 6.9672L9.84954 8.65232ZM16.3182 33.0212V32.1296C16.3182 27.3186 19.546 23.238 23.9762 21.8862C22.5889 21.1511 21.0667 20.7193 19.4738 20.6125V21.1274C19.4738 22.385 18.4373 23.408 17.1632 23.408H14.5067C13.2327 23.408 12.1961 22.385 12.1961 21.1274V20.6115C6.36894 21.0109 1.75151 25.8173 1.75151 31.6687V33.0212H16.3182ZM28.6667 24.3116C28.9852 25.0718 29.7387 25.5739 30.5816 25.5739C31.4244 25.5739 32.1779 25.0719 32.4964 24.3116V23.4742C31.8942 23.6599 31.2541 23.76 30.5907 23.76C29.9206 23.76 29.2743 23.6575 28.6667 23.4682V24.3116ZM19.9701 13.1581V13.3985C19.9701 13.8759 19.578 14.2629 19.0943 14.2629H12.5753C12.0917 14.2629 11.6996 13.8759 11.6996 13.3985V13.1581C11.6996 10.9075 13.5547 9.07634 15.8349 9.07634C18.115 9.07634 19.9701 10.9074 19.9701 13.1581ZM15.8349 10.8052C14.7392 10.8052 13.8139 11.5385 13.5362 12.534H18.1335C17.8558 11.5385 16.9305 10.8052 15.8349 10.8052Z" />
</svg>
