<svg width="19" height="21" fill="none" xmlns="http://www.w3.org/2000/svg"><path fill-rule="evenodd" clip-rule="evenodd" d="M8.245 0c-.57 0-1.048.428-1.111.994l-.185 1.66a7.816 7.816 0 0 0-2.616 1.513l-1.531-.671a1.118 1.118 0 0 0-1.417.465L.15 6.1a1.118 1.118 0 0 0 .306 1.46l1.345.99a7.863 7.863 0 0 0 0 3.022l-1.345.99c-.46.337-.59.966-.306 1.459l1.235 2.14c.285.492.895.693 1.417.464l1.531-.67a7.816 7.816 0 0 0 2.616 1.512l.185 1.66c.063.566.541.994 1.11.994h2.471c.57 0 1.048-.428 1.111-.995l.184-1.659a7.816 7.816 0 0 0 2.617-1.513l1.531.671a1.118 1.118 0 0 0 1.417-.465l1.235-2.139a1.118 1.118 0 0 0-.305-1.46l-1.346-.99a7.862 7.862 0 0 0 0-3.022l1.346-.99c.458-.337.59-.966.305-1.46l-1.235-2.138a1.118 1.118 0 0 0-1.417-.465l-1.531.67a7.816 7.816 0 0 0-2.617-1.512l-.184-1.66A1.118 1.118 0 0 0 10.716 0H8.244Zm4.992 4.776a6.48 6.48 0 0 0-2.462-1.07l-.21-1.868a.559.559 0 0 0-.556-.497H8.951a.559.559 0 0 0-.555.497l-.211 1.868a6.435 6.435 0 0 0-2.462 1.07 6.52 6.52 0 0 0-1.097.986L2.901 5.01a.559.559 0 0 0-.707.233l-.53.916a.559.559 0 0 0 .153.73l1.512 1.116a6.451 6.451 0 0 0-.304 2.666c.047.5.15.984.304 1.445l-1.512 1.117a.559.559 0 0 0-.152.729l.529.916a.559.559 0 0 0 .707.233l1.725-.753a6.516 6.516 0 0 0 2.156 1.6 6.47 6.47 0 0 0 1.403.456l.21 1.87a.559.559 0 0 0 .556.495h1.058a.559.559 0 0 0 .555-.496l.211-1.869a6.425 6.425 0 0 0 2.462-1.069 6.51 6.51 0 0 0 1.097-.987l1.725.753c.26.114.565.013.707-.233l.53-.916a.559.559 0 0 0-.153-.73l-1.512-1.116a6.447 6.447 0 0 0 .304-2.666c-.047-.5-.15-.984-.304-1.445l1.512-1.117a.559.559 0 0 0 .152-.729l-.529-.916a.559.559 0 0 0-.707-.233l-1.725.752a6.52 6.52 0 0 0-1.097-.986ZM9.48 14.532a4.471 4.471 0 1 0 0-8.943 4.471 4.471 0 0 0 0 8.943Zm3.13-4.472a3.13 3.13 0 1 1-6.26 0 3.13 3.13 0 0 1 6.26 0Z" fill="currentColor"/></svg>