<svg width="24" height="24" viewBox="0 0 24 24" fill="none" xmlns="http://www.w3.org/2000/svg">
<path d="M22 0H2C0.89543 0 0 0.89543 0 2V22C0 23.1046 0.89543 24 2 24H22C23.1046 24 24 23.1046 24 22V2C24 0.89543 23.1046 0 22 0Z" fill="#0E231E"/>
<path d="M16.9532 12.6499C16.9799 12.4365 16.9999 12.2199 16.9999 11.9999C16.9999 11.7799 16.9799 11.5632 16.9532 11.3499L18.3632 10.2465C18.4899 10.1465 18.5266 9.96659 18.4432 9.81992L17.1099 7.50992C17.0266 7.36659 16.8532 7.30659 16.7032 7.36659L15.0432 8.03659C14.6999 7.77325 14.3232 7.54992 13.9166 7.37992L13.6666 5.61325C13.6366 5.45659 13.4999 5.33325 13.3332 5.33325H10.6666C10.4999 5.33325 10.3632 5.45659 10.3366 5.61325L10.0866 7.37992C9.67988 7.54992 9.30322 7.76992 8.95988 8.03659L7.29988 7.36659C7.14988 7.30992 6.97655 7.36659 6.89322 7.50992L5.55988 9.81992C5.47655 9.96325 5.51322 10.1432 5.63988 10.2465L7.04655 11.3499C7.01988 11.5632 6.99988 11.7799 6.99988 11.9999C6.99988 12.2199 7.01988 12.4365 7.04655 12.6499L5.63988 13.7532C5.51322 13.8532 5.47655 14.0332 5.55988 14.1799L6.89322 16.4899C6.97655 16.6332 7.14988 16.6932 7.29988 16.6332L8.95988 15.9632C9.30322 16.2265 9.67988 16.4499 10.0866 16.6199L10.3366 18.3865C10.3632 18.5432 10.4999 18.6665 10.6666 18.6665H13.3332C13.4999 18.6665 13.6366 18.5432 13.6632 18.3865L13.9132 16.6199C14.3199 16.4499 14.6966 16.2299 15.0399 15.9632L16.6999 16.6332C16.8499 16.6899 17.0232 16.6332 17.1066 16.4899L18.4399 14.1799C18.5232 14.0365 18.4866 13.8565 18.3599 13.7532L16.9532 12.6499ZM11.9999 14.3332C10.7099 14.3332 9.66655 13.2899 9.66655 11.9999C9.66655 10.7099 10.7099 9.66659 11.9999 9.66659C13.2899 9.66659 14.3332 10.7099 14.3332 11.9999C14.3332 13.2899 13.2899 14.3332 11.9999 14.3332Z" fill="#0ABB92"/>
</svg>
