<svg width="24" height="24" viewBox="0 0 24 24" fill="none" xmlns="http://www.w3.org/2000/svg">
<rect width="24" height="24" rx="2" fill="#E5FAF5"/>
<path d="M16.9533 12.65C16.98 12.4366 17 12.22 17 12C17 11.78 16.98 11.5633 16.9533 11.35L18.3633 10.2466C18.49 10.1466 18.5267 9.96665 18.4433 9.81998L17.11 7.50998C17.0267 7.36665 16.8533 7.30665 16.7033 7.36665L15.0433 8.03665C14.7 7.77331 14.3233 7.54998 13.9167 7.37998L13.6667 5.61331C13.6367 5.45665 13.5 5.33331 13.3333 5.33331H10.6667C10.5 5.33331 10.3633 5.45665 10.3367 5.61331L10.0867 7.37998C9.67999 7.54998 9.30333 7.76998 8.95999 8.03665L7.29999 7.36665C7.14999 7.30998 6.97666 7.36665 6.89333 7.50998L5.55999 9.81998C5.47666 9.96331 5.51333 10.1433 5.63999 10.2466L7.04666 11.35C7.01999 11.5633 6.99999 11.78 6.99999 12C6.99999 12.22 7.01999 12.4366 7.04666 12.65L5.63999 13.7533C5.51333 13.8533 5.47666 14.0333 5.55999 14.18L6.89333 16.49C6.97666 16.6333 7.14999 16.6933 7.29999 16.6333L8.95999 15.9633C9.30333 16.2266 9.67999 16.45 10.0867 16.62L10.3367 18.3866C10.3633 18.5433 10.5 18.6666 10.6667 18.6666H13.3333C13.5 18.6666 13.6367 18.5433 13.6633 18.3866L13.9133 16.62C14.32 16.45 14.6967 16.23 15.04 15.9633L16.7 16.6333C16.85 16.69 17.0233 16.6333 17.1067 16.49L18.44 14.18C18.5233 14.0366 18.4867 13.8566 18.36 13.7533L16.9533 12.65ZM12 14.3333C10.71 14.3333 9.66666 13.29 9.66666 12C9.66666 10.71 10.71 9.66665 12 9.66665C13.29 9.66665 14.3333 10.71 14.3333 12C14.3333 13.29 13.29 14.3333 12 14.3333Z" fill="#00D09C"/>
</svg>
