<svg width="44" height="44" viewBox="0 0 44 44" fill="none" xmlns="http://www.w3.org/2000/svg">
<path fill-rule="evenodd" clip-rule="evenodd" d="M24.7685 0.906707L42.064 13.9789C43.7124 15.2259 44.4004 17.437 43.7674 19.4532L37.16 40.6102C36.534 42.6312 34.7265 44.0009 32.6863 44H11.3103C9.27007 44.0009 7.46252 42.6312 6.83666 40.6102L0.229172 19.4532C-0.399929 17.4328 0.295943 15.2208 1.95126 13.9789L19.2467 0.906707C20.9041 -0.302276 23.1112 -0.302276 24.7685 0.906707ZM22 34C27.5228 34 32 29.5228 32 24C32 18.4771 27.5228 14 22 14C16.4772 14 12 18.4771 12 24C12 29.5228 16.4772 34 22 34Z" fill="#E0C189"/>
</svg>
