<svg width="30" height="22" viewBox="0 0 30 22" fill="none" xmlns="http://www.w3.org/2000/svg">
<path d="M24.334 13.6668V3.00016C24.334 1.5335 23.134 0.333496 21.6673 0.333496H3.00065C1.53398 0.333496 0.333984 1.5335 0.333984 3.00016V13.6668C0.333984 15.1335 1.53398 16.3335 3.00065 16.3335H21.6673C23.134 16.3335 24.334 15.1335 24.334 13.6668ZM12.334 12.3335C10.1207 12.3335 8.33398 10.5468 8.33398 8.3335C8.33398 6.12016 10.1207 4.3335 12.334 4.3335C14.5473 4.3335 16.334 6.12016 16.334 8.3335C16.334 10.5468 14.5473 12.3335 12.334 12.3335ZM29.6673 4.3335V19.0002C29.6673 20.4668 28.4673 21.6668 27.0006 21.6668H4.33398V19.0002H27.0006V4.3335H29.6673Z" fill="#00D09C"/>
</svg>
