<svg width="28" height="26" viewBox="0 0 28 26" fill="none" xmlns="http://www.w3.org/2000/svg">
<path d="M24.4394 7.99984L21.4127 4.97317C21.506 4.41317 21.6527 3.89317 21.8393 3.43984C21.946 3.19984 21.9993 2.9465 21.9993 2.6665C21.9993 1.55984 21.106 0.666504 19.9993 0.666504C17.8127 0.666504 15.8793 1.71984 14.666 3.33317H7.99935C3.94602 3.33317 0.666016 6.61317 0.666016 10.6665C0.666016 14.7198 3.99935 25.9998 3.99935 25.9998H11.3327V23.3332H13.9993V25.9998H21.3327L23.5727 18.5465L27.3327 17.2932V7.99984H24.4394ZM15.3327 9.99984H8.66602V7.33317H15.3327V9.99984ZM19.3327 12.6665C18.5993 12.6665 17.9993 12.0665 17.9993 11.3332C17.9993 10.5998 18.5993 9.99984 19.3327 9.99984C20.066 9.99984 20.666 10.5998 20.666 11.3332C20.666 12.0665 20.066 12.6665 19.3327 12.6665Z" fill="#00D09C"/>
</svg>
