<svg className="profileIcon" xmlns="http://www.w3.org/2000/svg" width="15" height="16" viewBox="0 0 15 16">
          <g fill="#44475B" opacity=".7">
            <path d="M14.9906396,2.92082739 C14.9906396,1.96433666 14.1435257,1.18758916 13.1021841,1.18758916 L11.3634945,1.18758916 L11.3634945,0.363766049 C11.3634945,0.162624822 11.1856474,0 10.9656786,0 C10.7457098,0 10.5678627,0.162624822 10.5678627,0.363766049 L10.5678627,1.18758916 L4.40639626,1.18758916 L4.40639626,0.363766049 C4.40639626,0.162624822 4.22854914,0 4.00858034,0 C3.78861154,0 3.61076443,0.162624822 3.61076443,0.363766049 L3.61076443,1.18758916 L1.87207488,1.18758916 C0.840093604,1.18758916 0,1.95791726 0,2.90798859 L0,13.2496434 C0,14.2018545 0.847113885,14.9764622 1.88845554,14.9764622 L13.1021841,14.9764622 C14.1435257,14.9764622 14.9906396,14.2018545 14.9906396,13.2496434 L14.9906396,2.92082739 L14.9906396,2.92082739 L14.9906396,2.92082739 Z M1.87441498,1.91512126 L3.61310452,1.91512126 L3.61310452,3.09415121 C3.61310452,3.29529244 3.79095164,3.45791726 4.01092044,3.45791726 C4.23088924,3.45791726 4.40873635,3.29529244 4.40873635,3.09415121 L4.40873635,1.91512126 L10.5702028,1.91512126 L10.5702028,3.09415121 C10.5702028,3.29529244 10.7480499,3.45791726 10.9680187,3.45791726 C11.1879875,3.45791726 11.3658346,3.29529244 11.3658346,3.09415121 L11.3658346,1.91512126 L13.1021841,1.91512126 C13.7035881,1.91512126 14.1950078,2.36661912 14.1950078,2.92082739 L14.1950078,4.04636234 L0.795631825,4.04636234 L0.795631825,2.90798859 C0.795631825,2.36019971 1.2800312,1.91512126 1.87441498,1.91512126 Z M13.1021841,14.2467903 L1.88845554,14.2467903 C1.28705148,14.2467903 0.795631825,13.799572 0.795631825,13.2475036 L0.795631825,4.77389444 L14.192676,4.77389444 L14.192676,13.2475036 C14.1950078,13.799572 13.7035881,14.2467903 13.1021841,14.2467903 Z" />
            <path d="M8.66536661 5.967903L6.29485179 5.967903C6.074883 5.967903 5.89703588 6.13052782 5.89703588 6.33166904L5.89703588 8.49928673C5.89703588 8.70042796 6.074883 8.86305278 6.29485179 8.86305278L8.66536661 8.86305278C8.88533541 8.86305278 9.06318253 8.70042796 9.06318253 8.49928673L9.06318253 6.33166904C9.06318253 6.13052782 8.88533541 5.967903 8.66536661 5.967903zM8.2675507 8.13552068L6.69266771 8.13552068 6.69266771 6.69543509 8.2675507 6.69543509 8.2675507 8.13552068zM12.8120125 5.967903L10.4414977 5.967903C10.2215289 5.967903 10.0436817 6.13052782 10.0436817 6.33166904L10.0436817 8.49928673C10.0436817 8.70042796 10.2215289 8.86305278 10.4414977 8.86305278L12.8120125 8.86305278C13.0319813 8.86305278 13.2098284 8.70042796 13.2098284 8.49928673L13.2098284 6.33166904C13.2098284 6.13052782 13.0296412 5.967903 12.8120125 5.967903zM12.4141966 8.13552068L10.8393136 8.13552068 10.8393136 6.69543509 12.4141966 6.69543509 12.4141966 8.13552068zM4.49531981 10.2025678L2.12480499 10.2025678C1.90483619 10.2025678 1.72698908 10.3651926 1.72698908 10.5663338L1.72698908 12.7403709C1.72698908 12.9415121 1.90483619 13.1041369 2.12480499 13.1041369L4.49531981 13.1041369C4.71528861 13.1041369 4.89313573 12.9415121 4.89313573 12.7403709L4.89313573 10.5663338C4.89313573 10.3651926 4.71528861 10.2025678 4.49531981 10.2025678zM4.0975039 12.3766049L2.5226209 12.3766049 2.5226209 10.9300999 4.0975039 10.9300999 4.0975039 12.3766049zM8.66536661 10.2025678L6.29485179 10.2025678C6.074883 10.2025678 5.89703588 10.3651926 5.89703588 10.5663338L5.89703588 12.7403709C5.89703588 12.9415121 6.074883 13.1041369 6.29485179 13.1041369L8.66536661 13.1041369C8.88533541 13.1041369 9.06318253 12.9415121 9.06318253 12.7403709L9.06318253 10.5663338C9.06318253 10.3651926 8.88533541 10.2025678 8.66536661 10.2025678zM8.2675507 12.3766049L6.69266771 12.3766049 6.69266771 10.9300999 8.2675507 10.9300999 8.2675507 12.3766049zM12.8120125 10.2025678L10.4414977 10.2025678C10.2215289 10.2025678 10.0436817 10.3651926 10.0436817 10.5663338L10.0436817 12.7403709C10.0436817 12.9415121 10.2215289 13.1041369 10.4414977 13.1041369L12.8120125 13.1041369C13.0319813 13.1041369 13.2098284 12.9415121 13.2098284 12.7403709L13.2098284 10.5663338C13.2098284 10.3651926 13.0296412 10.2025678 12.8120125 10.2025678zM12.4141966 12.3766049L10.8393136 12.3766049 10.8393136 10.9300999 12.4141966 10.9300999 12.4141966 12.3766049z" />
          </g>
        </svg>
