<svg xmlns="http://www.w3.org/2000/svg" width="17" height="13" viewBox="0 0 17 13">
    <g fill="none" fill-rule="evenodd">
        <path d="M0 0H20V20H0z" transform="translate(-2 -4)"/>
        <g>
            <path fill="#FFF" d="M1.684 0h11.032c.753 0 1.364.619 1.364 1.382v9.586c0 .763-.61 1.382-1.364 1.382H1.684C.93 12.35.32 11.731.32 10.968V1.382C.32.62.93 0 1.684 0z" transform="translate(-2 -4) translate(2 4)"/>
            <path fill="#00D09C" d="M1.364 0h12.632c.753 0 1.364.652 1.364 1.455v10.09c0 .803-.61 1.455-1.364 1.455H1.364C.61 13 0 12.348 0 11.545V1.455C0 .652.61 0 1.364 0z" transform="translate(-2 -4) translate(2 4)"/>
            <path fill="#FFF" stroke="#00D09C" d="M11.688 4.55h3.504c.446 0 .808.354.808.79v2.32c0 .436-.362.79-.808.79h-3.504c-.446 0-.808-.354-.808-.79V5.34c0-.436.362-.79.808-.79z" transform="translate(-2 -4) translate(2 4)"/>
            <path fill="#FFF" fill-rule="nonzero" d="M6.61 2.6c.051 0 .102.014.146.04.133.08.175.249.094.379l-1.625 2.6h1.533c.045 0 .088.01.128.03l.055.036c.118.099.133.272.032.388l-3.26 3.74c-.043.048-.11.066-.17.047-.085-.027-.13-.118-.104-.202l.897-2.781h-.585l-.03-.001-.03-.005c-.151-.032-.248-.178-.215-.327l.79-3.582c.047-.211.239-.362.46-.362z" transform="translate(-2 -4) translate(2 4)"/>
        </g>
    </g>
</svg>
