<svg width="24" height="24" viewBox="0 0 24 24" fill="none" xmlns="http://www.w3.org/2000/svg">
<path fill-rule="evenodd" clip-rule="evenodd" d="M4.41761 4.80005H17.6569C18.5606 4.80005 19.2933 5.54279 19.2933 6.459V17.9611C19.2933 18.8773 18.5606 19.62 17.6569 19.62H4.41761C3.51388 19.62 2.78125 18.8773 2.78125 17.9611V6.459C2.78125 5.54279 3.51388 4.80005 4.41761 4.80005Z" fill="#121212"/>
<path fill-rule="evenodd" clip-rule="evenodd" d="M4.0348 4.80005H19.1941C20.0978 4.80005 20.8304 5.58188 20.8304 6.54632V18.6538C20.8304 19.6182 20.0978 20.4 19.1941 20.4H4.0348C3.13106 20.4 2.39844 19.6182 2.39844 18.6538V6.54632C2.39844 5.58188 3.13106 4.80005 4.0348 4.80005Z" fill="#EBEBF5"/>
<path d="M16.4228 10.76H20.6274C20.8976 10.76 21.0971 10.9712 21.0971 11.208V13.992C21.0971 14.2288 20.8976 14.44 20.6274 14.44H16.4228C16.1527 14.44 15.9531 14.2288 15.9531 13.992V11.208C15.9531 10.9712 16.1527 10.76 16.4228 10.76Z" fill="#121212" stroke="#EBEBF5"/>
<path fill-rule="evenodd" clip-rule="evenodd" d="M8.6694 11.5433L10.6187 8.42234C10.716 8.26655 10.6655 8.06328 10.5058 7.96832C10.4528 7.93674 10.3918 7.92004 10.3297 7.92004H8.06974C7.80395 7.92004 7.5742 8.10108 7.51821 8.35465L6.56909 12.653C6.52971 12.8314 6.64594 13.0071 6.82869 13.0455C6.85213 13.0505 6.87603 13.0529 6.9 13.0529H7.60164L6.47723 16.5384C6.42381 16.704 6.63576 16.8238 6.7501 16.6927L10.7653 12.0877C10.8864 11.9487 10.8692 11.7403 10.7268 11.622C10.6656 11.5712 10.5879 11.5433 10.5075 11.5433H8.6694Z" fill="#121212"/>
</svg>
