<svg width="24" height="24" viewBox="0 0 24 24" fill="none" xmlns="http://www.w3.org/2000/svg">
<path fill-rule="evenodd" clip-rule="evenodd" d="M4.41761 4.80002H17.6569C18.5606 4.80002 19.2933 5.54276 19.2933 6.45897V17.9611C19.2933 18.8773 18.5606 19.62 17.6569 19.62H4.41761C3.51388 19.62 2.78125 18.8773 2.78125 17.9611V6.45897C2.78125 5.54276 3.51388 4.80002 4.41761 4.80002Z" fill="white"/>
<path fill-rule="evenodd" clip-rule="evenodd" d="M4.0348 4.8H19.1941C20.0978 4.8 20.8304 5.58183 20.8304 6.54627V18.6537C20.8304 19.6182 20.0978 20.4 19.1941 20.4H4.0348C3.13106 20.4 2.39844 19.6182 2.39844 18.6537V6.54627C2.39844 5.58183 3.13106 4.8 4.0348 4.8Z" fill="#44475B"/>
<path d="M16.4228 10.76H20.6274C20.8976 10.76 21.0971 10.9712 21.0971 11.208V13.992C21.0971 14.2288 20.8976 14.44 20.6274 14.44H16.4228C16.1527 14.44 15.9531 14.2288 15.9531 13.992V11.208C15.9531 10.9712 16.1527 10.76 16.4228 10.76Z" fill="white" stroke="#44475B"/>
<path fill-rule="evenodd" clip-rule="evenodd" d="M8.6694 11.5432L10.6187 8.42226C10.716 8.26647 10.6655 8.0632 10.5058 7.96824C10.4528 7.93667 10.3918 7.91997 10.3297 7.91997H8.06974C7.80395 7.91997 7.5742 8.10101 7.51821 8.35457L6.56909 12.6529C6.52971 12.8313 6.64594 13.007 6.82869 13.0455C6.85213 13.0504 6.87603 13.0529 6.9 13.0529H7.60164L6.47723 16.5383C6.42381 16.7039 6.63576 16.8238 6.7501 16.6926L10.7653 12.0876C10.8864 11.9487 10.8692 11.7402 10.7268 11.6219C10.6656 11.5711 10.5879 11.5432 10.5075 11.5432H8.6694Z" fill="white"/>
</svg>
