<svg width="96" height="96" viewBox="0 0 96 96" fill="none" xmlns="http://www.w3.org/2000/svg">
<path opacity="0.1" d="M48 96C74.5097 96 96 74.5097 96 48C96 21.4903 74.5097 0 48 0C21.4903 0 0 21.4903 0 48C0 74.5097 21.4903 96 48 96Z" fill="#00D09C"/>
<path d="M47.8863 82.1714C66.8218 82.1714 82.172 66.8212 82.172 47.8857C82.172 28.9502 66.8218 13.6 47.8863 13.6C28.9508 13.6 13.6006 28.9502 13.6006 47.8857C13.6006 66.8212 28.9508 82.1714 47.8863 82.1714Z" fill="#00D09C"/>
<path d="M44 53.965L37.6815 47.6465L37.328 47.293L36.9744 47.6465L34.7104 49.9105L34.3569 50.2641L34.7104 50.6176L43.6464 59.5536L44 59.9072L44.3535 59.5536L63.5535 40.3536L63.9071 40.0001L63.5535 39.6465L61.2895 37.3825L60.936 37.029L60.5824 37.3825L44 53.965Z" fill="white" stroke="white"/>
</svg>
