<svg xmlns="http://www.w3.org/2000/svg" width="30" height="24" viewBox="0 0 30 24">
    <g fill="none" fill-rule="evenodd">
        <path d="M0 0H30V30H0z" transform="translate(0 -4)"/>
        <path fill="#00D09C" fill-rule="nonzero" d="M1.758 12.031c0 1.189.848 2.185 1.925 2.518.537-4.129 4.263-7.539 9.49-8.46l.007-.009c2.865-.477 5.761-.186 8.28.825.639-1.664 2.235-2.815 4.087-2.815h.879v6.459c.566.742 1 1.534 1.296 2.364H30v7.06h-3.158c-.567.879-1.296 1.678-2.174 2.384v4.733h-5.273v-2.224c-2.272.532-4.763.531-7.032 0v2.224H7.09v-4.728c-2.005-1.613-3.229-3.75-3.466-6.003C1.597 15.968 0 14.179 0 12.03h1.758zm21.152 2.647h1.758v-1.765H22.91v1.765zm-11.06-2.687c2.425-1.112 5.72-1.09 8.054-.006l.74-1.6c-2.792-1.3-6.639-1.32-9.524 0l.73 1.606z" transform="translate(0 -4)"/>
    </g>
</svg>
