<svg width="38" height="38" viewBox="0 0 38 38" fill="none" xmlns="http://www.w3.org/2000/svg">
<path d="M18.7 36.4C28.4754 36.4 36.4 28.4754 36.4 18.7C36.4 8.92456 28.4754 1 18.7 1C8.92456 1 1 8.92456 1 18.7C1 28.4754 8.92456 36.4 18.7 36.4Z" fill="#35A6DE" fill-opacity="0.1"/>
<path d="M18.7 36.9C28.7516 36.9 36.9 28.7516 36.9 18.7C36.9 8.64842 28.7516 0.5 18.7 0.5C8.64842 0.5 0.5 8.64842 0.5 18.7C0.5 28.7516 8.64842 36.9 18.7 36.9Z" stroke="#35A6DE" stroke-opacity="0.2"/>
<path d="M26.991 12.1699C26.9414 12.8857 26.5304 15.3909 26.1229 18.1017L24.8437 26.1276C24.8437 26.1276 24.7409 27.3041 23.8728 27.5096C23.0046 27.7151 21.5731 26.7938 21.3179 26.5883C21.1124 26.4359 17.4839 24.1327 16.1551 23.0094C15.7972 22.7011 15.3897 22.0881 16.2047 21.3723C18.0438 19.6856 20.2443 17.5879 21.5731 16.2591C22.1861 15.6461 22.7991 14.2145 20.2443 15.9508L13.0333 20.8089C13.0333 20.8089 12.2148 21.3191 10.6804 20.8585C9.14612 20.3978 7.35667 19.7848 7.35667 19.7848C7.35667 19.7848 6.13063 19.0194 8.22482 18.2009L20.1415 13.2932C21.3144 12.7829 25.3043 11.1458 25.3043 11.1458C25.3043 11.1458 27.1434 10.4301 26.991 12.1699Z" fill="#35A6DE"/>
</svg>
