<svg xmlns="http://www.w3.org/2000/svg" width="16" height="16" viewBox="0 0 16 16" fill="none">
<path d="M2.36945 12.9066C2.02479 12.9066 1.72389 12.778 1.46675 12.5209C1.20962 12.2638 1.08105 11.9629 1.08105 11.6182V3.00187C1.08105 2.6561 1.20962 2.35425 1.46675 2.09634C1.72389 1.83843 2.02479 1.70947 2.36945 1.70947H13.6311C13.9768 1.70947 14.2787 1.83843 14.5366 2.09634C14.7945 2.35425 14.9234 2.6561 14.9234 3.00187V11.6182C14.9234 11.9629 14.7945 12.2638 14.5366 12.5209C14.2787 12.778 13.9768 12.9066 13.6311 12.9066H10.7216V13.6341C10.7216 13.8252 10.659 13.9817 10.5336 14.1037C10.4083 14.2257 10.2577 14.2867 10.0818 14.2867H5.93541C5.74806 14.2867 5.59247 14.2257 5.46862 14.1037C5.34479 13.9817 5.28287 13.8252 5.28287 13.6341V12.9066H2.36945ZM2.36945 11.6182H13.6311V3.00187H2.36945V11.6182Z" fill="currentColor"/>
<path d="M5.0856 9.24773C5.25003 9.41217 5.51663 9.41217 5.68107 9.24773L7.25362 7.67518C7.39 7.5388 7.61101 7.53845 7.74782 7.6744L8.35191 8.27473C8.61698 8.53813 9.04902 8.52434 9.29674 8.24456L11.6245 5.61551C11.7641 5.45794 11.7554 5.21862 11.6048 5.07161C11.4437 4.91438 11.1839 4.92353 11.0343 5.0917L9.07467 7.29468C8.94057 7.44543 8.70713 7.45188 8.56491 7.30877L7.95995 6.70002C7.70634 6.44483 7.29368 6.44419 7.03928 6.69859L5.0856 8.65227C4.92117 8.8167 4.92117 9.0833 5.0856 9.24773Z" fill="currentColor" stroke="currentColor" stroke-width="0.3"/>
</svg>