<svg width="49" height="50" viewBox="0 0 49 50" fill="none" xmlns="http://www.w3.org/2000/svg">
<path fill-rule="evenodd" clip-rule="evenodd" d="M24.5 49C37.7548 49 48.5 38.2548 48.5 25C48.5 11.7452 37.7548 1 24.5 1C11.2452 1 0.5 11.7452 0.5 25C0.5 38.2548 11.2452 49 24.5 49Z" stroke="#0ABB92"/>
<path d="M36.157 21.9516V24.0675C36.157 24.2005 36.1058 24.48 36.0034 24.9058L32.317 33.7285C32.1378 34.1544 31.8498 34.5203 31.453 34.8264C31.0562 35.1324 30.6274 35.2855 30.1666 35.2855H19.3762C18.685 35.2855 18.109 35.0459 17.6482 34.5669C17.1874 34.0878 16.957 33.489 16.957 32.7704V21.9516C16.957 21.233 17.1874 20.6342 17.6482 20.1551L25.597 11.9712L26.8642 13.2886C27.2226 13.6612 27.4018 14.1003 27.4018 14.606L26.2498 20.3148H34.5826C35.0178 20.3148 35.389 20.4745 35.6962 20.7939C36.0034 21.1133 36.157 21.4992 36.157 21.9516Z" stroke="#0ABB92"/>
</svg>
