<svg xmlns="http://www.w3.org/2000/svg" width="40" height="40" viewBox="0 0 40 40">
    <g fill="#D2AB66">
        <path d="M21.555 13.501c-3.919-4.31-10.515-4.571-14.76-.718-.195.196-.456.391-.652.653l-.009.014c-.152.266-.122.6.074.835l.065.065c3.853 4.245 10.45 4.506 14.694.653.196-.196.457-.392.653-.653l.005-.006c.185-.26.156-.617-.07-.843zm-9.012.392c0-.719.587-1.306 1.306-1.306.718 0 1.306.587 1.306 1.306 0 .718-.588 1.306-1.306 1.306-.719 0-1.306-.588-1.306-1.306zM13 11.41c-1.372.457-2.09 1.894-1.698 3.265.261.784.849 1.437 1.698 1.698-2.025-.195-3.984-1.045-5.486-2.481 1.567-1.437 3.461-2.286 5.486-2.482zm1.698 4.963c1.371-.457 2.09-1.893 1.698-3.265-.261-.783-.85-1.436-1.698-1.698 2.024.196 3.983 1.045 5.485 2.482-1.567 1.436-3.46 2.286-5.485 2.481z"/>
        <path d="M13.849 2.79c-6.14 0-11.102 4.964-11.102 11.103 0 6.139 4.963 11.102 11.102 11.102S24.95 20.032 24.95 13.893 19.988 2.79 13.849 2.79zm0 20.899c-5.42 0-9.796-4.376-9.796-9.796 0-5.42 4.375-9.796 9.796-9.796 5.42 0 9.796 4.375 9.796 9.796 0 5.42-4.376 9.796-9.796 9.796zM36.053 28.26V6.71c0-1.83-1.437-3.266-3.265-3.266h-7.184V4.75h7.184c1.11 0 1.959.849 1.959 1.96v21.55h1.306zM3.4 26.301v6.53c0 1.83 1.436 3.266 3.265 3.266h22.857V34.79H6.665c-1.11 0-1.959-.85-1.959-1.96v-6.53H3.4z"/>
        <path d="M31.677 27.542c-.392-.392-.849-.588-1.371-.588h-.457l-4.702-5.29c4.31-6.27 2.808-14.824-3.461-19.2-6.27-4.375-14.89-2.743-19.2 3.461-4.31 6.204-2.809 14.825 3.46 19.2 4.964 3.462 11.625 3.266 16.393-.522l4.571 5.16v.522c0 .522.196 1.044.588 1.37l6.792 6.793c1.175 1.175 3.004 1.175 4.18 0 1.175-1.176 1.175-3.004 0-4.18l-6.793-6.726zM1.441 13.892c0-6.856 5.55-12.407 12.408-12.407 6.857 0 12.408 5.55 12.408 12.408 0 6.857-5.551 12.408-12.408 12.408-6.857 0-12.408-5.551-12.408-12.408zm21.877 9.927c.327-.326.718-.718.98-1.044l4.31 4.832-1.045.98-4.245-4.768zM36.38 38.056c-.457 0-.849-.196-1.175-.457l-6.792-6.792c-.13-.13-.196-.261-.196-.457v-.523l1.567-1.567h.523c.196 0 .326.066.457.196l6.792 6.792c.653.653.653 1.698 0 2.35-.327.262-.784.458-1.176.458z"/>
    </g>
</svg>
