<svg width="40" height="40" viewBox="0 0 40 40" fill="none" xmlns="http://www.w3.org/2000/svg">
  <path fill-rule="evenodd" clip-rule="evenodd"
    d="M6.79583 12.7826C11.0407 8.92961 17.6367 9.19077 21.5551 13.501C21.7812 13.7272 21.8107 14.0837 21.6247 14.3439L21.6204 14.3499C21.4874 14.5272 21.3245 14.6744 21.1723 14.8118L21.1723 14.8118L21.1722 14.8119C21.1001 14.877 21.0303 14.94 20.9674 15.003C16.7225 18.8563 10.1265 18.5948 6.27351 14.3499L6.20814 14.2848C6.01178 14.0492 5.98246 13.7163 6.13459 13.45L6.14277 13.4357C6.27542 13.259 6.43785 13.1123 6.58967 12.9751C6.66229 12.9095 6.73248 12.8461 6.79583 12.7826ZM13.8491 12.5868C13.1306 12.5868 12.543 13.1745 12.543 13.8929C12.543 14.6114 13.1306 15.1991 13.8491 15.1991C14.5672 15.1991 15.1552 14.6114 15.1552 13.8929C15.1552 13.1745 14.5672 12.5868 13.8491 12.5868ZM12.9999 11.4111C11.6284 11.8684 10.9103 13.3052 11.3019 14.6764C11.5634 15.4602 12.1511 16.1133 12.9999 16.3744C10.9754 16.1787 9.01617 15.3295 7.51426 13.8929C9.08154 12.4561 10.9754 11.6072 12.9999 11.4111ZM16.396 13.1091C16.7879 14.4806 16.0694 15.9175 14.6979 16.3744C16.7225 16.1787 18.6163 15.3295 20.1836 13.8929C18.6817 12.4561 16.7225 11.6072 14.6979 11.4111C15.5468 11.6726 16.1348 12.3257 16.396 13.1091Z"
    fill="#00D09C" />
  <path fill-rule="evenodd" clip-rule="evenodd"
    d="M2.74683 13.8929C2.74683 7.75422 7.70984 2.79089 13.8489 2.79089C19.9876 2.79089 24.9509 7.75422 24.9509 13.8929C24.9509 20.0316 19.9876 24.995 13.8489 24.995C7.70984 24.995 2.74683 20.0316 2.74683 13.8929ZM4.05295 13.8929C4.05295 19.3132 8.42827 23.6889 13.8489 23.6889C19.2691 23.6889 23.6448 19.3132 23.6448 13.8929C23.6448 8.47233 19.2691 4.09702 13.8489 4.09702C8.42827 4.09702 4.05295 8.47233 4.05295 13.8929Z"
    fill="#00D09C" />
  <path
    d="M36.053 28.2603V6.70928C36.053 4.88051 34.6161 3.44397 32.7877 3.44397H25.604V4.75009H32.7877C33.8977 4.75009 34.7469 5.59894 34.7469 6.70928V28.2603H36.053Z"
    fill="#00D09C" />
  <path
    d="M3.3999 26.301V32.8316C3.3999 34.6601 4.83645 36.0969 6.66521 36.0969H29.5224V34.7908H6.66521C5.55488 34.7908 4.70602 33.9417 4.70602 32.8316V26.301H3.3999Z"
    fill="#00D09C" />
  <path fill-rule="evenodd" clip-rule="evenodd"
    d="M30.3059 26.9541C30.8286 26.9541 31.2855 27.1499 31.6774 27.5418L38.4692 34.2682C39.6449 35.4439 39.6449 37.2724 38.4692 38.4481C37.2938 39.6234 35.465 39.6234 34.2896 38.4481L27.4979 31.656C27.106 31.3294 26.9102 30.8071 26.9102 30.2848V29.7621L22.3388 24.603C17.5712 28.3907 10.9102 28.5868 5.94685 25.1254C-0.322597 20.75 -1.82451 12.1295 2.48544 5.92541C6.79571 -0.278667 15.4162 -1.91132 21.6857 2.46432C27.9548 6.83964 29.4571 15.3948 25.1468 21.6643L29.849 26.9541H30.3059ZM13.849 1.48473C6.99182 1.48473 1.4408 7.03575 1.4408 13.8929C1.4408 20.75 6.99182 26.3011 13.849 26.3011C20.7061 26.3011 26.2571 20.75 26.2571 13.8929C26.2571 7.03575 20.7061 1.48473 13.849 1.48473ZM23.3183 23.8192C23.6449 23.4927 24.0365 23.1011 24.2979 22.7746L28.6079 27.6072L27.5632 28.5868L23.3183 23.8192ZM35.2039 37.5989C35.5304 37.86 35.9223 38.0562 36.3796 38.0562C36.7712 38.0562 37.2284 37.86 37.555 37.5989C38.208 36.9458 38.208 35.9009 37.555 35.2478L30.7632 28.456C30.6324 28.3256 30.502 28.2602 30.3059 28.2602H29.7836L28.2163 29.8275V30.3498C28.2163 30.546 28.2814 30.6764 28.4121 30.8071L35.2039 37.5989Z"
    fill="#00D09C" />
</svg>
