<svg width="24" height="24" viewBox="0 0 24 24" fill="none" xmlns="http://www.w3.org/2000/svg">
<path d="M22 0H2C0.89543 0 0 0.89543 0 2V22C0 23.1046 0.89543 24 2 24H22C23.1046 24 24 23.1046 24 22V2C24 0.89543 23.1046 0 22 0Z" fill="#0E231E"/>
<path d="M16.9948 12.2552C16.8246 12.085 16.618 12 16.3749 12H9.66657V9.08338C9.66657 8.43918 9.89448 7.88934 10.3502 7.43358C10.806 6.97792 11.3559 6.75004 12.0001 6.75004C12.6442 6.75004 13.1941 6.97789 13.6497 7.43358C14.1055 7.88934 14.3334 8.43921 14.3334 9.08338C14.3334 9.24131 14.3911 9.37802 14.5065 9.49345C14.6221 9.60893 14.7587 9.66668 14.9165 9.66668H15.5002C15.6581 9.66668 15.7948 9.60893 15.9104 9.49345C16.0255 9.37802 16.0834 9.24131 16.0834 9.08338C16.0834 7.95913 15.6838 6.99772 14.8848 6.19861C14.0857 5.39947 13.1242 5 12.0001 5C10.8759 5 9.91427 5.39947 9.11513 6.19858C8.31612 6.99759 7.91662 7.95909 7.91662 9.08335V12H7.62499C7.38201 12 7.17536 12.0851 7.0052 12.2551C6.83504 12.4251 6.75 12.6318 6.75 12.8749V18.125C6.75 18.3681 6.83508 18.5748 7.0052 18.7449C7.17536 18.9149 7.38201 19 7.62499 19H16.3749C16.618 19 16.8248 18.9149 16.9948 18.7449C17.1648 18.5748 17.25 18.3681 17.25 18.125V12.8749C17.2501 12.6319 17.165 12.4254 16.9948 12.2552Z" fill="#0ABB92"/>
</svg>

