<svg width="24" height="24" viewBox="0 0 24 24" fill="none" xmlns="http://www.w3.org/2000/svg">
<rect width="24" height="24" rx="2" fill="#E5FAF5"/>
<path d="M16.9946 12.2552C16.8244 12.085 16.6178 12 16.3747 12H9.66642V9.08338C9.66642 8.43918 9.89433 7.88934 10.3501 7.43358C10.8059 6.97792 11.3557 6.75004 11.9999 6.75004C12.644 6.75004 13.1939 6.97789 13.6495 7.43358C14.1053 7.88934 14.3332 8.43921 14.3332 9.08338C14.3332 9.24131 14.3909 9.37802 14.5063 9.49345C14.6219 9.60893 14.7586 9.66668 14.9164 9.66668H15.5C15.6579 9.66668 15.7946 9.60893 15.9102 9.49345C16.0253 9.37802 16.0832 9.24131 16.0832 9.08338C16.0832 7.95913 15.6837 6.99772 14.8847 6.19861C14.0856 5.39947 13.124 5 11.9999 5C10.8757 5 9.91412 5.39947 9.11498 6.19858C8.31597 6.99759 7.91647 7.95909 7.91647 9.08335V12H7.62484C7.38186 12 7.17521 12.0851 7.00505 12.2551C6.83489 12.4251 6.74985 12.6318 6.74985 12.8749V18.125C6.74985 18.3681 6.83493 18.5748 7.00505 18.7449C7.17521 18.9149 7.38186 19 7.62484 19H16.3747C16.6178 19 16.8246 18.9149 16.9946 18.7449C17.1646 18.5748 17.2498 18.3681 17.2498 18.125V12.8749C17.2499 12.6319 17.1648 12.4254 16.9946 12.2552Z" fill="#00D09C"/>
</svg>
