<svg width="6" height="10" viewBox="0 0 6 10" fill="none" xmlns="http://www.w3.org/2000/svg">
<path d="M6 3.16753C6 3.27477 5.96289 3.36757 5.88867 3.44593C5.81445 3.52429 5.72656 3.56348 5.625 3.56348H0.375C0.273438 3.56348 0.185547 3.52429 0.111328 3.44593C0.0371094 3.36757 0 3.27477 0 3.16753C0 3.0603 0.0371094 2.9675 0.111328 2.88914L2.73633 0.117545C2.81055 0.0391817 2.89844 0 3 0C3.10156 0 3.18945 0.0391817 3.26367 0.117545L5.88867 2.88914C5.96289 2.9675 6 3.0603 6 3.16753Z" fill="#00D09C"/>
<path d="M0 6.33512C0 6.2279 0.0371094 6.1351 0.111328 6.05675C0.185547 5.97839 0.273438 5.93921 0.375 5.93921L5.625 5.93921C5.72656 5.93921 5.81445 5.97839 5.88867 6.05675C5.96289 6.1351 6 6.2279 6 6.33512C6 6.44235 5.96289 6.53514 5.88867 6.6135L3.26367 9.3849C3.18945 9.46326 3.10156 9.50244 3 9.50244C2.89844 9.50244 2.81055 9.46326 2.73633 9.3849L0.111328 6.6135C0.0371094 6.53514 0 6.44235 0 6.33512Z" fill="#00D09C"/>
</svg>
