<svg width="92" height="86" viewBox="0 0 92 86" fill="none" xmlns="http://www.w3.org/2000/svg">
<path d="M67.5154 7.21533H9.30078C4.16421 7.21533 0 11.3795 0 16.5161V70.6995C0 75.8361 4.16421 80.0003 9.30078 80.0003H67.5154C72.652 80.0003 76.8162 75.8361 76.8162 70.6995V16.5161C76.8162 11.3793 72.652 7.21533 67.5154 7.21533Z" fill="#ECEDEF"/>
<path d="M76.8162 24.6902V13.4209C76.8162 8.28432 72.652 4.12012 67.5154 4.12012H9.30078C4.16421 4.12012 0 8.28432 0 13.4209V24.6902H76.8162Z" fill="#02C594"/>
<path d="M76.8162 26.793V16.5161C76.8162 11.3795 72.652 7.21533 67.5154 7.21533H9.30078C4.16421 7.21533 0 11.3795 0 16.5161V26.793H76.8162Z" fill="#00D09C"/>
<path d="M15.2344 12.21C13.4416 12.21 11.9883 13.6633 11.9883 15.4561C11.9883 17.2489 13.4416 18.702 15.2344 18.702C17.0272 18.702 18.4803 17.2486 18.4803 15.4561C18.4806 13.6633 17.0272 12.21 15.2344 12.21Z" fill="#02C594"/>
<path d="M15.2347 0C14.2757 0 13.498 0.777629 13.498 1.73662V15.2672C13.498 16.2264 14.2757 17.0038 15.2347 17.0038C16.1937 17.0038 16.9713 16.2264 16.9713 15.2672V1.73662C16.9713 0.777629 16.1939 0 15.2347 0V0Z" fill="#7C7E8C"/>
<path d="M30.6836 12.21C28.8908 12.21 27.4375 13.6633 27.4375 15.4561C27.4375 17.2489 28.8908 18.702 30.6836 18.702C32.4764 18.702 33.9295 17.2486 33.9295 15.4561C33.9298 13.6633 32.4764 12.21 30.6836 12.21Z" fill="#02C594"/>
<path d="M30.6839 0C29.7249 0 28.9473 0.777629 28.9473 1.73662V15.2672C28.9473 16.2264 29.7249 17.0038 30.6839 17.0038C31.6429 17.0038 32.4205 16.2264 32.4205 15.2672V1.73662C32.4205 0.777629 31.6429 0 30.6839 0V0Z" fill="#7C7E8C"/>
<path d="M46.1329 12.21C44.3401 12.21 42.8867 13.6633 42.8867 15.4561C42.8867 17.2489 44.3401 18.702 46.1329 18.702C47.9257 18.702 49.3787 17.2486 49.3787 15.4561C49.3787 13.6633 47.9257 12.21 46.1329 12.21Z" fill="#02C594"/>
<path d="M46.1331 0C45.1741 0 44.3965 0.777629 44.3965 1.73662V15.2672C44.3965 16.2264 45.1741 17.0038 46.1331 17.0038C47.0921 17.0038 47.8697 16.2264 47.8697 15.2672V1.73662C47.8697 0.777629 47.0921 0 46.1331 0V0Z" fill="#7C7E8C"/>
<path d="M61.5821 12.21C59.7893 12.21 58.3359 13.6633 58.3359 15.4561C58.3359 17.2489 59.7893 18.702 61.5821 18.702C63.3749 18.702 64.8279 17.2486 64.8279 15.4561C64.8279 13.6633 63.3746 12.21 61.5821 12.21Z" fill="#02C594"/>
<path d="M61.5823 0C60.6233 0 59.8457 0.777629 59.8457 1.73662V15.2672C59.8457 16.2264 60.6233 17.0038 61.5823 17.0038C62.5413 17.0038 63.3189 16.2264 63.3189 15.2672V1.73662C63.3189 0.777629 62.5416 0 61.5823 0V0Z" fill="#7C7E8C"/>
<path d="M28.3438 39.6431H35.3643V46.6637H28.3438V39.6431Z" fill="#00D09C"/>
<path d="M41.4512 39.6431H48.4718V46.6637H41.4512V39.6431Z" fill="#00D09C"/>
<path d="M54.5605 39.6431H61.5811V46.6637H54.5605V39.6431Z" fill="#00D09C"/>
<path d="M15.2344 50.6489H22.255V57.6695H15.2344V50.6489Z" fill="#00D09C"/>
<path d="M28.3438 50.6489H35.3643V57.6695H28.3438V50.6489Z" fill="#00D09C"/>
<path d="M41.4512 50.6489H48.4718V57.6695H41.4512V50.6489Z" fill="#00D09C"/>
<path d="M54.5605 50.6489H61.5811V57.6695H54.5605V50.6489Z" fill="#00D09C"/>
<path d="M15.2344 61.6548H22.255V68.6754H15.2344V61.6548Z" fill="#00D09C"/>
<path d="M28.3438 61.6548H35.3643V68.6754H28.3438V61.6548Z" fill="#00D09C"/>
<path d="M41.4512 61.6548H48.4718V68.6754H41.4512V61.6548Z" fill="#00D09C"/>
<path d="M76.4082 86C84.6925 86 91.4082 79.2843 91.4082 71C91.4082 62.7157 84.6925 56 76.4082 56C68.1239 56 61.4082 62.7157 61.4082 71C61.4082 79.2843 68.1239 86 76.4082 86Z" fill="#44475B"/>
<path d="M76.4078 83.2224C83.158 83.2224 88.6301 77.7503 88.6301 71.0001C88.6301 64.2499 83.158 58.7778 76.4078 58.7778C69.6576 58.7778 64.1855 64.2499 64.1855 71.0001C64.1855 77.7503 69.6576 83.2224 76.4078 83.2224Z" fill="#F6F6F7"/>
<path d="M76.4082 72C75.8558 72 75.4082 71.4048 75.4082 70.6707V63.3293C75.4082 62.5952 75.8559 62 76.4082 62C76.9606 62 77.4082 62.5952 77.4082 63.3293V70.6707C77.4082 71.4048 76.9605 72 76.4082 72Z" fill="#FFB61B"/>
<path d="M82.8188 72.0061H77.5523C76.6743 72.0061 75.9629 71.5557 75.9629 71.0001C75.9629 70.4445 76.6745 69.9941 77.5523 69.9941H82.8188C83.6968 69.9941 84.4082 70.4445 84.4082 71.0001C84.4082 71.5557 83.6966 72.0061 82.8188 72.0061Z" fill="#FFB61B"/>
<path d="M76.4087 58.7778C75.8866 58.7778 75.3721 58.8108 74.8672 58.8743C80.8896 59.6323 85.5479 64.7721 85.5479 71.0001C85.5479 77.2281 80.8896 82.3679 74.8672 83.1259C75.3721 83.1894 75.8866 83.2224 76.4087 83.2224C83.1589 83.2224 88.631 77.7502 88.631 71.0001C88.631 64.25 83.1589 58.7778 76.4087 58.7778Z" fill="#DDDEE1"/>
</svg>
