<svg width="12" height="13" viewBox="0 0 12 13" fill="none" xmlns="http://www.w3.org/2000/svg">
  <path
    d="M10.9689 6.01932L11.6265 6.67693L6.55657 11.7469C6.11109 12.1924 5.59137 12.4929 4.9974 12.6485C4.4105 12.8111 3.82007 12.8146 3.2261 12.6591C2.6392 12.5106 2.12654 12.2171 1.68814 11.7787C1.24973 11.3403 0.952747 10.8241 0.797184 10.2301C0.64162 9.63617 0.638085 9.03867 0.786578 8.43763C0.942141 7.84366 1.24266 7.32394 1.68814 6.87846L7.19297 1.37363C7.51116 1.05543 7.88593 0.843302 8.31726 0.737236C8.75567 0.624099 9.19054 0.620564 9.62188 0.72663C10.0603 0.839767 10.4386 1.05543 10.7568 1.37363C11.075 1.69183 11.2871 2.0666 11.3932 2.49793C11.5063 2.9222 11.5028 3.35 11.3826 3.78133C11.2694 4.21974 11.0538 4.59804 10.7356 4.91624L6.10048 9.55132C5.90249 9.74931 5.66915 9.88366 5.40045 9.95437C5.13175 10.0251 4.86305 10.0251 4.59435 9.95437C4.33272 9.89073 4.10291 9.75992 3.90492 9.56193C3.70693 9.36394 3.56904 9.12706 3.49126 8.85129C3.42055 8.58259 3.41701 8.31035 3.48065 8.03458C3.55136 7.76588 3.68572 7.53253 3.88371 7.33454L8.08392 3.13433L8.75214 3.80254L4.55192 8.00276C4.42464 8.13004 4.361 8.27853 4.361 8.44824C4.37514 8.61794 4.44585 8.76643 4.57313 8.89371C4.70041 9.02099 4.84183 9.08463 4.9974 9.08463C5.1671 9.08463 5.3156 9.02099 5.44288 8.89371L10.078 4.25863C10.276 4.06064 10.4103 3.82729 10.481 3.55859C10.5588 3.28282 10.5623 3.01058 10.4916 2.74188C10.428 2.46611 10.2972 2.22923 10.0992 2.03124C9.90118 1.83325 9.6643 1.70244 9.38853 1.6388C9.11983 1.56809 8.84406 1.56809 8.56122 1.6388C8.29252 1.70951 8.05917 1.84386 7.86118 2.04185L2.35635 7.54667C2.03816 7.86487 1.82249 8.24317 1.70935 8.68158C1.59621 9.11999 1.59268 9.55486 1.69875 9.98619C1.81188 10.4246 2.02755 10.8029 2.34575 11.1211C2.66395 11.4393 3.03871 11.6514 3.47005 11.7575C3.90138 11.8636 4.33272 11.8565 4.76405 11.7363C5.20246 11.6231 5.58076 11.4075 5.89896 11.0893L10.9689 6.01932Z"
    fill="#00D09C" />
</svg>
