<svg width="35" height="35" viewBox="0 0 35 35" fill="none" xmlns="http://www.w3.org/2000/svg">
<path opacity="0.05" d="M17.5 35C27.165 35 35 27.165 35 17.5C35 7.83502 27.165 0 17.5 0C7.83502 0 0 7.83502 0 17.5C0 27.165 7.83502 35 17.5 35Z" fill="#00D09C"/>
<path d="M16.4902 19.7949C16.4902 19.5449 16.4017 19.3522 16.2246 19.2168C16.0501 19.0814 15.7337 18.9447 15.2754 18.8066C14.8171 18.6686 14.4525 18.515 14.1816 18.3457C13.6634 18.0202 13.4043 17.5957 13.4043 17.0723C13.4043 16.6139 13.5905 16.2363 13.9629 15.9395C14.3379 15.6426 14.8236 15.4941 15.4199 15.4941C15.8158 15.4941 16.1686 15.5671 16.4785 15.7129C16.7884 15.8587 17.0319 16.0671 17.209 16.3379C17.3861 16.6061 17.4746 16.9043 17.4746 17.2324H16.4902C16.4902 16.9355 16.3965 16.7038 16.209 16.5371C16.0241 16.3678 15.7585 16.2832 15.4121 16.2832C15.0892 16.2832 14.8379 16.3522 14.6582 16.4902C14.4811 16.6283 14.3926 16.821 14.3926 17.0684C14.3926 17.2767 14.4889 17.4512 14.6816 17.5918C14.8743 17.7298 15.1921 17.8652 15.6348 17.998C16.0775 18.1283 16.4329 18.278 16.7012 18.4473C16.9694 18.6139 17.166 18.8066 17.291 19.0254C17.416 19.2415 17.4785 19.4954 17.4785 19.7871C17.4785 20.2611 17.2962 20.6387 16.9316 20.9199C16.5697 21.1986 16.0775 21.3379 15.4551 21.3379C15.0436 21.3379 14.6647 21.2624 14.3184 21.1113C13.9746 20.9577 13.7064 20.7467 13.5137 20.4785C13.3236 20.2103 13.2285 19.8978 13.2285 19.541H14.2168C14.2168 19.8639 14.3236 20.1139 14.5371 20.291C14.7507 20.4681 15.0566 20.5566 15.4551 20.5566C15.7988 20.5566 16.0566 20.4876 16.2285 20.3496C16.403 20.209 16.4902 20.0241 16.4902 19.7949ZM19.4434 16.0059V17.0332H20.1895V17.7363H19.4434V20.0957C19.4434 20.2572 19.4746 20.3743 19.5371 20.4473C19.6022 20.5176 19.7168 20.5527 19.8809 20.5527C19.9902 20.5527 20.1009 20.5397 20.2129 20.5137V21.248C19.9967 21.3079 19.7884 21.3379 19.5879 21.3379C18.8587 21.3379 18.4941 20.9355 18.4941 20.1309V17.7363H17.7988V17.0332H18.4941V16.0059H19.4434Z" fill="#00D09C"/>
<path fill-rule="evenodd" clip-rule="evenodd" d="M11.3 10.2899C9.65976 10.2899 8.33004 11.6196 8.33004 13.2599V23.1599C8.33004 24.8002 9.65976 26.1299 11.3 26.1299H21.2C22.8403 26.1299 24.17 24.8002 24.17 23.1599V16.7949C24.17 16.6126 24.3178 16.4649 24.5 16.4649C24.6823 16.4649 24.83 16.6126 24.83 16.7949V23.1599C24.83 25.1647 23.2048 26.7899 21.2 26.7899H11.3C9.29525 26.7899 7.67004 25.1647 7.67004 23.1599V13.2599C7.67004 11.2551 9.29525 9.62988 11.3 9.62988H18.5486C18.7309 9.62988 18.8786 9.77763 18.8786 9.95988C18.8786 10.1421 18.7309 10.2899 18.5486 10.2899H11.3Z" fill="#00D09C"/>
<path d="M24.9375 14L24.9375 8.67563L27.3809 11.1191L28 10.5L24.5 7L21 10.5L21.6191 11.1191L24.0625 8.67563L24.0625 14L24.9375 14Z" fill="#00D09C"/>
</svg>
