<svg width="35" height="35" viewBox="0 0 35 35" fill="none" xmlns="http://www.w3.org/2000/svg">
<path opacity="0.05" d="M17.5 35C27.165 35 35 27.165 35 17.5C35 7.83502 27.165 0 17.5 0C7.83502 0 0 7.83502 0 17.5C0 27.165 7.83502 35 17.5 35Z" fill="#00D09C"/>
<path d="M25.0362 9.9938H28V11.0207H25.0362V14H23.9638V11.0207H21V9.9938H23.9638V7H25.0362V9.9938Z" fill="#00D09C"/>
<path d="M17.8015 19.5679C17.8015 19.2912 17.7037 19.058 17.5082 18.8686C17.3157 18.6791 16.9894 18.5076 16.5292 18.3542C15.8885 18.1587 15.4208 17.9046 15.126 17.5917C14.8343 17.2759 14.6884 16.8759 14.6884 16.3916C14.6884 15.8983 14.8313 15.4938 15.117 15.178C15.4058 14.8621 15.8013 14.6742 16.3036 14.614V13.6259H16.9758V14.6185C17.4812 14.6877 17.8737 14.8997 18.1534 15.2547C18.4361 15.6096 18.5775 16.0954 18.5775 16.712H17.7473C17.7473 16.2879 17.6466 15.951 17.4451 15.7013C17.2435 15.4517 16.9713 15.3269 16.6284 15.3269C16.2705 15.3269 15.9968 15.4201 15.8073 15.6066C15.6178 15.7901 15.5231 16.0472 15.5231 16.3781C15.5231 16.6849 15.6223 16.93 15.8208 17.1135C16.0224 17.294 16.3517 17.4594 16.8089 17.6098C17.2691 17.7572 17.627 17.9211 17.8827 18.1016C18.1414 18.279 18.3309 18.4866 18.4512 18.7242C18.5745 18.9618 18.6362 19.24 18.6362 19.5588C18.6362 20.0672 18.4828 20.4762 18.176 20.786C17.8722 21.0958 17.4451 21.2793 16.8946 21.3365V22.1982H16.2269V21.3365C15.6674 21.2853 15.2283 21.0868 14.9095 20.7409C14.5937 20.392 14.4357 19.9198 14.4357 19.3242H15.2704C15.2704 19.7423 15.3802 20.0642 15.5998 20.2897C15.8193 20.5153 16.1306 20.6281 16.5337 20.6281C16.9277 20.6281 17.2375 20.5334 17.4631 20.3439C17.6887 20.1544 17.8015 19.8957 17.8015 19.5679Z" fill="#00D09C"/>
<path fill-rule="evenodd" clip-rule="evenodd" d="M11.3 10.2909C9.65976 10.2909 8.33004 11.6206 8.33004 13.2609V23.1609C8.33004 24.8011 9.65976 26.1309 11.3 26.1309H21.2C22.8403 26.1309 24.17 24.8011 24.17 23.1609V16.7958C24.17 16.6136 24.3178 16.4658 24.5 16.4658C24.6823 16.4658 24.83 16.6136 24.83 16.7958V23.1609C24.83 25.1657 23.2048 26.7909 21.2 26.7909H11.3C9.29525 26.7909 7.67004 25.1657 7.67004 23.1609V13.2609C7.67004 11.2561 9.29525 9.63086 11.3 9.63086H18.5486C18.7309 9.63086 18.8786 9.77861 18.8786 9.96086C18.8786 10.1431 18.7309 10.2909 18.5486 10.2909H11.3Z" fill="#00D09C"/>
</svg>
