<svg width="35" height="35" viewBox="0 0 35 35" fill="none" xmlns="http://www.w3.org/2000/svg">
<path opacity="0.05" d="M17.5 35C27.165 35 35 27.165 35 17.5C35 7.83502 27.165 0 17.5 0C7.83502 0 0 7.83502 0 17.5C0 27.165 7.83502 35 17.5 35Z" fill="#FFB61B"/>
<path d="M24.388 8.4659V10.634L26.2393 11.7329L25.9324 12.2576L23.7643 10.9409V8.4659H24.388ZM24.1702 13.8416C24.7642 13.8416 25.3186 13.6898 25.8334 13.3862C26.335 13.0958 26.731 12.6998 27.0214 12.1982C27.325 11.6834 27.4768 11.129 27.4768 10.535C27.4768 9.941 27.325 9.3866 27.0214 8.8718C26.731 8.3702 26.335 7.9742 25.8334 7.6838C25.3186 7.3802 24.7642 7.2284 24.1702 7.2284C23.5762 7.2284 23.0218 7.3802 22.507 7.6838C22.0054 7.9742 21.6094 8.3702 21.319 8.8718C21.0154 9.3866 20.8636 9.941 20.8636 10.535C20.8636 11.129 21.0154 11.6834 21.319 12.1982C21.6094 12.6998 22.0054 13.0958 22.507 13.3862C23.0218 13.6898 23.5762 13.8416 24.1702 13.8416ZM24.1702 6.4166C24.9226 6.4166 25.6189 6.6047 26.2591 6.9809C26.8795 7.3373 27.3679 7.8257 27.7243 8.4461C28.1005 9.0863 28.2886 9.7826 28.2886 10.535C28.2886 11.2874 28.1005 11.9837 27.7243 12.6239C27.3679 13.2443 26.8795 13.7327 26.2591 14.0891C25.6189 14.4653 24.9226 14.6534 24.1702 14.6534C23.4178 14.6534 22.7215 14.4653 22.0813 14.0891C21.4609 13.7261 20.9725 13.2344 20.6161 12.614C20.2399 11.9738 20.0518 11.2808 20.0518 10.535C20.0518 9.7892 20.2399 9.0962 20.6161 8.456C20.9791 7.8356 21.4708 7.3439 22.0912 6.9809C22.7314 6.6047 23.4244 6.4166 24.1702 6.4166Z" fill="#FFB61B"/>
<path d="M17.802 20.5679C17.802 20.2912 17.7042 20.058 17.5087 19.8686C17.3162 19.6791 16.9899 19.5076 16.5297 19.3542C15.889 19.1587 15.4213 18.9046 15.1265 18.5917C14.8348 18.2759 14.6889 17.8759 14.6889 17.3916C14.6889 16.8983 14.8318 16.4938 15.1175 16.178C15.4062 15.8621 15.8018 15.6742 16.3041 15.614V14.6259H16.9763V15.6185C17.4816 15.6877 17.8742 15.8997 18.1539 16.2547C18.4366 16.6096 18.578 17.0954 18.578 17.712H17.7478C17.7478 17.2879 17.6471 16.951 17.4455 16.7013C17.244 16.4517 16.9718 16.3269 16.6289 16.3269C16.271 16.3269 15.9973 16.4201 15.8078 16.6066C15.6183 16.7901 15.5236 17.0472 15.5236 17.3781C15.5236 17.6849 15.6228 17.93 15.8213 18.1135C16.0229 18.294 16.3522 18.4594 16.8094 18.6098C17.2696 18.7572 17.6275 18.9211 17.8832 19.1016C18.1419 19.279 18.3313 19.4866 18.4517 19.7242C18.575 19.9618 18.6366 20.24 18.6366 20.5588C18.6366 21.0672 18.4832 21.4762 18.1764 21.786C17.8727 22.0958 17.4455 22.2793 16.8951 22.3365V23.1982H16.2274V22.3365C15.6679 22.2853 15.2288 22.0868 14.91 21.7409C14.5941 21.392 14.4362 20.9198 14.4362 20.3242H15.2709C15.2709 20.7423 15.3807 21.0642 15.6003 21.2897C15.8198 21.5153 16.1311 21.6281 16.5342 21.6281C16.9282 21.6281 17.238 21.5334 17.4636 21.3439C17.6892 21.1544 17.802 20.8957 17.802 20.5679Z" fill="#FFB61B"/>
<path d="M24.5 16.7959C24.5 18.2104 24.5 20.332 24.5 23.1609C24.5 24.9835 23.0225 26.4609 21.2 26.4609H11.3C9.47746 26.4609 8 24.9835 8 23.1609V13.2609C8 11.4384 9.47746 9.96094 11.3 9.96094H18.5486" stroke="#FFB61B" stroke-width="0.66" stroke-linecap="round"/>
</svg>
