<svg width="40" height="40" viewBox="0 0 40 40" fill="none" xmlns="http://www.w3.org/2000/svg">
<path d="M20 40C31.0457 40 40 31.0457 40 20C40 8.9543 31.0457 0 20 0C8.9543 0 0 8.9543 0 20C0 31.0457 8.9543 40 20 40Z" fill="#2A0F09"/>
<path d="M21.9199 7.98267L18.6101 7.9899L18.6162 10.7863L14.0061 10.7964L14.0292 21.3664L23.2493 21.3343L23.2565 24.6137L14.0364 24.6338L14.0443 28.277L18.6544 28.2669L18.6605 31.0633L21.9703 31.0561L21.9642 28.2597L26.5743 28.2496L26.5512 17.6797L17.3311 17.7117L17.3239 14.4324L26.544 14.4122L26.5361 10.769L21.926 10.7791L21.9199 7.98267Z" fill="#D55438"/>
</svg>
