<svg width="35" height="35" viewBox="0 0 35 35" fill="none" xmlns="http://www.w3.org/2000/svg">
<path opacity="0.05" d="M17.5 35C27.165 35 35 27.165 35 17.5C35 7.83502 27.165 0 17.5 0C7.83502 0 0 7.83502 0 17.5C0 27.165 7.83502 35 17.5 35Z" fill="#FFB61B"/>
<path fill-rule="evenodd" clip-rule="evenodd" d="M11.3 10.291C9.65976 10.291 8.33004 11.6207 8.33004 13.261V23.161C8.33004 24.8012 9.65976 26.131 11.3 26.131H21.2C22.8403 26.131 24.17 24.8012 24.17 23.161V16.7959C24.17 16.6137 24.3178 16.4659 24.5 16.4659C24.6823 16.4659 24.83 16.6137 24.83 16.7959V23.161C24.83 25.1657 23.2048 26.791 21.2 26.791H11.3C9.29525 26.791 7.67004 25.1657 7.67004 23.161V13.261C7.67004 11.2562 9.29525 9.63095 11.3 9.63095H18.5486C18.7309 9.63095 18.8786 9.7787 18.8786 9.96095C18.8786 10.1432 18.7309 10.291 18.5486 10.291H11.3Z" fill="#FFB61B"/>
<path d="M12.8421 17.8571V20.8571H14.1053V17.8571H12.8421ZM15.3684 17.8571V20.8571H16.6316V17.8571H15.3684ZM12 23H20V21.7143H12V23ZM17.8947 17.8571V20.8571H19.1579V17.8571H17.8947ZM16 14L12 16.1429V17H20V16.1429L16 14Z" fill="#FFB61B"/>
<path d="M24.9375 14L24.9375 8.67563L27.3809 11.1191L28 10.5L24.5 7L21 10.5L21.6191 11.1191L24.0625 8.67563L24.0625 14L24.9375 14Z" fill="#FFB61B"/>
</svg>
