<svg width="35" height="35" viewBox="0 0 35 35" fill="none" xmlns="http://www.w3.org/2000/svg">
<path opacity="0.05" d="M17.5 35C27.165 35 35 27.165 35 17.5C35 7.83502 27.165 0 17.5 0C7.83502 0 0 7.83502 0 17.5C0 27.165 7.83502 35 17.5 35Z" fill="#00D09C"/>
<path fill-rule="evenodd" clip-rule="evenodd" d="M11.3 10.2909C9.65976 10.2909 8.33004 11.6206 8.33004 13.2609V23.1609C8.33004 24.8012 9.65976 26.1309 11.3 26.1309H21.2C22.8403 26.1309 24.17 24.8012 24.17 23.1609V16.7959C24.17 16.6137 24.3178 16.4659 24.5 16.4659C24.6823 16.4659 24.83 16.6137 24.83 16.7959V23.1609C24.83 25.1657 23.2048 26.7909 21.2 26.7909H11.3C9.29525 26.7909 7.67004 25.1657 7.67004 23.1609V13.2609C7.67004 11.2561 9.29525 9.63094 11.3 9.63094H18.5486C18.7309 9.63094 18.8786 9.77868 18.8786 9.96094C18.8786 10.1432 18.7309 10.2909 18.5486 10.2909H11.3Z" fill="#00D09C"/>
<path d="M12.8421 17.8571V20.8571H14.1053V17.8571H12.8421ZM15.3684 17.8571V20.8571H16.6316V17.8571H15.3684ZM12 23H20V21.7143H12V23ZM17.8947 17.8571V20.8571H19.1579V17.8571H17.8947ZM16 14L12 16.1429V17H20V16.1429L16 14Z" fill="#00D09C"/>
<path d="M24.9375 14L24.9375 8.67563L27.3809 11.1191L28 10.5L24.5 7L21 10.5L21.6191 11.1191L24.0625 8.67563L24.0625 14L24.9375 14Z" fill="#00D09C"/>
</svg>
