<svg width="16" height="16" viewBox="0 0 16 16" fill="none" xmlns="http://www.w3.org/2000/svg">
  <path fill-rule="evenodd" clip-rule="evenodd"
    d="M12.3498 0.391606L15.1915 3.23327C15.4415 3.48327 15.5832 3.82494 15.5832 4.17494V14.6666C15.5832 15.3999 14.9832 15.9999 14.2498 15.9999H1.74984C1.0165 15.9999 0.416504 15.3999 0.416504 14.6666V1.33327C0.416504 0.599939 1.0165 -6.10352e-05 1.74984 -6.10352e-05H11.4082C11.7582 -6.10352e-05 12.0998 0.141606 12.3498 0.391606ZM14.2498 14.9999C14.4332 14.9999 14.5832 14.8499 14.5832 14.6666V4.17494C14.5832 4.09161 14.5498 4.00827 14.4832 3.94161L11.6415 1.09994C11.5832 1.03327 11.4915 0.999939 11.4082 0.999939H1.74984C1.5665 0.999939 1.4165 1.14994 1.4165 1.33327V14.6666C1.4165 14.8499 1.5665 14.9999 1.74984 14.9999H14.2498ZM3.83317 4.74994H9.6665C9.9415 4.74994 10.1665 4.52494 10.1665 4.24994C10.1665 3.97494 9.9415 3.74994 9.6665 3.74994H3.83317C3.55817 3.74994 3.33317 3.97494 3.33317 4.24994C3.33317 4.52494 3.55817 4.74994 3.83317 4.74994ZM3.83317 7.49994H12.1665C12.4415 7.49994 12.6665 7.72494 12.6665 7.99994C12.6665 8.27494 12.4415 8.49994 12.1665 8.49994H3.83317C3.55817 8.49994 3.33317 8.27494 3.33317 7.99994C3.33317 7.72494 3.55817 7.49994 3.83317 7.49994ZM3.83317 11.2499H12.1665C12.4415 11.2499 12.6665 11.4749 12.6665 11.7499C12.6665 12.0249 12.4415 12.2499 12.1665 12.2499H3.83317C3.55817 12.2499 3.33317 12.0249 3.33317 11.7499C3.33317 11.4749 3.55817 11.2499 3.83317 11.2499Z"
    fill="#FFFFFF" opacity="0.7" />
</svg>
