<?xml version="1.0" encoding="UTF-8"?>
<svg width="43px" height="50px" viewBox="0 0 43 50" version="1.1" xmlns="http://www.w3.org/2000/svg" xmlns:xlink="http://www.w3.org/1999/xlink">
    <title>Group 25</title>
    <g id="Final-" stroke="none" stroke-width="1" fill="none" fill-rule="evenodd">
        <g id="MFI_Main_Screen_info" transform="translate(-159.000000, -179.000000)">
            <g id="Group-16" transform="translate(0.000000, 143.000000)">
                <g id="Group-19" transform="translate(95.000000, 36.000000)">
                    <g id="Group-26">
                        <g id="Group-25" transform="translate(64.000000, 0.000000)">
                            <g id="Group-15">
                                <g id="Group-4" transform="translate(12.000000, 18.000000)"></g>
                                <circle id="Oval" fill="#FFDC64" opacity="0.100000001" cx="21.5" cy="21.5" r="21.5"></circle>
                            </g>
                            <g id="lightning" transform="translate(7.000000, 4.000000)" fill-rule="nonzero">
                                <path d="M10.880075,45.7588594 L28.777425,15.2080312 C29.1826094,14.5163242 28.6079562,13.6651445 27.8084625,13.772957 L15.9036,15.3771172 L18.7480469,0.572484375 C18.8439281,0.0734023437 18.1948719,-0.212570313 17.8854781,0.192355469 L0.288459375,23.220207 C-0.224115625,23.8908906 0.3186375,24.844582 1.16271875,24.7565352 L14.2877563,23.3868672 L9.98497188,45.4262578 C9.88120625,45.9578633 10.6057531,46.227125 10.880075,45.7588594 Z" id="Path" fill="#FFDC64"></path>
                                <path d="M5.79139062,21.5882852 C5.46269375,21.6143398 5.24437812,21.2581094 5.41910312,20.9809414 L18.57595,0.111496094 C18.3802,-0.0420468751 18.072075,-0.0519296876 17.8854781,0.192265625 L0.288459375,23.2201172 C-0.224115625,23.8908906 0.3186375,24.8444922 1.16271875,24.7564453 L14.2877562,23.3867773 L9.98497188,45.426168 C9.92697188,45.7234609 10.1292469,45.9326172 10.3656875,45.9826602 L17.7388469,22.8526562 C18.0844906,21.7685117 17.2124969,20.6823906 16.0692625,20.7731328 L5.79139062,21.5882852 Z" id="Path" fill="#FFC850"></path>
                            </g>
                        </g>
                    </g>
                </g>
            </g>
        </g>
    </g>
</svg>