<?xml version="1.0" encoding="UTF-8"?>
<svg width="20px" height="20px" viewBox="0 0 20 20" version="1.1" xmlns="http://www.w3.org/2000/svg" xmlns:xlink="http://www.w3.org/1999/xlink">
    <title>Group</title>
    <g id="GB-ledgers-Web" stroke="none" stroke-width="1" fill="none" fill-rule="evenodd">
        <g id="Artboard" transform="translate(-69.000000, -64.000000)">
            <g id="Group" transform="translate(69.000000, 64.000000)">
                <circle id="Oval" stroke="#00d09c" opacity="0.100000001" cx="10" cy="10" r="9.5"></circle>
                <path d="M14.0625,15 C14.3229167,15 14.5442708,14.9094828 14.7265625,14.7284483 C14.9088542,14.5474138 15,14.3275862 15,14.0689655 L15,8.34698276 C15,8.23706897 14.9609375,8.07543103 14.8828125,7.86206897 C14.8046875,7.6487069 14.5898438,7.49353448 14.2382812,7.39655172 L7.17773438,6 C6.92382812,6 6.70410156,6.09051724 6.51855469,6.27155172 C6.33300781,6.45258621 6.24023438,6.67241379 6.24023438,6.93103448 L6.24023438,8.17241379 L5.92773438,8.17241379 C5.67382812,8.17887931 5.45572917,8.27262931 5.2734375,8.45366379 C5.09114583,8.63469828 5,8.8512931 5,9.10344828 L5,14.0689655 C5,14.3275862 5.09114583,14.5474138 5.2734375,14.7284483 C5.45572917,14.9094828 5.67708333,15 5.9375,15 L14.0625,15 Z M13.75,8.17241379 L6.86523438,8.17241379 L6.86523438,6.93103448 C6.86523438,6.84698276 6.89290365,6.77586207 6.94824219,6.71767241 C7.00358073,6.65948276 7.07356771,6.62715517 7.15820312,6.62068966 L14.0527344,8.0075431 C14.0527344,8.0075431 14.0332031,8.03663793 13.9941406,8.09482759 C13.9550781,8.15301724 13.8736979,8.17887931 13.75,8.17241379 Z M14.0625,14.3793103 L5.9375,14.3793103 C5.85286458,14.3793103 5.7796224,14.3485991 5.71777344,14.2871767 C5.65592448,14.2257543 5.625,14.1530172 5.625,14.0689655 L5.625,9.10344828 C5.625,9.01939655 5.65592448,8.94665948 5.71777344,8.88523707 C5.7796224,8.82381466 5.85286458,8.79310345 5.9375,8.79310345 L13.75,8.79310345 C13.8997396,8.79310345 14.0413411,8.76724138 14.1748047,8.71551724 C14.3082682,8.6637931 14.375,8.5862069 14.375,8.48275862 L14.375,14.0689655 C14.375,14.1530172 14.3440755,14.2257543 14.2822266,14.2871767 C14.2203776,14.3485991 14.1471354,14.3793103 14.0625,14.3793103 Z M6.875,12.2068966 C7.04427083,12.2068966 7.19075521,12.1470905 7.31445312,12.0274784 C7.43815104,11.9078664 7.5,11.7607759 7.5,11.5862069 C7.5,11.4181034 7.43815104,11.2726293 7.31445312,11.1497845 C7.19075521,11.0269397 7.04427083,10.9655172 6.875,10.9655172 C6.69921875,10.9655172 6.55110677,11.0269397 6.43066406,11.1497845 C6.31022135,11.2726293 6.25,11.4181034 6.25,11.5862069 C6.25,11.7607759 6.31022135,11.9078664 6.43066406,12.0274784 C6.55110677,12.1470905 6.69921875,12.2068966 6.875,12.2068966 Z" id="" fill="#00d09c" fill-rule="nonzero"></path>
            </g>
        </g>
    </g>
</svg>
