<svg width="152" height="153" viewBox="0 0 152 153" fill="none" xmlns="http://www.w3.org/2000/svg">
<g opacity="0.9">
<path d="M76 136.5C109.137 136.5 136 109.637 136 76.5C136 43.3629 109.137 16.5 76 16.5C42.8629 16.5 16 43.3629 16 76.5C16 109.637 42.8629 136.5 76 136.5Z" fill="#EBF9F5"/>
<path d="M76.4612 119.423C99.9121 119.423 118.923 100.412 118.923 76.9615C118.923 53.5106 99.9121 34.4999 76.4612 34.4999C53.0104 34.4999 33.9997 53.5106 33.9997 76.9615C33.9997 100.412 53.0104 119.423 76.4612 119.423Z" fill="#00B386"/>
</g>
<path d="M79.1788 53.7879C79.1841 52.1172 77.8339 50.7584 76.1632 50.7532C74.4924 50.7479 73.1337 52.098 73.1284 53.7688L73.0472 79.4384C73.0419 81.1092 74.3921 82.4679 76.0628 82.4732L90.3237 82.5183C91.9945 82.5236 93.3532 81.1734 93.3585 79.5027C93.3638 77.8319 92.0136 76.4732 90.3429 76.4679L79.1072 76.4324L79.1788 53.7879Z" fill="white"/>
</svg>
