<svg width="120" height="120" viewBox="0 0 120 120" fill="none" xmlns="http://www.w3.org/2000/svg">
<path d="M60 120C93.1371 120 120 93.1371 120 60C120 26.8629 93.1371 0 60 0C26.8629 0 0 26.8629 0 60C0 93.1371 26.8629 120 60 120Z" fill="#EEF0FF"/>
<path d="M59.8571 102.714C83.5265 102.714 102.714 83.5265 102.714 59.8571C102.714 36.1878 83.5265 17 59.8571 17C36.1878 17 17 36.1878 17 59.8571C17 83.5265 36.1878 102.714 59.8571 102.714Z" fill="#5367FF"/>
<path d="M76 48H68V44C68 41.78 66.22 40 64 40H56C53.78 40 52 41.78 52 44V48H44C41.78 48 40.02 49.78 40.02 52L40 74C40 76.22 41.78 78 44 78H76C78.22 78 80 76.22 80 74V52C80 49.78 78.22 48 76 48ZM64 48H56V44H64V48Z" fill="white"/>
</svg>

