<svg width="20" height="21" viewBox="0 0 20 21" fill="none" xmlns="http://www.w3.org/2000/svg">
<path d="M15.0195 1.84766C13.4831 0.949219 11.8099 0.5 10 0.5C8.1901 0.5 6.51693 0.949219 4.98047 1.84766C3.44401 2.73307 2.22656 3.94401 1.32812 5.48047C0.442708 7.01693 0 8.6901 0 10.5C0 12.3099 0.442708 13.9831 1.32812 15.5195C2.22656 17.056 3.44401 18.2669 4.98047 19.1523C6.51693 20.0508 8.1901 20.5 10 20.5C11.8099 20.5 13.4831 20.0508 15.0195 19.1523C16.556 18.2669 17.7669 17.056 18.6523 15.5195C19.5508 13.9831 20 12.3099 20 10.5C20 8.6901 19.5508 7.01693 18.6523 5.48047C17.7669 3.94401 16.556 2.73307 15.0195 1.84766ZM9.21875 5.01172C9.21875 4.79036 9.29036 4.60807 9.43359 4.46484C9.58984 4.30859 9.77865 4.23047 10 4.23047C10.2214 4.23047 10.4036 4.30859 10.5469 4.46484C10.7031 4.60807 10.7812 4.79036 10.7812 5.01172V12.2188C10.7812 12.4401 10.7031 12.6289 10.5469 12.7852C10.4036 12.9284 10.2214 13 10 13C9.77865 13 9.58984 12.9284 9.43359 12.7852C9.29036 12.6289 9.21875 12.4401 9.21875 12.2188V5.01172ZM10.625 15.7539C10.4557 15.9232 10.2474 16.0078 10 16.0078C9.7526 16.0078 9.54427 15.9232 9.375 15.7539C9.20573 15.5846 9.12109 15.3763 9.12109 15.1289C9.12109 14.8815 9.20573 14.6732 9.375 14.5039C9.54427 14.3346 9.7526 14.25 10 14.25C10.2474 14.25 10.4557 14.3346 10.625 14.5039C10.7943 14.6732 10.8789 14.8815 10.8789 15.1289C10.8789 15.3763 10.7943 15.5846 10.625 15.7539Z" fill="#EB5B3C"/>
</svg>
